<svg xmlns="http://www.w3.org/2000/svg" xmlns:svg="http://www.w3.org/2000/svg" xmlns:xlink="http://www.w3.org/1999/xlink" id="f002-Layer_1" width="29.311em" height="19.634em" x="0" y="0" enable-background="new 0 0 235.486 158.07" version="1.1" viewBox="0.497 0.498 234.491 157.073" xml:space="preserve"><metadata id="metadata241"/><defs id="defs27"><path id="f002-glyph-0-22" d="M 412 -140C 397 -109 384 -90 373 -83C 362 -76 343 -73 315 -73L 129 -73L 270 -222C 319 -275 353 -319 372 -352C 392 -387 402 -425 402 -466C 402 -516 385 -557 352 -588C 319 -619 279 -635 234 -635C 181 -635 136 -615 99 -576L 42 -495L 64 -475C 105 -537 150 -568 201 -568C 274 -568 318 -519 318 -435C 318 -362 278 -293 193 -193C 160 -154 108 -98 32 -23L 32 0L 405 0L 440 -131Z"/><path id="f002-glyph-0-20" d="M 241 -635C 90 -635 35 -458 35 -312C 35 -153 91 12 240 12C 389 12 443 -165 443 -312C 443 -466 390 -635 241 -635ZM 238 -602C 282 -602 313 -571 330 -509C 346 -456 354 -390 354 -312C 354 -239 346 -173 331 -115C 315 -55 283 -22 240 -22C 212 -22 189 -37 171 -67C 154 -96 141 -131 134 -174C 127 -214 124 -260 124 -313C 124 -388 132 -453 147 -509C 163 -569 195 -602 238 -602Z"/><path id="f002-glyph-0-25" d="M 412 -615L 406 -623L 120 -623L 82 -318C 117 -331 151 -338 184 -338C 289 -338 347 -280 347 -187C 347 -146 336 -111 314 -82C 292 -53 261 -39 221 -39C 180 -39 138 -56 97 -89C 89 -96 80 -96 71 -90C 58 -79 50 -68 49 -57C 48 -45 53 -34 66 -23C 83 -6 129 12 169 12C 228 11 286 -13 342 -59C 401 -108 431 -164 431 -225C 431 -270 414 -310 379 -344C 345 -378 298 -395 238 -395C 215 -395 178 -385 127 -364L 153 -550L 386 -550Z"/><path id="f002-glyph-0-23" d="M 285 -378C 314 -397 336 -415 353 -432C 374 -451 384 -474 384 -503C 384 -579 323 -635 236 -635L 235 -635C 184 -635 142 -616 108 -579L 65 -516L 85 -496C 120 -549 160 -575 205 -575C 262 -575 300 -541 300 -481C 300 -413 249 -374 141 -339L 147 -310C 172 -317 194 -321 211 -321C 244 -321 273 -310 299 -288C 325 -267 338 -235 338 -192C 338 -96 290 -40 217 -40C 173 -40 132 -57 93 -91C 86 -98 78 -98 69 -91C 54 -80 47 -69 46 -58C 44 -46 49 -34 62 -22C 79 -5 123 12 162 12C 207 12 260 -7 319 -44C 380 -83 424 -151 424 -224C 424 -300 373 -359 285 -376Z"/><path id="f002-glyph-0-24" d="M 360 -225L 360 -632L 320 -632C 241 -529 141 -387 20 -206L 20 -178L 280 -178L 280 -106C 280 -73 276 -52 267 -44C 259 -36 233 -30 189 -27L 189 0L 445 0L 445 -27C 406 -30 381 -36 372 -43C 364 -51 360 -72 360 -106L 360 -178L 456 -178L 456 -225ZM 82 -225C 137 -316 202 -414 278 -520L 280 -520L 280 -225Z"/><path id="f002-glyph-1-56" d="M 956 -650L 735 -650L 735 -622C 814 -613 818 -602 804 -542C 788 -471 733 -275 691 -142L 689 -142C 628 -314 570 -476 514 -640L 485 -640C 434 -477 376 -312 323 -142L 321 -142C 277 -284 238 -419 199 -554C 184 -605 186 -613 259 -622L 259 -650L 16 -650L 16 -622C 77 -614 92 -606 117 -524C 172 -346 228 -170 281 10L 312 10C 363 -151 419 -312 475 -488L 477 -488C 528 -343 597 -150 652 10L 683 10C 765 -269 825 -458 848 -522C 878 -605 887 -613 956 -622Z"/><path id="f002-glyph-1-66" d="M 433 -39L 423 -65C 413 -59 399 -54 387 -54C 370 -54 352 -69 352 -114L 352 -300C 352 -352 342 -393 307 -422C 285 -440 255 -449 225 -449C 168 -438 103 -399 75 -379C 56 -365 43 -354 43 -339C 43 -316 69 -296 87 -296C 101 -296 112 -303 116 -319C 124 -350 133 -372 146 -385C 156 -397 171 -405 191 -405C 241 -405 275 -364 275 -292L 275 -274C 253 -256 180 -229 120 -209C 65 -190 39 -159 39 -110C 39 -47 88 12 159 12C 189 12 237 -25 277 -52C 282 -35 288 -21 301 -7C 312 3 333 12 348 12ZM 275 -84C 256 -66 221 -49 195 -48C 164 -48 124 -73 124 -125C 124 -161 146 -180 185 -198C 206 -208 254 -229 275 -240Z"/><path id="f002-glyph-1-87" d="M 477 -437L 299 -437L 299 -412C 356 -405 362 -394 347 -346C 325 -281 293 -190 258 -107C 229 -179 189 -284 163 -354C 147 -397 149 -405 203 -412L 203 -437L -2 -437L -2 -412C 52 -404 60 -397 83 -339C 130 -223 176 -109 221 11L 248 11C 303 -138 356 -261 389 -336C 416 -396 425 -405 477 -412Z"/><path id="f002-glyph-1-70" d="M 379 -106C 343 -72 305 -56 265 -56C 195 -56 117 -112 116 -248C 235 -252 360 -262 377 -265C 395 -269 400 -277 400 -297C 400 -375 333 -449 250 -449C 198 -449 144 -422 103 -376C 62 -331 37 -270 37 -201C 37 -88 109 12 232 12C 263 12 332 -6 395 -85ZM 226 -412C 281 -412 315 -364 314 -312C 314 -298 308 -292 290 -292C 232 -290 177 -289 121 -289C 136 -370 180 -412 226 -412Z"/><path id="f002-glyph-1-77" d="M 238 0L 238 -26C 174 -32 166 -38 166 -104L 166 -712C 132 -700 70 -683 18 -677L 18 -653C 81 -648 87 -645 87 -577L 87 -104C 87 -38 78 -32 15 -26L 15 0Z"/><path id="f002-glyph-1-79" d="M 523 0L 523 -26C 465 -32 460 -36 460 -104L 460 -297C 460 -394 410 -449 331 -449C 302 -449 276 -437 248 -419C 223 -402 201 -387 181 -372L 181 -452C 137 -432 90 -420 42 -411L 42 -388C 96 -378 102 -375 102 -311L 102 -104C 102 -38 97 -33 29 -26L 29 0L 246 0L 246 -26C 187 -32 181 -36 181 -104L 181 -339C 211 -365 250 -390 290 -390C 357 -390 381 -345 381 -276L 381 -109C 381 -40 374 -32 315 -26L 315 0Z"/><path id="f002-glyph-1-72" d="M 462 -438C 426 -432 375 -426 326 -424C 297 -440 264 -449 230 -449C 153 -449 51 -397 51 -283C 51 -215 94 -168 139 -149C 123 -129 91 -103 51 -88C 50 -78 53 -61 62 -46C 75 -25 100 -2 136 9C 112 27 73 59 53 79C 38 94 29 113 29 135C 30 192 91 257 202 257C 335 257 452 160 452 59C 452 -39 370 -59 308 -59C 275 -59 239 -58 203 -58C 158 -58 140 -77 140 -97C 140 -111 156 -129 170 -138C 186 -136 204 -133 221 -133C 306 -133 396 -185 396 -293C 396 -329 385 -360 366 -382L 423 -379C 439 -388 459 -414 468 -430ZM 220 -419C 277 -419 314 -363 314 -284C 314 -205 275 -166 231 -165C 175 -165 137 -221 137 -299C 137 -377 176 -419 220 -419ZM 242 11C 284 11 313 14 338 24C 367 36 384 61 384 95C 384 157 335 206 240 206C 166 206 108 165 108 111C 108 82 128 54 154 33C 172 17 194 11 242 11Z"/><path id="f002-glyph-1-85" d="M 298 -36L 289 -62C 275 -55 252 -45 227 -45C 202 -45 169 -60 169 -141L 169 -398L 276 -398C 288 -405 291 -427 282 -437L 169 -437L 169 -574L 155 -576L 90 -510L 90 -437L 44 -437L 17 -408L 21 -398L 90 -398L 90 -107C 90 -28 125 12 188 12C 197 12 213 8 230 -1Z"/><path id="f002-glyph-1-73" d="M 513 0L 513 -26C 454 -31 447 -37 447 -103L 447 -278C 447 -398 390 -449 309 -449C 255 -449 201 -412 166 -376L 166 -712C 127 -700 67 -684 19 -677L 19 -654C 85 -648 87 -643 87 -580L 87 -103C 87 -37 78 -31 18 -26L 18 0L 230 0L 230 -26C 171 -32 166 -39 166 -103L 166 -341C 194 -373 232 -392 270 -392C 337 -392 368 -351 368 -269L 368 -103C 368 -38 360 -32 302 -26L 302 0Z"/><path id="f002-glyph-1-9" d="M 300 147C 201 63 143 -98 143 -270C 143 -442 200 -603 300 -686L 282 -709C 136 -610 70 -450 70 -271C 70 -90 136 71 282 169Z"/><path id="f002-glyph-1-78" d="M 796 0L 796 -26C 739 -32 731 -36 731 -103L 731 -296C 731 -394 682 -449 604 -449C 576 -449 550 -437 529 -423C 504 -408 475 -389 446 -367C 426 -419 383 -449 335 -449C 303 -449 279 -438 253 -422C 223 -403 201 -385 180 -371L 180 -452C 136 -432 85 -419 41 -411L 41 -388C 99 -379 102 -374 102 -310L 102 -103C 102 -38 93 -32 27 -26L 27 0L 238 0L 238 -26C 189 -32 181 -38 181 -103L 181 -338C 211 -363 250 -390 290 -390C 351 -390 377 -349 377 -275L 377 -103C 377 -37 368 -32 306 -26L 306 0L 520 0L 520 -26C 465 -32 456 -38 456 -101L 456 -296C 456 -315 455 -326 453 -338C 491 -370 529 -390 565 -390C 628 -390 653 -345 653 -274L 653 -107C 653 -36 642 -32 583 -26L 583 0Z"/><path id="f002-glyph-1-10" d="M 45 -686C 145 -604 203 -442 203 -270C 203 -98 147 62 45 147L 64 169C 213 68 275 -90 275 -270C 275 -450 213 -609 64 -709Z"/><path id="f002-glyph-0-27" d="M 65 -623C 60 -564 54 -515 47 -475L 76 -475C 89 -509 100 -530 109 -538C 119 -546 140 -550 172 -550L 388 -550C 307 -371 208 -191 91 1L 98 12L 172 2L 455 -611L 447 -623Z"/><path id="f002-glyph-1-13" d="M 94 -129C 70 -129 46 -113 46 -88C 46 -71 53 -64 58 -63C 93 -55 121 -32 121 4C 121 42 92 68 44 88L 55 117C 116 99 186 56 186 -21C 186 -91 130 -129 94 -129Z"/><path id="f002-glyph-0-18" d="M 113 12C 146 12 170 -11 170 -46C 170 -78 146 -103 114 -103C 82 -103 58 -78 58 -46C 58 -11 81 12 113 12Z"/><path id="f002-glyph-0-21" d="M 384 -27C 339 -30 311 -36 301 -45C 292 -54 287 -77 287 -114L 287 -635C 227 -610 168 -593 109 -583L 109 -559L 157 -557C 178 -556 192 -553 197 -546C 202 -539 205 -523 205 -499L 205 -114C 205 -77 200 -54 190 -45C 181 -36 154 -30 109 -27L 109 0L 384 0Z"/><path id="f002-glyph-0-961" d="M 52 -280L 52 -230L 535 -230L 535 -280Z"/><path id="f002-glyph-1-34" d="M 673 0L 673 -28C 608 -34 595 -43 563 -129C 499 -303 432 -493 370 -665L 339 -656L 132 -131C 97 -43 83 -37 20 -28L 20 0L 237 0L 237 -28C 162 -35 153 -45 175 -108C 188 -150 203 -192 219 -237L 432 -237C 454 -176 474 -122 487 -83C 500 -44 491 -36 428 -28L 428 0ZM 418 -280L 234 -280C 264 -362 296 -449 328 -535L 330 -535Z"/><path id="f002-glyph-1-67" d="M 152 -404L 152 -712C 115 -699 54 -683 7 -677L 7 -654C 71 -648 73 -642 73 -580L 73 -24C 128 2 179 12 220 12C 354 12 471 -92 471 -239C 471 -357 381 -449 274 -449C 263 -449 249 -446 233 -439ZM 152 -374C 170 -385 202 -393 230 -393C 313 -393 383 -327 383 -213C 383 -97 330 -26 247 -26C 194 -27 164 -62 158 -82C 154 -91 152 -101 152 -116Z"/><path id="f002-glyph-1-84" d="M 320 -325C 317 -350 306 -409 298 -432C 277 -440 250 -449 209 -449C 117 -449 57 -390 57 -320C 57 -243 122 -210 182 -182C 232 -159 261 -135 261 -91C 261 -49 227 -21 190 -21C 130 -21 85 -79 67 -145L 41 -140C 41 -104 50 -36 57 -22C 75 -7 121 12 172 12C 252 12 337 -35 337 -126C 337 -195 286 -231 211 -262C 166 -281 126 -304 126 -349C 126 -388 153 -418 191 -418C 240 -418 275 -378 294 -319Z"/></defs><g id="g236"><line id="line29" x1="31.243" x2="229.4" y1="126.862" y2="126.862" fill="none" stroke="gray" stroke-dasharray="3 2" stroke-linejoin="bevel" stroke-miterlimit="10" stroke-width=".5"/><rect id="rect31" width="198.241" height="131.002" x="31.159" y="3.784" fill="none" stroke="#000" stroke-linejoin="bevel" stroke-miterlimit="10" stroke-width=".5"/><line id="line33" x1="30.991" x2="33.831" y1="24.332" y2="24.332" fill="none" stroke="#000" stroke-linejoin="bevel" stroke-miterlimit="10" stroke-width=".5"/><line id="line35" x1="30.991" x2="35.263" y1="44.939" y2="44.939" fill="none" stroke="#000" stroke-linejoin="bevel" stroke-miterlimit="10" stroke-width=".5"/><line id="line37" x1="30.991" x2="33.831" y1="65.244" y2="65.244" fill="none" stroke="#000" stroke-linejoin="bevel" stroke-miterlimit="10" stroke-width=".5"/><line id="line39" x1="30.991" x2="35.263" y1="85.85" y2="85.85" fill="none" stroke="#000" stroke-linejoin="bevel" stroke-miterlimit="10" stroke-width=".5"/><line id="line41" x1="30.991" x2="33.831" y1="106.256" y2="106.256" fill="none" stroke="#000" stroke-linejoin="bevel" stroke-miterlimit="10" stroke-width=".5"/><line id="line43" x1="30.991" x2="35.263" y1="126.862" y2="126.862" fill="none" stroke="#000" stroke-linejoin="bevel" stroke-miterlimit="10" stroke-width=".5"/><line id="line45" x1="66.173" x2="66.173" y1="134.803" y2="131.989" fill="none" stroke="#000" stroke-linejoin="bevel" stroke-miterlimit="10" stroke-width=".5"/><line id="line47" x1="101.707" x2="101.707" y1="134.803" y2="130.28" fill="none" stroke="#000" stroke-linejoin="bevel" stroke-miterlimit="10" stroke-width=".5"/><line id="line49" x1="137.197" x2="137.197" y1="134.803" y2="131.989" fill="none" stroke="#000" stroke-linejoin="bevel" stroke-miterlimit="10" stroke-width=".5"/><line id="line51" x1="208.106" x2="208.106" y1="134.803" y2="131.989" fill="none" stroke="#000" stroke-linejoin="bevel" stroke-miterlimit="10" stroke-width=".5"/><line id="line53" x1="172.731" x2="172.731" y1="134.803" y2="130.28" fill="none" stroke="#000" stroke-linejoin="bevel" stroke-miterlimit="10" stroke-width=".5"/><path id="path55" fill="none" stroke="green" stroke-linejoin="bevel" stroke-miterlimit="10" stroke-width=".5" d="M31.159,25.601 c0,0,3.954-17.05,6.517-16.95l2.463,2.614l1.055,2.915l16.133,71.67c0,0,4.373,15.329,12.665,16.988c0,0,9.951,3.87,15.028,8.846 c0,0,9.449,9.047,19.199-1.055l8.594-8.695l0.452-0.251v-1.106l3.317-2.865l0.302-0.151v-1.055l2.513-2.362l0.653-0.201v-1.156 c0,0,8.996-9.901,14.726-8.695c0,0,7.254-1.055,17.976,20.456c0,0,8.142,19.501,19.065,21.813h4.523l0.159,0.835h52.873"/><line id="line57" x1="135.673" x2="135.673" y1="81.293" y2="86.721" fill="none" stroke="gray" stroke-linejoin="bevel" stroke-miterlimit="10" stroke-width=".5"/><g id="g67"><g id="g65" transform="matrix(1 0 0 1 25.3862 143.5151)"><use id="use59" transform="matrix(0.008 0 0 0.008 0.000000 0.000000)" xlink:href="#f002-glyph-0-22"/><use id="use61" transform="matrix(0.008 0 0 0.008 3.840000 0.000000)" xlink:href="#f002-glyph-0-20"/><use id="use63" transform="matrix(0.008 0 0 0.008 7.680000 0.000000)" xlink:href="#f002-glyph-0-20"/></g></g><g id="g79"><g id="g73" transform="matrix(1 0 0 1 96.0297 143.5151)"><use id="use69" transform="matrix(0.008 0 0 0.008 0.000000 0.000000)" xlink:href="#f002-glyph-0-22"/><use id="use71" transform="matrix(0.008 0 0 0.008 3.840000 0.000000)" xlink:href="#f002-glyph-0-25"/></g><g id="g77" transform="matrix(1 0 0 1 103.8217 143.5151)"><use id="use75" transform="matrix(0.008 0 0 0.008 0.000000 0.000000)" xlink:href="#f002-glyph-0-20"/></g></g><g id="g91"><g id="g83" transform="matrix(1 0 0 1 167.2675 143.5151)"><use id="use81" transform="matrix(0.008 0 0 0.008 0.000000 0.000000)" xlink:href="#f002-glyph-0-23"/></g><g id="g89" transform="matrix(1 0 0 1 171.1635 143.5151)"><use id="use85" transform="matrix(0.008 0 0 0.008 0.000000 0.000000)" xlink:href="#f002-glyph-0-20"/><use id="use87" transform="matrix(0.008 0 0 0.008 3.840000 0.000000)" xlink:href="#f002-glyph-0-20"/></g></g><g id="g105"><g id="g95" transform="matrix(1 0 0 1 223.6524 143.5146)"><use id="use93" transform="matrix(0.008 0 0 0.008 0.000000 0.000000)" xlink:href="#f002-glyph-0-23"/></g><g id="g99" transform="matrix(1 0 0 1 227.5484 143.5146)"><use id="use97" transform="matrix(0.008 0 0 0.008 0.000000 0.000000)" xlink:href="#f002-glyph-0-24"/></g><g id="g103" transform="matrix(1 0 0 1 231.4444 143.5146)"><use id="use101" transform="matrix(0.008 0 0 0.008 0.000000 0.000000)" xlink:href="#f002-glyph-0-20"/></g></g><g id="g137"><g id="g135" transform="matrix(1 0 0 1 102.3438 155.5151)"><use id="use107" transform="matrix(0.008 0 0 0.008 0.000000 0.000000)" xlink:href="#f002-glyph-1-56"/><use id="use109" transform="matrix(0.008 0 0 0.008 6.976000 0.000000)" xlink:href="#f002-glyph-1-66"/><use id="use111" transform="matrix(0.008 0 0 0.008 10.344000 0.000000)" xlink:href="#f002-glyph-1-87"/><use id="use113" transform="matrix(0.008 0 0 0.008 13.984000 0.000000)" xlink:href="#f002-glyph-1-70"/><use id="use115" transform="matrix(0.008 0 0 0.008 17.352000 0.000000)" xlink:href="#f002-glyph-1-77"/><use id="use117" transform="matrix(0.008 0 0 0.008 19.376000 0.000000)" xlink:href="#f002-glyph-1-70"/><use id="use119" transform="matrix(0.008 0 0 0.008 22.776000 0.000000)" xlink:href="#f002-glyph-1-79"/><use id="use121" transform="matrix(0.008 0 0 0.008 27.088000 0.000000)" xlink:href="#f002-glyph-1-72"/><use id="use123" transform="matrix(0.008 0 0 0.008 30.832000 0.000000)" xlink:href="#f002-glyph-1-85"/><use id="use125" transform="matrix(0.008 0 0 0.008 33.320000 0.000000)" xlink:href="#f002-glyph-1-73"/><use id="use127" transform="matrix(0.008 0 0 0.008 39.408000 0.000000)" xlink:href="#f002-glyph-1-9"/><use id="use129" transform="matrix(0.008 0 0 0.008 42.176000 0.000000)" xlink:href="#f002-glyph-1-79"/><use id="use131" transform="matrix(0.008 0 0 0.008 46.552000 0.000000)" xlink:href="#f002-glyph-1-78"/><use id="use133" transform="matrix(0.008 0 0 0.008 53.104000 0.000000)" xlink:href="#f002-glyph-1-10"/></g></g><g id="g179"><g id="g143" transform="matrix(1 0 0 1 107.7352 78.1499)"><use id="use139" transform="matrix(0.008 0 0 0.008 0.000000 0.000000)" xlink:href="#f002-glyph-0-22"/><use id="use141" transform="matrix(0.008 0 0 0.008 3.840000 0.000000)" xlink:href="#f002-glyph-0-27"/></g><g id="g147" transform="matrix(1 0 0 1 115.5272 78.1499)"><use id="use145" transform="matrix(0.008 0 0 0.008 0.000000 0.000000)" xlink:href="#f002-glyph-0-24"/></g><g id="g155" transform="matrix(1 0 0 1 120.4855 78.1499)"><use id="use149" transform="matrix(0.008 0 0 0.008 0.000000 0.000000)" xlink:href="#f002-glyph-1-79"/><use id="use151" transform="matrix(0.008 0 0 0.008 4.376000 0.000000)" xlink:href="#f002-glyph-1-78"/><use id="use153" transform="matrix(0.008 0 0 0.008 10.928000 0.000000)" xlink:href="#f002-glyph-1-13"/></g><g id="g163" transform="matrix(1 0 0 1 135.0913 78.1499)"><use id="use157" transform="matrix(0.008 0 0 0.008 0.000000 0.000000)" xlink:href="#f002-glyph-0-20"/><use id="use159" transform="matrix(0.008 0 0 0.008 3.840000 0.000000)" xlink:href="#f002-glyph-0-18"/><use id="use161" transform="matrix(0.008 0 0 0.008 5.664000 0.000000)" xlink:href="#f002-glyph-0-25"/></g><g id="g171" transform="matrix(1 0 0 1 144.7794 78.1499)"><use id="use165" transform="matrix(0.008 0 0 0.008 0.000000 0.000000)" xlink:href="#f002-glyph-0-22"/><use id="use167" transform="matrix(0.008 0 0 0.008 3.840000 0.000000)" xlink:href="#f002-glyph-0-21"/><use id="use169" transform="matrix(0.008 0 0 0.008 7.680000 0.000000)" xlink:href="#f002-glyph-0-23"/></g><g id="g177" transform="matrix(1 0 0 1 156.4674 78.1499)"><use id="use173" transform="matrix(0.008 0 0 0.008 0.000000 0.000000)" xlink:href="#f002-glyph-0-22"/><use id="use175" transform="matrix(0.008 0 0 0.008 3.840000 0.000000)" xlink:href="#f002-glyph-0-27"/></g></g><g id="g193"><g id="g183" transform="matrix(1 0 0 1 13.2668 136.586)"><use id="use181" transform="matrix(0.008 0 0 0.008 0.000000 0.000000)" xlink:href="#f002-glyph-0-961"/></g><g id="g191" transform="matrix(1 0 0 1 18.1548 136.586)"><use id="use185" transform="matrix(0.008 0 0 0.008 0.000000 0.000000)" xlink:href="#f002-glyph-0-20"/><use id="use187" transform="matrix(0.008 0 0 0.008 3.840000 0.000000)" xlink:href="#f002-glyph-0-18"/><use id="use189" transform="matrix(0.008 0 0 0.008 5.664000 0.000000)" xlink:href="#f002-glyph-0-21"/></g></g><g id="g199"><g id="g197" transform="matrix(1 0 0 1 23.8191 128.8365)"><use id="use195" transform="matrix(0.008 0 0 0.008 0.000000 0.000000)" xlink:href="#f002-glyph-0-20"/></g></g><g id="g209"><g id="g207" transform="matrix(1 0 0 1 18.155 87.9225)"><use id="use201" transform="matrix(0.008 0 0 0.008 0.000000 0.000000)" xlink:href="#f002-glyph-0-20"/><use id="use203" transform="matrix(0.008 0 0 0.008 3.840000 0.000000)" xlink:href="#f002-glyph-0-18"/><use id="use205" transform="matrix(0.008 0 0 0.008 5.664000 0.000000)" xlink:href="#f002-glyph-0-25"/></g></g><g id="g215"><g id="g213" transform="matrix(1 0 0 1 23.8191 47.0084)"><use id="use211" transform="matrix(0.008 0 0 0.008 0.000000 0.000000)" xlink:href="#f002-glyph-0-21"/></g></g><g id="f002-page1" transform="matrix(0.996 0 0 0.996 0 0)"><g id="g223" transform="matrix(1.004 0 0 1.004 18.2662 5.5801)"><use id="use217" transform="matrix(0.007968 0 0 0.007968 0.000000 0.000000)" xlink:href="#f002-glyph-0-21"/><use id="use219" transform="matrix(0.007968 0 0 0.007968 3.824640 0.000000)" xlink:href="#f002-glyph-0-18"/><use id="use221" transform="matrix(0.007968 0 0 0.007968 5.641344 0.000000)" xlink:href="#f002-glyph-0-25"/></g></g><g id="g234"><g id="g232" transform="matrix(0 -1 1 0 6.1931 75.4292)"><use id="use226" transform="matrix(0.008 0 0 0.008 0.000000 0.000000)" xlink:href="#f002-glyph-1-34"/><use id="use228" transform="matrix(0.008 0 0 0.008 5.288000 0.000000)" xlink:href="#f002-glyph-1-67"/><use id="use230" transform="matrix(0.008 0 0 0.008 9.352000 0.000000)" xlink:href="#f002-glyph-1-84"/></g></g></g></svg>