<svg xmlns="http://www.w3.org/2000/svg" xmlns:se="http://imprintnext.com" xmlns:xlink="http://www.w3.org/1999/xlink" id="svgcontent" width="955" height="626" x="0" y="0" overflow="visible" viewBox="0 0 955 626"><defs><clipPath id="bound_0" xe_id="bound_0"><rect id="xe_3sjlqh" width="483.4" height="483.4" x="235.8" y="71.3" pointer-events="all"/></clipPath></defs><g id="bounds" display="none"><path id="bound_0" width="483.4" height="483.4" x="235.8" y="71.3" fill="none" stroke="#006400" stroke-miterlimit="null" stroke-width="1" d="M235.80000000000004 71.30000000000001 L719.1999999999999 71.30000000000001 L719.1999999999999 554.7 L235.80000000000004 554.7 Z" aHeight="10" aWidth="10" cropVal="0" isBleed="0" pointer-events="all" safeVal="0" xe_id="bound_0"/></g><g id="Layer_0" class="layer" clip-path="url(#bound_0)" xe_id="Layer_0" style="pointer-events:all"><title>Layer_0</title><metadata id="metadata16" pointer-events="bounding-box">image/svg+xml</metadata><g id="g8" pointer-events="bounding-box" transform="matrix(0.912695, 0, 0, 0.912695, -155.511, -89.5639)" xe-props="&amp;#35;&amp;#103;&amp;#76;&amp;#73;&amp;#65;&amp;#101;&amp;#122;&amp;#127;&amp;#26;&amp;#89;&amp;#92;&amp;#97;&amp;#63;&amp;#32;&amp;#26;&amp;#28;&amp;#19;&amp;#111;&amp;#58;&amp;#47;&amp;#93;&amp;#83;&amp;#69;&amp;#84;&amp;#49;&amp;#49;&amp;#84;&amp;#85;&amp;#19;&amp;#58;&amp;#122;&amp;#103;&amp;#20;&amp;#18;&amp;#88;&amp;#115;&amp;#12;&amp;#32;&amp;#85;&amp;#64;&amp;#93;&amp;#97;&amp;#44;&amp;#32;&amp;#113;&amp;#93;&amp;#86;&amp;#34;&amp;#98;&amp;#35;&amp;#89;&amp;#92;&amp;#66;&amp;#101;&amp;#116;&amp;#103;&amp;#91;&amp;#95;&amp;#95;&amp;#116;&amp;#61;&amp;#43;&amp;#76;&amp;#100;&amp;#72;&amp;#112;&amp;#61;&amp;#103;&amp;#2;&amp;#18;&amp;#88;&amp;#109;&amp;#57;&amp;#34;&amp;#93;&amp;#31;&amp;#66;&amp;#118;&amp;#63;&amp;#110;&amp;#64;&amp;#93;&amp;#93;&amp;#34;&amp;#116;&amp;#103;&amp;#87;&amp;#94;&amp;#84;&amp;#67;&amp;#55;&amp;#41;&amp;#87;&amp;#66;&amp;#119;&amp;#105;&amp;#52;&amp;#41;&amp;#26;&amp;#10;&amp;#19;&amp;#35;&amp;#30;&amp;#3;&amp;#8;&amp;#0;&amp;#1;&amp;#48;&amp;#122;&amp;#105;&amp;#26;&amp;#89;&amp;#92;&amp;#103;&amp;#12;&amp;#60;&amp;#72;&amp;#85;&amp;#19;&amp;#58;&amp;#122;&amp;#54;&amp;#78;&amp;#87;&amp;#19;&amp;#44;&amp;#122;&amp;#44;&amp;#85;&amp;#87;&amp;#98;&amp;#101;&amp;#52;&amp;#32;&amp;#91;&amp;#68;&amp;#88;&amp;#111;&amp;#54;&amp;#17;&amp;#65;&amp;#64;&amp;#84;&amp;#34;&amp;#98;&amp;#103;&amp;#77;&amp;#64;&amp;#93;&amp;#111;&amp;#57;&amp;#33;&amp;#26;&amp;#28;&amp;#19;&amp;#108;&amp;#55;&amp;#38;&amp;#83;&amp;#18;&amp;#11;&amp;#123;&amp;#122;&amp;#38;&amp;#87;&amp;#92;&amp;#94;&amp;#114;&amp;#29;&amp;#33;&amp;#81;&amp;#68;&amp;#19;&amp;#58;&amp;#62;&amp;#36;&amp;#84;&amp;#67;&amp;#84;&amp;#44;&amp;#122;&amp;#33;&amp;#93;&amp;#92;&amp;#84;&amp;#116;&amp;#61;&amp;#103;&amp;#2;&amp;#86;&amp;#80;&amp;#108;&amp;#43;&amp;#32;&amp;#20;&amp;#18;&amp;#92;&amp;#111;&amp;#46;&amp;#32;&amp;#26;&amp;#10;&amp;#87;&amp;#97;&amp;#52;&amp;#54;&amp;#93;&amp;#28;&amp;#19;&amp;#114;&amp;#55;&amp;#49;&amp;#89;&amp;#68;&amp;#84;&amp;#34;&amp;#98;&amp;#35;&amp;#89;&amp;#92;&amp;#66;&amp;#101;&amp;#116;&amp;#103;&amp;#74;&amp;#85;&amp;#66;&amp;#105;&amp;#34;&amp;#32;&amp;#26;&amp;#10;&amp;#87;&amp;#97;&amp;#52;&amp;#54;&amp;#93;&amp;#28;&amp;#19;&amp;#101;&amp;#60;&amp;#44;&amp;#76;&amp;#18;&amp;#11;&amp;#102;&amp;#57;&amp;#41;&amp;#75;&amp;#85;&amp;#76;&amp;#44;&amp;#122;&amp;#38;&amp;#87;&amp;#92;&amp;#94;&amp;#114;&amp;#43;&amp;#103;&amp;#2;&amp;#107;&amp;#19;&amp;#35;&amp;#96;&amp;#38;&amp;#12;&amp;#7;&amp;#8;&amp;#57;&amp;#122;&amp;#105;&amp;#26;&amp;#19;&amp;#85;&amp;#48;&amp;#104;&amp;#117;&amp;#15;&amp;#0;&amp;#19;&amp;#44;&amp;#122;&amp;#102;&amp;#8;&amp;#0;&amp;#2;&amp;#50;&amp;#57;&amp;#117;&amp;#26;&amp;#109;&amp;#29;&amp;#34;&amp;#49;&amp;#40;&amp;#89;&amp;#87;&amp;#84;&amp;#87;&amp;#57;&amp;#55;&amp;#86;&amp;#89;&amp;#95;&amp;#103;&amp;#122;&amp;#127;&amp;#94;&amp;#81;&amp;#93;&amp;#115;&amp;#61;&amp;#56;"><path id="path2" fill="#8c4799" d="M874.5736568011287,620.8028698253631 C774.6266568011287,720.7828698253632 612.5136568011287,720.7638698253631 512.5636568011287,620.8028698253631 C412.56465680112865,520.8178698253632 412.56465680112865,358.72286982536315 512.5636568011287,258.7428698253632 C612.5386568011287,158.77686982536318 774.6336568011286,158.77686982536318 874.5636568011287,258.75699982536315 C974.5576568011287,358.71799982536317 974.5576568011287,520.8169998253632 874.5726568011287,620.7969998253632" oldFill="#8c4799"/><path id="path4" fill="#d00070" d="M836.0436568011287,249.67486982536315 C796.3136568011287,219.87186982536315 747.0136568011287,202.21886982536316 693.5636568011287,202.21886982536316 C562.3636568011286,202.21886982536316 456.01365680112866,308.5888698253632 456.01365680112866,439.7888698253632 C456.01365680112866,492.5868698253632 473.25665680112866,541.3488698253632 502.3896568011287,580.7888698253632 C662.1396568011287,534.2788698253631 788.2996568011287,408.94886982536315 836.0396568011287,249.66886982536317" oldFill="#d00070"/><path id="path6" fill="#0032a0" d="M892.8636568011286,310.59286982536315 C897.6501568011287,326.1398698253631 900.3070568011287,342.61386982536317 900.3070568011287,359.70586982536315 C900.3070568011287,414.8588698253632 873.1420568011287,463.37586982536317 831.9480568011287,493.75586982536316 C760.1980568011287,546.5758698253632 655.6680568011286,546.6458698253632 511.3380568011287,592.1258698253632 C554.9080568011286,644.1958698253632 620.3580568011287,677.3458698253631 693.5680568011287,677.3458698253631 C824.7780568011287,677.3458698253631 931.1680568011286,570.9858698253631 931.1680568011286,439.7958698253632 C931.1680568011286,392.1658698253632 917.0550568011287,347.8248698253632 892.8630568011287,310.60586982536313 L892.8636568011286,310.59286982536315 zM883.6331568011287,746.5328698253632 C878.1116568011287,746.5328698253632 873.5841568011288,751.0563698253632 873.5841568011288,756.5778698253631 S878.1115568011287,766.6108698253631 883.6331568011287,766.6108698253631 C889.1828568011287,766.6108698253631 893.6821568011287,762.0991698253631 893.6821568011287,756.5778698253631 C893.6821568011287,751.0563698253632 889.1830568011287,746.5328698253632 883.6331568011287,746.5328698253632 zM824.0631568011287,771.8298698253632 C806.3871568011286,771.8298698253632 793.0831568011287,783.1698698253632 793.0831568011287,798.1888698253632 C793.0831568011287,810.0938698253632 802.8807568011287,818.5498698253632 820.6421568011287,822.0368698253632 L831.7551568011287,824.1657698253632 C839.0621568011286,825.5131698253632 843.1671568011286,829.3866698253631 843.0211568011287,834.8047698253631 C842.8892468011286,840.0953698253632 836.3867568011287,845.5977698253631 825.7301568011287,845.5977698253631 C817.0333568011287,845.5977698253631 809.3411568011286,842.1765698253631 802.9291568011287,836.3536698253631 L802.8432568011287,836.2364798253632 C802.3862668011286,835.8360298253632 801.8348568011287,835.3419498253631 801.0952568011287,835.3419498253631 C800.6194368011287,835.3419498253631 800.0692568011286,835.5763798253631 799.4897568011287,836.0333598253632 C798.8160568011288,836.5798498253631 791.3902568011287,842.4510598253631 790.5893568011286,843.2755598253632 C790.2407368011286,843.6712898253631 790.0492568011286,844.0717998253632 790.1010768011287,844.5099598253631 C790.1198768011286,845.2072098253632 790.5439168011287,845.8334598253632 790.9584968011286,846.2150598253631 C800.5738968011287,855.0107598253632 811.0744968011286,860.0410598253632 824.7184968011286,860.0410598253632 L825.1325568011287,860.0410598253632 C848.6415568011287,859.8808798253632 859.1615568011287,847.0210598253632 859.1615568011287,834.3480598253632 C859.1615568011287,816.8270598253631 842.6065568011286,812.0400598253632 837.5795568011287,810.9850598253631 C835.9541568011286,810.6458598253631 834.2486568011286,810.3301198253631 832.5385568011286,809.9909198253631 C828.4445568011287,809.1994498253631 824.1955568011286,808.3795198253631 820.3045568011287,807.3053198253632 C817.6050568011287,806.5797998253631 808.7715568011287,803.6357198253631 808.7715568011287,797.0263198253632 C808.7715568011287,789.7617198253631 816.8409568011286,785.8523198253631 824.4255568011287,785.8523198253631 C830.7903568011286,785.8523198253631 836.0905568011287,786.9120198253631 842.8885568011287,792.2215198253632 C843.3973668011287,792.6408198253631 844.1418568011286,793.1219098253631 845.0369568011287,793.1219098253631 C845.7530468011287,793.1219098253631 846.4133568011287,792.8990998253631 847.0681568011287,792.3855798253632 C848.9667568011287,791.0004798253632 852.3683568011287,788.0933798253632 854.6579568011286,785.8367798253631 C855.2232968011288,785.2714498253631 855.4346168011286,784.6981798253631 855.4157768011287,784.0574798253632 C855.3592768011287,783.1058298253631 854.6575468011287,782.3140798253631 854.2712768011287,782.0125798253631 C845.1740768011286,774.8139798253632 836.4592768011287,771.8775798253631 824.1672768011287,771.8305798253632 L824.0637568011286,771.8305798253632 L824.0631568011287,771.8298698253632 zM538.1231568011286,771.8318698253631 C518.1291568011287,771.8318698253631 501.23315680112864,785.0148698253631 496.0611568011287,804.6028698253632 C495.16132680112867,807.9289698253632 494.27995680112866,816.4178698253631 494.27995680112866,824.8648698253631 L494.27995680112866,886.9528698253631 C494.27995680112866,888.0788698253632 495.19903680112867,889.0172698253632 496.30145680112867,889.0172698253632 L507.3914568011287,889.0172698253632 C508.52215680112863,889.0172698253632 509.4422568011287,888.0787798253632 509.4422568011287,886.9528698253631 L509.42272680112865,847.8178698253631 L509.9930368011287,848.4018598253632 C515.4155368011286,853.6500598253632 525.4540368011287,859.5258598253631 537.4680368011286,860.0908598253632 C538.1605668011287,860.1238598253632 538.9060368011287,860.1377598253631 539.5891368011287,860.1377598253631 C551.0321368011287,860.1377598253631 561.6691368011286,855.7328598253631 569.5561368011287,847.7567598253631 C577.5509368011287,839.6488598253632 581.9701368011287,828.5197598253632 581.9701368011287,816.4267598253632 C581.9701368011287,791.4107598253631 562.7121368011287,771.8307598253632 538.1241368011287,771.8307598253632 L538.1231568011286,771.8318698253631 zM637.5551568011286,771.8318698253631 C635.6659568011287,771.8318698253631 633.7253568011287,771.9466098253631 631.8031568011287,772.2010098253631 C607.6111568011287,775.3104098253632 591.1791568011287,797.2440098253632 594.3971568011286,822.1090098253632 C597.2897568011286,844.6240098253631 615.4041568011287,860.0620098253631 637.4611568011287,860.0620098253631 C639.3126568011287,860.0620098253631 641.2548568011287,859.9256798253632 643.2053568011287,859.6948298253632 C654.9733568011286,858.2014298253631 665.2753568011287,853.2689298253632 673.0253568011287,843.7238298253632 C673.4587768011287,843.1443598253632 673.6706968011287,842.4528298253632 673.5858968011287,841.8215298253632 C673.5104968011287,841.2844598253631 673.2001868011287,840.7741298253632 672.6112968011287,840.3313298253631 C671.3156968011286,839.4126598253631 666.6847968011286,837.1656298253631 664.1737968011287,835.9407298253632 C663.4105868011286,835.5779698253632 662.8309968011287,835.2997798253632 662.4823968011287,835.1301798253631 C661.7333168011287,834.7250198253631 661.1723968011287,834.5618198253632 660.6776968011286,834.5618198253632 C660.0793768011287,834.5618198253632 659.4993968011287,834.8720398253631 658.9198968011287,835.5598698253632 C653.9307968011287,841.3592698253632 647.6278968011287,844.4115698253631 641.1878968011287,845.2454698253632 C639.9111968011287,845.4009298253632 638.6579968011287,845.4856998253632 637.4612968011287,845.4856998253632 C625.7112968011287,845.4856998253632 613.8402968011287,837.6054998253632 610.4202968011286,826.8216998253631 L610.3343968011286,826.5326398253632 L610.5843968011286,826.4193498253632 C611.1827168011287,826.1036998253632 616.6954968011287,823.5697498253631 624.8363968011287,823.5697498253631 C625.8492968011287,823.5697498253631 626.8715968011287,823.6024498253631 627.8656968011287,823.6966998253631 C630.2118968011287,823.8710098253631 632.5661968011286,824.1630998253631 635.0394968011287,824.4740398253632 C639.6139968011287,825.0911998253631 644.3633968011287,825.7045398253632 649.8754968011286,825.7045398253632 C653.2863968011286,825.7045398253632 656.6262968011287,825.4874698253632 660.0514968011287,824.9975098253632 C673.4974968011287,822.3969098253632 678.8114968011287,818.6195098253631 678.8774968011287,818.5913098253632 C680.7807968011286,817.3664098253631 680.6920968011286,816.3525098253632 680.5883968011287,814.5151098253632 L680.5863968011287,814.5151098253632 L680.5783968011286,814.3315098253631 C680.5076968011286,813.5070598253632 680.3612768011287,812.1504098253631 680.1916768011287,810.7182098253631 C679.8430468011287,808.0611098253631 679.2627968011286,805.4832098253631 678.4807768011287,802.9721098253632 C672.4740768011286,784.0381098253631 656.4087768011286,771.8311098253631 637.5547768011287,771.8311098253631 L637.5551568011286,771.8318698253631 zM736.4961568011287,771.8318698253631 C716.4921568011287,771.8318698253631 699.5981568011287,785.0148698253631 694.4301568011286,804.6028698253632 C693.5633068011286,807.9289698253632 692.6449568011287,816.4178698253631 692.6449568011287,824.8648698253631 L692.6449568011287,886.9528698253631 C692.6449568011287,888.0788698253632 693.5643768011287,889.0172698253632 694.6761568011286,889.0172698253632 L705.7371568011287,889.0172698253632 C706.8772568011286,889.0172698253632 707.8055568011287,888.0787798253632 707.8055568011287,886.9528698253631 L707.7879568011288,847.8178698253631 L708.3856068011287,848.4018598253632 C713.7987068011287,853.6500598253632 723.8376068011287,859.5258598253631 735.8366068011287,860.0908598253632 C736.5244468011286,860.1238598253632 737.2408068011287,860.1377598253631 737.9616068011287,860.1377598253631 C749.4146068011287,860.1377598253631 760.0526068011286,855.7328598253631 767.9106068011287,847.7567598253631 C775.9242068011287,839.6488598253632 780.3056068011286,828.5197598253632 780.3056068011286,816.4267598253632 C780.3056068011286,791.4107598253631 761.0656068011288,771.8307598253632 736.4966068011287,771.8307598253632 L736.4961568011287,771.8318698253631 zM878.0461568011287,774.7615698253632 C876.9625568011287,774.7615698253632 876.0246568011287,775.6614598253632 876.0246568011287,776.7732698253632 L876.0246568011287,855.9292698253631 C876.0246568011287,857.0505698253631 876.9625768011286,857.9702698253632 878.0461568011287,857.9702698253632 L889.1891568011287,857.9702698253632 C890.3245568011287,857.9702698253632 891.2418568011287,857.0505098253632 891.2418568011287,855.9292698253631 L891.2418568011287,776.7732698253632 C891.2418568011287,775.6614698253632 890.3245168011287,774.7615698253632 889.1891568011287,774.7615698253632 L878.0461568011287,774.7615698253632 zM637.5461568011286,786.6635698253632 C649.9651568011286,786.6635698253632 662.0211568011287,796.0890698253631 665.6201568011287,808.5975698253632 L665.7099568011287,808.9276498253631 L665.3701068011287,809.0038498253632 C663.1511068011287,809.7152298253632 660.1262068011287,810.3283498253631 656.3525068011287,810.8182498253632 C654.5576068011287,811.0349598253631 652.5603068011287,811.1619998253632 650.2236068011287,811.1619998253632 C646.3039068011287,811.1619998253632 642.0454068011287,810.8409298253631 637.9326068011287,810.5252798253632 L637.7822168011287,810.5252798253632 C633.9756168011287,810.2331898253632 630.3480168011287,809.9549698253632 626.8992168011287,809.9549698253632 C624.4211168011286,809.9549698253632 622.1586168011287,810.0964698253632 619.9773168011286,810.3885598253631 C613.5183168011287,811.1800298253631 608.4033168011287,813.2147598253631 608.4033168011287,813.2147598253631 L608.4697168011287,812.6874098253631 C609.7087168011287,799.7174098253631 620.6137168011287,788.6514098253632 633.8197168011286,786.8714098253631 C635.0305168011287,786.7347798253631 636.2743168011286,786.6643798253632 637.5463168011287,786.6643698253631 L637.5461568011286,786.6635698253632 zM537.9481568011287,786.8549798253631 C553.7021568011287,786.8549798253631 566.0591568011287,799.8389798253631 566.0591568011287,816.4269798253631 C566.0591568011287,833.1039798253631 554.3431568011287,845.6749798253632 538.7781568011287,845.6749798253632 C530.9105568011287,845.6749798253632 523.6501568011287,842.8705798253632 518.3401568011286,837.7589798253632 C512.8281568011287,832.5060798253631 509.78935680112863,825.0899798253631 509.78935680112863,816.9209798253631 C509.78935680112863,800.3519798253632 522.4243568011286,786.8549798253631 537.9473568011286,786.8549798253631 L537.9481568011287,786.8549798253631 zM736.3181568011287,786.8549798253631 C752.0811568011286,786.8549798253631 764.4391568011287,799.8389798253631 764.4391568011287,816.4269798253631 C764.4391568011287,833.1039798253631 752.7311568011287,845.6749798253632 737.1661568011286,845.6749798253632 C729.2985568011286,845.6749798253632 722.0291568011287,842.8705798253632 716.7011568011287,837.7589798253632 C711.1985568011287,832.5060798253631 708.1679568011286,825.0899798253631 708.1679568011286,816.9209798253631 C708.1679568011286,800.3519798253632 720.8049568011287,786.8549798253631 736.3179568011287,786.8549798253631 L736.3181568011287,786.8549798253631 z" oldFill="#0032a0"/></g><g id="xe_z5stgj" type="rect" xe-props="&amp;#35;&amp;#103;&amp;#81;&amp;#84;&amp;#19;&amp;#58;&amp;#122;&amp;#61;&amp;#93;&amp;#111;&amp;#75;&amp;#53;&amp;#43;&amp;#49;&amp;#95;&amp;#90;&amp;#19;&amp;#44;&amp;#122;&amp;#49;&amp;#65;&amp;#64;&amp;#84;&amp;#34;&amp;#98;&amp;#103;&amp;#92;&amp;#66;&amp;#80;&amp;#119;&amp;#49;&amp;#43;&amp;#95;&amp;#18;&amp;#29;&amp;#34;&amp;#43;&amp;#48;&amp;#90;&amp;#100;&amp;#72;&amp;#112;&amp;#61;&amp;#103;&amp;#2;&amp;#18;&amp;#67;&amp;#101;&amp;#59;&amp;#49;&amp;#26;&amp;#28;&amp;#19;&amp;#101;&amp;#32;&amp;#49;&amp;#26;&amp;#10;&amp;#19;&amp;#101;&amp;#52;&amp;#41;&amp;#81;&amp;#64;&amp;#66;&amp;#101;&amp;#122;&amp;#105;&amp;#26;&amp;#83;&amp;#94;&amp;#108;&amp;#55;&amp;#55;&amp;#75;&amp;#18;&amp;#11;&amp;#91;&amp;#122;&amp;#43;&amp;#87;&amp;#94;&amp;#84;&amp;#34;&amp;#116;&amp;#103;&amp;#27;&amp;#86;&amp;#87;&amp;#102;&amp;#62;&amp;#35;&amp;#94;&amp;#18;&amp;#108;&amp;#44;&amp;#122;&amp;#54;&amp;#76;&amp;#66;&amp;#94;&amp;#107;&amp;#61;&amp;#18;&amp;#81;&amp;#84;&amp;#69;&amp;#104;&amp;#122;&amp;#127;&amp;#9;&amp;#9;&amp;#29;&amp;#34;&amp;#52;&amp;#42;&amp;#91;&amp;#91;&amp;#19;&amp;#58;&amp;#35;&amp;#103;&amp;#92;&amp;#85;&amp;#93;&amp;#101;&amp;#44;&amp;#32;&amp;#26;&amp;#10;&amp;#87;&amp;#97;&amp;#52;&amp;#54;&amp;#93;&amp;#28;&amp;#19;&amp;#109;&amp;#55;&amp;#51;&amp;#93;&amp;#18;&amp;#11;&amp;#102;&amp;#57;&amp;#41;&amp;#75;&amp;#85;&amp;#29;&amp;#34;&amp;#42;&amp;#42;&amp;#76;&amp;#81;&amp;#69;&amp;#101;&amp;#122;&amp;#127;&amp;#94;&amp;#81;&amp;#93;&amp;#115;&amp;#61;&amp;#105;&amp;#26;&amp;#66;&amp;#84;&amp;#115;&amp;#49;&amp;#63;&amp;#93;&amp;#18;&amp;#11;&amp;#102;&amp;#57;&amp;#41;&amp;#75;&amp;#85;&amp;#29;&amp;#34;&amp;#59;&amp;#42;&amp;#84;&amp;#95;&amp;#67;&amp;#69;&amp;#60;&amp;#44;&amp;#76;&amp;#18;&amp;#11;&amp;#102;&amp;#57;&amp;#41;&amp;#75;&amp;#85;&amp;#76;&amp;#125;"><ellipse id="xe_cq33rd" cx="477.5" cy="312.5" fill="none" stroke="#fff" stroke-width="19" rx="225.804" ry="226.5"/></g></g><g id="borderG" clip-path="url(#bound_0)" display="none"><rect id="border" width="483.4" height="483.4" x="235.8" y="71.3" fill="none" stroke="#000" stroke-width="1" aHeight="10" aWidth="10" pointer-events="none"/></g></svg>