<svg xmlns="http://www.w3.org/2000/svg" version="1.0" viewBox="0 0 800 600"><g><text x="6" y="589.2" fill="#000" font-family="sans-serif" font-size="24" text-anchor="start">NIST Chemistry WebBook (http://webbook.nist.gov/chemistry)</text><polyline fill="none" stroke="#000" stroke-width="3" points="120 492 776 492 776 84 120 84 120 492"/><text x="448" y="31.2" fill="#000" font-family="sans-serif" font-size="24" text-anchor="middle">Bromomethane</text><text x="448" y="67.2" fill="#000" font-family="sans-serif" font-size="24" text-anchor="middle">INFRARED SPECTRUM</text><text x="448" y="559.2" fill="#000" font-family="sans-serif" font-size="24" text-anchor="middle">Wavenumber (cm-1)</text><text x="0" y="0" fill="#000" font-family="sans-serif" font-size="24" text-anchor="middle" transform="translate(25.2,288) rotate(270)">(micromol/mol)-1m-1 (base 10)</text><text x="693.915" y="523.2" fill="#000" font-family="sans-serif" font-size="24" text-anchor="middle">1000</text><line x1="693.915" x2="693.915" y1="492" y2="480" stroke="#000" stroke-width="3"/><text x="500.913" y="523.2" fill="#000" font-family="sans-serif" font-size="24" text-anchor="middle">2000</text><line x1="500.913" x2="500.913" y1="492" y2="480" stroke="#000" stroke-width="3"/><text x="307.911" y="523.2" fill="#000" font-family="sans-serif" font-size="24" text-anchor="middle">3000</text><line x1="307.911" x2="307.911" y1="492" y2="480" stroke="#000" stroke-width="3"/><line x1="771.115" x2="771.115" y1="492" y2="486" stroke="#000" stroke-width="3"/><line x1="751.815" x2="751.815" y1="492" y2="486" stroke="#000" stroke-width="3"/><line x1="732.515" x2="732.515" y1="492" y2="486" stroke="#000" stroke-width="3"/><line x1="713.215" x2="713.215" y1="492" y2="486" stroke="#000" stroke-width="3"/><line x1="693.915" x2="693.915" y1="492" y2="486" stroke="#000" stroke-width="3"/><line x1="674.614" x2="674.614" y1="492" y2="486" stroke="#000" stroke-width="3"/><line x1="655.314" x2="655.314" y1="492" y2="486" stroke="#000" stroke-width="3"/><line x1="636.014" x2="636.014" y1="492" y2="486" stroke="#000" stroke-width="3"/><line x1="616.714" x2="616.714" y1="492" y2="486" stroke="#000" stroke-width="3"/><line x1="597.414" x2="597.414" y1="492" y2="486" stroke="#000" stroke-width="3"/><line x1="578.114" x2="578.114" y1="492" y2="486" stroke="#000" stroke-width="3"/><line x1="558.813" x2="558.813" y1="492" y2="486" stroke="#000" stroke-width="3"/><line x1="539.513" x2="539.513" y1="492" y2="486" stroke="#000" stroke-width="3"/><line x1="520.213" x2="520.213" y1="492" y2="486" stroke="#000" stroke-width="3"/><line x1="500.913" x2="500.913" y1="492" y2="486" stroke="#000" stroke-width="3"/><line x1="481.613" x2="481.613" y1="492" y2="486" stroke="#000" stroke-width="3"/><line x1="462.313" x2="462.313" y1="492" y2="486" stroke="#000" stroke-width="3"/><line x1="443.013" x2="443.013" y1="492" y2="486" stroke="#000" stroke-width="3"/><line x1="423.712" x2="423.712" y1="492" y2="486" stroke="#000" stroke-width="3"/><line x1="404.412" x2="404.412" y1="492" y2="486" stroke="#000" stroke-width="3"/><line x1="385.112" x2="385.112" y1="492" y2="486" stroke="#000" stroke-width="3"/><line x1="365.812" x2="365.812" y1="492" y2="486" stroke="#000" stroke-width="3"/><line x1="346.512" x2="346.512" y1="492" y2="486" stroke="#000" stroke-width="3"/><line x1="327.212" x2="327.212" y1="492" y2="486" stroke="#000" stroke-width="3"/><line x1="307.911" x2="307.911" y1="492" y2="486" stroke="#000" stroke-width="3"/><line x1="288.611" x2="288.611" y1="492" y2="486" stroke="#000" stroke-width="3"/><line x1="269.311" x2="269.311" y1="492" y2="486" stroke="#000" stroke-width="3"/><line x1="250.011" x2="250.011" y1="492" y2="486" stroke="#000" stroke-width="3"/><line x1="230.711" x2="230.711" y1="492" y2="486" stroke="#000" stroke-width="3"/><line x1="211.411" x2="211.411" y1="492" y2="486" stroke="#000" stroke-width="3"/><line x1="192.111" x2="192.111" y1="492" y2="486" stroke="#000" stroke-width="3"/><line x1="172.81" x2="172.81" y1="492" y2="486" stroke="#000" stroke-width="3"/><line x1="153.51" x2="153.51" y1="492" y2="486" stroke="#000" stroke-width="3"/><line x1="134.21" x2="134.21" y1="492" y2="486" stroke="#000" stroke-width="3"/><text x="108" y="497.4" fill="#000" font-family="sans-serif" font-size="24" text-anchor="end">0.0</text><line x1="120" x2="132" y1="490.2" y2="490.2" stroke="#000" stroke-width="3"/><text x="108" y="390.167" fill="#000" font-family="sans-serif" font-size="24" text-anchor="end">2.0e-5</text><line x1="120" x2="132" y1="382.967" y2="382.967" stroke="#000" stroke-width="3"/><text x="108" y="282.935" fill="#000" font-family="sans-serif" font-size="24" text-anchor="end">4.0e-5</text><line x1="120" x2="132" y1="275.735" y2="275.735" stroke="#000" stroke-width="3"/><text x="108" y="175.702" fill="#000" font-family="sans-serif" font-size="24" text-anchor="end">6.0e-5</text><line x1="120" x2="132" y1="168.502" y2="168.502" stroke="#000" stroke-width="3"/><line x1="120" x2="126" y1="490.2" y2="490.2" stroke="#000" stroke-width="3"/><line x1="120" x2="126" y1="463.392" y2="463.392" stroke="#000" stroke-width="3"/><line x1="120" x2="126" y1="436.584" y2="436.584" stroke="#000" stroke-width="3"/><line x1="120" x2="126" y1="409.775" y2="409.775" stroke="#000" stroke-width="3"/><line x1="120" x2="126" y1="382.967" y2="382.967" stroke="#000" stroke-width="3"/><line x1="120" x2="126" y1="356.159" y2="356.159" stroke="#000" stroke-width="3"/><line x1="120" x2="126" y1="329.351" y2="329.351" stroke="#000" stroke-width="3"/><line x1="120" x2="126" y1="302.543" y2="302.543" stroke="#000" stroke-width="3"/><line x1="120" x2="126" y1="275.735" y2="275.735" stroke="#000" stroke-width="3"/><line x1="120" x2="126" y1="248.926" y2="248.926" stroke="#000" stroke-width="3"/><line x1="120" x2="126" y1="222.118" y2="222.118" stroke="#000" stroke-width="3"/><line x1="120" x2="126" y1="195.31" y2="195.31" stroke="#000" stroke-width="3"/><line x1="120" x2="126" y1="168.502" y2="168.502" stroke="#000" stroke-width="3"/><line x1="120" x2="126" y1="141.694" y2="141.694" stroke="#000" stroke-width="3"/><line x1="120" x2="126" y1="114.885" y2="114.885" stroke="#000" stroke-width="3"/><line x1="120" x2="126" y1="88.077" y2="88.077" stroke="#000" stroke-width="3"/><line x1="120" x2="776" y1="490.2" y2="490.2" stroke="#000" stroke-width="3"/><polyline fill="none" stroke="red" stroke-width="3" points="776 457.107 775.814 453.371 775.628 447.724 775.442 440.816 775.256 434.449 775.07 428.243 775.07 421.409 774.884 413.463 774.698 404.742 774.511 395.446 774.325 385.605 774.139 376.121 773.954 365.975 773.768 354.962 773.582 345.18 773.396 335.749 773.21 325.629 773.024 315.33 772.837 305.258 772.651 296.695 772.465 290.34 772.278 285.716 772.092 282.569 771.906 280.634 771.721 280.605 771.535 282.906 771.349 286.569 771.163 289.444 770.977 292.871 770.791 304.776 770.604 327.837 770.418 352.848 770.232 372.575 770.045 385.213 769.859 377.862 769.673 328.783 769.486 268.409 769.3 274.881 769.114 348.465 768.928 402.899 768.742 400.673 768.556 372.651 768.371 340.225 768.185 308.047 767.998 278.387 767.812 253.126 767.626 233.407 767.44 219.277 767.253 210.652 767.067 207.607 766.881 209.896 766.695 217.323 766.509 229.33 766.323 244.989 766.138 263.383 765.952 283.833 765.765 305.453 765.579 327.753 765.393 350.162 765.207 371.808 765.02 391.915 764.834 410.433 764.648 427.209 764.462 441.906 764.276 454.119 764.09 463.871 763.905 471.644 763.719 477.508 763.532 481.687 763.346 484.842 763.16 487.07 762.974 488.46 762.787 489.1 762.601 489.4 762.415 489.673 762.229 489.838 762.043 489.735 761.857 489.556 761.672 489.613 761.485 489.86 761.299 489.959 761.113 489.956 760.927 489.901 760.741 489.719 760.554 489.608 760.368 489.8 760.182 489.944 759.996 489.919 759.81 489.859 759.624 489.828 759.439 489.774 759.252 489.736 759.066 489.847 758.88 490.034 758.694 489.999 758.508 489.682 758.321 489.185 758.135 489.201 757.949 489.784 757.763 490.13 757.577 490.028 757.391 489.934 757.204 489.995 757.018 489.968 756.831 489.772 756.645 489.66 756.459 489.806 756.273 490.036 756.088 490.041 755.902 489.857 755.716 489.835 755.53 489.881 755.344 489.841 755.158 490.023 754.971 490.109 754.784 489.97 754.598 489.868 754.412 489.838 754.226 489.922 754.04 490.036 753.855 489.981 753.669 489.978 753.483 490.053 753.297 490.048 753.111 490.053 752.924 490.04 752.738 489.976 752.551 490.055 752.365 490.127 752.179 489.991 751.993 489.836 751.807 489.792 751.622 489.855 751.436 490.014 751.25 490.065 751.064 490.118 750.878 490.254 750.691 490.235 750.505 490.115 750.318 490.06 750.132 489.938 749.946 489.867 749.76 489.922 749.574 489.935 749.389 489.942 749.203 490.064 749.017 490.062 748.831 490.047 748.645 490.128 748.458 490.086 748.271 489.945 748.085 489.867 747.899 489.918 747.713 490.039 747.527 490.044 747.341 489.978 747.156 489.964 746.97 490.004 746.784 490.004 746.598 490.056 746.412 490.11 746.225 490.091 746.038 490.005 745.852 489.946 745.666 489.948 745.48 489.992 745.294 490.047 745.108 490.08 744.923 489.98 744.737 489.888 744.551 489.92 744.365 489.907 744.179 489.816 743.992 489.837 743.805 489.958 743.619 489.972 743.433 489.832 743.247 489.76 743.061 489.815 742.875 489.893 742.688 489.967 742.502 490.067 742.316 490.012 742.13 489.887 741.944 489.804 741.757 489.781 741.572 489.876 741.386 489.976 741.2 489.931 741.014 489.906 740.828 489.992 740.642 490.03 740.455 489.987 740.269 489.996 740.083 489.979 739.897 489.936 739.711 490.029 739.524 490.18 739.339 490.109 739.153 490.003 738.967 489.971 738.781 489.923 738.595 489.948 738.409 490.008 738.222 489.991 738.036 490.044 737.85 490.107 737.664 490.031 737.477 489.935 737.291 489.992 737.106 490.127 736.92 490.199 736.734 490.09 736.548 489.922 736.362 489.819 736.176 489.757 735.989 489.799 735.803 489.963 735.617 490.089 735.431 490.177 735.244 490.193 735.058 490.143 734.873 490.05 734.687 489.966 734.501 489.912 734.315 489.857 734.129 489.803 733.943 489.815 733.756 489.937 733.57 490.1 733.384 490.197 733.198 490.257 733.011 490.249 732.825 490.14 732.64 489.937 732.454 489.829 732.268 489.846 732.082 489.92 731.896 490.003 731.71 490.043 731.523 490.109 731.337 490.091 731.151 489.875 730.965 489.853 730.778 490.023 730.592 490.01 730.405 489.942 730.219 490.021 730.033 490.027 729.847 489.877 729.661 489.807 729.475 489.993 729.29 490.179 729.104 490.108 728.918 489.94 728.732 489.867 728.545 489.844 728.359 489.892 728.172 490.003 727.986 490.071 727.8 490.029 727.614 489.98 727.428 489.869 727.242 489.712 727.057 489.69 726.871 489.835 726.685 489.938 726.498 489.941 726.312 489.894 726.126 489.895 725.939 489.906 725.753 489.847 725.567 489.775 725.381 489.789 725.195 489.768 725.009 489.645 724.824 489.574 724.638 489.613 724.452 489.59 724.265 489.533 724.079 489.436 723.893 489.343 723.706 489.334 723.52 489.358 723.334 489.373 723.148 489.319 722.962 489.199 722.776 489.152 722.591 489.142 722.405 489.153 722.219 489.061 722.032 488.882 721.846 488.707 721.66 488.576 721.473 488.4 721.287 488.229 721.101 488.184 720.915 488.159 720.729 487.932 720.543 487.533 720.358 487.156 720.172 487.08 719.985 487.251 719.799 487.351 719.613 487.266 719.427 486.992 719.24 486.26 719.054 485.01 718.868 484.178 718.682 484.7 718.496 485.463 718.31 485.496 718.123 485.054 717.937 484.247 717.75 482.967 717.564 482.095 717.378 482.679 717.192 483.604 717.007 483.63 716.821 483.05 716.635 481.865 716.449 479.745 716.263 478.022 716.077 478.637 715.89 480.464 715.704 481.7 715.517 481.531 715.331 479.055 715.145 473.211 714.959 468.09 714.774 470.544 714.588 476.026 714.402 478.216 714.216 478.293 714.03 476.602 713.844 472.097 713.657 466.908 713.471 467.276 713.284 471.234 713.098 472.752 712.912 473.045 712.726 472.23 712.541 467.275 712.355 459.208 712.169 457.246 711.983 462.901 711.797 466.112 711.611 466.857 711.424 467.282 711.238 460.186 711.051 439.922 710.865 426.916 710.679 442.416 710.493 461.666 710.308 466.048 710.122 465.683 709.936 462.909 709.75 451.736 709.564 436.967 709.378 439.378 709.191 454.228 709.005 460.213 708.818 459.804 708.632 458.073 708.446 449.473 708.26 430.672 708.075 421.791 707.889 437.721 707.703 452.12 707.517 453.376 707.331 452.188 707.145 442.796 706.958 408.574 706.771 365.873 706.585 377.848 706.399 430.917 706.213 455.904 706.027 457.038 705.84 454.731 705.654 443.349 705.468 415.577 705.282 397.478 705.096 418.796 704.91 446.62 704.725 452.301 704.538 450.958 704.352 447.421 704.166 429.959 703.98 398.207 703.794 393.029 703.607 425.814 703.421 447.745 703.235 447.887 703.049 446.647 702.863 437.127 702.677 389.809 702.492 323.208 702.305 335.348 702.119 411.781 701.933 449.67 701.747 451.313 701.561 448.792 701.374 439.075 701.188 410.466 701.002 384.863 700.816 402.855 700.63 437.49 700.444 448.749 700.258 447.601 700.072 445.636 699.886 435.626 699.7 408.439 699.514 391.837 699.328 415.944 699.141 445.163 698.955 450.698 698.769 447.812 698.583 443.447 698.397 422.23 698.211 373.033 698.025 352.083 697.839 400.474 697.653 447.84 697.467 455.529 697.281 451.957 697.095 448.98 696.908 439.609 696.722 419.321 696.536 412.384 696.35 433.554 696.164 453.388 695.977 456.928 695.792 454.657 695.606 452.29 695.42 445.656 695.234 430.823 695.048 426.793 694.862 444.594 694.675 460.629 694.489 463.837 694.303 461.347 694.117 456.803 693.931 446.003 693.744 423.481 693.557 415.585 693.371 440.718 693.185 464.841 692.999 470.986 692.813 469.785 692.627 465.229 692.442 459.25 692.256 451.326 692.07 448.122 691.884 456.765 691.698 466.438 691.511 469.921 691.324 470.893 691.138 470.253 690.952 467.459 690.766 462.386 690.58 459.577 690.394 464.975 690.209 472.462 690.023 475.568 689.837 476.512 689.651 476.391 689.464 473.902 689.278 467.407 689.091 461.644 688.905 466.14 688.719 475.756 688.533 480.288 688.347 481.405 688.161 481.855 687.976 481.362 687.79 478.64 687.604 475.083 687.418 475.116 687.232 478.316 687.045 480.608 686.858 481.625 686.672 482.197 686.486 482.5 686.3 482.168 686.114 480.885 685.928 480.418 685.743 482.089 685.557 483.753 685.371 484.522 685.185 485.073 684.998 485.414 684.812 485.149 684.625 484.129 684.439 483.255 684.253 484.228 684.067 485.964 683.881 486.867 683.695 487.283 683.51 487.567 683.324 487.656 683.138 487.532 682.952 487.162 682.765 486.884 682.579 486.936 682.392 487.221 682.206 487.513 682.02 487.796 681.834 488 681.648 488.085 681.462 488.058 681.277 488.152 681.091 488.358 680.905 488.531 680.719 488.67 680.532 488.8 680.346 488.86 680.159 488.957 679.973 489.02 679.787 488.98 679.601 489.067 679.415 489.316 679.229 489.423 679.042 489.438 678.856 489.479 678.67 489.59 678.484 489.664 678.297 489.686 678.111 489.711 677.926 489.715 677.74 489.611 677.554 489.539 677.368 489.555 677.182 489.647 676.996 489.721 676.809 489.755 676.623 489.802 676.437 489.856 676.25 489.891 676.064 489.939 675.878 489.912 675.693 489.868 675.507 489.886 675.321 489.937 675.135 489.894 674.949 489.859 674.763 489.913 674.576 489.976 674.39 489.978 674.204 489.956 674.017 489.967 673.831 490.036 673.645 490.013 673.46 489.935 673.274 489.92 673.088 489.953 672.902 489.991 672.716 490.057 672.53 490.073 672.343 490.027 672.157 489.959 671.971 489.967 671.784 490.064 671.598 490.132 671.412 490.114 671.227 490.089 671.041 490.044 670.855 489.984 670.669 489.956 670.483 490.006 670.297 490.097 670.11 490.147 669.924 490.118 669.738 490.09 669.551 490.012 669.365 489.985 669.179 490.023 668.994 490.044 668.808 490.065 668.622 490.111 668.436 490.17 668.25 490.218 668.064 490.184 667.877 490.095 667.691 490.046 667.505 490.109 667.318 490.133 667.132 490.087 666.946 490.066 666.759 490.075 666.573 490.072 666.387 490.078 666.201 490.063 666.015 490.078 665.829 490.106 665.644 490.109 665.458 490.075 665.271 490.032 665.085 489.994 664.899 490.005 664.713 490.025 664.526 490.006 664.34 489.981 664.154 489.964 663.968 489.898 663.782 489.871 663.596 489.959 663.411 490.029 663.225 489.986 663.038 489.973 662.852 489.962 662.666 489.898 662.48 489.855 662.293 489.876 662.107 489.909 661.921 489.935 661.735 489.908 661.549 489.864 661.363 489.866 661.178 489.898 660.992 489.916 660.805 489.876 660.619 489.798 660.433 489.753 660.247 489.724 660.06 489.75 659.874 489.719 659.688 489.646 659.502 489.654 659.316 489.661 659.13 489.63 658.945 489.602 658.758 489.566 658.572 489.544 658.386 489.519 658.2 489.471 658.014 489.382 657.827 489.3 657.641 489.256 657.455 489.28 657.269 489.355 657.083 489.385 656.897 489.312 656.712 489.194 656.525 489.067 656.339 488.992 656.153 489.01 655.967 489.051 655.781 489.046 655.594 489.009 655.408 488.959 655.222 488.943 655.036 488.925 654.85 488.916 654.664 488.989 654.477 489.057 654.291 489.063 654.104 489.078 653.918 489.093 653.732 489.121 653.546 489.135 653.361 489.093 653.175 489.057 652.989 489.03 652.803 489.093 652.617 489.328 652.431 489.467 652.244 489.406 652.057 489.273 651.871 489.118 651.685 488.917 651.499 488.66 651.313 488.448 651.128 488.334 650.942 488.301 650.756 488.283 650.57 488.228 650.384 488.276 650.198 488.409 650.011 488.508 649.824 488.651 649.638 488.86 649.452 489.066 649.266 489.21 649.08 489.319 648.895 489.46 648.709 489.614 648.523 489.687 648.337 489.76 648.151 489.798 647.964 489.703 647.778 489.598 647.591 489.51 647.405 489.436 647.219 489.41 647.033 489.363 646.847 489.289 646.662 489.164 646.476 488.984 646.29 488.903 646.104 488.879 645.918 488.742 645.731 488.582 645.544 488.42 645.358 488.143 645.172 487.763 644.986 487.34 644.8 486.773 644.614 486.075 644.429 485.236 644.243 484.212 644.057 483.03 643.871 481.806 643.685 480.428 643.498 478.768 643.311 476.789 643.125 474.491 642.939 471.847 642.753 468.789 642.567 465.189 642.381 461.042 642.194 456.324 642.008 451.009 641.822 444.931 641.636 438.046 641.45 430.494 641.263 422.344 641.078 413.289 640.892 403.235 640.706 392.245 640.52 380.384 640.334 367.629 640.148 354.037 639.961 339.553 639.775 324.314 639.589 308.405 639.403 292.014 639.217 275.362 639.03 258.924 638.845 242.917 638.659 227.441 638.473 212.654 638.287 199.028 638.101 186.742 637.915 176.714 637.728 170.097 637.542 166.782 637.356 166.233 637.17 169.626 636.984 178.209 636.797 192.298 636.612 211.543 636.426 235.622 636.24 262.857 636.054 291.772 635.868 326.169 635.682 367.358 635.495 394.671 635.309 352.863 635.123 230.466 634.937 183.324 634.75 277.822 634.564 352.631 634.379 339.356 634.193 296.6 634.007 256.928 633.821 218.119 633.635 179.325 633.449 144.577 633.262 116.912 633.076 97.383 632.89 86.544 632.704 84 632.517 89.713 632.331 102.675 632.146 121.208 631.96 144.07 631.774 170.653 631.588 199.503 631.402 228.43 631.216 256.508 631.029 285.915 630.843 316.469 630.657 345.615 630.471 371.7 630.284 394.49 630.098 414.363 629.913 432.408 629.727 447.629 629.541 458.593 629.355 465.771 629.169 469.662 628.983 466.76 628.796 457.167 628.61 454.019 628.424 462.239 628.237 471.402 628.051 476.727 627.865 479.286 627.678 480.41 627.492 481.112 627.306 482.312 627.12 483.257 626.934 482.96 626.748 481.291 626.563 475.88 626.377 465.072 626.191 459.85 626.005 465.805 625.818 472.847 625.632 475.856 625.445 476.666 625.259 476.535 625.073 475.976 624.887 475.536 624.701 476.279 624.515 476.701 624.33 475.018 624.144 467.73 623.958 451.542 623.771 442.927 623.585 452.987 623.399 464.741 623.212 469.4 623.026 470.425 622.84 470.165 622.654 469.472 622.468 468.975 622.282 470.348 622.097 472.768 621.911 471.555 621.725 454.596 621.538 409.937 621.352 387.107 621.166 420.509 620.979 457.247 620.793 470.549 620.607 473.542 620.421 473.449 620.235 472.454 620.049 471.019 619.864 469.528 619.678 468.501 619.492 467.194 619.305 455.18 619.119 423.393 618.933 409.655 618.746 434.812 618.56 458.478 618.374 465.168 618.188 465.694 618.002 464.793 617.816 463.471 617.631 461.61 617.445 458.957 617.258 456.385 617.072 454.815 616.886 437.922 616.7 396.786 616.513 387.437 616.327 424.96 616.141 452.697 615.955 459.259 615.769 460.014 615.583 459.56 615.396 458.699 615.21 457.579 615.024 453.912 614.837 447.593 614.651 440.836 614.465 386.765 614.28 290.704 614.094 301.433 613.908 401.356 613.722 454.436 613.536 463.456 613.35 463.413 613.163 461.928 612.977 460.26 612.79 457.893 612.604 453.068 612.418 448.937 612.232 440.078 612.047 394.075 611.861 346.755 611.675 378.025 611.489 433.602 611.303 452.492 611.117 453.985 610.93 453.264 610.744 451.729 610.557 450.415 610.371 448.545 610.185 444.656 609.999 441.871 609.814 419.619 609.628 354.762 609.442 333.378 609.256 394.665 609.07 442.79 608.884 452.526 608.697 453.315 608.511 453.382 608.324 454.068 608.138 451.69 607.952 443.296 607.766 440.572 607.581 417.165 607.395 295.438 607.209 215.208 607.023 325.207 606.837 434.414 606.651 454.194 606.464 454.318 606.278 453.317 606.091 452.263 605.905 451.199 605.719 448.087 605.533 443.842 605.348 442.731 605.162 420.464 604.976 358.56 604.79 343.277 604.604 401.393 604.418 441.09 604.231 447.484 604.044 448.085 603.858 448.538 603.672 448.983 603.486 447.701 603.3 444.472 603.113 444.262 602.927 435.195 602.741 386.819 602.555 350.957 602.369 392.434 602.183 440.465 601.998 451.927 601.811 453.361 601.625 454.992 601.439 456.221 601.253 454.017 601.067 448.993 600.88 450.258 600.694 443.375 600.508 371.237 600.322 289.031 600.136 337.2 599.95 427.406 599.765 451.149 599.578 450.398 599.392 450.63 599.206 451.001 599.02 449.966 598.834 448.111 598.647 449.027 598.461 447.411 598.275 420.539 598.089 385.02 597.903 401.721 597.717 441.9 597.531 453.83 597.345 453.064 597.159 453.584 596.973 454.716 596.787 454.527 596.601 454.447 596.414 456.534 596.228 455.655 596.042 435.062 595.856 409.603 595.67 425.045 595.484 456.779 595.298 466.229 595.112 465.254 594.926 464.533 594.74 464.349 594.554 462.773 594.368 463.185 594.181 466.455 593.995 461.497 593.809 425.138 593.623 392.331 593.437 421.907 593.25 463.156 593.065 472.467 592.879 469.223 592.693 464.398 592.507 462.075 592.321 461.927 592.135 463.346 591.948 464.826 591.762 461.057 591.576 446.609 591.39 441.333 591.204 456.717 591.017 469.025 590.831 471.595 590.644 471.506 590.458 469.811 590.272 468.543 590.086 469.077 589.9 470.655 589.715 471.371 589.529 466.313 589.343 457.5 589.157 461.123 588.971 472.871 588.784 478.132 588.597 479.365 588.411 479.402 588.225 477.885 588.039 477.009 587.853 477.949 587.667 478.999 587.482 476.272 587.296 464.679 587.11 459.013 586.924 470.746 586.737 480.847 586.551 482.756 586.364 483.037 586.178 482.446 585.992 480.486 585.806 478.747 585.62 478.483 585.434 478.534 585.249 476.361 585.063 473.942 584.877 476.628 584.691 480.812 584.504 482.223 584.318 482.63 584.131 482.954 583.945 483.229 583.759 483.151 583.573 482.994 583.387 483.063 583.201 482.154 583.016 480.411 582.83 481.33 582.644 483.971 582.458 485.249 582.271 485.702 582.085 486.083 581.898 486.438 581.712 486.555 581.526 486.155 581.34 485.659 581.154 484.418 580.968 482.472 580.783 483.26 580.597 486.075 580.411 487.314 580.225 487.475 580.038 487.549 579.852 487.648 579.665 487.694 579.479 487.481 579.293 486.951 579.107 486.359 578.921 485.915 578.735 486.257 578.55 486.947 578.364 487.218 578.178 487.27 577.992 487.401 577.805 487.642 577.619 487.931 577.432 488.094 577.246 488.033 577.06 487.648 576.874 487.306 576.688 487.445 576.502 487.787 576.315 488.052 576.129 488.32 575.943 488.519 575.757 488.635 575.57 488.664 575.384 488.591 575.199 488.332 575.013 488.042 574.827 488.114 574.641 488.528 574.455 488.797 574.269 488.844 574.082 488.797 573.896 488.789 573.71 488.842 573.523 488.926 573.337 488.959 573.151 488.962 572.966 488.905 572.78 488.875 572.594 488.948 572.408 489.051 572.222 489.048 572.036 489.033 571.849 489.075 571.663 489.094 571.477 489.146 571.291 489.324 571.104 489.435 570.918 489.5 570.733 489.534 570.547 489.5 570.361 489.48 570.175 489.513 569.989 489.56 569.803 489.625 569.616 489.601 569.43 489.531 569.244 489.537 569.057 489.598 568.871 489.629 568.685 489.642 568.5 489.641 568.314 489.514 568.128 489.334 567.942 489.422 567.756 489.651 567.57 489.802 567.383 489.864 567.197 489.871 567.011 489.857 566.824 489.914 566.638 489.98 566.452 489.958 566.267 489.867 566.081 489.866 565.895 489.96 565.709 490.005 565.523 489.955 565.337 489.907 565.15 489.878 564.964 489.867 564.778 489.933 564.591 489.989 564.405 489.961 564.219 489.969 564.032 489.959 563.846 489.878 563.66 489.872 563.474 489.965 563.288 490.024 563.102 490.058 562.917 490.033 562.731 489.993 562.544 489.987 562.358 489.983 562.172 489.864 561.986 489.721 561.799 489.768 561.613 489.944 561.427 490.021 561.241 490.008 561.055 489.994 560.869 490.057 560.684 490.151 560.498 490.179 560.311 490.1 560.125 489.979 559.939 489.818 559.753 489.792 559.566 489.967 559.38 490.07 559.194 489.962 559.008 489.804 558.822 489.823 558.636 490.002 558.451 490.097 558.265 490.062 558.078 490.007 557.892 490.035 557.706 490.101 557.52 490.136 557.333 490.107 557.147 490.071 556.961 490.07 556.775 490.078 556.589 490.063 556.403 490.059 556.218 490.026 556.031 490.006 555.845 489.942 555.659 489.822 555.473 489.853 555.287 489.969 555.1 490.014 554.914 490.029 554.728 490.039 554.542 490.055 554.356 490.092 554.17 490.127 553.985 490.086 553.798 490.054 553.612 490.078 553.426 490.077 553.24 490.032 553.054 490.022 552.867 490.009 552.681 489.931 552.495 489.822 552.309 489.822 552.123 489.942 551.937 490.046 551.75 490.061 551.564 490.044 551.377 489.985 551.191 489.95 551.005 490 550.819 490.05 550.634 490.038 550.448 490.017 550.262 490.019 550.076 490.03 549.89 490.017 549.704 490.012 549.517 490.044 549.331 490.059 549.144 490.009 548.958 490.01 548.772 490.02 548.586 489.98 548.401 489.968 548.215 489.996 548.029 490.025 547.843 490.067 547.657 490.082 547.471 490.08 547.284 490.056 547.097 489.986 546.911 489.939 546.725 489.961 546.539 490.02 546.353 490.086 546.168 490.107 545.982 490.064 545.796 490.018 545.61 490.019 545.424 490.001 545.237 489.949 545.051 489.896 544.864 489.906 544.678 489.978 544.492 490.038 544.306 490.06 544.12 490.068 543.935 490.056 543.749 490.051 543.563 490.083 543.377 490.133 543.191 490.142 543.004 490.15 542.818 490.133 542.631 490.052 542.445 490.005 542.259 490.055 542.073 490.116 541.887 490.121 541.702 490.063 541.516 490 541.33 489.976 541.144 489.971 540.958 490.025 540.771 490.095 540.584 490.087 540.398 490.063 540.212 490.086 540.026 490.108 539.84 490.072 539.654 490.077 539.467 490.12 539.281 490.115 539.095 490.077 538.909 490.076 538.723 490.102 538.536 490.119 538.351 490.121 538.165 490.114 537.979 490.086 537.793 490.083 537.607 490.104 537.421 490.095 537.234 490.056 537.048 490.064 536.862 490.106 536.676 490.136 536.49 490.139 536.303 490.11 536.118 490.067 535.932 490.049 535.746 490.052 535.56 490.071 535.374 490.103 535.188 490.165 535.001 490.235 534.815 490.267 534.629 490.212 534.443 490.081 534.257 490.007 534.07 490.025 533.885 490.044 533.699 490.05 533.513 490.051 533.327 490.079 533.141 490.098 532.955 490.065 532.768 489.973 532.582 489.91 532.396 490.002 532.21 490.168 532.023 490.24 531.837 490.21 531.652 490.145 531.466 490.106 531.28 490.058 531.094 490.05 530.908 490.097 530.722 490.097 530.535 490.064 530.349 490.041 530.163 490.009 529.977 489.996 529.79 490.061 529.604 490.183 529.419 490.271 529.233 490.273 529.047 490.157 528.861 490.024 528.675 489.998 528.489 490.029 528.302 490.059 528.116 490.094 527.93 490.066 527.744 489.963 527.557 489.876 527.371 489.838 527.184 489.878 526.998 490.033 526.812 490.187 526.626 490.269 526.44 490.243 526.254 490.062 526.069 489.818 525.883 489.71 525.697 489.736 525.51 489.782 525.324 489.775 525.138 489.659 524.951 489.455 524.765 489.213 524.579 489.035 524.393 489.098 524.207 489.315 524.021 489.429 523.836 489.433 523.65 489.396 523.464 489.25 523.278 488.999 523.091 488.791 522.905 488.723 522.718 488.699 522.532 488.614 522.346 488.476 522.16 488.327 521.974 488.154 521.788 488.016 521.603 488.029 521.417 488.125 521.231 488.232 521.044 488.348 520.858 488.429 520.672 488.429 520.485 488.265 520.299 488.091 520.113 488.122 519.927 488.232 519.741 488.256 519.555 488.303 519.37 488.418 519.184 488.483 518.998 488.559 518.811 488.797 518.625 488.977 518.439 488.803 518.252 488.387 518.066 488.285 517.88 488.725 517.694 489.023 517.508 488.768 517.322 488.466 517.137 488.272 516.951 488.025 516.765 487.759 516.578 487.416 516.392 487.014 516.206 486.819 516.019 486.916 515.833 487.058 515.647 487.169 515.461 487.375 515.275 487.677 515.089 487.986 514.904 488.219 514.718 488.362 514.531 488.557 514.345 488.88 514.159 489.239 513.973 489.542 513.786 489.715 513.6 489.825 513.414 489.937 513.228 490.019 513.042 490.085 512.856 490.16 512.669 490.232 512.483 490.305 512.297 490.38 512.11 490.453 511.924 490.392 511.738 490.203 511.553 490.119 511.367 490.133 511.181 490.139 510.995 490.127 510.809 490.092 510.623 490.102 510.436 490.183 510.25 490.237 510.064 490.23 509.877 490.239 509.691 490.301 509.505 490.443 509.32 490.604 509.134 490.653 508.948 490.485 508.762 490.185 508.576 490.009 508.39 490.011 508.203 490.037 508.017 489.963 507.83 489.918 507.644 490.054 507.458 490.19 507.272 490.191 507.087 490.153 506.901 490.139 506.715 490.159 506.529 490.241 506.343 490.328 506.157 490.349 505.97 490.267 505.784 490.134 505.597 490.074 505.411 490.076 505.225 490.067 505.039 490.058 504.854 490.098 504.668 490.144 504.482 490.135 504.296 490.098 504.11 490.099 503.924 490.156 503.737 490.211 503.551 490.269 503.364 490.33 503.178 490.338 502.992 490.23 502.806 490.117 502.621 490.115 502.435 490.107 502.249 490.04 502.063 490.032 501.877 490.092 501.691 490.143 501.504 490.156 501.317 490.114 501.131 490.055 500.945 490.074 500.759 490.157 500.573 490.251 500.386 490.352 500.2 490.402 500.014 490.292 499.828 490.092 499.642 489.987 499.456 489.986 499.271 490.021 499.084 490.102 498.898 490.183 498.712 490.202 498.526 490.178 498.34 490.169 498.153 490.16 497.967 490.133 497.781 490.156 497.595 490.201 497.409 490.216 497.223 490.233 497.038 490.229 496.851 490.181 496.665 490.143 496.479 490.14 496.293 490.151 496.107 490.178 495.92 490.224 495.734 490.218 495.548 490.152 495.362 490.125 495.176 490.152 494.99 490.17 494.805 490.143 494.618 490.151 494.432 490.225 494.246 490.269 494.06 490.258 493.874 490.187 493.687 490.123 493.501 490.137 493.315 490.164 493.129 490.152 492.943 490.14 492.757 490.147 492.572 490.127 492.385 490.094 492.199 490.101 492.013 490.139 491.827 490.172 491.641 490.192 491.454 490.201 491.268 490.21 491.082 490.228 490.896 490.205 490.71 490.114 490.523 490.017 490.338 489.966 490.152 489.984 489.966 490.038 489.78 490.069 489.594 490.08 489.408 490.099 489.221 490.11 489.035 490.084 488.849 490.054 488.663 490.092 488.477 490.189 488.29 490.241 488.103 490.193 487.917 490.088 487.731 490.043 487.545 490.076 487.359 490.126 487.173 490.136 486.988 490.09 486.802 490.067 486.616 490.091 486.43 490.126 486.244 490.113 486.057 490.06 485.87 490.057 485.684 490.057 485.498 490.02 485.312 490.022 485.126 490.09 484.94 490.139 484.755 490.115 484.569 490.058 484.383 490.086 484.197 490.156 484.011 490.162 483.824 490.105 483.637 489.999 483.451 489.983 483.265 490.052 483.079 490.065 482.893 489.994 482.707 489.987 482.522 490.073 482.336 490.095 482.15 490.023 481.964 489.983 481.777 490.09 481.591 490.192 481.404 490.114 481.218 489.951 481.032 489.959 480.846 490.1 480.66 490.108 480.474 489.975 480.289 489.966 480.103 490.098 479.917 490.112 479.731 489.963 479.544 489.871 479.358 489.988 479.171 490.092 478.985 489.999 478.799 489.896 478.613 489.994 478.427 490.101 478.241 490.024 478.056 489.911 477.87 489.985 477.684 490.136 477.498 490.124 477.311 489.985 477.125 489.971 476.938 490.067 476.752 490.082 476.566 490.026 476.38 490.03 476.194 490.101 476.008 490.113 475.821 490.046 475.635 490.012 475.449 490.057 475.263 490.056 475.076 490.021 474.89 490.052 474.705 490.095 474.519 490.071 474.333 490.027 474.147 489.996 473.961 489.997 473.775 490.034 473.588 490.076 473.402 490.114 473.216 490.143 473.03 490.111 472.843 490.016 472.657 489.963 472.472 489.994 472.286 490.041 472.1 490.009 471.914 489.947 471.728 489.97 471.542 489.972 471.355 489.88 471.169 489.869 470.983 489.951 470.797 489.896 470.61 489.759 470.424 489.807 470.239 489.919 470.053 489.813 469.867 489.666 469.681 489.728 469.495 489.795 469.309 489.689 469.122 489.604 468.936 489.674 468.75 489.708 468.563 489.561 468.377 489.485 468.191 489.577 468.006 489.565 467.82 489.426 467.634 489.419 467.448 489.527 467.262 489.462 467.076 489.329 466.889 489.388 466.703 489.393 466.517 489.178 466.331 489.059 466.144 489.139 465.958 489.112 465.773 489.006 465.587 489.079 465.401 489.149 465.215 488.987 465.029 488.814 464.843 488.79 464.656 488.751 464.47 488.713 464.284 488.779 464.097 488.741 463.911 488.466 463.725 488.208 463.54 488.201 463.354 488.336 463.168 488.445 462.982 488.538 462.796 488.527 462.61 488.313 462.423 488.05 462.237 487.916 462.051 487.938 461.864 487.995 461.678 488.015 461.492 487.959 461.305 487.742 461.119 487.379 460.933 487.162 460.747 487.287 460.561 487.432 460.375 487.297 460.19 487.025 460.004 486.639 459.818 485.975 459.631 485.525 459.445 486.144 459.259 487.176 459.072 487.521 458.886 487.373 458.7 487.096 458.514 486.614 458.328 486.077 458.142 486.125 457.957 486.717 457.771 487.048 457.584 486.925 457.398 486.524 457.212 485.884 457.026 485.11 456.839 484.937 456.653 485.78 456.467 486.467 456.281 486.254 456.095 485.535 455.909 484.434 455.724 482.908 455.538 481.776 455.351 482.913 455.165 485.557 454.979 486.872 454.793 486.779 454.606 486.33 454.42 485.6 454.234 484.527 454.048 484.06 453.862 485.114 453.676 486.366 453.491 486.622 453.305 486.354 453.118 485.823 452.932 484.849 452.746 483.649 452.56 483.572 452.373 485.097 452.187 486.252 452.001 486.139 451.815 485.435 451.629 484.247 451.443 482.318 451.258 480.333 451.072 481.024 450.885 484.447 450.699 486.668 450.513 486.814 450.327 486.358 450.14 485.718 449.954 484.815 449.768 483.969 449.582 484.394 449.396 485.889 449.21 486.664 449.023 486.557 448.837 486.248 448.65 485.821 448.464 485.09 448.278 484.315 448.092 484.698 447.907 486.19 447.721 486.98 447.535 486.741 447.349 486.178 447.163 485.422 446.977 484.32 446.79 483.231 446.603 483.778 446.417 486.032 446.231 487.449 446.045 487.411 445.859 487.034 445.674 486.695 445.488 486.326 445.302 485.943 445.116 486.028 444.93 486.831 444.744 487.518 444.557 487.567 444.37 487.202 444.184 486.837 443.998 486.687 443.812 486.503 443.626 486.422 443.441 486.935 443.255 487.654 443.069 488.005 442.883 487.962 442.697 487.562 442.51 486.792 442.324 485.923 442.137 485.781 441.951 486.644 441.765 487.746 441.579 488.299 441.393 488.376 441.208 488.292 441.022 488.021 440.836 487.64 440.65 487.201 440.464 486.832 440.277 486.979 440.091 487.561 439.904 487.864 439.718 487.892 439.532 487.799 439.346 487.601 439.16 487.415 438.975 487.371 438.789 487.337 438.603 487.033 438.417 486.637 438.231 486.891 438.044 487.354 437.857 487.387 437.671 487.231 437.485 487.098 437.299 487.107 437.113 487.336 436.927 487.425 436.74 486.63 436.554 485.087 436.368 485.046 436.182 486.635 435.996 487.451 435.809 487.398 435.624 487.363 435.438 487.403 435.252 487.41 435.066 487.403 434.88 487.155 434.694 486.223 434.507 485.701 434.321 486.638 434.135 487.6 433.949 487.86 433.763 487.911 433.577 487.838 433.391 487.674 433.205 487.468 433.019 487.033 432.833 485.778 432.647 484.467 432.461 484.953 432.274 486.009 432.088 486.149 431.902 486.197 431.716 486.397 431.53 486.416 431.343 486.234 431.158 485.765 430.972 483.71 430.786 480.391 430.6 480.773 430.414 484.457 430.228 486.301 430.041 486.529 429.855 486.621 429.669 486.68 429.483 486.684 429.297 486.562 429.11 485.74 428.925 483.915 428.739 483.527 428.553 485.466 428.367 486.769 428.181 487.029 427.995 487.196 427.808 487.253 427.622 487.197 427.436 487.042 427.25 486.301 427.064 484.282 426.877 483.197 426.692 485.016 426.506 486.701 426.32 487.018 426.134 487.236 425.948 487.449 425.762 487.44 425.575 487.109 425.389 485.68 425.203 482.305 425.017 479.696 424.83 482.007 424.644 485.852 424.457 487.17 424.271 487.351 424.085 487.439 423.899 487.417 423.713 487.328 423.527 486.861 423.342 485.106 423.156 483.338 422.97 484.581 422.784 486.669 422.597 487.211 422.411 487.403 422.224 487.652 422.038 487.73 421.852 487.671 421.666 487.282 421.48 485.799 421.294 484.197 421.109 485.267 420.923 487.164 420.737 487.64 420.551 487.86 420.364 488.129 420.178 488.23 419.991 488.206 419.805 487.734 419.619 485.093 419.433 481.825 419.247 483.45 419.061 487.057 418.876 488.06 418.69 488.11 418.504 488.197 418.318 488.202 418.131 488.19 417.945 488.052 417.758 487.014 417.572 485.622 417.386 486.291 417.2 487.894 417.014 488.341 416.828 488.345 416.643 488.409 416.457 488.468 416.271 488.504 416.084 488.416 415.898 487.687 415.712 486.699 415.525 487.263 415.339 488.478 415.153 488.76 414.967 488.771 414.781 488.865 414.595 488.925 414.41 488.938 414.224 488.85 414.038 487.848 413.851 486.226 413.665 486.657 413.479 488.466 413.292 489.214 413.106 489.203 412.92 489.082 412.734 489.031 412.548 488.99 412.362 488.938 412.177 488.717 411.991 488.321 411.805 488.343 411.618 488.814 411.432 489.138 411.246 489.244 411.059 489.218 410.873 489.156 410.687 489.145 410.501 489.178 410.315 489.108 410.129 488.918 409.942 488.855 409.756 488.997 409.57 489.168 409.383 489.272 409.197 489.255 409.011 489.228 408.826 489.28 408.64 489.303 408.454 489.306 408.268 489.39 408.082 489.441 407.896 489.457 407.709 489.478 407.523 489.378 407.337 489.085 407.15 488.894 406.964 489.02 406.778 489.193 406.593 489.268 406.407 489.341 406.221 489.4 406.035 489.422 405.849 489.446 405.663 489.512 405.476 489.552 405.29 489.499 405.103 489.417 404.917 489.414 404.731 489.481 404.545 489.53 404.36 489.569 404.174 489.652 403.988 489.697 403.802 489.628 403.616 489.552 403.43 489.581 403.243 489.686 403.057 489.783 402.87 489.792 402.684 489.717 402.498 489.647 402.312 489.627 402.127 489.612 401.941 489.598 401.755 489.566 401.569 489.472 401.383 489.387 401.197 489.384 401.01 489.368 400.824 489.305 400.637 489.334 400.451 489.507 400.265 489.703 400.079 489.848 399.894 489.925 399.708 489.954 399.522 490.019 399.336 490.077 399.15 490.102 398.964 490.138 398.777 490.197 398.59 490.232 398.404 490.216 398.218 490.154 398.032 490.104 397.846 490.161 397.659 490.25 397.473 490.281 397.287 490.285 397.101 490.282 396.915 490.256 396.729 490.225 396.544 490.225 396.357 490.257 396.171 490.27 395.985 490.258 395.799 490.26 395.613 490.263 395.426 490.28 395.24 490.312 395.054 490.311 394.868 490.281 394.682 490.292 394.496 490.307 394.311 490.26 394.124 490.217 393.938 490.186 393.752 490.125 393.566 490.053 393.38 490.021 393.193 489.987 393.007 489.859 392.821 489.741 392.635 489.679 392.449 489.572 392.263 489.439 392.078 489.344 391.891 489.265 391.705 489.102 391.519 488.856 391.333 488.666 391.147 488.538 390.96 488.369 390.774 488.156 390.588 487.943 390.402 487.675 390.216 487.392 390.03 487.149 389.844 486.923 389.658 486.738 389.472 486.575 389.286 486.396 389.1 486.205 388.914 486.026 388.727 485.898 388.541 485.817 388.355 485.774 388.169 485.759 387.983 485.739 387.796 485.802 387.611 486.017 387.425 486.271 387.239 486.588 387.053 487.044 386.867 487.585 386.681 488.148 386.494 488.714 386.308 489.059 386.122 488.445 385.936 486.758 385.75 485.787 385.564 486.438 385.377 487.266 385.19 487.353 385.004 486.946 384.818 486.174 384.632 485.067 384.446 483.822 384.261 482.689 384.075 481.917 383.889 481.421 383.703 481.092 383.517 481.209 383.33 481.862 383.143 482.723 382.957 483.262 382.771 483.29 382.585 483.349 382.399 483.91 382.213 484.911 382.028 486.197 381.842 487.571 381.656 488.777 381.47 489.713 381.284 490.384 381.097 490.845 380.91 491.178 380.724 491.364 380.538 491.439 380.352 491.512 380.166 491.597 379.98 491.631 379.795 491.632 379.609 491.725 379.423 491.892 379.237 492 379.051 491.977 378.864 491.892 378.677 491.881 378.491 491.909 378.305 491.92 378.119 491.939 377.933 491.977 377.747 491.943 377.562 491.808 377.376 491.676 377.19 491.651 377.004 491.7 376.817 491.718 376.631 491.698 376.444 491.662 376.258 491.632 376.072 491.603 375.886 491.548 375.7 491.522 375.514 491.515 375.329 491.437 375.143 491.28 374.957 491.136 374.771 491.109 374.584 491.153 374.398 491.132 374.211 491.062 374.025 490.952 373.839 490.809 373.653 490.72 373.467 490.666 373.281 490.592 373.094 490.537 372.908 490.454 372.722 490.266 372.536 490.091 372.349 490.104 372.163 490.194 371.978 490.224 371.792 490.222 371.606 490.153 371.42 490.075 371.234 490.07 371.048 490.099 370.861 490.18 370.675 490.29 370.489 490.262 370.303 490.019 370.116 489.829 369.93 489.904 369.745 490.042 369.559 490.078 369.373 490.102 369.187 490.117 369.001 490.072 368.815 490.024 368.628 490.038 368.442 490.056 368.256 489.991 368.07 489.837 367.883 489.664 367.697 489.649 367.512 489.829 367.326 489.96 367.14 489.998 366.954 490.006 366.768 489.967 366.582 489.894 366.395 489.87 366.209 489.899 366.023 489.959 365.836 490.021 365.65 489.989 365.464 489.842 365.279 489.808 365.093 489.928 364.907 489.976 364.721 489.918 364.535 489.918 364.349 489.953 364.162 489.891 363.976 489.785 363.79 489.715 363.603 489.636 363.417 489.506 363.231 489.292 363.046 489.198 362.86 489.478 362.674 489.804 362.488 489.894 362.302 489.924 362.116 489.932 361.929 489.899 361.743 489.855 361.557 489.854 361.37 489.856 361.184 489.842 360.998 489.873 360.811 489.926 360.625 489.936 360.439 489.963 360.253 489.993 360.067 490.019 359.881 490.043 359.696 490.058 359.51 490.024 359.324 489.933 359.137 489.859 358.951 489.848 358.765 489.796 358.578 489.625 358.392 489.49 358.206 489.642 358.02 489.894 357.834 489.981 357.648 489.93 357.463 489.835 357.277 489.822 357.09 489.9 356.904 489.923 356.718 489.823 356.532 489.624 356.345 489.411 356.159 489.405 355.973 489.979 355.787 490.653 355.601 490.568 355.415 490.123 355.23 489.946 355.044 489.94 354.857 489.947 354.671 489.963 354.485 489.943 354.299 489.891 354.112 489.825 353.926 489.635 353.74 489.469 353.554 489.595 353.368 489.827 353.182 489.865 352.997 489.834 352.811 489.889 352.624 489.944 352.438 489.933 352.252 489.953 352.066 489.956 351.879 489.828 351.693 489.596 351.507 489.512 351.321 489.855 351.135 490.495 350.949 490.717 350.764 490.366 350.577 490.035 350.391 489.963 350.205 489.967 350.019 489.983 349.833 489.977 349.646 489.847 349.46 489.604 349.274 489.383 349.088 489.409 348.902 489.702 348.716 489.876 348.531 489.879 348.345 489.877 348.158 489.899 347.972 489.912 347.786 489.922 347.6 489.927 347.413 489.873 347.227 489.697 347.041 489.532 346.855 489.498 346.669 489.742 346.483 490.337 346.296 490.955 346.11 490.849 345.923 490.174 345.737 489.795 345.551 489.74 345.365 489.69 345.18 489.627 344.994 489.54 344.808 489.393 344.622 489.329 344.436 489.5 344.25 489.648 344.063 489.539 343.876 489.34 343.69 489.233 343.504 489.146 343.318 489.059 343.132 488.912 342.947 488.685 342.761 488.482 342.575 488.344 342.389 488.18 342.203 488.027 342.017 487.946 341.83 488.061 341.643 488.55 341.457 488.824 341.271 487.716 341.085 485.782 340.899 484.236 340.714 483.05 340.528 481.723 340.342 480.152 340.156 478.297 339.97 476.088 339.784 473.548 339.597 470.605 339.41 467.166 339.224 463.364 339.038 459.348 338.852 455.185 338.666 450.952 338.481 446.817 338.295 442.827 338.109 439.184 337.923 435.963 337.737 433.319 337.551 431.311 337.364 430.115 337.177 430.667 336.991 432.774 336.805 435.572 336.619 438.267 336.433 441.252 336.248 446.108 336.062 451.886 335.876 456.212 335.69 458.345 335.504 457.571 335.317 455.406 335.13 455.31 334.944 456.459 334.758 461.43 334.572 468.475 334.386 468.534 334.2 462.697 334.013 456.338 333.827 450.772 333.641 446.113 333.455 442.323 333.269 439.438 333.082 437.417 332.897 436.181 332.711 435.633 332.525 435.749 332.339 436.862 332.153 439.037 331.967 440.973 331.78 441.986 331.594 443.34 331.408 445.601 331.222 448.341 331.036 451.35 330.849 454.343 330.664 457.225 330.478 460.026 330.292 462.729 330.106 465.33 329.92 467.82 329.734 470.175 329.547 472.413 329.361 474.396 329.175 476.149 328.989 477.895 328.803 479.764 328.616 481.259 328.431 482.267 328.245 483.311 328.059 484.487 327.873 485.676 327.687 487.189 327.501 488.535 327.314 488.39 327.128 487.582 326.942 487.695 326.756 488.23 326.57 488.618 326.383 488.848 326.198 489.097 326.012 489.284 325.826 489.353 325.64 489.429 325.454 489.455 325.268 489.349 325.081 489.362 324.895 489.502 324.709 489.701 324.523 489.709 324.336 489.554 324.15 489.487 323.965 489.428 323.779 489.162 323.593 488.849 323.407 488.649 323.221 488.675 323.035 488.937 322.848 489.433 322.662 489.123 322.476 487.66 322.29 486.341 322.103 485.589 321.917 484.821 321.73 483.767 321.544 482.343 321.358 480.696 321.172 478.764 320.986 476.348 320.8 473.289 320.615 469.728 320.429 465.588 320.243 460.645 320.057 454.783 319.87 447.985 319.684 440.302 319.497 431.819 319.311 421.992 319.125 410.731 318.939 398.126 318.753 384.251 318.567 369.133 318.382 353.322 318.196 336.43 318.01 316.082 317.823 293.405 317.637 272.915 317.451 254.85 317.264 237.407 317.078 219.369 316.892 201.534 316.706 186.129 316.52 174.552 316.334 165.609 316.149 158.018 315.963 154.203 315.777 157.241 315.591 165.075 315.404 173.227 315.218 179.996 315.031 196.778 314.845 227.688 314.659 250.004 314.473 262.254 314.287 277.776 314.101 274.052 313.916 255.159 313.73 262.969 313.544 293.712 313.357 299.727 313.171 289.331 312.985 283.128 312.798 265.902 312.612 241.05 312.426 207.831 312.24 177.006 312.054 158.38 311.868 142.777 311.683 127.37 311.497 117.404 311.311 115.885 311.124 119.985 310.938 125.768 310.752 131.696 310.565 140.809 310.379 158.235 310.193 179.374 310.007 199.629 309.821 220.199 309.635 241.597 309.448 263.311 309.262 284.445 309.076 302.186 308.889 313.127 308.703 326.017 308.517 347.231 308.332 366.729 308.146 381.283 307.96 393.896 307.774 405.784 307.588 417.051 307.402 425.451 307.215 422.487 307.029 409.538 306.843 415.995 306.656 439.191 306.47 451.751 306.284 456.663 306.099 459.981 305.913 462.669 305.727 465.12 305.541 464.596 305.355 454.262 305.169 445.146 304.982 454.552 304.796 467.011 304.61 470.333 304.423 470.346 304.237 469.913 304.051 470.098 303.866 469.859 303.68 462.307 303.494 444.37 303.308 442.486 303.122 459.938 302.936 469.476 302.749 471.011 302.563 471.509 302.376 471.453 302.19 471.248 302.004 464.08 301.818 427.001 301.633 393.141 301.447 421.115 301.261 459.65 301.075 469.548 300.889 471.586 300.703 472.155 300.516 472.113 300.33 470.531 300.143 455.088 299.957 426.012 299.771 426.461 299.585 453.295 299.4 465.463 299.214 467.378 299.028 468.573 298.842 468.529 298.656 467.091 298.47 457.766 298.283 428.479 298.097 413.558 297.91 439.772 297.724 462.646 297.538 467.768 297.352 469.895 297.167 470.589 296.981 470.199 296.795 461.322 296.609 410.88 296.423 355.51 296.237 387.798 296.05 446.543 295.863 464.087 295.677 467.578 295.491 468.388 295.305 467.898 295.119 465.427 294.932 446.123 294.746 413.248 294.56 417.337 294.374 448.808 294.188 462.311 294.002 465.07 293.817 466.409 293.63 466.251 293.444 465.293 293.258 452.269 293.072 421.738 292.886 417.834 292.699 447.482 292.513 464.315 292.327 468.005 292.141 470.217 291.955 470.878 291.769 470.248 291.584 451.542 291.397 397.316 291.211 378.891 291.025 427.371 290.839 459.824 290.653 464.673 290.466 466.878 290.28 467.342 290.094 467.095 289.908 460.126 289.722 437.861 289.536 428.9 289.351 449.806 289.164 465.424 288.978 467.557 288.792 468.248 288.606 468.634 288.42 468.735 288.233 463.434 288.047 446.776 287.861 441.164 287.675 458.477 287.489 471.77 287.303 474.376 287.117 474.126 286.931 473.64 286.745 473.412 286.559 463.603 286.373 436.4 286.187 430.026 286 456.821 285.814 474.053 285.628 476.5 285.442 475.216 285.256 473.209 285.069 472.603 284.884 468.267 284.698 458.751 284.512 459.362 284.326 470.122 284.14 475.882 283.954 477.372 283.767 477.617 283.581 476.942 283.395 476.318 283.209 472.468 283.023 466.912 282.837 469.99 282.65 477.408 282.463 480.586 282.277 481.758 282.091 482.175 281.905 481.678 281.719 479.466 281.534 471.699 281.348 466.349 281.162 473.54 280.976 481.409 280.79 483.674 280.603 484.64 280.417 484.804 280.23 483.684 280.044 481.191 279.858 478.089 279.672 478.16 279.486 481.366 279.301 483.43 279.115 484.351 278.929 484.949 278.743 485.111 278.557 484.742 278.37 483.309 278.183 482.22 277.997 483.54 277.811 485.278 277.625 486.02 277.439 486.479 277.253 486.825 277.068 487.063 276.882 486.275 276.696 484.285 276.51 484.278 276.324 486.346 276.137 487.525 275.95 487.88 275.764 488.129 275.578 488.317 275.392 488.371 275.206 487.89 275.02 487.272 274.835 487.347 274.649 487.654 274.463 487.843 274.277 488.106 274.09 488.379 273.904 488.522 273.717 488.411 273.531 488.234 273.345 488.329 273.159 488.496 272.973 488.596 272.787 488.743 272.602 488.914 272.416 488.89 272.23 488.679 272.044 488.563 271.857 488.729 271.671 488.96 271.484 489.053 271.298 489.125 271.112 489.246 270.926 489.361 270.74 489.366 270.554 489.336 270.367 489.322 270.181 489.283 269.995 489.306 269.809 489.398 269.622 489.486 269.436 489.546 269.251 489.561 269.065 489.578 268.879 489.593 268.693 489.55 268.507 489.498 268.321 489.478 268.134 489.37 267.948 489.272 267.762 489.314 267.576 489.367 267.389 489.398 267.203 489.45 267.018 489.48 266.832 489.394 266.646 489.217 266.46 489.221 266.274 489.394 266.088 489.488 265.901 489.442 265.715 489.372 265.529 489.336 265.343 489.404 265.156 489.558 264.97 489.705 264.785 489.788 264.599 489.843 264.413 489.906 264.227 489.987 264.041 490.081 263.855 490.112 263.668 490.073 263.482 490.011 263.296 490.026 263.109 490.083 262.923 490.081 262.737 490.089 262.552 490.105 262.366 490.119 262.18 490.148 261.994 490.114 261.808 489.96 261.622 489.849 261.435 489.927 261.249 490.124 261.063 490.263 260.876 490.276 260.69 490.171 260.504 490.029 260.319 489.982 260.133 490.043 259.947 490.112 259.761 490.082 259.575 489.985 259.389 489.954 259.202 489.959 259.016 489.98 258.83 490.089 258.643 490.185 258.457 490.169 258.271 490.168 258.084 490.191 257.898 490.098 257.712 490.02 257.526 490.101 257.34 490.145 257.154 490.102 256.969 490.114 256.783 490.092 256.597 490.008 256.41 490.047 256.224 490.131 256.038 490.185 255.851 490.174 255.665 490.045 255.479 489.965 255.293 490.008 255.107 490.034 254.921 490.024 254.736 490.053 254.55 490.041 254.364 490.015 254.177 490.096 253.991 490.167 253.805 490.14 253.618 490.052 253.432 489.981 253.246 489.996 253.06 490.084 252.874 490.136 252.688 490.077 252.503 490.041 252.317 490.137 252.13 490.124 251.944 489.997 251.758 490.006 251.572 490.114 251.385 490.116 251.199 490.055 251.013 490.013 250.827 490 250.641 490.022 250.455 490.039 250.27 490.001 250.084 490.004 249.897 490.098 249.711 490.117 249.525 490.065 249.339 490.084 249.152 490.122 248.966 490.152 248.78 490.219 248.594 490.269 248.408 490.209 248.222 490.112 248.037 490.008 247.851 489.906 247.664 489.885 247.478 489.945 247.292 489.973 247.106 490.009 246.919 490.03 246.733 490.045 246.547 490.134 246.361 490.156 246.175 490.101 245.989 490.075 245.804 490.05 245.618 490.03 245.431 489.989 245.245 489.951 245.059 489.959 244.873 490.012 244.686 490.081 244.5 490.123 244.314 490.093 244.128 490.01 243.942 489.927 243.756 489.923 243.569 489.955 243.383 489.988 243.196 490.001 243.01 489.954 242.824 489.893 242.638 489.862 242.453 489.904 242.267 490.029 242.081 490.078 241.895 489.994 241.709 489.946 241.523 490.063 241.336 490.156 241.149 490.136 240.963 490.099 240.777 490.047 240.591 490.015 240.405 489.994 240.22 490.001 240.034 490.104 239.848 490.169 239.662 490.061 239.476 490.005 239.29 490.142 239.103 490.182 238.917 490.152 238.73 490.168 238.544 490.141 238.358 490.074 238.172 490.047 237.987 490.104 237.801 490.118 237.615 490.034 237.429 490.084 237.243 490.243 237.057 490.293 236.87 490.18 236.683 490.047 236.497 490.029 236.311 490.041 236.125 490.034 235.939 490.004 235.754 490.003 235.568 490.056 235.382 490.046 235.196 489.975 235.01 489.979 234.824 490.124 234.637 490.2 234.45 490.072 234.264 489.858 234.078 489.849 233.892 490.079 233.706 490.24 233.521 490.158 233.335 490.007 233.149 489.955 232.963 489.935 232.777 489.892 232.59 489.936 232.404 490.074 232.217 490.068 232.031 489.966 231.845 490.039 231.659 490.069 231.473 489.942 231.286 489.956 231.1 490.131 230.914 490.238 230.728 490.186 230.542 490.054 230.355 489.98 230.17 490.021 229.984 489.998 229.798 489.881 229.612 489.855 229.426 489.933 229.24 490.018 229.053 490.078 228.867 490.127 228.681 490.066 228.495 489.996 228.309 490.06 228.123 490.157 227.937 490.153 227.751 490.089 227.565 490.01 227.379 489.997 227.193 490.08 227.007 490.109 226.82 490.061 226.634 490.039 226.448 490.058 226.262 490.013 226.076 489.97 225.889 490.003 225.704 490.073 225.518 490.153 225.332 490.095 225.146 489.986 224.96 489.965 224.774 489.951 224.587 489.908 224.401 489.928 224.215 490.001 224.029 490.066 223.843 490.078 223.656 490.023 223.471 489.941 223.285 489.86 223.099 489.842 222.913 489.853 222.727 489.823 222.541 489.774 222.354 489.767 222.168 489.863 221.982 489.946 221.796 489.918 221.61 489.794 221.423 489.701 221.238 489.699 221.052 489.73 220.866 489.795 220.68 489.764 220.494 489.698 220.308 489.712 220.121 489.761 219.935 489.786 219.749 489.695 219.563 489.572 219.376 489.56 219.19 489.71 219.003 489.86 218.817 489.797 218.631 489.69 218.445 489.728 218.259 489.786 218.073 489.853 217.888 489.909 217.702 489.95 217.516 489.931 217.33 489.769 217.143 489.698 216.957 489.774 216.77 489.741 216.584 489.591 216.398 489.615 216.212 489.749 216.026 489.66 215.84 489.559 215.655 489.64 215.469 489.799 215.283 489.914 215.097 489.897 214.91 489.92 214.724 490.008 214.537 489.953 214.351 489.807 214.165 489.714 213.979 489.765 213.793 489.892 213.607 489.934 213.422 489.905 213.236 489.879 213.05 489.844 212.864 489.854 212.677 489.912 212.491 489.955 212.304 489.987 212.118 489.998 211.932 489.969 211.746 489.924 211.56 489.926 211.374 489.997 211.189 489.98 211.003 489.838 210.817 489.789 210.63 489.963 210.444 490.11 210.258 490.075 210.071 489.955 209.885 489.903 209.699 489.962 209.513 489.999 209.327 489.96 209.141 489.889 208.956 489.87 208.77 489.947 208.584 490.071 208.397 490.091 208.211 489.935 208.025 489.857 207.838 489.906 207.652 489.93 207.466 489.888 207.28 489.799 207.094 489.767 206.908 489.873 206.721 489.987 206.535 490.011 206.349 490.017 206.163 489.989 205.976 489.879 205.79 489.737 205.605 489.678 205.419 489.705 205.233 489.737 205.047 489.836 204.861 489.935 204.675 489.896 204.488 489.798 204.302 489.777 204.116 489.81 203.929 489.768 203.743 489.686 203.557 489.671 203.372 489.646 203.186 489.559 203 489.411 202.814 489.298 202.628 489.318 202.442 489.39 202.255 489.351 202.069 489.256 201.883 489.163 201.696 489.054 201.51 488.924 201.324 488.803 201.139 488.785 200.953 488.746 200.767 488.577 200.581 488.473 200.395 488.463 200.209 488.332 200.022 488.053 199.836 487.802 199.65 487.652 199.463 487.565 199.277 487.577 199.091 487.664 198.906 487.634 198.72 487.426 198.534 487.196 198.348 487.107 198.162 487.16 197.976 487.26 197.789 487.368 197.603 487.479 197.416 487.509 197.23 487.446 197.044 487.499 196.858 487.712 196.673 487.807 196.487 487.746 196.301 487.632 196.115 487.524 195.929 487.446 195.743 487.289 195.556 487.177 195.37 487.242 195.183 487.382 194.997 487.5 194.811 487.451 194.625 487.288 194.438 487.126 194.252 486.974 194.066 486.854 193.88 486.828 193.694 486.792 193.508 486.62 193.323 486.503 193.137 486.597 192.95 486.708 192.764 486.717 192.578 486.798 192.392 486.978 192.205 487.151 192.019 487.375 191.833 487.636 191.647 487.783 191.461 487.89 191.275 488.054 191.09 488.201 190.904 488.349 190.717 488.502 190.531 488.731 190.345 489.076 190.159 489.309 189.972 489.378 189.786 489.466 189.6 489.527 189.414 489.46 189.228 489.397 189.042 489.384 188.857 489.433 188.67 489.548 188.484 489.643 188.298 489.694 188.112 489.688 187.926 489.631 187.739 489.584 187.553 489.543 187.367 489.559 187.181 489.627 186.995 489.627 186.809 489.524 186.624 489.428 186.437 489.445 186.251 489.52 186.065 489.633 185.879 489.683 185.693 489.585 185.506 489.429 185.32 489.377 185.134 489.521 184.948 489.715 184.762 489.739 184.576 489.659 184.391 489.61 184.204 489.494 184.018 489.249 183.832 489.028 183.646 488.939 183.46 489.001 183.273 489.182 183.087 489.327 182.901 489.352 182.715 489.39 182.529 489.425 182.343 489.382 182.157 489.28 181.971 489.145 181.785 489.122 181.599 489.182 181.413 489.226 181.227 489.238 181.04 489.239 180.854 489.257 180.668 489.215 180.482 489.104 180.296 488.984 180.11 488.884 179.923 488.867 179.736 488.962 179.55 489.105 179.364 489.196 179.178 489.173 178.992 489.049 178.807 488.774 178.621 488.37 178.435 488.113 178.249 488.205 178.063 488.598 177.876 488.924 177.689 489.01 177.503 489.107 177.317 489.221 177.131 489.161 176.945 488.969 176.759 488.767 176.574 488.682 176.388 488.886 176.202 489.216 176.016 489.34 175.83 489.347 175.643 489.346 175.456 489.167 175.27 488.874 175.084 488.776 174.898 488.794 174.712 488.781 174.526 488.833 174.341 489.027 174.155 489.2 173.969 489.165 173.783 489.082 173.597 488.995 173.41 488.778 173.223 488.604 173.037 488.785 172.851 489.129 172.665 489.241 172.479 489.233 172.293 489.291 172.108 489.349 171.922 489.326 171.736 489.24 171.55 489.275 171.363 489.397 171.177 489.419 170.99 489.388 170.804 489.274 170.618 489.189 170.432 489.298 170.246 489.369 170.06 489.376 169.875 489.38 169.689 489.362 169.503 489.448 169.317 489.581 169.13 489.628 168.944 489.542 168.757 489.396 168.571 489.292 168.385 489.227 168.199 489.29 168.013 489.502 167.827 489.717 167.64 489.833 167.454 489.784 167.268 489.668 167.082 489.579 166.896 489.45 166.709 489.427 166.524 489.525 166.338 489.594 166.152 489.585 165.966 489.534 165.78 489.58 165.594 489.658 165.407 489.62 165.221 489.583 165.035 489.637 164.849 489.73 164.662 489.691 164.476 489.465 164.291 489.435 164.105 489.648 163.919 489.736 163.733 489.631 163.547 489.473 163.361 489.556 163.174 489.708 162.988 489.628 162.802 489.683 162.616 489.874 162.429 489.869 162.243 489.767 162.058 489.74 161.872 489.815 161.686 489.861 161.5 489.839 161.314 489.837 161.128 489.814 160.941 489.721 160.755 489.65 160.569 489.703 160.383 489.749 160.196 489.729 160.01 489.739 159.825 489.784 159.639 489.815 159.453 489.828 159.267 489.815 159.081 489.775 158.895 489.807 158.708 489.902 158.522 489.948 158.336 489.937 158.15 489.938 157.963 489.86 157.777 489.738 157.592 489.774 157.406 489.833 157.22 489.729 157.034 489.722 156.848 489.835 156.662 489.842 156.475 489.794 156.289 489.799 156.103 489.738 155.916 489.624 155.73 489.656 155.544 489.74 155.357 489.704 155.171 489.636 154.985 489.623 154.799 489.632 154.613 489.624 154.427 489.567 154.242 489.54 154.056 489.525 153.87 489.381 153.683 489.276 153.497 489.326 153.311 489.471 153.124 489.624 152.938 489.672 152.752 489.6 152.566 489.274 152.38 489.066 152.194 489.334 152.009 489.579 151.823 489.619 151.637 489.645 151.45 489.627 151.264 489.496 151.078 489.397 150.891 489.356 150.705 489.255 150.519 489.332 150.333 489.571 150.147 489.602 149.961 489.38 149.776 489.196 149.59 489.311 149.403 489.484 149.217 489.52 149.031 489.524 148.845 489.453 148.658 489.194 148.472 488.986 148.286 489.154 148.1 489.4 147.914 489.486 147.728 489.513 147.543 489.416 147.357 489.253 147.17 489.264 146.984 489.34 146.798 489.358 146.612 489.302 146.425 489.149 146.239 489.169 146.053 489.294 145.867 489.306 145.681 489.303 145.495 489.337 145.31 489.389 145.124 489.452 144.937 489.43 144.751 489.3 144.565 489.179 144.379 489.181 144.192 489.222 144.006 489.151 143.82 488.973 143.634 488.867 143.448 488.856 143.262 488.771 143.075 488.76 142.889 488.83 142.702 488.895 142.516 488.955 142.33 488.968 142.144 488.993 141.959 488.953 141.773 488.79 141.587 488.629 141.401 488.57 141.215 488.62 141.029 488.747 140.842 488.844 140.656 488.834 140.469 488.811 140.283 488.805 140.097 488.823 139.911 488.876 139.726 488.969 139.54 488.933 139.354 488.734 139.168 488.743 138.982 488.859 138.796 488.831 138.609 488.64 138.423 488.285 138.236 488.039 138.05 488.044 137.864 487.998 137.678 487.829 137.493 487.615 137.307 487.288 137.121 486.936 136.935 486.728 136.749 486.695 136.563 486.847 136.376 487.129 136.19 487.396 136.003 487.776 135.817 488.421 135.631 488.973 135.445 489.187 135.26 489.198 135.074 489.147 134.888 489.04 134.702 488.933 134.516 489.051 134.33 489.377 134.143 489.535 133.956 489.415 133.77 489.176 133.584 488.931 133.398 488.812 133.212 488.783 133.027 488.933 132.841 489.27 132.655 489.399 132.469 489.319 132.283 489.228 132.097 489.082 131.91 488.925 131.723 488.724 131.537 488.575 131.351 488.796 131.165 489.132 130.979 489.311 130.794 489.405 130.608 489.3 130.422 488.772 130.236 487.964 130.05 487.849 129.863 488.62 129.677 489.123 129.49 489.166 129.304 489.171 129.118 489.032 128.932 488.736 128.746 488.683 128.559 489.03 128.373 489.306 128.187 489.346 128.001 489.306 127.815 489.135 127.629 488.847 127.443 488.627 127.257 488.642 127.071 488.857 126.885 489.134 126.699 489.15 126.513 488.817 126.326 488.597 126.14 488.909 125.954 489.329 125.768 489.409 125.582 489.375 125.396 489.333 125.21 489.29 125.024 489.251 124.838 489.067 124.652 488.845 124.466 488.844 124.28 488.976 124.093 489.105 123.907 489.184 123.721 489.146 123.535 488.98 123.349 488.866 123.162 488.963 122.977 489.135 122.791 489.144 122.605 489.001 122.419 488.723 122.233 488.348 122.047 488.318 121.86 488.568 121.674 488.623 121.488 488.55 121.302 488.344 121.116 487.922 120.929 487.687 120.744 487.745 120.558 487.633 120.372 487.287 120.186 486.875 120 486.281"/></g></svg>