<svg xmlns="http://www.w3.org/2000/svg" xmlns:svg="http://www.w3.org/2000/svg" id="svg2" width="600" height="600" x="0" y="0" enable-background="new 0 0 600 600" version="1.1" viewBox="0 0 600 600" xml:space="preserve"><metadata id="metadata5244"/><circle id="path2408" cx="307.19" cy="299.616" r="119.738" style="fill:none;stroke:#000;stroke-width:.8872;stroke-linecap:square"/><g id="layer1"><g id="g2362" transform="matrix(0.695009,0,0,0.683713,94.00027,94.69452)"><path id="path8773" fill="#C2C2C2" stroke="#C2C2C2" stroke-linecap="square" stroke-width="1" d="M264.655,281.355l42.898,17.769 l-224.38,92.942L264.655,281.355z"/><path id="path8775" fill="#999" stroke="#999" stroke-linecap="square" stroke-width="1" d="M290.167,342.947l17.769-42.9 L83.555,392.99L290.167,342.947z"/><path id="path8779" fill="#E1E1E1" stroke="#C2C2C2" stroke-linecap="square" stroke-width="1" d="M351.757,317.434 l-42.898-17.769l224.382-92.942L351.757,317.434z"/><path id="path8787" fill="#C2C2C2" stroke="#C2C2C2" stroke-linecap="square" stroke-width="1" d="M290.167,342.947l17.769-42.9 l92.941,224.381L290.167,342.947z"/><path id="path8789" fill="#999" stroke="#999" stroke-linecap="square" stroke-width="1" d="M351.757,317.434 l-42.898-17.769l92.942,224.38L351.757,317.434z"/><path id="path8793" fill="#E1E1E1" stroke="#C2C2C2" stroke-linecap="square" stroke-width="1" d="M326.246,255.842 l-17.769,42.899L215.535,74.36L326.246,255.842z"/><path id="path1397" fill="#E1E1E1" stroke="#C2C2C2" stroke-linecap="square" stroke-width="1" d="M264.655,281.355l42.898,17.769 l-224.38,92.942L264.655,281.355z"/><path id="path1405" fill="#E1E1E1" stroke="#C2C2C2" stroke-linecap="square" stroke-width="1" d="M290.167,342.947l17.769-42.9 l92.941,224.381L290.167,342.947z"/><g id="g2356"><path id="path8781" fill="#B4B4B4" stroke="#B4B4B4" stroke-linecap="square" d="M326.246,255.842l-17.769,42.899l224.38-92.942 L326.246,255.842z"/><path id="path8795" fill="#B4B4B4" stroke="#B4B4B4" stroke-linecap="square" d="M264.655,281.355l42.898,17.769L214.612,74.743 L264.655,281.355z"/><path id="path1399" fill="#B4B4B4" stroke="#B4B4B4" stroke-linecap="square" d="M290.167,342.947l17.769-42.9L83.555,392.99 L290.167,342.947z"/><path id="path1407" fill="#B4B4B4" stroke="#B4B4B4" stroke-linecap="square" d="M351.757,317.434l-42.898-17.769l92.942,224.38 L351.757,317.434z"/></g></g><g id="g2377" transform="matrix(0.491446,-0.491446,0.483458,0.483458,11.99521,306.1165)"><path id="path2379" fill="#C2C2C2" stroke="#C2C2C2" stroke-linecap="square" stroke-width="1" d="M264.655,281.355l42.897,17.768 l-224.38,92.943L264.655,281.355z"/><path id="path2381" fill="#999" stroke="#999" stroke-linecap="square" stroke-width="1" d="M290.167,342.946l17.769-42.9 L83.555,392.99L290.167,342.946z"/><path id="path2383" fill="#E1E1E1" stroke="#C2C2C2" stroke-linecap="square" stroke-width="1" d="M351.758,317.434 l-42.898-17.769l224.381-92.942L351.758,317.434z"/><path id="path2385" fill="#C2C2C2" stroke="#C2C2C2" stroke-linecap="square" stroke-width="1" d="M290.167,342.946l17.769-42.9 l92.942,224.382L290.167,342.946z"/><path id="path2387" fill="#999" stroke="#999" stroke-linecap="square" stroke-width="1" d="M351.758,317.434 l-42.898-17.769l92.942,224.38L351.758,317.434z"/><path id="path2389" fill="#E1E1E1" stroke="#C2C2C2" stroke-linecap="square" stroke-width="1" d="M326.246,255.843 l-17.769,42.898L215.535,74.36L326.246,255.843z"/><path id="path2391" fill="#E1E1E1" stroke="#C2C2C2" stroke-linecap="square" stroke-width="1" d="M264.655,281.355l42.897,17.768 l-224.38,92.943L264.655,281.355z"/><path id="path2393" fill="#E1E1E1" stroke="#C2C2C2" stroke-linecap="square" stroke-width="1" d="M290.167,342.946l17.769-42.9 l92.942,224.382L290.167,342.946z"/><g id="g2395"><path id="path2397" fill="#B4B4B4" stroke="#B4B4B4" stroke-linecap="square" d="M326.246,255.843l-17.769,42.898L532.858,205.8 L326.246,255.843z"/><path id="path2399" fill="#B4B4B4" stroke="#B4B4B4" stroke-linecap="square" d="M264.655,281.355l42.897,17.768L214.611,74.742 L264.655,281.355z"/><path id="path2401" fill="#B4B4B4" stroke="#B4B4B4" stroke-linecap="square" d="M290.167,342.946l17.769-42.9L83.555,392.99 L290.167,342.946z"/><path id="path2403" fill="#B4B4B4" stroke="#B4B4B4" stroke-linecap="square" d="M351.758,317.434l-42.898-17.769l92.942,224.38 L351.758,317.434z"/></g></g></g><g id="g1536" transform="translate(-55.8718,-38.60234)"><path id="path1538" fill="#C2C2C2" stroke="#C2C2C2" stroke-linecap="square" stroke-width="1" d="M316.938,337.997h46.433 L191.638,509.73L316.938,337.997z"/><path id="path1540" fill="#999" stroke="#999" stroke-linecap="square" stroke-width="1" d="M364.078,385.138v-46.434 L192.345,510.437L364.078,385.138z"/><path id="path1542" fill="#C2C2C2" stroke="#C2C2C2" stroke-linecap="square" stroke-width="1" d="M411.218,337.997h-46.433 l171.733-171.733L411.218,337.997z"/><path id="path1544" fill="#999" stroke="#999" stroke-linecap="square" stroke-width="1" d="M364.078,290.857v46.433 l171.733-171.734L364.078,290.857z"/><path id="path1546" fill="#C2C2C2" stroke="#C2C2C2" stroke-linecap="square" stroke-width="1" d="M364.078,385.138v-46.434 l171.733,171.733L364.078,385.138z"/><path id="path1548" fill="#999" stroke="#999" stroke-linecap="square" stroke-width="1" d="M411.218,337.997h-46.433 L536.519,509.73L411.218,337.997z"/><path id="path1550" fill="#C2C2C2" stroke="#C2C2C2" stroke-linecap="square" stroke-width="1" d="M364.078,290.857v46.433 L192.345,165.556L364.078,290.857z"/><path id="path1552" fill="#999" stroke="#999" stroke-linecap="square" stroke-width="1" d="M316.938,337.997h46.433 L191.638,166.263L316.938,337.997z"/></g><g id="g11797" transform="translate(-56.88765,-38.38015)"><path id="path2122" fill="#FFF" stroke="#000" stroke-linecap="square" d="M330.745,304.664l32.832,32.833H120.71 L330.745,304.664z"/><path id="path5805" stroke="#000" stroke-linecap="square" d="M330.745,371.329l32.832-32.833H120.71L330.745,371.329z"/><path id="path8724" fill="#FFF" stroke="#000" stroke-linecap="square" d="M397.411,371.329l-32.834-32.833h242.868 L397.411,371.329z"/><path id="path8726" stroke="#000" stroke-linecap="square" d="M397.411,304.664l-32.834,32.833h242.868L397.411,304.664z"/><path id="path8740" fill="#FFF" stroke="#000" stroke-linecap="square" d="M330.745,371.329l32.832-32.833v242.868 L330.745,371.329z"/><path id="path8742" stroke="#000" stroke-linecap="square" d="M397.411,371.329l-32.834-32.833v242.868L397.411,371.329z"/><path id="path8746" fill="#FFF" stroke="#000" stroke-linecap="square" d="M397.411,304.664l-32.834,32.833V94.629 L397.411,304.664z"/><path id="path8748" stroke="#000" stroke-linecap="square" d="M330.745,304.664l32.832,32.833V94.629L330.745,304.664z"/></g><g id="g1561"><text id="text5208" font-size="25" transform="translate(483.0159,494.9414)" style="font-size:29.33333333px;line-height:0%;font-family:'DejaVu Sans Mono';-inkscape-font-specification:'DejaVu Sans Mono, Bold';font-weight:700;font-style:normal;font-stretch:normal;font-variant:normal;text-anchor:start;text-align:start;writing-mode:lr;font-variant-ligatures:normal;font-variant-caps:normal;font-variant-numeric:normal;font-feature-settings:normal">SE</text><text id="text5210" x="95.016" y="494.941" font-size="25" style="font-style:normal;font-variant:normal;font-weight:700;font-stretch:normal;font-size:29.33333397px;line-height:0%;font-family:'DejaVu Sans Mono';-inkscape-font-specification:'DejaVu Sans Mono, Bold';font-variant-ligatures:normal;font-variant-caps:normal;font-variant-numeric:normal;font-feature-settings:normal;text-align:start;writing-mode:lr-tb;text-anchor:start">SW</text><text id="text5212" x="482.016" y="122.436" font-size="25" style="font-style:normal;font-variant:normal;font-weight:700;font-stretch:normal;font-size:29.33333397px;line-height:0%;font-family:'DejaVu Sans Mono';-inkscape-font-specification:'DejaVu Sans Mono, Bold';font-variant-ligatures:normal;font-variant-caps:normal;font-variant-numeric:normal;font-feature-settings:normal;text-align:start;writing-mode:lr-tb;text-anchor:start">NE</text><text id="text5214" x="97.804" y="122.436" font-size="25" style="font-style:normal;font-variant:normal;font-weight:700;font-stretch:normal;font-size:29.33333397px;line-height:0%;font-family:'DejaVu Sans Mono';-inkscape-font-specification:'DejaVu Sans Mono, Bold';font-variant-ligatures:normal;font-variant-caps:normal;font-variant-numeric:normal;font-feature-settings:normal;text-align:start;writing-mode:lr-tb;text-anchor:start">NW</text><text id="text5216" x="578.726" y="317.112" font-size="41" style="font-style:normal;font-variant:normal;font-weight:700;font-stretch:normal;font-size:48px;line-height:0%;font-family:'DejaVu Sans Mono';-inkscape-font-specification:'DejaVu Sans Mono Bold';text-align:center;text-anchor:middle">E</text><text id="text5218" x="28.737" y="317.112" font-size="41" style="font-style:normal;font-variant:normal;font-weight:700;font-stretch:normal;font-size:48px;line-height:0%;font-family:'DejaVu Sans Mono';-inkscape-font-specification:'DejaVu Sans Mono Bold';text-align:center;text-anchor:middle">W</text><text id="text5220" x="307.108" y="589" font-size="41" style="font-style:normal;font-variant:normal;font-weight:700;font-stretch:normal;font-size:48px;line-height:0%;font-family:'DejaVu Sans Mono';-inkscape-font-specification:'DejaVu Sans Mono Bold';text-align:center;text-anchor:middle">S</text><text id="text5222" x="307.202" y="41.548" font-size="41" style="font-style:normal;font-variant:normal;font-weight:700;font-stretch:normal;font-size:48px;line-height:0%;font-family:'DejaVu Sans Mono';-inkscape-font-specification:'DejaVu Sans Mono Bold';text-align:center;text-anchor:middle">N</text><text id="text5224" x="366" y="134" font-size="18" style="font-style:oblique;font-variant:normal;font-weight:400;font-stretch:normal;font-size:20.33333397px;line-height:0%;font-family:'DejaVu Sans Mono';-inkscape-font-specification:'DejaVu Sans Mono, Oblique';font-variant-ligatures:normal;font-variant-caps:normal;font-variant-numeric:normal;font-feature-settings:normal;text-align:start;writing-mode:lr-tb;text-anchor:start">NNE</text><text id="text5226" x="219.94" y="134" font-size="18" style="font-style:oblique;font-variant:normal;font-weight:400;font-stretch:normal;font-size:20.33333397px;line-height:0%;font-family:'DejaVu Sans Mono';-inkscape-font-specification:'DejaVu Sans Mono, Oblique';font-variant-ligatures:normal;font-variant-caps:normal;font-variant-numeric:normal;font-feature-settings:normal;text-align:start;writing-mode:lr-tb;text-anchor:start">NNW</text><text id="text5228" x="112" y="239.781" font-size="18" style="font-style:oblique;font-variant:normal;font-weight:400;font-stretch:normal;font-size:20.33333397px;line-height:0%;font-family:'DejaVu Sans Mono';-inkscape-font-specification:'DejaVu Sans Mono, Oblique';font-variant-ligatures:normal;font-variant-caps:normal;font-variant-numeric:normal;font-feature-settings:normal;text-align:start;writing-mode:lr-tb;text-anchor:start">WNW</text><text id="text5230" x="112" y="382.334" font-size="18" style="font-style:oblique;font-variant:normal;font-weight:400;font-stretch:normal;font-size:20.33333397px;line-height:0%;font-family:'DejaVu Sans Mono';-inkscape-font-specification:'DejaVu Sans Mono, Oblique';font-variant-ligatures:normal;font-variant-caps:normal;font-variant-numeric:normal;font-feature-settings:normal;text-align:start;writing-mode:lr-tb;text-anchor:start">WSW</text><text id="text5232" font-size="18" transform="translate(219.6326,479)" style="font-size:20.33333333px;line-height:0%;font-family:'DejaVu Sans Mono';-inkscape-font-specification:'DejaVu Sans Mono, Oblique';font-weight:400;font-style:oblique;font-stretch:normal;font-variant:normal;text-anchor:start;text-align:start;writing-mode:lr;font-variant-ligatures:normal;font-variant-caps:normal;font-variant-numeric:normal;font-feature-settings:normal">SSW</text><text id="text5234" x="366" y="479" font-size="18" style="font-style:oblique;font-variant:normal;font-weight:400;font-stretch:normal;font-size:20.33333397px;line-height:0%;font-family:'DejaVu Sans Mono';-inkscape-font-specification:'DejaVu Sans Mono, Oblique';font-variant-ligatures:normal;font-variant-caps:normal;font-variant-numeric:normal;font-feature-settings:normal;text-align:start;writing-mode:lr-tb;text-anchor:start">SSE</text><text id="text5236" x="468" y="376.334" font-size="18" style="font-style:oblique;font-variant:normal;font-weight:400;font-stretch:normal;font-size:20.33333397px;line-height:0%;font-family:'DejaVu Sans Mono';-inkscape-font-specification:'DejaVu Sans Mono, Oblique';font-variant-ligatures:normal;font-variant-caps:normal;font-variant-numeric:normal;font-feature-settings:normal;text-align:start;writing-mode:lr-tb;text-anchor:start">ESE</text><text id="text5238" x="470" y="239.781" font-size="18" style="font-style:oblique;font-variant:normal;font-weight:400;font-stretch:normal;font-size:20.33333397px;line-height:0%;font-family:'DejaVu Sans Mono';-inkscape-font-specification:'DejaVu Sans Mono, Oblique';font-variant-ligatures:normal;font-variant-caps:normal;font-variant-numeric:normal;font-feature-settings:normal;text-align:start;writing-mode:lr-tb;text-anchor:start">ENE</text></g></svg>