<svg xmlns="http://www.w3.org/2000/svg" xmlns:xlink="http://www.w3.org/1999/xlink" width="706.333" height="607.833" version="1.1" viewBox="188.833 70.333 706.333 607.833" xlink="http://www.w3.org/1999/xlink" style="position:relative;overflow:hidden"><g><g width="195.833" height="167.667"><g fill="#E54956" fill-opacity="1" stroke="#E54956" stroke-opacity="1"><path stroke-dasharray="none" stroke-width="1" d="M97.917,0 L195.833,167.667 L0,167.667 L97.917,0 z" transform="scale(1,1) translate(443.75,82.833) scale(1,1) translate(0,0)"/></g><g width="95.5" height="81.333"><text width="95.5" height="37.5" transform="scale(1,1) translate(443.75,82.833) scale(1,1) translate(50.167,84.833) scale(1,1) translate(0,21.91666475931803)" xml:space="preserve"><tspan opacity="1" style="font-family:Arial,Helvetica Neue,Helvetica,sans-serif" x="12.524" y="14.583" fill="#FFF" font-size="15.278" font-style="normal" font-weight="bold" text-anchor="start" text-decoration="none" text-rendering="optimizeSpeed" textLength="66.215" xml:space="preserve">Buddhist</tspan><tspan opacity="1" style="font-family:Arial,Helvetica Neue,Helvetica,sans-serif" x="3.193" y="33.333" fill="#FFF" font-size="15.278" font-style="normal" font-weight="bold" text-anchor="start" text-decoration="none" text-rendering="optimizeSpeed" textLength="89.115" xml:space="preserve">Monasteries</tspan></text></g></g><g width="323.333" height="105.667"><g fill="#ED6D30" fill-opacity="1" stroke="#ED6D30" stroke-opacity="1"><path stroke-dasharray="none" stroke-width="1" d="M61.691,0 L61.691,0 L0,105.667 L0,105.667 L0,105.667 L323.333,105.667 L323.333,105.667 L323.333,105.667 L260.974,0 L260.974,0 L260.974,0 L61.691,0 L61.691,0 z" transform="scale(1,1) translate(379.833,251.333) scale(1,1) translate(0,0)"/></g><g width="206.5" height="94.333"><text width="206.5" height="18.75" transform="scale(1,1) translate(379.833,251.333) scale(1,1) translate(58.167,9.833) scale(1,1) translate(0,37.79166571299235)" xml:space="preserve"><tspan opacity="1" style="font-family:Arial,Helvetica Neue,Helvetica,sans-serif" x="43.832" y="14.583" fill="#FFF" font-size="15.278" font-style="normal" font-weight="bold" text-anchor="start" text-decoration="none" text-rendering="optimizeSpeed" textLength="118.837" xml:space="preserve">Buddhist Monks</tspan></text></g></g><g width="442.333" height="103.667"><g fill="#F5C332" fill-opacity="1" stroke="#F5C332" stroke-opacity="1"><path stroke-dasharray="none" stroke-width="1" d="M61.11,0 L61.11,0 L381.391,0 L381.391,0 L381.391,0 L442.333,103.667 L442.333,103.667 L442.333,103.667 L0,103.667 L0,103.667 L0,103.667 L61.11,0 L61.11,0 z" transform="scale(1,1) translate(320.167,355.833) scale(1,1) translate(0,0)"/></g><g width="317.667" height="100.667"><text width="317.667" height="18.75" transform="scale(1,1) translate(320.167,355.833) scale(1,1) translate(62.667,1.5) scale(1,1) translate(0,40.95833237965901)" xml:space="preserve"><tspan opacity="1" style="font-family:Arial,Helvetica Neue,Helvetica,sans-serif" x="104.502" y="14.583" fill="#FFF" font-size="15.278" font-style="normal" font-weight="bold" text-anchor="start" text-decoration="none" text-rendering="optimizeSpeed" textLength="108.663" xml:space="preserve">Buddhist Nuns</tspan></text></g></g><g width="560.5" height="103.5"><g fill="#90C549" fill-opacity="1" stroke="#90C549" stroke-opacity="1"><path stroke-dasharray="none" stroke-width="1" d="M60.667,0 L0,103.5 L560.5,103.5 L499.333,0 L60.667,0 z" transform="scale(1,1) translate(261.667,459.5) scale(1,1) translate(0,0)"/></g><g width="435.833" height="100.5"><text width="435.833" height="18.75" transform="scale(1,1) translate(261.667,459.5) scale(1,1) translate(62.333,1.5) scale(1,1) translate(0,40.874999046325684)" xml:space="preserve"><tspan opacity="1" style="font-family:Arial,Helvetica Neue,Helvetica,sans-serif" x="144.913" y="14.583" fill="#FFF" font-size="15.278" font-style="normal" font-weight="bold" text-anchor="start" text-decoration="none" text-rendering="optimizeSpeed" textLength="146.007" xml:space="preserve">Buddhist Laypeople</tspan></text></g></g><g width="681.333" height="102.5"><g fill="#78CED7" fill-opacity="1" stroke="#78CED7" stroke-opacity="1"><path stroke-dasharray="none" stroke-width="1" d="M59.98,0 L59.98,0 L0,102.5 L0,102.5 L0,102.5 L681.333,102.5 L681.333,102.5 L681.333,102.5 L620.184,0 L620.184,0 L620.184,0 L59.98,0 L59.98,0 z" transform="scale(1,1) translate(201.333,563.167) scale(1,1) translate(0,0)"/></g><g width="557.333" height="99.5"><text width="557.333" height="18.75" transform="scale(1,1) translate(201.333,563.167) scale(1,1) translate(61.833,1.5) scale(1,1) translate(0,40.374999046325684)" xml:space="preserve"><tspan opacity="1" style="font-family:Arial,Helvetica Neue,Helvetica,sans-serif" x="213.319" y="14.583" fill="#FFF" font-size="15.278" font-style="normal" font-weight="bold" text-anchor="start" text-decoration="none" text-rendering="optimizeSpeed" textLength="130.694" xml:space="preserve">Buddhist Pilgrims</tspan></text></g></g></g></svg>