<svg xmlns="http://www.w3.org/2000/svg" width="441" height="291" viewBox="0 0 441 291"><g><path fill="#FFB3B3" d="M400.428 219.482c-49-7.852-87-21.038-116-36.788v54.22h116v-17.432z"/><path fill="#99C1E9" d="M284.53 182.66c-20.194-10.622-37.102-22.39-51.102-34.54v88.795h51l.103-54.254z"/><path stroke="#f00" stroke-dasharray="5" fill="none" d="M284.594 182.694v54.163"/><path stroke="#0064C8" stroke-dasharray="5" fill="none" d="M233.106 236.354V148.12"/></g><g><g fill="#f00"><path d="M330.397 92.92v5.554c0 .698.16 1.22.477 1.562s.815.516 1.492.516c.896 0 1.55-.245 1.965-.734s.622-1.29.622-2.398v-4.5h1.297v8.562h-1.07l-.19-1.148h-.07c-.265.422-.633.745-1.104.97s-1.01.335-1.613.335c-1.042 0-1.82-.25-2.34-.743s-.777-1.287-.777-2.375V92.92h1.31zM344.858 101.482v-5.54c0-.697-.16-1.218-.477-1.56s-.814-.517-1.49-.517c-.897 0-1.553.242-1.97.727s-.625 1.284-.625 2.398v4.492h-1.297V92.92h1.055l.21 1.172h.063c.266-.422.638-.75 1.117-.98s1.013-.348 1.602-.348c1.03 0 1.808.25 2.328.746s.78 1.293.78 2.387v5.586h-1.295zM352.24 101.638c-1.238 0-2.198-.38-2.878-1.145s-1.02-1.842-1.02-3.238c0-1.432.345-2.54 1.035-3.32s1.673-1.172 2.95-1.172c.41 0 .822.044 1.233.133s.734.193.97.312l-.4 1.102c-.285-.115-.598-.21-.937-.285s-.638-.113-.898-.113c-1.74 0-2.61 1.11-2.61 3.328 0 1.052.213 1.86.638 2.422s1.054.844 1.887.844c.714 0 1.445-.154 2.195-.46v1.147c-.573.297-1.294.445-2.164.445zM361.702 101.482l-.258-1.22h-.062c-.427.538-.853.9-1.277 1.09s-.954.286-1.59.286c-.85 0-1.515-.22-1.996-.656s-.724-1.06-.724-1.867c0-1.73 1.383-2.635 4.148-2.72l1.453-.046v-.532c0-.672-.145-1.168-.434-1.488s-.75-.48-1.387-.48c-.714 0-1.52.22-2.422.656l-.398-.992c.422-.23.884-.41 1.387-.54s1.007-.194 1.512-.194c1.02 0 1.777.227 2.27.68s.738 1.18.738 2.18v5.844h-.96zm-2.93-.914c.808 0 1.44-.22 1.902-.664s.69-1.062.69-1.86v-.772l-1.296.055c-1.03.037-1.774.197-2.23.48s-.684.725-.684 1.324c0 .47.142.827.426 1.07s.682.368 1.192.368zM368.1 100.568c.23 0 .45-.017.665-.05s.383-.07.508-.106v.992c-.14.068-.348.124-.62.168s-.52.066-.74.066c-1.655 0-2.483-.873-2.483-2.617v-5.093h-1.227v-.625l1.227-.54.547-1.827h.75v1.984h2.484v1.007h-2.483v5.04c0 .515.122.91.367 1.187s.58.414 1.007.414zM376.25 101.482l-.26-1.22h-.06c-.428.538-.854.9-1.278 1.09s-.954.286-1.59.286c-.85 0-1.515-.22-1.996-.656s-.723-1.06-.723-1.867c0-1.73 1.383-2.635 4.148-2.72l1.454-.046v-.532c0-.672-.145-1.168-.434-1.488s-.75-.48-1.387-.48c-.714 0-1.52.22-2.422.656l-.397-.992c.422-.23.884-.41 1.387-.54s1.007-.194 1.512-.194c1.02 0 1.777.227 2.27.68s.738 1.18.738 2.18v5.844h-.96zm-2.93-.914c.807 0 1.44-.22 1.9-.664s.692-1.062.692-1.86v-.772l-1.297.055c-1.03.037-1.774.197-2.23.48s-.684.725-.684 1.324c0 .47.143.827.427 1.07s.682.368 1.192.368zM381.18 101.482h-1.298V89.326h1.297v12.156zM382.57 92.92h1.39l1.875 4.882c.41 1.115.667 1.92.766 2.414h.063c.067-.266.21-.72.426-1.363s.922-2.62 2.12-5.934h1.39l-3.68 9.75c-.363.962-.79 1.646-1.276 2.05s-1.085.605-1.793.605c-.395 0-.785-.044-1.17-.133v-1.04c.285.063.605.095.96.095.89 0 1.526-.5 1.906-1.5l.477-1.22-3.454-8.608zM397.515 99.146c0 .797-.297 1.412-.89 1.844s-1.428.648-2.5.648c-1.137 0-2.022-.18-2.657-.54v-1.202c.41.208.853.373 1.324.492s.926.18 1.363.18c.677 0 1.198-.108 1.562-.324s.547-.545.547-.988c0-.333-.145-.62-.434-.855s-.853-.516-1.69-.84c-.798-.296-1.364-.555-1.7-.776s-.586-.473-.75-.754-.246-.617-.246-1.008c0-.698.284-1.25.852-1.652s1.347-.605 2.336-.605c.922 0 1.823.188 2.703.562l-.46 1.055c-.86-.354-1.64-.53-2.337-.53-.614 0-1.078.095-1.39.288s-.47.458-.47.797c0 .23.06.424.176.586s.306.315.566.46.76.358 1.5.634c1.016.37 1.702.742 2.06 1.117s.535.844.535 1.412zM403.24 101.638c-1.265 0-2.264-.385-2.995-1.156s-1.098-1.84-1.098-3.21c0-1.38.34-2.478 1.02-3.29s1.593-1.22 2.738-1.22c1.073 0 1.922.354 2.547 1.06s.938 1.637.938 2.793v.82h-5.898c.026 1.005.28 1.768.762 2.29s1.16.78 2.035.78c.92 0 1.832-.193 2.733-.578v1.156c-.458.198-.892.34-1.3.426s-.904.128-1.482.128zm-.35-7.79c-.688 0-1.235.225-1.645.673s-.65 1.07-.723 1.86H405c0-.818-.184-1.444-.548-1.88s-.886-.65-1.562-.65zM414.43 100.334h-.07c-.6.87-1.496 1.305-2.69 1.305-1.12 0-1.99-.384-2.612-1.15s-.934-1.853-.934-3.265.312-2.508.938-3.29 1.495-1.17 2.61-1.17c1.16 0 2.05.42 2.67 1.265h.103l-.055-.617-.03-.602v-3.483h1.296v12.156H414.6l-.17-1.15zm-2.595.218c.886 0 1.527-.24 1.926-.723s.6-1.26.6-2.333v-.273c0-1.213-.203-2.08-.606-2.598s-1.048-.777-1.934-.777c-.76 0-1.343.294-1.746.886s-.605 1.426-.605 2.504c0 1.094.2 1.92.6 2.477s.99.835 1.765.835zM340.828 121.038l-.258-1.22h-.062c-.427.538-.853.9-1.277 1.09s-.953.286-1.59.286c-.848 0-1.514-.22-1.995-.656s-.723-1.06-.723-1.867c0-1.728 1.383-2.634 4.148-2.718l1.453-.047v-.53c0-.673-.145-1.17-.434-1.49s-.752-.48-1.388-.48c-.714 0-1.52.22-2.422.657l-.398-.992c.422-.23.884-.41 1.387-.54s1.006-.194 1.51-.194c1.022 0 1.778.227 2.27.68s.74 1.18.74 2.18v5.844h-.962zm-2.93-.914c.808 0 1.44-.22 1.902-.664s.69-1.062.69-1.86v-.772l-1.296.055c-1.03.037-1.774.197-2.23.48s-.684.725-.684 1.324c0 .47.142.826.426 1.07s.682.367 1.192.367zM347.883 121.194c-1.24 0-2.2-.38-2.88-1.145s-1.02-1.843-1.02-3.24c0-1.43.346-2.538 1.036-3.32s1.672-1.17 2.948-1.17c.41 0 .823.043 1.234.132s.734.193.97.312l-.4 1.102c-.285-.115-.598-.21-.937-.285s-.638-.112-.898-.112c-1.74 0-2.61 1.11-2.61 3.328 0 1.052.213 1.86.638 2.422s1.054.844 1.887.844c.714 0 1.445-.154 2.195-.46v1.147c-.573.295-1.294.444-2.164.444zM354.844 120.124c.23 0 .45-.017.664-.05s.383-.07.508-.106v.992c-.14.068-.348.124-.62.168s-.52.066-.74.066c-1.655 0-2.483-.873-2.483-2.617v-5.094h-1.227v-.625l1.227-.54.547-1.827h.75v1.985h2.484v1.008h-2.484v5.04c0 .515.122.91.367 1.187s.58.414 1.007.414zM357.617 110.155c0-.297.073-.515.22-.652.145-.138.327-.207.546-.207.208 0 .388.07.54.21s.226.357.226.65c0 .29-.076.508-.228.65-.15.144-.33.216-.54.216-.218 0-.4-.072-.546-.215-.146-.143-.22-.36-.22-.652zm1.406 10.883h-1.297v-8.562h1.297v8.562zM363.648 121.038l-3.25-8.562h1.39l1.845 5.078c.417 1.188.66 1.958.734 2.312h.062c.057-.276.237-.848.542-1.715s.988-2.758 2.05-5.675h1.392l-3.25 8.562h-1.516zM375.055 121.038l-.258-1.22h-.062c-.427.538-.853.9-1.277 1.09s-.954.286-1.59.286c-.85 0-1.515-.22-1.996-.656s-.723-1.06-.723-1.867c0-1.728 1.382-2.634 4.147-2.718l1.453-.047v-.53c0-.673-.145-1.17-.434-1.49s-.75-.48-1.387-.48c-.715 0-1.522.22-2.423.657l-.398-.992c.42-.23.883-.41 1.386-.54s1.007-.194 1.512-.194c1.02 0 1.777.227 2.27.68s.738 1.18.738 2.18v5.844h-.96zm-2.93-.914c.808 0 1.44-.22 1.902-.664s.69-1.062.69-1.86v-.772l-1.296.055c-1.03.037-1.773.197-2.23.48s-.683.725-.683 1.324c0 .47.142.826.426 1.07s.68.367 1.192.367zM381.453 120.124c.23 0 .45-.017.664-.05s.383-.07.508-.106v.992c-.14.068-.348.124-.62.168s-.52.066-.74.066c-1.655 0-2.483-.873-2.483-2.617v-5.094h-1.227v-.625l1.227-.54.547-1.827h.75v1.985h2.483v1.008h-2.484v5.04c0 .515.12.91.366 1.187s.58.414 1.007.414zM384.227 110.155c0-.297.073-.515.22-.652.145-.138.327-.207.546-.207.208 0 .388.07.54.21s.226.357.226.65c0 .29-.076.508-.228.65-.15.144-.33.216-.54.216-.218 0-.4-.072-.546-.215-.146-.143-.22-.36-.22-.652zm1.406 10.883h-1.297v-8.562h1.297v8.562zM395.773 116.75c0 1.395-.352 2.485-1.055 3.27s-1.675 1.175-2.914 1.175c-.766 0-1.445-.18-2.04-.54s-1.05-.874-1.374-1.546-.484-1.46-.484-2.36c0-1.396.35-2.483 1.047-3.262s1.667-1.168 2.906-1.168c1.197 0 2.148.398 2.854 1.195s1.06 1.874 1.06 3.234zm-6.523 0c0 1.093.22 1.926.656 2.5s1.08.858 1.93.858 1.493-.285 1.934-.855.66-1.405.66-2.504c0-1.09-.22-1.917-.66-2.48s-1.09-.85-1.95-.85c-.848 0-1.488.28-1.92.837s-.65 1.388-.65 2.492zM403.906 121.038v-5.54c0-.697-.16-1.218-.477-1.56s-.816-.517-1.493-.517c-.896 0-1.552.243-1.97.728s-.624 1.284-.624 2.398v4.492h-1.297v-8.562h1.055l.212 1.172h.062c.266-.422.638-.75 1.117-.98s1.014-.348 1.603-.348c1.03 0 1.808.25 2.328.746s.782 1.293.782 2.387v5.586h-1.296zM351.844 140.75c-1.266 0-2.265-.385-2.996-1.156s-1.098-1.84-1.098-3.21c0-1.38.34-2.478 1.02-3.29s1.593-1.22 2.738-1.22c1.073 0 1.922.354 2.547 1.06s.938 1.637.938 2.793v.82h-5.898c.026 1.005.28 1.768.762 2.29s1.16.78 2.035.78c.922 0 1.833-.193 2.734-.578v1.155c-.458.198-.892.34-1.3.426s-.904.13-1.482.13zm-.352-7.79c-.688 0-1.235.225-1.645.673s-.65 1.068-.723 1.86h4.477c0-.82-.182-1.445-.546-1.88s-.885-.652-1.562-.652zM363.062 140.594v-5.54c0-.697-.16-1.218-.477-1.56s-.815-.517-1.492-.517c-.896 0-1.552.242-1.97.727s-.624 1.284-.624 2.398v4.492H357.2v-8.562h1.055l.21 1.172h.063c.266-.422.638-.75 1.117-.98s1.013-.348 1.602-.348c1.03 0 1.807.25 2.327.746s.78 1.293.78 2.387v5.585h-1.295zM370.64 140.75c-1.265 0-2.264-.385-2.995-1.156s-1.098-1.84-1.098-3.21c0-1.38.34-2.478 1.02-3.29s1.593-1.22 2.738-1.22c1.073 0 1.922.354 2.547 1.06s.938 1.637.938 2.793v.82h-5.898c.026 1.005.28 1.768.762 2.29s1.16.78 2.035.78c.92 0 1.832-.193 2.733-.578v1.155c-.458.198-.892.34-1.3.426s-.904.13-1.482.13zm-.35-7.79c-.69 0-1.236.225-1.646.673s-.65 1.068-.723 1.86h4.478c0-.82-.183-1.445-.547-1.88s-.884-.652-1.56-.652zM379.906 131.875c.38 0 .722.03 1.023.094l-.18 1.202c-.355-.078-.668-.117-.94-.117-.69 0-1.284.28-1.776.844s-.738 1.262-.738 2.1v4.595H376v-8.562h1.07l.148 1.586h.062c.317-.558.7-.988 1.148-1.29s.942-.455 1.478-.455zM389.54 132.03v.82l-1.587.19c.146.18.276.42.39.714s.173.626.173.996c0 .838-.286 1.508-.86 2.008s-1.358.75-2.358.75c-.255 0-.495-.02-.72-.062-.55.292-.827.66-.827 1.102 0 .234.098.408.29.52s.523.168.992.168h1.516c.927 0 1.64.195 2.137.586s.746.958.746 1.703c0 .948-.38 1.67-1.14 2.168s-1.87.746-3.328.746c-1.12 0-1.983-.21-2.59-.626s-.91-1.005-.91-1.766c0-.52.167-.97.5-1.352s.802-.638 1.406-.773c-.22-.1-.402-.252-.55-.46s-.224-.452-.224-.728c0-.312.083-.586.25-.82s.43-.46.79-.68c-.443-.182-.805-.492-1.083-.93s-.417-.938-.417-1.5c0-.938.28-1.66.844-2.168s1.36-.762 2.39-.762c.45 0 .853.052 1.212.156h2.96zm-6.83 10c0 .464.196.816.587 1.056s.95.36 1.68.36c1.09 0 1.895-.164 2.418-.49s.785-.766.785-1.323c0-.463-.144-.785-.43-.965s-.825-.27-1.617-.27h-1.555c-.59 0-1.047.14-1.375.422s-.492.685-.492 1.21zm.704-7.257c0 .6.17 1.052.508 1.36s.81.46 1.414.46c1.266 0 1.898-.615 1.898-1.844 0-1.288-.64-1.93-1.922-1.93-.61 0-1.078.163-1.406.49s-.492.818-.492 1.463zM389.938 132.03h1.39l1.876 4.884c.41 1.115.667 1.92.766 2.414h.062c.067-.266.21-.72.426-1.363s.923-2.62 2.12-5.934h1.392l-3.68 9.75c-.364.964-.79 1.648-1.277 2.052s-1.085.605-1.793.605c-.396 0-.786-.044-1.172-.133v-1.04c.286.063.606.095.96.095.892 0 1.527-.5 1.907-1.5l.477-1.22-3.454-8.61z"/></g><g fill="#0064C8"><path d="M236.425 52.198c-1.24 0-2.2-.38-2.88-1.145s-1.02-1.842-1.02-3.238c0-1.432.346-2.54 1.036-3.32s1.674-1.172 2.95-1.172c.41 0 .823.044 1.234.133s.734.193.97.312l-.4 1.102c-.285-.115-.598-.21-.937-.285s-.638-.113-.898-.113c-1.74 0-2.61 1.11-2.61 3.328 0 1.052.212 1.86.637 2.422s1.054.844 1.887.844c.714 0 1.445-.154 2.195-.46v1.147c-.574.296-1.295.445-2.165.445zM245.886 52.042l-.258-1.22h-.062c-.427.538-.853.9-1.277 1.09s-.955.286-1.59.286c-.85 0-1.516-.22-1.997-.656s-.723-1.06-.723-1.867c0-1.73 1.383-2.635 4.148-2.72l1.453-.046v-.532c0-.672-.144-1.168-.433-1.488s-.75-.48-1.387-.48c-.714 0-1.52.22-2.422.656l-.398-.992c.422-.23.884-.41 1.387-.54s1.007-.194 1.512-.194c1.02 0 1.776.227 2.27.68s.737 1.18.737 2.18v5.844h-.96zm-2.93-.914c.808 0 1.44-.22 1.902-.664s.69-1.062.69-1.86v-.772l-1.296.055c-1.03.037-1.774.197-2.23.48s-.684.725-.684 1.324c0 .47.142.827.426 1.07s.68.368 1.192.368zM252.284 51.128c.23 0 .45-.017.664-.05s.383-.07.508-.106v.992c-.14.068-.348.124-.62.168s-.52.066-.74.066c-1.655 0-2.483-.873-2.483-2.617v-5.093h-1.227v-.625l1.227-.54.547-1.827h.75v1.984h2.484v1.007h-2.484v5.04c0 .515.122.91.367 1.187s.58.414 1.007.414zM260.433 52.042l-.258-1.22h-.062c-.427.538-.853.9-1.277 1.09s-.954.286-1.59.286c-.85 0-1.515-.22-1.996-.656s-.723-1.06-.723-1.867c0-1.73 1.383-2.635 4.148-2.72l1.453-.046v-.532c0-.672-.145-1.168-.434-1.488s-.75-.48-1.387-.48c-.714 0-1.52.22-2.422.656l-.398-.992c.422-.23.884-.41 1.387-.54s1.007-.194 1.512-.194c1.02 0 1.777.227 2.27.68s.738 1.18.738 2.18v5.844h-.96zm-2.93-.914c.808 0 1.44-.22 1.902-.664s.69-1.062.69-1.86v-.772l-1.296.055c-1.032.037-1.775.197-2.23.48s-.685.725-.685 1.324c0 .47.142.827.426 1.07s.682.368 1.193.368zM265.362 52.042h-1.297V39.885h1.297v12.157zM266.753 43.48h1.39l1.876 4.882c.41 1.115.666 1.92.765 2.414h.062c.067-.266.21-.72.426-1.363s.923-2.62 2.12-5.934h1.392l-3.68 9.75c-.364.962-.79 1.646-1.277 2.05s-1.085.605-1.793.605c-.396 0-.786-.044-1.172-.133v-1.04c.286.063.606.095.96.095.892 0 1.527-.5 1.907-1.5l.477-1.22-3.454-8.608zM281.698 49.706c0 .797-.297 1.412-.89 1.844s-1.428.648-2.5.648c-1.137 0-2.022-.18-2.657-.54v-1.202c.412.208.854.373 1.325.492s.926.18 1.363.18c.677 0 1.198-.108 1.562-.324s.547-.545.547-.988c0-.333-.145-.62-.434-.855s-.853-.516-1.69-.84c-.798-.296-1.364-.555-1.7-.776s-.586-.473-.75-.754-.246-.617-.246-1.008c0-.698.284-1.25.852-1.652s1.346-.605 2.335-.605c.922 0 1.823.188 2.703.562l-.46 1.055c-.86-.354-1.64-.53-2.337-.53-.613 0-1.077.095-1.39.288s-.47.458-.47.797c0 .23.06.424.177.586s.306.315.566.46.76.358 1.5.634c1.016.37 1.702.742 2.06 1.117s.535.844.535 1.412zM287.425 52.198c-1.266 0-2.265-.385-2.996-1.156s-1.1-1.84-1.1-3.21c0-1.38.34-2.478 1.02-3.29s1.594-1.22 2.74-1.22c1.072 0 1.92.354 2.546 1.06s.938 1.637.938 2.793v.82h-5.898c.026 1.005.28 1.768.762 2.29s1.16.78 2.035.78c.922 0 1.833-.193 2.734-.578v1.156c-.458.198-.892.34-1.3.426s-.904.128-1.482.128zm-.352-7.79c-.688 0-1.235.225-1.645.673s-.65 1.07-.723 1.86h4.477c0-.818-.183-1.444-.547-1.88s-.885-.65-1.562-.65zM298.612 50.893h-.07c-.6.87-1.495 1.305-2.688 1.305-1.12 0-1.99-.383-2.613-1.148s-.933-1.854-.933-3.266.312-2.508.938-3.29 1.495-1.17 2.61-1.17c1.16 0 2.05.42 2.67 1.265h.103l-.055-.618-.03-.602v-3.484h1.296v12.156h-1.056l-.172-1.15zm-2.593.22c.885 0 1.526-.242 1.925-.724s.598-1.26.598-2.333v-.273c0-1.213-.202-2.08-.605-2.598s-1.048-.777-1.934-.777c-.76 0-1.343.294-1.746.886s-.605 1.426-.605 2.504c0 1.094.2 1.92.602 2.477s.987.835 1.764.835zM236.91 71.597l-.26-1.22h-.06c-.428.538-.854.9-1.278 1.09s-.954.286-1.59.286c-.85 0-1.515-.22-1.996-.656s-.723-1.06-.723-1.867c0-1.73 1.383-2.635 4.148-2.72l1.454-.046v-.53c0-.673-.145-1.17-.434-1.49s-.75-.48-1.387-.48c-.714 0-1.52.22-2.422.657l-.397-.99c.422-.23.884-.41 1.387-.54s1.007-.195 1.512-.195c1.02 0 1.777.227 2.27.68s.738 1.18.738 2.18V71.6h-.96zm-2.93-.914c.807 0 1.44-.22 1.9-.664s.692-1.063.692-1.86v-.773l-1.297.055c-1.03.037-1.774.197-2.23.48s-.684.725-.684 1.324c0 .47.143.826.427 1.07s.682.367 1.192.367zM243.964 71.753c-1.24 0-2.2-.38-2.88-1.145s-1.02-1.842-1.02-3.238c0-1.432.346-2.54 1.036-3.32s1.673-1.172 2.95-1.172c.41 0 .822.044 1.233.133s.734.194.97.313l-.4 1.102c-.285-.115-.598-.21-.937-.285s-.638-.113-.898-.113c-1.74 0-2.61 1.11-2.61 3.328 0 1.052.213 1.86.638 2.422s1.054.844 1.887.844c.714 0 1.445-.153 2.195-.46v1.148c-.573.297-1.294.445-2.164.445zM250.925 70.683c.23 0 .45-.017.664-.05s.382-.07.507-.106v.992c-.14.067-.348.123-.62.167s-.52.066-.74.066c-1.655 0-2.483-.873-2.483-2.617v-5.094h-1.227v-.625l1.227-.54.547-1.827h.75v1.984h2.485v1.008h-2.484v5.04c0 .515.123.91.368 1.187s.58.413 1.007.413zM253.698 60.714c0-.297.073-.515.22-.652.145-.138.327-.207.546-.207.208 0 .388.07.54.21s.226.357.226.65c0 .29-.075.508-.227.65-.15.144-.33.216-.54.216-.218 0-.4-.07-.546-.214-.146-.143-.22-.36-.22-.652zm1.406 10.883h-1.297v-8.562h1.297v8.562zM259.73 71.597l-3.25-8.562h1.39l1.844 5.078c.417 1.188.66 1.958.734 2.312h.062c.058-.276.238-.848.543-1.715s.988-2.76 2.05-5.676h1.392l-3.25 8.562h-1.516zM271.136 71.597l-.258-1.22h-.062c-.427.538-.853.9-1.277 1.09s-.955.286-1.59.286c-.85 0-1.516-.22-1.997-.656s-.723-1.06-.723-1.867c0-1.73 1.383-2.635 4.148-2.72l1.453-.046v-.53c0-.673-.144-1.17-.433-1.49s-.75-.48-1.387-.48c-.714 0-1.52.22-2.422.657l-.398-.99c.422-.23.884-.41 1.387-.54s1.007-.195 1.512-.195c1.02 0 1.776.227 2.27.68s.737 1.18.737 2.18V71.6h-.96zm-2.93-.914c.808 0 1.44-.22 1.902-.664s.69-1.063.69-1.86v-.773l-1.296.055c-1.03.037-1.774.197-2.23.48s-.684.725-.684 1.324c0 .47.142.826.426 1.07s.68.367 1.192.367zM277.534 70.683c.23 0 .45-.017.664-.05s.383-.07.508-.106v.992c-.14.067-.348.123-.62.167s-.52.066-.74.066c-1.655 0-2.483-.873-2.483-2.617v-5.094h-1.227v-.625l1.227-.54.547-1.827h.75v1.984h2.484v1.008h-2.484v5.04c0 .515.122.91.367 1.187s.58.413 1.007.413zM280.308 60.714c0-.297.073-.515.22-.652.145-.138.327-.207.546-.207.208 0 .388.07.54.21s.226.357.226.65c0 .29-.075.508-.227.65-.15.144-.33.216-.54.216-.218 0-.4-.07-.546-.214-.146-.143-.22-.36-.22-.652zm1.406 10.883h-1.297v-8.562h1.297v8.562zM291.854 67.308c0 1.396-.352 2.486-1.055 3.27s-1.676 1.176-2.915 1.176c-.766 0-1.445-.18-2.04-.54s-1.05-.874-1.374-1.546-.483-1.458-.483-2.36c0-1.395.35-2.482 1.047-3.26s1.667-1.17 2.906-1.17c1.198 0 2.15.4 2.855 1.196s1.06 1.875 1.06 3.234zm-6.523 0c0 1.094.22 1.927.657 2.5s1.08.86 1.93.86 1.493-.286 1.934-.856.66-1.405.66-2.504c0-1.088-.22-1.916-.66-2.48s-1.09-.848-1.948-.848c-.85 0-1.49.28-1.922.836s-.65 1.388-.65 2.492zM299.987 71.597v-5.54c0-.697-.16-1.218-.477-1.56s-.815-.517-1.492-.517c-.896 0-1.552.242-1.97.727s-.624 1.284-.624 2.398v4.492h-1.297v-8.562h1.055l.21 1.172h.063c.266-.422.638-.75 1.117-.98s1.013-.348 1.602-.348c1.03 0 1.808.248 2.328.745s.78 1.293.78 2.387v5.586h-1.295zM245.847 91.31c-1.266 0-2.265-.385-2.996-1.156s-1.097-1.84-1.097-3.21c0-1.38.34-2.478 1.02-3.29s1.593-1.22 2.738-1.22c1.074 0 1.923.354 2.548 1.06s.938 1.637.938 2.793v.82h-5.898c.026 1.005.28 1.768.762 2.29s1.16.78 2.035.78c.922 0 1.833-.193 2.734-.578v1.155c-.46.198-.893.34-1.302.426s-.903.13-1.48.13zm-.352-7.79c-.688 0-1.235.225-1.645.673s-.65 1.068-.723 1.86h4.477c0-.82-.183-1.445-.547-1.88s-.885-.652-1.562-.652zM257.065 91.153v-5.54c0-.697-.16-1.218-.477-1.56s-.815-.517-1.492-.517c-.896 0-1.552.242-1.97.727s-.624 1.284-.624 2.398v4.493h-1.297V82.59h1.055l.21 1.173h.063c.266-.422.638-.75 1.117-.98s1.013-.348 1.602-.348c1.03 0 1.808.25 2.328.746s.78 1.294.78 2.388v5.586h-1.295zM264.644 91.31c-1.266 0-2.265-.385-2.996-1.156s-1.098-1.84-1.098-3.21c0-1.38.34-2.478 1.02-3.29s1.593-1.22 2.738-1.22c1.073 0 1.922.354 2.547 1.06s.938 1.637.938 2.793v.82h-5.898c.026 1.005.28 1.768.762 2.29s1.16.78 2.035.78c.922 0 1.833-.193 2.734-.578v1.155c-.458.198-.892.34-1.3.426s-.904.13-1.482.13zm-.352-7.79c-.688 0-1.235.225-1.645.673s-.65 1.068-.723 1.86h4.477c0-.82-.182-1.445-.546-1.88s-.885-.652-1.562-.652zM273.91 82.435c.38 0 .72.03 1.022.094l-.18 1.202c-.354-.078-.667-.117-.938-.117-.692 0-1.285.28-1.777.844s-.738 1.262-.738 2.1v4.595H270v-8.562h1.07l.148 1.586h.062c.317-.558.7-.988 1.148-1.29s.943-.455 1.48-.455zM283.542 82.59v.82l-1.586.19c.146.18.276.42.39.714s.173.626.173.996c0 .838-.287 1.508-.86 2.008s-1.36.75-2.36.75c-.254 0-.494-.02-.718-.062-.552.292-.828.66-.828 1.102 0 .234.097.408.29.52s.522.168.99.168h1.517c.928 0 1.64.195 2.138.586s.746.958.746 1.703c0 .948-.38 1.67-1.14 2.168s-1.87.746-3.33.746c-1.12 0-1.982-.21-2.59-.626s-.91-1.005-.91-1.766c0-.52.168-.97.5-1.352s.803-.638 1.407-.773c-.218-.1-.4-.252-.55-.46s-.223-.452-.223-.728c0-.312.083-.586.25-.82s.43-.46.79-.68c-.443-.182-.805-.492-1.083-.93s-.418-.938-.418-1.5c0-.938.28-1.66.844-2.168s1.36-.762 2.39-.762c.45 0 .853.052 1.212.156h2.96zm-6.828 10c0 .464.195.816.586 1.056s.95.36 1.68.36c1.09 0 1.895-.164 2.418-.49s.785-.766.785-1.323c0-.463-.144-.785-.43-.965s-.825-.27-1.617-.27h-1.555c-.588 0-1.046.14-1.374.422s-.492.685-.492 1.21zm.703-7.257c0 .6.17 1.052.508 1.36s.81.46 1.414.46c1.265 0 1.897-.615 1.897-1.844 0-1.288-.64-1.93-1.922-1.93-.61 0-1.078.163-1.406.49s-.493.817-.493 1.463zM283.94 82.59h1.39l1.876 4.884c.41 1.115.667 1.92.766 2.414h.062c.067-.266.21-.72.426-1.363s.923-2.62 2.12-5.934h1.392l-3.68 9.75c-.364.964-.79 1.648-1.277 2.052s-1.085.605-1.793.605c-.396 0-.786-.044-1.172-.133v-1.04c.286.063.606.095.96.095.892 0 1.527-.5 1.907-1.5l.477-1.22-3.454-8.61z"/></g><path stroke="#222221" fill="none" d="M54.748 19.077V236.98h367.14"/><path fill="#222221" d="M51.843 21.06l2.903-10.842 2.907 10.84zM419.907 239.886l10.84-2.904-10.84-2.907z"/><g fill="#0064C8"><path d="M237.703 244.097l-.396-.036c.036-.306.055-.594.055-.827 0-1.08-.63-1.314-3.457-1.314-1.026 0-1.207.07-1.314.467l-1.187 4.195h1.404c1.62 0 1.818-.216 2.503-1.746l.324.07-1.225 4.18-.36-.09c.09-.397.125-.613.125-.938 0-.306-.036-.468-.126-.56-.2-.18-.686-.27-1.405-.27h-1.404l-.575 2.018c-.45 1.584-.648 2.412-.648 2.63 0 .43.414.61 1.423.61 1.764 0 2.736-.216 3.654-.7.576-.308 1.01-.812 1.693-1.766l.287.144-1.116 2.917h-9.128v-.287c1.008-.18 1.17-.288 1.458-1.332l2.215-7.958c.107-.36.198-.936.198-1.152 0-.486-.27-.63-1.386-.738v-.288h8.948l-.56 2.773zM241.14 241.485c.233-.54.413-.72.81-.72.342 0 .52.216.52.576 0 .253-.16.487-.34.74l-2.36 3.42-.306-.198 1.675-3.817zM242.484 258.676c-.315.4-.588.504-.945.504-.39 0-.62-.21-.673-.766h-.01c-.557.63-1.07.766-1.523.766-.65 0-1.102-.398-1.102-1.092 0-.545.325-.955.734-1.228.315-.21.703-.41 1.89-.85v-.567c0-.65-.347-.945-.818-.945-.42 0-.735.23-.735.515 0 .188.063.22.063.44 0 .2-.21.43-.483.43-.22 0-.45-.198-.45-.482 0-.27.167-.607.534-.84.294-.187.735-.313 1.207-.313.588 0 .987.168 1.24.473s.293.524.293 1.165v2.005c0 .483.137.693.325.693.168 0 .273-.053.452-.2v.293zm-1.628-2.414c-.65.23-1.08.45-1.344.693-.252.23-.356.482-.356.808 0 .557.314.81.725.81.21 0 .43-.054.61-.17.304-.21.366-.355.366-.66v-1.48z"/></g><g fill="#222221"><path d="M23.96 189.955v1.516l-9.585 6.243v.062c1.125-.083 2.156-.125 3.094-.125h6.49v1.227H12.54v-1.5l9.546-6.227v-.062c-.14.01-.592.034-1.355.07s-1.308.05-1.636.04H12.54v-1.243h11.42zM15.398 185.79h5.555c.698 0 1.22-.158 1.562-.476s.516-.815.516-1.492c0-.896-.244-1.55-.733-1.965s-1.29-.62-2.398-.62h-4.5v-1.298h8.56v1.07l-1.147.187v.07c.422.266.745.634.97 1.105s.335 1.01.335 1.613c0 1.042-.248 1.82-.742 2.34s-1.287.777-2.375.777h-5.6v-1.31zM23.96 166.276h-5.57c-.68 0-1.193.146-1.534.438-.34.292-.512.745-.512 1.36 0 .806.232 1.403.695 1.788s1.176.578 2.14.578h4.78v1.297h-5.57c-.68 0-1.193.146-1.534.437-.34.292-.512.748-.512 1.367 0 .813.244 1.41.73 1.786.487.378 1.285.566 2.395.566h4.49v1.297H15.4v-1.056l1.17-.21v-.063c-.416-.243-.74-.59-.976-1.034s-.352-.943-.352-1.496c0-1.338.484-2.213 1.453-2.625v-.062c-.448-.255-.802-.625-1.062-1.11s-.39-1.036-.39-1.655c0-.97.248-1.694.745-2.176.498-.482 1.293-.723 2.387-.723h5.586v1.296zM15.258 158.323c0-1.125.384-2 1.152-2.62.768-.624 1.855-.935 3.262-.935s2.5.314 3.277.94 1.167 1.5 1.167 2.614c0 .557-.103 1.066-.31 1.527s-.52.847-.948 1.16v.093l1.1.273v.93H11.806v-1.297h2.953c.662 0 1.255.02 1.78.06v-.06c-.853-.604-1.28-1.5-1.28-2.687zm1.086.187c0 .885.254 1.523.762 1.914s1.363.586 2.566.586 2.064-.2 2.582-.602.777-1.044.777-1.93c0-.797-.29-1.39-.87-1.78s-1.416-.587-2.504-.587c-1.115 0-1.945.196-2.492.587s-.82.995-.82 1.813zM24.117 148.885c0 1.266-.385 2.264-1.156 2.996s-1.84 1.1-3.21 1.1c-1.38 0-2.477-.34-3.29-1.02-.81-.68-1.218-1.593-1.218-2.74 0-1.072.353-1.92 1.06-2.546.705-.625 1.636-.938 2.792-.938h.82v5.898c1.005-.026 1.768-.28 2.29-.762s.78-1.16.78-2.035c0-.922-.193-1.833-.578-2.734h1.156c.198.458.34.892.426 1.3s.13.904.13 1.482zm-7.79.352c0 .688.225 1.236.673 1.645s1.068.65 1.86.723v-4.477c-.82 0-1.445.182-1.88.547s-.652.885-.652 1.562zM15.242 139.62c0-.38.03-.72.094-1.023l1.203.18c-.08.354-.118.667-.118.938 0 .693.28 1.285.844 1.777s1.263.738 2.102.738h4.594v1.297H15.4v-1.07l1.586-.148v-.063c-.557-.318-.987-.7-1.29-1.148s-.454-.944-.454-1.48zM19.672 125.448c1.396 0 2.486.352 3.27 1.055s1.176 1.674 1.176 2.914c0 .766-.18 1.445-.54 2.04s-.874 1.05-1.546 1.374-1.458.485-2.36.485c-1.395 0-2.482-.35-3.26-1.047-.78-.698-1.17-1.667-1.17-2.906 0-1.198.4-2.15 1.196-2.855.796-.706 1.874-1.06 3.234-1.06zm0 6.523c1.094 0 1.927-.218 2.5-.655s.86-1.08.86-1.93-.286-1.494-.856-1.934-1.405-.66-2.504-.66c-1.088 0-1.916.22-2.48.66s-.848 1.09-.848 1.95c0 .85.28 1.49.836 1.922s1.388.65 2.492.65zM16.406 119.315v2.18h7.555v1.297h-7.554v1.53h-.586l-.47-1.53h-.476c-2.104 0-3.156-.92-3.156-2.758 0-.453.09-.984.273-1.594l1.04.336c-.162.5-.242.927-.242 1.28 0 .49.163.853.488 1.087.325.234.848.352 1.566.352h.555v-2.18h1.01zM24.117 110.174c0 1.24-.38 2.2-1.145 2.88s-1.842 1.02-3.238 1.02c-1.432 0-2.54-.346-3.32-1.036-.78-.69-1.172-1.673-1.172-2.95 0-.41.044-.822.133-1.233s.193-.734.312-.97l1.102.4c-.116.286-.21.598-.286.937s-.113.638-.113.898c0 1.74 1.11 2.61 3.33 2.61 1.05 0 1.858-.213 2.42-.638s.845-1.053.845-1.887c0-.713-.154-1.445-.46-2.195h1.147c.297.573.445 1.295.445 2.164zM19.672 98.588c1.396 0 2.486.352 3.27 1.055s1.176 1.674 1.176 2.914c0 .766-.18 1.445-.54 2.04s-.874 1.05-1.546 1.374-1.458.485-2.36.485c-1.395 0-2.482-.35-3.26-1.047-.78-.698-1.17-1.667-1.17-2.906 0-1.198.4-2.15 1.196-2.855.796-.706 1.874-1.06 3.234-1.06zm0 6.524c1.094 0 1.927-.22 2.5-.656s.86-1.08.86-1.93-.286-1.494-.856-1.934-1.405-.66-2.504-.66c-1.088 0-1.916.22-2.48.66s-.848 1.09-.848 1.95c0 .848.28 1.49.836 1.92s1.388.65 2.492.65zM23.96 95.018v1.297H11.806v-1.297H23.96zM23.96 90.97v1.298H11.806V90.97H23.96zM13.078 88.33c-.297 0-.515-.072-.652-.218-.138-.146-.207-.328-.207-.547 0-.208.07-.388.21-.54s.356-.226.648-.226c.292 0 .51.075.652.226.143.15.215.33.215.54 0 .218-.072.4-.215.546-.143.146-.36.22-.652.22zm10.883-1.406v1.297H15.4v-1.296h8.56zM21.625 78.65c.797 0 1.412.298 1.844.892s.647 1.427.647 2.5c0 1.135-.18 2.02-.54 2.656h-1.202c.208-.412.373-.853.492-1.324s.18-.926.18-1.363c0-.676-.108-1.197-.324-1.56s-.545-.548-.988-.548c-.333 0-.62.145-.855.434s-.517.853-.84 1.69c-.297.798-.556 1.364-.777 1.7s-.473.586-.754.75-.618.246-1.01.246c-.697 0-1.248-.284-1.65-.852-.405-.568-.606-1.346-.606-2.336 0-.922.188-1.823.562-2.703l1.055.462c-.353.86-.53 1.638-.53 2.336 0 .615.096 1.078.29 1.39s.457.47.796.47c.23 0 .424-.06.586-.176s.315-.306.46-.566.358-.76.634-1.5c.37-1.016.742-1.702 1.117-2.06s.844-.535 1.412-.535zM13.078 76.65c-.297 0-.515-.072-.652-.218-.138-.146-.207-.328-.207-.547 0-.208.07-.388.21-.54s.356-.226.648-.226c.292 0 .51.075.652.226.143.15.215.33.215.54 0 .218-.072.4-.215.546-.143.146-.36.22-.652.22zm10.883-1.405v1.297H15.4v-1.297h8.56zM19.672 65.104c1.396 0 2.486.352 3.27 1.055s1.176 1.673 1.176 2.913c0 .766-.18 1.445-.54 2.04s-.874 1.05-1.546 1.374-1.458.484-2.36.484c-1.395 0-2.482-.348-3.26-1.046-.78-.698-1.17-1.667-1.17-2.906 0-1.198.4-2.15 1.196-2.855.796-.706 1.874-1.06 3.234-1.06zm0 6.524c1.094 0 1.927-.22 2.5-.656s.86-1.08.86-1.93-.286-1.494-.856-1.934-1.405-.66-2.504-.66c-1.088 0-1.916.22-2.48.66s-.848 1.09-.848 1.95c0 .848.28 1.49.836 1.92s1.388.65 2.492.65zM23.96 56.97h-5.538c-.698 0-1.22.16-1.562.478s-.516.815-.516 1.492c0 .896.242 1.552.727 1.97s1.285.624 2.4.624h4.49v1.297H15.4v-1.054l1.17-.21v-.063c-.42-.266-.748-.638-.98-1.117s-.347-1.013-.347-1.602c0-1.03.25-1.807.746-2.328.497-.52 1.292-.78 2.386-.78h5.586v1.295zM21.625 47.487c.797 0 1.412.297 1.844.89s.647 1.428.647 2.5c0 1.136-.18 2.022-.54 2.657h-1.202c.208-.412.373-.853.492-1.324s.18-.926.18-1.363c0-.677-.108-1.198-.324-1.562s-.545-.547-.988-.547c-.333 0-.62.145-.855.434s-.517.853-.84 1.69c-.297.798-.556 1.364-.777 1.7s-.473.586-.754.75-.618.246-1.01.246c-.697 0-1.248-.284-1.65-.852-.405-.568-.606-1.346-.606-2.336 0-.922.188-1.823.562-2.703l1.055.46c-.353.86-.53 1.64-.53 2.337 0 .615.096 1.078.29 1.39s.457.47.796.47c.23 0 .424-.06.586-.176s.315-.306.46-.566.358-.76.634-1.5c.37-1.016.742-1.702 1.117-2.06s.844-.535 1.412-.535zM41.74 187.275l-5.024 1.57c-.307.1-1.005.284-2.094.555v.062c.912.208 1.615.39 2.11.547l5.007 1.616v1.5l-8.563 2.336v-1.36c2.15-.55 3.79-.972 4.914-1.26s1.884-.455 2.274-.497v-.062c-.297-.058-.68-.15-1.152-.277s-.845-.238-1.12-.332l-4.915-1.57v-1.406l4.914-1.53c.897-.293 1.65-.49 2.26-.595v-.062c-.19-.02-.478-.076-.868-.167s-2.492-.634-6.305-1.63v-1.343l8.562 2.367v1.538zM30.856 181.932c-.297 0-.515-.073-.652-.22-.138-.145-.207-.327-.207-.546 0-.208.07-.388.21-.54s.357-.226.65-.226c.29 0 .508.075.65.227.144.15.216.33.216.54 0 .218-.072.4-.215.546-.143.145-.36.22-.652.22zm10.883-1.407v1.297h-8.563v-1.297h8.562zM40.825 175.01c0-.23-.017-.45-.05-.664-.035-.213-.07-.383-.106-.508h.99c.07.14.125.348.17.62s.065.52.065.74c0 1.655-.873 2.483-2.617 2.483h-5.094v1.228h-.625l-.54-1.227-1.828-.546v-.75h1.984V173.9h1.008v2.484h5.04c.515 0 .91-.122 1.187-.367.277-.244.415-.58.415-1.007zM41.74 166.268H36.2c-.698 0-1.22.16-1.562.477s-.516.815-.516 1.492c0 .9.245 1.56.734 1.973s1.292.62 2.406.62h4.477v1.297H29.582v-1.296h3.68c.443 0 .81.022 1.102.063v-.078c-.412-.255-.736-.62-.973-1.09s-.355-1.01-.355-1.613c0-1.047.25-1.832.746-2.355s1.288-.785 2.37-.785h5.587v1.296zM41.74 152.885l-1.22.258v.062c.537.427.9.853 1.09 1.277s.285.955.285 1.59c0 .85-.22 1.514-.656 1.996s-1.06.723-1.868.723c-1.73 0-2.635-1.382-2.72-4.147l-.046-1.453h-.53c-.673 0-1.17.145-1.49.434s-.48.75-.48 1.387c0 .714.22 1.522.657 2.423l-.992.398c-.228-.42-.408-.883-.538-1.386s-.195-1.006-.195-1.512c0-1.02.227-1.777.68-2.27s1.18-.738 2.18-.738h5.844v.96zm-.915 2.93c0-.807-.22-1.44-.664-1.902s-1.06-.69-1.858-.69h-.773l.054 1.296c.037 1.03.197 1.774.48 2.23s.725.683 1.324.683c.47 0 .826-.142 1.07-.426s.367-.682.367-1.192zM33.176 138.088h.82l.188 1.586c.182-.146.42-.276.715-.39s.625-.173.995-.173c.838 0 1.508.288 2.008.86s.75 1.36.75 2.36c0 .254-.02.494-.062.718.293.552.66.828 1.103.828.234 0 .408-.096.52-.29s.168-.522.168-.99v-1.517c0-.928.196-1.64.587-2.138s.958-.746 1.703-.746c.948 0 1.67.38 2.168 1.14s.746 1.87.746 3.33c0 1.12-.208 1.982-.625 2.59s-1.006.91-1.767.91c-.52 0-.97-.168-1.352-.5s-.637-.803-.772-1.407c-.1.218-.252.4-.46.55s-.452.223-.728.223c-.312 0-.586-.083-.82-.25s-.46-.43-.68-.79c-.182.444-.492.804-.93 1.083s-.938.418-1.5.418c-.938 0-1.66-.28-2.168-.844s-.762-1.36-.762-2.39c0-.45.052-.853.156-1.212v-2.96zm2.742 6.125c.6 0 1.052-.17 1.36-.508s.46-.81.46-1.414c0-1.265-.615-1.897-1.844-1.897-1.287 0-1.93.64-1.93 1.922 0 .61.164 1.078.492 1.406s.816.493 1.462.493zm7.258.704c.463 0 .815-.195 1.055-.586s.36-.95.36-1.68c0-1.087-.163-1.894-.488-2.417s-.767-.785-1.324-.785c-.463 0-.785.143-.965.43s-.27.826-.27 1.617v1.555c0 .588.14 1.047.422 1.375s.685.492 1.21.492zM30.856 136.44c-.297 0-.515-.073-.652-.22-.138-.145-.207-.327-.207-.546 0-.208.07-.388.21-.54s.357-.226.65-.226c.29 0 .508.076.65.227.144.15.216.33.216.54 0 .218-.072.4-.215.546-.143.147-.36.22-.652.22zm10.883-1.406v1.297h-8.563v-1.296h8.562zM41.74 130.41l-8.563 3.25v-1.392l5.078-1.844c1.188-.417 1.958-.662 2.312-.734v-.062c-.276-.057-.848-.238-1.715-.543s-2.76-.988-5.676-2.05v-1.392l8.562 3.25v1.516zM41.895 120.65c0 1.267-.385 2.265-1.156 2.997s-1.842 1.098-3.212 1.098c-1.38 0-2.477-.34-3.29-1.02s-1.218-1.592-1.218-2.738c0-1.073.353-1.922 1.06-2.547s1.636-.938 2.792-.938h.82v5.898c1.005-.026 1.768-.28 2.29-.762s.78-1.16.78-2.035c0-.922-.193-1.833-.578-2.734h1.156c.198.457.34.89.426 1.3s.13.903.13 1.48zm-7.79.353c0 .688.225 1.236.673 1.645s1.068.65 1.86.723v-4.476c-.82 0-1.445.182-1.88.547s-.652.885-.652 1.563zM41.74 109.432H36.2c-.698 0-1.22.16-1.562.477s-.516.814-.516 1.49c0 .897.242 1.553.727 1.97s1.283.625 2.397.625h4.492v1.297h-8.563v-1.055l1.172-.21v-.063c-.423-.266-.75-.638-.98-1.117s-.35-1.013-.35-1.602c0-1.03.25-1.807.747-2.328s1.293-.78 2.387-.78h5.586v1.295zM41.895 97.698c0 1.266-.385 2.264-1.156 2.996s-1.842 1.098-3.212 1.098c-1.38 0-2.477-.34-3.29-1.02s-1.218-1.592-1.218-2.738c0-1.073.353-1.922 1.06-2.547s1.636-.938 2.792-.938h.82v5.897c1.005-.026 1.768-.28 2.29-.762s.78-1.16.78-2.035c0-.922-.193-1.833-.578-2.734h1.156c.198.458.34.892.426 1.3s.13.904.13 1.482zm-7.79.35c0 .69.225 1.237.673 1.646s1.068.65 1.86.723V95.94c-.82 0-1.445.182-1.88.547s-.652.885-.652 1.562zM41.74 86.48H36.2c-.698 0-1.22.158-1.562.476s-.516.815-.516 1.492c0 .896.242 1.552.727 1.97s1.283.624 2.397.624h4.492v1.297h-8.563v-1.056l1.172-.21v-.064c-.423-.266-.75-.638-.98-1.117s-.35-1.013-.35-1.602c0-1.03.25-1.806.747-2.327s1.293-.78 2.387-.78h5.586v1.296zM41.895 78.9c0 1.267-.385 2.265-1.156 2.997s-1.842 1.098-3.212 1.098c-1.38 0-2.477-.34-3.29-1.02s-1.218-1.592-1.218-2.738c0-1.073.353-1.922 1.06-2.547s1.636-.938 2.792-.938h.82v5.898c1.005-.026 1.768-.28 2.29-.762s.78-1.16.78-2.035c0-.922-.193-1.833-.578-2.734h1.156c.198.457.34.89.426 1.3s.13.903.13 1.48zm-7.79.353c0 .688.225 1.236.673 1.645s1.068.65 1.86.723v-4.476c-.82 0-1.445.182-1.88.547s-.652.885-.652 1.563zM33.02 69.635c0-.38.03-.72.094-1.023l1.203.18c-.078.354-.117.667-.117.938 0 .693.28 1.285.844 1.777s1.263.738 2.102.738h4.594v1.297h-8.562v-1.07l1.586-.148v-.064c-.557-.318-.987-.7-1.29-1.148s-.454-.94-.454-1.477zM33.176 60.003h.82l.188 1.586c.182-.147.42-.277.715-.392s.625-.172.995-.172c.838 0 1.508.287 2.008.86s.75 1.358.75 2.358c0 .255-.02.495-.062.72.293.55.66.827 1.103.827.234 0 .408-.095.52-.288s.168-.523.168-.992v-1.516c0-.927.196-1.64.587-2.137s.958-.746 1.703-.746c.948 0 1.67.38 2.168 1.142s.746 1.87.746 3.328c0 1.12-.208 1.983-.625 2.59s-1.006.91-1.767.91c-.52 0-.97-.167-1.352-.5s-.637-.802-.772-1.406c-.1.22-.252.402-.46.55s-.452.224-.728.224c-.312 0-.586-.083-.82-.25s-.46-.43-.68-.79c-.182.444-.492.804-.93 1.083s-.938.42-1.5.42c-.938 0-1.66-.282-2.168-.845s-.762-1.36-.762-2.39c0-.45.052-.853.156-1.212v-2.96zm2.742 6.125c.6 0 1.052-.17 1.36-.508s.46-.81.46-1.414c0-1.266-.615-1.898-1.844-1.898-1.287 0-1.93.64-1.93 1.922 0 .61.164 1.078.492 1.406s.816.492 1.462.492zm7.258.703c.463 0 .815-.194 1.055-.585s.36-.95.36-1.68c0-1.088-.163-1.895-.488-2.418s-.767-.785-1.324-.785c-.463 0-.785.143-.965.43s-.27.826-.27 1.617v1.554c0 .588.14 1.047.422 1.375s.685.49 1.21.49zM33.176 59.604v-1.39l4.883-1.876c1.114-.412 1.918-.667 2.413-.766v-.062c-.266-.068-.72-.21-1.363-.426s-2.62-.923-5.934-2.12V51.57l9.75 3.68c.963.365 1.647.79 2.05 1.277s.606 1.083.606 1.792c0 .396-.044.787-.133 1.172h-1.04c.062-.287.094-.607.094-.96 0-.892-.5-1.527-1.5-1.907l-1.22-.477-8.608 3.454z"/></g><g fill="#222221"><path d="M322.614 276.446h-1.562l-4.164-5.54-1.195 1.063v4.476h-1.328v-11.422h1.328v5.664l5.18-5.664h1.57l-4.594 4.96 4.764 6.462zM323.88 265.564c0-.297.073-.515.22-.652s.327-.207.546-.207c.208 0 .388.07.54.21s.226.357.226.65-.075.508-.227.65-.33.216-.54.216c-.218 0-.4-.07-.546-.214s-.22-.36-.22-.652zm1.406 10.882h-1.297v-8.562h1.296v8.562zM333.896 276.446v-5.54c0-.697-.16-1.218-.477-1.56s-.816-.517-1.493-.517c-.896 0-1.552.24-1.97.726s-.624 1.284-.624 2.398v4.492h-1.297v-8.562h1.055l.212 1.172h.062c.266-.422.638-.75 1.117-.98s1.014-.348 1.603-.348c1.03 0 1.808.25 2.328.746s.782 1.293.782 2.387v5.587h-1.296zM341.475 276.603c-1.266 0-2.265-.386-2.996-1.156-.733-.77-1.1-1.84-1.1-3.21 0-1.38.34-2.478 1.02-3.29s1.593-1.22 2.74-1.22c1.07 0 1.92.354 2.546 1.06s.938 1.637.938 2.793v.82h-5.898c.025 1.005.28 1.77.762 2.29.48.52 1.16.78 2.035.78.922 0 1.833-.192 2.734-.578v1.156c-.46.198-.893.34-1.3.426-.41.086-.904.13-1.482.13zm-.352-7.79c-.688 0-1.236.225-1.645.673-.41.448-.65 1.067-.723 1.86h4.477c0-.818-.183-1.445-.547-1.88-.365-.435-.885-.652-1.562-.652zM349.6 275.532c.23 0 .45-.017.664-.05.213-.035.383-.07.508-.106v.992c-.14.067-.348.124-.62.168s-.52.066-.74.066c-1.655 0-2.483-.872-2.483-2.617v-5.094H345.7v-.624l1.227-.54.546-1.827h.75v1.983h2.484v1.008h-2.484v5.04c0 .516.122.91.367 1.188.243.277.58.414 1.007.414zM352.373 265.564c0-.297.072-.515.22-.652.145-.138.327-.207.546-.207.207 0 .387.07.538.21.15.142.227.357.227.65s-.076.508-.227.65c-.15.145-.33.216-.54.216-.218 0-.4-.07-.546-.214-.147-.144-.22-.36-.22-.652zm1.406 10.882h-1.298v-8.562h1.297v8.562zM359.95 276.603c-1.24 0-2.198-.382-2.878-1.145s-1.02-1.843-1.02-3.238c0-1.433.345-2.54 1.035-3.32.69-.78 1.673-1.172 2.95-1.172.41 0 .82.044 1.233.133.41.09.734.193.97.313l-.4 1.102c-.286-.114-.6-.21-.937-.285-.34-.075-.64-.113-.898-.113-1.74 0-2.61 1.11-2.61 3.328 0 1.052.213 1.86.638 2.422.424.562 1.053.844 1.887.844.713 0 1.445-.152 2.195-.46v1.148c-.573.296-1.295.445-2.164.445zM371.92 276.603c-1.266 0-2.265-.386-2.996-1.156-.732-.77-1.098-1.84-1.098-3.21 0-1.38.34-2.478 1.02-3.29s1.592-1.22 2.738-1.22c1.072 0 1.922.354 2.547 1.06s.94 1.637.94 2.793v.82h-5.9c.026 1.005.28 1.77.763 2.29.48.52 1.16.78 2.035.78.922 0 1.833-.192 2.734-.578v1.156c-.46.198-.893.34-1.3.426-.41.086-.904.13-1.482.13zm-.352-7.79c-.688 0-1.236.225-1.645.673-.41.448-.65 1.067-.723 1.86h4.477c0-.818-.183-1.445-.547-1.88-.364-.435-.885-.652-1.562-.652zM383.14 276.446v-5.54c0-.697-.16-1.218-.478-1.56s-.814-.517-1.492-.517c-.896 0-1.553.24-1.97.726s-.624 1.284-.624 2.398v4.492h-1.297v-8.562h1.054l.21 1.172h.063c.266-.422.64-.75 1.117-.98s1.014-.348 1.602-.348c1.03 0 1.807.25 2.328.746s.78 1.293.78 2.387v5.587h-1.295zM390.717 276.603c-1.266 0-2.264-.386-2.996-1.156s-1.097-1.84-1.097-3.21c0-1.38.34-2.478 1.02-3.29s1.592-1.22 2.738-1.22c1.073 0 1.923.354 2.548 1.06s.938 1.637.938 2.793v.82h-5.898c.025 1.005.28 1.77.762 2.29s1.16.78 2.035.78c.922 0 1.834-.192 2.734-.578v1.156c-.46.198-.894.34-1.302.426s-.903.13-1.48.13zm-.352-7.79c-.688 0-1.236.225-1.645.673s-.65 1.067-.723 1.86h4.477c0-.818-.182-1.445-.547-1.88s-.884-.652-1.562-.652zM399.982 267.728c.38 0 .72.03 1.023.094l-.18 1.203c-.354-.078-.666-.117-.938-.117-.693 0-1.285.28-1.777.844s-.738 1.263-.738 2.102v4.594h-1.297v-8.562h1.07l.148 1.586h.062c.318-.558.7-.987 1.148-1.29s.942-.454 1.48-.454zM409.615 267.884v.82l-1.586.188c.145.183.274.42.39.715s.172.626.172.996c0 .84-.287 1.508-.86 2.008s-1.358.75-2.358.75c-.256 0-.494-.02-.72-.06-.552.29-.827.658-.827 1.1 0 .235.096.408.29.52s.522.17.99.17h1.517c.928 0 1.64.194 2.137.585s.747.958.747 1.703c0 .948-.38 1.67-1.14 2.168s-1.87.746-3.33.746c-1.118 0-1.98-.208-2.59-.625s-.91-1.005-.91-1.766c0-.52.167-.97.5-1.35s.804-.64 1.407-.774c-.22-.1-.402-.253-.55-.46s-.224-.45-.224-.728c0-.312.084-.586.25-.82s.43-.46.79-.68c-.444-.183-.804-.492-1.083-.93s-.418-.938-.418-1.5c0-.938.28-1.66.843-2.168s1.36-.762 2.39-.762c.448 0 .853.052 1.212.156h2.96zm-6.828 10c0 .464.195.815.586 1.055s.95.358 1.68.358c1.088 0 1.895-.163 2.418-.488s.786-.767.786-1.324c0-.464-.143-.785-.43-.965s-.826-.27-1.617-.27h-1.556c-.588 0-1.047.142-1.375.423s-.493.684-.493 1.21zm.703-7.258c0 .6.17 1.052.508 1.36s.81.46 1.414.46c1.266 0 1.898-.614 1.898-1.844 0-1.286-.64-1.93-1.922-1.93-.61 0-1.078.164-1.406.492s-.492.817-.492 1.462zM410.014 267.884h1.39l1.876 4.883c.412 1.114.666 1.92.766 2.414h.062c.068-.265.21-.72.426-1.362s.924-2.62 2.12-5.934h1.392l-3.68 9.75c-.365.964-.79 1.647-1.277 2.05s-1.085.606-1.794.606c-.396 0-.787-.044-1.172-.133v-1.04c.287.063.607.095.96.095.892 0 1.526-.5 1.907-1.5l.478-1.22-3.454-8.608z"/></g><path stroke="#222221" fill="none" d="M263.056 96.203l-29.95 51.917"/><g fill="#f00"><path d="M289.687 244.097l-.396-.036c.037-.306.056-.594.056-.827 0-1.08-.63-1.314-3.457-1.314-1.027 0-1.208.07-1.315.467l-1.188 4.195h1.404c1.62 0 1.82-.216 2.504-1.746l.324.07-1.225 4.18-.36-.09c.09-.397.126-.613.126-.938 0-.307-.037-.468-.127-.56-.198-.18-.685-.27-1.404-.27h-1.405l-.576 2.018c-.45 1.584-.65 2.412-.65 2.63 0 .43.415.61 1.424.61 1.764 0 2.736-.216 3.654-.702.576-.306 1.01-.81 1.693-1.764l.288.144-1.116 2.917h-9.128v-.287c1.008-.18 1.17-.288 1.458-1.332l2.215-7.958c.107-.36.198-.937.198-1.152 0-.486-.27-.63-1.387-.738v-.288h8.948l-.56 2.773zM294.468 258.677c-.315.398-.588.504-.945.504-.39 0-.62-.21-.672-.766h-.01c-.556.63-1.07.767-1.522.767-.65 0-1.102-.398-1.102-1.09 0-.548.325-.957.734-1.23.315-.21.703-.41 1.89-.85v-.568c0-.65-.347-.944-.818-.944-.42 0-.735.23-.735.515 0 .188.063.22.063.44 0 .2-.21.43-.483.43-.22 0-.45-.198-.45-.48 0-.274.167-.61.534-.84.295-.19.736-.316 1.208-.316.588 0 .987.168 1.24.473.25.304.293.524.293 1.165v2.005c0 .483.138.693.326.693.168 0 .273-.053.452-.2v.294zm-1.628-2.415c-.65.23-1.08.45-1.344.692-.252.23-.356.483-.356.81 0 .556.314.808.725.808.21 0 .43-.053.608-.168.305-.21.367-.357.367-.66v-1.482z"/></g><path stroke="#0064C8" stroke-width="2" stroke-miterlimit="10" d="M233.078 148.12c14.012 12.15 30.662 23.95 50.857 34.574" fill="none"/><path stroke="#191919" stroke-width="2" stroke-miterlimit="10" d="M55.193 236.71s15.62-198.386 72.154-198.386c34.204 0 46.042 58.045 105.73 109.796" fill="none"/><path stroke="#f00" stroke-width="2" stroke-miterlimit="10" d="M400.428 219.482c-48.495-7.852-86.55-21.038-116.493-36.788" fill="none"/><path stroke="#222221" fill="none" d="M344.632 143.06l-60.038 39.634"/></g></svg>