<svg xmlns="http://www.w3.org/2000/svg" xmlns:cc="http://web.resource.org/cc/" xmlns:svg="http://www.w3.org/2000/svg" xmlns:xlink="http://www.w3.org/1999/xlink" id="svg2" width="782" height="458" version="1.0"><defs id="defs4"><linearGradient id="linearGradient8196"><stop style="stop-color:#e7fbff;stop-opacity:1" id="stop8198" offset="0"/><stop style="stop-color:white;stop-opacity:1" id="stop8200" offset="1"/></linearGradient><linearGradient id="linearGradient2846"><stop style="stop-color:#e7fbff;stop-opacity:1" id="stop2848" offset="0"/><stop style="stop-color:#fffbff;stop-opacity:1" id="stop2850" offset="1"/></linearGradient><linearGradient id="linearGradient26589"><stop style="stop-color:#b5d3d6;stop-opacity:1" id="stop26591" offset="0"/><stop style="stop-color:#296163;stop-opacity:1" id="stop26593" offset="1"/></linearGradient><radialGradient id="radialGradient26597" cx="766.769" cy="261.569" r="13.19" fx="766.769" fy="261.569" gradientTransform="matrix(0.379068,13.67325,-8.284739,0.22968,2621.36,-10059.91)" gradientUnits="userSpaceOnUse" spreadMethod="reflect" xlink:href="#linearGradient26589"/><marker id="Arrow1Mend" orient="auto" refX="0" refY="0" style="overflow:visible"><path id="path21984" d="M 0.0,0.0 L 5.0,-5.0 L -12.5,0.0 L 5.0,5.0 L 0.0,0.0 z" transform="scale(0.4) rotate(180) translate(10,0)" style="fill-rule:evenodd;stroke:#000;stroke-width:1pt;marker-start:none"/></marker><marker id="Arrow1Lend" orient="auto" refX="0" refY="0" style="overflow:visible"><path id="path21990" d="M 0.0,0.0 L 5.0,-5.0 L -12.5,0.0 L 5.0,5.0 L 0.0,0.0 z" transform="scale(0.8) rotate(180) translate(12.5,0)" style="fill-rule:evenodd;stroke:#000;stroke-width:1pt;marker-start:none"/></marker><marker id="Arrow1Lstart" orient="auto" refX="0" refY="0" style="overflow:visible"><path id="path21993" d="M 0.0,0.0 L 5.0,-5.0 L -12.5,0.0 L 5.0,5.0 L 0.0,0.0 z" transform="scale(0.8) translate(12.5,0)" style="fill-rule:evenodd;stroke:#000;stroke-width:1pt;marker-start:none"/></marker><linearGradient id="linearGradient20040"><stop style="stop-color:#00fb00;stop-opacity:.54000002" id="stop20042" offset="0"/><stop style="stop-color:#00fb00;stop-opacity:0" id="stop20044" offset="1"/></linearGradient><radialGradient id="radialGradient20046" cx="766.453" cy="154.197" r="13.637" fx="766.453" fy="154.197" gradientTransform="matrix(1,0,0,1.074074,0,-11.42198)" gradientUnits="userSpaceOnUse" xlink:href="#linearGradient20040"/><linearGradient id="linearGradient2852" x1="212.5" x2="212.5" y1="411.278" y2="484.747" gradientUnits="userSpaceOnUse" spreadMethod="reflect" xlink:href="#linearGradient2846"/><linearGradient id="linearGradient3741" x1="212.5" x2="212.5" y1="411.278" y2="484.747" gradientTransform="translate(8.123779e-5,-1.834961e-5)" gradientUnits="userSpaceOnUse" spreadMethod="reflect" xlink:href="#linearGradient2846"/><linearGradient id="linearGradient8202" x1="522.281" x2="545.01" y1="188.053" y2="253.325" gradientUnits="userSpaceOnUse" xlink:href="#linearGradient8196"/><linearGradient id="linearGradient9974" x1="522.281" x2="542.989" y1="331.495" y2="268.477" gradientUnits="userSpaceOnUse" xlink:href="#linearGradient8196"/></defs><metadata id="metadata7"/><g id="layer1" transform="translate(21.28412,-223.3316)"><rect style="opacity:1;color:#000;fill:#fff;fill-opacity:1;fill-rule:nonzero;stroke:none;stroke-width:.1;stroke-linecap:butt;stroke-linejoin:miter;marker:none;marker-start:none;marker-mid:none;marker-end:none;stroke-miterlimit:4;stroke-dasharray:none;stroke-dashoffset:0;stroke-opacity:1;visibility:visible;display:inline;overflow:visible" id="rect10925" width="783.81" height="457.923" x="-21.284" y="223.332"/><rect style="opacity:1;color:#000;fill:url(#linearGradient2852);fill-opacity:1;fill-rule:evenodd;stroke:none;stroke-width:.98995501;stroke-linecap:butt;stroke-linejoin:miter;marker:none;marker-start:none;marker-mid:none;marker-end:none;stroke-miterlimit:4;stroke-dasharray:none;stroke-dashoffset:0;stroke-opacity:1;visibility:visible;display:inline;overflow:visible" id="rect1958" width="486.483" height="145.948" x="15.006" y="411.773"/><path style="fill:url(#linearGradient9974);fill-opacity:1;fill-rule:evenodd;stroke:none;stroke-width:.99496323px;stroke-linecap:butt;stroke-linejoin:miter;stroke-opacity:1;opacity:1;color:#000;marker:none;marker-start:none;marker-mid:none;marker-end:none;stroke-miterlimit:4;stroke-dasharray:none;stroke-dashoffset:0;visibility:visible;display:inline;overflow:visible" id="path7309" d="M 522.28125 261.40625 L 522.28125 333.90625 L 755 441.40625 C 764.30495 435.01618 773.20765 348.32081 774.75 261.40625 L 522.28125 261.40625 z" transform="translate(-21.28412,223.3316)"/><path style="fill:url(#linearGradient8202);fill-opacity:1;fill-rule:evenodd;stroke:none;stroke-width:.99496323px;stroke-linecap:butt;stroke-linejoin:miter;stroke-opacity:1" id="path3747" d="M 522.28125 261.40625 L 774.75 261.40625 C 776.19528 179.96159 771.17763 98.318964 753.71875 82.375 L 522.28125 188.9375 L 522.28125 261.40625 z" transform="translate(-21.28412,223.3316)"/><rect style="opacity:1;color:#000;fill:url(#linearGradient3741);fill-opacity:1;fill-rule:evenodd;stroke:none;stroke-width:.98995501;stroke-linecap:butt;stroke-linejoin:miter;marker:none;marker-start:none;marker-mid:none;marker-end:none;stroke-miterlimit:4;stroke-dasharray:none;stroke-dashoffset:0;stroke-opacity:1;visibility:visible;display:inline;overflow:visible" id="rect3739" width="486.483" height="145.948" x="15.006" y="411.773"/><path style="fill:none;fill-opacity:.75;fill-rule:evenodd;stroke:#000;stroke-width:4;stroke-linecap:butt;stroke-linejoin:miter;stroke-opacity:1;stroke-miterlimit:4;stroke-dasharray:none" id="path23928" d="M 346.60714,192.46429 L 524.28572,192.28571 L 681.96429,119.60714" transform="translate(-21.28412,223.3316)"/><text style="font-size:19.56551552px;font-style:normal;font-weight:400;text-align:center;line-height:125%;writing-mode:lr-tb;text-anchor:middle;fill:#000;fill-opacity:1;stroke:none;stroke-width:1px;stroke-linecap:butt;stroke-linejoin:miter;stroke-opacity:1;font-family:Bitstream Vera Sans" id="text1933" x="175.797" y="275.489" xml:space="preserve"><tspan id="tspan1935" x="175.797" y="275.489">Anode</tspan></text><text style="font-size:19.56551552px;font-style:normal;font-weight:400;text-align:center;line-height:125%;writing-mode:lr-tb;text-anchor:middle;fill:#000;fill-opacity:1;stroke:none;stroke-width:1px;stroke-linecap:butt;stroke-linejoin:miter;stroke-opacity:1;font-family:Bitstream Vera Sans" id="text1937" x="360.347" y="328.479" xml:space="preserve"><tspan id="tspan1939" x="360.347" y="328.479">Deflecting coils</tspan></text><text style="font-size:19.56551552px;font-style:normal;font-weight:400;text-align:center;line-height:125%;writing-mode:lr-tb;text-anchor:middle;fill:#000;fill-opacity:1;stroke:none;stroke-width:1px;stroke-linecap:butt;stroke-linejoin:miter;stroke-opacity:1;font-family:Bitstream Vera Sans" id="text1941" x="39.453" y="359.106" xml:space="preserve"><tspan id="tspan1943" x="39.453" y="359.106">Control Grid</tspan></text><text style="font-size:19.56551552px;font-style:normal;font-weight:400;text-align:center;line-height:125%;writing-mode:lr-tb;text-anchor:middle;fill:#000;fill-opacity:1;stroke:none;stroke-width:1px;stroke-linecap:butt;stroke-linejoin:miter;stroke-opacity:1;font-family:Bitstream Vera Sans" id="text1945" x="20.862" y="587.824" xml:space="preserve"><tspan id="tspan1947" x="20.862" y="587.824">Heater</tspan></text><text style="font-size:19.56551552px;font-style:normal;font-weight:400;text-align:center;line-height:125%;writing-mode:lr-tb;text-anchor:middle;fill:#000;fill-opacity:1;stroke:none;stroke-width:1px;stroke-linecap:butt;stroke-linejoin:miter;stroke-opacity:1;font-family:Bitstream Vera Sans" id="text1949" x="77.813" y="641.753" xml:space="preserve"><tspan id="tspan1951" x="77.813" y="641.753">Cathode</tspan></text><text style="font-size:19.56551552px;font-style:normal;font-weight:400;text-align:center;line-height:125%;writing-mode:lr-tb;text-anchor:middle;fill:#000;fill-opacity:1;stroke:none;stroke-width:1px;stroke-linecap:butt;stroke-linejoin:miter;stroke-opacity:1;font-family:Bitstream Vera Sans" id="text1953" x="185.216" y="639.342" xml:space="preserve"><tspan id="tspan1955" x="185.216" y="639.342">Electron</tspan><tspan id="tspan1957" x="185.216" y="663.799">beam</tspan></text><text style="font-size:19.56551552px;font-style:normal;font-weight:400;text-align:center;line-height:125%;writing-mode:lr-tb;text-anchor:middle;fill:#000;fill-opacity:1;stroke:none;stroke-width:1px;stroke-linecap:butt;stroke-linejoin:miter;stroke-opacity:1;font-family:Bitstream Vera Sans" id="text1959" x="310.475" y="676.212" xml:space="preserve"><tspan id="tspan1961" x="310.475" y="676.212">Focusing coil</tspan></text><text style="font-size:19.56551552px;font-style:normal;font-weight:400;text-align:end;line-height:125%;writing-mode:lr-tb;text-anchor:end;fill:#000;fill-opacity:1;stroke:none;stroke-width:1px;stroke-linecap:butt;stroke-linejoin:miter;stroke-opacity:1;font-family:Bitstream Vera Sans" id="text1963" x="739.756" y="527.176" xml:space="preserve"><tspan id="tspan1965" x="739.756" y="527.176">Fluorescent screen</tspan></text><rect style="opacity:1;color:#000;fill:#949694;fill-opacity:1;fill-rule:nonzero;stroke:#000;stroke-width:1.5;stroke-linecap:butt;stroke-linejoin:miter;marker:none;marker-start:none;marker-mid:none;marker-end:none;stroke-miterlimit:4;stroke-dasharray:none;stroke-dashoffset:0;stroke-opacity:1;visibility:visible;display:inline;overflow:visible" id="rect1985" width="49.119" height="50.003" x="225.824" y="348.991"/><rect style="opacity:1;color:#000;fill:#949694;fill-opacity:1;fill-rule:nonzero;stroke:#000;stroke-width:1.5;stroke-linecap:butt;stroke-linejoin:miter;marker:none;marker-start:none;marker-mid:none;marker-end:none;stroke-miterlimit:4;stroke-dasharray:none;stroke-dashoffset:0;stroke-opacity:1;visibility:visible;display:inline;overflow:visible" id="rect3757" width="153.669" height="49.876" x="337.786" y="353.783"/><rect style="opacity:1;color:#000;fill:#949694;fill-opacity:1;fill-rule:nonzero;stroke:#000;stroke-width:1.5;stroke-linecap:butt;stroke-linejoin:miter;marker:none;marker-start:none;marker-mid:none;marker-end:none;stroke-miterlimit:4;stroke-dasharray:none;stroke-dashoffset:0;stroke-opacity:1;visibility:visible;display:inline;overflow:visible" id="rect3759" width="47.982" height="49.687" x="227.568" y="571.834"/><rect style="opacity:1;color:#000;fill:#949694;fill-opacity:1;fill-rule:nonzero;stroke:#000;stroke-width:1.5;stroke-linecap:butt;stroke-linejoin:miter;marker:none;marker-start:none;marker-mid:none;marker-end:none;stroke-miterlimit:4;stroke-dasharray:none;stroke-dashoffset:0;stroke-opacity:1;visibility:visible;display:inline;overflow:visible" id="rect3761" width="153.543" height="50.129" x="337.49" y="560.618"/><rect style="opacity:1;color:#000;fill:none;fill-opacity:1;fill-rule:nonzero;stroke:#000;stroke-width:1.5;stroke-linecap:butt;stroke-linejoin:miter;marker:none;marker-start:none;marker-mid:none;marker-end:none;stroke-miterlimit:4;stroke-dasharray:none;stroke-dashoffset:0;stroke-opacity:1;visibility:visible;display:inline;overflow:visible" id="rect4650" width="91.545" height="23.234" x="15.965" y="467.432"/><path style="color:#000;fill:#000;fill-opacity:1;fill-rule:nonzero;stroke:none;stroke-width:.1;stroke-linecap:butt;stroke-linejoin:miter;marker:none;marker-start:none;marker-mid:none;marker-end:none;stroke-miterlimit:4;stroke-dasharray:none;stroke-dashoffset:0;stroke-opacity:1;visibility:visible;display:inline;overflow:visible" id="path10921" d="M 36.5 228.59375 L 36.5 280.09375 L 131.5 280.09375 L 131.5 280.0625 C 131.97007 280.08927 132.42968 280.09375 132.90625 280.09375 C 143.29744 280.09376 152.23778 273.63912 156.09375 264.4375 L 154.46875 264.4375 C 150.7164 272.7995 142.46354 278.59375 132.90625 278.59375 C 132.44008 278.59375 132.02036 278.5868 131.59375 278.5625 C 131.47639 278.55925 131.36485 278.56939 131.25 278.59375 L 38 278.59375 L 38 230.09375 L 131.28125 230.09375 C 131.38573 230.11573 131.48699 230.12585 131.59375 230.125 C 132.02036 230.1007 132.44008 230.09375 132.90625 230.09375 C 142.31759 230.09375 150.4512 235.67663 154.28125 243.8125 L 155.90625 243.8125 C 151.96308 234.83723 143.14965 228.59375 132.90625 228.59375 C 132.42968 228.59375 131.97006 228.59823 131.5 228.625 L 131.5 228.59375 L 36.5 228.59375 z" transform="translate(-21.28412,223.3316)"/><path style="fill:none;fill-opacity:.75;fill-rule:evenodd;stroke:#ff9600;stroke-width:.99668831px;stroke-linecap:butt;stroke-linejoin:miter;stroke-opacity:1" id="path11902" d="M 16.719569,479.36423 L 91.603735,479.36423"/><path style="fill:none;fill-opacity:.75;fill-rule:evenodd;stroke:#ff9600;stroke-width:.99668831px;stroke-linecap:butt;stroke-linejoin:miter;stroke-opacity:1;opacity:1;color:#000;marker:none;marker-start:none;marker-mid:none;marker-end:none;stroke-miterlimit:4;stroke-dasharray:none;stroke-dashoffset:0;visibility:visible;display:inline;overflow:visible" id="path12789" d="M 37.817586,262.09354 C 44.415145,262.31451 47.664686,250.45351 54.358834,250.35052 C 62.503189,250.22424 65.533647,262.66175 72.225907,262.34608 C 78.98454,262.03026 82.769594,250.17103 89.209097,250.22425 C 96.785241,250.28738 99.189654,262.1768 106.50796,262.15667 C 108.72127,262.15058 110.73797,259.88383 112.88455,255.65382" transform="translate(-21.28412,223.3316)"/><path style="fill:none;fill-opacity:.75;fill-rule:evenodd;stroke:#000;stroke-width:1.2345475px;stroke-linecap:butt;stroke-linejoin:miter;stroke-opacity:1" id="path12791" d="M 300.31421,438.12838 L 311.19134,438.12838 L 311.19134,472.61782"/><path style="fill:none;fill-opacity:.75;fill-rule:evenodd;stroke:#000;stroke-width:1px;stroke-linecap:butt;stroke-linejoin:miter;stroke-opacity:1" id="path12793" d="M 167.74068,519.0127 L 175.56936,519.0127 L 175.56936,487.57171"/><path style="fill:none;fill-opacity:.75;fill-rule:evenodd;stroke:#000;stroke-width:1.2345475px;stroke-linecap:butt;stroke-linejoin:miter;stroke-opacity:1" id="path12795" d="M 300.31421,527.77825 L 311.19134,527.77825 L 311.19134,493.28881"/><path style="fill:none;fill-opacity:.75;fill-rule:evenodd;stroke:#000;stroke-width:1px;stroke-linecap:butt;stroke-linejoin:miter;stroke-opacity:1" id="path12797" d="M 167.74068,439.33694 L 175.56936,439.33694 L 175.56936,470.77793"/><g id="g22020"><path style="color:#000;fill:#000;fill-opacity:1;fill-rule:evenodd;stroke:none;stroke-width:1px;stroke-linecap:butt;stroke-linejoin:miter;marker:none;stroke-miterlimit:4;stroke-dashoffset:0;stroke-opacity:1;visibility:visible;display:inline;overflow:visible" id="path22017" d="M 98.6875,492.03125 L 70.46875,622.40625 L 71.4375,622.625 L 99.65625,492.25 L 98.6875,492.03125 z"/><path style="fill-rule:evenodd;stroke:#000;stroke-width:.8pt;marker-start:none" id="path22026" d="M 97.053805,501.92195 L 100.11728,506.67749 L 99.168877,492.14819 L 92.29827,504.98543 L 97.053805,501.92195 z"/></g><g id="g22030"><path style="opacity:1;color:#000;fill:#000;fill-opacity:1;fill-rule:evenodd;stroke:none;stroke-width:1px;stroke-linecap:butt;stroke-linejoin:miter;marker:none;stroke-miterlimit:4;stroke-dasharray:none;stroke-dashoffset:0;stroke-opacity:1;visibility:visible;display:inline;overflow:visible" id="path22028" d="M 48.4375,481.46875 L 23.5625,570.8125 L 24.53125,571.0625 L 49.40625,481.75 L 48.4375,481.46875 z"/><path style="fill-rule:evenodd;stroke:#000;stroke-width:.8pt;marker-start:none" id="path22036" d="M 46.240971,491.2391 L 49.021356,496.1655 L 48.923495,481.60561 L 41.314567,494.01948 L 46.240971,491.2391 z"/></g><g id="g22040"><path style="opacity:1;color:#000;fill:#000;fill-opacity:1;fill-rule:evenodd;stroke:none;stroke-width:1px;stroke-linecap:butt;stroke-linejoin:miter;marker:none;stroke-miterlimit:4;stroke-dasharray:none;stroke-dashoffset:0;stroke-opacity:1;visibility:visible;display:inline;overflow:visible" id="path22038" d="M 15.625,367.9375 L 14.75,368.4375 L 62.53125,451.25 L 63.40625,450.75 L 15.625,367.9375 z"/><path style="fill-rule:evenodd;stroke:#000;stroke-width:.8pt;marker-start:none" id="path22046" d="M 57.977381,442.33966 L 52.513405,440.87508 L 62.976636,451.00034 L 59.441952,436.87568 L 57.977381,442.33966 z"/></g><g id="g22050"><path style="opacity:1;color:#000;fill:#000;fill-opacity:1;fill-rule:evenodd;stroke:none;stroke-width:1px;stroke-linecap:butt;stroke-linejoin:miter;marker:none;stroke-miterlimit:4;stroke-dasharray:none;stroke-dashoffset:0;stroke-opacity:1;visibility:visible;display:inline;overflow:visible" id="path22048" d="M 223.34375,490.5 L 195.71875,616.625 L 196.6875,616.84375 L 224.3125,490.71875 L 223.34375,490.5 z"/><path style="fill-rule:evenodd;stroke:#000;stroke-width:.8pt;marker-start:none" id="path22056" d="M 221.6983,500.37874 L 224.74904,505.14245 L 223.83951,490.61067 L 216.93459,503.42948 L 221.6983,500.37874 z"/></g><g id="g22062"><path style="opacity:1;color:#000;fill:#000;fill-opacity:1;fill-rule:evenodd;stroke:none;stroke-width:1px;stroke-linecap:butt;stroke-linejoin:miter;marker:none;stroke-miterlimit:4;stroke-dasharray:none;stroke-dashoffset:0;stroke-opacity:1;visibility:visible;display:inline;overflow:visible" id="path22058" d="M 204.21875,477.09375 L 195.84375,617.3125 L 196.84375,617.375 L 205.21875,477.15625 L 204.21875,477.09375 z"/><path style="fill-rule:evenodd;stroke:#000;stroke-width:.8pt;marker-start:none" id="path22068" d="M 204.12541,487.11487 L 207.87992,491.34614 L 204.72136,477.13264 L 199.89414,490.86938 L 204.12541,487.11487 z"/></g><g id="g22080"><path style="opacity:1;color:#000;fill:#000;fill-opacity:1;fill-rule:evenodd;stroke:none;stroke-width:1px;stroke-linecap:butt;stroke-linejoin:miter;marker:none;stroke-miterlimit:4;stroke-dasharray:none;stroke-dashoffset:0;stroke-opacity:1;visibility:visible;display:inline;overflow:visible" id="path22078" d="M 222.28125,297.84375 L 175.75,456.21875 L 176.6875,456.5 L 223.21875,298.125 L 222.28125,297.84375 z"/><path style="fill-rule:evenodd;stroke:#000;stroke-width:.8pt;marker-start:none" id="path22086" d="M 179.03692,446.76347 L 176.3267,441.79812 L 176.21801,456.35793 L 184.00227,444.05324 L 179.03692,446.76347 z"/></g><g id="g22090"><path style="opacity:1;color:#000;fill:#000;fill-opacity:1;fill-rule:evenodd;stroke:none;stroke-width:1px;stroke-linecap:butt;stroke-linejoin:miter;marker:none;stroke-miterlimit:4;stroke-dasharray:none;stroke-dashoffset:0;stroke-opacity:1;visibility:visible;display:inline;overflow:visible" id="path22088" d="M 222.75,298.21875 L 221.90625,298.71875 L 302.875,436.59375 L 303.75,436.0625 L 222.75,298.21875 z"/><path style="fill-rule:evenodd;stroke:#000;stroke-width:.8pt;marker-start:none" id="path22096" d="M 298.24401,427.70382 L 292.76912,426.2806 L 303.30859,436.32647 L 299.66724,422.22893 L 298.24401,427.70382 z"/></g><path style="fill:none;fill-opacity:.75;fill-rule:evenodd;stroke:#000;stroke-width:4;stroke-linecap:butt;stroke-linejoin:miter;stroke-miterlimit:4;stroke-dasharray:none;stroke-opacity:1" id="path24815" d="M 328.7873,553.22445 L 506.46588,553.40303 L 664.14445,626.0816"/><g id="g22100"><path style="opacity:1;color:#000;fill:#000;fill-opacity:1;fill-rule:evenodd;stroke:none;stroke-width:1px;stroke-linecap:butt;stroke-linejoin:miter;marker:none;stroke-miterlimit:4;stroke-dasharray:none;stroke-dashoffset:0;stroke-opacity:1;visibility:visible;display:inline;overflow:visible" id="path22098" d="M 351.9375,335.625 L 350.96875,335.8125 L 402.875,592.40625 L 403.84375,592.1875 L 351.9375,335.625 z"/><path style="fill-rule:evenodd;stroke:#000;stroke-width:.8pt;marker-start:none" id="path22106" d="M 401.3859,582.49902 L 396.67215,579.37163 L 403.36886,592.30044 L 404.51329,577.78527 L 401.3859,582.49902 z"/></g><g id="g22110"><path style="opacity:1;color:#000;fill:#000;fill-opacity:1;fill-rule:evenodd;stroke:none;stroke-width:1px;stroke-linecap:butt;stroke-linejoin:miter;marker:none;stroke-miterlimit:4;stroke-dasharray:none;stroke-dashoffset:0;stroke-opacity:1;visibility:visible;display:inline;overflow:visible" id="path22108" d="M 256.15625,601.9375 L 255.25,602.3125 L 279.65625,657.53125 L 280.5625,657.125 L 256.15625,601.9375 z"/><path style="fill-rule:evenodd;stroke:#000;stroke-width:.8pt;marker-start:none" id="path22116" d="M 259.75539,611.27127 L 265.03102,613.31276 L 255.7127,602.12487 L 257.7139,616.54691 L 259.75539,611.27127 z"/></g><g id="g22120"><path style="opacity:1;color:#000;fill:#000;fill-opacity:1;fill-rule:evenodd;stroke:none;stroke-width:1px;stroke-linecap:butt;stroke-linejoin:miter;marker:none;stroke-miterlimit:4;stroke-dasharray:none;stroke-dashoffset:0;stroke-opacity:1;visibility:visible;display:inline;overflow:visible" id="path22118" d="M 351.375,335.6875 L 350.8125,336.5 L 397.6875,369.8125 L 398.25,369 L 351.375,335.6875 z"/><path style="fill-rule:evenodd;stroke:#000;stroke-width:.8pt;marker-start:none" id="path22126" d="M 389.81956,363.62351 L 384.24198,364.5672 L 397.97116,369.41587 L 388.87587,358.04592 L 389.81956,363.62351 z"/></g><g id="g23920"><path style="fill:#000;fill-opacity:1;fill-rule:evenodd;stroke:none;stroke-width:1px;stroke-linecap:butt;stroke-linejoin:miter;stroke-opacity:1" id="path22146" d="M 298.18463,287.80035 C 271.24269,288.09029 245.18035,291.01095 221.02838,297.48785 L 221.27838,298.4566 C 349.5517,264.05717 532.36261,329.88499 615.93463,362.5816 L 616.30963,361.6441 C 548.37795,335.0666 414.93304,286.54394 298.18463,287.80035 z"/><path style="fill-rule:evenodd;stroke:#000;stroke-width:.4pt;marker-start:none" id="path23926" d="M 612.39709,360.66601 L 609.80587,361.79985 L 617.0534,362.48775 L 611.26325,358.07479 L 612.39709,360.66601 z"/></g><path style="fill:url(#radialGradient26597);fill-opacity:1;fill-rule:evenodd;stroke:none;stroke-width:1px;stroke-linecap:butt;stroke-linejoin:miter;stroke-opacity:1" id="path26609" d="M 732.29476,304.54978 C 770.28631,337.39998 761.15113,637.74424 734.19251,664.25074 C 750.11054,640.73351 754.02069,323.2007 732.29476,304.54978 z"/><g id="g22130"><path style="opacity:1;color:#000;fill:#000;fill-opacity:1;fill-rule:evenodd;stroke:none;stroke-width:1px;stroke-linecap:butt;stroke-linejoin:miter;marker:none;stroke-miterlimit:4;stroke-dasharray:none;stroke-dashoffset:0;stroke-opacity:1;visibility:visible;display:inline;overflow:visible" id="path22128" d="M 665.6875,536.28125 L 665.625,537.28125 L 751.0625,541.375 L 751.09375,540.375 L 665.6875,536.28125 z"/><path style="fill-rule:evenodd;stroke:#000;stroke-width:.8pt;marker-start:none" id="path22136" d="M 741.09119,540.39438 L 736.90478,544.19884 L 751.07979,540.8718 L 737.28672,536.20797 L 741.09119,540.39438 z"/></g><path style="fill:none;fill-opacity:.75;fill-rule:evenodd;stroke-width:3;stroke-linecap:butt;stroke-linejoin:miter;stroke-opacity:1;stroke:#008900;stroke-miterlimit:4;stroke-dasharray:9,9;stroke-dashoffset:0" id="path3763" d="M 132.32998,245.86797 C 132.32998,245.86797 379.79332,264.10007 490.42906,235.26136 C 597.00015,207.48216 769.23116,151.4187 769.23116,151.4187 C 769.23116,151.4187 579.26192,226.23417 497.50013,248.39334 C 400.70472,274.62695 130.81475,258.99995 130.81475,258.99995" transform="translate(-21.28412,223.3316)"/><path style="opacity:1;color:#000;fill:url(#radialGradient20046);fill-opacity:1;fill-rule:evenodd;stroke:none;stroke-width:1px;stroke-linecap:butt;stroke-linejoin:miter;marker:none;marker-start:none;marker-mid:none;marker-end:none;stroke-miterlimit:4;stroke-dasharray:none;stroke-dashoffset:0;stroke-opacity:1;visibility:visible;display:inline;overflow:visible" id="path19153" d="M 780.09031 154.19662 A 13.637059 14.647212 0 1 1 752.81619,154.19662 A 13.637059 14.647212 0 1 1 780.09031 154.19662 z" transform="translate(-18.25365,222.3214)"/><path style="opacity:1;color:#000;fill:none;fill-opacity:1;fill-rule:evenodd;stroke:#000;stroke-width:.99496323px;stroke-linecap:butt;stroke-linejoin:miter;marker:none;marker-start:none;marker-mid:none;marker-end:none;stroke-miterlimit:4;stroke-dasharray:none;stroke-dashoffset:0;stroke-opacity:1;visibility:visible;display:inline;overflow:visible" id="path10861" d="M 733.28438,305.04726 C 734.04908,305.88227 734.77208,307.10779 735.47188,308.67226 C 734.64638,307.52798 733.79858,306.51561 732.90938,305.70351 L 501.97178,412.04726 L 501.97178,411.79726 L 15.503032,411.79726 L 15.503032,557.73476 L 501.97178,557.73476 L 501.97178,557.45351 L 734.19058,664.73476 C 734.56518,664.47753 734.94278,664.09078 735.31558,663.57851 C 735.32498,663.56768 735.33748,663.55816 735.34688,663.54726 C 735.39958,663.47398 735.45038,663.40677 735.50308,663.32851 C 761.69608,631.70979 770.29018,339.79335 733.28438,305.04726 z"/></g></svg>