<svg version="1.1" viewBox="0.0 0.0 600.0 371.0" fill="none" stroke="none" stroke-linecap="square" stroke-miterlimit="10" width="600" height="371" xmlns:xlink="http://www.w3.org/1999/xlink" xmlns="http://www.w3.org/2000/svg"><path fill="#ffffff" d="M0 0L600.0 0L600.0 371.0L0 371.0L0 0Z" fill-rule="nonzero"/><path stroke="#333333" stroke-width="1.0" stroke-linecap="butt" d="M45.5 300.5L581.5 300.5" fill-rule="nonzero"/><path stroke="#cccccc" stroke-width="1.0" stroke-linecap="butt" d="M45.5 247.5L581.5 247.5" fill-rule="nonzero"/><path stroke="#cccccc" stroke-width="1.0" stroke-linecap="butt" d="M45.5 194.5L581.5 194.5" fill-rule="nonzero"/><path stroke="#cccccc" stroke-width="1.0" stroke-linecap="butt" d="M45.5 141.5L581.5 141.5" fill-rule="nonzero"/><path stroke="#cccccc" stroke-width="1.0" stroke-linecap="butt" d="M45.5 88.5L581.5 88.5" fill-rule="nonzero"/><clipPath id="id_0"><path d="M45.55 88.28333L581.45 88.28333L581.45 300.45L45.55 300.45L45.55 88.28333Z" clip-rule="nonzero"/></clipPath><path stroke="#000000" stroke-width="2.0" stroke-linecap="butt" stroke-opacity="0.0" clip-path="url(#id_0)" d="M115.0 300.0L90.0 300.0L90.0 297.0C90.0 295.89542 90.89543 295.0 92.0 295.0L113.0 295.0C114.10457 295.0 115.0 295.89542 115.0 297.0Z" fill-rule="nonzero"/><path fill="#6fa8dc" clip-path="url(#id_0)" d="M115.0 300.0L90.0 300.0L90.0 297.0C90.0 295.89542 90.89543 295.0 92.0 295.0L113.0 295.0C114.10457 295.0 115.0 295.89542 115.0 297.0Z" fill-rule="nonzero"/><path stroke="#000000" stroke-width="2.0" stroke-linecap="butt" stroke-opacity="0.0" clip-path="url(#id_0)" d="M238.0 300.0L213.0 300.0L213.0 249.0C213.0 247.89543 213.89543 247.0 215.0 247.0L236.0 247.0C237.10457 247.0 238.0 247.89543 238.0 249.0Z" fill-rule="nonzero"/><path fill="#6fa8dc" clip-path="url(#id_0)" d="M238.0 300.0L213.0 300.0L213.0 249.0C213.0 247.89543 213.89543 247.0 215.0 247.0L236.0 247.0C237.10457 247.0 238.0 247.89543 238.0 249.0Z" fill-rule="nonzero"/><path stroke="#000000" stroke-width="2.0" stroke-linecap="butt" stroke-opacity="0.0" clip-path="url(#id_0)" d="M361.0 300.0L336.0 300.0L336.0 300.0C336.0 300.0 336.0 300.0 336.0 300.0L361.0 300.0C361.0 300.0 361.0 300.0 361.0 300.0Z" fill-rule="nonzero"/><path fill="#6fa8dc" clip-path="url(#id_0)" d="M361.0 300.0L336.0 300.0L336.0 300.0C336.0 300.0 336.0 300.0 336.0 300.0L361.0 300.0C361.0 300.0 361.0 300.0 361.0 300.0Z" fill-rule="nonzero"/><path stroke="#000000" stroke-width="2.0" stroke-linecap="butt" stroke-opacity="0.0" clip-path="url(#id_0)" d="M484.0 300.0L459.0 300.0L459.0 295.0C459.0 293.89542 459.89542 293.0 461.0 293.0L482.0 293.0C483.10458 293.0 484.0 293.89542 484.0 295.0Z" fill-rule="nonzero"/><path fill="#6fa8dc" clip-path="url(#id_0)" d="M484.0 300.0L459.0 300.0L459.0 295.0C459.0 293.89542 459.89542 293.0 461.0 293.0L482.0 293.0C483.10458 293.0 484.0 293.89542 484.0 295.0Z" fill-rule="nonzero"/><path stroke="#000000" stroke-width="2.0" stroke-linecap="butt" stroke-opacity="0.0" clip-path="url(#id_0)" d="M142.0 300.0L117.0 300.0L117.0 297.0C117.0 295.89542 117.89543 295.0 119.0 295.0L140.0 295.0C141.10457 295.0 142.0 295.89542 142.0 297.0Z" fill-rule="nonzero"/><path fill="#8e7cc3" clip-path="url(#id_0)" d="M142.0 300.0L117.0 300.0L117.0 297.0C117.0 295.89542 117.89543 295.0 119.0 295.0L140.0 295.0C141.10457 295.0 142.0 295.89542 142.0 297.0Z" fill-rule="nonzero"/><path stroke="#000000" stroke-width="2.0" stroke-linecap="butt" stroke-opacity="0.0" clip-path="url(#id_0)" d="M265.0 300.0L240.0 300.0L240.0 300.0C240.0 300.0 240.0 300.0 240.0 300.0L265.0 300.0C265.0 300.0 265.0 300.0 265.0 300.0Z" fill-rule="nonzero"/><path fill="#8e7cc3" clip-path="url(#id_0)" d="M265.0 300.0L240.0 300.0L240.0 300.0C240.0 300.0 240.0 300.0 240.0 300.0L265.0 300.0C265.0 300.0 265.0 300.0 265.0 300.0Z" fill-rule="nonzero"/><path stroke="#000000" stroke-width="2.0" stroke-linecap="butt" stroke-opacity="0.0" clip-path="url(#id_0)" d="M388.0 300.0L363.0 300.0L363.0 249.0C363.0 247.89543 363.89542 247.0 365.0 247.0L386.0 247.0C387.10458 247.0 388.0 247.89543 388.0 249.0Z" fill-rule="nonzero"/><path fill="#8e7cc3" clip-path="url(#id_0)" d="M388.0 300.0L363.0 300.0L363.0 249.0C363.0 247.89543 363.89542 247.0 365.0 247.0L386.0 247.0C387.10458 247.0 388.0 247.89543 388.0 249.0Z" fill-rule="nonzero"/><path stroke="#000000" stroke-width="2.0" stroke-linecap="butt" stroke-opacity="0.0" clip-path="url(#id_0)" d="M511.0 300.0L486.0 300.0L486.0 295.0C486.0 293.89542 486.89542 293.0 488.0 293.0L509.0 293.0C510.10458 293.0 511.0 293.89542 511.0 295.0Z" fill-rule="nonzero"/><path fill="#8e7cc3" clip-path="url(#id_0)" d="M511.0 300.0L486.0 300.0L486.0 295.0C486.0 293.89542 486.89542 293.0 488.0 293.0L509.0 293.0C510.10458 293.0 511.0 293.89542 511.0 295.0Z" fill-rule="nonzero"/><path stroke="#000000" stroke-width="2.0" stroke-linecap="butt" stroke-opacity="0.0" clip-path="url(#id_0)" d="M169.0 300.0L144.0 300.0L144.0 155.0C144.0 153.89543 144.89543 153.0 146.0 153.0L167.0 153.0C168.10457 153.0 169.0 153.89543 169.0 155.0Z" fill-rule="nonzero"/><path fill="#ffd966" clip-path="url(#id_0)" d="M169.0 300.0L144.0 300.0L144.0 155.0C144.0 153.89543 144.89543 153.0 146.0 153.0L167.0 153.0C168.10457 153.0 169.0 153.89543 169.0 155.0Z" fill-rule="nonzero"/><path stroke="#000000" stroke-width="2.0" stroke-linecap="butt" stroke-opacity="0.0" clip-path="url(#id_0)" d="M292.0 300.0L267.0 300.0L267.0 145.0C267.0 143.89543 267.89542 143.0 269.0 143.0L290.0 143.0C291.10458 143.0 292.0 143.89543 292.0 145.0Z" fill-rule="nonzero"/><path fill="#ffd966" clip-path="url(#id_0)" d="M292.0 300.0L267.0 300.0L267.0 145.0C267.0 143.89543 267.89542 143.0 269.0 143.0L290.0 143.0C291.10458 143.0 292.0 143.89543 292.0 145.0Z" fill-rule="nonzero"/><path stroke="#000000" stroke-width="2.0" stroke-linecap="butt" stroke-opacity="0.0" clip-path="url(#id_0)" d="M415.0 300.0L390.0 300.0L390.0 145.0C390.0 143.89543 390.89542 143.0 392.0 143.0L413.0 143.0C414.10458 143.0 415.0 143.89543 415.0 145.0Z" fill-rule="nonzero"/><path fill="#ffd966" clip-path="url(#id_0)" d="M415.0 300.0L390.0 300.0L390.0 145.0C390.0 143.89543 390.89542 143.0 392.0 143.0L413.0 143.0C414.10458 143.0 415.0 143.89543 415.0 145.0Z" fill-rule="nonzero"/><path stroke="#000000" stroke-width="2.0" stroke-linecap="butt" stroke-opacity="0.0" clip-path="url(#id_0)" d="M538.0 300.0L513.0 300.0L513.0 106.0C513.0 104.89543 513.89545 104.0 515.0 104.0L536.0 104.0C537.10455 104.0 538.0 104.89543 538.0 106.0Z" fill-rule="nonzero"/><path fill="#ffd966" clip-path="url(#id_0)" d="M538.0 300.0L513.0 300.0L513.0 106.0C513.0 104.89543 513.89545 104.0 515.0 104.0L536.0 104.0C537.10455 104.0 538.0 104.89543 538.0 106.0Z" fill-rule="nonzero"/><path fill="#000000" d="M132.96875 349.45L132.96875 340.85626L134.09375 340.85626L134.09375 344.3875L138.5625 344.3875L138.5625 340.85626L139.70312 340.85626L139.70312 349.45L138.5625 349.45L138.5625 345.40314L134.09375 345.40314L134.09375 349.45L132.96875 349.45ZM141.79688 342.075L141.79688 340.85626L142.85938 340.85626L142.85938 342.075L141.79688 342.075ZM141.79688 349.45L141.79688 343.23126L142.85938 343.23126L142.85938 349.45L141.79688 349.45ZM144.59375 349.96564L145.625 350.1219Q145.6875 350.59064 145.98438 350.8094Q146.375 351.10626 147.04688 351.10626Q147.78125 351.10626 148.17188 350.8094Q148.57812 350.5125 148.71875 349.9969Q148.8125 349.66876 148.79688 348.6375Q148.10938 349.45 147.07812 349.45Q145.79688 349.45 145.09375 348.52814Q144.39062 347.59064 144.39062 346.3094Q144.39062 345.41876 144.70312 344.66876Q145.03125 343.90314 145.64062 343.4969Q146.25 343.09064 147.07812 343.09064Q148.1875 343.09064 148.90625 343.98126L148.90625 343.23126L149.875 343.23126L149.875 348.60626Q149.875 350.0594 149.57812 350.66876Q149.28125 351.27814 148.64062 351.6219Q148.0 351.98126 147.0625 351.98126Q145.95312 351.98126 145.26562 351.48126Q144.57812 350.98126 144.59375 349.96564ZM145.46875 346.23126Q145.46875 347.45 145.95312 348.0125Q146.4375 348.575 147.17188 348.575Q147.90625 348.575 148.39062 348.0125Q148.89062 347.45 148.89062 346.2625Q148.89062 345.1219 148.375 344.54376Q147.875 343.96564 147.15625 343.96564Q146.45312 343.96564 145.95312 344.54376Q145.46875 345.10626 145.46875 346.23126ZM151.79688 349.45L151.79688 340.85626L152.84375 340.85626L152.84375 343.9344Q153.57812 343.09064 154.70312 343.09064Q155.40625 343.09064 155.90625 343.3719Q156.42188 343.6375 156.64062 344.1219Q156.85938 344.59064 156.85938 345.5125L156.85938 349.45L155.8125 349.45L155.8125 345.5125Q155.8125 344.71564 155.46875 344.35626Q155.125 343.9969 154.5 343.9969Q154.03125 343.9969 153.60938 344.2469Q153.20312 344.48126 153.01562 344.90314Q152.84375 345.3094 152.84375 346.04376L152.84375 349.45L151.79688 349.45ZM163.04688 347.45L164.14062 347.575Q163.89062 348.52814 163.1875 349.0594Q162.48438 349.59064 161.40625 349.59064Q160.04688 349.59064 159.23438 348.7469Q158.4375 347.90314 158.4375 346.3875Q158.4375 344.825 159.25 343.96564Q160.0625 343.09064 161.34375 343.09064Q162.59375 343.09064 163.375 343.9344Q164.17188 344.77814 164.17188 346.325Q164.17188 346.41876 164.17188 346.60626L159.53125 346.60626Q159.59375 347.6375 160.10938 348.1844Q160.625 348.71564 161.40625 348.71564Q161.98438 348.71564 162.39062 348.41876Q162.8125 348.10626 163.04688 347.45ZM159.59375 345.7469L163.0625 345.7469Q163.0 344.95 162.67188 344.5594Q162.15625 343.95 161.35938 343.95Q160.625 343.95 160.125 344.4344Q159.64062 344.91876 159.59375 345.7469ZM165.375 347.59064L166.40625 347.4344Q166.5 348.0594 166.89062 348.3875Q167.29688 348.71564 168.03125 348.71564Q168.75 348.71564 169.09375 348.4344Q169.45312 348.1375 169.45312 347.73126Q169.45312 347.3719 169.14062 347.16876Q168.92188 347.02814 168.0625 346.8094Q166.90625 346.5125 166.45312 346.3094Q166.01562 346.09064 165.78125 345.71564Q165.54688 345.34064 165.54688 344.8719Q165.54688 344.46564 165.73438 344.10626Q165.92188 343.7469 166.25 343.5125Q166.5 343.34064 166.92188 343.21564Q167.34375 343.09064 167.84375 343.09064Q168.5625 343.09064 169.10938 343.3094Q169.67188 343.5125 169.9375 343.8719Q170.20312 344.23126 170.29688 344.825L169.26562 344.96564Q169.20312 344.4969 168.85938 344.23126Q168.53125 343.95 167.90625 343.95Q167.1875 343.95 166.875 344.2Q166.5625 344.4344 166.5625 344.7625Q166.5625 344.96564 166.6875 345.1219Q166.82812 345.29376 167.09375 345.40314Q167.25 345.46564 168.03125 345.66876Q169.15625 345.98126 169.59375 346.16876Q170.03125 346.35626 170.28125 346.71564Q170.53125 347.075 170.53125 347.6219Q170.53125 348.15314 170.21875 348.6219Q169.92188 349.075 169.34375 349.34064Q168.76562 349.59064 168.03125 349.59064Q166.8125 349.59064 166.17188 349.09064Q165.54688 348.575 165.375 347.59064ZM174.09375 348.5125L174.25 349.4344Q173.79688 349.52814 173.45312 349.52814Q172.875 349.52814 172.5625 349.35626Q172.25 349.16876 172.10938 348.8719Q171.98438 348.575 171.98438 347.6219L171.98438 344.04376L171.21875 344.04376L171.21875 343.23126L171.98438 343.23126L171.98438 341.6844L173.03125 341.0594L173.03125 343.23126L174.09375 343.23126L174.09375 344.04376L173.03125 344.04376L173.03125 347.6844Q173.03125 348.1375 173.07812 348.2625Q173.14062 348.3875 173.26562 348.46564Q173.39062 348.54376 173.625 348.54376Q173.8125 348.54376 174.09375 348.5125ZM177.79688 342.075L177.79688 340.85626L178.85938 340.85626L178.85938 342.075L177.79688 342.075ZM177.79688 349.45L177.79688 343.23126L178.85938 343.23126L178.85938 349.45L177.79688 349.45ZM180.79688 349.45L180.79688 343.23126L181.73438 343.23126L181.73438 344.10626Q182.42188 343.09064 183.71875 343.09064Q184.28125 343.09064 184.75 343.29376Q185.23438 343.4969 185.46875 343.825Q185.70312 344.15314 185.79688 344.59064Q185.84375 344.8875 185.84375 345.6219L185.84375 349.45L184.79688 349.45L184.79688 345.66876Q184.79688 345.0125 184.67188 344.7Q184.54688 344.3875 184.23438 344.2Q183.92188 343.9969 183.5 343.9969Q182.82812 343.9969 182.32812 344.4344Q181.84375 344.85626 181.84375 346.04376L181.84375 349.45L180.79688 349.45ZM187.79688 342.075L187.79688 340.85626L188.85938 340.85626L188.85938 342.075L187.79688 342.075ZM187.79688 349.45L187.79688 343.23126L188.85938 343.23126L188.85938 349.45L187.79688 349.45ZM193.09375 348.5125L193.25 349.4344Q192.79688 349.52814 192.45312 349.52814Q191.875 349.52814 191.5625 349.35626Q191.25 349.16876 191.10938 348.8719Q190.98438 348.575 190.98438 347.6219L190.98438 344.04376L190.21875 344.04376L190.21875 343.23126L190.98438 343.23126L190.98438 341.6844L192.03125 341.0594L192.03125 343.23126L193.09375 343.23126L193.09375 344.04376L192.03125 344.04376L192.03125 347.6844Q192.03125 348.1375 192.07812 348.2625Q192.14062 348.3875 192.26562 348.46564Q192.39062 348.54376 192.625 348.54376Q192.8125 348.54376 193.09375 348.5125ZM193.79688 342.075L193.79688 340.85626L194.85938 340.85626L194.85938 342.075L193.79688 342.075ZM193.79688 349.45L193.79688 343.23126L194.85938 343.23126L194.85938 349.45L193.79688 349.45ZM200.85938 348.6844Q200.26562 349.1844 199.71875 349.3875Q199.1875 349.59064 198.5625 349.59064Q197.53125 349.59064 196.98438 349.09064Q196.4375 348.59064 196.4375 347.8094Q196.4375 347.35626 196.64062 346.98126Q196.84375 346.59064 197.1875 346.3719Q197.53125 346.1375 197.95312 346.02814Q198.25 345.9344 198.89062 345.85626Q200.15625 345.71564 200.76562 345.4969Q200.76562 345.27814 200.76562 345.23126Q200.76562 344.575 200.46875 344.3094Q200.0625 343.96564 199.26562 343.96564Q198.53125 343.96564 198.17188 344.23126Q197.8125 344.48126 197.64062 345.1375L196.60938 344.9969Q196.75 344.34064 197.07812 343.9344Q197.40625 343.52814 198.01562 343.3094Q198.625 343.09064 199.42188 343.09064Q200.21875 343.09064 200.71875 343.27814Q201.21875 343.46564 201.45312 343.7469Q201.6875 344.02814 201.78125 344.46564Q201.82812 344.73126 201.82812 345.4344L201.82812 346.84064Q201.82812 348.3094 201.89062 348.7Q201.96875 349.09064 202.17188 349.45L201.0625 349.45Q200.90625 349.1219 200.85938 348.6844ZM200.76562 346.325Q200.1875 346.5594 199.04688 346.73126Q198.39062 346.825 198.125 346.95Q197.85938 347.0594 197.70312 347.27814Q197.5625 347.4969 197.5625 347.77814Q197.5625 348.2 197.875 348.48126Q198.20312 348.7625 198.8125 348.7625Q199.42188 348.7625 199.89062 348.4969Q200.375 348.23126 200.59375 347.7625Q200.76562 347.40314 200.76562 346.71564L200.76562 346.325ZM203.76562 349.45L203.76562 340.85626L204.82812 340.85626L204.82812 349.45L203.76562 349.45ZM213.85938 347.16876L214.89062 347.3094Q214.71875 348.3719 214.01562 348.98126Q213.3125 349.59064 212.29688 349.59064Q211.01562 349.59064 210.23438 348.7625Q209.46875 347.91876 209.46875 346.35626Q209.46875 345.35626 209.79688 344.60626Q210.14062 343.84064 210.8125 343.46564Q211.5 343.09064 212.3125 343.09064Q213.3125 343.09064 213.95312 343.60626Q214.60938 344.10626 214.79688 345.0594L213.76562 345.21564Q213.625 344.59064 213.25 344.27814Q212.875 343.95 212.34375 343.95Q211.54688 343.95 211.04688 344.52814Q210.54688 345.09064 210.54688 346.325Q210.54688 347.59064 211.03125 348.15314Q211.51562 348.71564 212.28125 348.71564Q212.90625 348.71564 213.3125 348.34064Q213.73438 347.96564 213.85938 347.16876ZM215.40625 346.34064Q215.40625 344.60626 216.35938 343.77814Q217.15625 343.09064 218.3125 343.09064Q219.59375 343.09064 220.40625 343.9344Q221.23438 344.7625 221.23438 346.2469Q221.23438 347.45 220.875 348.1375Q220.51562 348.825 219.8125 349.21564Q219.125 349.59064 218.3125 349.59064Q217.01562 349.59064 216.20312 348.7625Q215.40625 347.91876 215.40625 346.34064ZM216.48438 346.34064Q216.48438 347.52814 217.0 348.1219Q217.53125 348.71564 218.3125 348.71564Q219.10938 348.71564 219.625 348.1219Q220.14062 347.52814 220.14062 346.3094Q220.14062 345.15314 219.60938 344.5594Q219.09375 343.96564 218.3125 343.96564Q217.53125 343.96564 217.0 344.5594Q216.48438 345.1375 216.48438 346.34064ZM222.79688 349.45L222.79688 343.23126L223.73438 343.23126L223.73438 344.10626Q224.42188 343.09064 225.71875 343.09064Q226.28125 343.09064 226.75 343.29376Q227.23438 343.4969 227.46875 343.825Q227.70312 344.15314 227.79688 344.59064Q227.84375 344.8875 227.84375 345.6219L227.84375 349.45L226.79688 349.45L226.79688 345.66876Q226.79688 345.0125 226.67188 344.7Q226.54688 344.3875 226.23438 344.2Q225.92188 343.9969 225.5 343.9969Q224.82812 343.9969 224.32812 344.4344Q223.84375 344.85626 223.84375 346.04376L223.84375 349.45L222.79688 349.45ZM233.85938 347.16876L234.89062 347.3094Q234.71875 348.3719 234.01562 348.98126Q233.3125 349.59064 232.29688 349.59064Q231.01562 349.59064 230.23438 348.7625Q229.46875 347.91876 229.46875 346.35626Q229.46875 345.35626 229.79688 344.60626Q230.14062 343.84064 230.8125 343.46564Q231.5 343.09064 232.3125 343.09064Q233.3125 343.09064 233.95312 343.60626Q234.60938 344.10626 234.79688 345.0594L233.76562 345.21564Q233.625 344.59064 233.25 344.27814Q232.875 343.95 232.34375 343.95Q231.54688 343.95 231.04688 344.52814Q230.54688 345.09064 230.54688 346.325Q230.54688 347.59064 231.03125 348.15314Q231.51562 348.71564 232.28125 348.71564Q232.90625 348.71564 233.3125 348.34064Q233.73438 347.96564 233.85938 347.16876ZM240.04688 347.45L241.14062 347.575Q240.89062 348.52814 240.1875 349.0594Q239.48438 349.59064 238.40625 349.59064Q237.04688 349.59064 236.23438 348.7469Q235.4375 347.90314 235.4375 346.3875Q235.4375 344.825 236.25 343.96564Q237.0625 343.09064 238.34375 343.09064Q239.59375 343.09064 240.375 343.9344Q241.17188 344.77814 241.17188 346.325Q241.17188 346.41876 241.17188 346.60626L236.53125 346.60626Q236.59375 347.6375 237.10938 348.1844Q237.625 348.71564 238.40625 348.71564Q238.98438 348.71564 239.39062 348.41876Q239.8125 348.10626 240.04688 347.45ZM236.59375 345.7469L240.0625 345.7469Q240.0 344.95 239.67188 344.5594Q239.15625 343.95 238.35938 343.95Q237.625 343.95 237.125 344.4344Q236.64062 344.91876 236.59375 345.7469ZM242.79688 349.45L242.79688 343.23126L243.73438 343.23126L243.73438 344.10626Q244.42188 343.09064 245.71875 343.09064Q246.28125 343.09064 246.75 343.29376Q247.23438 343.4969 247.46875 343.825Q247.70312 344.15314 247.79688 344.59064Q247.84375 344.8875 247.84375 345.6219L247.84375 349.45L246.79688 349.45L246.79688 345.66876Q246.79688 345.0125 246.67188 344.7Q246.54688 344.3875 246.23438 344.2Q245.92188 343.9969 245.5 343.9969Q244.82812 343.9969 244.32812 344.4344Q243.84375 344.85626 243.84375 346.04376L243.84375 349.45L242.79688 349.45ZM252.09375 348.5125L252.25 349.4344Q251.79688 349.52814 251.45312 349.52814Q250.875 349.52814 250.5625 349.35626Q250.25 349.16876 250.10938 348.8719Q249.98438 348.575 249.98438 347.6219L249.98438 344.04376L249.21875 344.04376L249.21875 343.23126L249.98438 343.23126L249.98438 341.6844L251.03125 341.0594L251.03125 343.23126L252.09375 343.23126L252.09375 344.04376L251.03125 344.04376L251.03125 347.6844Q251.03125 348.1375 251.07812 348.2625Q251.14062 348.3875 251.26562 348.46564Q251.39062 348.54376 251.625 348.54376Q251.8125 348.54376 252.09375 348.5125ZM252.78125 349.45L252.78125 343.23126L253.73438 343.23126L253.73438 344.16876Q254.09375 343.5125 254.39062 343.3094Q254.70312 343.09064 255.07812 343.09064Q255.60938 343.09064 256.15625 343.41876L255.79688 344.40314Q255.40625 344.16876 255.03125 344.16876Q254.67188 344.16876 254.39062 344.3875Q254.125 344.59064 254.01562 344.96564Q253.82812 345.52814 253.82812 346.1844L253.82812 349.45L252.78125 349.45ZM260.85938 348.6844Q260.26562 349.1844 259.71875 349.3875Q259.1875 349.59064 258.5625 349.59064Q257.53125 349.59064 256.98438 349.09064Q256.4375 348.59064 256.4375 347.8094Q256.4375 347.35626 256.64062 346.98126Q256.84375 346.59064 257.1875 346.3719Q257.53125 346.1375 257.95312 346.02814Q258.25 345.9344 258.89062 345.85626Q260.15625 345.71564 260.76562 345.4969Q260.76562 345.27814 260.76562 345.23126Q260.76562 344.575 260.46875 344.3094Q260.0625 343.96564 259.26562 343.96564Q258.53125 343.96564 258.17188 344.23126Q257.8125 344.48126 257.64062 345.1375L256.60938 344.9969Q256.75 344.34064 257.07812 343.9344Q257.40625 343.52814 258.01562 343.3094Q258.625 343.09064 259.42188 343.09064Q260.21875 343.09064 260.71875 343.27814Q261.21875 343.46564 261.45312 343.7469Q261.6875 344.02814 261.78125 344.46564Q261.82812 344.73126 261.82812 345.4344L261.82812 346.84064Q261.82812 348.3094 261.89062 348.7Q261.96875 349.09064 262.17188 349.45L261.0625 349.45Q260.90625 349.1219 260.85938 348.6844ZM260.76562 346.325Q260.1875 346.5594 259.04688 346.73126Q258.39062 346.825 258.125 346.95Q257.85938 347.0594 257.70312 347.27814Q257.5625 347.4969 257.5625 347.77814Q257.5625 348.2 257.875 348.48126Q258.20312 348.7625 258.8125 348.7625Q259.42188 348.7625 259.89062 348.4969Q260.375 348.23126 260.59375 347.7625Q260.76562 347.40314 260.76562 346.71564L260.76562 346.325ZM266.09375 348.5125L266.25 349.4344Q265.79688 349.52814 265.45312 349.52814Q264.875 349.52814 264.5625 349.35626Q264.25 349.16876 264.10938 348.8719Q263.98438 348.575 263.98438 347.6219L263.98438 344.04376L263.21875 344.04376L263.21875 343.23126L263.98438 343.23126L263.98438 341.6844L265.03125 341.0594L265.03125 343.23126L266.09375 343.23126L266.09375 344.04376L265.03125 344.04376L265.03125 347.6844Q265.03125 348.1375 265.07812 348.2625Q265.14062 348.3875 265.26562 348.46564Q265.39062 348.54376 265.625 348.54376Q265.8125 348.54376 266.09375 348.5125ZM266.79688 342.075L266.79688 340.85626L267.85938 340.85626L267.85938 342.075L266.79688 342.075ZM266.79688 349.45L266.79688 343.23126L267.85938 343.23126L267.85938 349.45L266.79688 349.45ZM269.40625 346.34064Q269.40625 344.60626 270.35938 343.77814Q271.15625 343.09064 272.3125 343.09064Q273.59375 343.09064 274.40625 343.9344Q275.23438 344.7625 275.23438 346.2469Q275.23438 347.45 274.875 348.1375Q274.51562 348.825 273.8125 349.21564Q273.125 349.59064 272.3125 349.59064Q271.01562 349.59064 270.20312 348.7625Q269.40625 347.91876 269.40625 346.34064ZM270.48438 346.34064Q270.48438 347.52814 271.0 348.1219Q271.53125 348.71564 272.3125 348.71564Q273.10938 348.71564 273.625 348.1219Q274.14062 347.52814 274.14062 346.3094Q274.14062 345.15314 273.60938 344.5594Q273.09375 343.96564 272.3125 343.96564Q271.53125 343.96564 271.0 344.5594Q270.48438 345.1375 270.48438 346.34064ZM276.79688 349.45L276.79688 343.23126L277.73438 343.23126L277.73438 344.10626Q278.42188 343.09064 279.71875 343.09064Q280.28125 343.09064 280.75 343.29376Q281.23438 343.4969 281.46875 343.825Q281.70312 344.15314 281.79688 344.59064Q281.84375 344.8875 281.84375 345.6219L281.84375 349.45L280.79688 349.45L280.79688 345.66876Q280.79688 345.0125 280.67188 344.7Q280.54688 344.3875 280.23438 344.2Q279.92188 343.9969 279.5 343.9969Q278.82812 343.9969 278.32812 344.4344Q277.84375 344.85626 277.84375 346.04376L277.84375 349.45L276.79688 349.45ZM288.8125 351.98126Q287.9375 350.8719 287.32812 349.40314Q286.73438 347.91876 286.73438 346.34064Q286.73438 344.95 287.17188 343.66876Q287.70312 342.1844 288.8125 340.71564L289.5625 340.71564Q288.85938 341.9344 288.625 342.45Q288.26562 343.2625 288.0625 344.1375Q287.8125 345.23126 287.8125 346.34064Q287.8125 349.16876 289.5625 351.98126L288.8125 351.98126ZM290.79688 349.45L290.79688 340.85626L291.84375 340.85626L291.84375 343.9344Q292.57812 343.09064 293.70312 343.09064Q294.40625 343.09064 294.90625 343.3719Q295.42188 343.6375 295.64062 344.1219Q295.85938 344.59064 295.85938 345.5125L295.85938 349.45L294.8125 349.45L294.8125 345.5125Q294.8125 344.71564 294.46875 344.35626Q294.125 343.9969 293.5 343.9969Q293.03125 343.9969 292.60938 344.2469Q292.20312 344.48126 292.01562 344.90314Q291.84375 345.3094 291.84375 346.04376L291.84375 349.45L290.79688 349.45ZM297.79688 342.075L297.79688 340.85626L298.85938 340.85626L298.85938 342.075L297.79688 342.075ZM297.79688 349.45L297.79688 343.23126L298.85938 343.23126L298.85938 349.45L297.79688 349.45ZM300.59375 349.96564L301.625 350.1219Q301.6875 350.59064 301.98438 350.8094Q302.375 351.10626 303.04688 351.10626Q303.78125 351.10626 304.17188 350.8094Q304.57812 350.5125 304.71875 349.9969Q304.8125 349.66876 304.79688 348.6375Q304.10938 349.45 303.07812 349.45Q301.79688 349.45 301.09375 348.52814Q300.39062 347.59064 300.39062 346.3094Q300.39062 345.41876 300.70312 344.66876Q301.03125 343.90314 301.64062 343.4969Q302.25 343.09064 303.07812 343.09064Q304.1875 343.09064 304.90625 343.98126L304.90625 343.23126L305.875 343.23126L305.875 348.60626Q305.875 350.0594 305.57812 350.66876Q305.28125 351.27814 304.64062 351.6219Q304.0 351.98126 303.0625 351.98126Q301.95312 351.98126 301.26562 351.48126Q300.57812 350.98126 300.59375 349.96564ZM301.46875 346.23126Q301.46875 347.45 301.95312 348.0125Q302.4375 348.575 303.17188 348.575Q303.90625 348.575 304.39062 348.0125Q304.89062 347.45 304.89062 346.2625Q304.89062 345.1219 304.375 344.54376Q303.875 343.96564 303.15625 343.96564Q302.45312 343.96564 301.95312 344.54376Q301.46875 345.10626 301.46875 346.23126ZM307.79688 349.45L307.79688 340.85626L308.84375 340.85626L308.84375 343.9344Q309.57812 343.09064 310.70312 343.09064Q311.40625 343.09064 311.90625 343.3719Q312.42188 343.6375 312.64062 344.1219Q312.85938 344.59064 312.85938 345.5125L312.85938 349.45L311.8125 349.45L311.8125 345.5125Q311.8125 344.71564 311.46875 344.35626Q311.125 343.9969 310.5 343.9969Q310.03125 343.9969 309.60938 344.2469Q309.20312 344.48126 309.01562 344.90314Q308.84375 345.3094 308.84375 346.04376L308.84375 349.45L307.79688 349.45ZM319.04688 347.45L320.14062 347.575Q319.89062 348.52814 319.1875 349.0594Q318.48438 349.59064 317.40625 349.59064Q316.04688 349.59064 315.23438 348.7469Q314.4375 347.90314 314.4375 346.3875Q314.4375 344.825 315.25 343.96564Q316.0625 343.09064 317.34375 343.09064Q318.59375 343.09064 319.375 343.9344Q320.17188 344.77814 320.17188 346.325Q320.17188 346.41876 320.17188 346.60626L315.53125 346.60626Q315.59375 347.6375 316.10938 348.1844Q316.625 348.71564 317.40625 348.71564Q317.98438 348.71564 318.39062 348.41876Q318.8125 348.10626 319.04688 347.45ZM315.59375 345.7469L319.0625 345.7469Q319.0 344.95 318.67188 344.5594Q318.15625 343.95 317.35938 343.95Q316.625 343.95 316.125 344.4344Q315.64062 344.91876 315.59375 345.7469ZM321.375 347.59064L322.40625 347.4344Q322.5 348.0594 322.89062 348.3875Q323.29688 348.71564 324.03125 348.71564Q324.75 348.71564 325.09375 348.4344Q325.45312 348.1375 325.45312 347.73126Q325.45312 347.3719 325.14062 347.16876Q324.92188 347.02814 324.0625 346.8094Q322.90625 346.5125 322.45312 346.3094Q322.01562 346.09064 321.78125 345.71564Q321.54688 345.34064 321.54688 344.8719Q321.54688 344.46564 321.73438 344.10626Q321.92188 343.7469 322.25 343.5125Q322.5 343.34064 322.92188 343.21564Q323.34375 343.09064 323.84375 343.09064Q324.5625 343.09064 325.10938 343.3094Q325.67188 343.5125 325.9375 343.8719Q326.20312 344.23126 326.29688 344.825L325.26562 344.96564Q325.20312 344.4969 324.85938 344.23126Q324.53125 343.95 323.90625 343.95Q323.1875 343.95 322.875 344.2Q322.5625 344.4344 322.5625 344.7625Q322.5625 344.96564 322.6875 345.1219Q322.82812 345.29376 323.09375 345.40314Q323.25 345.46564 324.03125 345.66876Q325.15625 345.98126 325.59375 346.16876Q326.03125 346.35626 326.28125 346.71564Q326.53125 347.075 326.53125 347.6219Q326.53125 348.15314 326.21875 348.6219Q325.92188 349.075 325.34375 349.34064Q324.76562 349.59064 324.03125 349.59064Q322.8125 349.59064 322.17188 349.09064Q321.54688 348.575 321.375 347.59064ZM330.09375 348.5125L330.25 349.4344Q329.79688 349.52814 329.45312 349.52814Q328.875 349.52814 328.5625 349.35626Q328.25 349.16876 328.10938 348.8719Q327.98438 348.575 327.98438 347.6219L327.98438 344.04376L327.21875 344.04376L327.21875 343.23126L327.98438 343.23126L327.98438 341.6844L329.03125 341.0594L329.03125 343.23126L330.09375 343.23126L330.09375 344.04376L329.03125 344.04376L329.03125 347.6844Q329.03125 348.1375 329.07812 348.2625Q329.14062 348.3875 329.26562 348.46564Q329.39062 348.54376 329.625 348.54376Q329.8125 348.54376 330.09375 348.5125ZM336.34375 344.40314L330.67188 344.40314L330.67188 343.41876L336.34375 343.41876L336.34375 344.40314ZM336.34375 347.0125L330.67188 347.0125L330.67188 346.02814L336.34375 346.02814L336.34375 347.0125ZM343.04688 348.4344L343.04688 349.45L337.35938 349.45Q337.35938 349.075 337.48438 348.71564Q337.70312 348.1375 338.17188 347.575Q338.65625 347.0125 339.5625 346.27814Q340.96875 345.1219 341.45312 344.45Q341.95312 343.77814 341.95312 343.1844Q341.95312 342.5594 341.5 342.1375Q341.04688 341.7 340.32812 341.7Q339.5625 341.7 339.10938 342.15314Q338.65625 342.60626 338.64062 343.41876L337.5625 343.3094Q337.67188 342.09064 338.39062 341.46564Q339.125 340.825 340.35938 340.825Q341.59375 340.825 342.3125 341.5125Q343.03125 342.2 343.03125 343.21564Q343.03125 343.73126 342.8125 344.23126Q342.60938 344.71564 342.10938 345.27814Q341.625 345.825 340.5 346.77814Q339.54688 347.575 339.26562 347.8719Q339.0 348.15314 338.82812 348.4344L343.04688 348.4344ZM344.79688 349.45L344.79688 343.23126L345.73438 343.23126L345.73438 344.10626Q346.03125 343.6375 346.51562 343.3719Q347.0 343.09064 347.625 343.09064Q348.3125 343.09064 348.75 343.3719Q349.20312 343.65314 349.375 344.16876Q350.125 343.09064 351.29688 343.09064Q352.23438 343.09064 352.71875 343.60626Q353.21875 344.10626 353.21875 345.1844L353.21875 349.45L352.17188 349.45L352.17188 345.52814Q352.17188 344.90314 352.0625 344.6219Q351.96875 344.34064 351.70312 344.16876Q351.4375 343.9969 351.0625 343.9969Q350.40625 343.9969 349.96875 344.4344Q349.54688 344.8719 349.54688 345.84064L349.54688 349.45L348.48438 349.45L348.48438 345.40314Q348.48438 344.7 348.21875 344.35626Q347.96875 343.9969 347.39062 343.9969Q346.9375 343.9969 346.5625 344.23126Q346.1875 344.46564 346.01562 344.91876Q345.84375 345.3719 345.84375 346.21564L345.84375 349.45L344.79688 349.45ZM354.40625 346.34064Q354.40625 344.60626 355.35938 343.77814Q356.15625 343.09064 357.3125 343.09064Q358.59375 343.09064 359.40625 343.9344Q360.23438 344.7625 360.23438 346.2469Q360.23438 347.45 359.875 348.1375Q359.51562 348.825 358.8125 349.21564Q358.125 349.59064 357.3125 349.59064Q356.01562 349.59064 355.20312 348.7625Q354.40625 347.91876 354.40625 346.34064ZM355.48438 346.34064Q355.48438 347.52814 356.0 348.1219Q356.53125 348.71564 357.3125 348.71564Q358.10938 348.71564 358.625 348.1219Q359.14062 347.52814 359.14062 346.3094Q359.14062 345.15314 358.60938 344.5594Q358.09375 343.96564 357.3125 343.96564Q356.53125 343.96564 356.0 344.5594Q355.48438 345.1375 355.48438 346.34064ZM361.76562 349.45L361.76562 340.85626L362.82812 340.85626L362.82812 349.45L361.76562 349.45ZM364.0 349.59064L366.48438 340.71564L367.32812 340.71564L364.84375 349.59064L364.0 349.59064ZM367.875 349.45L367.875 340.85626L369.01562 340.85626L369.01562 348.4344L373.25 348.4344L373.25 349.45L367.875 349.45ZM375.0625 349.45L375.0625 348.2469L376.26562 348.2469L376.26562 349.45Q376.26562 350.10626 376.03125 350.5125Q375.79688 350.9344 375.29688 351.15314L375.0 350.7Q375.32812 350.5594 375.48438 350.2625Q375.64062 349.98126 375.67188 349.45L375.0625 349.45ZM384.85938 348.6844Q384.26562 349.1844 383.71875 349.3875Q383.1875 349.59064 382.5625 349.59064Q381.53125 349.59064 380.98438 349.09064Q380.4375 348.59064 380.4375 347.8094Q380.4375 347.35626 380.64062 346.98126Q380.84375 346.59064 381.1875 346.3719Q381.53125 346.1375 381.95312 346.02814Q382.25 345.9344 382.89062 345.85626Q384.15625 345.71564 384.76562 345.4969Q384.76562 345.27814 384.76562 345.23126Q384.76562 344.575 384.46875 344.3094Q384.0625 343.96564 383.26562 343.96564Q382.53125 343.96564 382.17188 344.23126Q381.8125 344.48126 381.64062 345.1375L380.60938 344.9969Q380.75 344.34064 381.07812 343.9344Q381.40625 343.52814 382.01562 343.3094Q382.625 343.09064 383.42188 343.09064Q384.21875 343.09064 384.71875 343.27814Q385.21875 343.46564 385.45312 343.7469Q385.6875 344.02814 385.78125 344.46564Q385.82812 344.73126 385.82812 345.4344L385.82812 346.84064Q385.82812 348.3094 385.89062 348.7Q385.96875 349.09064 386.17188 349.45L385.0625 349.45Q384.90625 349.1219 384.85938 348.6844ZM384.76562 346.325Q384.1875 346.5594 383.04688 346.73126Q382.39062 346.825 382.125 346.95Q381.85938 347.0594 381.70312 347.27814Q381.5625 347.4969 381.5625 347.77814Q381.5625 348.2 381.875 348.48126Q382.20312 348.7625 382.8125 348.7625Q383.42188 348.7625 383.89062 348.4969Q384.375 348.23126 384.59375 347.7625Q384.76562 347.40314 384.76562 346.71564L384.76562 346.325ZM387.76562 349.45L387.76562 340.85626L388.82812 340.85626L388.82812 349.45L387.76562 349.45ZM390.76562 349.45L390.76562 340.85626L391.82812 340.85626L391.82812 349.45L390.76562 349.45ZM396.40625 346.34064Q396.40625 344.60626 397.35938 343.77814Q398.15625 343.09064 399.3125 343.09064Q400.59375 343.09064 401.40625 343.9344Q402.23438 344.7625 402.23438 346.2469Q402.23438 347.45 401.875 348.1375Q401.51562 348.825 400.8125 349.21564Q400.125 349.59064 399.3125 349.59064Q398.01562 349.59064 397.20312 348.7625Q396.40625 347.91876 396.40625 346.34064ZM397.48438 346.34064Q397.48438 347.52814 398.0 348.1219Q398.53125 348.71564 399.3125 348.71564Q400.10938 348.71564 400.625 348.1219Q401.14062 347.52814 401.14062 346.3094Q401.14062 345.15314 400.60938 344.5594Q400.09375 343.96564 399.3125 343.96564Q398.53125 343.96564 398.0 344.5594Q397.48438 345.1375 397.48438 346.34064ZM406.09375 348.5125L406.25 349.4344Q405.79688 349.52814 405.45312 349.52814Q404.875 349.52814 404.5625 349.35626Q404.25 349.16876 404.10938 348.8719Q403.98438 348.575 403.98438 347.6219L403.98438 344.04376L403.21875 344.04376L403.21875 343.23126L403.98438 343.23126L403.98438 341.6844L405.03125 341.0594L405.03125 343.23126L406.09375 343.23126L406.09375 344.04376L405.03125 344.04376L405.03125 347.6844Q405.03125 348.1375 405.07812 348.2625Q405.14062 348.3875 405.26562 348.46564Q405.39062 348.54376 405.625 348.54376Q405.8125 348.54376 406.09375 348.5125ZM406.79688 349.45L406.79688 340.85626L407.84375 340.85626L407.84375 343.9344Q408.57812 343.09064 409.70312 343.09064Q410.40625 343.09064 410.90625 343.3719Q411.42188 343.6375 411.64062 344.1219Q411.85938 344.59064 411.85938 345.5125L411.85938 349.45L410.8125 349.45L410.8125 345.5125Q410.8125 344.71564 410.46875 344.35626Q410.125 343.9969 409.5 343.9969Q409.03125 343.9969 408.60938 344.2469Q408.20312 344.48126 408.01562 344.90314Q407.84375 345.3094 407.84375 346.04376L407.84375 349.45L406.79688 349.45ZM418.04688 347.45L419.14062 347.575Q418.89062 348.52814 418.1875 349.0594Q417.48438 349.59064 416.40625 349.59064Q415.04688 349.59064 414.23438 348.7469Q413.4375 347.90314 413.4375 346.3875Q413.4375 344.825 414.25 343.96564Q415.0625 343.09064 416.34375 343.09064Q417.59375 343.09064 418.375 343.9344Q419.17188 344.77814 419.17188 346.325Q419.17188 346.41876 419.17188 346.60626L414.53125 346.60626Q414.59375 347.6375 415.10938 348.1844Q415.625 348.71564 416.40625 348.71564Q416.98438 348.71564 417.39062 348.41876Q417.8125 348.10626 418.04688 347.45ZM414.59375 345.7469L418.0625 345.7469Q418.0 344.95 417.67188 344.5594Q417.15625 343.95 416.35938 343.95Q415.625 343.95 415.125 344.4344Q414.64062 344.91876 414.59375 345.7469ZM420.78125 349.45L420.78125 343.23126L421.73438 343.23126L421.73438 344.16876Q422.09375 343.5125 422.39062 343.3094Q422.70312 343.09064 423.07812 343.09064Q423.60938 343.09064 424.15625 343.41876L423.79688 344.40314Q423.40625 344.16876 423.03125 344.16876Q422.67188 344.16876 422.39062 344.3875Q422.125 344.59064 422.01562 344.96564Q421.82812 345.52814 421.82812 346.1844L421.82812 349.45L420.78125 349.45ZM424.375 347.59064L425.40625 347.4344Q425.5 348.0594 425.89062 348.3875Q426.29688 348.71564 427.03125 348.71564Q427.75 348.71564 428.09375 348.4344Q428.45312 348.1375 428.45312 347.73126Q428.45312 347.3719 428.14062 347.16876Q427.92188 347.02814 427.0625 346.8094Q425.90625 346.5125 425.45312 346.3094Q425.01562 346.09064 424.78125 345.71564Q424.54688 345.34064 424.54688 344.8719Q424.54688 344.46564 424.73438 344.10626Q424.92188 343.7469 425.25 343.5125Q425.5 343.34064 425.92188 343.21564Q426.34375 343.09064 426.84375 343.09064Q427.5625 343.09064 428.10938 343.3094Q428.67188 343.5125 428.9375 343.8719Q429.20312 344.23126 429.29688 344.825L428.26562 344.96564Q428.20312 344.4969 427.85938 344.23126Q427.53125 343.95 426.90625 343.95Q426.1875 343.95 425.875 344.2Q425.5625 344.4344 425.5625 344.7625Q425.5625 344.96564 425.6875 345.1219Q425.82812 345.29376 426.09375 345.40314Q426.25 345.46564 427.03125 345.66876Q428.15625 345.98126 428.59375 346.16876Q429.03125 346.35626 429.28125 346.71564Q429.53125 347.075 429.53125 347.6219Q429.53125 348.15314 429.21875 348.6219Q428.92188 349.075 428.34375 349.34064Q427.76562 349.59064 427.03125 349.59064Q425.8125 349.59064 425.17188 349.09064Q424.54688 348.575 424.375 347.59064ZM437.85938 348.6844Q437.26562 349.1844 436.71875 349.3875Q436.1875 349.59064 435.5625 349.59064Q434.53125 349.59064 433.98438 349.09064Q433.4375 348.59064 433.4375 347.8094Q433.4375 347.35626 433.64062 346.98126Q433.84375 346.59064 434.1875 346.3719Q434.53125 346.1375 434.95312 346.02814Q435.25 345.9344 435.89062 345.85626Q437.15625 345.71564 437.76562 345.4969Q437.76562 345.27814 437.76562 345.23126Q437.76562 344.575 437.46875 344.3094Q437.0625 343.96564 436.26562 343.96564Q435.53125 343.96564 435.17188 344.23126Q434.8125 344.48126 434.64062 345.1375L433.60938 344.9969Q433.75 344.34064 434.07812 343.9344Q434.40625 343.52814 435.01562 343.3094Q435.625 343.09064 436.42188 343.09064Q437.21875 343.09064 437.71875 343.27814Q438.21875 343.46564 438.45312 343.7469Q438.6875 344.02814 438.78125 344.46564Q438.82812 344.73126 438.82812 345.4344L438.82812 346.84064Q438.82812 348.3094 438.89062 348.7Q438.96875 349.09064 439.17188 349.45L438.0625 349.45Q437.90625 349.1219 437.85938 348.6844ZM437.76562 346.325Q437.1875 346.5594 436.04688 346.73126Q435.39062 346.825 435.125 346.95Q434.85938 347.0594 434.70312 347.27814Q434.5625 347.4969 434.5625 347.77814Q434.5625 348.2 434.875 348.48126Q435.20312 348.7625 435.8125 348.7625Q436.42188 348.7625 436.89062 348.4969Q437.375 348.23126 437.59375 347.7625Q437.76562 347.40314 437.76562 346.71564L437.76562 346.325ZM440.78125 349.45L440.78125 343.23126L441.73438 343.23126L441.73438 344.16876Q442.09375 343.5125 442.39062 343.3094Q442.70312 343.09064 443.07812 343.09064Q443.60938 343.09064 444.15625 343.41876L443.79688 344.40314Q443.40625 344.16876 443.03125 344.16876Q442.67188 344.16876 442.39062 344.3875Q442.125 344.59064 442.01562 344.96564Q441.82812 345.52814 441.82812 346.1844L441.82812 349.45L440.78125 349.45ZM449.04688 347.45L450.14062 347.575Q449.89062 348.52814 449.1875 349.0594Q448.48438 349.59064 447.40625 349.59064Q446.04688 349.59064 445.23438 348.7469Q444.4375 347.90314 444.4375 346.3875Q444.4375 344.825 445.25 343.96564Q446.0625 343.09064 447.34375 343.09064Q448.59375 343.09064 449.375 343.9344Q450.17188 344.77814 450.17188 346.325Q450.17188 346.41876 450.17188 346.60626L445.53125 346.60626Q445.59375 347.6375 446.10938 348.1844Q446.625 348.71564 447.40625 348.71564Q447.98438 348.71564 448.39062 348.41876Q448.8125 348.10626 449.04688 347.45ZM445.59375 345.7469L449.0625 345.7469Q449.0 344.95 448.67188 344.5594Q448.15625 343.95 447.35938 343.95Q446.625 343.95 446.125 344.4344Q445.64062 344.91876 445.59375 345.7469ZM458.46875 349.45L457.42188 349.45L457.42188 342.73126Q457.03125 343.09064 456.40625 343.46564Q455.79688 343.825 455.3125 343.9969L455.3125 342.98126Q456.1875 342.5594 456.84375 341.98126Q457.51562 341.3875 457.79688 340.825L458.46875 340.825L458.46875 349.45ZM461.79688 349.45L461.79688 343.23126L462.73438 343.23126L462.73438 344.10626Q463.03125 343.6375 463.51562 343.3719Q464.0 343.09064 464.625 343.09064Q465.3125 343.09064 465.75 343.3719Q466.20312 343.65314 466.375 344.16876Q467.125 343.09064 468.29688 343.09064Q469.23438 343.09064 469.71875 343.60626Q470.21875 344.10626 470.21875 345.1844L470.21875 349.45L469.17188 349.45L469.17188 345.52814Q469.17188 344.90314 469.0625 344.6219Q468.96875 344.34064 468.70312 344.16876Q468.4375 343.9969 468.0625 343.9969Q467.40625 343.9969 466.96875 344.4344Q466.54688 344.8719 466.54688 345.84064L466.54688 349.45L465.48438 349.45L465.48438 345.40314Q465.48438 344.7 465.21875 344.35626Q464.96875 343.9969 464.39062 343.9969Q463.9375 343.9969 463.5625 344.23126Q463.1875 344.46564 463.01562 344.91876Q462.84375 345.3719 462.84375 346.21564L462.84375 349.45L461.79688 349.45ZM471.40625 346.34064Q471.40625 344.60626 472.35938 343.77814Q473.15625 343.09064 474.3125 343.09064Q475.59375 343.09064 476.40625 343.9344Q477.23438 344.7625 477.23438 346.2469Q477.23438 347.45 476.875 348.1375Q476.51562 348.825 475.8125 349.21564Q475.125 349.59064 474.3125 349.59064Q473.01562 349.59064 472.20312 348.7625Q471.40625 347.91876 471.40625 346.34064ZM472.48438 346.34064Q472.48438 347.52814 473.0 348.1219Q473.53125 348.71564 474.3125 348.71564Q475.10938 348.71564 475.625 348.1219Q476.14062 347.52814 476.14062 346.3094Q476.14062 345.15314 475.60938 344.5594Q475.09375 343.96564 474.3125 343.96564Q473.53125 343.96564 473.0 344.5594Q472.48438 345.1375 472.48438 346.34064ZM478.76562 349.45L478.76562 340.85626L479.82812 340.85626L479.82812 349.45L478.76562 349.45ZM481.0 349.59064L483.48438 340.71564L484.32812 340.71564L481.84375 349.59064L481.0 349.59064ZM484.875 349.45L484.875 340.85626L486.01562 340.85626L486.01562 348.4344L490.25 348.4344L490.25 349.45L484.875 349.45ZM492.48438 351.98126L491.73438 351.98126Q493.48438 349.16876 493.48438 346.34064Q493.48438 345.2469 493.23438 344.15314Q493.03125 343.27814 492.67188 342.46564Q492.4375 341.95 491.73438 340.71564L492.48438 340.71564Q493.57812 342.1844 494.10938 343.66876Q494.5625 344.95 494.5625 346.34064Q494.5625 347.91876 493.95312 349.40314Q493.34375 350.8719 492.48438 351.98126Z" fill-rule="nonzero"/><path fill="#000000" d="M33.05 300.21564Q33.05 298.6844 33.3625 297.7625Q33.675 296.825 34.284374 296.325Q34.909374 295.825 35.846874 295.825Q36.534374 295.825 37.05 296.10626Q37.58125 296.3875 37.925 296.91876Q38.26875 297.4344 38.45625 298.1844Q38.64375 298.9344 38.64375 300.21564Q38.64375 301.73126 38.33125 302.65314Q38.034374 303.575 37.409374 304.09064Q36.8 304.59064 35.846874 304.59064Q34.6125 304.59064 33.89375 303.7Q33.05 302.6375 33.05 300.21564ZM34.128124 300.21564Q34.128124 302.325 34.628124 303.02814Q35.128124 303.73126 35.846874 303.73126Q36.58125 303.73126 37.065624 303.02814Q37.565624 302.325 37.565624 300.21564Q37.565624 298.09064 37.065624 297.40314Q36.58125 296.7 35.83125 296.7Q35.1125 296.7 34.675 297.3094Q34.128124 298.09064 34.128124 300.21564Z" fill-rule="nonzero"/><path fill="#000000" d="M37.01875 251.40834L35.971874 251.40834L35.971874 244.68959Q35.58125 245.04897 34.95625 245.42397Q34.346874 245.78334 33.8625 245.95522L33.8625 244.93959Q34.7375 244.51772 35.39375 243.93959Q36.065624 243.34584 36.346874 242.78334L37.01875 242.78334L37.01875 251.40834Z" fill-rule="nonzero"/><path fill="#000000" d="M38.596874 197.35104L38.596874 198.36667L32.909374 198.36667Q32.909374 197.99167 33.034374 197.6323Q33.253124 197.05417 33.721874 196.49167Q34.20625 195.92917 35.1125 195.1948Q36.51875 194.03854 37.003124 193.36667Q37.503124 192.6948 37.503124 192.10104Q37.503124 191.47604 37.05 191.05417Q36.596874 190.61667 35.878124 190.61667Q35.1125 190.61667 34.659374 191.0698Q34.20625 191.52292 34.190624 192.33542L33.1125 192.22604Q33.221874 191.0073 33.940624 190.3823Q34.675 189.74167 35.909374 189.74167Q37.14375 189.74167 37.8625 190.42917Q38.58125 191.11667 38.58125 192.1323Q38.58125 192.64792 38.3625 193.14792Q38.159374 193.6323 37.659374 194.1948Q37.175 194.74167 36.05 195.6948Q35.096874 196.49167 34.815624 196.78854Q34.55 197.0698 34.378124 197.35104L38.596874 197.35104Z" fill-rule="nonzero"/><path fill="#000000" d="M33.05 143.05937L34.1125 142.91875Q34.284374 143.80937 34.721874 144.21562Q35.159374 144.60625 35.784374 144.60625Q36.534374 144.60625 37.05 144.09062Q37.565624 143.575 37.565624 142.80937Q37.565624 142.09062 37.08125 141.62187Q36.6125 141.1375 35.878124 141.1375Q35.58125 141.1375 35.128124 141.2625L35.253124 140.325Q35.3625 140.34062 35.425 140.34062Q36.096874 140.34062 36.628124 139.99687Q37.175 139.6375 37.175 138.90312Q37.175 138.325 36.784374 137.95Q36.39375 137.55937 35.76875 137.55937Q35.159374 137.55937 34.7375 137.95Q34.33125 138.34062 34.221874 139.10625L33.159374 138.91875Q33.346874 137.87187 34.034374 137.29375Q34.721874 136.7 35.7375 136.7Q36.440624 136.7 37.034374 137.0125Q37.628124 137.30937 37.940624 137.825Q38.253124 138.34062 38.253124 138.93437Q38.253124 139.48125 37.95625 139.95Q37.659374 140.40312 37.08125 140.66875Q37.83125 140.84062 38.253124 141.40312Q38.675 141.95 38.675 142.79375Q38.675 143.91875 37.846874 144.7Q37.034374 145.48125 35.784374 145.48125Q34.659374 145.48125 33.909374 144.80937Q33.159374 144.12187 33.05 143.05937Z" fill-rule="nonzero"/><path fill="#000000" d="M36.425 92.28333L36.425 90.22083L32.70625 90.22083L32.70625 89.25208L36.628124 83.68958L37.4875 83.68958L37.4875 89.25208L38.64375 89.25208L38.64375 90.22083L37.4875 90.22083L37.4875 92.28333L36.425 92.28333ZM36.425 89.25208L36.425 85.39271L33.7375 89.25208L36.425 89.25208Z" fill-rule="nonzero"/><path fill="#000000" d="M104.19127 317.45L107.488144 308.85626L108.706894 308.85626L112.22252 317.45L110.94127 317.45L109.925644 314.84064L106.34752 314.84064L105.394394 317.45L104.19127 317.45ZM106.675644 313.91876L109.581894 313.91876L108.69127 311.54376Q108.269394 310.46564 108.081894 309.7625Q107.91002 310.59064 107.613144 311.40314L106.675644 313.91876ZM112.97252 317.45L112.97252 308.85626L114.03502 308.85626L114.03502 317.45L112.97252 317.45ZM115.97252 317.45L115.97252 308.85626L117.03502 308.85626L117.03502 317.45L115.97252 317.45ZM122.16002 317.45L122.16002 308.85626L128.36314 308.85626L128.36314 309.8719L123.300644 309.8719L123.300644 312.4969L128.05064 312.4969L128.05064 313.5125L123.300644 313.5125L123.300644 316.4344L128.56627 316.4344L128.56627 317.45L122.16002 317.45ZM133.97252 319.84064L133.97252 316.79376Q133.72252 317.1375 133.2694 317.3719Q132.8319 317.59064 132.3319 317.59064Q131.22252 317.59064 130.42564 316.71564Q129.62877 315.825 129.62877 314.27814Q129.62877 313.34064 129.9569 312.60626Q130.28502 311.85626 130.8944 311.48126Q131.5194 311.09064 132.25377 311.09064Q133.41002 311.09064 134.06627 312.0594L134.06627 311.23126L135.0194 311.23126L135.0194 319.84064L133.97252 319.84064ZM130.7069 314.325Q130.7069 315.52814 131.2069 316.1219Q131.72252 316.71564 132.42564 316.71564Q133.09752 316.71564 133.5819 316.15314Q134.06627 315.575 134.06627 314.41876Q134.06627 313.16876 133.55064 312.54376Q133.05064 311.91876 132.34752 311.91876Q131.67564 311.91876 131.19127 312.5125Q130.7069 313.09064 130.7069 314.325ZM141.0819 317.45L141.0819 316.52814Q140.34752 317.59064 139.09752 317.59064Q138.55064 317.59064 138.06627 317.3875Q137.59752 317.16876 137.36314 316.85626Q137.12877 316.52814 137.03502 316.0594Q136.97252 315.7625 136.97252 315.075L136.97252 311.23126L138.03502 311.23126L138.03502 314.6844Q138.03502 315.4969 138.09752 315.79376Q138.19127 316.2 138.50377 316.45Q138.8319 316.6844 139.31627 316.6844Q139.78502 316.6844 140.19127 316.45Q140.61314 316.2 140.78502 315.77814Q140.97252 315.35626 140.97252 314.5594L140.97252 311.23126L142.0194 311.23126L142.0194 317.45L141.0819 317.45ZM148.06627 316.6844Q147.47252 317.1844 146.92564 317.3875Q146.3944 317.59064 145.7694 317.59064Q144.73814 317.59064 144.19127 317.09064Q143.6444 316.59064 143.6444 315.8094Q143.6444 315.35626 143.84752 314.98126Q144.05064 314.59064 144.3944 314.3719Q144.73814 314.1375 145.16002 314.02814Q145.4569 313.9344 146.09752 313.85626Q147.36314 313.71564 147.97252 313.4969Q147.97252 313.27814 147.97252 313.23126Q147.97252 312.575 147.67564 312.3094Q147.2694 311.96564 146.47252 311.96564Q145.73814 311.96564 145.37877 312.23126Q145.0194 312.48126 144.84752 313.1375L143.81627 312.9969Q143.9569 312.34064 144.28502 311.9344Q144.61314 311.52814 145.22252 311.3094Q145.8319 311.09064 146.62877 311.09064Q147.42564 311.09064 147.92564 311.27814Q148.42564 311.46564 148.66002 311.7469Q148.8944 312.02814 148.98814 312.46564Q149.03502 312.73126 149.03502 313.4344L149.03502 314.84064Q149.03502 316.3094 149.09752 316.7Q149.17564 317.09064 149.37877 317.45L148.2694 317.45Q148.11314 317.1219 148.06627 316.6844ZM147.97252 314.325Q147.3944 314.5594 146.25377 314.73126Q145.59752 314.825 145.3319 314.95Q145.06627 315.0594 144.91002 315.27814Q144.7694 315.4969 144.7694 315.77814Q144.7694 316.2 145.0819 316.48126Q145.41002 316.7625 146.0194 316.7625Q146.62877 316.7625 147.09752 316.4969Q147.5819 316.23126 147.80064 315.7625Q147.97252 315.40314 147.97252 314.71564L147.97252 314.325ZM150.97252 317.45L150.97252 308.85626L152.03502 308.85626L152.03502 317.45L150.97252 317.45Z" fill-rule="nonzero"/><path fill="#000000" d="M244.87105 317.45L244.87105 308.85626L245.99605 308.85626L245.99605 312.3875L250.4648 312.3875L250.4648 308.85626L251.60542 308.85626L251.60542 317.45L250.4648 317.45L250.4648 313.40314L245.99605 313.40314L245.99605 317.45L244.87105 317.45ZM258.94916 316.4344L258.94916 317.45L253.26167 317.45Q253.26167 317.075 253.38667 316.71564Q253.60542 316.1375 254.07417 315.575Q254.55855 315.0125 255.4648 314.27814Q256.87103 313.1219 257.3554 312.45Q257.8554 311.77814 257.8554 311.1844Q257.8554 310.5594 257.40228 310.1375Q256.94916 309.7 256.2304 309.7Q255.4648 309.7 255.01167 310.15314Q254.55855 310.60626 254.54292 311.41876L253.4648 311.3094Q253.57417 310.09064 254.29292 309.46564Q255.0273 308.825 256.26166 308.825Q257.49603 308.825 258.21478 309.5125Q258.93353 310.2 258.93353 311.21564Q258.93353 311.73126 258.71478 312.23126Q258.51166 312.71564 258.01166 313.27814Q257.52728 313.825 256.40228 314.77814Q255.44917 315.575 255.16792 315.8719Q254.9023 316.15314 254.73042 316.4344L258.94916 316.4344Z" fill-rule="nonzero"/><path fill="#000000" d="M371.2227 317.45L371.2227 308.85626L372.3477 308.85626L372.3477 317.45L371.2227 317.45ZM379.14456 316.4344L379.14456 317.45L373.45706 317.45Q373.45706 317.075 373.58206 316.71564Q373.8008 316.1375 374.26956 315.575Q374.75394 315.0125 375.6602 314.27814Q377.06644 313.1219 377.5508 312.45Q378.0508 311.77814 378.0508 311.1844Q378.0508 310.5594 377.5977 310.1375Q377.14456 309.7 376.4258 309.7Q375.6602 309.7 375.20706 310.15314Q374.75394 310.60626 374.7383 311.41876L373.6602 311.3094Q373.76956 310.09064 374.4883 309.46564Q375.2227 308.825 376.45706 308.825Q377.69144 308.825 378.4102 309.5125Q379.12894 310.2 379.12894 311.21564Q379.12894 311.73126 378.9102 312.23126Q378.70706 312.71564 378.20706 313.27814Q377.7227 313.825 376.5977 314.77814Q375.64456 315.575 375.3633 315.8719Q375.0977 316.15314 374.9258 316.4344L379.14456 316.4344Z" fill-rule="nonzero"/><path fill="#000000" d="M493.26184 317.45L493.26184 308.85626L494.38684 308.85626L494.38684 312.3875L498.8556 312.3875L498.8556 308.85626L499.99622 308.85626L499.99622 317.45L498.8556 317.45L498.8556 313.40314L494.38684 313.40314L494.38684 317.45L493.26184 317.45ZM502.4181 317.45L502.4181 308.85626L503.5431 308.85626L503.5431 317.45L502.4181 317.45Z" fill-rule="nonzero"/><path fill="#6fa8dc" d="M173.5 56.916668C173.5 56.364384 173.94771 55.916668 174.5 55.916668L184.5 55.916668C185.05229 55.916668 185.5 56.364384 185.5 56.916668L185.5 66.916664C185.5 67.46895 185.05229 67.916664 184.5 67.916664L174.5 67.916664C173.94771 67.916664 173.5 67.46895 173.5 66.916664Z" fill-rule="nonzero"/><path fill="#1a1a1a" d="M194.46875 65.916664L194.46875 57.322914L195.59375 57.322914L195.59375 60.854164L200.0625 60.854164L200.0625 57.322914L201.20312 57.322914L201.20312 65.916664L200.0625 65.916664L200.0625 61.86979L195.59375 61.86979L195.59375 65.916664L194.46875 65.916664ZM208.54688 64.90104L208.54688 65.916664L202.85938 65.916664Q202.85938 65.541664 202.98438 65.18229Q203.20312 64.604164 203.67188 64.041664Q204.15625 63.479164 205.0625 62.74479Q206.46875 61.58854 206.95312 60.916664Q207.45312 60.24479 207.45312 59.65104Q207.45312 59.02604 207.0 58.604164Q206.54688 58.166664 205.82812 58.166664Q205.0625 58.166664 204.60938 58.61979Q204.15625 59.072914 204.14062 59.885414L203.0625 59.77604Q203.17188 58.55729 203.89062 57.93229Q204.625 57.291664 205.85938 57.291664Q207.09375 57.291664 207.8125 57.979164Q208.53125 58.666664 208.53125 59.68229Q208.53125 60.197914 208.3125 60.697914Q208.10938 61.18229 207.60938 61.74479Q207.125 62.291664 206.0 63.24479Q205.04688 64.041664 204.76562 64.33854Q204.5 64.61979 204.32812 64.90104L208.54688 64.90104ZM215.3125 68.447914Q214.4375 67.33854 213.82812 65.86979Q213.23438 64.385414 213.23438 62.80729Q213.23438 61.416664 213.67188 60.135414Q214.20312 58.65104 215.3125 57.18229L216.0625 57.18229Q215.35938 58.40104 215.125 58.916664Q214.76562 59.729164 214.5625 60.604164Q214.3125 61.697914 214.3125 62.80729Q214.3125 65.635414 216.0625 68.447914L215.3125 68.447914ZM217.29688 65.916664L217.29688 59.697914L218.23438 59.697914L218.23438 60.572914Q218.53125 60.104164 219.01562 59.83854Q219.5 59.55729 220.125 59.55729Q220.8125 59.55729 221.25 59.83854Q221.70312 60.11979 221.875 60.635414Q222.625 59.55729 223.79688 59.55729Q224.73438 59.55729 225.21875 60.072914Q225.71875 60.572914 225.71875 61.65104L225.71875 65.916664L224.67188 65.916664L224.67188 61.99479Q224.67188 61.36979 224.5625 61.08854Q224.46875 60.80729 224.20312 60.635414Q223.9375 60.46354 223.5625 60.46354Q222.90625 60.46354 222.46875 60.90104Q222.04688 61.33854 222.04688 62.30729L222.04688 65.916664L220.98438 65.916664L220.98438 61.86979Q220.98438 61.166664 220.71875 60.822914Q220.46875 60.46354 219.89062 60.46354Q219.4375 60.46354 219.0625 60.697914Q218.6875 60.93229 218.51562 61.385414Q218.34375 61.83854 218.34375 62.68229L218.34375 65.916664L217.29688 65.916664ZM226.90625 62.80729Q226.90625 61.072914 227.85938 60.24479Q228.65625 59.55729 229.8125 59.55729Q231.09375 59.55729 231.90625 60.40104Q232.73438 61.229164 232.73438 62.71354Q232.73438 63.916664 232.375 64.604164Q232.01562 65.291664 231.3125 65.68229Q230.625 66.05729 229.8125 66.05729Q228.51562 66.05729 227.70312 65.229164Q226.90625 64.385414 226.90625 62.80729ZM227.98438 62.80729Q227.98438 63.99479 228.5 64.58854Q229.03125 65.18229 229.8125 65.18229Q230.60938 65.18229 231.125 64.58854Q231.64062 63.99479 231.64062 62.77604Q231.64062 61.61979 231.10938 61.02604Q230.59375 60.43229 229.8125 60.43229Q229.03125 60.43229 228.5 61.02604Q227.98438 61.604164 227.98438 62.80729ZM234.26562 65.916664L234.26562 57.322914L235.32812 57.322914L235.32812 65.916664L234.26562 65.916664ZM236.5 66.05729L238.98438 57.18229L239.82812 57.18229L237.34375 66.05729L236.5 66.05729ZM240.375 65.916664L240.375 57.322914L241.51562 57.322914L241.51562 64.90104L245.75 64.90104L245.75 65.916664L240.375 65.916664ZM247.98438 68.447914L247.23438 68.447914Q248.98438 65.635414 248.98438 62.80729Q248.98438 61.71354 248.73438 60.61979Q248.53125 59.74479 248.17188 58.93229Q247.9375 58.416664 247.23438 57.18229L247.98438 57.18229Q249.07812 58.65104 249.60938 60.135414Q250.0625 61.416664 250.0625 62.80729Q250.0625 64.385414 249.45312 65.86979Q248.84375 67.33854 247.98438 68.447914Z" fill-rule="nonzero"/><path fill="#8e7cc3" d="M266.5 56.916668C266.5 56.364384 266.94772 55.916668 267.5 55.916668L277.5 55.916668C278.05228 55.916668 278.5 56.364384 278.5 56.916668L278.5 66.916664C278.5 67.46895 278.05228 67.916664 277.5 67.916664L267.5 67.916664C266.94772 67.916664 266.5 67.46895 266.5 66.916664Z" fill-rule="nonzero"/><path fill="#1a1a1a" d="M287.625 65.916664L287.625 57.322914L288.75 57.322914L288.75 65.916664L287.625 65.916664ZM295.54688 64.90104L295.54688 65.916664L289.85938 65.916664Q289.85938 65.541664 289.98438 65.18229Q290.20312 64.604164 290.67188 64.041664Q291.15625 63.479164 292.0625 62.74479Q293.46875 61.58854 293.95312 60.916664Q294.45312 60.24479 294.45312 59.65104Q294.45312 59.02604 294.0 58.604164Q293.54688 58.166664 292.82812 58.166664Q292.0625 58.166664 291.60938 58.61979Q291.15625 59.072914 291.14062 59.885414L290.0625 59.77604Q290.17188 58.55729 290.89062 57.93229Q291.625 57.291664 292.85938 57.291664Q294.09375 57.291664 294.8125 57.979164Q295.53125 58.666664 295.53125 59.68229Q295.53125 60.197914 295.3125 60.697914Q295.10938 61.18229 294.60938 61.74479Q294.125 62.291664 293.0 63.24479Q292.04688 64.041664 291.76562 64.33854Q291.5 64.61979 291.32812 64.90104L295.54688 64.90104ZM302.3125 68.447914Q301.4375 67.33854 300.82812 65.86979Q300.23438 64.385414 300.23438 62.80729Q300.23438 61.416664 300.67188 60.135414Q301.20312 58.65104 302.3125 57.18229L303.0625 57.18229Q302.35938 58.40104 302.125 58.916664Q301.76562 59.729164 301.5625 60.604164Q301.3125 61.697914 301.3125 62.80729Q301.3125 65.635414 303.0625 68.447914L302.3125 68.447914ZM304.29688 65.916664L304.29688 59.697914L305.23438 59.697914L305.23438 60.572914Q305.53125 60.104164 306.01562 59.83854Q306.5 59.55729 307.125 59.55729Q307.8125 59.55729 308.25 59.83854Q308.70312 60.11979 308.875 60.635414Q309.625 59.55729 310.79688 59.55729Q311.73438 59.55729 312.21875 60.072914Q312.71875 60.572914 312.71875 61.65104L312.71875 65.916664L311.67188 65.916664L311.67188 61.99479Q311.67188 61.36979 311.5625 61.08854Q311.46875 60.80729 311.20312 60.635414Q310.9375 60.46354 310.5625 60.46354Q309.90625 60.46354 309.46875 60.90104Q309.04688 61.33854 309.04688 62.30729L309.04688 65.916664L307.98438 65.916664L307.98438 61.86979Q307.98438 61.166664 307.71875 60.822914Q307.46875 60.46354 306.89062 60.46354Q306.4375 60.46354 306.0625 60.697914Q305.6875 60.93229 305.51562 61.385414Q305.34375 61.83854 305.34375 62.68229L305.34375 65.916664L304.29688 65.916664ZM313.90625 62.80729Q313.90625 61.072914 314.85938 60.24479Q315.65625 59.55729 316.8125 59.55729Q318.09375 59.55729 318.90625 60.40104Q319.73438 61.229164 319.73438 62.71354Q319.73438 63.916664 319.375 64.604164Q319.01562 65.291664 318.3125 65.68229Q317.625 66.05729 316.8125 66.05729Q315.51562 66.05729 314.70312 65.229164Q313.90625 64.385414 313.90625 62.80729ZM314.98438 62.80729Q314.98438 63.99479 315.5 64.58854Q316.03125 65.18229 316.8125 65.18229Q317.60938 65.18229 318.125 64.58854Q318.64062 63.99479 318.64062 62.77604Q318.64062 61.61979 318.10938 61.02604Q317.59375 60.43229 316.8125 60.43229Q316.03125 60.43229 315.5 61.02604Q314.98438 61.604164 314.98438 62.80729ZM321.26562 65.916664L321.26562 57.322914L322.32812 57.322914L322.32812 65.916664L321.26562 65.916664ZM323.5 66.05729L325.98438 57.18229L326.82812 57.18229L324.34375 66.05729L323.5 66.05729ZM327.375 65.916664L327.375 57.322914L328.51562 57.322914L328.51562 64.90104L332.75 64.90104L332.75 65.916664L327.375 65.916664ZM334.98438 68.447914L334.23438 68.447914Q335.98438 65.635414 335.98438 62.80729Q335.98438 61.71354 335.73438 60.61979Q335.53125 59.74479 335.17188 58.93229Q334.9375 58.416664 334.23438 57.18229L334.98438 57.18229Q336.07812 58.65104 336.60938 60.135414Q337.0625 61.416664 337.0625 62.80729Q337.0625 64.385414 336.45312 65.86979Q335.84375 67.33854 334.98438 68.447914Z" fill-rule="nonzero"/><path fill="#ffd966" d="M353.5 56.916668C353.5 56.364384 353.94772 55.916668 354.5 55.916668L364.5 55.916668C365.05228 55.916668 365.5 56.364384 365.5 56.916668L365.5 66.916664C365.5 67.46895 365.05228 67.916664 364.5 67.916664L354.5 67.916664C353.94772 67.916664 353.5 67.46895 353.5 66.916664Z" fill-rule="nonzero"/><path fill="#1a1a1a" d="M374.46875 65.916664L374.46875 57.322914L375.59375 57.322914L375.59375 60.854164L380.0625 60.854164L380.0625 57.322914L381.20312 57.322914L381.20312 65.916664L380.0625 65.916664L380.0625 61.86979L375.59375 61.86979L375.59375 65.916664L374.46875 65.916664ZM383.625 65.916664L383.625 57.322914L384.75 57.322914L384.75 65.916664L383.625 65.916664ZM391.3125 68.447914Q390.4375 67.33854 389.82812 65.86979Q389.23438 64.385414 389.23438 62.80729Q389.23438 61.416664 389.67188 60.135414Q390.20312 58.65104 391.3125 57.18229L392.0625 57.18229Q391.35938 58.40104 391.125 58.916664Q390.76562 59.729164 390.5625 60.604164Q390.3125 61.697914 390.3125 62.80729Q390.3125 65.635414 392.0625 68.447914L391.3125 68.447914ZM393.29688 65.916664L393.29688 59.697914L394.23438 59.697914L394.23438 60.572914Q394.53125 60.104164 395.01562 59.83854Q395.5 59.55729 396.125 59.55729Q396.8125 59.55729 397.25 59.83854Q397.70312 60.11979 397.875 60.635414Q398.625 59.55729 399.79688 59.55729Q400.73438 59.55729 401.21875 60.072914Q401.71875 60.572914 401.71875 61.65104L401.71875 65.916664L400.67188 65.916664L400.67188 61.99479Q400.67188 61.36979 400.5625 61.08854Q400.46875 60.80729 400.20312 60.635414Q399.9375 60.46354 399.5625 60.46354Q398.90625 60.46354 398.46875 60.90104Q398.04688 61.33854 398.04688 62.30729L398.04688 65.916664L396.98438 65.916664L396.98438 61.86979Q396.98438 61.166664 396.71875 60.822914Q396.46875 60.46354 395.89062 60.46354Q395.4375 60.46354 395.0625 60.697914Q394.6875 60.93229 394.51562 61.385414Q394.34375 61.83854 394.34375 62.68229L394.34375 65.916664L393.29688 65.916664ZM402.90625 62.80729Q402.90625 61.072914 403.85938 60.24479Q404.65625 59.55729 405.8125 59.55729Q407.09375 59.55729 407.90625 60.40104Q408.73438 61.229164 408.73438 62.71354Q408.73438 63.916664 408.375 64.604164Q408.01562 65.291664 407.3125 65.68229Q406.625 66.05729 405.8125 66.05729Q404.51562 66.05729 403.70312 65.229164Q402.90625 64.385414 402.90625 62.80729ZM403.98438 62.80729Q403.98438 63.99479 404.5 64.58854Q405.03125 65.18229 405.8125 65.18229Q406.60938 65.18229 407.125 64.58854Q407.64062 63.99479 407.64062 62.77604Q407.64062 61.61979 407.10938 61.02604Q406.59375 60.43229 405.8125 60.43229Q405.03125 60.43229 404.5 61.02604Q403.98438 61.604164 403.98438 62.80729ZM410.26562 65.916664L410.26562 57.322914L411.32812 57.322914L411.32812 65.916664L410.26562 65.916664ZM412.5 66.05729L414.98438 57.18229L415.82812 57.18229L413.34375 66.05729L412.5 66.05729ZM416.375 65.916664L416.375 57.322914L417.51562 57.322914L417.51562 64.90104L421.75 64.90104L421.75 65.916664L416.375 65.916664ZM423.98438 68.447914L423.23438 68.447914Q424.98438 65.635414 424.98438 62.80729Q424.98438 61.71354 424.73438 60.61979Q424.53125 59.74479 424.17188 58.93229Q423.9375 58.416664 423.23438 57.18229L423.98438 57.18229Q425.07812 58.65104 425.60938 60.135414Q426.0625 61.416664 426.0625 62.80729Q426.0625 64.385414 425.45312 65.86979Q424.84375 67.33854 423.98438 68.447914Z" fill-rule="nonzero"/><path fill="#757575" d="M20.159374 37.55L20.159374 23.2375L22.05 23.2375L22.05 29.1125L29.4875 29.1125L29.4875 23.2375L31.378124 23.2375L31.378124 37.55L29.4875 37.55L29.4875 30.8L22.05 30.8L22.05 37.55L20.159374 37.55ZM42.6125 35.8625L42.6125 37.55L33.159374 37.55Q33.14375 36.909374 33.3625 36.33125Q33.721874 35.3625 34.51875 34.425Q35.315624 33.4875 36.815624 32.253124Q39.159374 30.346874 39.971874 29.2375Q40.8 28.1125 40.8 27.1125Q40.8 26.065624 40.05 25.346874Q39.3 24.628124 38.096874 24.628124Q36.83125 24.628124 36.065624 25.39375Q35.3 26.159374 35.3 27.503124L33.4875 27.315624Q33.675 25.3 34.878124 24.2375Q36.096874 23.175 38.14375 23.175Q40.190624 23.175 41.39375 24.315624Q42.596874 25.45625 42.596874 27.14375Q42.596874 28.003124 42.2375 28.846874Q41.89375 29.675 41.08125 30.596874Q40.26875 31.503124 38.378124 33.1125Q36.784374 34.440624 36.33125 34.909374Q35.89375 35.378124 35.596874 35.8625L42.6125 35.8625ZM54.221874 41.753124Q52.76875 39.925 51.76875 37.471874Q50.76875 35.003124 50.76875 32.3625Q50.76875 30.034374 51.51875 27.909374Q52.39375 25.440624 54.221874 22.9875L55.4875 22.9875Q54.3 25.01875 53.925 25.89375Q53.33125 27.2375 52.9875 28.70625Q52.565624 30.534374 52.565624 32.378124Q52.565624 37.065624 55.4875 41.753124L54.221874 41.753124ZM57.8625 37.55L57.8625 27.175L59.440624 27.175L59.440624 28.628124Q59.925 27.878124 60.7375 27.409374Q61.55 26.940624 62.58125 26.940624Q63.7375 26.940624 64.47188 27.425Q65.20625 27.89375 65.51875 28.753124Q66.75313 26.940624 68.72188 26.940624Q70.26875 26.940624 71.09688 27.8Q71.925 28.659374 71.925 30.425L71.925 37.55L70.175 37.55L70.175 31.01875Q70.175 29.95625 70.00313 29.503124Q69.83125 29.034374 69.37813 28.753124Q68.94063 28.471874 68.33125 28.471874Q67.2375 28.471874 66.50313 29.20625Q65.78438 29.925 65.78438 31.51875L65.78438 37.55L64.03438 37.55L64.03438 30.815624Q64.03438 29.64375 63.596874 29.065624Q63.175 28.471874 62.190624 28.471874Q61.45625 28.471874 60.815624 28.8625Q60.190624 29.253124 59.909374 30.003124Q59.628124 30.753124 59.628124 32.175L59.628124 37.55L57.8625 37.55ZM74.22188 32.3625Q74.22188 29.4875 75.81563 28.096874Q77.15938 26.940624 79.08125 26.940624Q81.22188 26.940624 82.56563 28.346874Q83.925 29.753124 83.925 32.221874Q83.925 34.221874 83.33125 35.378124Q82.7375 36.51875 81.58125 37.159374Q80.44063 37.784374 79.08125 37.784374Q76.89375 37.784374 75.55 36.39375Q74.22188 34.9875 74.22188 32.3625ZM76.01875 32.3625Q76.01875 34.3625 76.87813 35.346874Q77.75313 36.33125 79.08125 36.33125Q80.39375 36.33125 81.25313 35.346874Q82.12813 34.346874 82.12813 32.3Q82.12813 30.378124 81.25313 29.39375Q80.37813 28.39375 79.08125 28.39375Q77.75313 28.39375 76.87813 29.39375Q76.01875 30.378124 76.01875 32.3625ZM85.83125 37.55L85.83125 23.2375L87.58125 23.2375L87.58125 37.55L85.83125 37.55ZM88.55 37.8L92.70625 22.9875L94.1125 22.9875L89.97188 37.8L88.55 37.8ZM96.01875 37.55L96.01875 23.2375L97.90938 23.2375L97.90938 35.8625L104.95625 35.8625L104.95625 37.55L96.01875 37.55ZM108.01875 41.753124L106.76875 41.753124Q109.675 37.065624 109.675 32.378124Q109.675 30.534374 109.26875 28.7375Q108.925 27.26875 108.33125 25.925Q107.95625 25.034374 106.76875 22.9875L108.01875 22.9875Q109.8625 25.440624 110.7375 27.909374Q111.4875 30.034374 111.4875 32.3625Q111.4875 35.003124 110.47188 37.471874Q109.47188 39.925 108.01875 41.753124ZM114.33125 37.55L114.33125 35.55L116.33125 35.55L116.33125 37.55Q116.33125 38.659374 115.94063 39.33125Q115.55 40.01875 114.70625 40.378124L114.20625 39.628124Q114.76875 39.39375 115.03438 38.909374Q115.3 38.440624 115.33125 37.55L114.33125 37.55ZM126.40938 37.55L126.40938 23.2375L128.31563 23.2375L128.31563 37.55L126.40938 37.55ZM140.6125 35.8625L140.6125 37.55L131.15938 37.55Q131.14375 36.909374 131.3625 36.33125Q131.72188 35.3625 132.51875 34.425Q133.31563 33.4875 134.81563 32.253124Q137.15938 30.346874 137.97188 29.2375Q138.8 28.1125 138.8 27.1125Q138.8 26.065624 138.05 25.346874Q137.3 24.628124 136.09688 24.628124Q134.83125 24.628124 134.06563 25.39375Q133.3 26.159374 133.3 27.503124L131.4875 27.315624Q131.675 25.3 132.87813 24.2375Q134.09688 23.175 136.14375 23.175Q138.19063 23.175 139.39375 24.315624Q140.59688 25.45625 140.59688 27.14375Q140.59688 28.003124 140.2375 28.846874Q139.89375 29.675 139.08125 30.596874Q138.26875 31.503124 136.37813 33.1125Q134.78438 34.440624 134.33125 34.909374Q133.89375 35.378124 133.59688 35.8625L140.6125 35.8625ZM152.22188 41.753124Q150.76875 39.925 149.76875 37.471874Q148.76875 35.003124 148.76875 32.3625Q148.76875 30.034374 149.51875 27.909374Q150.39375 25.440624 152.22188 22.9875L153.4875 22.9875Q152.3 25.01875 151.925 25.89375Q151.33125 27.2375 150.9875 28.70625Q150.56563 30.534374 150.56563 32.378124Q150.56563 37.065624 153.4875 41.753124L152.22188 41.753124ZM155.8625 37.55L155.8625 27.175L157.44063 27.175L157.44063 28.628124Q157.925 27.878124 158.7375 27.409374Q159.55 26.940624 160.58125 26.940624Q161.7375 26.940624 162.47188 27.425Q163.20625 27.89375 163.51875 28.753124Q164.75313 26.940624 166.72188 26.940624Q168.26875 26.940624 169.09688 27.8Q169.925 28.659374 169.925 30.425L169.925 37.55L168.175 37.55L168.175 31.01875Q168.175 29.95625 168.00313 29.503124Q167.83125 29.034374 167.37813 28.753124Q166.94063 28.471874 166.33125 28.471874Q165.2375 28.471874 164.50313 29.20625Q163.78438 29.925 163.78438 31.51875L163.78438 37.55L162.03438 37.55L162.03438 30.815624Q162.03438 29.64375 161.59688 29.065624Q161.175 28.471874 160.19063 28.471874Q159.45625 28.471874 158.81563 28.8625Q158.19063 29.253124 157.90938 30.003124Q157.62813 30.753124 157.62813 32.175L157.62813 37.55L155.8625 37.55ZM172.22188 32.3625Q172.22188 29.4875 173.81563 28.096874Q175.15938 26.940624 177.08125 26.940624Q179.22188 26.940624 180.56563 28.346874Q181.925 29.753124 181.925 32.221874Q181.925 34.221874 181.33125 35.378124Q180.7375 36.51875 179.58125 37.159374Q178.44063 37.784374 177.08125 37.784374Q174.89375 37.784374 173.55 36.39375Q172.22188 34.9875 172.22188 32.3625ZM174.01875 32.3625Q174.01875 34.3625 174.87813 35.346874Q175.75313 36.33125 177.08125 36.33125Q178.39375 36.33125 179.25313 35.346874Q180.12813 34.346874 180.12813 32.3Q180.12813 30.378124 179.25313 29.39375Q178.37813 28.39375 177.08125 28.39375Q175.75313 28.39375 174.87813 29.39375Q174.01875 30.378124 174.01875 32.3625ZM183.83125 37.55L183.83125 23.2375L185.58125 23.2375L185.58125 37.55L183.83125 37.55ZM186.55 37.8L190.70625 22.9875L192.1125 22.9875L187.97188 37.8L186.55 37.8ZM194.01875 37.55L194.01875 23.2375L195.90938 23.2375L195.90938 35.8625L202.95625 35.8625L202.95625 37.55L194.01875 37.55ZM206.01875 41.753124L204.76875 41.753124Q207.675 37.065624 207.675 32.378124Q207.675 30.534374 207.26875 28.7375Q206.925 27.26875 206.33125 25.925Q205.95625 25.034374 204.76875 22.9875L206.01875 22.9875Q207.8625 25.440624 208.7375 27.909374Q209.4875 30.034374 209.4875 32.3625Q209.4875 35.003124 208.47188 37.471874Q207.47188 39.925 206.01875 41.753124ZM224.64375 36.26875Q223.65938 37.096874 222.75313 37.440624Q221.84688 37.784374 220.81563 37.784374Q219.1125 37.784374 218.19063 36.95625Q217.26875 36.1125 217.26875 34.815624Q217.26875 34.05 217.6125 33.425Q217.97188 32.8 218.53438 32.425Q219.09688 32.034374 219.8 31.83125Q220.31563 31.70625 221.3625 31.565624Q223.4875 31.315624 224.4875 30.971874Q224.50313 30.6125 224.50313 30.503124Q224.50313 29.440624 224.00313 28.9875Q223.33125 28.39375 222.00313 28.39375Q220.75313 28.39375 220.15938 28.83125Q219.58125 29.26875 219.3 30.378124L217.58125 30.14375Q217.81563 29.034374 218.34688 28.3625Q218.87813 27.675 219.89375 27.315624Q220.90938 26.940624 222.25313 26.940624Q223.58125 26.940624 224.40938 27.253124Q225.2375 27.565624 225.62813 28.05Q226.01875 28.51875 226.175 29.2375Q226.26875 29.690624 226.26875 30.8625L226.26875 33.20625Q226.26875 35.659374 226.37813 36.315624Q226.4875 36.95625 226.83125 37.55L224.9875 37.55Q224.72188 37.003124 224.64375 36.26875ZM224.4875 32.346874Q223.53438 32.7375 221.6125 33.003124Q220.53438 33.159374 220.08125 33.3625Q219.64375 33.55 219.39375 33.925Q219.14375 34.3 219.14375 34.76875Q219.14375 35.471874 219.675 35.940624Q220.20625 36.409374 221.2375 36.409374Q222.25313 36.409374 223.03438 35.971874Q223.83125 35.51875 224.20625 34.753124Q224.4875 34.14375 224.4875 32.9875L224.4875 32.346874ZM228.8625 37.55L228.8625 27.175L230.45625 27.175L230.45625 28.659374Q231.59688 26.940624 233.75313 26.940624Q234.69063 26.940624 235.47188 27.284374Q236.26875 27.6125 236.65938 28.159374Q237.05 28.70625 237.20625 29.45625Q237.3 29.95625 237.3 31.175L237.3 37.55L235.53438 37.55L235.53438 31.2375Q235.53438 30.159374 235.33125 29.628124Q235.12813 29.096874 234.59688 28.784374Q234.08125 28.471874 233.37813 28.471874Q232.25313 28.471874 231.44063 29.190624Q230.62813 29.89375 230.62813 31.878124L230.62813 37.55L228.8625 37.55ZM246.59688 37.55L246.59688 36.2375Q245.6125 37.784374 243.69063 37.784374Q242.45625 37.784374 241.40938 37.096874Q240.37813 36.409374 239.8 35.190624Q239.2375 33.971874 239.2375 32.378124Q239.2375 30.815624 239.75313 29.55Q240.26875 28.284374 241.3 27.6125Q242.34688 26.940624 243.6125 26.940624Q244.55 26.940624 245.28438 27.346874Q246.01875 27.7375 246.4875 28.3625L246.4875 23.2375L248.22188 23.2375L248.22188 37.55L246.59688 37.55ZM241.03438 32.378124Q241.03438 34.3625 241.87813 35.346874Q242.72188 36.33125 243.8625 36.33125Q245.01875 36.33125 245.81563 35.39375Q246.62813 34.45625 246.62813 32.51875Q246.62813 30.39375 245.8 29.39375Q244.9875 28.39375 243.78438 28.39375Q242.6125 28.39375 241.81563 29.3625Q241.03438 30.315624 241.03438 32.378124ZM257.15936 37.55L257.15936 23.2375L259.05 23.2375L259.05 29.1125L266.4875 29.1125L266.4875 23.2375L268.3781 23.2375L268.3781 37.55L266.4875 37.55L266.4875 30.8L259.05 30.8L259.05 37.55L257.15936 37.55ZM271.40936 37.55L271.40936 23.2375L273.3156 23.2375L273.3156 37.55L271.40936 37.55ZM286.22186 41.753124Q284.76874 39.925 283.76874 37.471874Q282.76874 35.003124 282.76874 32.3625Q282.76874 30.034374 283.51874 27.909374Q284.39374 25.440624 286.22186 22.9875L287.4875 22.9875Q286.3 25.01875 285.925 25.89375Q285.33124 27.2375 284.9875 28.70625Q284.5656 30.534374 284.5656 32.378124Q284.5656 37.065624 287.4875 41.753124L286.22186 41.753124ZM289.8625 37.55L289.8625 27.175L291.4406 27.175L291.4406 28.628124Q291.925 27.878124 292.7375 27.409374Q293.55 26.940624 294.58124 26.940624Q295.7375 26.940624 296.47186 27.425Q297.20624 27.89375 297.51874 28.753124Q298.7531 26.940624 300.72186 26.940624Q302.26874 26.940624 303.09686 27.8Q303.925 28.659374 303.925 30.425L303.925 37.55L302.175 37.55L302.175 31.01875Q302.175 29.95625 302.0031 29.503124Q301.83124 29.034374 301.3781 28.753124Q300.9406 28.471874 300.33124 28.471874Q299.2375 28.471874 298.5031 29.20625Q297.78436 29.925 297.78436 31.51875L297.78436 37.55L296.03436 37.55L296.03436 30.815624Q296.03436 29.64375 295.59686 29.065624Q295.175 28.471874 294.1906 28.471874Q293.45624 28.471874 292.8156 28.8625Q292.1906 29.253124 291.90936 30.003124Q291.6281 30.753124 291.6281 32.175L291.6281 37.55L289.8625 37.55ZM306.22186 32.3625Q306.22186 29.4875 307.8156 28.096874Q309.15936 26.940624 311.08124 26.940624Q313.22186 26.940624 314.5656 28.346874Q315.925 29.753124 315.925 32.221874Q315.925 34.221874 315.33124 35.378124Q314.7375 36.51875 313.58124 37.159374Q312.4406 37.784374 311.08124 37.784374Q308.89374 37.784374 307.55 36.39375Q306.22186 34.9875 306.22186 32.3625ZM308.01874 32.3625Q308.01874 34.3625 308.8781 35.346874Q309.7531 36.33125 311.08124 36.33125Q312.39374 36.33125 313.2531 35.346874Q314.1281 34.346874 314.1281 32.3Q314.1281 30.378124 313.2531 29.39375Q312.3781 28.39375 311.08124 28.39375Q309.7531 28.39375 308.8781 29.39375Q308.01874 30.378124 308.01874 32.3625ZM317.83124 37.55L317.83124 23.2375L319.58124 23.2375L319.58124 37.55L317.83124 37.55ZM320.55 37.8L324.70624 22.9875L326.1125 22.9875L321.97186 37.8L320.55 37.8ZM328.01874 37.55L328.01874 23.2375L329.90936 23.2375L329.90936 35.8625L336.95624 35.8625L336.95624 37.55L328.01874 37.55ZM340.01874 41.753124L338.76874 41.753124Q341.675 37.065624 341.675 32.378124Q341.675 30.534374 341.26874 28.7375Q340.925 27.26875 340.33124 25.925Q339.95624 25.034374 338.76874 22.9875L340.01874 22.9875Q341.8625 25.440624 342.7375 27.909374Q343.4875 30.034374 343.4875 32.3625Q343.4875 35.003124 342.47186 37.471874Q341.47186 39.925 340.01874 41.753124Z" fill-rule="nonzero"/></svg>