<?xml version="1.0" encoding="UTF-8"?>
<!-- Generator: Adobe Illustrator 16.0.0, SVG Export Plug-In . SVG Version: 6.00 Build 0)  -->
<!DOCTYPE svg PUBLIC "-//W3C//DTD SVG 1.1//EN" "http://www.w3.org/Graphics/SVG/1.1/DTD/svg11.dtd">
<svg xmlns="http://www.w3.org/2000/svg" xmlns:xlink="http://www.w3.org/1999/xlink" version="1.1" id="Layer_1" x="0px" y="0px" width="841.89px" height="595.281px" viewBox="0 0 841.89 595.281" enable-background="new 0 0 841.89 595.281" xml:space="preserve">
<polygon fill="#FFFFFF" stroke="#000000" stroke-width="1.2304" stroke-miterlimit="10" points="665.945,552.806 175.944,552.806   420.944,42.473 "/>
<line fill="none" stroke="#000000" stroke-width="1.3449" stroke-miterlimit="10" x1="384.354" y1="118.69" x2="457.535" y2="118.69"/>
<line fill="none" stroke="#000000" stroke-width="1.2304" stroke-miterlimit="10" x1="359.694" y1="170.056" x2="482.195" y2="170.056"/>
<line fill="none" stroke="#000000" stroke-width="1.2304" stroke-miterlimit="10" x1="329.069" y1="233.848" x2="512.82" y2="233.848"/>
<line fill="none" stroke="#000000" stroke-width="1.2304" stroke-miterlimit="10" x1="298.444" y1="297.64" x2="543.445" y2="297.64"/>
<line fill="none" stroke="#000000" stroke-width="1.2304" stroke-miterlimit="10" x1="267.82" y1="361.431" x2="574.07" y2="361.431"/>
<line fill="none" stroke="#000000" stroke-width="1.2304" stroke-miterlimit="10" x1="237.195" y1="425.224" x2="604.695" y2="425.224"/>
<line fill="none" stroke="#000000" stroke-width="1.2304" stroke-miterlimit="10" x1="206.569" y1="489.015" x2="635.32" y2="489.015"/>
<line fill="none" stroke="#000000" stroke-width="1.2304" stroke-miterlimit="10" x1="175.944" y1="552.806" x2="665.945" y2="552.806"/>
<rect x="397.694" y="95.015" fill="none" width="46.5" height="13.75"/>
<switch><text transform="matrix(1 0 0 1 400.6641 114.2654)" font-family="'TimesNewRomanPSMT'" font-size="12" id="trsvg13-fa" systemLanguage="fa"><tspan id="trsvg1-fa">امپراتور</tspan></text><text transform="matrix(1 0 0 1 400.6641 114.2654)" font-family="'TimesNewRomanPSMT'" font-size="12" id="trsvg13"><tspan id="trsvg1">Emperor</tspan></text></switch>
<rect x="369.444" y="219.348" fill="none" width="103" height="17.5"/>
<switch><text transform="matrix(1 0 0 1 403.3193 227.6892)" font-family="'TimesNewRomanPSMT'" font-size="12" id="trsvg14-fa" systemLanguage="fa"><tspan id="trsvg2-fa">شوگون </tspan></text><text transform="matrix(1 0 0 1 403.3193 227.6892)" font-family="'TimesNewRomanPSMT'" font-size="12" id="trsvg14"><tspan id="trsvg2">Shogun</tspan></text></switch>
<rect x="367.195" y="156.695" fill="none" width="107.5" height="19.5"/>
<switch><text transform="matrix(1 0 0 1 386.4873 165.0349)" font-family="'TimesNewRomanPSMT'" font-size="12" id="trsvg15-fa" systemLanguage="fa"><tspan id="trsvg3-fa">اشراف دربار</tspan></text><text transform="matrix(1 0 0 1 386.4873 165.0349)" font-family="'TimesNewRomanPSMT'" font-size="12" id="trsvg15"><tspan id="trsvg3">Court Nobility</tspan></text></switch>
<rect x="389.944" y="284.14" fill="none" width="62" height="13.5"/>
<switch><text transform="matrix(1 0 0 1 402.3252 292.4802)" font-family="'TimesNewRomanPSMT'" font-size="12" id="trsvg16-fa" systemLanguage="fa"><tspan id="trsvg4-fa">دایمیو</tspan></text><text transform="matrix(1 0 0 1 402.3252 292.4802)" font-family="'TimesNewRomanPSMT'" font-size="12" id="trsvg16"><tspan id="trsvg4">Daimyo</tspan></text></switch>
<rect x="358.278" y="347.73" fill="none" width="125.334" height="16.702"/>
<switch><text transform="matrix(1 0 0 1 401.6602 356.0701)" font-family="'TimesNewRomanPSMT'" font-size="12" id="trsvg17-fa" systemLanguage="fa"><tspan id="trsvg5-fa">سامورایی</tspan></text><text transform="matrix(1 0 0 1 401.6602 356.0701)" font-family="'TimesNewRomanPSMT'" font-size="12" id="trsvg17"><tspan id="trsvg5">Samurai</tspan></text></switch>
<rect x="381.695" y="409.695" fill="none" width="78.5" height="13.5"/>
<switch><text transform="matrix(1 0 0 1 400.2813 418.0349)" font-family="'TimesNewRomanPSMT'" font-size="12" id="trsvg18-fa" systemLanguage="fa"><tspan id="trsvg6-fa">دهقان</tspan></text><text transform="matrix(1 0 0 1 400.2813 418.0349)" font-family="'TimesNewRomanPSMT'" font-size="12" id="trsvg18"><tspan id="trsvg6">Peasants</tspan></text></switch>
<rect x="390.695" y="475.015" fill="none" width="60.5" height="14"/>
<switch><text transform="matrix(1 0 0 1 396.6621 483.3552)" font-family="'TimesNewRomanPSMT'" font-size="12" id="trsvg19-fa" systemLanguage="fa"><tspan id="trsvg7-fa">صنعتگر</tspan></text><text transform="matrix(1 0 0 1 396.6621 483.3552)" font-family="'TimesNewRomanPSMT'" font-size="12" id="trsvg19"><tspan id="trsvg7">Craftsmen</tspan></text></switch>
<rect x="380.945" y="538.445" fill="none" width="80" height="11.5"/>
<switch><text transform="matrix(1 0 0 1 395.6211 546.7849)" font-family="'TimesNewRomanPSMT'" font-size="12" id="trsvg20-fa" systemLanguage="fa"><tspan id="trsvg8-fa">کاسب</tspan></text><text transform="matrix(1 0 0 1 395.6211 546.7849)" font-family="'TimesNewRomanPSMT'" font-size="12" id="trsvg20"><tspan id="trsvg8">Merchants</tspan></text></switch>
<line fill="none" stroke="#000000" stroke-miterlimit="10" x1="482.195" y1="42.473" x2="482.195" y2="170.056"/>
<switch><text transform="matrix(1 0 0 1 515.0444 101.8904)" font-family="'Calibri-Light'" font-size="14" id="trsvg21-fa" systemLanguage="fa"><tspan id="trsvg9-fa">امپراتور تشریفاتی و</tspan></text><text transform="matrix(1 0 0 1 515.0444 101.8904)" font-family="'Calibri-Light'" font-size="14" id="trsvg21"><tspan id="trsvg9">Figurehead and</tspan></text></switch>
<switch><text transform="matrix(1 0 0 1 501.7319 118.6902)" font-family="'Calibri-Light'" font-size="14" id="trsvg22-fa" systemLanguage="fa"><tspan id="trsvg10-fa">درباریان حاکم اسمی</tspan></text><text transform="matrix(1 0 0 1 501.7319 118.6902)" font-family="'Calibri-Light'" font-size="14" id="trsvg22"><tspan id="trsvg10">nominal ruling court</tspan></text></switch>
<line fill="none" stroke="#000000" stroke-miterlimit="10" x1="574.07" y1="170.056" x2="574.07" y2="361.431"/>
<rect x="574.07" y="254.778" fill="none" width="134.666" height="36.112"/>
<switch><text transform="matrix(1 0 0 1 588.2183 264.2703)" font-family="'Calibri-Light'" font-size="14" id="trsvg23-fa" systemLanguage="fa"><tspan id="trsvg11-fa">سران نظامی و</tspan></text><text transform="matrix(1 0 0 1 588.2183 264.2703)" font-family="'Calibri-Light'" font-size="14" id="trsvg23"><tspan id="trsvg11">Military leader and</tspan></text></switch>
<switch><text transform="matrix(1 0 0 1 591.8999 281.0701)" font-family="'Calibri-Light'" font-size="14" id="trsvg24-fa" systemLanguage="fa"><tspan id="trsvg12-fa">طبقه واقعی حکمران</tspan></text><text transform="matrix(1 0 0 1 591.8999 281.0701)" font-family="'Calibri-Light'" font-size="14" id="trsvg24"><tspan id="trsvg12">actual ruling class</tspan></text></switch>
</svg>