<svg xmlns="http://www.w3.org/2000/svg" xmlns:xlink="http://www.w3.org/1999/xlink" id="Layer_1" width="841.89" height="595.281" x="0" y="0" enable-background="new 0 0 841.89 595.281" version="1.1" viewBox="0 0 841.89 595.281" xml:space="preserve"><polygon fill="#FFF" stroke="#000" stroke-miterlimit="10" stroke-width="1.23" points="665.945 552.806 175.944 552.806 420.944 42.473"/><line x1="384.354" x2="457.535" y1="118.69" y2="118.69" fill="none" stroke="#000" stroke-miterlimit="10" stroke-width="1.345"/><line x1="359.694" x2="482.195" y1="170.056" y2="170.056" fill="none" stroke="#000" stroke-miterlimit="10" stroke-width="1.23"/><line x1="329.069" x2="512.82" y1="233.848" y2="233.848" fill="none" stroke="#000" stroke-miterlimit="10" stroke-width="1.23"/><line x1="298.444" x2="543.445" y1="297.64" y2="297.64" fill="none" stroke="#000" stroke-miterlimit="10" stroke-width="1.23"/><line x1="267.82" x2="574.07" y1="361.431" y2="361.431" fill="none" stroke="#000" stroke-miterlimit="10" stroke-width="1.23"/><line x1="237.195" x2="604.695" y1="425.224" y2="425.224" fill="none" stroke="#000" stroke-miterlimit="10" stroke-width="1.23"/><line x1="206.569" x2="635.32" y1="489.015" y2="489.015" fill="none" stroke="#000" stroke-miterlimit="10" stroke-width="1.23"/><line x1="175.944" x2="665.945" y1="552.806" y2="552.806" fill="none" stroke="#000" stroke-miterlimit="10" stroke-width="1.23"/><rect width="46.5" height="13.75" x="397.694" y="95.015" fill="none"/><switch><text id="trsvg13-fa" font-family="'TimesNewRomanPSMT'" font-size="12" systemLanguage="fa" transform="matrix(1 0 0 1 400.6641 114.2654)"><tspan id="trsvg1-fa">امپراتور</tspan></text><text id="trsvg13" font-family="'TimesNewRomanPSMT'" font-size="12" transform="matrix(1 0 0 1 400.6641 114.2654)"><tspan id="trsvg1">Emperor</tspan></text></switch><rect width="103" height="17.5" x="369.444" y="219.348" fill="none"/><switch><text id="trsvg14-fa" font-family="'TimesNewRomanPSMT'" font-size="12" systemLanguage="fa" transform="matrix(1 0 0 1 403.3193 227.6892)"><tspan id="trsvg2-fa">شوگون</tspan></text><text id="trsvg14" font-family="'TimesNewRomanPSMT'" font-size="12" transform="matrix(1 0 0 1 403.3193 227.6892)"><tspan id="trsvg2">Shogun</tspan></text></switch><rect width="107.5" height="19.5" x="367.195" y="156.695" fill="none"/><switch><text id="trsvg15-fa" font-family="'TimesNewRomanPSMT'" font-size="12" systemLanguage="fa" transform="matrix(1 0 0 1 386.4873 165.0349)"><tspan id="trsvg3-fa">اشراف دربار</tspan></text><text id="trsvg15" font-family="'TimesNewRomanPSMT'" font-size="12" transform="matrix(1 0 0 1 386.4873 165.0349)"><tspan id="trsvg3">Court Nobility</tspan></text></switch><rect width="62" height="13.5" x="389.944" y="284.14" fill="none"/><switch><text id="trsvg16-fa" font-family="'TimesNewRomanPSMT'" font-size="12" systemLanguage="fa" transform="matrix(1 0 0 1 402.3252 292.4802)"><tspan id="trsvg4-fa">دایمیو</tspan></text><text id="trsvg16" font-family="'TimesNewRomanPSMT'" font-size="12" transform="matrix(1 0 0 1 402.3252 292.4802)"><tspan id="trsvg4">Daimyo</tspan></text></switch><rect width="125.334" height="16.702" x="358.278" y="347.73" fill="none"/><switch><text id="trsvg17-fa" font-family="'TimesNewRomanPSMT'" font-size="12" systemLanguage="fa" transform="matrix(1 0 0 1 401.6602 356.0701)"><tspan id="trsvg5-fa">سامورایی</tspan></text><text id="trsvg17" font-family="'TimesNewRomanPSMT'" font-size="12" transform="matrix(1 0 0 1 401.6602 356.0701)"><tspan id="trsvg5">Samurai</tspan></text></switch><rect width="78.5" height="13.5" x="381.695" y="409.695" fill="none"/><switch><text id="trsvg18-fa" font-family="'TimesNewRomanPSMT'" font-size="12" systemLanguage="fa" transform="matrix(1 0 0 1 400.2813 418.0349)"><tspan id="trsvg6-fa">دهقان</tspan></text><text id="trsvg18" font-family="'TimesNewRomanPSMT'" font-size="12" transform="matrix(1 0 0 1 400.2813 418.0349)"><tspan id="trsvg6">Peasants</tspan></text></switch><rect width="60.5" height="14" x="390.695" y="475.015" fill="none"/><switch><text id="trsvg19-fa" font-family="'TimesNewRomanPSMT'" font-size="12" systemLanguage="fa" transform="matrix(1 0 0 1 396.6621 483.3552)"><tspan id="trsvg7-fa">صنعتگر</tspan></text><text id="trsvg19" font-family="'TimesNewRomanPSMT'" font-size="12" transform="matrix(1 0 0 1 396.6621 483.3552)"><tspan id="trsvg7">Craftsmen</tspan></text></switch><rect width="80" height="11.5" x="380.945" y="538.445" fill="none"/><switch><text id="trsvg20-fa" font-family="'TimesNewRomanPSMT'" font-size="12" systemLanguage="fa" transform="matrix(1 0 0 1 395.6211 546.7849)"><tspan id="trsvg8-fa">کاسب</tspan></text><text id="trsvg20" font-family="'TimesNewRomanPSMT'" font-size="12" transform="matrix(1 0 0 1 395.6211 546.7849)"><tspan id="trsvg8">Merchants</tspan></text></switch><line x1="482.195" x2="482.195" y1="42.473" y2="170.056" fill="none" stroke="#000" stroke-miterlimit="10"/><switch><text id="trsvg21-fa" font-family="'Calibri-Light'" font-size="14" systemLanguage="fa" transform="matrix(1 0 0 1 515.0444 101.8904)"><tspan id="trsvg9-fa">امپراتور تشریفاتی و</tspan></text><text id="trsvg21" font-family="'Calibri-Light'" font-size="14" transform="matrix(1 0 0 1 515.0444 101.8904)"><tspan id="trsvg9">Figurehead and</tspan></text></switch><switch><text id="trsvg22-fa" font-family="'Calibri-Light'" font-size="14" systemLanguage="fa" transform="matrix(1 0 0 1 501.7319 118.6902)"><tspan id="trsvg10-fa">درباریان حاکم اسمی</tspan></text><text id="trsvg22" font-family="'Calibri-Light'" font-size="14" transform="matrix(1 0 0 1 501.7319 118.6902)"><tspan id="trsvg10">nominal ruling court</tspan></text></switch><line x1="574.07" x2="574.07" y1="170.056" y2="361.431" fill="none" stroke="#000" stroke-miterlimit="10"/><rect width="134.666" height="36.112" x="574.07" y="254.778" fill="none"/><switch><text id="trsvg23-fa" font-family="'Calibri-Light'" font-size="14" systemLanguage="fa" transform="matrix(1 0 0 1 588.2183 264.2703)"><tspan id="trsvg11-fa">سران نظامی و</tspan></text><text id="trsvg23" font-family="'Calibri-Light'" font-size="14" transform="matrix(1 0 0 1 588.2183 264.2703)"><tspan id="trsvg11">Military leader and</tspan></text></switch><switch><text id="trsvg24-fa" font-family="'Calibri-Light'" font-size="14" systemLanguage="fa" transform="matrix(1 0 0 1 591.8999 281.0701)"><tspan id="trsvg12-fa">طبقه واقعی حکمران</tspan></text><text id="trsvg24" font-family="'Calibri-Light'" font-size="14" transform="matrix(1 0 0 1 591.8999 281.0701)"><tspan id="trsvg12">actual ruling class</tspan></text></switch></svg>