<svg version="1.1" viewBox="0.0 0.0 600.0 371.0" fill="none" stroke="none" stroke-linecap="square" stroke-miterlimit="10" width="600" height="371" xmlns:xlink="http://www.w3.org/1999/xlink" xmlns="http://www.w3.org/2000/svg"><path fill="#ffffff" d="M0 0L600.0 0L600.0 371.0L0 371.0L0 0Z" fill-rule="nonzero"/><path stroke="#cccccc" stroke-width="1.0" stroke-linecap="butt" d="M55.5 88.5L55.5 300.5" fill-rule="nonzero"/><path stroke="#cccccc" stroke-width="1.0" stroke-linecap="butt" d="M185.5 88.5L185.5 300.5" fill-rule="nonzero"/><path stroke="#cccccc" stroke-width="1.0" stroke-linecap="butt" d="M315.5 88.5L315.5 300.5" fill-rule="nonzero"/><path stroke="#cccccc" stroke-width="1.0" stroke-linecap="butt" d="M446.5 88.5L446.5 300.5" fill-rule="nonzero"/><path stroke="#cccccc" stroke-width="1.0" stroke-linecap="butt" d="M576.5 88.5L576.5 300.5" fill-rule="nonzero"/><path stroke="#333333" stroke-width="1.0" stroke-linecap="butt" d="M45.5 300.5L581.5 300.5" fill-rule="nonzero"/><path stroke="#cccccc" stroke-width="1.0" stroke-linecap="butt" d="M45.5 229.5L581.5 229.5" fill-rule="nonzero"/><path stroke="#cccccc" stroke-width="1.0" stroke-linecap="butt" d="M45.5 159.5L581.5 159.5" fill-rule="nonzero"/><path stroke="#cccccc" stroke-width="1.0" stroke-linecap="butt" d="M45.5 88.5L581.5 88.5" fill-rule="nonzero"/><clipPath id="id_0"><path d="M45.55 88.28333L581.45 88.28333L581.45 300.45L45.55 300.45L45.55 88.28333Z" clip-rule="nonzero"/></clipPath><path stroke="#4285f4" stroke-width="2.0" stroke-linecap="butt" stroke-opacity="0.4" clip-path="url(#id_0)" d="M0 92.78622L581.45 112.85191" fill-rule="nonzero"/><path stroke="#ea4335" stroke-width="2.0" stroke-linecap="butt" stroke-opacity="0.4" clip-path="url(#id_0)" d="M0 302.2936L581.45 287.49503" fill-rule="nonzero"/><path stroke="#fbbc04" stroke-width="2.0" stroke-linecap="butt" stroke-opacity="0.4" clip-path="url(#id_0)" d="M0 302.2936L581.45 287.49503" fill-rule="nonzero"/><path fill="#4285f4" clip-path="url(#id_0)" d="M50.947582 90.4552L55.190224 93.19784L59.432865 90.4552L56.690224 94.69784L59.432865 98.94048L55.190224 96.19784L50.947582 98.94048L53.690224 94.69784Z" fill-rule="nonzero"/><path fill="#4285f4" clip-path="url(#id_0)" d="M176.48495 94.71268L180.7276 97.455315L184.97025 94.71268L182.2276 98.955315L184.97025 103.19796L180.7276 100.455315L176.48495 103.19796L179.2276 98.955315Z" fill-rule="nonzero"/><path fill="#4285f4" clip-path="url(#id_0)" d="M306.84567 99.32377L311.08832 102.06641L315.33096 99.32377L312.58832 103.56641L315.33096 107.809044L311.08832 105.06641L306.84567 107.809044L309.58832 103.56641Z" fill-rule="nonzero"/><path fill="#4285f4" clip-path="url(#id_0)" d="M437.20642 103.86413L441.44907 106.60677L445.69168 103.86413L442.94907 108.10677L445.69168 112.34941L441.44907 109.60677L437.20642 112.34941L439.94907 108.10677Z" fill-rule="nonzero"/><path fill="#4285f4" clip-path="url(#id_0)" d="M567.56714 108.206474L571.80975 110.94912L576.0524 108.206474L573.30975 112.44912L576.0524 116.69176L571.80975 113.94912L567.56714 116.69176L570.30975 112.44912Z" fill-rule="nonzero"/><path fill="#ea4335" clip-path="url(#id_0)" d="M50.947582 295.8867L55.190224 298.62933L59.432865 295.8867L56.690224 300.12933L59.432865 304.37198L55.190224 301.62933L50.947582 304.37198L53.690224 300.12933Z" fill-rule="nonzero"/><path fill="#ea4335" clip-path="url(#id_0)" d="M176.48495 295.67377L180.7276 298.4164L184.97025 295.67377L182.2276 299.9164L184.97025 304.15906L180.7276 301.4164L176.48495 304.15906L179.2276 299.9164Z" fill-rule="nonzero"/><path fill="#ea4335" clip-path="url(#id_0)" d="M306.84567 288.56512L311.08832 291.30777L315.33096 288.56512L312.58832 292.80777L315.33096 297.05038L311.08832 294.30777L306.84567 297.05038L309.58832 292.80777Z" fill-rule="nonzero"/><path fill="#ea4335" clip-path="url(#id_0)" d="M437.20642 286.29492L441.44907 289.03757L445.69168 286.29492L442.94907 290.53757L445.69168 294.7802L441.44907 292.03757L437.20642 294.7802L439.94907 290.53757Z" fill-rule="nonzero"/><path fill="#ea4335" clip-path="url(#id_0)" d="M567.56714 284.12375L571.80975 286.8664L576.0524 284.12375L573.30975 288.3664L576.0524 292.60904L571.80975 289.8664L567.56714 292.60904L570.30975 288.3664Z" fill-rule="nonzero"/><path fill="#fbbc04" clip-path="url(#id_0)" d="M50.947582 295.8867L55.190224 298.62933L59.432865 295.8867L56.690224 300.12933L59.432865 304.37198L55.190224 301.62933L50.947582 304.37198L53.690224 300.12933Z" fill-rule="nonzero"/><path fill="#fbbc04" clip-path="url(#id_0)" d="M176.48495 295.67377L180.7276 298.4164L184.97025 295.67377L182.2276 299.9164L184.97025 304.15906L180.7276 301.4164L176.48495 304.15906L179.2276 299.9164Z" fill-rule="nonzero"/><path fill="#fbbc04" clip-path="url(#id_0)" d="M306.84567 288.56512L311.08832 291.30777L315.33096 288.56512L312.58832 292.80777L315.33096 297.05038L311.08832 294.30777L306.84567 297.05038L309.58832 292.80777Z" fill-rule="nonzero"/><path fill="#fbbc04" clip-path="url(#id_0)" d="M437.20642 286.29492L441.44907 289.03757L445.69168 286.29492L442.94907 290.53757L445.69168 294.7802L441.44907 292.03757L437.20642 294.7802L439.94907 290.53757Z" fill-rule="nonzero"/><path fill="#fbbc04" clip-path="url(#id_0)" d="M567.56714 284.12375L571.80975 286.8664L576.0524 284.12375L573.30975 288.3664L576.0524 292.60904L571.80975 289.8664L567.56714 292.60904L570.30975 288.3664Z" fill-rule="nonzero"/><path fill="#000000" d="M281.60938 349.45L281.60938 341.8719L278.78125 341.8719L278.78125 340.85626L285.59375 340.85626L285.59375 341.8719L282.75 341.8719L282.75 349.45L281.60938 349.45ZM290.54688 347.45L291.64062 347.575Q291.39062 348.52814 290.6875 349.0594Q289.98438 349.59064 288.90625 349.59064Q287.54688 349.59064 286.73438 348.7469Q285.9375 347.90314 285.9375 346.3875Q285.9375 344.825 286.75 343.96564Q287.5625 343.09064 288.84375 343.09064Q290.09375 343.09064 290.875 343.9344Q291.67188 344.77814 291.67188 346.325Q291.67188 346.41876 291.67188 346.60626L287.03125 346.60626Q287.09375 347.6375 287.60938 348.1844Q288.125 348.71564 288.90625 348.71564Q289.48438 348.71564 289.89062 348.41876Q290.3125 348.10626 290.54688 347.45ZM287.09375 345.7469L290.5625 345.7469Q290.5 344.95 290.17188 344.5594Q289.65625 343.95 288.85938 343.95Q288.125 343.95 287.625 344.4344Q287.14062 344.91876 287.09375 345.7469ZM293.29688 349.45L293.29688 343.23126L294.23438 343.23126L294.23438 344.10626Q294.53125 343.6375 295.01562 343.3719Q295.5 343.09064 296.125 343.09064Q296.8125 343.09064 297.25 343.3719Q297.70312 343.65314 297.875 344.16876Q298.625 343.09064 299.79688 343.09064Q300.73438 343.09064 301.21875 343.60626Q301.71875 344.10626 301.71875 345.1844L301.71875 349.45L300.67188 349.45L300.67188 345.52814Q300.67188 344.90314 300.5625 344.6219Q300.46875 344.34064 300.20312 344.16876Q299.9375 343.9969 299.5625 343.9969Q298.90625 343.9969 298.46875 344.4344Q298.04688 344.8719 298.04688 345.84064L298.04688 349.45L296.98438 349.45L296.98438 345.40314Q296.98438 344.7 296.71875 344.35626Q296.46875 343.9969 295.89062 343.9969Q295.4375 343.9969 295.0625 344.23126Q294.6875 344.46564 294.51562 344.91876Q294.34375 345.3719 294.34375 346.21564L294.34375 349.45L293.29688 349.45ZM303.29688 351.84064L303.29688 343.23126L304.25 343.23126L304.25 344.02814Q304.59375 343.5594 305.01562 343.325Q305.45312 343.09064 306.0625 343.09064Q306.85938 343.09064 307.46875 343.4969Q308.07812 343.90314 308.375 344.65314Q308.6875 345.40314 308.6875 346.29376Q308.6875 347.2469 308.34375 348.0125Q308.01562 348.77814 307.35938 349.1844Q306.70312 349.59064 305.98438 349.59064Q305.45312 349.59064 305.03125 349.3719Q304.60938 349.1375 304.34375 348.8094L304.34375 351.84064L303.29688 351.84064ZM304.25 346.3719Q304.25 347.575 304.73438 348.15314Q305.21875 348.71564 305.90625 348.71564Q306.60938 348.71564 307.10938 348.1219Q307.60938 347.52814 307.60938 346.27814Q307.60938 345.09064 307.125 344.5125Q306.64062 343.91876 305.95312 343.91876Q305.28125 343.91876 304.76562 344.54376Q304.25 345.16876 304.25 346.3719ZM314.54688 347.45L315.64062 347.575Q315.39062 348.52814 314.6875 349.0594Q313.98438 349.59064 312.90625 349.59064Q311.54688 349.59064 310.73438 348.7469Q309.9375 347.90314 309.9375 346.3875Q309.9375 344.825 310.75 343.96564Q311.5625 343.09064 312.84375 343.09064Q314.09375 343.09064 314.875 343.9344Q315.67188 344.77814 315.67188 346.325Q315.67188 346.41876 315.67188 346.60626L311.03125 346.60626Q311.09375 347.6375 311.60938 348.1844Q312.125 348.71564 312.90625 348.71564Q313.48438 348.71564 313.89062 348.41876Q314.3125 348.10626 314.54688 347.45ZM311.09375 345.7469L314.5625 345.7469Q314.5 344.95 314.17188 344.5594Q313.65625 343.95 312.85938 343.95Q312.125 343.95 311.625 344.4344Q311.14062 344.91876 311.09375 345.7469ZM317.28125 349.45L317.28125 343.23126L318.23438 343.23126L318.23438 344.16876Q318.59375 343.5125 318.89062 343.3094Q319.20312 343.09064 319.57812 343.09064Q320.10938 343.09064 320.65625 343.41876L320.29688 344.40314Q319.90625 344.16876 319.53125 344.16876Q319.17188 344.16876 318.89062 344.3875Q318.625 344.59064 318.51562 344.96564Q318.32812 345.52814 318.32812 346.1844L318.32812 349.45L317.28125 349.45ZM325.35938 348.6844Q324.76562 349.1844 324.21875 349.3875Q323.6875 349.59064 323.0625 349.59064Q322.03125 349.59064 321.48438 349.09064Q320.9375 348.59064 320.9375 347.8094Q320.9375 347.35626 321.14062 346.98126Q321.34375 346.59064 321.6875 346.3719Q322.03125 346.1375 322.45312 346.02814Q322.75 345.9344 323.39062 345.85626Q324.65625 345.71564 325.26562 345.4969Q325.26562 345.27814 325.26562 345.23126Q325.26562 344.575 324.96875 344.3094Q324.5625 343.96564 323.76562 343.96564Q323.03125 343.96564 322.67188 344.23126Q322.3125 344.48126 322.14062 345.1375L321.10938 344.9969Q321.25 344.34064 321.57812 343.9344Q321.90625 343.52814 322.51562 343.3094Q323.125 343.09064 323.92188 343.09064Q324.71875 343.09064 325.21875 343.27814Q325.71875 343.46564 325.95312 343.7469Q326.1875 344.02814 326.28125 344.46564Q326.32812 344.73126 326.32812 345.4344L326.32812 346.84064Q326.32812 348.3094 326.39062 348.7Q326.46875 349.09064 326.67188 349.45L325.5625 349.45Q325.40625 349.1219 325.35938 348.6844ZM325.26562 346.325Q324.6875 346.5594 323.54688 346.73126Q322.89062 346.825 322.625 346.95Q322.35938 347.0594 322.20312 347.27814Q322.0625 347.4969 322.0625 347.77814Q322.0625 348.2 322.375 348.48126Q322.70312 348.7625 323.3125 348.7625Q323.92188 348.7625 324.39062 348.4969Q324.875 348.23126 325.09375 347.7625Q325.26562 347.40314 325.26562 346.71564L325.26562 346.325ZM330.59375 348.5125L330.75 349.4344Q330.29688 349.52814 329.95312 349.52814Q329.375 349.52814 329.0625 349.35626Q328.75 349.16876 328.60938 348.8719Q328.48438 348.575 328.48438 347.6219L328.48438 344.04376L327.71875 344.04376L327.71875 343.23126L328.48438 343.23126L328.48438 341.6844L329.53125 341.0594L329.53125 343.23126L330.59375 343.23126L330.59375 344.04376L329.53125 344.04376L329.53125 347.6844Q329.53125 348.1375 329.57812 348.2625Q329.64062 348.3875 329.76562 348.46564Q329.89062 348.54376 330.125 348.54376Q330.3125 348.54376 330.59375 348.5125ZM335.375 349.45L335.375 348.52814Q334.64062 349.59064 333.39062 349.59064Q332.84375 349.59064 332.35938 349.3875Q331.89062 349.16876 331.65625 348.85626Q331.42188 348.52814 331.32812 348.0594Q331.26562 347.7625 331.26562 347.075L331.26562 343.23126L332.32812 343.23126L332.32812 346.6844Q332.32812 347.4969 332.39062 347.79376Q332.48438 348.2 332.79688 348.45Q333.125 348.6844 333.60938 348.6844Q334.07812 348.6844 334.48438 348.45Q334.90625 348.2 335.07812 347.77814Q335.26562 347.35626 335.26562 346.5594L335.26562 343.23126L336.3125 343.23126L336.3125 349.45L335.375 349.45ZM338.28125 349.45L338.28125 343.23126L339.23438 343.23126L339.23438 344.16876Q339.59375 343.5125 339.89062 343.3094Q340.20312 343.09064 340.57812 343.09064Q341.10938 343.09064 341.65625 343.41876L341.29688 344.40314Q340.90625 344.16876 340.53125 344.16876Q340.17188 344.16876 339.89062 344.3875Q339.625 344.59064 339.51562 344.96564Q339.32812 345.52814 339.32812 346.1844L339.32812 349.45L338.28125 349.45ZM346.54688 347.45L347.64062 347.575Q347.39062 348.52814 346.6875 349.0594Q345.98438 349.59064 344.90625 349.59064Q343.54688 349.59064 342.73438 348.7469Q341.9375 347.90314 341.9375 346.3875Q341.9375 344.825 342.75 343.96564Q343.5625 343.09064 344.84375 343.09064Q346.09375 343.09064 346.875 343.9344Q347.67188 344.77814 347.67188 346.325Q347.67188 346.41876 347.67188 346.60626L343.03125 346.60626Q343.09375 347.6375 343.60938 348.1844Q344.125 348.71564 344.90625 348.71564Q345.48438 348.71564 345.89062 348.41876Q346.3125 348.10626 346.54688 347.45ZM343.09375 345.7469L346.5625 345.7469Q346.5 344.95 346.17188 344.5594Q345.65625 343.95 344.85938 343.95Q344.125 343.95 343.625 344.4344Q343.14062 344.91876 343.09375 345.7469Z" fill-rule="nonzero"/><path fill="#000000" d="M33.05 300.21564Q33.05 298.6844 33.3625 297.7625Q33.675 296.825 34.284374 296.325Q34.909374 295.825 35.846874 295.825Q36.534374 295.825 37.05 296.10626Q37.58125 296.3875 37.925 296.91876Q38.26875 297.4344 38.45625 298.1844Q38.64375 298.9344 38.64375 300.21564Q38.64375 301.73126 38.33125 302.65314Q38.034374 303.575 37.409374 304.09064Q36.8 304.59064 35.846874 304.59064Q34.6125 304.59064 33.89375 303.7Q33.05 302.6375 33.05 300.21564ZM34.128124 300.21564Q34.128124 302.325 34.628124 303.02814Q35.128124 303.73126 35.846874 303.73126Q36.58125 303.73126 37.065624 303.02814Q37.565624 302.325 37.565624 300.21564Q37.565624 298.09064 37.065624 297.40314Q36.58125 296.7 35.83125 296.7Q35.1125 296.7 34.675 297.3094Q34.128124 298.09064 34.128124 300.21564Z" fill-rule="nonzero"/><path fill="#000000" d="M37.01875 233.72778L35.971874 233.72778L35.971874 227.00903Q35.58125 227.36841 34.95625 227.74341Q34.346874 228.10278 33.8625 228.27466L33.8625 227.25903Q34.7375 226.83716 35.39375 226.25903Q36.065624 225.66528 36.346874 225.10278L37.01875 225.10278L37.01875 233.72778Z" fill-rule="nonzero"/><path fill="#000000" d="M38.596874 161.98993L38.596874 163.00555L32.909374 163.00555Q32.909374 162.63055 33.034374 162.27118Q33.253124 161.69305 33.721874 161.13055Q34.20625 160.56805 35.1125 159.83368Q36.51875 158.67743 37.003124 158.00555Q37.503124 157.33368 37.503124 156.73993Q37.503124 156.11493 37.05 155.69305Q36.596874 155.25555 35.878124 155.25555Q35.1125 155.25555 34.659374 155.70868Q34.20625 156.1618 34.190624 156.9743L33.1125 156.86493Q33.221874 155.64618 33.940624 155.02118Q34.675 154.38055 35.909374 154.38055Q37.14375 154.38055 37.8625 155.06805Q38.58125 155.75555 38.58125 156.77118Q38.58125 157.2868 38.3625 157.7868Q38.159374 158.27118 37.659374 158.83368Q37.175 159.38055 36.05 160.33368Q35.096874 161.13055 34.815624 161.42743Q34.55 161.70868 34.378124 161.98993L38.596874 161.98993Z" fill-rule="nonzero"/><path fill="#000000" d="M33.05 90.01771L34.1125 89.87708Q34.284374 90.76771 34.721874 91.17396Q35.159374 91.56458 35.784374 91.56458Q36.534374 91.56458 37.05 91.04896Q37.565624 90.53333 37.565624 89.76771Q37.565624 89.04896 37.08125 88.58021Q36.6125 88.09583 35.878124 88.09583Q35.58125 88.09583 35.128124 88.22083L35.253124 87.28333Q35.3625 87.29896 35.425 87.29896Q36.096874 87.29896 36.628124 86.95521Q37.175 86.59583 37.175 85.86146Q37.175 85.28333 36.784374 84.90833Q36.39375 84.51771 35.76875 84.51771Q35.159374 84.51771 34.7375 84.90833Q34.33125 85.29896 34.221874 86.06458L33.159374 85.87708Q33.346874 84.83021 34.034374 84.25208Q34.721874 83.65833 35.7375 83.65833Q36.440624 83.65833 37.034374 83.97083Q37.628124 84.26771 37.940624 84.78333Q38.253124 85.29896 38.253124 85.89271Q38.253124 86.43958 37.95625 86.90833Q37.659374 87.36146 37.08125 87.62708Q37.83125 87.79896 38.253124 88.36146Q38.675 88.90833 38.675 89.75208Q38.675 90.87708 37.846874 91.65833Q37.034374 92.43958 35.784374 92.43958Q34.659374 92.43958 33.909374 91.76771Q33.159374 91.08021 33.05 90.01771Z" fill-rule="nonzero"/><path fill="#000000" d="M50.7371 316.4344L50.7371 317.45L45.0496 317.45Q45.0496 317.075 45.1746 316.71564Q45.39335 316.1375 45.8621 315.575Q46.346474 315.0125 47.252724 314.27814Q48.658974 313.1219 49.14335 312.45Q49.64335 311.77814 49.64335 311.1844Q49.64335 310.5594 49.190224 310.1375Q48.7371 309.7 48.01835 309.7Q47.252724 309.7 46.7996 310.15314Q46.346474 310.60626 46.33085 311.41876L45.252724 311.3094Q45.3621 310.09064 46.08085 309.46564Q46.815224 308.825 48.0496 308.825Q49.283974 308.825 50.002724 309.5125Q50.721474 310.2 50.721474 311.21564Q50.721474 311.73126 50.502724 312.23126Q50.2996 312.71564 49.7996 313.27814Q49.315224 313.825 48.190224 314.77814Q47.2371 315.575 46.95585 315.8719Q46.690224 316.15314 46.51835 316.4344L50.7371 316.4344ZM52.190224 313.21564Q52.190224 311.6844 52.502724 310.7625Q52.815224 309.825 53.4246 309.325Q54.0496 308.825 54.9871 308.825Q55.6746 308.825 56.190224 309.10626Q56.721474 309.3875 57.065224 309.91876Q57.408974 310.4344 57.596474 311.1844Q57.783974 311.9344 57.783974 313.21564Q57.783974 314.73126 57.471474 315.65314Q57.1746 316.575 56.5496 317.09064Q55.940224 317.59064 54.9871 317.59064Q53.752724 317.59064 53.033974 316.7Q52.190224 315.6375 52.190224 313.21564ZM53.26835 313.21564Q53.26835 315.325 53.76835 316.02814Q54.26835 316.73126 54.9871 316.73126Q55.721474 316.73126 56.20585 316.02814Q56.70585 315.325 56.70585 313.21564Q56.70585 311.09064 56.20585 310.40314Q55.721474 309.7 54.971474 309.7Q54.252724 309.7 53.815224 310.3094Q53.26835 311.09064 53.26835 313.21564ZM59.190224 313.21564Q59.190224 311.6844 59.502724 310.7625Q59.815224 309.825 60.4246 309.325Q61.0496 308.825 61.9871 308.825Q62.6746 308.825 63.190224 309.10626Q63.721474 309.3875 64.06522 309.91876Q64.40897 310.4344 64.59647 311.1844Q64.78397 311.9344 64.78397 313.21564Q64.78397 314.73126 64.47147 315.65314Q64.1746 316.575 63.5496 317.09064Q62.940224 317.59064 61.9871 317.59064Q60.752724 317.59064 60.033974 316.7Q59.190224 315.6375 59.190224 313.21564ZM60.26835 313.21564Q60.26835 315.325 60.76835 316.02814Q61.26835 316.73126 61.9871 316.73126Q62.721474 316.73126 63.20585 316.02814Q63.70585 315.325 63.70585 313.21564Q63.70585 311.09064 63.20585 310.40314Q62.721474 309.7 61.971474 309.7Q61.252724 309.7 60.815224 310.3094Q60.26835 311.09064 60.26835 313.21564Z" fill-rule="nonzero"/><path fill="#000000" d="M181.09782 316.4344L181.09782 317.45L175.41032 317.45Q175.41032 317.075 175.53532 316.71564Q175.75407 316.1375 176.22282 315.575Q176.7072 315.0125 177.61345 314.27814Q179.0197 313.1219 179.50407 312.45Q180.00407 311.77814 180.00407 311.1844Q180.00407 310.5594 179.55095 310.1375Q179.09782 309.7 178.37907 309.7Q177.61345 309.7 177.16032 310.15314Q176.7072 310.60626 176.69157 311.41876L175.61345 311.3094Q175.72282 310.09064 176.44157 309.46564Q177.17595 308.825 178.41032 308.825Q179.6447 308.825 180.36345 309.5125Q181.0822 310.2 181.0822 311.21564Q181.0822 311.73126 180.86345 312.23126Q180.66032 312.71564 180.16032 313.27814Q179.67595 313.825 178.55095 314.77814Q177.59782 315.575 177.31657 315.8719Q177.05095 316.15314 176.87907 316.4344L181.09782 316.4344ZM182.55095 315.2L183.66032 315.10626Q183.78532 315.91876 184.22282 316.325Q184.67595 316.73126 185.31657 316.73126Q186.06657 316.73126 186.59782 316.15314Q187.12907 315.575 187.12907 314.6375Q187.12907 313.73126 186.61345 313.21564Q186.11345 312.6844 185.28532 312.6844Q184.78532 312.6844 184.36345 312.91876Q183.9572 313.15314 183.72282 313.5125L182.73845 313.3875L183.56657 308.98126L187.84782 308.98126L187.84782 309.98126L184.41032 309.98126L183.9572 312.29376Q184.72282 311.7469 185.56657 311.7469Q186.69157 311.7469 187.4572 312.52814Q188.23845 313.3094 188.23845 314.54376Q188.23845 315.7 187.56657 316.5594Q186.73845 317.59064 185.31657 317.59064Q184.1447 317.59064 183.3947 316.9344Q182.66032 316.27814 182.55095 315.2ZM189.55095 313.21564Q189.55095 311.6844 189.86345 310.7625Q190.17595 309.825 190.78532 309.325Q191.41032 308.825 192.34782 308.825Q193.03532 308.825 193.55095 309.10626Q194.0822 309.3875 194.42595 309.91876Q194.7697 310.4344 194.9572 311.1844Q195.1447 311.9344 195.1447 313.21564Q195.1447 314.73126 194.8322 315.65314Q194.53532 316.575 193.91032 317.09064Q193.30095 317.59064 192.34782 317.59064Q191.11345 317.59064 190.3947 316.7Q189.55095 315.6375 189.55095 313.21564ZM190.62907 313.21564Q190.62907 315.325 191.12907 316.02814Q191.62907 316.73126 192.34782 316.73126Q193.0822 316.73126 193.56657 316.02814Q194.06657 315.325 194.06657 313.21564Q194.06657 311.09064 193.56657 310.40314Q193.0822 309.7 192.3322 309.7Q191.61345 309.7 191.17595 310.3094Q190.62907 311.09064 190.62907 313.21564Z" fill-rule="nonzero"/><path fill="#000000" d="M305.91168 315.1844L306.97418 315.04376Q307.14606 315.9344 307.58356 316.34064Q308.02106 316.73126 308.64606 316.73126Q309.39606 316.73126 309.91168 316.21564Q310.4273 315.7 310.4273 314.9344Q310.4273 314.21564 309.94293 313.7469Q309.47418 313.2625 308.7398 313.2625Q308.44293 313.2625 307.9898 313.3875L308.1148 312.45Q308.22418 312.46564 308.28668 312.46564Q308.95856 312.46564 309.4898 312.1219Q310.03668 311.7625 310.03668 311.02814Q310.03668 310.45 309.64606 310.075Q309.25543 309.6844 308.63043 309.6844Q308.02106 309.6844 307.59918 310.075Q307.19293 310.46564 307.08356 311.23126L306.02106 311.04376Q306.20856 309.9969 306.89606 309.41876Q307.58356 308.825 308.59918 308.825Q309.3023 308.825 309.89606 309.1375Q310.4898 309.4344 310.8023 309.95Q311.1148 310.46564 311.1148 311.0594Q311.1148 311.60626 310.81793 312.075Q310.52106 312.52814 309.94293 312.79376Q310.69293 312.96564 311.1148 313.52814Q311.53668 314.075 311.53668 314.91876Q311.53668 316.04376 310.70856 316.825Q309.89606 317.60626 308.64606 317.60626Q307.52106 317.60626 306.77106 316.9344Q306.02106 316.2469 305.91168 315.1844ZM312.91168 313.21564Q312.91168 311.6844 313.22418 310.7625Q313.53668 309.825 314.14606 309.325Q314.77106 308.825 315.70856 308.825Q316.39606 308.825 316.91168 309.10626Q317.44293 309.3875 317.78668 309.91876Q318.13043 310.4344 318.31793 311.1844Q318.50543 311.9344 318.50543 313.21564Q318.50543 314.73126 318.19293 315.65314Q317.89606 316.575 317.27106 317.09064Q316.66168 317.59064 315.70856 317.59064Q314.47418 317.59064 313.75543 316.7Q312.91168 315.6375 312.91168 313.21564ZM313.9898 313.21564Q313.9898 315.325 314.4898 316.02814Q314.9898 316.73126 315.70856 316.73126Q316.44293 316.73126 316.9273 316.02814Q317.4273 315.325 317.4273 313.21564Q317.4273 311.09064 316.9273 310.40314Q316.44293 309.7 315.69293 309.7Q314.97418 309.7 314.53668 310.3094Q313.9898 311.09064 313.9898 313.21564ZM319.91168 313.21564Q319.91168 311.6844 320.22418 310.7625Q320.53668 309.825 321.14606 309.325Q321.77106 308.825 322.70856 308.825Q323.39606 308.825 323.91168 309.10626Q324.44293 309.3875 324.78668 309.91876Q325.13043 310.4344 325.31793 311.1844Q325.50543 311.9344 325.50543 313.21564Q325.50543 314.73126 325.19293 315.65314Q324.89606 316.575 324.27106 317.09064Q323.66168 317.59064 322.70856 317.59064Q321.47418 317.59064 320.75543 316.7Q319.91168 315.6375 319.91168 313.21564ZM320.9898 313.21564Q320.9898 315.325 321.4898 316.02814Q321.9898 316.73126 322.70856 316.73126Q323.44293 316.73126 323.9273 316.02814Q324.4273 315.325 324.4273 313.21564Q324.4273 311.09064 323.9273 310.40314Q323.44293 309.7 322.69293 309.7Q321.97418 309.7 321.53668 310.3094Q320.9898 311.09064 320.9898 313.21564Z" fill-rule="nonzero"/><path fill="#000000" d="M436.2724 315.1844L437.3349 315.04376Q437.50677 315.9344 437.94427 316.34064Q438.38177 316.73126 439.00677 316.73126Q439.75677 316.73126 440.2724 316.21564Q440.78802 315.7 440.78802 314.9344Q440.78802 314.21564 440.30365 313.7469Q439.8349 313.2625 439.10052 313.2625Q438.80365 313.2625 438.35052 313.3875L438.47552 312.45Q438.5849 312.46564 438.6474 312.46564Q439.31927 312.46564 439.85052 312.1219Q440.3974 311.7625 440.3974 311.02814Q440.3974 310.45 440.00677 310.075Q439.61615 309.6844 438.99115 309.6844Q438.38177 309.6844 437.9599 310.075Q437.55365 310.46564 437.44427 311.23126L436.38177 311.04376Q436.56927 309.9969 437.25677 309.41876Q437.94427 308.825 438.9599 308.825Q439.66302 308.825 440.25677 309.1375Q440.85052 309.4344 441.16302 309.95Q441.47552 310.46564 441.47552 311.0594Q441.47552 311.60626 441.17865 312.075Q440.88177 312.52814 440.30365 312.79376Q441.05365 312.96564 441.47552 313.52814Q441.8974 314.075 441.8974 314.91876Q441.8974 316.04376 441.06927 316.825Q440.25677 317.60626 439.00677 317.60626Q437.88177 317.60626 437.13177 316.9344Q436.38177 316.2469 436.2724 315.1844ZM443.2724 315.2L444.38177 315.10626Q444.50677 315.91876 444.94427 316.325Q445.3974 316.73126 446.03802 316.73126Q446.78802 316.73126 447.31927 316.15314Q447.85052 315.575 447.85052 314.6375Q447.85052 313.73126 447.3349 313.21564Q446.8349 312.6844 446.00677 312.6844Q445.50677 312.6844 445.0849 312.91876Q444.67865 313.15314 444.44427 313.5125L443.4599 313.3875L444.28802 308.98126L448.56927 308.98126L448.56927 309.98126L445.13177 309.98126L444.67865 312.29376Q445.44427 311.7469 446.28802 311.7469Q447.41302 311.7469 448.17865 312.52814Q448.9599 313.3094 448.9599 314.54376Q448.9599 315.7 448.28802 316.5594Q447.4599 317.59064 446.03802 317.59064Q444.86615 317.59064 444.11615 316.9344Q443.38177 316.27814 443.2724 315.2ZM450.2724 313.21564Q450.2724 311.6844 450.5849 310.7625Q450.8974 309.825 451.50677 309.325Q452.13177 308.825 453.06927 308.825Q453.75677 308.825 454.2724 309.10626Q454.80365 309.3875 455.1474 309.91876Q455.49115 310.4344 455.67865 311.1844Q455.86615 311.9344 455.86615 313.21564Q455.86615 314.73126 455.55365 315.65314Q455.25677 316.575 454.63177 317.09064Q454.0224 317.59064 453.06927 317.59064Q451.8349 317.59064 451.11615 316.7Q450.2724 315.6375 450.2724 313.21564ZM451.35052 313.21564Q451.35052 315.325 451.85052 316.02814Q452.35052 316.73126 453.06927 316.73126Q453.80365 316.73126 454.28802 316.02814Q454.78802 315.325 454.78802 313.21564Q454.78802 311.09064 454.28802 310.40314Q453.80365 309.7 453.05365 309.7Q452.3349 309.7 451.8974 310.3094Q451.35052 311.09064 451.35052 313.21564Z" fill-rule="nonzero"/><path fill="#000000" d="M570.0081 317.45L570.0081 315.3875L566.28937 315.3875L566.28937 314.41876L570.21124 308.85626L571.0706 308.85626L571.0706 314.41876L572.22687 314.41876L572.22687 315.3875L571.0706 315.3875L571.0706 317.45L570.0081 317.45ZM570.0081 314.41876L570.0081 310.5594L567.3206 314.41876L570.0081 314.41876ZM573.6331 313.21564Q573.6331 311.6844 573.9456 310.7625Q574.2581 309.825 574.8675 309.325Q575.4925 308.825 576.43 308.825Q577.1175 308.825 577.6331 309.10626Q578.16437 309.3875 578.5081 309.91876Q578.85187 310.4344 579.03937 311.1844Q579.22687 311.9344 579.22687 313.21564Q579.22687 314.73126 578.91437 315.65314Q578.6175 316.575 577.9925 317.09064Q577.3831 317.59064 576.43 317.59064Q575.1956 317.59064 574.47687 316.7Q573.6331 315.6375 573.6331 313.21564ZM574.71124 313.21564Q574.71124 315.325 575.21124 316.02814Q575.71124 316.73126 576.43 316.73126Q577.16437 316.73126 577.64874 316.02814Q578.14874 315.325 578.14874 313.21564Q578.14874 311.09064 577.64874 310.40314Q577.16437 309.7 576.41437 309.7Q575.6956 309.7 575.2581 310.3094Q574.71124 311.09064 574.71124 313.21564ZM580.6331 313.21564Q580.6331 311.6844 580.9456 310.7625Q581.2581 309.825 581.8675 309.325Q582.4925 308.825 583.43 308.825Q584.1175 308.825 584.6331 309.10626Q585.16437 309.3875 585.5081 309.91876Q585.85187 310.4344 586.03937 311.1844Q586.22687 311.9344 586.22687 313.21564Q586.22687 314.73126 585.91437 315.65314Q585.6175 316.575 584.9925 317.09064Q584.3831 317.59064 583.43 317.59064Q582.1956 317.59064 581.47687 316.7Q580.6331 315.6375 580.6331 313.21564ZM581.71124 313.21564Q581.71124 315.325 582.21124 316.02814Q582.71124 316.73126 583.43 316.73126Q584.16437 316.73126 584.64874 316.02814Q585.14874 315.325 585.14874 313.21564Q585.14874 311.09064 584.64874 310.40314Q584.16437 309.7 583.41437 309.7Q582.6956 309.7 582.2581 310.3094Q581.71124 311.09064 581.71124 313.21564Z" fill-rule="nonzero"/><path fill="#4285f4" d="M178.25735 57.674026L182.5 60.416668L186.74265 57.674026L184.0 61.916668L186.74265 66.15931L182.5 63.416668L178.25735 66.15931L181.0 61.916668Z" fill-rule="nonzero"/><path fill="#1a1a1a" d="M197.46875 65.916664L197.46875 57.322914L198.59375 57.322914L198.59375 60.854164L203.0625 60.854164L203.0625 57.322914L204.20312 57.322914L204.20312 65.916664L203.0625 65.916664L203.0625 61.86979L198.59375 61.86979L198.59375 65.916664L197.46875 65.916664ZM206.625 65.916664L206.625 57.322914L207.75 57.322914L207.75 65.916664L206.625 65.916664ZM214.3125 68.447914Q213.4375 67.33854 212.82812 65.86979Q212.23438 64.385414 212.23438 62.80729Q212.23438 61.416664 212.67188 60.135414Q213.20312 58.65104 214.3125 57.18229L215.0625 57.18229Q214.35938 58.40104 214.125 58.916664Q213.76562 59.729164 213.5625 60.604164Q213.3125 61.697914 213.3125 62.80729Q213.3125 65.635414 215.0625 68.447914L214.3125 68.447914ZM216.29688 65.916664L216.29688 59.697914L217.23438 59.697914L217.23438 60.572914Q217.53125 60.104164 218.01562 59.83854Q218.5 59.55729 219.125 59.55729Q219.8125 59.55729 220.25 59.83854Q220.70312 60.11979 220.875 60.635414Q221.625 59.55729 222.79688 59.55729Q223.73438 59.55729 224.21875 60.072914Q224.71875 60.572914 224.71875 61.65104L224.71875 65.916664L223.67188 65.916664L223.67188 61.99479Q223.67188 61.36979 223.5625 61.08854Q223.46875 60.80729 223.20312 60.635414Q222.9375 60.46354 222.5625 60.46354Q221.90625 60.46354 221.46875 60.90104Q221.04688 61.33854 221.04688 62.30729L221.04688 65.916664L219.98438 65.916664L219.98438 61.86979Q219.98438 61.166664 219.71875 60.822914Q219.46875 60.46354 218.89062 60.46354Q218.4375 60.46354 218.0625 60.697914Q217.6875 60.93229 217.51562 61.385414Q217.34375 61.83854 217.34375 62.68229L217.34375 65.916664L216.29688 65.916664ZM225.90625 62.80729Q225.90625 61.072914 226.85938 60.24479Q227.65625 59.55729 228.8125 59.55729Q230.09375 59.55729 230.90625 60.40104Q231.73438 61.229164 231.73438 62.71354Q231.73438 63.916664 231.375 64.604164Q231.01562 65.291664 230.3125 65.68229Q229.625 66.05729 228.8125 66.05729Q227.51562 66.05729 226.70312 65.229164Q225.90625 64.385414 225.90625 62.80729ZM226.98438 62.80729Q226.98438 63.99479 227.5 64.58854Q228.03125 65.18229 228.8125 65.18229Q229.60938 65.18229 230.125 64.58854Q230.64062 63.99479 230.64062 62.77604Q230.64062 61.61979 230.10938 61.02604Q229.59375 60.43229 228.8125 60.43229Q228.03125 60.43229 227.5 61.02604Q226.98438 61.604164 226.98438 62.80729ZM233.26562 65.916664L233.26562 57.322914L234.32812 57.322914L234.32812 65.916664L233.26562 65.916664ZM235.5 66.05729L237.98438 57.18229L238.82812 57.18229L236.34375 66.05729L235.5 66.05729ZM239.375 65.916664L239.375 57.322914L240.51562 57.322914L240.51562 64.90104L244.75 64.90104L244.75 65.916664L239.375 65.916664ZM246.98438 68.447914L246.23438 68.447914Q247.98438 65.635414 247.98438 62.80729Q247.98438 61.71354 247.73438 60.61979Q247.53125 59.74479 247.17188 58.93229Q246.9375 58.416664 246.23438 57.18229L246.98438 57.18229Q248.07812 58.65104 248.60938 60.135414Q249.0625 61.416664 249.0625 62.80729Q249.0625 64.385414 248.45312 65.86979Q247.84375 67.33854 246.98438 68.447914Z" fill-rule="nonzero"/><path fill="#ea4335" d="M267.25735 57.674026L271.5 60.416668L275.74265 57.674026L273.0 61.916668L275.74265 66.15931L271.5 63.416668L267.25735 66.15931L270.0 61.916668Z" fill-rule="nonzero"/><path fill="#1a1a1a" d="M286.625 65.916664L286.625 57.322914L287.75 57.322914L287.75 65.916664L286.625 65.916664ZM294.54688 64.90104L294.54688 65.916664L288.85938 65.916664Q288.85938 65.541664 288.98438 65.18229Q289.20312 64.604164 289.67188 64.041664Q290.15625 63.479164 291.0625 62.74479Q292.46875 61.58854 292.95312 60.916664Q293.45312 60.24479 293.45312 59.65104Q293.45312 59.02604 293.0 58.604164Q292.54688 58.166664 291.82812 58.166664Q291.0625 58.166664 290.60938 58.61979Q290.15625 59.072914 290.14062 59.885414L289.0625 59.77604Q289.17188 58.55729 289.89062 57.93229Q290.625 57.291664 291.85938 57.291664Q293.09375 57.291664 293.8125 57.979164Q294.53125 58.666664 294.53125 59.68229Q294.53125 60.197914 294.3125 60.697914Q294.10938 61.18229 293.60938 61.74479Q293.125 62.291664 292.0 63.24479Q291.04688 64.041664 290.76562 64.33854Q290.5 64.61979 290.32812 64.90104L294.54688 64.90104ZM301.3125 68.447914Q300.4375 67.33854 299.82812 65.86979Q299.23438 64.385414 299.23438 62.80729Q299.23438 61.416664 299.67188 60.135414Q300.20312 58.65104 301.3125 57.18229L302.0625 57.18229Q301.35938 58.40104 301.125 58.916664Q300.76562 59.729164 300.5625 60.604164Q300.3125 61.697914 300.3125 62.80729Q300.3125 65.635414 302.0625 68.447914L301.3125 68.447914ZM303.29688 65.916664L303.29688 59.697914L304.23438 59.697914L304.23438 60.572914Q304.53125 60.104164 305.01562 59.83854Q305.5 59.55729 306.125 59.55729Q306.8125 59.55729 307.25 59.83854Q307.70312 60.11979 307.875 60.635414Q308.625 59.55729 309.79688 59.55729Q310.73438 59.55729 311.21875 60.072914Q311.71875 60.572914 311.71875 61.65104L311.71875 65.916664L310.67188 65.916664L310.67188 61.99479Q310.67188 61.36979 310.5625 61.08854Q310.46875 60.80729 310.20312 60.635414Q309.9375 60.46354 309.5625 60.46354Q308.90625 60.46354 308.46875 60.90104Q308.04688 61.33854 308.04688 62.30729L308.04688 65.916664L306.98438 65.916664L306.98438 61.86979Q306.98438 61.166664 306.71875 60.822914Q306.46875 60.46354 305.89062 60.46354Q305.4375 60.46354 305.0625 60.697914Q304.6875 60.93229 304.51562 61.385414Q304.34375 61.83854 304.34375 62.68229L304.34375 65.916664L303.29688 65.916664ZM312.90625 62.80729Q312.90625 61.072914 313.85938 60.24479Q314.65625 59.55729 315.8125 59.55729Q317.09375 59.55729 317.90625 60.40104Q318.73438 61.229164 318.73438 62.71354Q318.73438 63.916664 318.375 64.604164Q318.01562 65.291664 317.3125 65.68229Q316.625 66.05729 315.8125 66.05729Q314.51562 66.05729 313.70312 65.229164Q312.90625 64.385414 312.90625 62.80729ZM313.98438 62.80729Q313.98438 63.99479 314.5 64.58854Q315.03125 65.18229 315.8125 65.18229Q316.60938 65.18229 317.125 64.58854Q317.64062 63.99479 317.64062 62.77604Q317.64062 61.61979 317.10938 61.02604Q316.59375 60.43229 315.8125 60.43229Q315.03125 60.43229 314.5 61.02604Q313.98438 61.604164 313.98438 62.80729ZM320.26562 65.916664L320.26562 57.322914L321.32812 57.322914L321.32812 65.916664L320.26562 65.916664ZM322.5 66.05729L324.98438 57.18229L325.82812 57.18229L323.34375 66.05729L322.5 66.05729ZM326.375 65.916664L326.375 57.322914L327.51562 57.322914L327.51562 64.90104L331.75 64.90104L331.75 65.916664L326.375 65.916664ZM333.98438 68.447914L333.23438 68.447914Q334.98438 65.635414 334.98438 62.80729Q334.98438 61.71354 334.73438 60.61979Q334.53125 59.74479 334.17188 58.93229Q333.9375 58.416664 333.23438 57.18229L333.98438 57.18229Q335.07812 58.65104 335.60938 60.135414Q336.0625 61.416664 336.0625 62.80729Q336.0625 64.385414 335.45312 65.86979Q334.84375 67.33854 333.98438 68.447914Z" fill-rule="nonzero"/><path fill="#fbbc04" d="M354.25735 57.674026L358.5 60.416668L362.74265 57.674026L360.0 61.916668L362.74265 66.15931L358.5 63.416668L354.25735 66.15931L357.0 61.916668Z" fill-rule="nonzero"/><path fill="#1a1a1a" d="M373.625 65.916664L373.625 57.322914L374.75 57.322914L374.75 65.916664L373.625 65.916664ZM381.54688 64.90104L381.54688 65.916664L375.85938 65.916664Q375.85938 65.541664 375.98438 65.18229Q376.20312 64.604164 376.67188 64.041664Q377.15625 63.479164 378.0625 62.74479Q379.46875 61.58854 379.95312 60.916664Q380.45312 60.24479 380.45312 59.65104Q380.45312 59.02604 380.0 58.604164Q379.54688 58.166664 378.82812 58.166664Q378.0625 58.166664 377.60938 58.61979Q377.15625 59.072914 377.14062 59.885414L376.0625 59.77604Q376.17188 58.55729 376.89062 57.93229Q377.625 57.291664 378.85938 57.291664Q380.09375 57.291664 380.8125 57.979164Q381.53125 58.666664 381.53125 59.68229Q381.53125 60.197914 381.3125 60.697914Q381.10938 61.18229 380.60938 61.74479Q380.125 62.291664 379.0 63.24479Q378.04688 64.041664 377.76562 64.33854Q377.5 64.61979 377.32812 64.90104L381.54688 64.90104ZM388.3125 68.447914Q387.4375 67.33854 386.82812 65.86979Q386.23438 64.385414 386.23438 62.80729Q386.23438 61.416664 386.67188 60.135414Q387.20312 58.65104 388.3125 57.18229L389.0625 57.18229Q388.35938 58.40104 388.125 58.916664Q387.76562 59.729164 387.5625 60.604164Q387.3125 61.697914 387.3125 62.80729Q387.3125 65.635414 389.0625 68.447914L388.3125 68.447914ZM390.29688 65.916664L390.29688 59.697914L391.23438 59.697914L391.23438 60.572914Q391.53125 60.104164 392.01562 59.83854Q392.5 59.55729 393.125 59.55729Q393.8125 59.55729 394.25 59.83854Q394.70312 60.11979 394.875 60.635414Q395.625 59.55729 396.79688 59.55729Q397.73438 59.55729 398.21875 60.072914Q398.71875 60.572914 398.71875 61.65104L398.71875 65.916664L397.67188 65.916664L397.67188 61.99479Q397.67188 61.36979 397.5625 61.08854Q397.46875 60.80729 397.20312 60.635414Q396.9375 60.46354 396.5625 60.46354Q395.90625 60.46354 395.46875 60.90104Q395.04688 61.33854 395.04688 62.30729L395.04688 65.916664L393.98438 65.916664L393.98438 61.86979Q393.98438 61.166664 393.71875 60.822914Q393.46875 60.46354 392.89062 60.46354Q392.4375 60.46354 392.0625 60.697914Q391.6875 60.93229 391.51562 61.385414Q391.34375 61.83854 391.34375 62.68229L391.34375 65.916664L390.29688 65.916664ZM399.90625 62.80729Q399.90625 61.072914 400.85938 60.24479Q401.65625 59.55729 402.8125 59.55729Q404.09375 59.55729 404.90625 60.40104Q405.73438 61.229164 405.73438 62.71354Q405.73438 63.916664 405.375 64.604164Q405.01562 65.291664 404.3125 65.68229Q403.625 66.05729 402.8125 66.05729Q401.51562 66.05729 400.70312 65.229164Q399.90625 64.385414 399.90625 62.80729ZM400.98438 62.80729Q400.98438 63.99479 401.5 64.58854Q402.03125 65.18229 402.8125 65.18229Q403.60938 65.18229 404.125 64.58854Q404.64062 63.99479 404.64062 62.77604Q404.64062 61.61979 404.10938 61.02604Q403.59375 60.43229 402.8125 60.43229Q402.03125 60.43229 401.5 61.02604Q400.98438 61.604164 400.98438 62.80729ZM407.26562 65.916664L407.26562 57.322914L408.32812 57.322914L408.32812 65.916664L407.26562 65.916664ZM409.5 66.05729L411.98438 57.18229L412.82812 57.18229L410.34375 66.05729L409.5 66.05729ZM413.375 65.916664L413.375 57.322914L414.51562 57.322914L414.51562 64.90104L418.75 64.90104L418.75 65.916664L413.375 65.916664ZM420.98438 68.447914L420.23438 68.447914Q421.98438 65.635414 421.98438 62.80729Q421.98438 61.71354 421.73438 60.61979Q421.53125 59.74479 421.17188 58.93229Q420.9375 58.416664 420.23438 57.18229L420.98438 57.18229Q422.07812 58.65104 422.60938 60.135414Q423.0625 61.416664 423.0625 62.80729Q423.0625 64.385414 422.45312 65.86979Q421.84375 67.33854 420.98438 68.447914Z" fill-rule="nonzero"/><path fill="#757575" d="M20.128124 37.55L20.128124 23.2375L30.4875 23.2375L30.4875 24.925L22.034374 24.925L22.034374 29.3L29.940624 29.3L29.940624 30.9875L22.034374 30.9875L22.034374 35.8625L30.815624 35.8625L30.815624 37.55L20.128124 37.55ZM39.4875 41.51875L39.4875 36.440624Q39.065624 37.01875 38.33125 37.409374Q37.596874 37.784374 36.76875 37.784374Q34.925 37.784374 33.58125 36.315624Q32.253124 34.83125 32.253124 32.26875Q32.253124 30.70625 32.784374 29.471874Q33.33125 28.221874 34.3625 27.58125Q35.39375 26.940624 36.628124 26.940624Q38.55 26.940624 39.659374 28.565624L39.659374 27.175L41.2375 27.175L41.2375 41.51875L39.4875 41.51875ZM34.065624 32.33125Q34.065624 34.33125 34.89375 35.33125Q35.7375 36.33125 36.909374 36.33125Q38.034374 36.33125 38.846874 35.39375Q39.659374 34.440624 39.659374 32.4875Q39.659374 30.425 38.8 29.378124Q37.940624 28.33125 36.8 28.33125Q35.659374 28.33125 34.8625 29.3Q34.065624 30.26875 34.065624 32.33125ZM50.659374 37.55L50.659374 36.01875Q49.45625 37.784374 47.378124 37.784374Q46.45625 37.784374 45.659374 37.440624Q44.8625 37.08125 44.471874 36.55Q44.096874 36.01875 43.940624 35.2375Q43.83125 34.721874 43.83125 33.596874L43.83125 27.175L45.58125 27.175L45.58125 32.925Q45.58125 34.3 45.690624 34.784374Q45.8625 35.471874 46.39375 35.878124Q46.940624 36.26875 47.721874 36.26875Q48.51875 36.26875 49.20625 35.8625Q49.909374 35.45625 50.190624 34.76875Q50.4875 34.065624 50.4875 32.7375L50.4875 27.175L52.2375 27.175L52.2375 37.55L50.659374 37.55ZM54.878124 25.253124L54.878124 23.2375L56.64375 23.2375L56.64375 25.253124L54.878124 25.253124ZM54.878124 37.55L54.878124 27.175L56.64375 27.175L56.64375 37.55L54.878124 37.55ZM58.83125 37.55L58.83125 23.2375L60.58125 23.2375L60.58125 37.55L58.83125 37.55ZM62.878124 25.253124L62.878124 23.2375L64.64375 23.2375L64.64375 25.253124L62.878124 25.253124ZM62.878124 37.55L62.878124 27.175L64.64375 27.175L64.64375 37.55L62.878124 37.55ZM68.4875 37.55L66.8625 37.55L66.8625 23.2375L68.6125 23.2375L68.6125 28.346874Q69.7375 26.940624 71.45625 26.940624Q72.40938 26.940624 73.26875 27.33125Q74.12813 27.721874 74.675 28.425Q75.22188 29.1125 75.53438 30.096874Q75.84688 31.08125 75.84688 32.20625Q75.84688 34.878124 74.53438 36.33125Q73.22188 37.784374 71.37813 37.784374Q69.53438 37.784374 68.4875 36.253124L68.4875 37.55ZM68.47188 32.284374Q68.47188 34.14375 68.97188 34.9875Q69.81563 36.33125 71.22188 36.33125Q72.37813 36.33125 73.20625 35.33125Q74.05 34.33125 74.05 32.346874Q74.05 30.315624 73.2375 29.3625Q72.44063 28.39375 71.3 28.39375Q70.14375 28.39375 69.3 29.39375Q68.47188 30.39375 68.47188 32.284374ZM77.84688 37.55L77.84688 27.175L79.425 27.175L79.425 28.753124Q80.03438 27.64375 80.55 27.3Q81.06563 26.940624 81.675 26.940624Q82.56563 26.940624 83.4875 27.503124L82.87813 29.14375Q82.2375 28.753124 81.59688 28.753124Q81.01875 28.753124 80.55 29.1125Q80.09688 29.45625 79.89375 30.065624Q79.6125 31.003124 79.6125 32.1125L79.6125 37.55L77.84688 37.55ZM84.87813 25.253124L84.87813 23.2375L86.64375 23.2375L86.64375 25.253124L84.87813 25.253124ZM84.87813 37.55L84.87813 27.175L86.64375 27.175L86.64375 37.55L84.87813 37.55ZM95.65938 37.55L95.65938 36.01875Q94.45625 37.784374 92.37813 37.784374Q91.45625 37.784374 90.65938 37.440624Q89.8625 37.08125 89.47188 36.55Q89.09688 36.01875 88.94063 35.2375Q88.83125 34.721874 88.83125 33.596874L88.83125 27.175L90.58125 27.175L90.58125 32.925Q90.58125 34.3 90.69063 34.784374Q90.8625 35.471874 91.39375 35.878124Q91.94063 36.26875 92.72188 36.26875Q93.51875 36.26875 94.20625 35.8625Q94.90938 35.45625 95.19063 34.76875Q95.4875 34.065624 95.4875 32.7375L95.4875 27.175L97.2375 27.175L97.2375 37.55L95.65938 37.55ZM99.8625 37.55L99.8625 27.175L101.44063 27.175L101.44063 28.628124Q101.925 27.878124 102.7375 27.409374Q103.55 26.940624 104.58125 26.940624Q105.7375 26.940624 106.47188 27.425Q107.20625 27.89375 107.51875 28.753124Q108.75313 26.940624 110.72188 26.940624Q112.26875 26.940624 113.09688 27.8Q113.925 28.659374 113.925 30.425L113.925 37.55L112.175 37.55L112.175 31.01875Q112.175 29.95625 112.00313 29.503124Q111.83125 29.034374 111.37813 28.753124Q110.94063 28.471874 110.33125 28.471874Q109.2375 28.471874 108.50313 29.20625Q107.78438 29.925 107.78438 31.51875L107.78438 37.55L106.03438 37.55L106.03438 30.815624Q106.03438 29.64375 105.59688 29.065624Q105.175 28.471874 104.19063 28.471874Q103.45625 28.471874 102.81563 28.8625Q102.19063 29.253124 101.90938 30.003124Q101.62813 30.753124 101.62813 32.175L101.62813 37.55L99.8625 37.55ZM133.31563 32.534374L135.20625 33.003124Q134.6125 35.346874 133.06563 36.58125Q131.51875 37.8 129.26875 37.8Q126.95625 37.8 125.50313 36.8625Q124.06563 35.909374 123.3 34.128124Q122.55 32.33125 122.55 30.284374Q122.55 28.05 123.39375 26.39375Q124.25313 24.721874 125.83125 23.8625Q127.40938 22.9875 129.3 22.9875Q131.45625 22.9875 132.90938 24.08125Q134.37813 25.175 134.95625 27.159374L133.09688 27.596874Q132.59688 26.034374 131.64375 25.33125Q130.70625 24.6125 129.26875 24.6125Q127.6125 24.6125 126.50313 25.409374Q125.39375 26.190624 124.94063 27.534374Q124.50313 28.8625 124.50313 30.26875Q124.50313 32.096874 125.03438 33.471874Q125.56563 34.83125 126.69063 35.503124Q127.81563 36.175 129.1125 36.175Q130.70625 36.175 131.81563 35.253124Q132.925 34.33125 133.31563 32.534374ZM136.22188 32.3625Q136.22188 29.4875 137.81563 28.096874Q139.15938 26.940624 141.08125 26.940624Q143.22188 26.940624 144.56563 28.346874Q145.925 29.753124 145.925 32.221874Q145.925 34.221874 145.33125 35.378124Q144.7375 36.51875 143.58125 37.159374Q142.44063 37.784374 141.08125 37.784374Q138.89375 37.784374 137.55 36.39375Q136.22188 34.9875 136.22188 32.3625ZM138.01875 32.3625Q138.01875 34.3625 138.87813 35.346874Q139.75313 36.33125 141.08125 36.33125Q142.39375 36.33125 143.25313 35.346874Q144.12813 34.346874 144.12813 32.3Q144.12813 30.378124 143.25313 29.39375Q142.37813 28.39375 141.08125 28.39375Q139.75313 28.39375 138.87813 29.39375Q138.01875 30.378124 138.01875 32.3625ZM147.8625 37.55L147.8625 27.175L149.45625 27.175L149.45625 28.659374Q150.59688 26.940624 152.75313 26.940624Q153.69063 26.940624 154.47188 27.284374Q155.26875 27.6125 155.65938 28.159374Q156.05 28.70625 156.20625 29.45625Q156.3 29.95625 156.3 31.175L156.3 37.55L154.53438 37.55L154.53438 31.2375Q154.53438 30.159374 154.33125 29.628124Q154.12813 29.096874 153.59688 28.784374Q153.08125 28.471874 152.37813 28.471874Q151.25313 28.471874 150.44063 29.190624Q149.62813 29.89375 149.62813 31.878124L149.62813 37.55L147.8625 37.55ZM165.64375 33.753124L167.3625 33.971874Q167.08125 35.76875 165.90938 36.784374Q164.75313 37.784374 163.05 37.784374Q160.925 37.784374 159.62813 36.39375Q158.33125 35.003124 158.33125 32.409374Q158.33125 30.721874 158.87813 29.471874Q159.44063 28.20625 160.58125 27.58125Q161.72188 26.940624 163.06563 26.940624Q164.75313 26.940624 165.81563 27.8Q166.89375 28.659374 167.20625 30.221874L165.4875 30.4875Q165.25313 29.440624 164.62813 28.925Q164.00313 28.39375 163.12813 28.39375Q161.8 28.39375 160.97188 29.346874Q160.14375 30.3 160.14375 32.346874Q160.14375 34.440624 160.94063 35.39375Q161.7375 36.33125 163.03438 36.33125Q164.06563 36.33125 164.75313 35.70625Q165.45625 35.065624 165.64375 33.753124ZM175.97188 34.20625L177.78438 34.440624Q177.3625 36.01875 176.19063 36.909374Q175.03438 37.784374 173.22188 37.784374Q170.95625 37.784374 169.6125 36.39375Q168.28438 34.9875 168.28438 32.45625Q168.28438 29.83125 169.62813 28.39375Q170.97188 26.940624 173.12813 26.940624Q175.20625 26.940624 176.51875 28.3625Q177.84688 29.76875 177.84688 32.346874Q177.84688 32.503124 177.83125 32.815624L170.09688 32.815624Q170.19063 34.51875 171.06563 35.425Q171.94063 36.33125 173.2375 36.33125Q174.20625 36.33125 174.87813 35.83125Q175.56563 35.315624 175.97188 34.20625ZM170.19063 31.3625L175.9875 31.3625Q175.87813 30.065624 175.33125 29.409374Q174.4875 28.39375 173.14375 28.39375Q171.94063 28.39375 171.1125 29.20625Q170.28438 30.003124 170.19063 31.3625ZM179.8625 37.55L179.8625 27.175L181.45625 27.175L181.45625 28.659374Q182.59688 26.940624 184.75313 26.940624Q185.69063 26.940624 186.47188 27.284374Q187.26875 27.6125 187.65938 28.159374Q188.05 28.70625 188.20625 29.45625Q188.3 29.95625 188.3 31.175L188.3 37.55L186.53438 37.55L186.53438 31.2375Q186.53438 30.159374 186.33125 29.628124Q186.12813 29.096874 185.59688 28.784374Q185.08125 28.471874 184.37813 28.471874Q183.25313 28.471874 182.44063 29.190624Q181.62813 29.89375 181.62813 31.878124L181.62813 37.55L179.8625 37.55ZM194.70625 35.971874L194.95625 37.534374Q194.22188 37.690624 193.62813 37.690624Q192.675 37.690624 192.14375 37.39375Q191.62813 37.08125 191.40938 36.596874Q191.19063 36.096874 191.19063 34.51875L191.19063 28.55L189.90938 28.55L189.90938 27.175L191.19063 27.175L191.19063 24.6125L192.94063 23.55L192.94063 27.175L194.70625 27.175L194.70625 28.55L192.94063 28.55L192.94063 34.6125Q192.94063 35.3625 193.03438 35.58125Q193.12813 35.784374 193.33125 35.925Q193.55 36.05 193.94063 36.05Q194.22188 36.05 194.70625 35.971874ZM196.84688 37.55L196.84688 27.175L198.425 27.175L198.425 28.753124Q199.03438 27.64375 199.55 27.3Q200.06563 26.940624 200.675 26.940624Q201.56563 26.940624 202.4875 27.503124L201.87813 29.14375Q201.2375 28.753124 200.59688 28.753124Q200.01875 28.753124 199.55 29.1125Q199.09688 29.45625 198.89375 30.065624Q198.6125 31.003124 198.6125 32.1125L198.6125 37.55L196.84688 37.55ZM210.64375 36.26875Q209.65938 37.096874 208.75313 37.440624Q207.84688 37.784374 206.81563 37.784374Q205.1125 37.784374 204.19063 36.95625Q203.26875 36.1125 203.26875 34.815624Q203.26875 34.05 203.6125 33.425Q203.97188 32.8 204.53438 32.425Q205.09688 32.034374 205.8 31.83125Q206.31563 31.70625 207.3625 31.565624Q209.4875 31.315624 210.4875 30.971874Q210.50313 30.6125 210.50313 30.503124Q210.50313 29.440624 210.00313 28.9875Q209.33125 28.39375 208.00313 28.39375Q206.75313 28.39375 206.15938 28.83125Q205.58125 29.26875 205.3 30.378124L203.58125 30.14375Q203.81563 29.034374 204.34688 28.3625Q204.87813 27.675 205.89375 27.315624Q206.90938 26.940624 208.25313 26.940624Q209.58125 26.940624 210.40938 27.253124Q211.2375 27.565624 211.62813 28.05Q212.01875 28.51875 212.175 29.2375Q212.26875 29.690624 212.26875 30.8625L212.26875 33.20625Q212.26875 35.659374 212.37813 36.315624Q212.4875 36.95625 212.83125 37.55L210.9875 37.55Q210.72188 37.003124 210.64375 36.26875ZM210.4875 32.346874Q209.53438 32.7375 207.6125 33.003124Q206.53438 33.159374 206.08125 33.3625Q205.64375 33.55 205.39375 33.925Q205.14375 34.3 205.14375 34.76875Q205.14375 35.471874 205.675 35.940624Q206.20625 36.409374 207.2375 36.409374Q208.25313 36.409374 209.03438 35.971874Q209.83125 35.51875 210.20625 34.753124Q210.4875 34.14375 210.4875 32.9875L210.4875 32.346874ZM218.70625 35.971874L218.95625 37.534374Q218.22188 37.690624 217.62813 37.690624Q216.675 37.690624 216.14375 37.39375Q215.62813 37.08125 215.40938 36.596874Q215.19063 36.096874 215.19063 34.51875L215.19063 28.55L213.90938 28.55L213.90938 27.175L215.19063 27.175L215.19063 24.6125L216.94063 23.55L216.94063 27.175L218.70625 27.175L218.70625 28.55L216.94063 28.55L216.94063 34.6125Q216.94063 35.3625 217.03438 35.58125Q217.12813 35.784374 217.33125 35.925Q217.55 36.05 217.94063 36.05Q218.22188 36.05 218.70625 35.971874ZM220.87813 25.253124L220.87813 23.2375L222.64375 23.2375L222.64375 25.253124L220.87813 25.253124ZM220.87813 37.55L220.87813 27.175L222.64375 27.175L222.64375 37.55L220.87813 37.55ZM224.22188 32.3625Q224.22188 29.4875 225.81563 28.096874Q227.15938 26.940624 229.08125 26.940624Q231.22188 26.940624 232.56563 28.346874Q233.925 29.753124 233.925 32.221874Q233.925 34.221874 233.33125 35.378124Q232.7375 36.51875 231.58125 37.159374Q230.44063 37.784374 229.08125 37.784374Q226.89375 37.784374 225.55 36.39375Q224.22188 34.9875 224.22188 32.3625ZM226.01875 32.3625Q226.01875 34.3625 226.87813 35.346874Q227.75313 36.33125 229.08125 36.33125Q230.39375 36.33125 231.25313 35.346874Q232.12813 34.346874 232.12813 32.3Q232.12813 30.378124 231.25313 29.39375Q230.37813 28.39375 229.08125 28.39375Q227.75313 28.39375 226.87813 29.39375Q226.01875 30.378124 226.01875 32.3625ZM235.8625 37.55L235.8625 27.175L237.45625 27.175L237.45625 28.659374Q238.59688 26.940624 240.75313 26.940624Q241.69063 26.940624 242.47188 27.284374Q243.26875 27.6125 243.65938 28.159374Q244.05 28.70625 244.20625 29.45625Q244.3 29.95625 244.3 31.175L244.3 37.55L242.53438 37.55L242.53438 31.2375Q242.53438 30.159374 242.33125 29.628124Q242.12813 29.096874 241.59688 28.784374Q241.08125 28.471874 240.37813 28.471874Q239.25313 28.471874 238.44063 29.190624Q237.62813 29.89375 237.62813 31.878124L237.62813 37.55L235.8625 37.55ZM246.15938 34.45625L247.90938 34.175Q248.05 35.221874 248.72188 35.784374Q249.39375 36.33125 250.59688 36.33125Q251.8 36.33125 252.37813 35.846874Q252.97188 35.346874 252.97188 34.690624Q252.97188 34.096874 252.45625 33.753124Q252.09688 33.51875 250.65938 33.159374Q248.72188 32.659374 247.97188 32.315624Q247.2375 31.95625 246.84688 31.33125Q246.45625 30.690624 246.45625 29.925Q246.45625 29.2375 246.76875 28.64375Q247.09688 28.05 247.64375 27.659374Q248.05 27.3625 248.75313 27.159374Q249.47188 26.940624 250.28438 26.940624Q251.50313 26.940624 252.425 27.3Q253.34688 27.64375 253.78438 28.253124Q254.22188 28.846874 254.39375 29.846874L252.675 30.08125Q252.55 29.284374 251.9875 28.846874Q251.425 28.39375 250.40938 28.39375Q249.19063 28.39375 248.675 28.8Q248.15938 29.190624 248.15938 29.721874Q248.15938 30.065624 248.37813 30.346874Q248.58125 30.628124 249.05 30.815624Q249.31563 30.909374 250.59688 31.253124Q252.47188 31.753124 253.20625 32.08125Q253.94063 32.39375 254.3625 33.003124Q254.78438 33.596874 254.78438 34.503124Q254.78438 35.378124 254.26875 36.159374Q253.75313 36.940624 252.78438 37.3625Q251.81563 37.784374 250.59688 37.784374Q248.58125 37.784374 247.51875 36.940624Q246.45625 36.096874 246.15938 34.45625ZM269.64374 36.26875Q268.65936 37.096874 267.7531 37.440624Q266.84686 37.784374 265.8156 37.784374Q264.1125 37.784374 263.1906 36.95625Q262.26874 36.1125 262.26874 34.815624Q262.26874 34.05 262.6125 33.425Q262.97186 32.8 263.53436 32.425Q264.09686 32.034374 264.8 31.83125Q265.3156 31.70625 266.3625 31.565624Q268.4875 31.315624 269.4875 30.971874Q269.5031 30.6125 269.5031 30.503124Q269.5031 29.440624 269.0031 28.9875Q268.33124 28.39375 267.0031 28.39375Q265.7531 28.39375 265.15936 28.83125Q264.58124 29.26875 264.3 30.378124L262.58124 30.14375Q262.8156 29.034374 263.34686 28.3625Q263.8781 27.675 264.89374 27.315624Q265.90936 26.940624 267.2531 26.940624Q268.58124 26.940624 269.40936 27.253124Q270.2375 27.565624 270.6281 28.05Q271.01874 28.51875 271.175 29.2375Q271.26874 29.690624 271.26874 30.8625L271.26874 33.20625Q271.26874 35.659374 271.3781 36.315624Q271.4875 36.95625 271.83124 37.55L269.9875 37.55Q269.72186 37.003124 269.64374 36.26875ZM269.4875 32.346874Q268.53436 32.7375 266.6125 33.003124Q265.53436 33.159374 265.08124 33.3625Q264.64374 33.55 264.39374 33.925Q264.14374 34.3 264.14374 34.76875Q264.14374 35.471874 264.675 35.940624Q265.20624 36.409374 266.2375 36.409374Q267.2531 36.409374 268.03436 35.971874Q268.83124 35.51875 269.20624 34.753124Q269.4875 34.14375 269.4875 32.9875L269.4875 32.346874ZM277.70624 35.971874L277.95624 37.534374Q277.22186 37.690624 276.6281 37.690624Q275.675 37.690624 275.14374 37.39375Q274.6281 37.08125 274.40936 36.596874Q274.1906 36.096874 274.1906 34.51875L274.1906 28.55L272.90936 28.55L272.90936 27.175L274.1906 27.175L274.1906 24.6125L275.9406 23.55L275.9406 27.175L277.70624 27.175L277.70624 28.55L275.9406 28.55L275.9406 34.6125Q275.9406 35.3625 276.03436 35.58125Q276.1281 35.784374 276.33124 35.925Q276.55 36.05 276.9406 36.05Q277.22186 36.05 277.70624 35.971874ZM286.09686 37.55L286.09686 23.2375L291.01874 23.2375Q292.6906 23.2375 293.58124 23.440624Q294.8 23.721874 295.675 24.45625Q296.8 25.425 297.3625 26.909374Q297.925 28.39375 297.925 30.315624Q297.925 31.940624 297.55 33.20625Q297.175 34.45625 296.5656 35.284374Q295.97186 36.1125 295.26874 36.596874Q294.5656 37.065624 293.5656 37.315624Q292.5656 37.55 291.2531 37.55L286.09686 37.55ZM287.9875 35.8625L291.05 35.8625Q292.45624 35.8625 293.2531 35.596874Q294.0656 35.33125 294.55 34.846874Q295.22186 34.175 295.59686 33.05Q295.97186 31.909374 295.97186 30.284374Q295.97186 28.034374 295.2375 26.83125Q294.5031 25.628124 293.4406 25.221874Q292.6906 24.925 291.0031 24.925L287.9875 24.925L287.9875 35.8625ZM299.8781 25.253124L299.8781 23.2375L301.64374 23.2375L301.64374 25.253124L299.8781 25.253124ZM299.8781 37.55L299.8781 27.175L301.64374 27.175L301.64374 37.55L299.8781 37.55ZM304.28436 37.55L304.28436 28.55L302.7375 28.55L302.7375 27.175L304.28436 27.175L304.28436 26.08125Q304.28436 25.034374 304.47186 24.51875Q304.72186 23.83125 305.3625 23.409374Q306.0031 22.9875 307.15936 22.9875Q307.90936 22.9875 308.8 23.159374L308.53436 24.690624Q307.9875 24.596874 307.5031 24.596874Q306.70624 24.596874 306.3625 24.940624Q306.03436 25.284374 306.03436 26.221874L306.03436 27.175L308.0656 27.175L308.0656 28.55L306.03436 28.55L306.03436 37.55L304.28436 37.55ZM310.28436 37.55L310.28436 28.55L308.7375 28.55L308.7375 27.175L310.28436 27.175L310.28436 26.08125Q310.28436 25.034374 310.47186 24.51875Q310.72186 23.83125 311.3625 23.409374Q312.0031 22.9875 313.15936 22.9875Q313.90936 22.9875 314.8 23.159374L314.53436 24.690624Q313.9875 24.596874 313.5031 24.596874Q312.70624 24.596874 312.3625 24.940624Q312.03436 25.284374 312.03436 26.221874L312.03436 27.175L314.0656 27.175L314.0656 28.55L312.03436 28.55L312.03436 37.55L310.28436 37.55ZM322.97186 34.20625L324.78436 34.440624Q324.3625 36.01875 323.1906 36.909374Q322.03436 37.784374 320.22186 37.784374Q317.95624 37.784374 316.6125 36.39375Q315.28436 34.9875 315.28436 32.45625Q315.28436 29.83125 316.6281 28.39375Q317.97186 26.940624 320.1281 26.940624Q322.20624 26.940624 323.51874 28.3625Q324.84686 29.76875 324.84686 32.346874Q324.84686 32.503124 324.83124 32.815624L317.09686 32.815624Q317.1906 34.51875 318.0656 35.425Q318.9406 36.33125 320.2375 36.33125Q321.20624 36.33125 321.8781 35.83125Q322.5656 35.315624 322.97186 34.20625ZM317.1906 31.3625L322.9875 31.3625Q322.8781 30.065624 322.33124 29.409374Q321.4875 28.39375 320.14374 28.39375Q318.9406 28.39375 318.1125 29.20625Q317.28436 30.003124 317.1906 31.3625ZM326.84686 37.55L326.84686 27.175L328.425 27.175L328.425 28.753124Q329.03436 27.64375 329.55 27.3Q330.0656 26.940624 330.675 26.940624Q331.5656 26.940624 332.4875 27.503124L331.8781 29.14375Q331.2375 28.753124 330.59686 28.753124Q330.01874 28.753124 329.55 29.1125Q329.09686 29.45625 328.89374 30.065624Q328.6125 31.003124 328.6125 32.1125L328.6125 37.55L326.84686 37.55ZM340.97186 34.20625L342.78436 34.440624Q342.3625 36.01875 341.1906 36.909374Q340.03436 37.784374 338.22186 37.784374Q335.95624 37.784374 334.6125 36.39375Q333.28436 34.9875 333.28436 32.45625Q333.28436 29.83125 334.6281 28.39375Q335.97186 26.940624 338.1281 26.940624Q340.20624 26.940624 341.51874 28.3625Q342.84686 29.76875 342.84686 32.346874Q342.84686 32.503124 342.83124 32.815624L335.09686 32.815624Q335.1906 34.51875 336.0656 35.425Q336.9406 36.33125 338.2375 36.33125Q339.20624 36.33125 339.8781 35.83125Q340.5656 35.315624 340.97186 34.20625ZM335.1906 31.3625L340.9875 31.3625Q340.8781 30.065624 340.33124 29.409374Q339.4875 28.39375 338.14374 28.39375Q336.9406 28.39375 336.1125 29.20625Q335.28436 30.003124 335.1906 31.3625ZM344.8625 37.55L344.8625 27.175L346.45624 27.175L346.45624 28.659374Q347.59686 26.940624 349.7531 26.940624Q350.6906 26.940624 351.47186 27.284374Q352.26874 27.6125 352.65936 28.159374Q353.05 28.70625 353.20624 29.45625Q353.3 29.95625 353.3 31.175L353.3 37.55L351.53436 37.55L351.53436 31.2375Q351.53436 30.159374 351.33124 29.628124Q351.1281 29.096874 350.59686 28.784374Q350.08124 28.471874 349.3781 28.471874Q348.2531 28.471874 347.4406 29.190624Q346.6281 29.89375 346.6281 31.878124L346.6281 37.55L344.8625 37.55ZM359.70624 35.971874L359.95624 37.534374Q359.22186 37.690624 358.6281 37.690624Q357.675 37.690624 357.14374 37.39375Q356.6281 37.08125 356.40936 36.596874Q356.1906 36.096874 356.1906 34.51875L356.1906 28.55L354.90936 28.55L354.90936 27.175L356.1906 27.175L356.1906 24.6125L357.9406 23.55L357.9406 27.175L359.70624 27.175L359.70624 28.55L357.9406 28.55L357.9406 34.6125Q357.9406 35.3625 358.03436 35.58125Q358.1281 35.784374 358.33124 35.925Q358.55 36.05 358.9406 36.05Q359.22186 36.05 359.70624 35.971874ZM371.7375 37.55L371.7375 24.925L367.01874 24.925L367.01874 23.2375L378.3625 23.2375L378.3625 24.925L373.6281 24.925L373.6281 37.55L371.7375 37.55ZM386.97186 34.20625L388.78436 34.440624Q388.3625 36.01875 387.1906 36.909374Q386.03436 37.784374 384.22186 37.784374Q381.95624 37.784374 380.6125 36.39375Q379.28436 34.9875 379.28436 32.45625Q379.28436 29.83125 380.6281 28.39375Q381.97186 26.940624 384.1281 26.940624Q386.20624 26.940624 387.51874 28.3625Q388.84686 29.76875 388.84686 32.346874Q388.84686 32.503124 388.83124 32.815624L381.09686 32.815624Q381.1906 34.51875 382.0656 35.425Q382.9406 36.33125 384.2375 36.33125Q385.20624 36.33125 385.8781 35.83125Q386.5656 35.315624 386.97186 34.20625ZM381.1906 31.3625L386.9875 31.3625Q386.8781 30.065624 386.33124 29.409374Q385.4875 28.39375 384.14374 28.39375Q382.9406 28.39375 382.1125 29.20625Q381.28436 30.003124 381.1906 31.3625ZM390.8625 37.55L390.8625 27.175L392.4406 27.175L392.4406 28.628124Q392.925 27.878124 393.7375 27.409374Q394.55 26.940624 395.58124 26.940624Q396.7375 26.940624 397.47186 27.425Q398.20624 27.89375 398.51874 28.753124Q399.7531 26.940624 401.72186 26.940624Q403.26874 26.940624 404.09686 27.8Q404.925 28.659374 404.925 30.425L404.925 37.55L403.175 37.55L403.175 31.01875Q403.175 29.95625 403.0031 29.503124Q402.83124 29.034374 402.3781 28.753124Q401.9406 28.471874 401.33124 28.471874Q400.2375 28.471874 399.5031 29.20625Q398.78436 29.925 398.78436 31.51875L398.78436 37.55L397.03436 37.55L397.03436 30.815624Q397.03436 29.64375 396.59686 29.065624Q396.175 28.471874 395.1906 28.471874Q394.45624 28.471874 393.8156 28.8625Q393.1906 29.253124 392.90936 30.003124Q392.6281 30.753124 392.6281 32.175L392.6281 37.55L390.8625 37.55ZM407.8625 41.51875L407.8625 27.175L409.47186 27.175L409.47186 28.51875Q410.03436 27.7375 410.7375 27.346874Q411.45624 26.940624 412.47186 26.940624Q413.8 26.940624 414.8156 27.628124Q415.83124 28.315624 416.34686 29.565624Q416.8781 30.8 416.8781 32.284374Q416.8781 33.878124 416.3 35.159374Q415.7375 36.425 414.64374 37.1125Q413.55 37.784374 412.34686 37.784374Q411.47186 37.784374 410.76874 37.409374Q410.08124 37.034374 409.6281 36.471874L409.6281 41.51875L407.8625 41.51875ZM409.45624 32.425Q409.45624 34.425 410.26874 35.378124Q411.08124 36.33125 412.2375 36.33125Q413.40936 36.33125 414.2375 35.346874Q415.08124 34.3625 415.08124 32.26875Q415.08124 30.3 414.2531 29.315624Q413.4406 28.315624 412.3156 28.315624Q411.1906 28.315624 410.3156 29.378124Q409.45624 30.425 409.45624 32.425ZM425.97186 34.20625L427.78436 34.440624Q427.3625 36.01875 426.1906 36.909374Q425.03436 37.784374 423.22186 37.784374Q420.95624 37.784374 419.6125 36.39375Q418.28436 34.9875 418.28436 32.45625Q418.28436 29.83125 419.6281 28.39375Q420.97186 26.940624 423.1281 26.940624Q425.20624 26.940624 426.51874 28.3625Q427.84686 29.76875 427.84686 32.346874Q427.84686 32.503124 427.83124 32.815624L420.09686 32.815624Q420.1906 34.51875 421.0656 35.425Q421.9406 36.33125 423.2375 36.33125Q424.20624 36.33125 424.8781 35.83125Q425.5656 35.315624 425.97186 34.20625ZM420.1906 31.3625L425.9875 31.3625Q425.8781 30.065624 425.33124 29.409374Q424.4875 28.39375 423.14374 28.39375Q421.9406 28.39375 421.1125 29.20625Q420.28436 30.003124 420.1906 31.3625ZM429.84686 37.55L429.84686 27.175L431.425 27.175L431.425 28.753124Q432.03436 27.64375 432.55 27.3Q433.0656 26.940624 433.675 26.940624Q434.5656 26.940624 435.4875 27.503124L434.8781 29.14375Q434.2375 28.753124 433.59686 28.753124Q433.01874 28.753124 432.55 29.1125Q432.09686 29.45625 431.89374 30.065624Q431.6125 31.003124 431.6125 32.1125L431.6125 37.55L429.84686 37.55ZM443.64374 36.26875Q442.65936 37.096874 441.7531 37.440624Q440.84686 37.784374 439.8156 37.784374Q438.1125 37.784374 437.1906 36.95625Q436.26874 36.1125 436.26874 34.815624Q436.26874 34.05 436.6125 33.425Q436.97186 32.8 437.53436 32.425Q438.09686 32.034374 438.8 31.83125Q439.3156 31.70625 440.3625 31.565624Q442.4875 31.315624 443.4875 30.971874Q443.5031 30.6125 443.5031 30.503124Q443.5031 29.440624 443.0031 28.9875Q442.33124 28.39375 441.0031 28.39375Q439.7531 28.39375 439.15936 28.83125Q438.58124 29.26875 438.3 30.378124L436.58124 30.14375Q436.8156 29.034374 437.34686 28.3625Q437.8781 27.675 438.89374 27.315624Q439.90936 26.940624 441.2531 26.940624Q442.58124 26.940624 443.40936 27.253124Q444.2375 27.565624 444.6281 28.05Q445.01874 28.51875 445.175 29.2375Q445.26874 29.690624 445.26874 30.8625L445.26874 33.20625Q445.26874 35.659374 445.3781 36.315624Q445.4875 36.95625 445.83124 37.55L443.9875 37.55Q443.72186 37.003124 443.64374 36.26875ZM443.4875 32.346874Q442.53436 32.7375 440.6125 33.003124Q439.53436 33.159374 439.08124 33.3625Q438.64374 33.55 438.39374 33.925Q438.14374 34.3 438.14374 34.76875Q438.14374 35.471874 438.675 35.940624Q439.20624 36.409374 440.2375 36.409374Q441.2531 36.409374 442.03436 35.971874Q442.83124 35.51875 443.20624 34.753124Q443.4875 34.14375 443.4875 32.9875L443.4875 32.346874ZM451.70624 35.971874L451.95624 37.534374Q451.22186 37.690624 450.6281 37.690624Q449.675 37.690624 449.14374 37.39375Q448.6281 37.08125 448.40936 36.596874Q448.1906 36.096874 448.1906 34.51875L448.1906 28.55L446.90936 28.55L446.90936 27.175L448.1906 27.175L448.1906 24.6125L449.9406 23.55L449.9406 27.175L451.70624 27.175L451.70624 28.55L449.9406 28.55L449.9406 34.6125Q449.9406 35.3625 450.03436 35.58125Q450.1281 35.784374 450.33124 35.925Q450.55 36.05 450.9406 36.05Q451.22186 36.05 451.70624 35.971874ZM460.65936 37.55L460.65936 36.01875Q459.45624 37.784374 457.3781 37.784374Q456.45624 37.784374 455.65936 37.440624Q454.8625 37.08125 454.47186 36.55Q454.09686 36.01875 453.9406 35.2375Q453.83124 34.721874 453.83124 33.596874L453.83124 27.175L455.58124 27.175L455.58124 32.925Q455.58124 34.3 455.6906 34.784374Q455.8625 35.471874 456.39374 35.878124Q456.9406 36.26875 457.72186 36.26875Q458.51874 36.26875 459.20624 35.8625Q459.90936 35.45625 460.1906 34.76875Q460.4875 34.065624 460.4875 32.7375L460.4875 27.175L462.2375 27.175L462.2375 37.55L460.65936 37.55ZM464.84686 37.55L464.84686 27.175L466.425 27.175L466.425 28.753124Q467.03436 27.64375 467.55 27.3Q468.0656 26.940624 468.675 26.940624Q469.5656 26.940624 470.4875 27.503124L469.8781 29.14375Q469.2375 28.753124 468.59686 28.753124Q468.01874 28.753124 467.55 29.1125Q467.09686 29.45625 466.89374 30.065624Q466.6125 31.003124 466.6125 32.1125L466.6125 37.55L464.84686 37.55ZM478.97186 34.20625L480.78436 34.440624Q480.3625 36.01875 479.1906 36.909374Q478.03436 37.784374 476.22186 37.784374Q473.95624 37.784374 472.6125 36.39375Q471.28436 34.9875 471.28436 32.45625Q471.28436 29.83125 472.6281 28.39375Q473.97186 26.940624 476.1281 26.940624Q478.20624 26.940624 479.51874 28.3625Q480.84686 29.76875 480.84686 32.346874Q480.84686 32.503124 480.83124 32.815624L473.09686 32.815624Q473.1906 34.51875 474.0656 35.425Q474.9406 36.33125 476.2375 36.33125Q477.20624 36.33125 477.8781 35.83125Q478.5656 35.315624 478.97186 34.20625ZM473.1906 31.3625L478.9875 31.3625Q478.8781 30.065624 478.33124 29.409374Q477.4875 28.39375 476.14374 28.39375Q474.9406 28.39375 474.1125 29.20625Q473.28436 30.003124 473.1906 31.3625ZM482.15936 34.45625L483.90936 34.175Q484.05 35.221874 484.72186 35.784374Q485.39374 36.33125 486.59686 36.33125Q487.8 36.33125 488.3781 35.846874Q488.97186 35.346874 488.97186 34.690624Q488.97186 34.096874 488.45624 33.753124Q488.09686 33.51875 486.65936 33.159374Q484.72186 32.659374 483.97186 32.315624Q483.2375 31.95625 482.84686 31.33125Q482.45624 30.690624 482.45624 29.925Q482.45624 29.2375 482.76874 28.64375Q483.09686 28.05 483.64374 27.659374Q484.05 27.3625 484.7531 27.159374Q485.47186 26.940624 486.28436 26.940624Q487.5031 26.940624 488.425 27.3Q489.34686 27.64375 489.78436 28.253124Q490.22186 28.846874 490.39374 29.846874L488.675 30.08125Q488.55 29.284374 487.9875 28.846874Q487.425 28.39375 486.40936 28.39375Q485.1906 28.39375 484.675 28.8Q484.15936 29.190624 484.15936 29.721874Q484.15936 30.065624 484.3781 30.346874Q484.58124 30.628124 485.05 30.815624Q485.3156 30.909374 486.59686 31.253124Q488.47186 31.753124 489.20624 32.08125Q489.9406 32.39375 490.3625 33.003124Q490.78436 33.596874 490.78436 34.503124Q490.78436 35.378124 490.26874 36.159374Q489.7531 36.940624 488.78436 37.3625Q487.8156 37.784374 486.59686 37.784374Q484.58124 37.784374 483.51874 36.940624Q482.45624 36.096874 482.15936 34.45625Z" fill-rule="nonzero"/></svg>