<svg xmlns="http://www.w3.org/2000/svg" width="706.333" height="607.833" xmlns:xlink="http://www.w3.org/1999/xlink" xlink="http://www.w3.org/1999/xlink" style="position:relative;overflow:hidden" viewBox="188.833 70.333 706.333 607.833"><defs/><g><g width="195.833" height="167.667" transform="scale(1,1) translate(443.75,82.833)"><g transform="scale(1,1) translate(0,0)" stroke="#e54956" fill="#e54956" fill-opacity="1" stroke-opacity="1"><path d="M97.917.0l97.916 167.667H0L97.917.0z" stroke-width="1" stroke-dasharray="none"/></g><g width="95.5" height="81.33333333333333" transform="scale(1,1) translate(50.167,84.833)"><text width="95.5" height="37.500003814697266" transform="scale(1,1) translate(0,21.91666475931803)"><tspan text-rendering="optimizeSpeed" style="font-family:Arial,Helvetica Neue,Helvetica,sans-serif" font-size="15.277777777777779" font-weight="bold" font-style="normal" text-decoration="none" fill="#fff" opacity="1" x="12.524" text-anchor="start" y="14.583" textLength="66.21528625488281">Buddhist</tspan><tspan text-rendering="optimizeSpeed" style="font-family:Arial,Helvetica Neue,Helvetica,sans-serif" font-size="15.277777777777779" font-weight="bold" font-style="normal" text-decoration="none" fill="#fff" opacity="1" x="3.193" text-anchor="start" y="33.333" textLength="89.11458587646484">Monasteries</tspan></text></g></g><g width="323.333" height="105.667" transform="scale(1,1) translate(379.833,251.333)"><g transform="scale(1,1) translate(0,0)" stroke="#ed6d30" fill="#ed6d30" fill-opacity="1" stroke-opacity="1"><path d="M61.691.0.0 105.667H323.333L260.974.0H61.691z" stroke-width="1" stroke-dasharray="none"/></g><g width="206.5" height="94.33333333333333" transform="scale(1,1) translate(58.167,9.833)"><text width="206.5" height="18.750001907348633" transform="scale(1,1) translate(0,37.79166571299235)"><tspan text-rendering="optimizeSpeed" style="font-family:Arial,Helvetica Neue,Helvetica,sans-serif" font-size="15.277777777777779" font-weight="bold" font-style="normal" text-decoration="none" fill="#fff" opacity="1" x="43.832" text-anchor="start" y="14.583" textLength="118.8368148803711">Buddhist Monks</tspan></text></g></g><g width="442.333" height="103.667" transform="scale(1,1) translate(320.167,355.833)"><g transform="scale(1,1) translate(0,0)" stroke="#f5c332" fill="#f5c332" fill-opacity="1" stroke-opacity="1"><path d="M61.11.0H381.391L442.333 103.667H0L61.11.0z" stroke-width="1" stroke-dasharray="none"/></g><g width="317.66666666666663" height="100.66666666666666" transform="scale(1,1) translate(62.667,1.5)"><text width="317.66666666666663" height="18.750001907348633" transform="scale(1,1) translate(0,40.95833237965901)"><tspan text-rendering="optimizeSpeed" style="font-family:Arial,Helvetica Neue,Helvetica,sans-serif" font-size="15.277777777777779" font-weight="bold" font-style="normal" text-decoration="none" fill="#fff" opacity="1" x="104.502" text-anchor="start" y="14.583" textLength="108.6632080078125">Buddhist Nuns</tspan></text></g></g><g width="560.5" height="103.5" transform="scale(1,1) translate(261.667,459.5)"><g transform="scale(1,1) translate(0,0)" stroke="#90c549" fill="#90c549" fill-opacity="1" stroke-opacity="1"><path d="M60.667.0.0 103.5H560.5L499.333.0H60.667z" stroke-width="1" stroke-dasharray="none"/></g><g width="435.8333333333333" height="100.5" transform="scale(1,1) translate(62.333,1.5)"><text width="435.8333333333333" height="18.750001907348633" transform="scale(1,1) translate(0,40.874999046325684)"><tspan text-rendering="optimizeSpeed" style="font-family:Arial,Helvetica Neue,Helvetica,sans-serif" font-size="15.277777777777779" font-weight="bold" font-style="normal" text-decoration="none" fill="#fff" opacity="1" x="144.913" text-anchor="start" y="14.583" textLength="146.00694274902344">Buddhist Laypeople</tspan></text></g></g><g width="681.333" height="102.5" transform="scale(1,1) translate(201.333,563.167)"><g transform="scale(1,1) translate(0,0)" stroke="#78ced7" fill="#78ced7" fill-opacity="1" stroke-opacity="1"><path d="M59.98.0.0 102.5H681.333L620.184.0H59.98z" stroke-width="1" stroke-dasharray="none"/></g><g width="557.3333333333333" height="99.5" transform="scale(1,1) translate(61.833,1.5)"><text width="557.3333333333333" height="18.750001907348633" transform="scale(1,1) translate(0,40.374999046325684)"><tspan text-rendering="optimizeSpeed" style="font-family:Arial,Helvetica Neue,Helvetica,sans-serif" font-size="15.277777777777779" font-weight="bold" font-style="normal" text-decoration="none" fill="#fff" opacity="1" x="213.319" text-anchor="start" y="14.583" textLength="130.6944580078125">Buddhist Pilgrims</tspan></text></g></g></g></svg>