<svg xmlns="http://www.w3.org/2000/svg" xmlns:xlink="http://www.w3.org/1999/xlink" width="706.333" height="607.833" viewBox="188.833 70.333 706.333 607.833" xlink="http://www.w3.org/1999/xlink" style="position:relative;overflow:hidden"><g><g width="195.833" height="167.667"><g fill="#e54956" fill-opacity="1" stroke="#e54956" stroke-opacity="1"><path stroke-dasharray="none" stroke-width="1" d="M97.917.0l97.916 167.667H0L97.917.0z" transform="scale(1,1) translate(443.75,82.833) scale(1,1) translate(0,0)"/></g><g width="95.5" height="81.333"><text width="95.5" height="37.5" transform="scale(1,1) translate(443.75,82.833) scale(1,1) translate(50.167,84.833) scale(1,1) translate(0,21.91666475931803)"><tspan opacity="1" style="font-family:Arial,Helvetica Neue,Helvetica,sans-serif" x="12.524" y="14.583" fill="#fff" font-size="15.278" font-style="normal" font-weight="bold" text-anchor="start" text-decoration="none" text-rendering="optimizeSpeed" textLength="66.215">Buddhist</tspan><tspan opacity="1" style="font-family:Arial,Helvetica Neue,Helvetica,sans-serif" x="3.193" y="33.333" fill="#fff" font-size="15.278" font-style="normal" font-weight="bold" text-anchor="start" text-decoration="none" text-rendering="optimizeSpeed" textLength="89.115">Monasteries</tspan></text></g></g><g width="323.333" height="105.667"><g fill="#ed6d30" fill-opacity="1" stroke="#ed6d30" stroke-opacity="1"><path stroke-dasharray="none" stroke-width="1" d="M61.691.0.0 105.667H323.333L260.974.0H61.691z" transform="scale(1,1) translate(379.833,251.333) scale(1,1) translate(0,0)"/></g><g width="206.5" height="94.333"><text width="206.5" height="18.75" transform="scale(1,1) translate(379.833,251.333) scale(1,1) translate(58.167,9.833) scale(1,1) translate(0,37.79166571299235)"><tspan opacity="1" style="font-family:Arial,Helvetica Neue,Helvetica,sans-serif" x="43.832" y="14.583" fill="#fff" font-size="15.278" font-style="normal" font-weight="bold" text-anchor="start" text-decoration="none" text-rendering="optimizeSpeed" textLength="118.837">Buddhist Monks</tspan></text></g></g><g width="442.333" height="103.667"><g fill="#f5c332" fill-opacity="1" stroke="#f5c332" stroke-opacity="1"><path stroke-dasharray="none" stroke-width="1" d="M61.11.0H381.391L442.333 103.667H0L61.11.0z" transform="scale(1,1) translate(320.167,355.833) scale(1,1) translate(0,0)"/></g><g width="317.667" height="100.667"><text width="317.667" height="18.75" transform="scale(1,1) translate(320.167,355.833) scale(1,1) translate(62.667,1.5) scale(1,1) translate(0,40.95833237965901)"><tspan opacity="1" style="font-family:Arial,Helvetica Neue,Helvetica,sans-serif" x="104.502" y="14.583" fill="#fff" font-size="15.278" font-style="normal" font-weight="bold" text-anchor="start" text-decoration="none" text-rendering="optimizeSpeed" textLength="108.663">Buddhist Nuns</tspan></text></g></g><g width="560.5" height="103.5"><g fill="#90c549" fill-opacity="1" stroke="#90c549" stroke-opacity="1"><path stroke-dasharray="none" stroke-width="1" d="M60.667.0.0 103.5H560.5L499.333.0H60.667z" transform="scale(1,1) translate(261.667,459.5) scale(1,1) translate(0,0)"/></g><g width="435.833" height="100.5"><text width="435.833" height="18.75" transform="scale(1,1) translate(261.667,459.5) scale(1,1) translate(62.333,1.5) scale(1,1) translate(0,40.874999046325684)"><tspan opacity="1" style="font-family:Arial,Helvetica Neue,Helvetica,sans-serif" x="144.913" y="14.583" fill="#fff" font-size="15.278" font-style="normal" font-weight="bold" text-anchor="start" text-decoration="none" text-rendering="optimizeSpeed" textLength="146.007">Buddhist Laypeople</tspan></text></g></g><g width="681.333" height="102.5"><g fill="#78ced7" fill-opacity="1" stroke="#78ced7" stroke-opacity="1"><path stroke-dasharray="none" stroke-width="1" d="M59.98.0.0 102.5H681.333L620.184.0H59.98z" transform="scale(1,1) translate(201.333,563.167) scale(1,1) translate(0,0)"/></g><g width="557.333" height="99.5"><text width="557.333" height="18.75" transform="scale(1,1) translate(201.333,563.167) scale(1,1) translate(61.833,1.5) scale(1,1) translate(0,40.374999046325684)"><tspan opacity="1" style="font-family:Arial,Helvetica Neue,Helvetica,sans-serif" x="213.319" y="14.583" fill="#fff" font-size="15.278" font-style="normal" font-weight="bold" text-anchor="start" text-decoration="none" text-rendering="optimizeSpeed" textLength="130.694">Buddhist Pilgrims</tspan></text></g></g></g></svg>