<svg xmlns="http://www.w3.org/2000/svg" xmlns:xlink="http://www.w3.org/1999/xlink" width="500" height="500" preserveAspectRatio="xMidYMid meet" version="1.0" viewBox="0 0 375 375" zoomAndPan="magnify"><defs><clipPath id="id1"><path d="M 187 168 L 243.5625 168 L 243.5625 206.460938 L 187 206.460938 Z M 187 168" clip-rule="nonzero"/></clipPath><clipPath id="id2"><path d="M 131.0625 98 L 169 98 L 169 137 L 131.0625 137 Z M 131.0625 98" clip-rule="nonzero"/></clipPath><clipPath id="id3"><path d="M 131.0625 93.960938 L 243.5625 93.960938 L 243.5625 206.460938 L 131.0625 206.460938 Z M 131.0625 93.960938" clip-rule="nonzero"/></clipPath></defs><rect width="450" height="450" x="-37.5" y="-37.5" fill="#FFF" fill-opacity="1"/><rect width="450" height="450" x="-37.5" y="-37.5" fill="#3552C8" fill-opacity="1"/><rect width="450" height="450" x="-37.5" y="-37.5" fill="#FFF" fill-opacity="1"/><rect width="450" height="450" x="-37.5" y="-37.5" fill="#3552C8" fill-opacity="1"/><g clip-path="url(#id1)"><path fill="#A2D2FA" fill-opacity="1" fill-rule="nonzero" d="M 238.878906 168.960938 L 192 168.960938 C 189.425781 168.960938 187.3125 171.070312 187.3125 173.648438 L 187.3125 201.773438 C 187.3125 204.347656 189.425781 206.460938 192 206.460938 L 238.878906 206.460938 C 241.453125 206.460938 243.5625 204.347656 243.5625 201.773438 L 243.5625 173.648438 C 243.5625 171.070312 241.453125 168.960938 238.878906 168.960938 Z M 238.878906 168.960938"/></g><g clip-path="url(#id2)"><path fill="#A2D2FA" fill-opacity="1" fill-rule="nonzero" d="M 163.875 98.648438 L 135.75 98.648438 C 133.175781 98.648438 131.0625 100.757812 131.0625 103.335938 L 131.0625 131.460938 C 131.0625 134.035156 133.175781 136.148438 135.75 136.148438 L 163.875 136.148438 C 166.453125 136.148438 168.566406 134.035156 168.566406 131.460938 L 168.566406 103.335938 C 168.566406 100.757812 166.453125 98.648438 163.875 98.648438 Z M 163.875 98.648438"/></g><g clip-path="url(#id3)"><path fill="#A2D2FA" fill-opacity="1" fill-rule="nonzero" d="M 220.125 112.710938 L 201.375 93.960938 L 177.9375 117.398438 L 201.375 140.835938 L 220.125 122.085938 L 234.1875 122.085938 L 234.1875 145.523438 L 131.0625 145.523438 L 131.0625 192.398438 L 161.9375 192.398438 L 154.503906 199.832031 L 161.125 206.460938 L 176.5625 191.023438 C 178.402344 189.191406 178.398438 186.226562 176.5625 184.394531 L 161.125 168.960938 L 154.496094 175.589844 L 161.925781 183.023438 L 140.441406 183.023438 L 140.441406 154.898438 L 243.5625 154.898438 L 243.5625 112.710938 Z M 201.375 127.578125 L 191.195312 117.398438 L 201.375 107.21875 L 211.554688 117.398438 Z M 201.375 127.578125"/></g><g fill="#FFF" fill-opacity="1"><g><g><path d="M 13.75 -23.828125 C 13.75 -24.273438 13.972656 -24.5 14.421875 -24.5 L 19.671875 -24.5 C 20.109375 -24.5 20.328125 -24.273438 20.328125 -23.828125 L 20.328125 -0.671875 C 20.328125 -0.222656 20.109375 0 19.671875 0 L 14.421875 0 C 13.972656 0 13.75 -0.222656 13.75 -0.671875 L 13.75 -9.3125 C 13.75 -9.5 13.65625 -9.59375 13.46875 -9.59375 L 8.21875 -9.59375 C 8.03125 -9.59375 7.9375 -9.5 7.9375 -9.3125 L 7.9375 -0.671875 C 7.9375 -0.222656 7.71875 0 7.28125 0 L 2.03125 0 C 1.582031 0 1.359375 -0.222656 1.359375 -0.671875 L 1.359375 -23.828125 C 1.359375 -24.273438 1.582031 -24.5 2.03125 -24.5 L 7.28125 -24.5 C 7.71875 -24.5 7.9375 -24.273438 7.9375 -23.828125 L 7.9375 -15.5 C 7.9375 -15.3125 8.03125 -15.21875 8.21875 -15.21875 L 13.46875 -15.21875 C 13.65625 -15.21875 13.75 -15.3125 13.75 -15.5 Z M 13.75 -23.828125" transform="translate(51.84843, 266.276395)"/></g></g></g><g fill="#FFF" fill-opacity="1"><g><g><path d="M 10.75 -5.28125 C 11.445312 -5.28125 12.097656 -5.367188 12.703125 -5.546875 C 13.304688 -5.722656 13.804688 -5.960938 14.203125 -6.265625 C 14.390625 -6.398438 14.546875 -6.46875 14.671875 -6.46875 C 14.828125 -6.46875 14.976562 -6.375 15.125 -6.1875 L 17.5 -2.90625 C 17.613281 -2.71875 17.671875 -2.578125 17.671875 -2.484375 C 17.671875 -2.316406 17.59375 -2.15625 17.4375 -2 C 16.59375 -1.226562 15.566406 -0.65625 14.359375 -0.28125 C 13.160156 0.09375 11.875 0.28125 10.5 0.28125 C 8.75 0.28125 7.203125 -0.0234375 5.859375 -0.640625 C 4.515625 -1.265625 3.425781 -2.148438 2.59375 -3.296875 C 1.425781 -4.921875 0.84375 -6.898438 0.84375 -9.234375 C 0.84375 -10.242188 0.96875 -11.226562 1.21875 -12.1875 C 1.757812 -14.070312 2.816406 -15.59375 4.390625 -16.75 C 5.960938 -17.90625 7.789062 -18.484375 9.875 -18.484375 C 12.269531 -18.484375 14.210938 -17.707031 15.703125 -16.15625 C 17.203125 -14.601562 18.1875 -12.484375 18.65625 -9.796875 C 18.769531 -9.234375 18.835938 -8.675781 18.859375 -8.125 C 18.859375 -7.675781 18.640625 -7.453125 18.203125 -7.453125 L 7.8125 -7.453125 C 7.625 -7.453125 7.539062 -7.347656 7.5625 -7.140625 L 7.734375 -6.6875 C 8.179688 -5.75 9.1875 -5.28125 10.75 -5.28125 Z M 9.734375 -12.84375 C 8.773438 -12.84375 8.109375 -12.375 7.734375 -11.4375 L 7.625 -11.171875 L 7.59375 -11.0625 C 7.59375 -10.914062 7.6875 -10.84375 7.875 -10.84375 L 11.65625 -10.84375 C 11.84375 -10.84375 11.9375 -10.914062 11.9375 -11.0625 C 11.9375 -11.132812 11.914062 -11.203125 11.875 -11.265625 C 11.84375 -11.335938 11.816406 -11.394531 11.796875 -11.4375 C 11.398438 -12.375 10.710938 -12.84375 9.734375 -12.84375 Z M 9.734375 -12.84375" transform="translate(73.228602, 266.276395)"/></g></g></g><g fill="#FFF" fill-opacity="1"><g><g><path d="M 4.71875 -18.9375 C 3.601562 -18.9375 2.691406 -19.273438 1.984375 -19.953125 C 1.285156 -20.628906 0.9375 -21.515625 0.9375 -22.609375 C 0.9375 -23.703125 1.285156 -24.585938 1.984375 -25.265625 C 2.691406 -25.941406 3.601562 -26.28125 4.71875 -26.28125 C 5.863281 -26.28125 6.78125 -25.941406 7.46875 -25.265625 C 8.15625 -24.585938 8.5 -23.703125 8.5 -22.609375 C 8.5 -21.515625 8.15625 -20.628906 7.46875 -19.953125 C 6.78125 -19.273438 5.863281 -18.9375 4.71875 -18.9375 Z M 2.09375 0 C 1.65625 0 1.4375 -0.222656 1.4375 -0.671875 L 1.4375 -17.53125 C 1.4375 -17.976562 1.65625 -18.203125 2.09375 -18.203125 L 7.34375 -18.203125 C 7.789062 -18.203125 8.015625 -17.976562 8.015625 -17.53125 L 8.015625 -0.671875 C 8.015625 -0.222656 7.789062 0 7.34375 0 Z M 2.09375 0" transform="translate(92.684209, 266.276395)"/></g></g></g><g fill="#FFF" fill-opacity="1"><g><g><path d="M 22.6875 -18.484375 C 24.519531 -18.484375 25.953125 -17.910156 26.984375 -16.765625 C 28.015625 -15.617188 28.53125 -14.007812 28.53125 -11.9375 L 28.53125 -0.671875 C 28.53125 -0.222656 28.304688 0 27.859375 0 L 22.609375 0 C 22.160156 0 21.9375 -0.222656 21.9375 -0.671875 L 21.9375 -10.5 C 21.9375 -11.195312 21.769531 -11.757812 21.4375 -12.1875 C 21.101562 -12.625 20.664062 -12.84375 20.125 -12.84375 C 19.5625 -12.84375 19.101562 -12.625 18.75 -12.1875 C 18.40625 -11.757812 18.234375 -11.195312 18.234375 -10.5 L 18.234375 -0.671875 C 18.234375 -0.222656 18.007812 0 17.5625 0 L 12.3125 0 C 11.875 0 11.65625 -0.222656 11.65625 -0.671875 L 11.65625 -10.5 C 11.65625 -11.195312 11.472656 -11.757812 11.109375 -12.1875 C 10.742188 -12.625 10.269531 -12.84375 9.6875 -12.84375 C 9.195312 -12.84375 8.78125 -12.691406 8.4375 -12.390625 C 8.101562 -12.085938 7.878906 -11.679688 7.765625 -11.171875 C 7.742188 -11.078125 7.734375 -10.957031 7.734375 -10.8125 L 7.734375 -0.671875 C 7.734375 -0.222656 7.507812 0 7.0625 0 L 1.8125 0 C 1.375 0 1.15625 -0.222656 1.15625 -0.671875 L 1.15625 -17.53125 C 1.15625 -17.976562 1.375 -18.203125 1.8125 -18.203125 L 7.0625 -18.203125 C 7.507812 -18.203125 7.734375 -17.976562 7.734375 -17.53125 L 7.734375 -16.171875 C 7.734375 -16.023438 7.765625 -15.945312 7.828125 -15.9375 C 7.898438 -15.925781 7.972656 -15.976562 8.046875 -16.09375 C 8.929688 -17.6875 10.390625 -18.484375 12.421875 -18.484375 C 13.585938 -18.484375 14.613281 -18.21875 15.5 -17.6875 C 16.382812 -17.164062 17.0625 -16.414062 17.53125 -15.4375 C 17.582031 -15.320312 17.640625 -15.269531 17.703125 -15.28125 C 17.773438 -15.289062 17.835938 -15.351562 17.890625 -15.46875 C 18.796875 -17.476562 20.394531 -18.484375 22.6875 -18.484375 Z M 22.6875 -18.484375" transform="translate(102.132073, 266.276395)"/></g></g></g><g fill="#FFF" fill-opacity="1"><g><g><path d="M 12 -23.828125 C 12 -24.273438 12.222656 -24.5 12.671875 -24.5 L 17.921875 -24.5 C 18.359375 -24.5 18.578125 -24.273438 18.578125 -23.828125 L 18.578125 -0.671875 C 18.578125 -0.222656 18.359375 0 17.921875 0 L 12.671875 0 C 12.222656 0 12 -0.222656 12 -0.671875 L 12 -1.40625 C 12 -1.519531 11.960938 -1.585938 11.890625 -1.609375 C 11.828125 -1.628906 11.757812 -1.582031 11.6875 -1.46875 C 10.78125 -0.300781 9.460938 0.28125 7.734375 0.28125 C 6.171875 0.28125 4.765625 -0.210938 3.515625 -1.203125 C 2.265625 -2.191406 1.382812 -3.539062 0.875 -5.25 C 0.519531 -6.414062 0.34375 -7.722656 0.34375 -9.171875 C 0.34375 -10.847656 0.601562 -12.34375 1.125 -13.65625 C 1.675781 -15.070312 2.546875 -16.226562 3.734375 -17.125 C 4.929688 -18.03125 6.359375 -18.484375 8.015625 -18.484375 C 9.671875 -18.484375 10.894531 -17.992188 11.6875 -17.015625 C 11.78125 -16.921875 11.851562 -16.890625 11.90625 -16.921875 C 11.96875 -16.953125 12 -17.03125 12 -17.15625 Z M 11.484375 -6.546875 C 11.828125 -7.222656 12 -8.0625 12 -9.0625 C 12 -10.1875 11.8125 -11.085938 11.4375 -11.765625 C 11.019531 -12.484375 10.414062 -12.84375 9.625 -12.84375 C 8.78125 -12.84375 8.160156 -12.457031 7.765625 -11.6875 C 7.421875 -11.03125 7.25 -10.15625 7.25 -9.0625 C 7.25 -8.039062 7.421875 -7.191406 7.765625 -6.515625 C 8.191406 -5.742188 8.8125 -5.359375 9.625 -5.359375 C 10.4375 -5.359375 11.054688 -5.753906 11.484375 -6.546875 Z M 11.484375 -6.546875" transform="translate(131.700399, 266.276395)"/></g></g></g><g fill="#FFF" fill-opacity="1"><g><g><path d="M 9.0625 -18.484375 C 10.644531 -18.484375 12.101562 -18.210938 13.4375 -17.671875 C 14.769531 -17.140625 15.820312 -16.40625 16.59375 -15.46875 C 17.363281 -14.53125 17.75 -13.515625 17.75 -12.421875 L 17.75 -0.671875 C 17.75 -0.222656 17.523438 0 17.078125 0 L 11.828125 0 C 11.390625 0 11.171875 -0.222656 11.171875 -0.671875 L 11.171875 -1.296875 C 11.171875 -1.410156 11.140625 -1.476562 11.078125 -1.5 C 11.015625 -1.53125 10.9375 -1.5 10.84375 -1.40625 C 10.445312 -0.820312 9.898438 -0.394531 9.203125 -0.125 C 8.503906 0.144531 7.628906 0.28125 6.578125 0.28125 C 4.660156 0.28125 3.15625 -0.15625 2.0625 -1.03125 C 0.96875 -1.90625 0.421875 -3.179688 0.421875 -4.859375 C 0.421875 -6.640625 1.046875 -8.003906 2.296875 -8.953125 C 3.546875 -9.910156 5.359375 -10.390625 7.734375 -10.390625 L 10.890625 -10.390625 C 11.078125 -10.390625 11.171875 -10.484375 11.171875 -10.671875 L 11.171875 -11.203125 C 11.171875 -11.691406 10.988281 -12.085938 10.625 -12.390625 C 10.257812 -12.691406 9.773438 -12.84375 9.171875 -12.84375 C 8.773438 -12.84375 8.414062 -12.773438 8.09375 -12.640625 C 7.78125 -12.515625 7.554688 -12.347656 7.421875 -12.140625 C 7.273438 -11.953125 7.15625 -11.820312 7.0625 -11.75 C 6.976562 -11.6875 6.84375 -11.664062 6.65625 -11.6875 L 1.265625 -12.390625 C 0.835938 -12.429688 0.640625 -12.609375 0.671875 -12.921875 C 0.765625 -13.960938 1.1875 -14.90625 1.9375 -15.75 C 2.695312 -16.59375 3.695312 -17.257812 4.9375 -17.75 C 6.175781 -18.238281 7.550781 -18.484375 9.0625 -18.484375 Z M 8.609375 -4.265625 C 9.359375 -4.265625 9.972656 -4.460938 10.453125 -4.859375 C 10.929688 -5.253906 11.171875 -5.789062 11.171875 -6.46875 L 11.171875 -6.828125 C 11.171875 -7.015625 11.078125 -7.109375 10.890625 -7.109375 L 9.234375 -7.109375 C 7.765625 -7.109375 7.03125 -6.628906 7.03125 -5.671875 C 7.03125 -5.253906 7.164062 -4.914062 7.4375 -4.65625 C 7.707031 -4.394531 8.097656 -4.265625 8.609375 -4.265625 Z M 8.609375 -4.265625" transform="translate(151.540917, 266.276395)"/></g></g></g><g fill="#FFF" fill-opacity="1"><g><g><path d="M 1.921875 0 C 1.484375 0 1.265625 -0.222656 1.265625 -0.671875 L 1.265625 -23.828125 C 1.265625 -24.273438 1.484375 -24.5 1.921875 -24.5 L 7.171875 -24.5 C 7.617188 -24.5 7.84375 -24.273438 7.84375 -23.828125 L 7.84375 -0.671875 C 7.84375 -0.222656 7.617188 0 7.171875 0 Z M 1.921875 0" transform="translate(170.436644, 266.276395)"/></g></g></g><g fill="#FFF" fill-opacity="1"><g><g><path d="M 1.921875 0 C 1.484375 0 1.265625 -0.222656 1.265625 -0.671875 L 1.265625 -23.828125 C 1.265625 -24.273438 1.484375 -24.5 1.921875 -24.5 L 7.171875 -24.5 C 7.617188 -24.5 7.84375 -24.273438 7.84375 -23.828125 L 7.84375 -0.671875 C 7.84375 -0.222656 7.617188 0 7.171875 0 Z M 1.921875 0" transform="translate(179.534594, 266.276395)"/></g></g></g><g fill="#FFF" fill-opacity="1"><g><g><path d="M 2.03125 0 C 1.582031 0 1.359375 -0.222656 1.359375 -0.671875 L 1.359375 -23.828125 C 1.359375 -24.273438 1.582031 -24.5 2.03125 -24.5 L 7.28125 -24.5 C 7.71875 -24.5 7.9375 -24.273438 7.9375 -23.828125 L 7.9375 -0.671875 C 7.9375 -0.222656 7.71875 0 7.28125 0 Z M 2.03125 0" transform="translate(195.630959, 266.276395)"/></g></g></g><g fill="#FFF" fill-opacity="1"><g><g><path d="M 12.078125 -18.484375 C 13.242188 -18.484375 14.289062 -18.222656 15.21875 -17.703125 C 16.15625 -17.191406 16.894531 -16.441406 17.4375 -15.453125 C 17.988281 -14.460938 18.265625 -13.289062 18.265625 -11.9375 L 18.265625 -0.671875 C 18.265625 -0.222656 18.046875 0 17.609375 0 L 12.359375 0 C 11.910156 0 11.6875 -0.222656 11.6875 -0.671875 L 11.6875 -10.5 C 11.6875 -11.195312 11.503906 -11.757812 11.140625 -12.1875 C 10.785156 -12.625 10.316406 -12.84375 9.734375 -12.84375 C 9.117188 -12.84375 8.628906 -12.625 8.265625 -12.1875 C 7.910156 -11.757812 7.734375 -11.195312 7.734375 -10.5 L 7.734375 -0.671875 C 7.734375 -0.222656 7.507812 0 7.0625 0 L 1.8125 0 C 1.375 0 1.15625 -0.222656 1.15625 -0.671875 L 1.15625 -17.53125 C 1.15625 -17.976562 1.375 -18.203125 1.8125 -18.203125 L 7.0625 -18.203125 C 7.507812 -18.203125 7.734375 -17.976562 7.734375 -17.53125 L 7.734375 -16.625 C 7.734375 -16.507812 7.757812 -16.429688 7.8125 -16.390625 C 7.875 -16.359375 7.941406 -16.390625 8.015625 -16.484375 C 8.898438 -17.816406 10.253906 -18.484375 12.078125 -18.484375 Z M 12.078125 -18.484375" transform="translate(204.938862, 266.276395)"/></g></g></g><g fill="#FFF" fill-opacity="1"><g><g><path d="M 13.0625 -13.609375 C 13.0625 -13.171875 12.835938 -12.953125 12.390625 -12.953125 L 9.734375 -12.953125 C 9.546875 -12.953125 9.453125 -12.859375 9.453125 -12.671875 L 9.453125 -7.484375 C 9.453125 -6.316406 9.867188 -5.734375 10.703125 -5.734375 L 11.859375 -5.734375 C 12.304688 -5.734375 12.53125 -5.515625 12.53125 -5.078125 L 12.53125 -0.84375 C 12.53125 -0.445312 12.320312 -0.222656 11.90625 -0.171875 C 10.988281 -0.0976562 10.144531 -0.0625 9.375 -0.0625 C 7.25 -0.0625 5.6875 -0.390625 4.6875 -1.046875 C 3.6875 -1.703125 3.175781 -2.941406 3.15625 -4.765625 L 3.15625 -12.671875 C 3.15625 -12.859375 3.0625 -12.953125 2.875 -12.953125 L 1.21875 -12.953125 C 0.78125 -12.953125 0.5625 -13.171875 0.5625 -13.609375 L 0.5625 -17.53125 C 0.5625 -17.976562 0.78125 -18.203125 1.21875 -18.203125 L 2.875 -18.203125 C 3.0625 -18.203125 3.15625 -18.296875 3.15625 -18.484375 L 3.15625 -22.4375 C 3.15625 -22.875 3.375 -23.09375 3.8125 -23.09375 L 8.78125 -23.09375 C 9.226562 -23.09375 9.453125 -22.875 9.453125 -22.4375 L 9.453125 -18.484375 C 9.453125 -18.296875 9.546875 -18.203125 9.734375 -18.203125 L 12.390625 -18.203125 C 12.835938 -18.203125 13.0625 -17.976562 13.0625 -17.53125 Z M 13.0625 -13.609375" transform="translate(224.254497, 266.276395)"/></g></g></g><g fill="#FFF" fill-opacity="1"><g><g><path d="M 11.375 -18.4375 C 12.09375 -18.4375 12.6875 -18.3125 13.15625 -18.0625 C 13.457031 -17.894531 13.578125 -17.613281 13.515625 -17.21875 L 12.671875 -12.078125 C 12.597656 -11.679688 12.34375 -11.53125 11.90625 -11.625 C 11.644531 -11.6875 11.328125 -11.71875 10.953125 -11.71875 C 10.628906 -11.71875 10.289062 -11.6875 9.9375 -11.625 C 9.332031 -11.5 8.8125 -11.242188 8.375 -10.859375 C 7.945312 -10.484375 7.734375 -9.96875 7.734375 -9.3125 L 7.734375 -0.671875 C 7.734375 -0.222656 7.507812 0 7.0625 0 L 1.8125 0 C 1.375 0 1.15625 -0.222656 1.15625 -0.671875 L 1.15625 -17.53125 C 1.15625 -17.976562 1.375 -18.203125 1.8125 -18.203125 L 7.0625 -18.203125 C 7.507812 -18.203125 7.734375 -17.976562 7.734375 -17.53125 L 7.734375 -17.046875 C 7.734375 -16.929688 7.757812 -16.847656 7.8125 -16.796875 C 7.875 -16.753906 7.941406 -16.78125 8.015625 -16.875 C 8.878906 -17.914062 10 -18.4375 11.375 -18.4375 Z M 11.375 -18.4375" transform="translate(237.936411, 266.276395)"/></g></g></g><g fill="#FFF" fill-opacity="1"><g><g><path d="M 9.0625 -18.484375 C 10.644531 -18.484375 12.101562 -18.210938 13.4375 -17.671875 C 14.769531 -17.140625 15.820312 -16.40625 16.59375 -15.46875 C 17.363281 -14.53125 17.75 -13.515625 17.75 -12.421875 L 17.75 -0.671875 C 17.75 -0.222656 17.523438 0 17.078125 0 L 11.828125 0 C 11.390625 0 11.171875 -0.222656 11.171875 -0.671875 L 11.171875 -1.296875 C 11.171875 -1.410156 11.140625 -1.476562 11.078125 -1.5 C 11.015625 -1.53125 10.9375 -1.5 10.84375 -1.40625 C 10.445312 -0.820312 9.898438 -0.394531 9.203125 -0.125 C 8.503906 0.144531 7.628906 0.28125 6.578125 0.28125 C 4.660156 0.28125 3.15625 -0.15625 2.0625 -1.03125 C 0.96875 -1.90625 0.421875 -3.179688 0.421875 -4.859375 C 0.421875 -6.640625 1.046875 -8.003906 2.296875 -8.953125 C 3.546875 -9.910156 5.359375 -10.390625 7.734375 -10.390625 L 10.890625 -10.390625 C 11.078125 -10.390625 11.171875 -10.484375 11.171875 -10.671875 L 11.171875 -11.203125 C 11.171875 -11.691406 10.988281 -12.085938 10.625 -12.390625 C 10.257812 -12.691406 9.773438 -12.84375 9.171875 -12.84375 C 8.773438 -12.84375 8.414062 -12.773438 8.09375 -12.640625 C 7.78125 -12.515625 7.554688 -12.347656 7.421875 -12.140625 C 7.273438 -11.953125 7.15625 -11.820312 7.0625 -11.75 C 6.976562 -11.6875 6.84375 -11.664062 6.65625 -11.6875 L 1.265625 -12.390625 C 0.835938 -12.429688 0.640625 -12.609375 0.671875 -12.921875 C 0.765625 -13.960938 1.1875 -14.90625 1.9375 -15.75 C 2.695312 -16.59375 3.695312 -17.257812 4.9375 -17.75 C 6.175781 -18.238281 7.550781 -18.484375 9.0625 -18.484375 Z M 8.609375 -4.265625 C 9.359375 -4.265625 9.972656 -4.460938 10.453125 -4.859375 C 10.929688 -5.253906 11.171875 -5.789062 11.171875 -6.46875 L 11.171875 -6.828125 C 11.171875 -7.015625 11.078125 -7.109375 10.890625 -7.109375 L 9.234375 -7.109375 C 7.765625 -7.109375 7.03125 -6.628906 7.03125 -5.671875 C 7.03125 -5.253906 7.164062 -4.914062 7.4375 -4.65625 C 7.707031 -4.394531 8.097656 -4.265625 8.609375 -4.265625 Z M 8.609375 -4.265625" transform="translate(251.793272, 266.276395)"/></g></g></g><g fill="#FFF" fill-opacity="1"><g><g><path d="M 12.078125 -18.484375 C 13.242188 -18.484375 14.289062 -18.222656 15.21875 -17.703125 C 16.15625 -17.191406 16.894531 -16.441406 17.4375 -15.453125 C 17.988281 -14.460938 18.265625 -13.289062 18.265625 -11.9375 L 18.265625 -0.671875 C 18.265625 -0.222656 18.046875 0 17.609375 0 L 12.359375 0 C 11.910156 0 11.6875 -0.222656 11.6875 -0.671875 L 11.6875 -10.5 C 11.6875 -11.195312 11.503906 -11.757812 11.140625 -12.1875 C 10.785156 -12.625 10.316406 -12.84375 9.734375 -12.84375 C 9.117188 -12.84375 8.628906 -12.625 8.265625 -12.1875 C 7.910156 -11.757812 7.734375 -11.195312 7.734375 -10.5 L 7.734375 -0.671875 C 7.734375 -0.222656 7.507812 0 7.0625 0 L 1.8125 0 C 1.375 0 1.15625 -0.222656 1.15625 -0.671875 L 1.15625 -17.53125 C 1.15625 -17.976562 1.375 -18.203125 1.8125 -18.203125 L 7.0625 -18.203125 C 7.507812 -18.203125 7.734375 -17.976562 7.734375 -17.53125 L 7.734375 -16.625 C 7.734375 -16.507812 7.757812 -16.429688 7.8125 -16.390625 C 7.875 -16.359375 7.941406 -16.390625 8.015625 -16.484375 C 8.898438 -17.816406 10.253906 -18.484375 12.078125 -18.484375 Z M 12.078125 -18.484375" transform="translate(270.688999, 266.276395)"/></g></g></g><g fill="#FFF" fill-opacity="1"><g><g><path d="M 10.75 -5.28125 C 11.445312 -5.28125 12.097656 -5.367188 12.703125 -5.546875 C 13.304688 -5.722656 13.804688 -5.960938 14.203125 -6.265625 C 14.390625 -6.398438 14.546875 -6.46875 14.671875 -6.46875 C 14.828125 -6.46875 14.976562 -6.375 15.125 -6.1875 L 17.5 -2.90625 C 17.613281 -2.71875 17.671875 -2.578125 17.671875 -2.484375 C 17.671875 -2.316406 17.59375 -2.15625 17.4375 -2 C 16.59375 -1.226562 15.566406 -0.65625 14.359375 -0.28125 C 13.160156 0.09375 11.875 0.28125 10.5 0.28125 C 8.75 0.28125 7.203125 -0.0234375 5.859375 -0.640625 C 4.515625 -1.265625 3.425781 -2.148438 2.59375 -3.296875 C 1.425781 -4.921875 0.84375 -6.898438 0.84375 -9.234375 C 0.84375 -10.242188 0.96875 -11.226562 1.21875 -12.1875 C 1.757812 -14.070312 2.816406 -15.59375 4.390625 -16.75 C 5.960938 -17.90625 7.789062 -18.484375 9.875 -18.484375 C 12.269531 -18.484375 14.210938 -17.707031 15.703125 -16.15625 C 17.203125 -14.601562 18.1875 -12.484375 18.65625 -9.796875 C 18.769531 -9.234375 18.835938 -8.675781 18.859375 -8.125 C 18.859375 -7.675781 18.640625 -7.453125 18.203125 -7.453125 L 7.8125 -7.453125 C 7.625 -7.453125 7.539062 -7.347656 7.5625 -7.140625 L 7.734375 -6.6875 C 8.179688 -5.75 9.1875 -5.28125 10.75 -5.28125 Z M 9.734375 -12.84375 C 8.773438 -12.84375 8.109375 -12.375 7.734375 -11.4375 L 7.625 -11.171875 L 7.59375 -11.0625 C 7.59375 -10.914062 7.6875 -10.84375 7.875 -10.84375 L 11.65625 -10.84375 C 11.84375 -10.84375 11.9375 -10.914062 11.9375 -11.0625 C 11.9375 -11.132812 11.914062 -11.203125 11.875 -11.265625 C 11.84375 -11.335938 11.816406 -11.394531 11.796875 -11.4375 C 11.398438 -12.375 10.710938 -12.84375 9.734375 -12.84375 Z M 9.734375 -12.84375" transform="translate(290.004634, 266.276395)"/></g></g></g><g fill="#FFF" fill-opacity="1"><g><g><path d="M 13.0625 -13.609375 C 13.0625 -13.171875 12.835938 -12.953125 12.390625 -12.953125 L 9.734375 -12.953125 C 9.546875 -12.953125 9.453125 -12.859375 9.453125 -12.671875 L 9.453125 -7.484375 C 9.453125 -6.316406 9.867188 -5.734375 10.703125 -5.734375 L 11.859375 -5.734375 C 12.304688 -5.734375 12.53125 -5.515625 12.53125 -5.078125 L 12.53125 -0.84375 C 12.53125 -0.445312 12.320312 -0.222656 11.90625 -0.171875 C 10.988281 -0.0976562 10.144531 -0.0625 9.375 -0.0625 C 7.25 -0.0625 5.6875 -0.390625 4.6875 -1.046875 C 3.6875 -1.703125 3.175781 -2.941406 3.15625 -4.765625 L 3.15625 -12.671875 C 3.15625 -12.859375 3.0625 -12.953125 2.875 -12.953125 L 1.21875 -12.953125 C 0.78125 -12.953125 0.5625 -13.171875 0.5625 -13.609375 L 0.5625 -17.53125 C 0.5625 -17.976562 0.78125 -18.203125 1.21875 -18.203125 L 2.875 -18.203125 C 3.0625 -18.203125 3.15625 -18.296875 3.15625 -18.484375 L 3.15625 -22.4375 C 3.15625 -22.875 3.375 -23.09375 3.8125 -23.09375 L 8.78125 -23.09375 C 9.226562 -23.09375 9.453125 -22.875 9.453125 -22.4375 L 9.453125 -18.484375 C 9.453125 -18.296875 9.546875 -18.203125 9.734375 -18.203125 L 12.390625 -18.203125 C 12.835938 -18.203125 13.0625 -17.976562 13.0625 -17.53125 Z M 13.0625 -13.609375" transform="translate(309.460229, 266.276395)"/></g></g></g><g fill="#A4FFBB" fill-opacity="1"><g><g><path d="M 9.96875 0 C 9.800781 0 9.691406 -0.078125 9.640625 -0.234375 L 8.953125 -2.421875 C 8.921875 -2.472656 8.890625 -2.5 8.859375 -2.5 L 3.40625 -2.5 C 3.375 -2.5 3.34375 -2.472656 3.3125 -2.421875 L 2.625 -0.234375 C 2.570312 -0.078125 2.460938 0 2.296875 0 L 0.921875 0 C 0.691406 0 0.613281 -0.109375 0.6875 -0.328125 L 4.890625 -13.421875 C 4.941406 -13.578125 5.050781 -13.65625 5.21875 -13.65625 L 7.015625 -13.65625 C 7.191406 -13.65625 7.300781 -13.578125 7.34375 -13.421875 L 11.609375 -0.328125 C 11.617188 -0.304688 11.625 -0.269531 11.625 -0.21875 C 11.625 -0.0703125 11.539062 0 11.375 0 Z M 3.828125 -4.09375 C 3.804688 -4.019531 3.832031 -3.984375 3.90625 -3.984375 L 8.359375 -3.984375 C 8.441406 -3.984375 8.46875 -4.019531 8.4375 -4.09375 L 6.1875 -11.375 C 6.164062 -11.425781 6.140625 -11.453125 6.109375 -11.453125 C 6.085938 -11.453125 6.070312 -11.425781 6.0625 -11.375 Z M 3.828125 -4.09375" transform="translate(81.321085, 291.866378)"/></g></g></g><g fill="#A4FFBB" fill-opacity="1"><g><g><path d="M 7.40625 -13.359375 C 7.40625 -13.453125 7.429688 -13.523438 7.484375 -13.578125 C 7.535156 -13.628906 7.609375 -13.65625 7.703125 -13.65625 L 8.984375 -13.65625 C 9.078125 -13.65625 9.148438 -13.628906 9.203125 -13.578125 C 9.253906 -13.523438 9.28125 -13.453125 9.28125 -13.359375 L 9.28125 -0.296875 C 9.28125 -0.203125 9.253906 -0.128906 9.203125 -0.078125 C 9.148438 -0.0234375 9.078125 0 8.984375 0 L 7.703125 0 C 7.609375 0 7.535156 -0.0234375 7.484375 -0.078125 C 7.429688 -0.128906 7.40625 -0.203125 7.40625 -0.296875 L 7.40625 -0.796875 C 7.40625 -0.835938 7.390625 -0.863281 7.359375 -0.875 C 7.335938 -0.882812 7.316406 -0.878906 7.296875 -0.859375 C 7.003906 -0.535156 6.664062 -0.285156 6.28125 -0.109375 C 5.90625 0.0664062 5.488281 0.15625 5.03125 0.15625 C 4.09375 0.15625 3.316406 -0.0703125 2.703125 -0.53125 C 2.085938 -1 1.632812 -1.65625 1.34375 -2.5 C 1.113281 -3.144531 1 -3.972656 1 -4.984375 C 1 -5.941406 1.09375 -6.726562 1.28125 -7.34375 C 1.5625 -8.207031 2.015625 -8.878906 2.640625 -9.359375 C 3.273438 -9.835938 4.070312 -10.078125 5.03125 -10.078125 C 5.488281 -10.078125 5.90625 -9.992188 6.28125 -9.828125 C 6.664062 -9.660156 7.003906 -9.414062 7.296875 -9.09375 C 7.316406 -9.0625 7.335938 -9.046875 7.359375 -9.046875 C 7.390625 -9.054688 7.40625 -9.082031 7.40625 -9.125 Z M 6.921875 -2.515625 C 7.234375 -3.085938 7.390625 -3.90625 7.390625 -4.96875 C 7.390625 -6.039062 7.222656 -6.875 6.890625 -7.46875 C 6.503906 -8.132812 5.945312 -8.46875 5.21875 -8.46875 C 4.46875 -8.46875 3.890625 -8.15625 3.484375 -7.53125 C 3.066406 -6.875 2.859375 -6.015625 2.859375 -4.953125 C 2.859375 -3.953125 3.023438 -3.144531 3.359375 -2.53125 C 3.734375 -1.820312 4.351562 -1.46875 5.21875 -1.46875 C 5.96875 -1.46875 6.535156 -1.816406 6.921875 -2.515625 Z M 6.921875 -2.515625" transform="translate(97.506108, 291.866378)"/></g></g></g><g fill="#A4FFBB" fill-opacity="1"><g><g><path d="M 2.453125 -11.40625 C 2.078125 -11.40625 1.769531 -11.519531 1.53125 -11.75 C 1.289062 -11.976562 1.171875 -12.273438 1.171875 -12.640625 C 1.171875 -13.003906 1.289062 -13.296875 1.53125 -13.515625 C 1.769531 -13.742188 2.078125 -13.859375 2.453125 -13.859375 C 2.828125 -13.859375 3.128906 -13.742188 3.359375 -13.515625 C 3.597656 -13.296875 3.71875 -13.003906 3.71875 -12.640625 C 3.71875 -12.273438 3.597656 -11.976562 3.359375 -11.75 C 3.128906 -11.519531 2.828125 -11.40625 2.453125 -11.40625 Z M 1.8125 0 C 1.71875 0 1.644531 -0.0234375 1.59375 -0.078125 C 1.539062 -0.128906 1.515625 -0.203125 1.515625 -0.296875 L 1.515625 -9.640625 C 1.515625 -9.722656 1.539062 -9.789062 1.59375 -9.84375 C 1.644531 -9.894531 1.71875 -9.921875 1.8125 -9.921875 L 3.09375 -9.921875 C 3.1875 -9.921875 3.257812 -9.894531 3.3125 -9.84375 C 3.363281 -9.789062 3.390625 -9.722656 3.390625 -9.640625 L 3.390625 -0.296875 C 3.390625 -0.203125 3.363281 -0.128906 3.3125 -0.078125 C 3.257812 -0.0234375 3.1875 0 3.09375 0 Z M 1.8125 0" transform="translate(108.172619, 291.866378)"/></g></g></g><g fill="#A4FFBB" fill-opacity="1"><g><g><path d="M 7.46875 -9.640625 C 7.46875 -9.722656 7.492188 -9.789062 7.546875 -9.84375 C 7.597656 -9.894531 7.671875 -9.921875 7.765625 -9.921875 L 9.046875 -9.921875 C 9.140625 -9.921875 9.210938 -9.894531 9.265625 -9.84375 C 9.316406 -9.789062 9.34375 -9.722656 9.34375 -9.640625 L 9.34375 -0.5 C 9.34375 1.050781 8.894531 2.164062 8 2.84375 C 7.113281 3.53125 5.929688 3.875 4.453125 3.875 C 4.242188 3.875 3.941406 3.863281 3.546875 3.84375 C 3.367188 3.84375 3.28125 3.738281 3.28125 3.53125 L 3.3125 2.375 C 3.3125 2.289062 3.34375 2.222656 3.40625 2.171875 C 3.476562 2.117188 3.554688 2.097656 3.640625 2.109375 C 3.828125 2.117188 4.082031 2.125 4.40625 2.125 C 5.488281 2.125 6.269531 1.914062 6.75 1.5 C 7.226562 1.09375 7.46875 0.40625 7.46875 -0.5625 L 7.46875 -0.890625 C 7.46875 -0.929688 7.453125 -0.953125 7.421875 -0.953125 C 7.398438 -0.960938 7.375 -0.957031 7.34375 -0.9375 C 6.789062 -0.3125 6 0 4.96875 0 C 4.125 0 3.359375 -0.21875 2.671875 -0.65625 C 1.992188 -1.101562 1.523438 -1.753906 1.265625 -2.609375 C 1.097656 -3.179688 1.015625 -3.972656 1.015625 -4.984375 C 1.015625 -6.066406 1.113281 -6.898438 1.3125 -7.484375 C 1.550781 -8.265625 1.984375 -8.890625 2.609375 -9.359375 C 3.242188 -9.835938 3.992188 -10.078125 4.859375 -10.078125 C 5.921875 -10.078125 6.75 -9.757812 7.34375 -9.125 C 7.375 -9.082031 7.398438 -9.066406 7.421875 -9.078125 C 7.453125 -9.097656 7.46875 -9.128906 7.46875 -9.171875 Z M 7.34375 -3.171875 C 7.382812 -3.378906 7.414062 -3.597656 7.4375 -3.828125 C 7.457031 -4.066406 7.46875 -4.460938 7.46875 -5.015625 C 7.46875 -5.554688 7.457031 -5.941406 7.4375 -6.171875 C 7.414062 -6.398438 7.378906 -6.617188 7.328125 -6.828125 C 7.222656 -7.304688 6.988281 -7.695312 6.625 -8 C 6.257812 -8.3125 5.804688 -8.46875 5.265625 -8.46875 C 4.722656 -8.46875 4.269531 -8.3125 3.90625 -8 C 3.539062 -7.695312 3.28125 -7.304688 3.125 -6.828125 C 2.976562 -6.429688 2.90625 -5.828125 2.90625 -5.015625 C 2.90625 -4.117188 2.96875 -3.503906 3.09375 -3.171875 C 3.226562 -2.691406 3.488281 -2.300781 3.875 -2 C 4.257812 -1.695312 4.722656 -1.546875 5.265625 -1.546875 C 5.835938 -1.546875 6.300781 -1.695312 6.65625 -2 C 7.019531 -2.300781 7.25 -2.691406 7.34375 -3.171875 Z M 7.34375 -3.171875" transform="translate(113.067119, 291.866378)"/></g></g></g><g fill="#A4FFBB" fill-opacity="1"><g><g><path d="M 2.453125 -11.40625 C 2.078125 -11.40625 1.769531 -11.519531 1.53125 -11.75 C 1.289062 -11.976562 1.171875 -12.273438 1.171875 -12.640625 C 1.171875 -13.003906 1.289062 -13.296875 1.53125 -13.515625 C 1.769531 -13.742188 2.078125 -13.859375 2.453125 -13.859375 C 2.828125 -13.859375 3.128906 -13.742188 3.359375 -13.515625 C 3.597656 -13.296875 3.71875 -13.003906 3.71875 -12.640625 C 3.71875 -12.273438 3.597656 -11.976562 3.359375 -11.75 C 3.128906 -11.519531 2.828125 -11.40625 2.453125 -11.40625 Z M 1.8125 0 C 1.71875 0 1.644531 -0.0234375 1.59375 -0.078125 C 1.539062 -0.128906 1.515625 -0.203125 1.515625 -0.296875 L 1.515625 -9.640625 C 1.515625 -9.722656 1.539062 -9.789062 1.59375 -9.84375 C 1.644531 -9.894531 1.71875 -9.921875 1.8125 -9.921875 L 3.09375 -9.921875 C 3.1875 -9.921875 3.257812 -9.894531 3.3125 -9.84375 C 3.363281 -9.789062 3.390625 -9.722656 3.390625 -9.640625 L 3.390625 -0.296875 C 3.390625 -0.203125 3.363281 -0.128906 3.3125 -0.078125 C 3.257812 -0.0234375 3.1875 0 3.09375 0 Z M 1.8125 0" transform="translate(123.655627, 291.866378)"/></g></g></g><g fill="#A4FFBB" fill-opacity="1"><g><g><path d="M 6.265625 -8.671875 C 6.265625 -8.585938 6.238281 -8.519531 6.1875 -8.46875 C 6.132812 -8.414062 6.0625 -8.390625 5.96875 -8.390625 L 3.984375 -8.390625 C 3.910156 -8.390625 3.875 -8.351562 3.875 -8.28125 L 3.875 -3.203125 C 3.875 -2.640625 3.992188 -2.238281 4.234375 -2 C 4.484375 -1.769531 4.875 -1.65625 5.40625 -1.65625 L 5.875 -1.65625 C 5.957031 -1.65625 6.023438 -1.628906 6.078125 -1.578125 C 6.128906 -1.523438 6.15625 -1.453125 6.15625 -1.359375 L 6.15625 -0.34375 C 6.15625 -0.164062 6.0625 -0.0625 5.875 -0.03125 L 5.0625 -0.015625 C 4.0625 -0.015625 3.316406 -0.191406 2.828125 -0.546875 C 2.335938 -0.898438 2.09375 -1.554688 2.09375 -2.515625 L 2.09375 -8.28125 C 2.09375 -8.351562 2.054688 -8.390625 1.984375 -8.390625 L 0.921875 -8.390625 C 0.828125 -8.390625 0.753906 -8.414062 0.703125 -8.46875 C 0.648438 -8.519531 0.625 -8.585938 0.625 -8.671875 L 0.625 -9.640625 C 0.625 -9.722656 0.648438 -9.789062 0.703125 -9.84375 C 0.753906 -9.894531 0.828125 -9.921875 0.921875 -9.921875 L 1.984375 -9.921875 C 2.054688 -9.921875 2.09375 -9.953125 2.09375 -10.015625 L 2.09375 -12.203125 C 2.09375 -12.296875 2.117188 -12.367188 2.171875 -12.421875 C 2.222656 -12.472656 2.289062 -12.5 2.375 -12.5 L 3.59375 -12.5 C 3.675781 -12.5 3.742188 -12.472656 3.796875 -12.421875 C 3.847656 -12.367188 3.875 -12.296875 3.875 -12.203125 L 3.875 -10.015625 C 3.875 -9.953125 3.910156 -9.921875 3.984375 -9.921875 L 5.96875 -9.921875 C 6.0625 -9.921875 6.132812 -9.894531 6.1875 -9.84375 C 6.238281 -9.789062 6.265625 -9.722656 6.265625 -9.640625 Z M 6.265625 -8.671875" transform="translate(128.550128, 291.866378)"/></g></g></g><g fill="#A4FFBB" fill-opacity="1"><g><g><path d="M 5.015625 -10.078125 C 5.804688 -10.078125 6.492188 -9.9375 7.078125 -9.65625 C 7.671875 -9.382812 8.128906 -8.992188 8.453125 -8.484375 C 8.773438 -7.984375 8.9375 -7.414062 8.9375 -6.78125 L 8.9375 -0.296875 C 8.9375 -0.203125 8.910156 -0.128906 8.859375 -0.078125 C 8.804688 -0.0234375 8.734375 0 8.640625 0 L 7.34375 0 C 7.257812 0 7.191406 -0.0234375 7.140625 -0.078125 C 7.085938 -0.128906 7.0625 -0.203125 7.0625 -0.296875 L 7.0625 -0.84375 C 7.0625 -0.875 7.046875 -0.894531 7.015625 -0.90625 C 6.992188 -0.925781 6.96875 -0.921875 6.9375 -0.890625 C 6.570312 -0.554688 6.140625 -0.296875 5.640625 -0.109375 C 5.140625 0.0664062 4.597656 0.15625 4.015625 0.15625 C 3.066406 0.15625 2.285156 -0.0859375 1.671875 -0.578125 C 1.066406 -1.066406 0.765625 -1.800781 0.765625 -2.78125 C 0.765625 -3.800781 1.117188 -4.597656 1.828125 -5.171875 C 2.535156 -5.753906 3.523438 -6.046875 4.796875 -6.046875 L 6.96875 -6.046875 C 7.03125 -6.046875 7.0625 -6.078125 7.0625 -6.140625 L 7.0625 -6.65625 C 7.0625 -7.21875 6.894531 -7.660156 6.5625 -7.984375 C 6.226562 -8.304688 5.722656 -8.46875 5.046875 -8.46875 C 4.515625 -8.46875 4.082031 -8.367188 3.75 -8.171875 C 3.414062 -7.972656 3.195312 -7.695312 3.09375 -7.34375 C 3.039062 -7.175781 2.929688 -7.101562 2.765625 -7.125 L 1.359375 -7.296875 C 1.273438 -7.304688 1.207031 -7.332031 1.15625 -7.375 C 1.101562 -7.425781 1.082031 -7.484375 1.09375 -7.546875 C 1.207031 -8.285156 1.625 -8.890625 2.34375 -9.359375 C 3.070312 -9.835938 3.960938 -10.078125 5.015625 -10.078125 Z M 4.484375 -1.421875 C 5.171875 -1.421875 5.769531 -1.601562 6.28125 -1.96875 C 6.800781 -2.332031 7.0625 -2.796875 7.0625 -3.359375 L 7.0625 -4.484375 C 7.0625 -4.546875 7.03125 -4.578125 6.96875 -4.578125 L 5.140625 -4.578125 C 4.378906 -4.578125 3.769531 -4.425781 3.3125 -4.125 C 2.851562 -3.832031 2.625 -3.421875 2.625 -2.890625 C 2.625 -2.410156 2.796875 -2.046875 3.140625 -1.796875 C 3.492188 -1.546875 3.941406 -1.421875 4.484375 -1.421875 Z M 4.484375 -1.421875" transform="translate(135.745634, 291.866378)"/></g></g></g><g fill="#A4FFBB" fill-opacity="1"><g><g><path d="M 1.671875 0 C 1.585938 0 1.519531 -0.0234375 1.46875 -0.078125 C 1.414062 -0.128906 1.390625 -0.203125 1.390625 -0.296875 L 1.390625 -13.359375 C 1.390625 -13.453125 1.414062 -13.523438 1.46875 -13.578125 C 1.519531 -13.628906 1.585938 -13.65625 1.671875 -13.65625 L 2.96875 -13.65625 C 3.050781 -13.65625 3.117188 -13.628906 3.171875 -13.578125 C 3.222656 -13.523438 3.25 -13.453125 3.25 -13.359375 L 3.25 -0.296875 C 3.25 -0.203125 3.222656 -0.128906 3.171875 -0.078125 C 3.117188 -0.0234375 3.050781 0 2.96875 0 Z M 1.671875 0" transform="translate(145.827146, 291.866378)"/></g></g></g><g fill="#A4FFBB" fill-opacity="1"><g><g><path d="M 11.6875 -10.0625 C 12.664062 -10.0625 13.441406 -9.765625 14.015625 -9.171875 C 14.585938 -8.578125 14.875 -7.753906 14.875 -6.703125 L 14.875 -0.296875 C 14.875 -0.203125 14.847656 -0.128906 14.796875 -0.078125 C 14.742188 -0.0234375 14.675781 0 14.59375 0 L 13.3125 0 C 13.226562 0 13.160156 -0.0234375 13.109375 -0.078125 C 13.054688 -0.128906 13.03125 -0.203125 13.03125 -0.296875 L 13.03125 -6.3125 C 13.03125 -6.96875 12.847656 -7.484375 12.484375 -7.859375 C 12.128906 -8.242188 11.65625 -8.4375 11.0625 -8.4375 C 10.457031 -8.4375 9.96875 -8.25 9.59375 -7.875 C 9.21875 -7.5 9.03125 -6.992188 9.03125 -6.359375 L 9.03125 -0.296875 C 9.03125 -0.203125 9.003906 -0.128906 8.953125 -0.078125 C 8.898438 -0.0234375 8.828125 0 8.734375 0 L 7.46875 0 C 7.375 0 7.300781 -0.0234375 7.25 -0.078125 C 7.195312 -0.128906 7.171875 -0.203125 7.171875 -0.296875 L 7.171875 -6.3125 C 7.171875 -6.96875 6.992188 -7.484375 6.640625 -7.859375 C 6.285156 -8.242188 5.804688 -8.4375 5.203125 -8.4375 C 4.609375 -8.4375 4.128906 -8.25 3.765625 -7.875 C 3.410156 -7.5 3.234375 -6.992188 3.234375 -6.359375 L 3.234375 -0.296875 C 3.234375 -0.203125 3.207031 -0.128906 3.15625 -0.078125 C 3.101562 -0.0234375 3.03125 0 2.9375 0 L 1.65625 0 C 1.5625 0 1.488281 -0.0234375 1.4375 -0.078125 C 1.382812 -0.128906 1.359375 -0.203125 1.359375 -0.296875 L 1.359375 -9.640625 C 1.359375 -9.722656 1.382812 -9.789062 1.4375 -9.84375 C 1.488281 -9.894531 1.5625 -9.921875 1.65625 -9.921875 L 2.9375 -9.921875 C 3.03125 -9.921875 3.101562 -9.894531 3.15625 -9.84375 C 3.207031 -9.789062 3.234375 -9.722656 3.234375 -9.640625 L 3.234375 -9.109375 C 3.234375 -9.066406 3.242188 -9.039062 3.265625 -9.03125 C 3.296875 -9.019531 3.328125 -9.023438 3.359375 -9.046875 C 3.941406 -9.722656 4.765625 -10.0625 5.828125 -10.0625 C 6.484375 -10.0625 7.046875 -9.929688 7.515625 -9.671875 C 7.992188 -9.421875 8.363281 -9.054688 8.625 -8.578125 C 8.65625 -8.523438 8.695312 -8.523438 8.75 -8.578125 C 9.050781 -9.085938 9.457031 -9.460938 9.96875 -9.703125 C 10.488281 -9.941406 11.0625 -10.0625 11.6875 -10.0625 Z M 11.6875 -10.0625" transform="translate(154.368157, 291.866378)"/></g></g></g><g fill="#A4FFBB" fill-opacity="1"><g><g><path d="M 5.53125 -1.4375 C 6.59375 -1.457031 7.347656 -1.867188 7.796875 -2.671875 C 7.859375 -2.785156 7.929688 -2.84375 8.015625 -2.84375 C 8.078125 -2.84375 8.132812 -2.820312 8.1875 -2.78125 L 8.984375 -2.296875 C 9.085938 -2.234375 9.140625 -2.148438 9.140625 -2.046875 L 9.109375 -1.890625 C 8.753906 -1.253906 8.253906 -0.753906 7.609375 -0.390625 C 6.972656 -0.0234375 6.222656 0.15625 5.359375 0.15625 C 4.441406 0.15625 3.660156 -0.046875 3.015625 -0.453125 C 2.378906 -0.867188 1.898438 -1.457031 1.578125 -2.21875 C 1.253906 -3.007812 1.09375 -3.941406 1.09375 -5.015625 C 1.09375 -5.960938 1.164062 -6.679688 1.3125 -7.171875 C 1.539062 -8.066406 2.003906 -8.773438 2.703125 -9.296875 C 3.410156 -9.816406 4.265625 -10.078125 5.265625 -10.078125 C 6.503906 -10.078125 7.445312 -9.753906 8.09375 -9.109375 C 8.738281 -8.472656 9.160156 -7.539062 9.359375 -6.3125 C 9.421875 -5.832031 9.46875 -5.25 9.5 -4.5625 C 9.5 -4.363281 9.398438 -4.265625 9.203125 -4.265625 L 3.046875 -4.265625 C 2.972656 -4.265625 2.9375 -4.234375 2.9375 -4.171875 C 2.96875 -3.679688 3.015625 -3.332031 3.078125 -3.125 C 3.222656 -2.601562 3.507812 -2.191406 3.9375 -1.890625 C 4.363281 -1.585938 4.894531 -1.4375 5.53125 -1.4375 Z M 5.265625 -8.46875 C 4.691406 -8.46875 4.222656 -8.328125 3.859375 -8.046875 C 3.503906 -7.773438 3.265625 -7.398438 3.140625 -6.921875 C 3.046875 -6.640625 2.988281 -6.273438 2.96875 -5.828125 C 2.96875 -5.765625 3 -5.734375 3.0625 -5.734375 L 7.484375 -5.734375 C 7.546875 -5.734375 7.578125 -5.765625 7.578125 -5.828125 C 7.554688 -6.253906 7.519531 -6.570312 7.46875 -6.78125 C 7.34375 -7.289062 7.085938 -7.695312 6.703125 -8 C 6.316406 -8.3125 5.835938 -8.46875 5.265625 -8.46875 Z M 5.265625 -8.46875" transform="translate(170.475166, 291.866378)"/></g></g></g><g fill="#A4FFBB" fill-opacity="1"><g><g><path d="M 7.40625 -13.359375 C 7.40625 -13.453125 7.429688 -13.523438 7.484375 -13.578125 C 7.535156 -13.628906 7.609375 -13.65625 7.703125 -13.65625 L 8.984375 -13.65625 C 9.078125 -13.65625 9.148438 -13.628906 9.203125 -13.578125 C 9.253906 -13.523438 9.28125 -13.453125 9.28125 -13.359375 L 9.28125 -0.296875 C 9.28125 -0.203125 9.253906 -0.128906 9.203125 -0.078125 C 9.148438 -0.0234375 9.078125 0 8.984375 0 L 7.703125 0 C 7.609375 0 7.535156 -0.0234375 7.484375 -0.078125 C 7.429688 -0.128906 7.40625 -0.203125 7.40625 -0.296875 L 7.40625 -0.796875 C 7.40625 -0.835938 7.390625 -0.863281 7.359375 -0.875 C 7.335938 -0.882812 7.316406 -0.878906 7.296875 -0.859375 C 7.003906 -0.535156 6.664062 -0.285156 6.28125 -0.109375 C 5.90625 0.0664062 5.488281 0.15625 5.03125 0.15625 C 4.09375 0.15625 3.316406 -0.0703125 2.703125 -0.53125 C 2.085938 -1 1.632812 -1.65625 1.34375 -2.5 C 1.113281 -3.144531 1 -3.972656 1 -4.984375 C 1 -5.941406 1.09375 -6.726562 1.28125 -7.34375 C 1.5625 -8.207031 2.015625 -8.878906 2.640625 -9.359375 C 3.273438 -9.835938 4.070312 -10.078125 5.03125 -10.078125 C 5.488281 -10.078125 5.90625 -9.992188 6.28125 -9.828125 C 6.664062 -9.660156 7.003906 -9.414062 7.296875 -9.09375 C 7.316406 -9.0625 7.335938 -9.046875 7.359375 -9.046875 C 7.390625 -9.054688 7.40625 -9.082031 7.40625 -9.125 Z M 6.921875 -2.515625 C 7.234375 -3.085938 7.390625 -3.90625 7.390625 -4.96875 C 7.390625 -6.039062 7.222656 -6.875 6.890625 -7.46875 C 6.503906 -8.132812 5.945312 -8.46875 5.21875 -8.46875 C 4.46875 -8.46875 3.890625 -8.15625 3.484375 -7.53125 C 3.066406 -6.875 2.859375 -6.015625 2.859375 -4.953125 C 2.859375 -3.953125 3.023438 -3.144531 3.359375 -2.53125 C 3.734375 -1.820312 4.351562 -1.46875 5.21875 -1.46875 C 5.96875 -1.46875 6.535156 -1.816406 6.921875 -2.515625 Z M 6.921875 -2.515625" transform="translate(180.96617, 291.866378)"/></g></g></g><g fill="#A4FFBB" fill-opacity="1"><g><g><path d="M 2.453125 -11.40625 C 2.078125 -11.40625 1.769531 -11.519531 1.53125 -11.75 C 1.289062 -11.976562 1.171875 -12.273438 1.171875 -12.640625 C 1.171875 -13.003906 1.289062 -13.296875 1.53125 -13.515625 C 1.769531 -13.742188 2.078125 -13.859375 2.453125 -13.859375 C 2.828125 -13.859375 3.128906 -13.742188 3.359375 -13.515625 C 3.597656 -13.296875 3.71875 -13.003906 3.71875 -12.640625 C 3.71875 -12.273438 3.597656 -11.976562 3.359375 -11.75 C 3.128906 -11.519531 2.828125 -11.40625 2.453125 -11.40625 Z M 1.8125 0 C 1.71875 0 1.644531 -0.0234375 1.59375 -0.078125 C 1.539062 -0.128906 1.515625 -0.203125 1.515625 -0.296875 L 1.515625 -9.640625 C 1.515625 -9.722656 1.539062 -9.789062 1.59375 -9.84375 C 1.644531 -9.894531 1.71875 -9.921875 1.8125 -9.921875 L 3.09375 -9.921875 C 3.1875 -9.921875 3.257812 -9.894531 3.3125 -9.84375 C 3.363281 -9.789062 3.390625 -9.722656 3.390625 -9.640625 L 3.390625 -0.296875 C 3.390625 -0.203125 3.363281 -0.128906 3.3125 -0.078125 C 3.257812 -0.0234375 3.1875 0 3.09375 0 Z M 1.8125 0" transform="translate(191.632681, 291.866378)"/></g></g></g><g fill="#A4FFBB" fill-opacity="1"><g><g><path d="M 5.015625 -10.078125 C 5.804688 -10.078125 6.492188 -9.9375 7.078125 -9.65625 C 7.671875 -9.382812 8.128906 -8.992188 8.453125 -8.484375 C 8.773438 -7.984375 8.9375 -7.414062 8.9375 -6.78125 L 8.9375 -0.296875 C 8.9375 -0.203125 8.910156 -0.128906 8.859375 -0.078125 C 8.804688 -0.0234375 8.734375 0 8.640625 0 L 7.34375 0 C 7.257812 0 7.191406 -0.0234375 7.140625 -0.078125 C 7.085938 -0.128906 7.0625 -0.203125 7.0625 -0.296875 L 7.0625 -0.84375 C 7.0625 -0.875 7.046875 -0.894531 7.015625 -0.90625 C 6.992188 -0.925781 6.96875 -0.921875 6.9375 -0.890625 C 6.570312 -0.554688 6.140625 -0.296875 5.640625 -0.109375 C 5.140625 0.0664062 4.597656 0.15625 4.015625 0.15625 C 3.066406 0.15625 2.285156 -0.0859375 1.671875 -0.578125 C 1.066406 -1.066406 0.765625 -1.800781 0.765625 -2.78125 C 0.765625 -3.800781 1.117188 -4.597656 1.828125 -5.171875 C 2.535156 -5.753906 3.523438 -6.046875 4.796875 -6.046875 L 6.96875 -6.046875 C 7.03125 -6.046875 7.0625 -6.078125 7.0625 -6.140625 L 7.0625 -6.65625 C 7.0625 -7.21875 6.894531 -7.660156 6.5625 -7.984375 C 6.226562 -8.304688 5.722656 -8.46875 5.046875 -8.46875 C 4.515625 -8.46875 4.082031 -8.367188 3.75 -8.171875 C 3.414062 -7.972656 3.195312 -7.695312 3.09375 -7.34375 C 3.039062 -7.175781 2.929688 -7.101562 2.765625 -7.125 L 1.359375 -7.296875 C 1.273438 -7.304688 1.207031 -7.332031 1.15625 -7.375 C 1.101562 -7.425781 1.082031 -7.484375 1.09375 -7.546875 C 1.207031 -8.285156 1.625 -8.890625 2.34375 -9.359375 C 3.070312 -9.835938 3.960938 -10.078125 5.015625 -10.078125 Z M 4.484375 -1.421875 C 5.171875 -1.421875 5.769531 -1.601562 6.28125 -1.96875 C 6.800781 -2.332031 7.0625 -2.796875 7.0625 -3.359375 L 7.0625 -4.484375 C 7.0625 -4.546875 7.03125 -4.578125 6.96875 -4.578125 L 5.140625 -4.578125 C 4.378906 -4.578125 3.769531 -4.425781 3.3125 -4.125 C 2.851562 -3.832031 2.625 -3.421875 2.625 -2.890625 C 2.625 -2.410156 2.796875 -2.046875 3.140625 -1.796875 C 3.492188 -1.546875 3.941406 -1.421875 4.484375 -1.421875 Z M 4.484375 -1.421875" transform="translate(196.527181, 291.866378)"/></g></g></g><g fill="#A4FFBB" fill-opacity="1"><g><g><path d="M 5.34375 0.15625 C 4.351562 0.15625 3.503906 -0.09375 2.796875 -0.59375 C 2.097656 -1.09375 1.617188 -1.769531 1.359375 -2.625 C 1.171875 -3.226562 1.078125 -4.015625 1.078125 -4.984375 C 1.078125 -5.890625 1.171875 -6.675781 1.359375 -7.34375 C 1.617188 -8.175781 2.101562 -8.835938 2.8125 -9.328125 C 3.519531 -9.828125 4.363281 -10.078125 5.34375 -10.078125 C 6.320312 -10.078125 7.171875 -9.828125 7.890625 -9.328125 C 8.617188 -8.835938 9.097656 -8.21875 9.328125 -7.46875 C 9.390625 -7.300781 9.429688 -7.117188 9.453125 -6.921875 L 9.453125 -6.890625 C 9.453125 -6.734375 9.367188 -6.640625 9.203125 -6.609375 L 7.9375 -6.4375 L 7.875 -6.4375 C 7.726562 -6.4375 7.640625 -6.507812 7.609375 -6.65625 L 7.546875 -6.90625 C 7.441406 -7.34375 7.1875 -7.710938 6.78125 -8.015625 C 6.382812 -8.316406 5.898438 -8.46875 5.328125 -8.46875 C 4.765625 -8.46875 4.285156 -8.316406 3.890625 -8.015625 C 3.503906 -7.710938 3.253906 -7.316406 3.140625 -6.828125 C 3.023438 -6.359375 2.96875 -5.738281 2.96875 -4.96875 C 2.96875 -4.21875 3.023438 -3.609375 3.140625 -3.140625 C 3.265625 -2.617188 3.519531 -2.207031 3.90625 -1.90625 C 4.289062 -1.613281 4.765625 -1.46875 5.328125 -1.46875 C 5.878906 -1.46875 6.359375 -1.613281 6.765625 -1.90625 C 7.171875 -2.195312 7.429688 -2.566406 7.546875 -3.015625 L 7.5625 -3.09375 L 7.5625 -3.125 C 7.570312 -3.1875 7.609375 -3.242188 7.671875 -3.296875 C 7.742188 -3.359375 7.816406 -3.382812 7.890625 -3.375 L 9.171875 -3.15625 C 9.347656 -3.113281 9.429688 -3.007812 9.421875 -2.84375 C 9.410156 -2.789062 9.378906 -2.664062 9.328125 -2.46875 C 9.097656 -1.675781 8.617188 -1.039062 7.890625 -0.5625 C 7.171875 -0.0820312 6.320312 0.15625 5.34375 0.15625 Z M 5.34375 0.15625" transform="translate(210.508702, 291.866378)"/></g></g></g><g fill="#A4FFBB" fill-opacity="1"><g><g><path d="M 5.4375 0.15625 C 4.46875 0.15625 3.628906 -0.0859375 2.921875 -0.578125 C 2.210938 -1.066406 1.710938 -1.742188 1.421875 -2.609375 C 1.191406 -3.316406 1.078125 -4.109375 1.078125 -4.984375 C 1.078125 -5.910156 1.1875 -6.691406 1.40625 -7.328125 C 1.6875 -8.191406 2.1875 -8.863281 2.90625 -9.34375 C 3.625 -9.832031 4.472656 -10.078125 5.453125 -10.078125 C 6.390625 -10.078125 7.207031 -9.832031 7.90625 -9.34375 C 8.601562 -8.863281 9.101562 -8.195312 9.40625 -7.34375 C 9.632812 -6.6875 9.75 -5.910156 9.75 -5.015625 C 9.75 -4.097656 9.632812 -3.296875 9.40625 -2.609375 C 9.113281 -1.742188 8.613281 -1.066406 7.90625 -0.578125 C 7.207031 -0.0859375 6.382812 0.15625 5.4375 0.15625 Z M 5.4375 -1.46875 C 5.957031 -1.46875 6.410156 -1.613281 6.796875 -1.90625 C 7.191406 -2.195312 7.472656 -2.609375 7.640625 -3.140625 C 7.785156 -3.628906 7.859375 -4.238281 7.859375 -4.96875 C 7.859375 -5.695312 7.789062 -6.300781 7.65625 -6.78125 C 7.488281 -7.3125 7.207031 -7.722656 6.8125 -8.015625 C 6.425781 -8.316406 5.957031 -8.46875 5.40625 -8.46875 C 4.875 -8.46875 4.410156 -8.316406 4.015625 -8.015625 C 3.628906 -7.722656 3.347656 -7.3125 3.171875 -6.78125 C 3.035156 -6.332031 2.96875 -5.726562 2.96875 -4.96875 C 2.96875 -4.21875 3.035156 -3.609375 3.171875 -3.140625 C 3.328125 -2.609375 3.601562 -2.195312 4 -1.90625 C 4.40625 -1.613281 4.882812 -1.46875 5.4375 -1.46875 Z M 5.4375 -1.46875" transform="translate(220.765709, 291.866378)"/></g></g></g><g fill="#A4FFBB" fill-opacity="1"><g><g><path d="M 11.6875 -10.0625 C 12.664062 -10.0625 13.441406 -9.765625 14.015625 -9.171875 C 14.585938 -8.578125 14.875 -7.753906 14.875 -6.703125 L 14.875 -0.296875 C 14.875 -0.203125 14.847656 -0.128906 14.796875 -0.078125 C 14.742188 -0.0234375 14.675781 0 14.59375 0 L 13.3125 0 C 13.226562 0 13.160156 -0.0234375 13.109375 -0.078125 C 13.054688 -0.128906 13.03125 -0.203125 13.03125 -0.296875 L 13.03125 -6.3125 C 13.03125 -6.96875 12.847656 -7.484375 12.484375 -7.859375 C 12.128906 -8.242188 11.65625 -8.4375 11.0625 -8.4375 C 10.457031 -8.4375 9.96875 -8.25 9.59375 -7.875 C 9.21875 -7.5 9.03125 -6.992188 9.03125 -6.359375 L 9.03125 -0.296875 C 9.03125 -0.203125 9.003906 -0.128906 8.953125 -0.078125 C 8.898438 -0.0234375 8.828125 0 8.734375 0 L 7.46875 0 C 7.375 0 7.300781 -0.0234375 7.25 -0.078125 C 7.195312 -0.128906 7.171875 -0.203125 7.171875 -0.296875 L 7.171875 -6.3125 C 7.171875 -6.96875 6.992188 -7.484375 6.640625 -7.859375 C 6.285156 -8.242188 5.804688 -8.4375 5.203125 -8.4375 C 4.609375 -8.4375 4.128906 -8.25 3.765625 -7.875 C 3.410156 -7.5 3.234375 -6.992188 3.234375 -6.359375 L 3.234375 -0.296875 C 3.234375 -0.203125 3.207031 -0.128906 3.15625 -0.078125 C 3.101562 -0.0234375 3.03125 0 2.9375 0 L 1.65625 0 C 1.5625 0 1.488281 -0.0234375 1.4375 -0.078125 C 1.382812 -0.128906 1.359375 -0.203125 1.359375 -0.296875 L 1.359375 -9.640625 C 1.359375 -9.722656 1.382812 -9.789062 1.4375 -9.84375 C 1.488281 -9.894531 1.5625 -9.921875 1.65625 -9.921875 L 2.9375 -9.921875 C 3.03125 -9.921875 3.101562 -9.894531 3.15625 -9.84375 C 3.207031 -9.789062 3.234375 -9.722656 3.234375 -9.640625 L 3.234375 -9.109375 C 3.234375 -9.066406 3.242188 -9.039062 3.265625 -9.03125 C 3.296875 -9.019531 3.328125 -9.023438 3.359375 -9.046875 C 3.941406 -9.722656 4.765625 -10.0625 5.828125 -10.0625 C 6.484375 -10.0625 7.046875 -9.929688 7.515625 -9.671875 C 7.992188 -9.421875 8.363281 -9.054688 8.625 -8.578125 C 8.65625 -8.523438 8.695312 -8.523438 8.75 -8.578125 C 9.050781 -9.085938 9.457031 -9.460938 9.96875 -9.703125 C 10.488281 -9.941406 11.0625 -10.0625 11.6875 -10.0625 Z M 11.6875 -10.0625" transform="translate(231.588214, 291.866378)"/></g></g></g><g fill="#A4FFBB" fill-opacity="1"><g><g><path d="M 9.421875 -7.421875 C 9.648438 -6.773438 9.765625 -5.945312 9.765625 -4.9375 C 9.765625 -3.988281 9.671875 -3.203125 9.484375 -2.578125 C 9.203125 -1.710938 8.742188 -1.039062 8.109375 -0.5625 C 7.484375 -0.0820312 6.691406 0.15625 5.734375 0.15625 C 5.273438 0.15625 4.851562 0.0703125 4.46875 -0.09375 C 4.09375 -0.257812 3.757812 -0.507812 3.46875 -0.84375 C 3.445312 -0.863281 3.421875 -0.867188 3.390625 -0.859375 C 3.367188 -0.859375 3.359375 -0.835938 3.359375 -0.796875 L 3.359375 3.4375 C 3.359375 3.519531 3.332031 3.585938 3.28125 3.640625 C 3.226562 3.691406 3.15625 3.71875 3.0625 3.71875 L 1.78125 3.71875 C 1.6875 3.71875 1.613281 3.691406 1.5625 3.640625 C 1.507812 3.585938 1.484375 3.519531 1.484375 3.4375 L 1.484375 -9.640625 C 1.484375 -9.722656 1.507812 -9.789062 1.5625 -9.84375 C 1.613281 -9.894531 1.6875 -9.921875 1.78125 -9.921875 L 3.0625 -9.921875 C 3.15625 -9.921875 3.226562 -9.894531 3.28125 -9.84375 C 3.332031 -9.789062 3.359375 -9.722656 3.359375 -9.640625 L 3.359375 -9.125 C 3.359375 -9.082031 3.367188 -9.054688 3.390625 -9.046875 C 3.421875 -9.035156 3.445312 -9.039062 3.46875 -9.0625 C 3.757812 -9.394531 4.09375 -9.644531 4.46875 -9.8125 C 4.851562 -9.988281 5.273438 -10.078125 5.734375 -10.078125 C 6.671875 -10.078125 7.445312 -9.847656 8.0625 -9.390625 C 8.675781 -8.929688 9.128906 -8.273438 9.421875 -7.421875 Z M 7.28125 -2.40625 C 7.6875 -3.050781 7.890625 -3.90625 7.890625 -4.96875 C 7.890625 -5.96875 7.726562 -6.773438 7.40625 -7.390625 C 7.03125 -8.109375 6.40625 -8.46875 5.53125 -8.46875 C 4.789062 -8.46875 4.226562 -8.113281 3.84375 -7.40625 C 3.53125 -6.851562 3.375 -6.035156 3.375 -4.953125 C 3.375 -3.890625 3.539062 -3.054688 3.875 -2.453125 C 4.257812 -1.796875 4.8125 -1.46875 5.53125 -1.46875 C 6.289062 -1.46875 6.875 -1.78125 7.28125 -2.40625 Z M 7.28125 -2.40625" transform="translate(247.695223, 291.866378)"/></g></g></g><g fill="#A4FFBB" fill-opacity="1"><g><g><path d="M 5.015625 -10.078125 C 5.804688 -10.078125 6.492188 -9.9375 7.078125 -9.65625 C 7.671875 -9.382812 8.128906 -8.992188 8.453125 -8.484375 C 8.773438 -7.984375 8.9375 -7.414062 8.9375 -6.78125 L 8.9375 -0.296875 C 8.9375 -0.203125 8.910156 -0.128906 8.859375 -0.078125 C 8.804688 -0.0234375 8.734375 0 8.640625 0 L 7.34375 0 C 7.257812 0 7.191406 -0.0234375 7.140625 -0.078125 C 7.085938 -0.128906 7.0625 -0.203125 7.0625 -0.296875 L 7.0625 -0.84375 C 7.0625 -0.875 7.046875 -0.894531 7.015625 -0.90625 C 6.992188 -0.925781 6.96875 -0.921875 6.9375 -0.890625 C 6.570312 -0.554688 6.140625 -0.296875 5.640625 -0.109375 C 5.140625 0.0664062 4.597656 0.15625 4.015625 0.15625 C 3.066406 0.15625 2.285156 -0.0859375 1.671875 -0.578125 C 1.066406 -1.066406 0.765625 -1.800781 0.765625 -2.78125 C 0.765625 -3.800781 1.117188 -4.597656 1.828125 -5.171875 C 2.535156 -5.753906 3.523438 -6.046875 4.796875 -6.046875 L 6.96875 -6.046875 C 7.03125 -6.046875 7.0625 -6.078125 7.0625 -6.140625 L 7.0625 -6.65625 C 7.0625 -7.21875 6.894531 -7.660156 6.5625 -7.984375 C 6.226562 -8.304688 5.722656 -8.46875 5.046875 -8.46875 C 4.515625 -8.46875 4.082031 -8.367188 3.75 -8.171875 C 3.414062 -7.972656 3.195312 -7.695312 3.09375 -7.34375 C 3.039062 -7.175781 2.929688 -7.101562 2.765625 -7.125 L 1.359375 -7.296875 C 1.273438 -7.304688 1.207031 -7.332031 1.15625 -7.375 C 1.101562 -7.425781 1.082031 -7.484375 1.09375 -7.546875 C 1.207031 -8.285156 1.625 -8.890625 2.34375 -9.359375 C 3.070312 -9.835938 3.960938 -10.078125 5.015625 -10.078125 Z M 4.484375 -1.421875 C 5.171875 -1.421875 5.769531 -1.601562 6.28125 -1.96875 C 6.800781 -2.332031 7.0625 -2.796875 7.0625 -3.359375 L 7.0625 -4.484375 C 7.0625 -4.546875 7.03125 -4.578125 6.96875 -4.578125 L 5.140625 -4.578125 C 4.378906 -4.578125 3.769531 -4.425781 3.3125 -4.125 C 2.851562 -3.832031 2.625 -3.421875 2.625 -2.890625 C 2.625 -2.410156 2.796875 -2.046875 3.140625 -1.796875 C 3.492188 -1.546875 3.941406 -1.421875 4.484375 -1.421875 Z M 4.484375 -1.421875" transform="translate(258.459237, 291.866378)"/></g></g></g><g fill="#A4FFBB" fill-opacity="1"><g><g><path d="M 5.796875 -10.0625 C 6.859375 -10.0625 7.703125 -9.75 8.328125 -9.125 C 8.953125 -8.507812 9.265625 -7.675781 9.265625 -6.625 L 9.265625 -0.296875 C 9.265625 -0.203125 9.238281 -0.128906 9.1875 -0.078125 C 9.132812 -0.0234375 9.0625 0 8.96875 0 L 7.6875 0 C 7.59375 0 7.519531 -0.0234375 7.46875 -0.078125 C 7.414062 -0.128906 7.390625 -0.203125 7.390625 -0.296875 L 7.390625 -6.265625 C 7.390625 -6.910156 7.203125 -7.429688 6.828125 -7.828125 C 6.453125 -8.234375 5.953125 -8.4375 5.328125 -8.4375 C 4.765625 -8.4375 4.289062 -8.269531 3.90625 -7.9375 C 3.519531 -7.613281 3.296875 -7.171875 3.234375 -6.609375 L 3.234375 -0.296875 C 3.234375 -0.203125 3.207031 -0.128906 3.15625 -0.078125 C 3.101562 -0.0234375 3.03125 0 2.9375 0 L 1.65625 0 C 1.5625 0 1.488281 -0.0234375 1.4375 -0.078125 C 1.382812 -0.128906 1.359375 -0.203125 1.359375 -0.296875 L 1.359375 -9.640625 C 1.359375 -9.722656 1.382812 -9.789062 1.4375 -9.84375 C 1.488281 -9.894531 1.5625 -9.921875 1.65625 -9.921875 L 2.9375 -9.921875 C 3.03125 -9.921875 3.101562 -9.894531 3.15625 -9.84375 C 3.207031 -9.789062 3.234375 -9.722656 3.234375 -9.640625 L 3.234375 -9.09375 C 3.234375 -9.050781 3.242188 -9.019531 3.265625 -9 C 3.296875 -8.988281 3.316406 -9 3.328125 -9.03125 C 3.878906 -9.71875 4.703125 -10.0625 5.796875 -10.0625 Z M 5.796875 -10.0625" transform="translate(268.540749, 291.866378)"/></g></g></g><g fill="#A4FFBB" fill-opacity="1"><g><g><path d="M 1.078125 3.90625 C 1.035156 3.90625 1 3.878906 0.96875 3.828125 C 0.945312 3.773438 0.9375 3.703125 0.9375 3.609375 L 0.9375 2.609375 C 0.9375 2.421875 0.972656 2.328125 1.046875 2.328125 L 1.171875 2.328125 C 1.691406 2.328125 2.097656 2.265625 2.390625 2.140625 C 2.679688 2.023438 2.925781 1.804688 3.125 1.484375 C 3.332031 1.171875 3.523438 0.695312 3.703125 0.0625 C 3.710938 0.03125 3.710938 -0.0078125 3.703125 -0.0625 L 0.484375 -9.59375 C 0.472656 -9.625 0.46875 -9.664062 0.46875 -9.71875 C 0.46875 -9.851562 0.550781 -9.921875 0.71875 -9.921875 L 2.09375 -9.921875 C 2.257812 -9.921875 2.367188 -9.84375 2.421875 -9.6875 L 4.625 -2.671875 C 4.632812 -2.617188 4.648438 -2.59375 4.671875 -2.59375 C 4.703125 -2.59375 4.722656 -2.617188 4.734375 -2.671875 L 6.859375 -9.671875 C 6.878906 -9.742188 6.921875 -9.800781 6.984375 -9.84375 C 7.046875 -9.894531 7.117188 -9.921875 7.203125 -9.921875 L 8.5625 -9.921875 C 8.664062 -9.921875 8.734375 -9.890625 8.765625 -9.828125 C 8.804688 -9.773438 8.816406 -9.695312 8.796875 -9.59375 L 5.296875 0.6875 C 5.003906 1.582031 4.707031 2.25 4.40625 2.6875 C 4.101562 3.132812 3.710938 3.445312 3.234375 3.625 C 2.753906 3.8125 2.078125 3.90625 1.203125 3.90625 Z M 1.078125 3.90625" transform="translate(279.109768, 291.866378)"/></g></g></g><g fill="#A4FFBB" fill-opacity="1"><g><g><path d="M 2.609375 0 C 2.210938 0 1.878906 -0.128906 1.609375 -0.390625 C 1.335938 -0.648438 1.203125 -0.972656 1.203125 -1.359375 C 1.203125 -1.722656 1.34375 -2.035156 1.625 -2.296875 C 1.914062 -2.554688 2.242188 -2.6875 2.609375 -2.6875 C 2.972656 -2.6875 3.300781 -2.554688 3.59375 -2.296875 C 3.882812 -2.035156 4.03125 -1.722656 4.03125 -1.359375 C 4.03125 -0.984375 3.894531 -0.660156 3.625 -0.390625 C 3.351562 -0.128906 3.015625 0 2.609375 0 Z M 2.609375 0" transform="translate(288.391773, 291.866378)"/></g></g></g></svg>