<svg viewBox="0 0 656.24 335.67" xmlns="http://www.w3.org/2000/svg"><g fill="none" stroke-miterlimit="10"><path d="m337.36 288.59v4.52" stroke="#156a36" stroke-width="2"/><path d="m342.44 288.59v4.52" stroke="#156a36" stroke-width="2"/><path d="m346.35 281.73v11.38" stroke="#156a36" stroke-width="2"/><path d="m349.76 285.21v7.9" stroke="#156a36" stroke-width="2"/><path d="m353.47 281.73v11.38" stroke="#156a36" stroke-width="2"/><path d="m357.18 227.84v65.27" stroke="#156a36" stroke-width="2"/><path d="m360.99 15.46v277.65" stroke="#156a36" stroke-width="2"/><path d="m365.04 275.03v18.08" stroke="#156a36" stroke-width="2"/><path d="m369.72 284.96v8.15" stroke="#156a36" stroke-width="2"/><path d="m247.53 284.96v8.15" stroke="#156a36" stroke-width="2"/><path d="m243.95 284.96v8.15" stroke="#156a36" stroke-width="2"/><path d="m263.87 284.96v8.15" stroke="#156a36" stroke-width="2"/><path d="m291.28 284.96v8.15" stroke="#156a36" stroke-width="2"/><path d="m295.09 284.96v8.15" stroke="#156a36" stroke-width="2"/><path d="m298.89 284.96v8.15" stroke="#156a36" stroke-width="2"/><path d="m302.69 284.96v8.15" stroke="#156a36" stroke-width="2"/><path d="m306.49 288.59v4.52" stroke="#156a36" stroke-width="2"/><path d="m251.64 264.95v28.16" stroke="#156a36" stroke-width="2"/><path d="m255.11 254.95v38.16" stroke="#156a36" stroke-width="2"/><path d="m259.99 248v45.11" stroke="#156a36" stroke-width="2"/><path d="m228.83 284.96v8.15" stroke="#156a36" stroke-width="2"/><path d="m163.17 284.96v8.15" stroke="#156a36" stroke-width="2"/><path d="m166.93 281.79v11.32" stroke="#156a36" stroke-width="2"/><path d="m170.69 284.96v8.15" stroke="#156a36" stroke-width="2"/><path d="m177.47 284.96v8.15" stroke="#156a36" stroke-width="2"/><path d="m181.05 284.96v8.15" stroke="#156a36" stroke-width="2"/><path d="m196.14 281.79v11.32" stroke="#156a36" stroke-width="2"/><path d="m200.08 278.34v14.77" stroke="#156a36" stroke-width="2"/><path d="m204.02 275.03v18.08" stroke="#156a36" stroke-width="2"/><path d="m207.96 251.39v41.72" stroke="#156a36" stroke-width="2"/><path d="m211.9 281.79v11.32" stroke="#156a36" stroke-width="2"/><path clip-rule="evenodd" d="m95.35 293.11v5" stroke="#333"/><path clip-rule="evenodd" d="m134.62 293.11v5" stroke="#333"/><path clip-rule="evenodd" d="m173.88 293.11v5" stroke="#333"/><path clip-rule="evenodd" d="m213.15 293.11v5" stroke="#333"/><path clip-rule="evenodd" d="m252.42 293.11v5" stroke="#333"/><path clip-rule="evenodd" d="m291.68 293.11v5" stroke="#333"/><path clip-rule="evenodd" d="m330.95 293.11v5" stroke="#333"/><path clip-rule="evenodd" d="m370.21 293.11v5" stroke="#333"/><path clip-rule="evenodd" d="m409.48 293.11v5" stroke="#333"/><path clip-rule="evenodd" d="m448.75 293.11v5" stroke="#333"/><path clip-rule="evenodd" d="m488.01 293.11v5" stroke="#333"/><path clip-rule="evenodd" d="m527.28 293.11v5" stroke="#333"/><path clip-rule="evenodd" d="m566.54 293.11v5" stroke="#333"/><path clip-rule="evenodd" d="m605.81 293.11v5" stroke="#333"/><path clip-rule="evenodd" d="m645.08 298.11v-5h-549.73v-277.65h-5" stroke="#333"/><path d="m177.47 87.04v-31.72l-27.47-15.86-27.47 15.86v31.72l27.47 15.87z" stroke="#156a36"/><path d="m173.47 57.63v27.11" stroke="#156a36"/><path d="m126.53 57.63 23.47-13.55" stroke="#156a36"/><path d="m150 98.29-23.47-13.55" stroke="#156a36"/></g><path d="m634.65 325.41h1.56l-.21 1.09h.03c.57-.79 1.26-1.29 2.18-1.29.86 0 1.44.51 1.64 1.34h.03c.65-.87 1.47-1.34 2.33-1.34 1.33 0 2.09 1.07 1.81 2.56l-.9 4.58h-1.6l.87-4.5c.16-.81-.16-1.29-.92-1.29-.74 0-1.43.61-1.62 1.61l-.82 4.17h-1.62l.88-4.49c.14-.82-.16-1.3-.88-1.3-.73 0-1.48.61-1.66 1.62l-.81 4.16h-1.63zm15.31-3.25h1.56l-6.72 11.93h-1.57zm-.44 8.98 3.38-3.43c.46-.44 1.2-1.05 1.2-1.05v-.04s-.88.07-1.39.07h-2.03l.25-1.27h5.32l-.2 1.09-3.37 3.43c-.48.47-1.3 1.14-1.3 1.14l-.01.05s.94-.09 1.51-.09h2.44l-.26 1.31h-5.76z" fill="#333"/><path d="m2.7 16.32v3.85h-1.79v-9.67h4.56c1.81 0 3.11 1.03 3.11 2.72 0 1.16-.52 1.99-1.78 2.39v.04c1.03.31 1.4.9 1.51 2.09.16 1.42.17 2.21.43 2.34v.09h-1.82c-.25-.16-.25-.91-.35-2.21-.1-1.14-.64-1.64-1.79-1.64zm0-1.38h2.34c1.13 0 1.73-.57 1.73-1.47 0-.96-.51-1.51-1.66-1.51h-2.41zm10.38 5.43c-2.21 0-3.54-1.61-3.54-3.67 0-2.07 1.39-3.67 3.45-3.67 1.01 0 1.81.35 2.39.98.68.72 1 1.81.99 3.09h-5.19c.12 1.2.77 2 1.91 2 .79 0 1.31-.34 1.53-.91h1.61c-.33 1.26-1.45 2.18-3.15 2.18zm-1.87-4.3h3.46c-.06-1.14-.68-1.83-1.68-1.83-1.08 0-1.64.74-1.78 1.83zm6.34-5.58h1.66v9.67h-1.66zm2.89 7.79c0-1.57 1.2-1.95 2.85-2.15 1.14-.14 1.72-.32 1.72-.95 0-.6-.42-1-1.25-1-.92 0-1.38.43-1.42 1.12h-1.56c.05-1.18.99-2.26 2.96-2.26.79 0 1.4.12 1.86.4.65.39.99 1.05.99 1.98v3.65c0 .57.1.87.26.98v.12h-1.6c-.1-.16-.2-.43-.23-.9h-.03c-.46.61-1.08 1.07-2.18 1.07-1.36 0-2.37-.71-2.37-2.06zm4.6-.64v-1.03c-.33.21-.85.35-1.35.46-1.01.2-1.6.4-1.6 1.17 0 .74.56.96 1.2.96 1.12 0 1.75-.78 1.75-1.56zm5.47 2.59c-1.12 0-1.88-.4-1.88-1.62v-4.25h-1.07v-1.13h1.07v-2.21h1.62v2.21h1.39v1.13h-1.39v3.89c0 .51.27.65.74.65.17 0 .4-.03.53-.05h.08v1.29c-.27.04-.65.09-1.09.09zm2.26-9.74h1.69v1.6h-1.69zm.03 2.73h1.65v6.94h-1.65zm2.47 0h1.73l1.01 3.24c.3.94.58 2.33.58 2.33h.04s.27-1.39.57-2.33l1.05-3.24h1.68l-2.46 6.94h-1.81zm10.48 7.15c-2.21 0-3.54-1.61-3.54-3.67 0-2.07 1.39-3.67 3.45-3.67 1.01 0 1.81.35 2.39.98.68.72 1 1.81.99 3.09h-5.19c.12 1.2.77 2 1.91 2 .79 0 1.31-.34 1.53-.91h1.61c-.33 1.26-1.45 2.18-3.15 2.18zm-1.88-4.3h3.46c-.07-1.14-.68-1.83-1.68-1.83-1.07 0-1.63.74-1.78 1.83zm-42.96 10.02h1.81v9.67h-1.81zm5.14 9.68h-1.66v-6.94h1.61v1.01h.04c.45-.77 1.18-1.2 2.16-1.2 1.5 0 2.39.92 2.39 2.42v4.71h-1.65v-4.43c0-.82-.48-1.33-1.33-1.33-.92 0-1.57.7-1.57 1.69v4.07zm8.41.06c-1.12 0-1.88-.4-1.88-1.62v-4.25h-1.08v-1.13h1.07v-2.21h1.62v2.21h1.39v1.13h-1.38v3.89c0 .51.27.65.74.65.17 0 .4-.03.53-.05h.08v1.29c-.27.04-.65.09-1.09.09zm5.47.14c-2.21 0-3.54-1.61-3.54-3.67 0-2.07 1.39-3.67 3.45-3.67 1.01 0 1.81.35 2.39.97.68.72 1 1.81.99 3.09h-5.19c.12 1.2.77 2 1.91 2 .79 0 1.31-.34 1.53-.91h1.61c-.33 1.27-1.45 2.19-3.15 2.19zm-1.87-4.3h3.46c-.06-1.14-.68-1.83-1.68-1.83-1.08 0-1.64.74-1.78 1.83zm7.97 4.1h-1.65v-6.94h1.61v1.01h.04c.45-.77 1.18-1.2 2.16-1.2 1.5 0 2.39.92 2.39 2.42v4.71h-1.65v-4.43c0-.82-.48-1.33-1.33-1.33-.92 0-1.57.7-1.57 1.69zm5.56-2.14h1.59c.13.83.77 1.18 1.65 1.18.91 0 1.34-.39 1.34-.95 0-.69-.7-.82-1.79-1.03-1.3-.26-2.54-.56-2.54-2.13 0-1.31 1.12-2.07 2.74-2.07 1.85 0 2.77.83 2.94 2.04h-1.57c-.12-.6-.56-.92-1.38-.92-.77 0-1.17.35-1.17.83 0 .61.71.73 1.77.92 1.31.25 2.61.56 2.61 2.25 0 1.46-1.25 2.22-2.96 2.22-1.98.02-3.13-.93-3.23-2.34zm7.32-7.54h1.69v1.6h-1.69zm.02 2.73h1.65v6.94h-1.65zm5.7 7.01c-1.12 0-1.89-.4-1.89-1.62v-4.25h-1.07v-1.13h1.07v-2.21h1.63v2.21h1.39v1.13h-1.39v3.89c0 .51.27.65.74.65.17 0 .4-.03.53-.05h.08v1.29c-.27.04-.65.09-1.09.09zm2.4 2.22v-1.34h.09c.06.04.52.06.69.06.56 0 .87-.21 1.01-.77 0-.13.06-.78-.08-1.16l-2.39-6.03h1.76l1.14 3.22c.3.86.59 2.16.59 2.16h.03s.31-1.31.6-2.16l1.1-3.22h1.66l-2.69 7.33c-.57 1.53-1.17 1.98-2.3 1.98-.21.01-1.09-.03-1.21-.07z" fill="#333"/><path d="m636.6 305.96h-2.15v-1.14c1.27-.04 2.31-.55 2.52-1.86h1.34v9.33h-1.72v-6.33zm3.15 3.77h1.69c.17.81.78 1.35 1.85 1.35 1.11 0 1.85-.75 1.85-1.87 0-1.16-.79-1.85-1.78-1.85-.83 0-1.4.34-1.72.73h-1.62l.99-5.06h5.3v1.42h-4.08l-.51 2.38h.03c.48-.51 1.09-.79 2.03-.79 1.62 0 3.11 1.2 3.11 3.19 0 2-1.5 3.28-3.54 3.28-2.04-.01-3.47-1.14-3.6-2.78zm8.16-2.06c0-2.96 1.55-4.84 3.85-4.84 2.34 0 3.85 1.85 3.85 4.84 0 2.95-1.47 4.85-3.86 4.85-2.33-.01-3.84-1.9-3.84-4.85zm5.93 0c0-2.08-.64-3.46-2.08-3.46-1.43 0-2.08 1.37-2.08 3.46 0 2.08.65 3.45 2.08 3.45 1.47-.01 2.08-1.35 2.08-3.45z" fill="#333"/><path d="m65.42 13.84h-2.15v-1.14c1.27-.04 2.31-.55 2.52-1.86h1.34v9.33h-1.72v-6.33zm3.37 1.7c0-2.96 1.55-4.84 3.85-4.84 2.34 0 3.85 1.85 3.85 4.84 0 2.95-1.47 4.85-3.86 4.85-2.33 0-3.84-1.9-3.84-4.85zm5.93 0c0-2.08-.64-3.46-2.08-3.46-1.43 0-2.08 1.37-2.08 3.46 0 2.08.65 3.45 2.08 3.45 1.46-.01 2.08-1.35 2.08-3.45zm2.91 0c0-2.96 1.55-4.84 3.85-4.84 2.34 0 3.85 1.85 3.85 4.84 0 2.95-1.47 4.85-3.86 4.85-2.33 0-3.84-1.9-3.84-4.85zm5.93 0c0-2.08-.64-3.46-2.08-3.46-1.43 0-2.08 1.37-2.08 3.46 0 2.08.65 3.45 2.08 3.45 1.46-.01 2.08-1.35 2.08-3.45z" fill="#333"/><path d="m90.85 305.96h-2.15v-1.14c1.27-.04 2.31-.55 2.52-1.86h1.34v9.33h-1.72v-6.33zm3.36 1.71c0-2.96 1.55-4.84 3.85-4.84 2.34 0 3.85 1.85 3.85 4.84 0 2.95-1.47 4.85-3.86 4.85-2.33-.01-3.84-1.9-3.84-4.85zm5.93 0c0-2.08-.64-3.46-2.08-3.46-1.43 0-2.08 1.37-2.08 3.46 0 2.08.65 3.45 2.08 3.45 1.47-.01 2.08-1.35 2.08-3.45z" fill="#333"/><path d="m127.68 309.73c.78-.87 1.89-1.52 2.8-2.12.86-.55 1.36-.99 1.36-1.83 0-.92-.6-1.55-1.59-1.55-.55 0-.95.17-1.23.49-.33.35-.47.84-.47 1.51h-1.68c0-.99.25-1.69.73-2.29.56-.69 1.51-1.1 2.74-1.1 2.03 0 3.24 1.25 3.24 2.9 0 1.37-.78 2.02-1.79 2.69-.96.74-2.3 1.38-2.86 2.31v.06h4.58v1.48h-6.81c.03-1.12.4-1.88.98-2.55zm7.05-2.06c0-2.96 1.55-4.84 3.85-4.84 2.34 0 3.85 1.85 3.85 4.84 0 2.95-1.47 4.85-3.86 4.85-2.33-.01-3.84-1.9-3.84-4.85zm5.93 0c0-2.08-.64-3.46-2.08-3.46-1.43 0-2.08 1.37-2.08 3.46 0 2.08.65 3.45 2.08 3.45 1.46-.01 2.08-1.35 2.08-3.45z" fill="#333"/><path d="m166.84 311.7c-.7-.57-1.09-1.43-1.1-2.43h1.64c.05 1.12.75 1.88 2.11 1.88 1.1 0 1.82-.56 1.82-1.61 0-.99-.73-1.49-2-1.49h-.57v-1.24h.53c1.16 0 1.79-.49 1.79-1.34 0-.83-.68-1.34-1.6-1.34-1.17 0-1.78.77-1.81 1.69h-1.62c.03-1.72 1.29-2.99 3.47-2.99 1.86 0 3.25.96 3.25 2.57 0 1-.62 1.59-1.56 1.9v.03c1.22.34 1.86 1.12 1.86 2.34 0 1.88-1.59 2.85-3.5 2.85-1.13-.01-2.03-.29-2.71-.82zm7.26-4.03c0-2.96 1.55-4.84 3.85-4.84 2.34 0 3.85 1.85 3.85 4.84 0 2.95-1.47 4.85-3.86 4.85-2.33-.01-3.84-1.9-3.84-4.85zm5.93 0c0-2.08-.64-3.46-2.08-3.46-1.43 0-2.08 1.37-2.08 3.46 0 2.08.65 3.45 2.08 3.45 1.47-.01 2.08-1.35 2.08-3.45z" fill="#333"/><path d="m211.26 310.12v2.17h-1.66v-2.17h-4.41v-1.52l4.51-5.67h1.56v5.9h1.43v1.29zm-3.49-1.28h1.83v-2.65c0-.52.06-1.39.06-1.39h-.03s-.48.77-.86 1.25l-1.33 1.68c-.38.46-1.04 1.16-1.04 1.16v.03c.02-.02.85-.08 1.37-.08zm5.69-1.17c0-2.96 1.55-4.84 3.85-4.84 2.34 0 3.85 1.85 3.85 4.84 0 2.95-1.47 4.85-3.86 4.85-2.33-.01-3.84-1.9-3.84-4.85zm5.93 0c0-2.08-.64-3.46-2.08-3.46-1.43 0-2.08 1.37-2.08 3.46 0 2.08.65 3.45 2.08 3.45 1.47-.01 2.08-1.35 2.08-3.45z" fill="#333"/><path d="m244.37 309.73h1.69c.17.81.78 1.35 1.85 1.35 1.1 0 1.85-.75 1.85-1.87 0-1.16-.79-1.85-1.78-1.85-.83 0-1.4.34-1.72.73h-1.63l.99-5.06h5.3v1.42h-4.08l-.51 2.38h.03c.48-.51 1.09-.79 2.03-.79 1.62 0 3.11 1.2 3.11 3.19 0 2-1.49 3.28-3.54 3.28-2.03-.01-3.46-1.14-3.59-2.78zm8.17-2.06c0-2.96 1.55-4.84 3.85-4.84 2.34 0 3.85 1.85 3.85 4.84 0 2.95-1.47 4.85-3.86 4.85-2.33-.01-3.84-1.9-3.84-4.85zm5.93 0c0-2.08-.64-3.46-2.08-3.46-1.43 0-2.08 1.37-2.08 3.46 0 2.08.65 3.45 2.08 3.45 1.47-.01 2.08-1.35 2.08-3.45z" fill="#333"/><path d="m284.84 311.42c-.82-.87-1.16-2.11-1.16-3.76-.01-1.47.31-2.72 1-3.59.65-.81 1.55-1.25 2.81-1.25 1.9 0 2.94 1.13 3.16 2.39h-1.66c-.1-.53-.56-1.11-1.47-1.11-1.47 0-2.13 1.16-2.21 3.25h.03c.56-.86 1.33-1.3 2.39-1.3 1.74 0 3.17 1.37 3.19 3.2.01 1.86-1.47 3.25-3.41 3.25-1.17.01-2.06-.4-2.67-1.08zm4.46-2.12c0-1.13-.81-1.91-1.86-1.91-1.16 0-1.95.77-1.95 1.9 0 1.12.86 1.91 1.96 1.91 1.06 0 1.85-.79 1.85-1.9zm2.69-1.63c0-2.96 1.55-4.84 3.85-4.84 2.34 0 3.85 1.85 3.85 4.84 0 2.95-1.47 4.85-3.86 4.85-2.33-.01-3.84-1.9-3.84-4.85zm5.93 0c0-2.08-.64-3.46-2.08-3.46-1.43 0-2.08 1.37-2.08 3.46 0 2.08.65 3.45 2.08 3.45 1.47-.01 2.08-1.35 2.08-3.45z" fill="#333"/><path d="m328.36 304.47v-.03s-.96.07-1.98.07h-3.02v-1.47h6.67v1.34c-1.77 1.65-3.43 4.49-3.57 7.92h-1.81c.17-3.31 1.92-6.31 3.71-7.83zm2.29 3.2c0-2.96 1.55-4.84 3.85-4.84 2.34 0 3.85 1.85 3.85 4.84 0 2.95-1.47 4.85-3.86 4.85-2.33-.01-3.84-1.9-3.84-4.85zm5.93 0c0-2.08-.64-3.46-2.08-3.46-1.43 0-2.08 1.37-2.08 3.46 0 2.08.65 3.45 2.08 3.45 1.47-.01 2.08-1.35 2.08-3.45z" fill="#333"/><path d="m362.13 309.65c0-1.2.74-2.03 1.92-2.37v-.04c-.99-.32-1.5-1.01-1.5-1.92 0-1.51 1.34-2.5 3.26-2.5 1.94 0 3.26.95 3.26 2.47 0 .9-.51 1.6-1.48 1.92v.04c1.21.31 1.91 1.2 1.91 2.35 0 1.95-1.66 2.9-3.67 2.9-1.98.01-3.7-.93-3.7-2.85zm5.66-.07c0-1.03-.73-1.68-1.95-1.68s-1.96.65-1.96 1.68c0 1 .74 1.61 1.98 1.61 1.18 0 1.93-.63 1.93-1.61zm-.34-4.18c0-.81-.6-1.33-1.63-1.33s-1.64.52-1.64 1.33.61 1.31 1.64 1.31c1.03.01 1.63-.5 1.63-1.31zm3.03 2.27c0-2.96 1.55-4.84 3.85-4.84 2.34 0 3.85 1.85 3.85 4.84 0 2.95-1.47 4.85-3.86 4.85-2.33-.01-3.84-1.9-3.84-4.85zm5.93 0c0-2.08-.64-3.46-2.08-3.46-1.43 0-2.08 1.37-2.08 3.46 0 2.08.65 3.45 2.08 3.45 1.47-.01 2.08-1.35 2.08-3.45z" fill="#333"/><path d="m401.62 310.04h1.68c.12.58.64 1.17 1.62 1.17.65 0 1.13-.22 1.48-.7.39-.49.58-1.3.64-2.44h-.03c-.57.74-1.34 1.2-2.37 1.2-1.79 0-3.24-1.35-3.24-3.21 0-1.85 1.47-3.22 3.48-3.22 1 0 1.82.31 2.42.82.96.79 1.34 2.09 1.34 4 0 1.7-.34 3.07-1.17 3.9-.6.62-1.44.96-2.52.96-1.9-.01-3.16-1.11-3.33-2.48zm5.25-4c0-1.12-.84-1.9-1.94-1.9-1.13 0-1.91.79-1.91 1.9s.79 1.91 1.9 1.91c1.17 0 1.95-.78 1.95-1.91zm2.93 1.63c0-2.96 1.55-4.84 3.85-4.84 2.34 0 3.85 1.85 3.85 4.84 0 2.95-1.47 4.85-3.86 4.85-2.33-.01-3.84-1.9-3.84-4.85zm5.93 0c0-2.08-.64-3.46-2.08-3.46-1.43 0-2.08 1.37-2.08 3.46 0 2.08.65 3.45 2.08 3.45 1.47-.01 2.08-1.35 2.08-3.45z" fill="#333"/><path d="m439.82 305.96h-2.15v-1.14c1.27-.04 2.31-.55 2.52-1.86h1.34v9.33h-1.72v-6.33zm3.37 1.71c0-2.96 1.55-4.84 3.85-4.84 2.34 0 3.85 1.85 3.85 4.84 0 2.95-1.47 4.85-3.86 4.85-2.33-.01-3.84-1.9-3.84-4.85zm5.93 0c0-2.08-.64-3.46-2.08-3.46-1.43 0-2.08 1.37-2.08 3.46 0 2.08.65 3.45 2.08 3.45 1.47-.01 2.08-1.35 2.08-3.45zm2.91 0c0-2.96 1.55-4.84 3.85-4.84 2.34 0 3.85 1.85 3.85 4.84 0 2.95-1.47 4.85-3.86 4.85-2.33-.01-3.84-1.9-3.84-4.85zm5.93 0c0-2.08-.64-3.46-2.08-3.46-1.43 0-2.08 1.37-2.08 3.46 0 2.08.65 3.45 2.08 3.45 1.47-.01 2.08-1.35 2.08-3.45z" fill="#333"/><path d="m480.8 305.96h-2.15v-1.14c1.27-.04 2.31-.55 2.52-1.86h1.34v9.33h-1.72v-6.33zm5.42 0h-2.14v-1.14c1.27-.04 2.31-.55 2.52-1.86h1.34v9.33h-1.72zm3.37 1.71c0-2.96 1.55-4.84 3.85-4.84 2.34 0 3.85 1.85 3.85 4.84 0 2.95-1.47 4.85-3.86 4.85-2.34-.01-3.84-1.9-3.84-4.85zm5.92 0c0-2.08-.64-3.46-2.08-3.46-1.43 0-2.08 1.37-2.08 3.46 0 2.08.65 3.45 2.08 3.45 1.47-.01 2.08-1.35 2.08-3.45z" fill="#333"/><path d="m518.82 305.96h-2.15v-1.14c1.27-.04 2.31-.55 2.52-1.86h1.34v9.33h-1.72v-6.33zm4.23 3.77c.78-.87 1.89-1.52 2.8-2.12.86-.55 1.36-.99 1.36-1.83 0-.92-.6-1.55-1.59-1.55-.55 0-.95.17-1.23.49-.33.35-.47.84-.47 1.51h-1.68c0-.99.25-1.69.73-2.29.56-.69 1.51-1.1 2.74-1.1 2.03 0 3.24 1.25 3.24 2.9 0 1.37-.78 2.02-1.79 2.69-.96.74-2.3 1.38-2.86 2.31v.06h4.58v1.48h-6.81c.03-1.12.4-1.88.98-2.55zm7.05-2.06c0-2.96 1.55-4.84 3.85-4.84 2.34 0 3.85 1.85 3.85 4.84 0 2.95-1.47 4.85-3.86 4.85-2.33-.01-3.84-1.9-3.84-4.85zm5.93 0c0-2.08-.64-3.46-2.08-3.46-1.43 0-2.08 1.37-2.08 3.46 0 2.08.65 3.45 2.08 3.45 1.47-.01 2.08-1.35 2.08-3.45z" fill="#333"/><path d="m557.98 305.96h-2.15v-1.14c1.27-.04 2.31-.55 2.52-1.86h1.34v9.33h-1.72v-6.33zm4.24 5.74c-.7-.57-1.09-1.43-1.1-2.43h1.64c.05 1.12.75 1.88 2.11 1.88 1.1 0 1.82-.56 1.82-1.61 0-.99-.73-1.49-2-1.49h-.57v-1.24h.53c1.16 0 1.79-.49 1.79-1.34 0-.83-.68-1.34-1.6-1.34-1.17 0-1.78.77-1.81 1.69h-1.62c.03-1.72 1.29-2.99 3.47-2.99 1.86 0 3.25.96 3.25 2.57 0 1-.62 1.59-1.56 1.9v.03c1.22.34 1.86 1.12 1.86 2.34 0 1.88-1.59 2.85-3.5 2.85-1.14-.01-2.04-.29-2.71-.82zm7.25-4.03c0-2.96 1.55-4.84 3.85-4.84 2.34 0 3.85 1.85 3.85 4.84 0 2.95-1.47 4.85-3.86 4.85-2.33-.01-3.84-1.9-3.84-4.85zm5.93 0c0-2.08-.64-3.46-2.08-3.46-1.43 0-2.08 1.37-2.08 3.46 0 2.08.65 3.45 2.08 3.45 1.47-.01 2.08-1.35 2.08-3.45z" fill="#333"/><path d="m597.15 305.96h-2.15v-1.14c1.27-.04 2.31-.55 2.52-1.86h1.34v9.33h-1.72v-6.33zm9.49 4.16v2.17h-1.66v-2.17h-4.41v-1.52l4.51-5.67h1.56v5.9h1.43v1.29zm-3.5-1.28h1.83v-2.65c0-.52.06-1.39.06-1.39h-.03s-.48.77-.86 1.25l-1.33 1.68c-.38.46-1.04 1.16-1.04 1.16v.03c.02-.02.85-.08 1.37-.08zm5.69-1.17c0-2.96 1.55-4.84 3.85-4.84 2.34 0 3.85 1.85 3.85 4.84 0 2.95-1.47 4.85-3.86 4.85-2.33-.01-3.84-1.9-3.84-4.85zm5.93 0c0-2.08-.64-3.46-2.08-3.46-1.43 0-2.08 1.37-2.08 3.46 0 2.08.65 3.45 2.08 3.45 1.47-.01 2.08-1.35 2.08-3.45z" fill="#333"/><path d="m358.56 3.24v-.02s-.89.06-1.82.06h-2.78v-1.36h6.15v1.24c-1.63 1.52-3.17 4.14-3.3 7.3h-1.67c.15-3.04 1.76-5.81 3.42-7.22zm2.18 4.79c0-1.1.68-1.87 1.77-2.18v-.04c-.91-.3-1.38-.94-1.38-1.77 0-1.39 1.24-2.3 3.01-2.3 1.79 0 3.01.88 3.01 2.28 0 .83-.47 1.48-1.37 1.78v.04c1.12.29 1.76 1.1 1.76 2.17 0 1.8-1.54 2.67-3.38 2.67-1.83-.01-3.42-.89-3.42-2.65zm5.22-.07c0-.95-.67-1.55-1.8-1.55s-1.81.6-1.81 1.55c0 .92.68 1.49 1.82 1.49 1.09-.01 1.79-.58 1.79-1.49zm-.31-3.85c0-.74-.55-1.22-1.5-1.22s-1.51.48-1.51 1.22.56 1.21 1.51 1.21 1.5-.47 1.5-1.21z" fill="#58595b"/><path d="m123.86 109.66h4.38c1 0 1.77.25 2.28.74.48.44.74 1.03.74 1.77 0 1-.55 1.66-1.59 1.98v.04c1.21.29 1.98 1.12 1.98 2.34 0 .86-.31 1.53-.86 2-.56.52-1.37.81-2.41.81h-4.52zm4.12 3.99c.94 0 1.52-.46 1.52-1.29 0-.79-.55-1.26-1.43-1.26h-2.43v2.55zm.25 4.21c.55 0 .96-.16 1.22-.42.25-.23.39-.57.39-.99 0-.99-.7-1.47-1.66-1.47h-2.54v2.87h2.59zm7.9 1.68c-2.21 0-3.54-1.61-3.54-3.67 0-2.07 1.39-3.67 3.45-3.67 1.01 0 1.81.35 2.39.98.68.72 1 1.81.99 3.09h-5.19c.12 1.2.77 2 1.91 2 .79 0 1.31-.34 1.53-.91h1.61c-.32 1.26-1.44 2.18-3.15 2.18zm-1.87-4.3h3.46c-.06-1.14-.68-1.83-1.68-1.83-1.08-.01-1.63.74-1.78 1.83zm7.97 4.09h-1.65v-6.94h1.61v1.01h.04c.45-.77 1.18-1.2 2.16-1.2 1.5 0 2.39.92 2.39 2.42v4.71h-1.65v-4.43c0-.82-.48-1.33-1.33-1.33-.92 0-1.57.7-1.57 1.69zm5.77-1.25 2.77-3.39c.35-.4 1-1.01 1-1.01v-.04s-.87.08-1.4.08h-2.11v-1.33h5.45v1.13l-2.76 3.38c-.39.44-1.1 1.1-1.1 1.1v.04s.94-.06 1.51-.06h2.52v1.35h-5.88zm10.07 1.46c-2.21 0-3.54-1.61-3.54-3.67 0-2.07 1.39-3.67 3.45-3.67 1.01 0 1.81.35 2.39.98.68.72 1 1.81.99 3.09h-5.19c.12 1.2.77 2 1.91 2 .79 0 1.31-.34 1.53-.91h1.61c-.33 1.26-1.45 2.18-3.15 2.18zm-1.88-4.3h3.46c-.06-1.14-.68-1.83-1.68-1.83-1.07-.01-1.63.74-1.78 1.83zm7.97 4.09h-1.65v-6.94h1.61v1.01h.04c.45-.77 1.18-1.2 2.16-1.2 1.5 0 2.39.92 2.39 2.42v4.71h-1.65v-4.43c0-.82-.48-1.33-1.33-1.33-.92 0-1.57.7-1.57 1.69zm9.19.21c-2.21 0-3.54-1.61-3.54-3.67 0-2.07 1.39-3.67 3.45-3.67 1.01 0 1.81.35 2.39.98.68.72 1 1.81.99 3.09h-5.19c.12 1.2.77 2 1.91 2 .79 0 1.31-.34 1.53-.91h1.61c-.33 1.26-1.44 2.18-3.15 2.18zm-1.87-4.3h3.46c-.07-1.14-.68-1.83-1.68-1.83-1.08-.01-1.64.74-1.78 1.83z" fill="#333"/></svg>