<svg xmlns="http://www.w3.org/2000/svg" width="728.947" height="418.667" viewBox="0 0 728.947 418.667"><g><path stroke="#191919" stroke-width="2" stroke-miterlimit="10" d="M87.14 371.832S114.432 71.446 213.212 71.446c73.793 0 88.005 133.998 273.6 218.597" fill="none"/><path fill="#FFB3B3" d="M690.105 345.844c-84.733-11.89-151.065-31.952-203.065-55.8v82.88h203l.065-27.08z"/><path stroke="#f00" stroke-width="2" stroke-dasharray="5" fill="none" d="M486.04 371.734v-81.69"/><path d="M623.527 397.924h-1.562l-4.164-5.54-1.194 1.063v4.477h-1.328v-11.422h1.328v5.664l5.18-5.664h1.57l-4.594 4.96 4.765 6.462zM624.792 387.04c0-.296.072-.514.22-.65.145-.14.327-.208.546-.208.208 0 .388.07.54.21.15.142.226.357.226.65s-.076.508-.227.65c-.15.145-.33.216-.54.216-.218 0-.4-.07-.546-.215-.145-.143-.218-.36-.218-.652zm1.407 10.884H624.9v-8.562h1.297v8.562zM634.808 397.924v-5.54c0-.697-.16-1.218-.477-1.56-.317-.345-.814-.517-1.49-.517-.897 0-1.554.242-1.97.727-.417.484-.625 1.284-.625 2.398v4.492h-1.297v-8.562h1.055l.21 1.172h.063c.266-.422.638-.75 1.117-.98.48-.23 1.013-.348 1.602-.348 1.03 0 1.807.25 2.328.746.52.497.78 1.293.78 2.387v5.585h-1.295zM642.386 398.08c-1.266 0-2.264-.386-2.996-1.156s-1.098-1.84-1.098-3.21c0-1.38.34-2.478 1.02-3.29s1.592-1.22 2.738-1.22c1.072 0 1.922.354 2.547 1.06s.938 1.637.938 2.793v.82h-5.898c.025 1.005.28 1.77.762 2.29s1.16.78 2.034.78c.922 0 1.834-.192 2.734-.578v1.155c-.46.198-.893.34-1.3.426s-.904.13-1.482.13zm-.352-7.79c-.688 0-1.236.225-1.645.673s-.65 1.067-.724 1.86h4.477c0-.818-.182-1.445-.547-1.88s-.884-.652-1.562-.652zM650.51 397.01c.23 0 .452-.017.665-.05s.383-.07.508-.106v.992c-.14.067-.348.124-.62.168s-.52.066-.74.066c-1.655 0-2.483-.872-2.483-2.617v-5.094h-1.227v-.626l1.227-.54.547-1.827h.75v1.984h2.484v1.01h-2.483v5.038c0 .516.123.91.367 1.188s.58.414 1.007.414zM653.284 387.04c0-.296.072-.514.22-.65s.327-.208.546-.208c.21 0 .39.07.54.21s.226.357.226.65-.076.508-.227.65-.33.216-.54.216c-.22 0-.4-.07-.547-.215s-.22-.36-.22-.652zm1.407 10.884h-1.296v-8.562h1.297v8.562zM660.863 398.08c-1.24 0-2.2-.382-2.88-1.145s-1.02-1.843-1.02-3.238c0-1.433.347-2.54 1.036-3.32s1.673-1.172 2.948-1.172c.412 0 .822.044 1.234.133s.734.192.97.312l-.4 1.102c-.286-.114-.6-.21-.937-.285s-.64-.113-.898-.113c-1.74 0-2.61 1.11-2.61 3.328 0 1.052.214 1.86.638 2.422s1.053.844 1.887.844c.713 0 1.445-.153 2.195-.46v1.147c-.573.297-1.295.445-2.164.445zM672.83 398.08c-1.265 0-2.263-.386-2.995-1.156s-1.098-1.84-1.098-3.21c0-1.38.34-2.478 1.02-3.29s1.592-1.22 2.738-1.22c1.072 0 1.922.354 2.547 1.06s.938 1.637.938 2.793v.82h-5.898c.025 1.005.28 1.77.762 2.29s1.16.78 2.035.78c.92 0 1.833-.192 2.733-.578v1.155c-.46.198-.893.34-1.3.426s-.904.13-1.482.13zm-.35-7.79c-.688 0-1.236.225-1.645.673s-.65 1.067-.723 1.86h4.477c0-.818-.183-1.445-.548-1.88s-.884-.652-1.562-.652zM684.05 397.924v-5.54c0-.697-.158-1.218-.477-1.56-.317-.345-.814-.517-1.492-.517-.895 0-1.55.242-1.968.727-.416.484-.625 1.284-.625 2.398v4.492h-1.297v-8.562h1.055l.21 1.172h.063c.266-.422.64-.75 1.117-.98.48-.23 1.014-.348 1.602-.348 1.03 0 1.808.25 2.328.746.52.497.78 1.293.78 2.387v5.585h-1.295zM691.628 398.08c-1.266 0-2.264-.386-2.996-1.156-.73-.77-1.098-1.84-1.098-3.21 0-1.38.34-2.478 1.02-3.29s1.593-1.22 2.738-1.22c1.073 0 1.922.354 2.547 1.06s.937 1.637.937 2.793v.82h-5.898c.025 1.005.28 1.77.76 2.29.483.52 1.16.78 2.036.78.922 0 1.834-.192 2.734-.578v1.155c-.458.198-.892.34-1.3.426-.41.087-.904.13-1.482.13zm-.35-7.79c-.69 0-1.236.225-1.646.673-.408.448-.65 1.067-.723 1.86h4.476c0-.818-.182-1.445-.547-1.88-.365-.434-.886-.652-1.563-.652zM700.894 389.205c.38 0 .722.03 1.023.094l-.18 1.202c-.354-.078-.666-.117-.938-.117-.693 0-1.286.28-1.778.844s-.738 1.262-.738 2.1v4.595h-1.297v-8.562h1.07l.148 1.586h.062c.318-.56.7-.988 1.148-1.29.45-.304.943-.455 1.48-.455zM710.527 389.36v.82l-1.586.19c.147.182.277.42.392.714.115.294.172.626.172.996 0 .84-.286 1.508-.86 2.008-.57.5-1.358.75-2.358.75-.255 0-.494-.02-.72-.062-.55.292-.827.66-.827 1.102 0 .234.096.407.288.52.193.112.523.168.992.168h1.516c.928 0 1.64.195 2.137.586.498.39.746.958.746 1.703 0 .948-.38 1.67-1.142 2.168-.76.497-1.87.746-3.328.746-1.12 0-1.982-.21-2.59-.626-.606-.417-.91-1.005-.91-1.766 0-.52.167-.972.5-1.352.334-.38.803-.638 1.406-.773-.22-.1-.402-.253-.55-.46s-.224-.45-.224-.728c0-.312.084-.586.25-.82.167-.234.43-.46.79-.68-.443-.183-.804-.492-1.083-.93-.28-.438-.42-.938-.42-1.5 0-.938.282-1.66.845-2.168s1.36-.762 2.39-.762c.45 0 .853.052 1.212.156h2.96zm-6.828 10c0 .465.194.816.585 1.056s.95.36 1.68.36c1.09 0 1.895-.164 2.418-.49s.785-.766.785-1.323c0-.464-.143-.785-.43-.965-.286-.18-.825-.27-1.617-.27h-1.554c-.588 0-1.047.14-1.375.422s-.49.685-.49 1.21zm.702-7.256c0 .6.17 1.052.508 1.36.34.307.81.46 1.414.46 1.266 0 1.898-.614 1.898-1.844 0-1.286-.64-1.93-1.922-1.93-.61 0-1.078.164-1.406.492s-.492.816-.492 1.462zM710.925 389.36h1.39l1.876 4.884c.413 1.114.668 1.92.767 2.414h.062c.067-.266.21-.72.425-1.363.217-.644.924-2.62 2.12-5.934h1.392l-3.68 9.75c-.364.965-.79 1.648-1.277 2.052-.486.403-1.084.605-1.793.605-.396 0-.786-.044-1.172-.133v-1.04c.287.063.607.095.96.095.892 0 1.527-.5 1.907-1.5l.477-1.22-3.455-8.61z"/><g fill="#f00"><path d="M490.07 388.94l-.397-.037c.036-.307.055-.595.055-.828 0-1.08-.63-1.314-3.457-1.314-1.025 0-1.206.073-1.313.47l-1.188 4.194h1.403c1.62 0 1.818-.216 2.503-1.746l.324.07-1.225 4.18-.36-.09c.09-.397.126-.613.126-.938 0-.306-.035-.468-.125-.56-.198-.18-.684-.27-1.404-.27h-1.403l-.576 2.018c-.45 1.584-.647 2.412-.647 2.63 0 .43.414.61 1.423.61 1.765 0 2.736-.216 3.655-.7.577-.308 1.01-.812 1.693-1.766l.288.144-1.115 2.917h-9.13v-.288c1.01-.18 1.17-.288 1.46-1.332l2.214-7.96c.107-.358.197-.935.197-1.15 0-.487-.27-.63-1.387-.74v-.287h8.95l-.56 2.773zM494.85 403.52c-.315.398-.588.503-.945.503-.388 0-.62-.21-.672-.766h-.01c-.557.63-1.07.766-1.522.766-.65 0-1.102-.398-1.102-1.092 0-.544.325-.954.735-1.227.314-.21.703-.41 1.89-.85v-.567c0-.65-.347-.945-.82-.945-.42 0-.733.23-.733.516 0 .188.062.22.062.44 0 .2-.21.43-.482.43-.22 0-.452-.198-.452-.482 0-.272.168-.608.536-.84.294-.188.734-.314 1.207-.314.59 0 .987.168 1.24.473s.293.524.293 1.165v2.005c0 .483.137.693.326.693.167 0 .27-.053.45-.2v.293zm-1.627-2.416c-.65.23-1.082.45-1.344.693-.253.23-.358.482-.358.808 0 .557.315.81.725.81.21 0 .43-.054.608-.17.305-.21.368-.355.368-.66v-1.48z"/></g><path d="M503.4 345.08c-.557 0-1.065-.103-1.526-.31s-.848-.52-1.16-.948h-.094c.062.5.094.974.094 1.422v3.523h-1.297V336.36h1.055l.18 1.173h.062c.333-.47.722-.808 1.164-1.016s.95-.312 1.523-.312c1.137 0 2.013.388 2.63 1.164s.926 1.863.926 3.265c0 1.406-.313 2.5-.94 3.277s-1.5 1.168-2.615 1.168zm-.187-7.773c-.875 0-1.508.242-1.898.727s-.59 1.255-.602 2.312v.29c0 1.202.2 2.062.602 2.58s1.044.778 1.93.778c.74 0 1.32-.3 1.738-.898s.63-1.425.63-2.477c0-1.068-.21-1.888-.63-2.458s-1.01-.855-1.77-.855zM514.487 344.924l-.258-1.22h-.063c-.427.537-.853.9-1.277 1.09s-.954.286-1.59.286c-.85 0-1.515-.22-1.996-.656s-.723-1.06-.723-1.867c0-1.73 1.384-2.636 4.15-2.72l1.452-.046v-.53c0-.672-.145-1.168-.434-1.488s-.75-.48-1.387-.48c-.713 0-1.52.22-2.42.656l-.4-.992c.423-.23.885-.41 1.388-.54s1.007-.194 1.512-.194c1.02 0 1.777.227 2.27.68s.738 1.18.738 2.18v5.844h-.96zm-2.93-.914c.808 0 1.44-.222 1.902-.664s.69-1.062.69-1.86v-.772l-1.297.055c-1.03.035-1.774.195-2.23.48s-.684.725-.684 1.323c0 .47.14.825.425 1.07s.68.367 1.192.367zM522.026 336.205c.38 0 .722.03 1.023.094l-.18 1.202c-.355-.078-.668-.117-.94-.117-.69 0-1.284.28-1.776.844s-.738 1.262-.738 2.1v4.595h-1.297v-8.562h1.07l.147 1.586h.062c.316-.56.7-.988 1.147-1.29s.943-.455 1.48-.455zM527.416 344.01c.23 0 .45-.017.664-.05s.383-.07.508-.106v.992c-.14.067-.348.124-.62.168s-.52.066-.74.066c-1.655 0-2.483-.872-2.483-2.617v-5.094h-1.227v-.626l1.227-.54.547-1.827h.75v1.984h2.484v1.01h-2.484v5.038c0 .516.122.91.367 1.188s.58.414 1.006.414zM530.19 334.04c0-.296.073-.514.22-.65s.327-.208.546-.208c.208 0 .388.07.54.21s.226.357.226.65-.075.508-.227.65-.33.216-.54.216c-.218 0-.4-.07-.546-.215s-.22-.36-.22-.652zm1.406 10.884H530.3v-8.562h1.296v8.562zM537.768 345.08c-1.24 0-2.2-.382-2.88-1.145s-1.02-1.843-1.02-3.238c0-1.433.346-2.54 1.036-3.32s1.673-1.172 2.95-1.172c.41 0 .822.044 1.233.133s.734.192.97.312l-.4 1.102c-.285-.114-.598-.21-.937-.285s-.638-.113-.898-.113c-1.74 0-2.61 1.11-2.61 3.328 0 1.052.213 1.86.638 2.422s1.054.844 1.887.844c.714 0 1.445-.153 2.195-.46v1.147c-.573.297-1.294.445-2.164.445zM543.26 344.924h-1.297v-12.156h1.297v12.156zM549.627 345.08c-1.266 0-2.265-.386-2.996-1.156s-1.097-1.84-1.097-3.21c0-1.38.34-2.478 1.02-3.29s1.593-1.22 2.738-1.22c1.074 0 1.923.354 2.548 1.06s.938 1.637.938 2.793v.82h-5.898c.026 1.005.28 1.77.762 2.29s1.16.78 2.035.78c.922 0 1.833-.192 2.734-.578v1.155c-.46.198-.893.34-1.302.426s-.903.13-1.48.13zm-.35-7.79c-.69 0-1.236.225-1.646.673s-.648 1.067-.722 1.86h4.477c0-.818-.183-1.445-.547-1.88s-.886-.652-1.562-.652zM560.51 342.588c0 .797-.297 1.41-.89 1.844s-1.428.648-2.5.648c-1.137 0-2.022-.18-2.657-.54v-1.202c.41.208.853.372 1.324.492s.926.18 1.363.18c.677 0 1.198-.108 1.562-.324s.547-.546.547-.988c0-.333-.146-.618-.435-.855s-.853-.517-1.69-.84c-.798-.297-1.364-.556-1.7-.777s-.586-.473-.75-.754-.246-.617-.246-1.008c0-.698.283-1.25.85-1.652s1.348-.605 2.337-.605c.922 0 1.823.188 2.703.562l-.46 1.054c-.86-.354-1.64-.53-2.337-.53-.614 0-1.078.096-1.39.288s-.47.458-.47.797c0 .228.06.424.176.585s.305.315.565.46.76.357 1.5.634c1.016.37 1.702.74 2.06 1.116s.535.845.535 1.412zM572.635 344.924v-5.54c0-.697-.16-1.218-.477-1.56s-.815-.517-1.492-.517c-.9 0-1.56.245-1.973.734s-.62 1.293-.62 2.407v4.477h-1.298v-12.156h1.297v3.68c0 .442-.02.81-.062 1.102h.078c.255-.41.618-.735 1.09-.973s1.01-.355 1.613-.355c1.048 0 1.833.25 2.356.746s.785 1.288.785 2.37v5.587h-1.295zM581.862 344.924l-.258-1.22h-.062c-.427.537-.853.9-1.277 1.09s-.954.286-1.59.286c-.85 0-1.515-.22-1.996-.656s-.724-1.06-.724-1.867c0-1.73 1.383-2.636 4.148-2.72l1.453-.046v-.53c0-.672-.145-1.168-.434-1.488s-.75-.48-1.387-.48c-.714 0-1.52.22-2.422.656l-.398-.992c.422-.23.884-.41 1.387-.54s1.007-.194 1.512-.194c1.02 0 1.777.227 2.27.68s.738 1.18.738 2.18v5.844h-.96zm-2.93-.914c.808 0 1.44-.222 1.902-.664s.69-1.062.69-1.86v-.772l-1.296.055c-1.03.035-1.774.195-2.23.48s-.684.725-.684 1.323c0 .47.142.825.426 1.07s.68.367 1.192.367zM587.37 344.924l-3.25-8.562h1.39l1.844 5.078c.417 1.188.66 1.958.734 2.312h.062c.058-.276.238-.848.543-1.715s.988-2.76 2.05-5.676h1.392l-3.25 8.563h-1.516zM597.127 345.08c-1.266 0-2.265-.386-2.996-1.156s-1.097-1.84-1.097-3.21c0-1.38.34-2.478 1.02-3.29s1.593-1.22 2.738-1.22c1.074 0 1.923.354 2.548 1.06s.938 1.637.938 2.793v.82h-5.898c.026 1.005.28 1.77.762 2.29s1.16.78 2.035.78c.922 0 1.833-.192 2.734-.578v1.155c-.46.198-.893.34-1.302.426s-.903.13-1.48.13zm-.35-7.79c-.69 0-1.236.225-1.646.673s-.648 1.067-.722 1.86h4.477c0-.818-.183-1.445-.547-1.88s-.886-.652-1.562-.652zM503.034 364.636c-1.266 0-2.265-.386-2.996-1.156s-1.098-1.84-1.098-3.21c0-1.38.34-2.478 1.02-3.29s1.593-1.22 2.738-1.22c1.073 0 1.922.354 2.547 1.06s.938 1.637.938 2.793v.82h-5.898c.026 1.005.28 1.77.762 2.29s1.16.78 2.035.78c.922 0 1.833-.192 2.734-.578v1.156c-.458.2-.892.34-1.3.427s-.904.13-1.482.13zm-.352-7.79c-.688 0-1.235.225-1.645.673s-.65 1.066-.723 1.858h4.477c0-.817-.182-1.444-.546-1.88s-.885-.65-1.562-.65zM514.252 364.48v-5.54c0-.698-.16-1.22-.477-1.562s-.815-.516-1.492-.516c-.895 0-1.552.242-1.97.727s-.624 1.283-.624 2.397v4.492h-1.298v-8.563h1.055l.21 1.172h.063c.266-.423.638-.75 1.117-.98s1.013-.35 1.602-.35c1.03 0 1.807.25 2.327.747s.78 1.293.78 2.387v5.586h-1.295zM525.604 360.19c0 1.396-.352 2.485-1.055 3.27s-1.676 1.176-2.915 1.176c-.766 0-1.445-.18-2.04-.54s-1.05-.874-1.374-1.546-.483-1.458-.483-2.36c0-1.395.35-2.482 1.047-3.26s1.667-1.17 2.906-1.17c1.198 0 2.15.4 2.855 1.196s1.06 1.875 1.06 3.234zm-6.524 0c0 1.094.22 1.927.656 2.5s1.08.86 1.93.86 1.493-.286 1.934-.856.66-1.405.66-2.504c0-1.09-.22-1.915-.66-2.48s-1.09-.848-1.95-.848c-.848 0-1.488.278-1.92.836s-.65 1.388-.65 2.492zM529.096 355.917v5.555c0 .698.16 1.22.477 1.562s.815.516 1.492.516c.896 0 1.55-.245 1.965-.734s.62-1.29.62-2.398v-4.5h1.298v8.562h-1.07l-.188-1.148h-.07c-.266.422-.634.745-1.105.97s-1.01.335-1.613.335c-1.042 0-1.82-.247-2.34-.742s-.777-1.286-.777-2.375v-5.602h1.31zM544.705 355.917v.82l-1.586.188c.145.183.275.42.39.715s.172.626.172.996c0 .84-.286 1.508-.86 2.008s-1.358.75-2.358.75c-.255 0-.495-.02-.72-.062-.55.292-.827.66-.827 1.102 0 .234.097.407.29.52s.522.168.99.168h1.517c.927 0 1.64.195 2.137.586s.747.958.747 1.703c0 .95-.38 1.672-1.14 2.17s-1.87.745-3.33.745c-1.12 0-1.982-.208-2.59-.625s-.91-1.005-.91-1.766c0-.52.168-.972.5-1.352s.803-.638 1.407-.773c-.22-.1-.402-.254-.55-.462s-.224-.45-.224-.727c0-.31.083-.585.25-.82s.43-.46.79-.68c-.443-.182-.805-.49-1.083-.93s-.418-.937-.418-1.5c0-.937.28-1.66.843-2.167s1.36-.762 2.39-.762c.45 0 .853.053 1.212.157h2.96zm-6.828 10c0 .464.195.815.586 1.055s.95.36 1.68.36c1.09 0 1.895-.164 2.418-.49s.786-.766.786-1.323c0-.465-.144-.786-.43-.966s-.825-.27-1.617-.27h-1.556c-.59 0-1.047.14-1.375.422s-.493.685-.493 1.21zm.703-7.258c0 .598.17 1.05.508 1.358s.81.46 1.414.46c1.266 0 1.898-.613 1.898-1.843 0-1.286-.64-1.93-1.922-1.93-.61 0-1.078.164-1.406.492s-.492.817-.492 1.462zM552.323 364.48v-5.54c0-.698-.16-1.22-.477-1.562s-.815-.516-1.492-.516c-.9 0-1.56.245-1.973.734s-.62 1.292-.62 2.406v4.477h-1.297v-12.157h1.297v3.68c0 .442-.02.81-.062 1.102h.078c.255-.41.618-.735 1.09-.973s1.01-.355 1.613-.355c1.046 0 1.83.25 2.354.746s.785 1.288.785 2.37v5.587h-1.297zM564.057 364.636c-1.266 0-2.265-.386-2.996-1.156s-1.097-1.84-1.097-3.21c0-1.38.34-2.478 1.02-3.29s1.593-1.22 2.738-1.22c1.074 0 1.923.354 2.548 1.06s.938 1.637.938 2.793v.82h-5.898c.026 1.005.28 1.77.762 2.29s1.16.78 2.035.78c.922 0 1.833-.192 2.734-.578v1.156c-.46.2-.893.34-1.302.427s-.903.13-1.48.13zm-.352-7.79c-.688 0-1.235.225-1.645.673s-.65 1.066-.723 1.858h4.477c0-.817-.183-1.444-.547-1.88s-.885-.65-1.562-.65zM575.276 364.48v-5.54c0-.698-.16-1.22-.477-1.562s-.816-.516-1.493-.516c-.896 0-1.552.242-1.97.727s-.624 1.283-.624 2.397v4.492h-1.297v-8.563h1.055l.212 1.172h.062c.266-.423.638-.75 1.117-.98s1.014-.35 1.603-.35c1.03 0 1.808.25 2.328.747s.782 1.293.782 2.387v5.586h-1.296zM582.854 364.636c-1.266 0-2.265-.386-2.996-1.156s-1.098-1.84-1.098-3.21c0-1.38.34-2.478 1.02-3.29s1.593-1.22 2.738-1.22c1.073 0 1.922.354 2.547 1.06s.938 1.637.938 2.793v.82h-5.898c.026 1.005.28 1.77.762 2.29s1.16.78 2.035.78c.922 0 1.833-.192 2.734-.578v1.156c-.458.2-.892.34-1.3.427s-.904.13-1.482.13zm-.352-7.79c-.688 0-1.235.225-1.645.673s-.65 1.066-.723 1.858h4.477c0-.817-.182-1.444-.546-1.88s-.885-.65-1.562-.65zM592.12 355.76c.38 0 .72.032 1.022.095l-.18 1.203c-.354-.078-.667-.117-.938-.117-.692 0-1.285.282-1.777.845s-.738 1.263-.738 2.102v4.594h-1.298v-8.56h1.07l.148 1.585h.062c.317-.558.7-.987 1.148-1.29s.943-.454 1.48-.454zM601.752 355.917v.82l-1.586.188c.146.183.276.42.39.715s.173.626.173.996c0 .84-.287 1.508-.86 2.008s-1.36.75-2.36.75c-.254 0-.494-.02-.718-.062-.552.292-.828.66-.828 1.102 0 .234.097.407.29.52s.522.168.99.168h1.517c.928 0 1.64.195 2.138.586s.746.958.746 1.703c0 .95-.38 1.672-1.14 2.17s-1.87.745-3.33.745c-1.12 0-1.982-.208-2.59-.625s-.91-1.005-.91-1.766c0-.52.168-.972.5-1.352s.803-.638 1.407-.773c-.218-.1-.4-.254-.55-.462s-.223-.45-.223-.727c0-.31.083-.585.25-.82s.43-.46.79-.68c-.443-.182-.805-.49-1.083-.93s-.418-.937-.418-1.5c0-.937.28-1.66.844-2.167s1.36-.762 2.39-.762c.45 0 .853.053 1.212.157h2.96zm-6.828 10c0 .464.195.815.586 1.055s.95.36 1.68.36c1.09 0 1.895-.164 2.418-.49s.785-.766.785-1.323c0-.465-.144-.786-.43-.966s-.825-.27-1.617-.27h-1.555c-.588 0-1.046.14-1.374.422s-.492.685-.492 1.21zm.703-7.258c0 .598.17 1.05.508 1.358s.81.46 1.414.46c1.265 0 1.897-.613 1.897-1.843 0-1.286-.64-1.93-1.922-1.93-.61 0-1.078.164-1.406.492s-.493.817-.493 1.462zM602.15 355.917h1.392l1.875 4.883c.41 1.114.667 1.92.766 2.414h.062c.067-.266.21-.72.426-1.363s.924-2.62 2.122-5.933h1.39l-3.68 9.75c-.363.964-.79 1.647-1.276 2.05s-1.085.606-1.793.606c-.396 0-.786-.044-1.172-.133v-1.04c.287.063.607.095.962.095.89 0 1.526-.5 1.906-1.5l.477-1.22-3.454-8.608zM618.494 363.565c.23 0 .45-.017.664-.05s.383-.07.508-.106v.99c-.14.068-.348.125-.62.17s-.52.065-.74.065c-1.655 0-2.483-.872-2.483-2.617v-5.094h-1.227v-.624l1.227-.54.547-1.827h.75v1.984h2.484v1.008h-2.484v5.04c0 .515.122.91.367 1.187s.58.413 1.007.413zM628.768 360.19c0 1.396-.352 2.485-1.055 3.27s-1.675 1.176-2.914 1.176c-.767 0-1.446-.18-2.04-.54s-1.052-.874-1.375-1.546-.484-1.458-.484-2.36c0-1.395.35-2.482 1.048-3.26s1.667-1.17 2.906-1.17c1.198 0 2.15.4 2.855 1.196s1.058 1.875 1.058 3.234zm-6.524 0c0 1.094.22 1.927.656 2.5s1.08.86 1.93.86 1.493-.286 1.934-.856.66-1.405.66-2.504c0-1.09-.22-1.915-.66-2.48s-1.09-.848-1.95-.848c-.848 0-1.488.278-1.92.836s-.65 1.388-.65 2.492zM639.104 355.76c.38 0 .722.032 1.023.095l-.18 1.203c-.354-.078-.667-.117-.938-.117-.693 0-1.286.282-1.778.845s-.738 1.263-.738 2.102v4.594h-1.297v-8.56h1.07l.148 1.585h.062c.317-.558.7-.987 1.148-1.29s.943-.454 1.48-.454zM645.346 364.636c-1.266 0-2.265-.386-2.996-1.156s-1.098-1.84-1.098-3.21c0-1.38.34-2.478 1.02-3.29s1.593-1.22 2.738-1.22c1.073 0 1.922.354 2.547 1.06s.938 1.637.938 2.793v.82h-5.898c.026 1.005.28 1.77.762 2.29s1.16.78 2.034.78c.922 0 1.833-.192 2.734-.578v1.156c-.458.2-.892.34-1.3.427s-.904.13-1.482.13zm-.352-7.79c-.688 0-1.235.225-1.645.673s-.65 1.066-.724 1.858h4.477c0-.817-.183-1.444-.547-1.88s-.885-.65-1.562-.65zM655.97 364.48l-.257-1.22h-.062c-.426.536-.852.9-1.276 1.09s-.954.285-1.59.285c-.85 0-1.515-.22-1.996-.656s-.723-1.06-.723-1.868c0-1.73 1.383-2.636 4.148-2.72l1.453-.046v-.53c0-.673-.145-1.17-.434-1.49s-.75-.48-1.387-.48c-.714 0-1.52.22-2.422.657l-.398-.992c.422-.228.884-.408 1.387-.538s1.007-.195 1.512-.195c1.02 0 1.777.227 2.27.68s.738 1.18.738 2.18v5.844h-.96zm-2.93-.915c.81 0 1.442-.222 1.903-.664s.69-1.06.69-1.858v-.773l-1.296.054c-1.03.036-1.774.196-2.23.48s-.684.726-.684 1.324c0 .47.142.825.426 1.07s.68.367 1.19.367zM663.026 364.636c-1.24 0-2.2-.382-2.88-1.145s-1.02-1.842-1.02-3.237c0-1.433.346-2.54 1.036-3.32s1.673-1.172 2.95-1.172c.41 0 .822.045 1.233.134s.734.192.97.312l-.4 1.102c-.285-.114-.598-.21-.937-.285s-.638-.113-.898-.113c-1.74 0-2.61 1.11-2.61 3.328 0 1.052.213 1.86.638 2.422s1.054.844 1.887.844c.714 0 1.445-.153 2.195-.46v1.147c-.573.297-1.294.446-2.164.446zM669.987 363.565c.23 0 .45-.017.664-.05s.384-.07.51-.106v.99c-.142.068-.35.125-.622.17s-.52.065-.738.065c-1.656 0-2.484-.872-2.484-2.617v-5.094h-1.227v-.624l1.226-.54.547-1.827h.75v1.984h2.484v1.008h-2.484v5.04c0 .515.122.91.367 1.187s.58.413 1.007.413zM496.456 275.265l-.258-1.22h-.062c-.427.537-.853.9-1.277 1.09s-.955.286-1.59.286c-.85 0-1.516-.218-1.997-.655s-.723-1.06-.723-1.867c0-1.73 1.383-2.636 4.148-2.72l1.453-.046v-.53c0-.673-.144-1.17-.433-1.49s-.75-.48-1.387-.48c-.714 0-1.52.22-2.422.657l-.398-.993c.422-.23.884-.41 1.387-.54s1.007-.194 1.512-.194c1.02 0 1.776.227 2.27.68s.737 1.18.737 2.18v5.844h-.96zm-2.93-.914c.81 0 1.442-.22 1.903-.663s.69-1.062.69-1.86v-.772l-1.297.055c-1.03.036-1.774.196-2.23.48s-.684.726-.684 1.324c0 .47.14.825.425 1.07s.68.367 1.192.367zM503.51 275.42c-1.238 0-2.198-.38-2.878-1.144s-1.02-1.843-1.02-3.238c0-1.433.345-2.54 1.035-3.32s1.673-1.172 2.95-1.172c.41 0 .822.044 1.233.133s.734.19.97.31l-.4 1.103c-.285-.114-.598-.21-.937-.285s-.638-.113-.898-.113c-1.74 0-2.61 1.11-2.61 3.328 0 1.052.213 1.86.638 2.422s1.054.844 1.887.844c.714 0 1.445-.154 2.195-.462v1.148c-.573.296-1.294.445-2.164.445zM510.472 274.35c.23 0 .45-.016.664-.05s.383-.07.508-.105v.992c-.14.067-.348.124-.62.168s-.52.066-.74.066c-1.655 0-2.483-.87-2.483-2.616v-5.094h-1.226v-.625l1.227-.54.548-1.827h.75v1.984h2.484v1.008h-2.484v5.04c0 .515.122.91.367 1.187s.58.414 1.007.414zM513.245 264.382c0-.297.073-.515.22-.652s.327-.207.546-.207c.21 0 .39.07.54.21s.227.357.227.65-.075.508-.227.65-.33.216-.54.216c-.218 0-.4-.072-.546-.216s-.22-.36-.22-.652zm1.407 10.883h-1.297v-8.562h1.297v8.562zM519.277 275.265l-3.25-8.562h1.39l1.845 5.078c.417 1.19.66 1.96.734 2.313h.062c.058-.276.238-.848.543-1.715s.99-2.76 2.052-5.676h1.39l-3.25 8.562h-1.515zM530.683 275.265l-.258-1.22h-.062c-.427.537-.853.9-1.277 1.09s-.954.286-1.59.286c-.85 0-1.515-.218-1.996-.655s-.723-1.06-.723-1.867c0-1.73 1.383-2.636 4.148-2.72l1.453-.046v-.53c0-.673-.145-1.17-.434-1.49s-.75-.48-1.387-.48c-.714 0-1.52.22-2.422.657l-.398-.993c.422-.23.884-.41 1.387-.54s1.007-.194 1.512-.194c1.02 0 1.777.227 2.27.68s.738 1.18.738 2.18v5.844h-.96zm-2.93-.914c.808 0 1.44-.22 1.902-.663s.69-1.062.69-1.86v-.772l-1.296.055c-1.032.036-1.775.196-2.23.48s-.685.726-.685 1.324c0 .47.142.825.426 1.07s.682.367 1.193.367zM537.08 274.35c.23 0 .45-.016.665-.05s.383-.07.508-.105v.992c-.14.067-.348.124-.62.168s-.52.066-.74.066c-1.655 0-2.483-.87-2.483-2.616v-5.094h-1.227v-.625l1.227-.54.547-1.827h.75v1.984h2.484v1.008h-2.483v5.04c0 .515.122.91.367 1.187s.58.414 1.007.414zM539.855 264.382c0-.297.073-.515.22-.652s.327-.207.546-.207c.21 0 .39.07.54.21s.227.357.227.65-.075.508-.227.65-.33.216-.54.216c-.218 0-.4-.072-.546-.216s-.22-.36-.22-.652zm1.406 10.883h-1.296v-8.562h1.297v8.562zM551.402 270.976c0 1.396-.352 2.485-1.055 3.27s-1.675 1.176-2.914 1.176c-.766 0-1.445-.18-2.04-.54s-1.05-.874-1.374-1.546-.485-1.458-.485-2.36c0-1.395.35-2.482 1.047-3.26s1.667-1.17 2.906-1.17c1.198 0 2.15.4 2.855 1.196s1.06 1.874 1.06 3.234zm-6.524 0c0 1.094.22 1.927.656 2.5s1.08.86 1.93.86 1.493-.286 1.934-.856.66-1.405.66-2.504c0-1.09-.22-1.915-.66-2.48s-1.09-.848-1.95-.848c-.848 0-1.488.278-1.92.836s-.65 1.387-.65 2.492zM559.534 275.265v-5.54c0-.697-.16-1.218-.477-1.56s-.815-.517-1.492-.517c-.896 0-1.552.242-1.97.727s-.624 1.284-.624 2.398v4.492h-1.296v-8.562h1.055l.21 1.172h.062c.266-.422.638-.75 1.117-.98s1.012-.348 1.6-.348c1.032 0 1.81.25 2.33.746s.78 1.293.78 2.387v5.586h-1.296zM571.27 275.42c-1.267 0-2.266-.385-2.997-1.155s-1.098-1.84-1.098-3.21c0-1.38.34-2.478 1.02-3.29s1.593-1.22 2.738-1.22c1.073 0 1.922.354 2.547 1.06s.938 1.637.938 2.793v.82h-5.898c.026 1.005.28 1.77.762 2.29s1.16.78 2.035.78c.922 0 1.833-.192 2.734-.578v1.156c-.457.198-.89.34-1.3.426s-.903.13-1.48.13zm-.353-7.788c-.688 0-1.235.224-1.645.672s-.65 1.067-.723 1.86h4.476c0-.818-.183-1.445-.547-1.88s-.886-.652-1.563-.652zM582.488 275.265v-5.54c0-.697-.16-1.218-.477-1.56s-.814-.517-1.49-.517c-.897 0-1.553.242-1.97.727s-.625 1.284-.625 2.398v4.492h-1.297v-8.562h1.055l.21 1.172h.063c.266-.422.638-.75 1.117-.98s1.013-.348 1.602-.348c1.03 0 1.808.25 2.328.746s.78 1.293.78 2.387v5.586h-1.295zM590.066 275.42c-1.266 0-2.265-.385-2.996-1.155s-1.098-1.84-1.098-3.21c0-1.38.34-2.478 1.02-3.29s1.593-1.22 2.738-1.22c1.073 0 1.922.354 2.547 1.06s.938 1.637.938 2.793v.82h-5.898c.026 1.005.28 1.77.762 2.29s1.16.78 2.034.78c.922 0 1.833-.192 2.734-.578v1.156c-.458.198-.892.34-1.3.426s-.904.13-1.482.13zm-.352-7.788c-.688 0-1.235.224-1.645.672s-.65 1.067-.724 1.86h4.477c0-.818-.183-1.445-.547-1.88s-.885-.652-1.562-.652zM599.33 266.546c.38 0 .723.03 1.024.094l-.18 1.203c-.354-.078-.667-.117-.938-.117-.692 0-1.285.28-1.777.844s-.74 1.263-.74 2.102v4.594h-1.296v-8.562h1.07l.148 1.586h.062c.317-.558.7-.987 1.148-1.29s.943-.454 1.48-.454zM608.964 266.702v.82l-1.586.188c.146.183.276.42.39.715s.173.626.173.996c0 .84-.285 1.51-.858 2.01s-1.36.75-2.36.75c-.254 0-.494-.022-.718-.063-.552.292-.828.66-.828 1.102 0 .233.097.406.29.52s.522.167.99.167h1.517c.927 0 1.64.195 2.137.586s.746.958.746 1.703c0 .948-.38 1.67-1.14 2.168s-1.87.746-3.33.746c-1.12 0-1.982-.208-2.59-.625s-.91-1.005-.91-1.766c0-.522.168-.973.5-1.353s.803-.638 1.407-.773c-.22-.1-.402-.253-.55-.46s-.224-.45-.224-.728c0-.312.082-.586.25-.82s.43-.46.788-.68c-.442-.183-.804-.492-1.082-.93s-.418-.938-.418-1.5c0-.938.28-1.66.844-2.168s1.36-.762 2.39-.762c.45 0 .853.052 1.212.156h2.96zm-6.828 10c0 .464.195.815.586 1.055s.95.36 1.68.36c1.09 0 1.895-.164 2.418-.49s.785-.766.785-1.323c0-.464-.144-.785-.43-.965s-.825-.27-1.617-.27h-1.555c-.59 0-1.047.14-1.375.42s-.492.686-.492 1.212zm.703-7.258c0 .6.168 1.052.507 1.36s.81.46 1.414.46c1.267 0 1.9-.614 1.9-1.844 0-1.286-.642-1.93-1.923-1.93-.61 0-1.078.164-1.406.492s-.49.817-.49 1.462zM609.363 266.702h1.39l1.876 4.883c.41 1.114.666 1.92.765 2.414h.062c.067-.267.21-.72.426-1.364s.923-2.62 2.12-5.934h1.392l-3.68 9.75c-.364.964-.79 1.647-1.277 2.05s-1.085.606-1.793.606c-.396 0-.786-.044-1.172-.133v-1.04c.286.063.606.095.96.095.892 0 1.527-.5 1.907-1.5l.477-1.22-3.454-8.608zM197.55 240.653c-.557 0-1.066-.103-1.527-.31s-.848-.52-1.16-.948h-.094c.06.5.093.974.093 1.422v3.523h-1.297v-12.406h1.055l.18 1.172h.063c.333-.47.72-.807 1.164-1.016s.95-.312 1.523-.312c1.135 0 2.012.388 2.63 1.164s.925 1.865.925 3.266c0 1.406-.314 2.5-.94 3.277s-1.5 1.168-2.615 1.168zm-.188-7.774c-.875 0-1.508.24-1.898.726s-.59 1.255-.602 2.312v.29c0 1.202.2 2.063.602 2.58s1.044.778 1.93.778c.74 0 1.32-.3 1.738-.898s.63-1.424.63-2.477c0-1.067-.21-1.886-.63-2.456s-1.01-.855-1.77-.855zM208.636 240.497l-.258-1.22h-.062c-.427.538-.853.9-1.277 1.09s-.956.286-1.59.286c-.85 0-1.515-.22-1.997-.656s-.723-1.06-.723-1.867c0-1.73 1.383-2.635 4.148-2.72l1.453-.046v-.53c0-.673-.144-1.17-.433-1.49s-.75-.48-1.387-.48c-.713 0-1.52.22-2.422.657l-.398-.99c.422-.23.884-.41 1.387-.54s1.006-.195 1.512-.195c1.02 0 1.776.227 2.27.68s.737 1.18.737 2.18v5.844h-.96zm-2.93-.914c.807 0 1.44-.22 1.902-.664s.69-1.063.69-1.86v-.773l-1.296.055c-1.03.037-1.775.197-2.23.48s-.684.725-.684 1.324c0 .47.142.826.426 1.07s.682.367 1.192.367zM216.175 231.778c.38 0 .72.03 1.023.094l-.18 1.203c-.354-.078-.667-.117-.938-.117-.693 0-1.285.28-1.777.844s-.738 1.263-.738 2.102v4.594h-1.297v-8.562h1.07l.148 1.586h.062c.318-.557.7-.987 1.148-1.29s.942-.454 1.48-.454zM221.565 239.583c.23 0 .45-.017.664-.05s.382-.07.507-.106v.992c-.14.067-.348.123-.62.167s-.52.066-.74.066c-1.655 0-2.483-.873-2.483-2.617v-5.094h-1.227v-.625l1.227-.54.547-1.827h.75v1.984h2.485v1.008h-2.484v5.04c0 .515.124.91.368 1.187s.58.413 1.007.413zM224.34 229.614c0-.297.072-.515.218-.652.146-.138.328-.207.547-.207.208 0 .388.07.54.21s.226.357.226.65c0 .29-.075.508-.226.65-.15.144-.33.216-.54.216-.218 0-.4-.07-.546-.214-.147-.143-.22-.36-.22-.652zm1.405 10.883h-1.297v-8.562h1.297v8.562zM231.917 240.653c-1.24 0-2.2-.38-2.88-1.145s-1.02-1.842-1.02-3.238c0-1.432.346-2.54 1.036-3.32s1.673-1.172 2.95-1.172c.41 0 .822.044 1.233.133s.734.194.97.313l-.4 1.102c-.286-.115-.598-.21-.937-.285s-.64-.113-.9-.113c-1.74 0-2.608 1.11-2.608 3.328 0 1.052.212 1.86.637 2.422s1.052.844 1.886.844c.713 0 1.445-.153 2.195-.46v1.148c-.572.296-1.294.445-2.163.445zM237.41 240.497h-1.298V228.34h1.297v12.157zM243.776 240.653c-1.266 0-2.264-.385-2.996-1.156s-1.098-1.84-1.098-3.21c0-1.38.34-2.478 1.02-3.29s1.592-1.22 2.738-1.22c1.073 0 1.922.354 2.547 1.06s.938 1.637.938 2.793v.82h-5.898c.026 1.005.28 1.768.762 2.29s1.16.78 2.034.78c.922 0 1.833-.193 2.734-.578v1.156c-.458.198-.892.34-1.3.426s-.904.13-1.482.13zm-.35-7.79c-.69 0-1.237.225-1.646.673s-.65 1.068-.723 1.86h4.477c0-.82-.182-1.445-.547-1.88s-.885-.652-1.562-.652zM254.66 238.16c0 .798-.298 1.413-.892 1.845s-1.427.648-2.5.648c-1.135 0-2.02-.18-2.656-.54v-1.202c.412.21.853.374 1.324.493s.926.18 1.363.18c.676 0 1.197-.108 1.56-.324s.548-.546.548-.99c0-.332-.145-.618-.434-.854s-.853-.517-1.69-.84c-.798-.297-1.364-.556-1.7-.777s-.586-.474-.75-.755-.246-.617-.246-1.008c0-.698.284-1.25.852-1.652s1.346-.605 2.336-.605c.922 0 1.823.188 2.703.562l-.462 1.055c-.86-.354-1.638-.53-2.336-.53-.615 0-1.078.095-1.39.288s-.47.458-.47.797c0 .23.06.424.176.586s.306.315.566.46.76.358 1.5.634c1.016.37 1.702.742 2.06 1.117s.535.843.535 1.41zM266.784 240.497v-5.54c0-.697-.16-1.218-.477-1.56s-.815-.517-1.492-.517c-.9 0-1.56.245-1.973.734s-.62 1.292-.62 2.406v4.477h-1.298V228.34h1.297v3.68c0 .443-.02.81-.06 1.102h.077c.255-.412.62-.736 1.09-.973s1.01-.356 1.613-.356c1.047 0 1.832.25 2.355.746s.785 1.288.785 2.37v5.587h-1.296zM276.01 240.497l-.257-1.22h-.062c-.426.538-.852.9-1.276 1.09s-.955.286-1.59.286c-.85 0-1.514-.22-1.996-.656s-.723-1.06-.723-1.867c0-1.73 1.383-2.635 4.148-2.72l1.453-.046v-.53c0-.673-.145-1.17-.434-1.49s-.75-.48-1.387-.48c-.713 0-1.52.22-2.422.657l-.398-.99c.422-.23.884-.41 1.387-.54s1.006-.195 1.512-.195c1.02 0 1.777.227 2.27.68s.738 1.18.738 2.18v5.844h-.96zm-2.93-.914c.808 0 1.442-.22 1.903-.664s.69-1.063.69-1.86v-.773l-1.296.055c-1.03.037-1.775.197-2.23.48s-.684.725-.684 1.324c0 .47.142.826.426 1.07s.68.367 1.19.367zM281.518 240.497l-3.25-8.562h1.39l1.845 5.078c.417 1.188.662 1.958.734 2.312h.062c.056-.276.237-.848.542-1.715s.988-2.76 2.05-5.676h1.392l-3.25 8.562h-1.516zM291.276 240.653c-1.266 0-2.264-.385-2.996-1.156s-1.098-1.84-1.098-3.21c0-1.38.34-2.478 1.02-3.29s1.592-1.22 2.738-1.22c1.073 0 1.922.354 2.547 1.06s.938 1.637.938 2.793v.82h-5.898c.026 1.005.28 1.768.762 2.29s1.16.78 2.034.78c.922 0 1.833-.193 2.734-.578v1.156c-.458.198-.892.34-1.3.426s-.904.13-1.482.13zm-.35-7.79c-.69 0-1.237.225-1.646.673s-.65 1.068-.723 1.86h4.477c0-.82-.182-1.445-.547-1.88s-.885-.652-1.562-.652zM300.682 229.614c0-.297.073-.515.22-.652.145-.138.327-.207.546-.207.208 0 .388.07.54.21s.226.357.226.65c0 .29-.076.508-.227.65-.15.144-.33.216-.54.216-.218 0-.4-.07-.546-.214-.145-.143-.218-.36-.218-.652zm1.407 10.883h-1.298v-8.562h1.297v8.562zM310.698 240.497v-5.54c0-.697-.16-1.218-.477-1.56s-.814-.517-1.49-.517c-.897 0-1.553.242-1.97.727s-.625 1.284-.625 2.398v4.492h-1.297v-8.562h1.055l.21 1.172h.063c.266-.422.638-.75 1.117-.98s1.013-.348 1.602-.348c1.03 0 1.807.248 2.328.745s.78 1.293.78 2.387v5.586H310.7zM320.182 238.16c0 .798-.297 1.413-.89 1.845s-1.428.648-2.5.648c-1.136 0-2.022-.18-2.657-.54v-1.202c.412.21.853.374 1.324.493s.925.18 1.362.18c.677 0 1.198-.108 1.562-.324s.547-.546.547-.99c0-.332-.144-.618-.433-.854s-.853-.517-1.69-.84c-.798-.297-1.364-.556-1.7-.777s-.586-.474-.75-.755-.246-.617-.246-1.008c0-.698.285-1.25.853-1.652s1.346-.605 2.336-.605c.92 0 1.822.188 2.702.562l-.46 1.055c-.86-.354-1.64-.53-2.337-.53-.615 0-1.078.095-1.39.288s-.47.458-.47.797c0 .23.06.424.176.586s.307.315.567.46.76.358 1.5.634c1.016.37 1.702.742 2.06 1.117s.535.843.535 1.41zM323.51 231.934v5.555c0 .697.16 1.218.478 1.56s.815.517 1.492.517c.896 0 1.55-.245 1.965-.734s.62-1.29.62-2.398v-4.5h1.298v8.562h-1.07l-.188-1.148h-.07c-.266.42-.634.744-1.105.968s-1.01.336-1.613.336c-1.042 0-1.822-.248-2.34-.742s-.777-1.287-.777-2.375v-5.602h1.31zM335.972 232.942h-2.18v7.555h-1.297v-7.555h-1.53v-.586l1.53-.47v-.476c0-2.104.92-3.156 2.758-3.156.453 0 .984.09 1.594.273l-.336 1.04c-.5-.163-.926-.243-1.28-.243-.49 0-.852.163-1.086.488-.234.325-.352.848-.352 1.566v.555h2.18v1.01zm5.375 0h-2.18v7.555h-1.297v-7.555h-1.53v-.586l1.53-.47v-.476c0-2.104.92-3.156 2.758-3.156.453 0 .984.09 1.594.273l-.336 1.04c-.5-.163-.927-.243-1.28-.243-.49 0-.853.163-1.087.488-.235.325-.353.848-.353 1.566v.555h2.18v1.01zm1.507-3.328c0-.297.073-.515.22-.652.145-.138.327-.207.546-.207.208 0 .388.07.54.21.15.142.226.357.226.65 0 .29-.075.508-.227.65-.152.144-.332.216-.54.216-.22 0-.4-.07-.547-.214-.145-.143-.22-.36-.22-.652zm1.407 10.883h-1.296v-8.562h1.297v8.562zM350.448 240.653c-1.24 0-2.2-.38-2.88-1.145s-1.02-1.842-1.02-3.238c0-1.432.346-2.54 1.036-3.32s1.673-1.172 2.95-1.172c.41 0 .822.044 1.233.133s.734.194.968.313l-.398 1.102c-.286-.115-.6-.21-.937-.285s-.638-.113-.898-.113c-1.74 0-2.61 1.11-2.61 3.328 0 1.052.213 1.86.638 2.422s1.053.844 1.887.844c.713 0 1.445-.153 2.195-.46v1.148c-.573.296-1.294.445-2.164.445zM354.535 229.614c0-.297.073-.515.22-.652.145-.138.327-.207.546-.207.21 0 .39.07.54.21s.227.357.227.65c0 .29-.075.508-.227.65-.15.144-.33.216-.54.216-.218 0-.4-.07-.546-.214-.146-.143-.22-.36-.22-.652zm1.406 10.883h-1.296v-8.562h1.297v8.562zM362.308 240.653c-1.266 0-2.265-.385-2.996-1.156s-1.098-1.84-1.098-3.21c0-1.38.34-2.478 1.02-3.29s1.593-1.22 2.738-1.22c1.073 0 1.922.354 2.547 1.06s.937 1.637.937 2.793v.82h-5.898c.025 1.005.28 1.768.76 2.29s1.16.78 2.036.78c.922 0 1.833-.193 2.734-.578v1.156c-.458.198-.892.34-1.3.426s-.904.13-1.482.13zm-.352-7.79c-.688 0-1.235.225-1.645.673s-.648 1.068-.722 1.86h4.477c0-.82-.183-1.445-.547-1.88s-.885-.652-1.562-.652zM373.527 240.497v-5.54c0-.697-.16-1.218-.477-1.56s-.815-.517-1.492-.517c-.896 0-1.552.242-1.97.727s-.624 1.284-.624 2.398v4.492h-1.297v-8.562h1.055l.21 1.172h.063c.266-.422.638-.75 1.117-.98s1.013-.348 1.602-.348c1.03 0 1.808.248 2.328.745s.78 1.293.78 2.387v5.586h-1.295zM380.253 239.583c.23 0 .45-.017.664-.05s.383-.07.508-.106v.992c-.14.067-.348.123-.62.167s-.52.066-.74.066c-1.655 0-2.483-.873-2.483-2.617v-5.094h-1.227v-.625l1.227-.54.547-1.827h.75v1.984h2.483v1.008h-2.484v5.04c0 .515.12.91.366 1.187s.58.413 1.007.413zM196.343 260.208c-1.266 0-2.264-.385-2.996-1.156s-1.098-1.84-1.098-3.21c0-1.38.34-2.478 1.02-3.29s1.59-1.22 2.737-1.22c1.073 0 1.922.354 2.547 1.06s.938 1.637.938 2.793v.82h-5.898c.026 1.005.28 1.768.762 2.29s1.16.78 2.035.78c.923 0 1.834-.193 2.735-.578v1.156c-.458.198-.892.34-1.3.425-.41.087-.904.13-1.482.13zm-.352-7.79c-.687 0-1.235.225-1.644.673s-.65 1.07-.723 1.86h4.477c0-.818-.182-1.444-.547-1.88s-.885-.65-1.562-.65zM207.56 260.052v-5.54c0-.697-.158-1.218-.476-1.56s-.815-.517-1.492-.517c-.896 0-1.552.242-1.97.727s-.624 1.284-.624 2.398v4.492H201.7v-8.562h1.056l.21 1.172h.063c.265-.422.637-.75 1.116-.98s1.013-.348 1.602-.348c1.03 0 1.807.25 2.328.746s.78 1.293.78 2.387v5.585h-1.295zM215.14 260.208c-1.267 0-2.265-.385-2.997-1.156s-1.098-1.84-1.098-3.21c0-1.38.34-2.478 1.02-3.29s1.592-1.22 2.738-1.22c1.073 0 1.922.354 2.547 1.06s.938 1.637.938 2.793v.82h-5.898c.026 1.005.28 1.768.762 2.29s1.16.78 2.035.78c.922 0 1.833-.193 2.734-.578v1.156c-.457.198-.89.34-1.3.425-.41.087-.902.13-1.48.13zm-.352-7.79c-.688 0-1.236.225-1.645.673s-.65 1.07-.723 1.86h4.477c0-.818-.182-1.444-.547-1.88s-.885-.65-1.562-.65zM224.405 251.333c.38 0 .72.03 1.023.094l-.18 1.203c-.354-.078-.667-.117-.938-.117-.693 0-1.285.28-1.777.844s-.738 1.263-.738 2.102v4.592h-1.297v-8.562h1.07l.148 1.586h.062c.318-.557.7-.987 1.148-1.29s.942-.453 1.48-.453zM234.038 251.49v.82l-1.586.188c.146.182.276.42.39.715s.173.626.173.996c0 .837-.287 1.507-.86 2.007s-1.358.75-2.358.75c-.255 0-.495-.02-.72-.062-.55.292-.827.66-.827 1.102 0 .234.096.408.29.52s.522.168.99.168h1.517c.927 0 1.64.195 2.137.586s.746.96.746 1.704c0 .948-.38 1.67-1.14 2.168-.76.498-1.87.746-3.33.746-1.12 0-1.982-.208-2.59-.625-.606-.416-.91-1.005-.91-1.766 0-.52.168-.97.5-1.352.334-.38.803-.638 1.407-.773-.22-.1-.402-.252-.55-.46s-.224-.452-.224-.728c0-.312.083-.586.25-.82s.43-.46.79-.68c-.444-.182-.804-.492-1.083-.93s-.418-.938-.418-1.5c0-.938.28-1.66.844-2.168s1.36-.762 2.39-.762c.45 0 .853.052 1.212.156h2.96zm-6.828 10c0 .463.195.814.586 1.054.39.24.95.36 1.68.36 1.088 0 1.895-.163 2.418-.49.523-.324.785-.766.785-1.323 0-.462-.144-.784-.43-.964-.288-.18-.827-.27-1.618-.27h-1.555c-.588 0-1.047.142-1.375.422-.328.282-.492.686-.492 1.21zm.703-7.258c0 .6.17 1.052.508 1.36s.81.46 1.415.46c1.266 0 1.898-.615 1.898-1.844 0-1.287-.64-1.93-1.922-1.93-.608 0-1.077.164-1.405.492s-.492.816-.492 1.462zM234.436 251.49h1.39l1.876 4.883c.412 1.115.667 1.92.766 2.414h.062c.068-.266.21-.72.426-1.363s.923-2.62 2.12-5.934h1.392l-3.68 9.75c-.365.964-.79 1.647-1.277 2.05-.486.405-1.083.606-1.792.606-.396 0-.787-.044-1.172-.133v-1.04c.287.063.607.095.96.095.892 0 1.527-.5 1.907-1.5l.477-1.22-3.454-8.608zM250.78 259.138c.23 0 .45-.017.664-.05s.383-.07.508-.106v.992c-.14.068-.348.124-.62.167-.274.046-.52.067-.74.067-1.655 0-2.483-.872-2.483-2.617v-5.094h-1.228v-.625l1.227-.538.546-1.828h.75v1.984h2.484v1.008h-2.484v5.04c0 .515.123.91.367 1.187s.58.415 1.007.415zM261.054 255.763c0 1.396-.352 2.486-1.055 3.27s-1.675 1.175-2.915 1.175c-.766 0-1.445-.18-2.04-.54-.593-.358-1.05-.874-1.374-1.546s-.483-1.458-.483-2.36c0-1.395.35-2.482 1.047-3.26s1.667-1.17 2.906-1.17c1.198 0 2.15.4 2.855 1.196s1.06 1.876 1.06 3.235zm-6.524 0c0 1.094.22 1.927.656 2.5s1.08.86 1.93.86 1.494-.286 1.934-.856.66-1.405.66-2.504c0-1.088-.22-1.916-.66-2.48s-1.09-.848-1.95-.848c-.848 0-1.49.28-1.92.836s-.65 1.39-.65 2.493zM267.374 249.17c0-.298.073-.516.22-.653.145-.138.327-.207.546-.207.208 0 .388.07.54.21s.226.357.226.65c0 .29-.076.508-.227.65-.152.144-.332.216-.54.216-.22 0-.4-.072-.547-.215-.146-.142-.22-.36-.22-.65zm1.406 10.882h-1.297v-8.562h1.297v8.562zM277.39 260.052v-5.54c0-.697-.16-1.218-.478-1.56s-.815-.517-1.492-.517c-.896 0-1.552.242-1.97.727s-.624 1.284-.624 2.398v4.492h-1.297v-8.562h1.054l.21 1.172h.063c.266-.422.638-.75 1.117-.98s1.013-.348 1.602-.348c1.03 0 1.807.25 2.328.746s.78 1.293.78 2.387v5.585h-1.295zM281.24 249.17c0-.298.074-.516.22-.653.146-.138.328-.207.547-.207.208 0 .388.07.54.21s.226.357.226.65c0 .29-.076.508-.227.65-.15.144-.33.216-.54.216-.218 0-.4-.072-.546-.215-.146-.142-.22-.36-.22-.65zm1.407 10.882h-1.297v-8.562h1.297v8.562zM288.163 259.138c.23 0 .45-.017.664-.05s.383-.07.508-.106v.992c-.14.068-.348.124-.62.167-.274.046-.52.067-.74.067-1.655 0-2.483-.872-2.483-2.617v-5.094h-1.227v-.625l1.227-.538.547-1.828h.75v1.984h2.483v1.008h-2.484v5.04c0 .515.122.91.366 1.187s.58.415 1.007.415zM290.936 249.17c0-.298.073-.516.22-.653.145-.138.327-.207.546-.207.208 0 .388.07.54.21s.226.357.226.65c0 .29-.076.508-.227.65-.15.144-.33.216-.538.216-.22 0-.4-.072-.547-.215-.146-.142-.22-.36-.22-.65zm1.407 10.882h-1.297v-8.562h1.297v8.562zM300.358 260.052l-.258-1.218h-.062c-.427.537-.853.9-1.277 1.09s-.954.285-1.59.285c-.848 0-1.513-.22-1.995-.657s-.723-1.06-.723-1.867c0-1.73 1.383-2.635 4.148-2.72l1.453-.046v-.53c0-.673-.145-1.17-.434-1.49s-.752-.48-1.388-.48c-.713 0-1.52.22-2.422.657l-.398-.992c.422-.23.884-.41 1.387-.54s1.005-.194 1.51-.194c1.022 0 1.778.228 2.27.68s.74 1.18.74 2.18v5.844h-.962zm-2.93-.914c.808 0 1.442-.22 1.903-.664s.692-1.062.692-1.86v-.772l-1.297.055c-1.03.037-1.775.197-2.23.48s-.684.725-.684 1.324c0 .47.143.827.427 1.07s.68.368 1.192.368zM306.757 259.138c.23 0 .45-.017.664-.05s.384-.07.51-.106v.992c-.142.068-.35.124-.622.167-.273.046-.52.067-.738.067-1.656 0-2.484-.872-2.484-2.617v-5.094h-1.227v-.625l1.226-.538.547-1.828h.75v1.984h2.484v1.008h-2.484v5.04c0 .515.123.91.367 1.187s.58.415 1.007.415zM313.257 260.208c-1.266 0-2.264-.385-2.996-1.156s-1.097-1.84-1.097-3.21c0-1.38.34-2.478 1.02-3.29s1.592-1.22 2.738-1.22c1.074 0 1.923.354 2.548 1.06s.938 1.637.938 2.793v.82h-5.898c.026 1.005.28 1.768.762 2.29s1.16.78 2.035.78c.922 0 1.833-.193 2.734-.578v1.156c-.46.198-.893.34-1.302.425-.41.087-.903.13-1.48.13zm-.352-7.79c-.688 0-1.236.225-1.645.673s-.65 1.07-.723 1.86h4.477c0-.818-.182-1.444-.547-1.88s-.885-.65-1.562-.65zM326.68 251.333c.38 0 .72.03 1.022.094l-.18 1.203c-.354-.078-.667-.117-.938-.117-.693 0-1.285.28-1.777.844s-.738 1.263-.738 2.102v4.592h-1.298v-8.562h1.07l.148 1.586h.062c.318-.557.7-.987 1.148-1.29s.942-.453 1.48-.453zM332.92 260.208c-1.265 0-2.263-.385-2.995-1.156s-1.098-1.84-1.098-3.21c0-1.38.34-2.478 1.02-3.29s1.592-1.22 2.738-1.22c1.073 0 1.922.354 2.547 1.06s.938 1.637.938 2.793v.82h-5.898c.026 1.005.28 1.768.762 2.29s1.16.78 2.035.78c.92 0 1.832-.193 2.733-.578v1.156c-.458.198-.892.34-1.3.425-.41.087-.904.13-1.482.13zm-.35-7.79c-.69 0-1.237.225-1.646.673s-.65 1.07-.723 1.86h4.478c0-.818-.182-1.444-.547-1.88s-.884-.65-1.56-.65zM343.546 260.052l-.258-1.218h-.062c-.427.537-.853.9-1.277 1.09s-.956.285-1.59.285c-.85 0-1.515-.22-1.997-.657s-.723-1.06-.723-1.867c0-1.73 1.383-2.635 4.148-2.72l1.453-.046v-.53c0-.673-.144-1.17-.433-1.49s-.75-.48-1.387-.48c-.713 0-1.52.22-2.422.657l-.398-.992c.422-.23.884-.41 1.387-.54s1.006-.194 1.512-.194c1.02 0 1.776.228 2.27.68s.737 1.18.737 2.18v5.844h-.96zm-2.93-.914c.807 0 1.44-.22 1.902-.664s.69-1.062.69-1.86v-.772l-1.296.055c-1.03.037-1.775.197-2.23.48s-.684.725-.684 1.324c0 .47.142.827.426 1.07s.682.368 1.192.368zM350.6 260.208c-1.24 0-2.2-.38-2.88-1.144s-1.02-1.842-1.02-3.238c0-1.432.346-2.54 1.036-3.32s1.673-1.172 2.95-1.172c.41 0 .822.044 1.233.133s.733.193.967.312l-.398 1.1c-.287-.114-.6-.208-.938-.284s-.638-.113-.898-.113c-1.74 0-2.61 1.11-2.61 3.328 0 1.053.213 1.86.638 2.423s1.053.844 1.887.844c.712 0 1.444-.154 2.194-.46v1.147c-.572.296-1.294.444-2.164.444zM357.562 259.138c.23 0 .45-.017.664-.05s.383-.07.508-.106v.992c-.14.068-.348.124-.62.167-.274.046-.52.067-.74.067-1.655 0-2.483-.872-2.483-2.617v-5.094h-1.226v-.625l1.227-.538.548-1.828h.75v1.984h2.484v1.008h-2.484v5.04c0 .515.122.91.367 1.187s.58.415 1.007.415zM360.335 249.17c0-.298.073-.516.22-.653.145-.138.327-.207.546-.207.21 0 .39.07.54.21s.227.357.227.65c0 .29-.075.508-.227.65-.15.144-.33.216-.54.216-.218 0-.4-.072-.546-.215-.145-.142-.22-.36-.22-.65zm1.407 10.882h-1.297v-8.562h1.297v8.562zM371.882 255.763c0 1.396-.352 2.486-1.055 3.27s-1.675 1.175-2.914 1.175c-.766 0-1.445-.18-2.04-.54-.593-.358-1.05-.874-1.374-1.546s-.485-1.458-.485-2.36c0-1.395.35-2.482 1.047-3.26s1.667-1.17 2.906-1.17c1.198 0 2.15.4 2.855 1.196s1.06 1.876 1.06 3.235zm-6.523 0c0 1.094.218 1.927.655 2.5s1.08.86 1.93.86 1.493-.286 1.934-.856.66-1.405.66-2.504c0-1.088-.22-1.916-.66-2.48s-1.09-.848-1.95-.848c-.85 0-1.49.28-1.922.836s-.65 1.39-.65 2.493zM380.015 260.052v-5.54c0-.697-.16-1.218-.477-1.56s-.815-.517-1.492-.517c-.896 0-1.552.242-1.97.727s-.624 1.284-.624 2.398v4.492h-1.297v-8.562h1.055l.21 1.172h.063c.266-.422.638-.75 1.117-.98s1.013-.348 1.602-.348c1.03 0 1.808.25 2.328.746s.78 1.293.78 2.387v5.585h-1.295zM23.387 26.908H21.87l-6.24-9.586h-.063c.083 1.125.125 2.156.125 3.094v6.492h-1.227V15.486h1.5l6.227 9.547h.062c-.01-.14-.034-.592-.07-1.355s-.05-1.31-.04-1.637v-6.554h1.243v11.422zM27.55 18.345V23.9c0 .698.16 1.22.478 1.562s.815.516 1.492.516c.896 0 1.55-.245 1.965-.734s.62-1.29.62-2.398v-4.5h1.298v8.562h-1.07l-.188-1.148h-.07c-.266.422-.634.745-1.105.97s-1.01.335-1.613.335c-1.042 0-1.822-.248-2.34-.742s-.777-1.287-.777-2.375v-5.602h1.31zM47.067 26.908v-5.57c0-.682-.146-1.194-.438-1.535-.293-.34-.746-.512-1.36-.512-.807 0-1.404.233-1.79.696s-.577 1.177-.577 2.14v4.782h-1.297v-5.57c0-.682-.146-1.194-.438-1.535s-.748-.512-1.367-.512c-.81 0-1.407.245-1.784.73s-.566 1.286-.566 2.396v4.492h-1.297v-8.562h1.055l.21 1.172h.063c.246-.417.59-.742 1.036-.977s.944-.35 1.496-.35c1.338 0 2.213.483 2.625 1.452h.063c.255-.448.625-.802 1.11-1.062s1.036-.39 1.655-.39c.97 0 1.694.248 2.176.745.483.498.724 1.293.724 2.387v5.586h-1.297zM55.02 18.205c1.125 0 2 .384 2.62 1.152s.935 1.855.935 3.262-.314 2.498-.94 3.276-1.5 1.168-2.614 1.168c-.556 0-1.065-.103-1.526-.31s-.848-.52-1.16-.948h-.094l-.273 1.102h-.93V14.75h1.297v2.954c0 .662-.02 1.255-.062 1.78h.062c.603-.852 1.5-1.28 2.686-1.28zm-.187 1.086c-.885 0-1.523.255-1.914.763s-.587 1.363-.587 2.566.2 2.063.602 2.58 1.044.778 1.93.778c.797 0 1.39-.29 1.78-.87s.587-1.417.587-2.505c0-1.115-.195-1.945-.586-2.492s-.995-.82-1.813-.82zM64.458 27.064c-1.266 0-2.264-.385-2.996-1.156s-1.098-1.84-1.098-3.21c0-1.38.34-2.478 1.02-3.29s1.592-1.22 2.738-1.22c1.073 0 1.922.354 2.547 1.06s.937 1.637.937 2.793v.82H61.71c.025 1.006.28 1.77.76 2.29s1.16.78 2.036.78c.922 0 1.833-.192 2.734-.577v1.156c-.458.197-.892.34-1.3.425s-.904.13-1.482.13zm-.352-7.79c-.688 0-1.236.225-1.645.673s-.65 1.068-.722 1.86h4.477c0-.82-.182-1.445-.547-1.88s-.884-.652-1.562-.652zM73.723 18.19c.38 0 .72.03 1.023.093l-.18 1.203c-.354-.078-.667-.117-.938-.117-.693 0-1.285.28-1.777.843s-.737 1.263-.737 2.102v4.594h-1.297v-8.563h1.07l.148 1.586h.062c.318-.557.7-.987 1.148-1.29s.943-.454 1.48-.454zM87.896 22.62c0 1.395-.352 2.485-1.055 3.27s-1.673 1.175-2.913 1.175c-.766 0-1.445-.18-2.04-.54s-1.05-.874-1.374-1.546-.484-1.46-.484-2.36c0-1.396.348-2.483 1.046-3.262s1.667-1.168 2.906-1.168c1.198 0 2.15.398 2.855 1.195s1.06 1.874 1.06 3.234zm-6.524 0c0 1.093.22 1.926.656 2.5s1.08.858 1.93.858 1.494-.285 1.934-.855.66-1.405.66-2.504c0-1.09-.22-1.917-.66-2.48s-1.09-.85-1.95-.85c-.848 0-1.49.28-1.92.837s-.65 1.388-.65 2.492zM94.03 19.353h-2.18v7.555H90.55v-7.555h-1.53v-.586l1.53-.47v-.476c0-2.103.92-3.155 2.758-3.155.453 0 .984.09 1.594.273l-.336 1.04c-.5-.163-.927-.243-1.28-.243-.49 0-.853.163-1.087.488-.233.325-.35.848-.35 1.566v.554h2.18v1.01zM103.732 27.064c-.557 0-1.066-.103-1.527-.31s-.848-.52-1.16-.948h-.094c.063.5.095.974.095 1.422v3.523h-1.297V18.346h1.055l.18 1.172h.062c.333-.47.72-.807 1.164-1.016s.95-.31 1.522-.31c1.135 0 2.012.387 2.63 1.163s.925 1.865.925 3.266c0 1.405-.314 2.498-.94 3.276s-1.5 1.168-2.615 1.168zm-.188-7.773c-.875 0-1.508.243-1.898.728s-.59 1.255-.602 2.312v.29c0 1.202.2 2.063.602 2.58s1.044.778 1.93.778c.74 0 1.32-.3 1.738-.898s.63-1.424.63-2.477c0-1.068-.21-1.887-.63-2.457s-1.01-.855-1.77-.855zM114.818 26.908l-.258-1.22h-.062c-.427.538-.853.9-1.277 1.09s-.954.286-1.59.286c-.848 0-1.513-.22-1.995-.656s-.723-1.06-.723-1.867c0-1.728 1.383-2.634 4.148-2.718l1.453-.047v-.53c0-.673-.145-1.17-.434-1.49s-.752-.48-1.388-.48c-.713 0-1.52.22-2.422.657l-.398-.992c.422-.23.884-.41 1.387-.54s1.005-.194 1.51-.194c1.022 0 1.778.227 2.27.68s.74 1.18.74 2.18v5.844h-.962zm-2.93-.914c.807 0 1.44-.22 1.902-.664s.69-1.062.69-1.86V22.7l-1.296.055c-1.03.037-1.775.197-2.23.48s-.684.725-.684 1.324c0 .47.142.826.426 1.07s.682.367 1.192.367zM122.357 18.19c.38 0 .72.03 1.023.093l-.18 1.203c-.354-.078-.667-.117-.938-.117-.693 0-1.285.28-1.777.843s-.738 1.263-.738 2.102v4.594h-1.297v-8.563h1.07l.148 1.586h.062c.318-.557.7-.987 1.148-1.29s.942-.454 1.48-.454zM127.748 25.994c.23 0 .45-.017.664-.05s.383-.07.508-.106v.992c-.14.068-.348.124-.62.168s-.52.066-.74.066c-1.655 0-2.483-.873-2.483-2.617v-5.094h-1.227v-.625l1.227-.54.547-1.827h.75v1.985h2.484v1.008h-2.484v5.04c0 .515.123.91.367 1.187s.58.414 1.008.414zM130.52 16.025c0-.297.074-.515.22-.652.146-.138.328-.207.547-.207.208 0 .388.07.54.21s.226.357.226.65c0 .29-.076.508-.227.65-.15.144-.33.216-.54.216-.218 0-.4-.072-.546-.215-.146-.143-.22-.36-.22-.652zm1.408 10.883h-1.297v-8.562h1.298v8.562zM138.1 27.064c-1.24 0-2.2-.38-2.88-1.145s-1.02-1.843-1.02-3.24c0-1.43.345-2.538 1.035-3.32s1.673-1.17 2.95-1.17c.41 0 .822.043 1.233.132s.734.193.97.312l-.4 1.102c-.286-.115-.598-.21-.937-.285s-.637-.112-.897-.112c-1.74 0-2.61 1.11-2.61 3.328 0 1.052.213 1.86.638 2.422s1.054.844 1.888.844c.713 0 1.445-.154 2.195-.46v1.147c-.572.296-1.294.444-2.164.444zM143.592 26.908h-1.297V14.75h1.297V26.91zM149.96 27.064c-1.267 0-2.265-.385-2.997-1.156s-1.098-1.84-1.098-3.21c0-1.38.34-2.478 1.02-3.29s1.592-1.22 2.738-1.22c1.073 0 1.922.354 2.547 1.06s.938 1.637.938 2.793v.82h-5.898c.026 1.006.28 1.77.762 2.29s1.16.78 2.035.78c.922 0 1.833-.192 2.734-.577v1.156c-.457.197-.89.34-1.3.425s-.903.13-1.48.13zm-.353-7.79c-.688 0-1.236.225-1.645.673s-.65 1.068-.723 1.86h4.476c0-.82-.182-1.445-.547-1.88s-.885-.652-1.563-.652zM160.842 24.572c0 .797-.297 1.412-.89 1.844s-1.428.648-2.5.648c-1.136 0-2.022-.18-2.657-.54v-1.202c.412.208.853.373 1.324.492s.925.18 1.362.18c.677 0 1.198-.108 1.562-.324s.547-.545.547-.988c0-.333-.144-.62-.433-.855s-.853-.517-1.69-.84c-.798-.297-1.364-.556-1.7-.777s-.586-.473-.75-.754-.246-.617-.246-1.008c0-.698.285-1.25.853-1.652s1.346-.605 2.336-.605c.92 0 1.822.19 2.702.563l-.46 1.055c-.86-.354-1.64-.53-2.337-.53-.615 0-1.078.095-1.39.288s-.47.458-.47.797c0 .23.06.424.176.586s.307.314.567.46.76.357 1.5.633c1.016.37 1.702.742 2.06 1.117s.535.844.535 1.412z"/><path stroke="#191919" fill="none" d="M87.006 49.84v323.14h623.14"/><path d="M84.1 51.82l2.904-10.84 2.907 10.84zM708.165 375.885l10.84-2.904-10.84-2.906z"/><path stroke="#191919" stroke-width="2" stroke-miterlimit="10" d="M689.805 345.703c-84.733-11.89-150.673-31.81-202.992-55.66" fill="none"/></g></svg>