<svg xmlns="http://www.w3.org/2000/svg" xmlns:xlink="http://www.w3.org/1999/xlink" width="600" height="371" fill="none" stroke="none" stroke-linecap="square" stroke-miterlimit="10" version="1.1" viewBox="0 0 600 371"><path fill="#fff" fill-rule="nonzero" d="M0 0L600.0 0L600.0 371.0L0 371.0L0 0Z"/><path fill-rule="nonzero" stroke="#ccc" stroke-linecap="butt" stroke-width="1" d="M77.5 88.5L77.5 300.5"/><path fill-rule="nonzero" stroke="#ccc" stroke-linecap="butt" stroke-width="1" d="M203.5 88.5L203.5 300.5"/><path fill-rule="nonzero" stroke="#ccc" stroke-linecap="butt" stroke-width="1" d="M329.5 88.5L329.5 300.5"/><path fill-rule="nonzero" stroke="#ccc" stroke-linecap="butt" stroke-width="1" d="M455.5 88.5L455.5 300.5"/><path fill-rule="nonzero" stroke="#ccc" stroke-linecap="butt" stroke-width="1" d="M581.5 88.5L581.5 300.5"/><path fill-rule="nonzero" stroke="#333" stroke-linecap="butt" stroke-width="1" d="M77.5 300.5L581.5 300.5"/><path fill-rule="nonzero" stroke="#ccc" stroke-linecap="butt" stroke-width="1" d="M77.5 229.5L581.5 229.5"/><path fill-rule="nonzero" stroke="#ccc" stroke-linecap="butt" stroke-width="1" d="M77.5 159.5L581.5 159.5"/><path fill-rule="nonzero" stroke="#ccc" stroke-linecap="butt" stroke-width="1" d="M77.5 88.5L581.5 88.5"/><clipPath id="id_0"><path d="M77.55 88.28333L581.45 88.28333L581.45 300.45L77.55 300.45L77.55 88.28333Z" clip-rule="nonzero"/></clipPath><path fill-rule="nonzero" stroke="#4285f4" stroke-linecap="butt" stroke-width="2" d="M77.55 103.56641L203.525 103.56641L329.5 103.56641L455.475 103.56641L581.45 103.56641" clip-path="url(#id_0)"/><path fill-rule="nonzero" stroke="#ea4335" stroke-linecap="butt" stroke-width="2" d="M77.55 292.80777L203.525 292.80777L329.5 292.80777L455.475 292.80777L581.45 292.80777" clip-path="url(#id_0)"/><path fill-rule="nonzero" stroke="#fbbc04" stroke-linecap="butt" stroke-width="2" d="M77.55 292.80777L203.525 292.80777L329.5 292.80777L455.475 292.80777L581.45 292.80777" clip-path="url(#id_0)"/><path fill="#000" fill-opacity="0" fill-rule="nonzero" d="M80.55 103.56641C80.55 105.22326 79.206856 106.56641 77.55 106.56641C75.89314 106.56641 74.55 105.22326 74.55 103.56641C74.55 101.90955 75.89314 100.56641 77.55 100.56641C79.206856 100.56641 80.55 101.90955 80.55 103.56641Z" clip-path="url(#id_0)"/><path fill="#000" fill-opacity="0" fill-rule="nonzero" d="M206.525 103.56641C206.525 105.22326 205.18185 106.56641 203.525 106.56641C201.86815 106.56641 200.525 105.22326 200.525 103.56641C200.525 101.90955 201.86815 100.56641 203.525 100.56641C205.18185 100.56641 206.525 101.90955 206.525 103.56641Z" clip-path="url(#id_0)"/><path fill="#000" fill-opacity="0" fill-rule="nonzero" d="M332.5 103.56641C332.5 105.22326 331.15686 106.56641 329.5 106.56641C327.84314 106.56641 326.5 105.22326 326.5 103.56641C326.5 101.90955 327.84314 100.56641 329.5 100.56641C331.15686 100.56641 332.5 101.90955 332.5 103.56641Z" clip-path="url(#id_0)"/><path fill="#000" fill-opacity="0" fill-rule="nonzero" d="M458.475 103.56641C458.475 105.22326 457.13187 106.56641 455.475 106.56641C453.81815 106.56641 452.475 105.22326 452.475 103.56641C452.475 101.90955 453.81815 100.56641 455.475 100.56641C457.13187 100.56641 458.475 101.90955 458.475 103.56641Z" clip-path="url(#id_0)"/><path fill="#000" fill-opacity="0" fill-rule="nonzero" d="M584.45 103.56641C584.45 105.22326 583.1069 106.56641 581.45 106.56641C579.79315 106.56641 578.45 105.22326 578.45 103.56641C578.45 101.90955 579.79315 100.56641 581.45 100.56641C583.1069 100.56641 584.45 101.90955 584.45 103.56641Z" clip-path="url(#id_0)"/><path fill="#000" fill-opacity="0" fill-rule="nonzero" d="M80.55 292.80777C80.55 294.4646 79.206856 295.80777 77.55 295.80777C75.89314 295.80777 74.55 294.4646 74.55 292.80777C74.55 291.1509 75.89314 289.80777 77.55 289.80777C79.206856 289.80777 80.55 291.1509 80.55 292.80777Z" clip-path="url(#id_0)"/><path fill="#000" fill-opacity="0" fill-rule="nonzero" d="M206.525 292.80777C206.525 294.4646 205.18185 295.80777 203.525 295.80777C201.86815 295.80777 200.525 294.4646 200.525 292.80777C200.525 291.1509 201.86815 289.80777 203.525 289.80777C205.18185 289.80777 206.525 291.1509 206.525 292.80777Z" clip-path="url(#id_0)"/><path fill="#000" fill-opacity="0" fill-rule="nonzero" d="M332.5 292.80777C332.5 294.4646 331.15686 295.80777 329.5 295.80777C327.84314 295.80777 326.5 294.4646 326.5 292.80777C326.5 291.1509 327.84314 289.80777 329.5 289.80777C331.15686 289.80777 332.5 291.1509 332.5 292.80777Z" clip-path="url(#id_0)"/><path fill="#000" fill-opacity="0" fill-rule="nonzero" d="M458.475 292.80777C458.475 294.4646 457.13187 295.80777 455.475 295.80777C453.81815 295.80777 452.475 294.4646 452.475 292.80777C452.475 291.1509 453.81815 289.80777 455.475 289.80777C457.13187 289.80777 458.475 291.1509 458.475 292.80777Z" clip-path="url(#id_0)"/><path fill="#000" fill-opacity="0" fill-rule="nonzero" d="M584.45 292.80777C584.45 294.4646 583.1069 295.80777 581.45 295.80777C579.79315 295.80777 578.45 294.4646 578.45 292.80777C578.45 291.1509 579.79315 289.80777 581.45 289.80777C583.1069 289.80777 584.45 291.1509 584.45 292.80777Z" clip-path="url(#id_0)"/><path fill="#000" fill-opacity="0" fill-rule="nonzero" d="M80.55 292.80777C80.55 294.4646 79.206856 295.80777 77.55 295.80777C75.89314 295.80777 74.55 294.4646 74.55 292.80777C74.55 291.1509 75.89314 289.80777 77.55 289.80777C79.206856 289.80777 80.55 291.1509 80.55 292.80777Z" clip-path="url(#id_0)"/><path fill="#000" fill-opacity="0" fill-rule="nonzero" d="M206.525 292.80777C206.525 294.4646 205.18185 295.80777 203.525 295.80777C201.86815 295.80777 200.525 294.4646 200.525 292.80777C200.525 291.1509 201.86815 289.80777 203.525 289.80777C205.18185 289.80777 206.525 291.1509 206.525 292.80777Z" clip-path="url(#id_0)"/><path fill="#000" fill-opacity="0" fill-rule="nonzero" d="M332.5 292.80777C332.5 294.4646 331.15686 295.80777 329.5 295.80777C327.84314 295.80777 326.5 294.4646 326.5 292.80777C326.5 291.1509 327.84314 289.80777 329.5 289.80777C331.15686 289.80777 332.5 291.1509 332.5 292.80777Z" clip-path="url(#id_0)"/><path fill="#000" fill-opacity="0" fill-rule="nonzero" d="M458.475 292.80777C458.475 294.4646 457.13187 295.80777 455.475 295.80777C453.81815 295.80777 452.475 294.4646 452.475 292.80777C452.475 291.1509 453.81815 289.80777 455.475 289.80777C457.13187 289.80777 458.475 291.1509 458.475 292.80777Z" clip-path="url(#id_0)"/><path fill="#000" fill-opacity="0" fill-rule="nonzero" d="M584.45 292.80777C584.45 294.4646 583.1069 295.80777 581.45 295.80777C579.79315 295.80777 578.45 294.4646 578.45 292.80777C578.45 291.1509 579.79315 289.80777 581.45 289.80777C583.1069 289.80777 584.45 291.1509 584.45 292.80777Z" clip-path="url(#id_0)"/><path fill="#000" fill-rule="nonzero" d="M279.92188 349.45L279.92188 340.85626L283.17188 340.85626Q284.01562 340.85626 284.46875 340.9344Q285.10938 341.04376 285.53125 341.34064Q285.96875 341.6375 286.21875 342.16876Q286.48438 342.7 286.48438 343.34064Q286.48438 344.4344 285.78125 345.2Q285.09375 345.95 283.26562 345.95L281.0625 345.95L281.0625 349.45L279.92188 349.45ZM281.0625 344.95L283.28125 344.95Q284.39062 344.95 284.84375 344.54376Q285.3125 344.1219 285.3125 343.3719Q285.3125 342.84064 285.03125 342.46564Q284.76562 342.075 284.32812 341.95Q284.03125 341.8719 283.26562 341.8719L281.0625 341.8719L281.0625 344.95ZM287.78125 349.45L287.78125 343.23126L288.73438 343.23126L288.73438 344.16876Q289.09375 343.5125 289.39062 343.3094Q289.70312 343.09064 290.07812 343.09064Q290.60938 343.09064 291.15625 343.41876L290.79688 344.40314Q290.40625 344.16876 290.03125 344.16876Q289.67188 344.16876 289.39062 344.3875Q289.125 344.59064 289.01562 344.96564Q288.82812 345.52814 288.82812 346.1844L288.82812 349.45L287.78125 349.45ZM296.04688 347.45L297.14062 347.575Q296.89062 348.52814 296.1875 349.0594Q295.48438 349.59064 294.40625 349.59064Q293.04688 349.59064 292.23438 348.7469Q291.4375 347.90314 291.4375 346.3875Q291.4375 344.825 292.25 343.96564Q293.0625 343.09064 294.34375 343.09064Q295.59375 343.09064 296.375 343.9344Q297.17188 344.77814 297.17188 346.325Q297.17188 346.41876 297.17188 346.60626L292.53125 346.60626Q292.59375 347.6375 293.10938 348.1844Q293.625 348.71564 294.40625 348.71564Q294.98438 348.71564 295.39062 348.41876Q295.8125 348.10626 296.04688 347.45ZM292.59375 345.7469L296.0625 345.7469Q296.0 344.95 295.67188 344.5594Q295.15625 343.95 294.35938 343.95Q293.625 343.95 293.125 344.4344Q292.64062 344.91876 292.59375 345.7469ZM298.375 347.59064L299.40625 347.4344Q299.5 348.0594 299.89062 348.3875Q300.29688 348.71564 301.03125 348.71564Q301.75 348.71564 302.09375 348.4344Q302.45312 348.1375 302.45312 347.73126Q302.45312 347.3719 302.14062 347.16876Q301.92188 347.02814 301.0625 346.8094Q299.90625 346.5125 299.45312 346.3094Q299.01562 346.09064 298.78125 345.71564Q298.54688 345.34064 298.54688 344.8719Q298.54688 344.46564 298.73438 344.10626Q298.92188 343.7469 299.25 343.5125Q299.5 343.34064 299.92188 343.21564Q300.34375 343.09064 300.84375 343.09064Q301.5625 343.09064 302.10938 343.3094Q302.67188 343.5125 302.9375 343.8719Q303.20312 344.23126 303.29688 344.825L302.26562 344.96564Q302.20312 344.4969 301.85938 344.23126Q301.53125 343.95 300.90625 343.95Q300.1875 343.95 299.875 344.2Q299.5625 344.4344 299.5625 344.7625Q299.5625 344.96564 299.6875 345.1219Q299.82812 345.29376 300.09375 345.40314Q300.25 345.46564 301.03125 345.66876Q302.15625 345.98126 302.59375 346.16876Q303.03125 346.35626 303.28125 346.71564Q303.53125 347.075 303.53125 347.6219Q303.53125 348.15314 303.21875 348.6219Q302.92188 349.075 302.34375 349.34064Q301.76562 349.59064 301.03125 349.59064Q299.8125 349.59064 299.17188 349.09064Q298.54688 348.575 298.375 347.59064ZM304.375 347.59064L305.40625 347.4344Q305.5 348.0594 305.89062 348.3875Q306.29688 348.71564 307.03125 348.71564Q307.75 348.71564 308.09375 348.4344Q308.45312 348.1375 308.45312 347.73126Q308.45312 347.3719 308.14062 347.16876Q307.92188 347.02814 307.0625 346.8094Q305.90625 346.5125 305.45312 346.3094Q305.01562 346.09064 304.78125 345.71564Q304.54688 345.34064 304.54688 344.8719Q304.54688 344.46564 304.73438 344.10626Q304.92188 343.7469 305.25 343.5125Q305.5 343.34064 305.92188 343.21564Q306.34375 343.09064 306.84375 343.09064Q307.5625 343.09064 308.10938 343.3094Q308.67188 343.5125 308.9375 343.8719Q309.20312 344.23126 309.29688 344.825L308.26562 344.96564Q308.20312 344.4969 307.85938 344.23126Q307.53125 343.95 306.90625 343.95Q306.1875 343.95 305.875 344.2Q305.5625 344.4344 305.5625 344.7625Q305.5625 344.96564 305.6875 345.1219Q305.82812 345.29376 306.09375 345.40314Q306.25 345.46564 307.03125 345.66876Q308.15625 345.98126 308.59375 346.16876Q309.03125 346.35626 309.28125 346.71564Q309.53125 347.075 309.53125 347.6219Q309.53125 348.15314 309.21875 348.6219Q308.92188 349.075 308.34375 349.34064Q307.76562 349.59064 307.03125 349.59064Q305.8125 349.59064 305.17188 349.09064Q304.54688 348.575 304.375 347.59064ZM314.875 349.45L314.875 348.52814Q314.14062 349.59064 312.89062 349.59064Q312.34375 349.59064 311.85938 349.3875Q311.39062 349.16876 311.15625 348.85626Q310.92188 348.52814 310.82812 348.0594Q310.76562 347.7625 310.76562 347.075L310.76562 343.23126L311.82812 343.23126L311.82812 346.6844Q311.82812 347.4969 311.89062 347.79376Q311.98438 348.2 312.29688 348.45Q312.625 348.6844 313.10938 348.6844Q313.57812 348.6844 313.98438 348.45Q314.40625 348.2 314.57812 347.77814Q314.76562 347.35626 314.76562 346.5594L314.76562 343.23126L315.8125 343.23126L315.8125 349.45L314.875 349.45ZM317.78125 349.45L317.78125 343.23126L318.73438 343.23126L318.73438 344.16876Q319.09375 343.5125 319.39062 343.3094Q319.70312 343.09064 320.07812 343.09064Q320.60938 343.09064 321.15625 343.41876L320.79688 344.40314Q320.40625 344.16876 320.03125 344.16876Q319.67188 344.16876 319.39062 344.3875Q319.125 344.59064 319.01562 344.96564Q318.82812 345.52814 318.82812 346.1844L318.82812 349.45L317.78125 349.45ZM326.04688 347.45L327.14062 347.575Q326.89062 348.52814 326.1875 349.0594Q325.48438 349.59064 324.40625 349.59064Q323.04688 349.59064 322.23438 348.7469Q321.4375 347.90314 321.4375 346.3875Q321.4375 344.825 322.25 343.96564Q323.0625 343.09064 324.34375 343.09064Q325.59375 343.09064 326.375 343.9344Q327.17188 344.77814 327.17188 346.325Q327.17188 346.41876 327.17188 346.60626L322.53125 346.60626Q322.59375 347.6375 323.10938 348.1844Q323.625 348.71564 324.40625 348.71564Q324.98438 348.71564 325.39062 348.41876Q325.8125 348.10626 326.04688 347.45ZM322.59375 345.7469L326.0625 345.7469Q326.0 344.95 325.67188 344.5594Q325.15625 343.95 324.35938 343.95Q323.625 343.95 323.125 344.4344Q322.64062 344.91876 322.59375 345.7469ZM338.0625 346.4344L339.1875 346.73126Q338.82812 348.1219 337.90625 348.85626Q336.98438 349.59064 335.64062 349.59064Q334.25 349.59064 333.375 349.02814Q332.5 348.46564 332.04688 347.40314Q331.59375 346.325 331.59375 345.09064Q331.59375 343.7469 332.10938 342.7469Q332.625 341.7469 333.5625 341.23126Q334.51562 340.71564 335.65625 340.71564Q336.9375 340.71564 337.8125 341.3719Q338.70312 342.02814 339.04688 343.21564L337.92188 343.48126Q337.625 342.54376 337.04688 342.1219Q336.48438 341.6844 335.625 341.6844Q334.64062 341.6844 333.96875 342.16876Q333.3125 342.6375 333.03125 343.4344Q332.76562 344.23126 332.76562 345.09064Q332.76562 346.1844 333.07812 346.9969Q333.40625 347.8094 334.07812 348.21564Q334.75 348.6219 335.54688 348.6219Q336.5 348.6219 337.15625 348.075Q337.82812 347.52814 338.0625 346.4344ZM340.40625 346.34064Q340.40625 344.60626 341.35938 343.77814Q342.15625 343.09064 343.3125 343.09064Q344.59375 343.09064 345.40625 343.9344Q346.23438 344.7625 346.23438 346.2469Q346.23438 347.45 345.875 348.1375Q345.51562 348.825 344.8125 349.21564Q344.125 349.59064 343.3125 349.59064Q342.01562 349.59064 341.20312 348.7625Q340.40625 347.91876 340.40625 346.34064ZM341.48438 346.34064Q341.48438 347.52814 342.0 348.1219Q342.53125 348.71564 343.3125 348.71564Q344.10938 348.71564 344.625 348.1219Q345.14062 347.52814 345.14062 346.3094Q345.14062 345.15314 344.60938 344.5594Q344.09375 343.96564 343.3125 343.96564Q342.53125 343.96564 342.0 344.5594Q341.48438 345.1375 341.48438 346.34064ZM347.79688 349.45L347.79688 343.23126L348.73438 343.23126L348.73438 344.10626Q349.42188 343.09064 350.71875 343.09064Q351.28125 343.09064 351.75 343.29376Q352.23438 343.4969 352.46875 343.825Q352.70312 344.15314 352.79688 344.59064Q352.84375 344.8875 352.84375 345.6219L352.84375 349.45L351.79688 349.45L351.79688 345.66876Q351.79688 345.0125 351.67188 344.7Q351.54688 344.3875 351.23438 344.2Q350.92188 343.9969 350.5 343.9969Q349.82812 343.9969 349.32812 344.4344Q348.84375 344.85626 348.84375 346.04376L348.84375 349.45L347.79688 349.45ZM354.375 347.59064L355.40625 347.4344Q355.5 348.0594 355.89062 348.3875Q356.29688 348.71564 357.03125 348.71564Q357.75 348.71564 358.09375 348.4344Q358.45312 348.1375 358.45312 347.73126Q358.45312 347.3719 358.14062 347.16876Q357.92188 347.02814 357.0625 346.8094Q355.90625 346.5125 355.45312 346.3094Q355.01562 346.09064 354.78125 345.71564Q354.54688 345.34064 354.54688 344.8719Q354.54688 344.46564 354.73438 344.10626Q354.92188 343.7469 355.25 343.5125Q355.5 343.34064 355.92188 343.21564Q356.34375 343.09064 356.84375 343.09064Q357.5625 343.09064 358.10938 343.3094Q358.67188 343.5125 358.9375 343.8719Q359.20312 344.23126 359.29688 344.825L358.26562 344.96564Q358.20312 344.4969 357.85938 344.23126Q357.53125 343.95 356.90625 343.95Q356.1875 343.95 355.875 344.2Q355.5625 344.4344 355.5625 344.7625Q355.5625 344.96564 355.6875 345.1219Q355.82812 345.29376 356.09375 345.40314Q356.25 345.46564 357.03125 345.66876Q358.15625 345.98126 358.59375 346.16876Q359.03125 346.35626 359.28125 346.71564Q359.53125 347.075 359.53125 347.6219Q359.53125 348.15314 359.21875 348.6219Q358.92188 349.075 358.34375 349.34064Q357.76562 349.59064 357.03125 349.59064Q355.8125 349.59064 355.17188 349.09064Q354.54688 348.575 354.375 347.59064ZM363.09375 348.5125L363.25 349.4344Q362.79688 349.52814 362.45312 349.52814Q361.875 349.52814 361.5625 349.35626Q361.25 349.16876 361.10938 348.8719Q360.98438 348.575 360.98438 347.6219L360.98438 344.04376L360.21875 344.04376L360.21875 343.23126L360.98438 343.23126L360.98438 341.6844L362.03125 341.0594L362.03125 343.23126L363.09375 343.23126L363.09375 344.04376L362.03125 344.04376L362.03125 347.6844Q362.03125 348.1375 362.07812 348.2625Q362.14062 348.3875 362.26562 348.46564Q362.39062 348.54376 362.625 348.54376Q362.8125 348.54376 363.09375 348.5125ZM367.85938 348.6844Q367.26562 349.1844 366.71875 349.3875Q366.1875 349.59064 365.5625 349.59064Q364.53125 349.59064 363.98438 349.09064Q363.4375 348.59064 363.4375 347.8094Q363.4375 347.35626 363.64062 346.98126Q363.84375 346.59064 364.1875 346.3719Q364.53125 346.1375 364.95312 346.02814Q365.25 345.9344 365.89062 345.85626Q367.15625 345.71564 367.76562 345.4969Q367.76562 345.27814 367.76562 345.23126Q367.76562 344.575 367.46875 344.3094Q367.0625 343.96564 366.26562 343.96564Q365.53125 343.96564 365.17188 344.23126Q364.8125 344.48126 364.64062 345.1375L363.60938 344.9969Q363.75 344.34064 364.07812 343.9344Q364.40625 343.52814 365.01562 343.3094Q365.625 343.09064 366.42188 343.09064Q367.21875 343.09064 367.71875 343.27814Q368.21875 343.46564 368.45312 343.7469Q368.6875 344.02814 368.78125 344.46564Q368.82812 344.73126 368.82812 345.4344L368.82812 346.84064Q368.82812 348.3094 368.89062 348.7Q368.96875 349.09064 369.17188 349.45L368.0625 349.45Q367.90625 349.1219 367.85938 348.6844ZM367.76562 346.325Q367.1875 346.5594 366.04688 346.73126Q365.39062 346.825 365.125 346.95Q364.85938 347.0594 364.70312 347.27814Q364.5625 347.4969 364.5625 347.77814Q364.5625 348.2 364.875 348.48126Q365.20312 348.7625 365.8125 348.7625Q366.42188 348.7625 366.89062 348.4969Q367.375 348.23126 367.59375 347.7625Q367.76562 347.40314 367.76562 346.71564L367.76562 346.325ZM370.79688 349.45L370.79688 343.23126L371.73438 343.23126L371.73438 344.10626Q372.42188 343.09064 373.71875 343.09064Q374.28125 343.09064 374.75 343.29376Q375.23438 343.4969 375.46875 343.825Q375.70312 344.15314 375.79688 344.59064Q375.84375 344.8875 375.84375 345.6219L375.84375 349.45L374.79688 349.45L374.79688 345.66876Q374.79688 345.0125 374.67188 344.7Q374.54688 344.3875 374.23438 344.2Q373.92188 343.9969 373.5 343.9969Q372.82812 343.9969 372.32812 344.4344Q371.84375 344.85626 371.84375 346.04376L371.84375 349.45L370.79688 349.45ZM380.09375 348.5125L380.25 349.4344Q379.79688 349.52814 379.45312 349.52814Q378.875 349.52814 378.5625 349.35626Q378.25 349.16876 378.10938 348.8719Q377.98438 348.575 377.98438 347.6219L377.98438 344.04376L377.21875 344.04376L377.21875 343.23126L377.98438 343.23126L377.98438 341.6844L379.03125 341.0594L379.03125 343.23126L380.09375 343.23126L380.09375 344.04376L379.03125 344.04376L379.03125 347.6844Q379.03125 348.1375 379.07812 348.2625Q379.14062 348.3875 379.26562 348.46564Q379.39062 348.54376 379.625 348.54376Q379.8125 348.54376 380.09375 348.5125Z"/><path fill="#000" fill-rule="nonzero" d="M29.550013 275.97604L20.956263 275.97604L20.956263 274.2573L27.034388 272.22604Q27.893763 271.9448 28.315638 271.8198Q27.846888 271.67917 26.940638 271.36667L20.956263 269.30417L20.956263 267.77292L29.550013 267.77292L29.550013 268.86667L22.362513 268.86667L29.550013 271.36667L29.550013 272.39792L22.237513 274.8823L29.550013 274.8823L29.550013 275.97604ZM26.440638 266.46042Q24.706263 266.46042 23.878138 265.5073Q23.190638 264.71042 23.190638 263.55417Q23.190638 262.27292 24.034388 261.46042Q24.862513 260.6323 26.346888 260.6323Q27.550013 260.6323 28.237513 260.99167Q28.925013 261.35104 29.315638 262.05417Q29.690638 262.74167 29.690638 263.55417Q29.690638 264.85104 28.862513 265.66354Q28.018763 266.46042 26.440638 266.46042ZM26.440638 265.3823Q27.628138 265.3823 28.221888 264.86667Q28.815638 264.33542 28.815638 263.55417Q28.815638 262.7573 28.221888 262.24167Q27.628138 261.72604 26.409388 261.72604Q25.253138 261.72604 24.659388 262.2573Q24.065638 262.77292 24.065638 263.55417Q24.065638 264.33542 24.659388 264.86667Q25.237513 265.3823 26.440638 265.3823ZM29.550013 259.10104L20.956263 259.10104L20.956263 258.03854L29.550013 258.03854L29.550013 259.10104ZM28.784388 252.0073Q29.284388 252.60104 29.487513 253.14792Q29.690638 253.67917 29.690638 254.30417Q29.690638 255.33542 29.190638 255.8823Q28.690638 256.42917 27.909388 256.42917Q27.456263 256.42917 27.081263 256.22604Q26.690638 256.02292 26.471888 255.67917Q26.237513 255.33542 26.128138 254.91354Q26.034388 254.61667 25.956263 253.97604Q25.815638 252.71042 25.596888 252.10104Q25.378138 252.10104 25.331263 252.10104Q24.675013 252.10104 24.409388 252.39792Q24.065638 252.80417 24.065638 253.60104Q24.065638 254.33542 24.331263 254.6948Q24.581263 255.05417 25.237513 255.22604L25.096888 256.2573Q24.440638 256.11667 24.034388 255.78854Q23.628138 255.46042 23.409388 254.85104Q23.190638 254.24167 23.190638 253.4448Q23.190638 252.64792 23.378138 252.14792Q23.565638 251.64792 23.846888 251.41354Q24.128138 251.17917 24.565638 251.08542Q24.831263 251.03854 25.534388 251.03854L26.940638 251.03854Q28.409388 251.03854 28.800013 250.97604Q29.190638 250.89792 29.550013 250.6948L29.550013 251.80417Q29.221888 251.96042 28.784388 252.0073ZM26.425013 252.10104Q26.659388 252.67917 26.831263 253.8198Q26.925013 254.47604 27.050013 254.74167Q27.159388 255.0073 27.378138 255.16354Q27.596888 255.30417 27.878138 255.30417Q28.300013 255.30417 28.581263 254.99167Q28.862513 254.66354 28.862513 254.05417Q28.862513 253.4448 28.596888 252.97604Q28.331263 252.49167 27.862513 252.27292Q27.503138 252.10104 26.815638 252.10104L26.425013 252.10104ZM29.550013 249.08542L23.331263 249.08542L23.331263 248.1323L24.268763 248.1323Q23.612513 247.77292 23.409388 247.47604Q23.190638 247.16354 23.190638 246.78854Q23.190638 246.2573 23.518763 245.71042L24.503138 246.0698Q24.268763 246.46042 24.268763 246.83542Q24.268763 247.1948 24.487513 247.47604Q24.690638 247.74167 25.065638 247.85104Q25.628138 248.03854 26.284388 248.03854L29.550013 248.03854L29.550013 249.08542ZM26.534388 235.80417L26.831263 234.67917Q28.221888 235.03854 28.956263 235.96042Q29.690638 236.8823 29.690638 238.22604Q29.690638 239.61667 29.128138 240.49167Q28.565638 241.36667 27.503138 241.8198Q26.425013 242.27292 25.190638 242.27292Q23.846888 242.27292 22.846888 241.7573Q21.846888 241.24167 21.331263 240.30417Q20.815638 239.35104 20.815638 238.21042Q20.815638 236.92917 21.471888 236.05417Q22.128138 235.16354 23.315638 234.8198L23.581263 235.9448Q22.643763 236.24167 22.221888 236.8198Q21.784388 237.3823 21.784388 238.24167Q21.784388 239.22604 22.268763 239.89792Q22.737513 240.55417 23.534388 240.83542Q24.331263 241.10104 25.190638 241.10104Q26.284388 241.10104 27.096888 240.78854Q27.909388 240.46042 28.315638 239.78854Q28.721888 239.11667 28.721888 238.3198Q28.721888 237.36667 28.175013 236.71042Q27.628138 236.03854 26.534388 235.80417ZM26.440638 233.46042Q24.706263 233.46042 23.878138 232.5073Q23.190638 231.71042 23.190638 230.55417Q23.190638 229.27292 24.034388 228.46042Q24.862513 227.6323 26.346888 227.6323Q27.550013 227.6323 28.237513 227.99167Q28.925013 228.35104 29.315638 229.05417Q29.690638 229.74167 29.690638 230.55417Q29.690638 231.85104 28.862513 232.66354Q28.018763 233.46042 26.440638 233.46042ZM26.440638 232.3823Q27.628138 232.3823 28.221888 231.86667Q28.815638 231.33542 28.815638 230.55417Q28.815638 229.7573 28.221888 229.24167Q27.628138 228.72604 26.409388 228.72604Q25.253138 228.72604 24.659388 229.2573Q24.065638 229.77292 24.065638 230.55417Q24.065638 231.33542 24.659388 231.86667Q25.237513 232.3823 26.440638 232.3823ZM29.550013 226.0698L23.331263 226.0698L23.331263 225.1323L24.206263 225.1323Q23.190638 224.4448 23.190638 223.14792Q23.190638 222.58542 23.393763 222.11667Q23.596888 221.6323 23.925013 221.39792Q24.253138 221.16354 24.690638 221.0698Q24.987513 221.02292 25.721888 221.02292L29.550013 221.02292L29.550013 222.0698L25.768763 222.0698Q25.112513 222.0698 24.800013 222.1948Q24.487513 222.3198 24.300013 222.6323Q24.096888 222.9448 24.096888 223.36667Q24.096888 224.03854 24.534388 224.53854Q24.956263 225.02292 26.143763 225.02292L29.550013 225.02292L29.550013 226.0698ZM27.268763 215.0073L27.409388 213.97604Q28.471888 214.14792 29.081263 214.85104Q29.690638 215.55417 29.690638 216.5698Q29.690638 217.85104 28.862513 218.6323Q28.018763 219.39792 26.456263 219.39792Q25.456263 219.39792 24.706263 219.0698Q23.940638 218.72604 23.565638 218.05417Q23.190638 217.36667 23.190638 216.55417Q23.190638 215.55417 23.706263 214.91354Q24.206263 214.2573 25.159388 214.0698L25.315638 215.10104Q24.690638 215.24167 24.378138 215.61667Q24.050013 215.99167 24.050013 216.52292Q24.050013 217.3198 24.628138 217.8198Q25.190638 218.3198 26.425013 218.3198Q27.690638 218.3198 28.253138 217.83542Q28.815638 217.35104 28.815638 216.58542Q28.815638 215.96042 28.440638 215.55417Q28.065638 215.1323 27.268763 215.0073ZM27.550013 208.8198L27.675013 207.72604Q28.628138 207.97604 29.159388 208.67917Q29.690638 209.3823 29.690638 210.46042Q29.690638 211.8198 28.846888 212.6323Q28.003138 213.42917 26.487513 213.42917Q24.925013 213.42917 24.065638 212.61667Q23.190638 211.80417 23.190638 210.52292Q23.190638 209.27292 24.034388 208.49167Q24.878138 207.6948 26.425013 207.6948Q26.518763 207.6948 26.706263 207.6948L26.706263 212.33542Q27.737513 212.27292 28.284388 211.7573Q28.815638 211.24167 28.815638 210.46042Q28.815638 209.8823 28.518763 209.47604Q28.206263 209.05417 27.550013 208.8198ZM25.846888 212.27292L25.846888 208.80417Q25.050013 208.86667 24.659388 209.1948Q24.050013 209.71042 24.050013 210.5073Q24.050013 211.24167 24.534388 211.74167Q25.018763 212.22604 25.846888 212.27292ZM29.550013 206.0698L23.331263 206.0698L23.331263 205.1323L24.206263 205.1323Q23.190638 204.4448 23.190638 203.14792Q23.190638 202.58542 23.393763 202.11667Q23.596888 201.6323 23.925013 201.39792Q24.253138 201.16354 24.690638 201.0698Q24.987513 201.02292 25.721888 201.02292L29.550013 201.02292L29.550013 202.0698L25.768763 202.0698Q25.112513 202.0698 24.800013 202.1948Q24.487513 202.3198 24.300013 202.6323Q24.096888 202.9448 24.096888 203.36667Q24.096888 204.03854 24.534388 204.53854Q24.956263 205.02292 26.143763 205.02292L29.550013 205.02292L29.550013 206.0698ZM28.612513 196.77292L29.534388 196.61667Q29.628138 197.0698 29.628138 197.41354Q29.628138 197.99167 29.456263 198.30417Q29.268763 198.61667 28.971888 198.7573Q28.675013 198.8823 27.721888 198.8823L24.143763 198.8823L24.143763 199.64792L23.331263 199.64792L23.331263 198.8823L21.784388 198.8823L21.159388 197.83542L23.331263 197.83542L23.331263 196.77292L24.143763 196.77292L24.143763 197.83542L27.784388 197.83542Q28.237513 197.83542 28.362513 197.78854Q28.487513 197.72604 28.565638 197.60104Q28.643763 197.47604 28.643763 197.24167Q28.643763 197.05417 28.612513 196.77292ZM29.550013 196.08542L23.331263 196.08542L23.331263 195.1323L24.268763 195.1323Q23.612513 194.77292 23.409388 194.47604Q23.190638 194.16354 23.190638 193.78854Q23.190638 193.2573 23.518763 192.71042L24.503138 193.0698Q24.268763 193.46042 24.268763 193.83542Q24.268763 194.1948 24.487513 194.47604Q24.690638 194.74167 25.065638 194.85104Q25.628138 195.03854 26.284388 195.03854L29.550013 195.03854L29.550013 196.08542ZM28.784388 188.0073Q29.284388 188.60104 29.487513 189.14792Q29.690638 189.67917 29.690638 190.30417Q29.690638 191.33542 29.190638 191.8823Q28.690638 192.42917 27.909388 192.42917Q27.456263 192.42917 27.081263 192.22604Q26.690638 192.02292 26.471888 191.67917Q26.237513 191.33542 26.128138 190.91354Q26.034388 190.61667 25.956263 189.97604Q25.815638 188.71042 25.596888 188.10104Q25.378138 188.10104 25.331263 188.10104Q24.675013 188.10104 24.409388 188.39792Q24.065638 188.80417 24.065638 189.60104Q24.065638 190.33542 24.331263 190.6948Q24.581263 191.05417 25.237513 191.22604L25.096888 192.2573Q24.440638 192.11667 24.034388 191.78854Q23.628138 191.46042 23.409388 190.85104Q23.190638 190.24167 23.190638 189.4448Q23.190638 188.64792 23.378138 188.14792Q23.565638 187.64792 23.846888 187.41354Q24.128138 187.17917 24.565638 187.08542Q24.831263 187.03854 25.534388 187.03854L26.940638 187.03854Q28.409388 187.03854 28.800013 186.97604Q29.190638 186.89792 29.550013 186.6948L29.550013 187.80417Q29.221888 187.96042 28.784388 188.0073ZM26.425013 188.10104Q26.659388 188.67917 26.831263 189.8198Q26.925013 190.47604 27.050013 190.74167Q27.159388 191.0073 27.378138 191.16354Q27.596888 191.30417 27.878138 191.30417Q28.300013 191.30417 28.581263 190.99167Q28.862513 190.66354 28.862513 190.05417Q28.862513 189.4448 28.596888 188.97604Q28.331263 188.49167 27.862513 188.27292Q27.503138 188.10104 26.815638 188.10104L26.425013 188.10104ZM28.612513 182.77292L29.534388 182.61667Q29.628138 183.0698 29.628138 183.41354Q29.628138 183.99167 29.456263 184.30417Q29.268763 184.61667 28.971888 184.7573Q28.675013 184.8823 27.721888 184.8823L24.143763 184.8823L24.143763 185.64792L23.331263 185.64792L23.331263 184.8823L21.784388 184.8823L21.159388 183.83542L23.331263 183.83542L23.331263 182.77292L24.143763 182.77292L24.143763 183.83542L27.784388 183.83542Q28.237513 183.83542 28.362513 183.78854Q28.487513 183.72604 28.565638 183.60104Q28.643763 183.47604 28.643763 183.24167Q28.643763 183.05417 28.612513 182.77292ZM22.175013 182.0698L20.956263 182.0698L20.956263 181.0073L22.175013 181.0073L22.175013 182.0698ZM29.550013 182.0698L23.331263 182.0698L23.331263 181.0073L29.550013 181.0073L29.550013 182.0698ZM26.440638 179.46042Q24.706263 179.46042 23.878138 178.5073Q23.190638 177.71042 23.190638 176.55417Q23.190638 175.27292 24.034388 174.46042Q24.862513 173.6323 26.346888 173.6323Q27.550013 173.6323 28.237513 173.99167Q28.925013 174.35104 29.315638 175.05417Q29.690638 175.74167 29.690638 176.55417Q29.690638 177.85104 28.862513 178.66354Q28.018763 179.46042 26.440638 179.46042ZM26.440638 178.3823Q27.628138 178.3823 28.221888 177.86667Q28.815638 177.33542 28.815638 176.55417Q28.815638 175.7573 28.221888 175.24167Q27.628138 174.72604 26.409388 174.72604Q25.253138 174.72604 24.659388 175.2573Q24.065638 175.77292 24.065638 176.55417Q24.065638 177.33542 24.659388 177.86667Q25.237513 178.3823 26.440638 178.3823ZM29.550013 172.0698L23.331263 172.0698L23.331263 171.1323L24.206263 171.1323Q23.190638 170.4448 23.190638 169.14792Q23.190638 168.58542 23.393763 168.11667Q23.596888 167.6323 23.925013 167.39792Q24.253138 167.16354 24.690638 167.0698Q24.987513 167.02292 25.721888 167.02292L29.550013 167.02292L29.550013 168.0698L25.768763 168.0698Q25.112513 168.0698 24.800013 168.1948Q24.487513 168.3198 24.300013 168.6323Q24.096888 168.9448 24.096888 169.36667Q24.096888 170.03854 24.534388 170.53854Q24.956263 171.02292 26.143763 171.02292L29.550013 171.02292L29.550013 172.0698ZM32.08126 160.05417Q30.971888 160.92917 29.503138 161.53854Q28.018763 162.1323 26.440638 162.1323Q25.050013 162.1323 23.768763 161.6948Q22.284388 161.16354 20.815638 160.05417L20.815638 159.30417Q22.034388 160.0073 22.550013 160.24167Q23.362513 160.60104 24.237513 160.80417Q25.331263 161.05417 26.440638 161.05417Q29.268763 161.05417 32.08126 159.30417L32.08126 160.05417ZM29.550013 158.0698L23.331263 158.0698L23.331263 157.1323L24.206263 157.1323Q23.737513 156.83542 23.471888 156.35104Q23.190638 155.86667 23.190638 155.24167Q23.190638 154.55417 23.471888 154.11667Q23.753138 153.66354 24.268763 153.49167Q23.190638 152.74167 23.190638 151.5698Q23.190638 150.6323 23.706263 150.14792Q24.206263 149.64792 25.284388 149.64792L29.550013 149.64792L29.550013 150.6948L25.628138 150.6948Q25.003138 150.6948 24.721888 150.80417Q24.440638 150.89792 24.268763 151.16354Q24.096888 151.42917 24.096888 151.80417Q24.096888 152.46042 24.534388 152.89792Q24.971888 153.3198 25.940638 153.3198L29.550013 153.3198L29.550013 154.3823L25.503138 154.3823Q24.800013 154.3823 24.456263 154.64792Q24.096888 154.89792 24.096888 155.47604Q24.096888 155.92917 24.331263 156.30417Q24.565638 156.67917 25.018763 156.85104Q25.471888 157.02292 26.315638 157.02292L29.550013 157.02292L29.550013 158.0698ZM26.440638 148.46042Q24.706263 148.46042 23.878138 147.5073Q23.190638 146.71042 23.190638 145.55417Q23.190638 144.27292 24.034388 143.46042Q24.862513 142.6323 26.346888 142.6323Q27.550013 142.6323 28.237513 142.99167Q28.925013 143.35104 29.315638 144.05417Q29.690638 144.74167 29.690638 145.55417Q29.690638 146.85104 28.862513 147.66354Q28.018763 148.46042 26.440638 148.46042ZM26.440638 147.3823Q27.628138 147.3823 28.221888 146.86667Q28.815638 146.33542 28.815638 145.55417Q28.815638 144.7573 28.221888 144.24167Q27.628138 143.72604 26.409388 143.72604Q25.253138 143.72604 24.659388 144.2573Q24.065638 144.77292 24.065638 145.55417Q24.065638 146.33542 24.659388 146.86667Q25.237513 147.3823 26.440638 147.3823ZM29.550013 141.10104L20.956263 141.10104L20.956263 140.03854L29.550013 140.03854L29.550013 141.10104ZM29.690638 138.86667L20.815638 136.3823L20.815638 135.53854L29.690638 138.02292L29.690638 138.86667ZM29.550013 134.99167L20.956263 134.99167L20.956263 133.85104L28.534388 133.85104L28.534388 129.61667L29.550013 129.61667L29.550013 134.99167ZM32.08126 127.38229L32.08126 128.1323Q29.268763 126.38229 26.440638 126.38229Q25.346888 126.38229 24.253138 126.63229Q23.378138 126.83542 22.565638 127.19479Q22.050013 127.42917 20.815638 128.1323L20.815638 127.38229Q22.284388 126.28854 23.768763 125.75729Q25.050013 125.30417 26.440638 125.30417Q28.018763 125.30417 29.503138 125.91354Q30.971888 126.52292 32.08126 127.38229Z"/><path fill="#000" fill-rule="nonzero" d="M65.05 300.21564Q65.05 298.6844 65.3625 297.7625Q65.675 296.825 66.28438 296.325Q66.90938 295.825 67.84688 295.825Q68.53438 295.825 69.05 296.10626Q69.58125 296.3875 69.925 296.91876Q70.26875 297.4344 70.45625 298.1844Q70.64375 298.9344 70.64375 300.21564Q70.64375 301.73126 70.33125 302.65314Q70.03438 303.575 69.40938 304.09064Q68.8 304.59064 67.84688 304.59064Q66.6125 304.59064 65.89375 303.7Q65.05 302.6375 65.05 300.21564ZM66.12813 300.21564Q66.12813 302.325 66.62813 303.02814Q67.12813 303.73126 67.84688 303.73126Q68.58125 303.73126 69.06563 303.02814Q69.56563 302.325 69.56563 300.21564Q69.56563 298.09064 69.06563 297.40314Q68.58125 296.7 67.83125 296.7Q67.1125 296.7 66.675 297.3094Q66.12813 298.09064 66.12813 300.21564Z"/><path fill="#000" fill-rule="nonzero" d="M69.01875 233.72778L67.97188 233.72778L67.97188 227.00903Q67.58125 227.36841 66.95625 227.74341Q66.34688 228.10278 65.8625 228.27466L65.8625 227.25903Q66.7375 226.83716 67.39375 226.25903Q68.06563 225.66528 68.34688 225.10278L69.01875 225.10278L69.01875 233.72778Z"/><path fill="#000" fill-rule="nonzero" d="M70.59688 161.98993L70.59688 163.00555L64.90938 163.00555Q64.90938 162.63055 65.03438 162.27118Q65.25313 161.69305 65.72188 161.13055Q66.20625 160.56805 67.1125 159.83368Q68.51875 158.67743 69.00313 158.00555Q69.50313 157.33368 69.50313 156.73993Q69.50313 156.11493 69.05 155.69305Q68.59688 155.25555 67.87813 155.25555Q67.1125 155.25555 66.65938 155.70868Q66.20625 156.1618 66.19063 156.9743L65.1125 156.86493Q65.22188 155.64618 65.94063 155.02118Q66.675 154.38055 67.90938 154.38055Q69.14375 154.38055 69.8625 155.06805Q70.58125 155.75555 70.58125 156.77118Q70.58125 157.2868 70.3625 157.7868Q70.15938 158.27118 69.65938 158.83368Q69.175 159.38055 68.05 160.33368Q67.09688 161.13055 66.81563 161.42743Q66.55 161.70868 66.37813 161.98993L70.59688 161.98993Z"/><path fill="#000" fill-rule="nonzero" d="M65.05 90.01771L66.1125 89.87708Q66.28438 90.76771 66.72188 91.17396Q67.15938 91.56458 67.78438 91.56458Q68.53438 91.56458 69.05 91.04896Q69.56563 90.53333 69.56563 89.76771Q69.56563 89.04896 69.08125 88.58021Q68.6125 88.09583 67.87813 88.09583Q67.58125 88.09583 67.12813 88.22083L67.25313 87.28333Q67.3625 87.29896 67.425 87.29896Q68.09688 87.29896 68.62813 86.95521Q69.175 86.59583 69.175 85.86146Q69.175 85.28333 68.78438 84.90833Q68.39375 84.51771 67.76875 84.51771Q67.15938 84.51771 66.7375 84.90833Q66.33125 85.29896 66.22188 86.06458L65.15938 85.87708Q65.34688 84.83021 66.03438 84.25208Q66.72188 83.65833 67.7375 83.65833Q68.44063 83.65833 69.03438 83.97083Q69.62813 84.26771 69.94063 84.78333Q70.25313 85.29896 70.25313 85.89271Q70.25313 86.43958 69.95625 86.90833Q69.65938 87.36146 69.08125 87.62708Q69.83125 87.79896 70.25313 88.36146Q70.675 88.90833 70.675 89.75208Q70.675 90.87708 69.84688 91.65833Q69.03438 92.43958 67.78438 92.43958Q66.65938 92.43958 65.90938 91.76771Q65.15938 91.08021 65.05 90.01771Z"/><path fill="#000" fill-rule="nonzero" d="M78.51875 317.45L77.47188 317.45L77.47188 310.73126Q77.08125 311.09064 76.45625 311.46564Q75.84688 311.825 75.3625 311.9969L75.3625 310.98126Q76.2375 310.5594 76.89375 309.98126Q77.56563 309.3875 77.84688 308.825L78.51875 308.825L78.51875 317.45Z"/><path fill="#000" fill-rule="nonzero" d="M206.07187 316.4344L206.07187 317.45L200.38437 317.45Q200.38437 317.075 200.50937 316.71564Q200.72812 316.1375 201.19687 315.575Q201.68124 315.0125 202.5875 314.27814Q203.99374 313.1219 204.47812 312.45Q204.97812 311.77814 204.97812 311.1844Q204.97812 310.5594 204.525 310.1375Q204.07187 309.7 203.35312 309.7Q202.5875 309.7 202.13437 310.15314Q201.68124 310.60626 201.66562 311.41876L200.5875 311.3094Q200.69687 310.09064 201.41562 309.46564Q202.15 308.825 203.38437 308.825Q204.61874 308.825 205.3375 309.5125Q206.05624 310.2 206.05624 311.21564Q206.05624 311.73126 205.8375 312.23126Q205.63437 312.71564 205.13437 313.27814Q204.65 313.825 203.525 314.77814Q202.57187 315.575 202.29062 315.8719Q202.025 316.15314 201.85312 316.4344L206.07187 316.4344Z"/><path fill="#000" fill-rule="nonzero" d="M326.5 315.1844L327.5625 315.04376Q327.73438 315.9344 328.17188 316.34064Q328.60938 316.73126 329.23438 316.73126Q329.98438 316.73126 330.5 316.21564Q331.01562 315.7 331.01562 314.9344Q331.01562 314.21564 330.53125 313.7469Q330.0625 313.2625 329.32812 313.2625Q329.03125 313.2625 328.57812 313.3875L328.70312 312.45Q328.8125 312.46564 328.875 312.46564Q329.54688 312.46564 330.07812 312.1219Q330.625 311.7625 330.625 311.02814Q330.625 310.45 330.23438 310.075Q329.84375 309.6844 329.21875 309.6844Q328.60938 309.6844 328.1875 310.075Q327.78125 310.46564 327.67188 311.23126L326.60938 311.04376Q326.79688 309.9969 327.48438 309.41876Q328.17188 308.825 329.1875 308.825Q329.89062 308.825 330.48438 309.1375Q331.07812 309.4344 331.39062 309.95Q331.70312 310.46564 331.70312 311.0594Q331.70312 311.60626 331.40625 312.075Q331.10938 312.52814 330.53125 312.79376Q331.28125 312.96564 331.70312 313.52814Q332.125 314.075 332.125 314.91876Q332.125 316.04376 331.29688 316.825Q330.48438 317.60626 329.23438 317.60626Q328.10938 317.60626 327.35938 316.9344Q326.60938 316.2469 326.5 315.1844Z"/><path fill="#000" fill-rule="nonzero" d="M455.85 317.45L455.85 315.3875L452.13126 315.3875L452.13126 314.41876L456.05313 308.85626L456.9125 308.85626L456.9125 314.41876L458.06876 314.41876L458.06876 315.3875L456.9125 315.3875L456.9125 317.45L455.85 317.45ZM455.85 314.41876L455.85 310.5594L453.1625 314.41876L455.85 314.41876Z"/><path fill="#000" fill-rule="nonzero" d="M578.45 315.2L579.5594 315.10626Q579.6844 315.91876 580.1219 316.325Q580.575 316.73126 581.21564 316.73126Q581.96564 316.73126 582.4969 316.15314Q583.02814 315.575 583.02814 314.6375Q583.02814 313.73126 582.5125 313.21564Q582.0125 312.6844 581.1844 312.6844Q580.6844 312.6844 580.2625 312.91876Q579.85626 313.15314 579.6219 313.5125L578.6375 313.3875L579.46564 308.98126L583.7469 308.98126L583.7469 309.98126L580.3094 309.98126L579.85626 312.29376Q580.6219 311.7469 581.46564 311.7469Q582.59064 311.7469 583.35626 312.52814Q584.1375 313.3094 584.1375 314.54376Q584.1375 315.7 583.46564 316.5594Q582.6375 317.59064 581.21564 317.59064Q580.04376 317.59064 579.29376 316.9344Q578.5594 316.27814 578.45 315.2Z"/><path fill-rule="nonzero" stroke="#4285f4" stroke-linecap="butt" stroke-width="4" d="M173.5 61.916668L185.5 61.916668"/><path fill="#1a1a1a" fill-rule="nonzero" d="M194.46875 65.916664L194.46875 57.322914L195.59375 57.322914L195.59375 60.854164L200.0625 60.854164L200.0625 57.322914L201.20312 57.322914L201.20312 65.916664L200.0625 65.916664L200.0625 61.86979L195.59375 61.86979L195.59375 65.916664L194.46875 65.916664ZM203.625 65.916664L203.625 57.322914L204.75 57.322914L204.75 65.916664L203.625 65.916664ZM211.3125 68.447914Q210.4375 67.33854 209.82812 65.86979Q209.23438 64.385414 209.23438 62.80729Q209.23438 61.416664 209.67188 60.135414Q210.20312 58.65104 211.3125 57.18229L212.0625 57.18229Q211.35938 58.40104 211.125 58.916664Q210.76562 59.729164 210.5625 60.604164Q210.3125 61.697914 210.3125 62.80729Q210.3125 65.635414 212.0625 68.447914L211.3125 68.447914ZM213.29688 65.916664L213.29688 59.697914L214.23438 59.697914L214.23438 60.572914Q214.53125 60.104164 215.01562 59.83854Q215.5 59.55729 216.125 59.55729Q216.8125 59.55729 217.25 59.83854Q217.70312 60.11979 217.875 60.635414Q218.625 59.55729 219.79688 59.55729Q220.73438 59.55729 221.21875 60.072914Q221.71875 60.572914 221.71875 61.65104L221.71875 65.916664L220.67188 65.916664L220.67188 61.99479Q220.67188 61.36979 220.5625 61.08854Q220.46875 60.80729 220.20312 60.635414Q219.9375 60.46354 219.5625 60.46354Q218.90625 60.46354 218.46875 60.90104Q218.04688 61.33854 218.04688 62.30729L218.04688 65.916664L216.98438 65.916664L216.98438 61.86979Q216.98438 61.166664 216.71875 60.822914Q216.46875 60.46354 215.89062 60.46354Q215.4375 60.46354 215.0625 60.697914Q214.6875 60.93229 214.51562 61.385414Q214.34375 61.83854 214.34375 62.68229L214.34375 65.916664L213.29688 65.916664ZM222.90625 62.80729Q222.90625 61.072914 223.85938 60.24479Q224.65625 59.55729 225.8125 59.55729Q227.09375 59.55729 227.90625 60.40104Q228.73438 61.229164 228.73438 62.71354Q228.73438 63.916664 228.375 64.604164Q228.01562 65.291664 227.3125 65.68229Q226.625 66.05729 225.8125 66.05729Q224.51562 66.05729 223.70312 65.229164Q222.90625 64.385414 222.90625 62.80729ZM223.98438 62.80729Q223.98438 63.99479 224.5 64.58854Q225.03125 65.18229 225.8125 65.18229Q226.60938 65.18229 227.125 64.58854Q227.64062 63.99479 227.64062 62.77604Q227.64062 61.61979 227.10938 61.02604Q226.59375 60.43229 225.8125 60.43229Q225.03125 60.43229 224.5 61.02604Q223.98438 61.604164 223.98438 62.80729ZM230.26562 65.916664L230.26562 57.322914L231.32812 57.322914L231.32812 65.916664L230.26562 65.916664ZM232.5 66.05729L234.98438 57.18229L235.82812 57.18229L233.34375 66.05729L232.5 66.05729ZM236.375 65.916664L236.375 57.322914L237.51562 57.322914L237.51562 64.90104L241.75 64.90104L241.75 65.916664L236.375 65.916664ZM243.98438 68.447914L243.23438 68.447914Q244.98438 65.635414 244.98438 62.80729Q244.98438 61.71354 244.73438 60.61979Q244.53125 59.74479 244.17188 58.93229Q243.9375 58.416664 243.23438 57.18229L243.98438 57.18229Q245.07812 58.65104 245.60938 60.135414Q246.0625 61.416664 246.0625 62.80729Q246.0625 64.385414 245.45312 65.86979Q244.84375 67.33854 243.98438 68.447914Z"/><path fill-rule="nonzero" stroke="#ea4335" stroke-linecap="butt" stroke-width="4" d="M262.5 61.916668L274.5 61.916668"/><path fill="#1a1a1a" fill-rule="nonzero" d="M283.46875 65.916664L283.46875 57.322914L284.59375 57.322914L284.59375 60.854164L289.0625 60.854164L289.0625 57.322914L290.20312 57.322914L290.20312 65.916664L289.0625 65.916664L289.0625 61.86979L284.59375 61.86979L284.59375 65.916664L283.46875 65.916664ZM297.54688 64.90104L297.54688 65.916664L291.85938 65.916664Q291.85938 65.541664 291.98438 65.18229Q292.20312 64.604164 292.67188 64.041664Q293.15625 63.479164 294.0625 62.74479Q295.46875 61.58854 295.95312 60.916664Q296.45312 60.24479 296.45312 59.65104Q296.45312 59.02604 296.0 58.604164Q295.54688 58.166664 294.82812 58.166664Q294.0625 58.166664 293.60938 58.61979Q293.15625 59.072914 293.14062 59.885414L292.0625 59.77604Q292.17188 58.55729 292.89062 57.93229Q293.625 57.291664 294.85938 57.291664Q296.09375 57.291664 296.8125 57.979164Q297.53125 58.666664 297.53125 59.68229Q297.53125 60.197914 297.3125 60.697914Q297.10938 61.18229 296.60938 61.74479Q296.125 62.291664 295.0 63.24479Q294.04688 64.041664 293.76562 64.33854Q293.5 64.61979 293.32812 64.90104L297.54688 64.90104ZM304.3125 68.447914Q303.4375 67.33854 302.82812 65.86979Q302.23438 64.385414 302.23438 62.80729Q302.23438 61.416664 302.67188 60.135414Q303.20312 58.65104 304.3125 57.18229L305.0625 57.18229Q304.35938 58.40104 304.125 58.916664Q303.76562 59.729164 303.5625 60.604164Q303.3125 61.697914 303.3125 62.80729Q303.3125 65.635414 305.0625 68.447914L304.3125 68.447914ZM306.29688 65.916664L306.29688 59.697914L307.23438 59.697914L307.23438 60.572914Q307.53125 60.104164 308.01562 59.83854Q308.5 59.55729 309.125 59.55729Q309.8125 59.55729 310.25 59.83854Q310.70312 60.11979 310.875 60.635414Q311.625 59.55729 312.79688 59.55729Q313.73438 59.55729 314.21875 60.072914Q314.71875 60.572914 314.71875 61.65104L314.71875 65.916664L313.67188 65.916664L313.67188 61.99479Q313.67188 61.36979 313.5625 61.08854Q313.46875 60.80729 313.20312 60.635414Q312.9375 60.46354 312.5625 60.46354Q311.90625 60.46354 311.46875 60.90104Q311.04688 61.33854 311.04688 62.30729L311.04688 65.916664L309.98438 65.916664L309.98438 61.86979Q309.98438 61.166664 309.71875 60.822914Q309.46875 60.46354 308.89062 60.46354Q308.4375 60.46354 308.0625 60.697914Q307.6875 60.93229 307.51562 61.385414Q307.34375 61.83854 307.34375 62.68229L307.34375 65.916664L306.29688 65.916664ZM315.90625 62.80729Q315.90625 61.072914 316.85938 60.24479Q317.65625 59.55729 318.8125 59.55729Q320.09375 59.55729 320.90625 60.40104Q321.73438 61.229164 321.73438 62.71354Q321.73438 63.916664 321.375 64.604164Q321.01562 65.291664 320.3125 65.68229Q319.625 66.05729 318.8125 66.05729Q317.51562 66.05729 316.70312 65.229164Q315.90625 64.385414 315.90625 62.80729ZM316.98438 62.80729Q316.98438 63.99479 317.5 64.58854Q318.03125 65.18229 318.8125 65.18229Q319.60938 65.18229 320.125 64.58854Q320.64062 63.99479 320.64062 62.77604Q320.64062 61.61979 320.10938 61.02604Q319.59375 60.43229 318.8125 60.43229Q318.03125 60.43229 317.5 61.02604Q316.98438 61.604164 316.98438 62.80729ZM323.26562 65.916664L323.26562 57.322914L324.32812 57.322914L324.32812 65.916664L323.26562 65.916664ZM325.5 66.05729L327.98438 57.18229L328.82812 57.18229L326.34375 66.05729L325.5 66.05729ZM329.375 65.916664L329.375 57.322914L330.51562 57.322914L330.51562 64.90104L334.75 64.90104L334.75 65.916664L329.375 65.916664ZM336.98438 68.447914L336.23438 68.447914Q337.98438 65.635414 337.98438 62.80729Q337.98438 61.71354 337.73438 60.61979Q337.53125 59.74479 337.17188 58.93229Q336.9375 58.416664 336.23438 57.18229L336.98438 57.18229Q338.07812 58.65104 338.60938 60.135414Q339.0625 61.416664 339.0625 62.80729Q339.0625 64.385414 338.45312 65.86979Q337.84375 67.33854 336.98438 68.447914Z"/><path fill-rule="nonzero" stroke="#fbbc04" stroke-linecap="butt" stroke-width="4" d="M355.5 61.916668L367.5 61.916668"/><path fill="#1a1a1a" fill-rule="nonzero" d="M376.625 65.916664L376.625 57.322914L377.75 57.322914L377.75 65.916664L376.625 65.916664ZM384.54688 64.90104L384.54688 65.916664L378.85938 65.916664Q378.85938 65.541664 378.98438 65.18229Q379.20312 64.604164 379.67188 64.041664Q380.15625 63.479164 381.0625 62.74479Q382.46875 61.58854 382.95312 60.916664Q383.45312 60.24479 383.45312 59.65104Q383.45312 59.02604 383.0 58.604164Q382.54688 58.166664 381.82812 58.166664Q381.0625 58.166664 380.60938 58.61979Q380.15625 59.072914 380.14062 59.885414L379.0625 59.77604Q379.17188 58.55729 379.89062 57.93229Q380.625 57.291664 381.85938 57.291664Q383.09375 57.291664 383.8125 57.979164Q384.53125 58.666664 384.53125 59.68229Q384.53125 60.197914 384.3125 60.697914Q384.10938 61.18229 383.60938 61.74479Q383.125 62.291664 382.0 63.24479Q381.04688 64.041664 380.76562 64.33854Q380.5 64.61979 380.32812 64.90104L384.54688 64.90104ZM391.3125 68.447914Q390.4375 67.33854 389.82812 65.86979Q389.23438 64.385414 389.23438 62.80729Q389.23438 61.416664 389.67188 60.135414Q390.20312 58.65104 391.3125 57.18229L392.0625 57.18229Q391.35938 58.40104 391.125 58.916664Q390.76562 59.729164 390.5625 60.604164Q390.3125 61.697914 390.3125 62.80729Q390.3125 65.635414 392.0625 68.447914L391.3125 68.447914ZM393.29688 65.916664L393.29688 59.697914L394.23438 59.697914L394.23438 60.572914Q394.53125 60.104164 395.01562 59.83854Q395.5 59.55729 396.125 59.55729Q396.8125 59.55729 397.25 59.83854Q397.70312 60.11979 397.875 60.635414Q398.625 59.55729 399.79688 59.55729Q400.73438 59.55729 401.21875 60.072914Q401.71875 60.572914 401.71875 61.65104L401.71875 65.916664L400.67188 65.916664L400.67188 61.99479Q400.67188 61.36979 400.5625 61.08854Q400.46875 60.80729 400.20312 60.635414Q399.9375 60.46354 399.5625 60.46354Q398.90625 60.46354 398.46875 60.90104Q398.04688 61.33854 398.04688 62.30729L398.04688 65.916664L396.98438 65.916664L396.98438 61.86979Q396.98438 61.166664 396.71875 60.822914Q396.46875 60.46354 395.89062 60.46354Q395.4375 60.46354 395.0625 60.697914Q394.6875 60.93229 394.51562 61.385414Q394.34375 61.83854 394.34375 62.68229L394.34375 65.916664L393.29688 65.916664ZM402.90625 62.80729Q402.90625 61.072914 403.85938 60.24479Q404.65625 59.55729 405.8125 59.55729Q407.09375 59.55729 407.90625 60.40104Q408.73438 61.229164 408.73438 62.71354Q408.73438 63.916664 408.375 64.604164Q408.01562 65.291664 407.3125 65.68229Q406.625 66.05729 405.8125 66.05729Q404.51562 66.05729 403.70312 65.229164Q402.90625 64.385414 402.90625 62.80729ZM403.98438 62.80729Q403.98438 63.99479 404.5 64.58854Q405.03125 65.18229 405.8125 65.18229Q406.60938 65.18229 407.125 64.58854Q407.64062 63.99479 407.64062 62.77604Q407.64062 61.61979 407.10938 61.02604Q406.59375 60.43229 405.8125 60.43229Q405.03125 60.43229 404.5 61.02604Q403.98438 61.604164 403.98438 62.80729ZM410.26562 65.916664L410.26562 57.322914L411.32812 57.322914L411.32812 65.916664L410.26562 65.916664ZM412.5 66.05729L414.98438 57.18229L415.82812 57.18229L413.34375 66.05729L412.5 66.05729ZM416.375 65.916664L416.375 57.322914L417.51562 57.322914L417.51562 64.90104L421.75 64.90104L421.75 65.916664L416.375 65.916664ZM423.98438 68.447914L423.23438 68.447914Q424.98438 65.635414 424.98438 62.80729Q424.98438 61.71354 424.73438 60.61979Q424.53125 59.74479 424.17188 58.93229Q423.9375 58.416664 423.23438 57.18229L423.98438 57.18229Q425.07812 58.65104 425.60938 60.135414Q426.0625 61.416664 426.0625 62.80729Q426.0625 64.385414 425.45312 65.86979Q424.84375 67.33854 423.98438 68.447914Z"/><path fill="#757575" fill-rule="nonzero" d="M20.128124 37.55L20.128124 23.2375L30.4875 23.2375L30.4875 24.925L22.034374 24.925L22.034374 29.3L29.940624 29.3L29.940624 30.9875L22.034374 30.9875L22.034374 35.8625L30.815624 35.8625L30.815624 37.55L20.128124 37.55ZM39.4875 41.51875L39.4875 36.440624Q39.065624 37.01875 38.33125 37.409374Q37.596874 37.784374 36.76875 37.784374Q34.925 37.784374 33.58125 36.315624Q32.253124 34.83125 32.253124 32.26875Q32.253124 30.70625 32.784374 29.471874Q33.33125 28.221874 34.3625 27.58125Q35.39375 26.940624 36.628124 26.940624Q38.55 26.940624 39.659374 28.565624L39.659374 27.175L41.2375 27.175L41.2375 41.51875L39.4875 41.51875ZM34.065624 32.33125Q34.065624 34.33125 34.89375 35.33125Q35.7375 36.33125 36.909374 36.33125Q38.034374 36.33125 38.846874 35.39375Q39.659374 34.440624 39.659374 32.4875Q39.659374 30.425 38.8 29.378124Q37.940624 28.33125 36.8 28.33125Q35.659374 28.33125 34.8625 29.3Q34.065624 30.26875 34.065624 32.33125ZM50.659374 37.55L50.659374 36.01875Q49.45625 37.784374 47.378124 37.784374Q46.45625 37.784374 45.659374 37.440624Q44.8625 37.08125 44.471874 36.55Q44.096874 36.01875 43.940624 35.2375Q43.83125 34.721874 43.83125 33.596874L43.83125 27.175L45.58125 27.175L45.58125 32.925Q45.58125 34.3 45.690624 34.784374Q45.8625 35.471874 46.39375 35.878124Q46.940624 36.26875 47.721874 36.26875Q48.51875 36.26875 49.20625 35.8625Q49.909374 35.45625 50.190624 34.76875Q50.4875 34.065624 50.4875 32.7375L50.4875 27.175L52.2375 27.175L52.2375 37.55L50.659374 37.55ZM54.878124 25.253124L54.878124 23.2375L56.64375 23.2375L56.64375 25.253124L54.878124 25.253124ZM54.878124 37.55L54.878124 27.175L56.64375 27.175L56.64375 37.55L54.878124 37.55ZM58.83125 37.55L58.83125 23.2375L60.58125 23.2375L60.58125 37.55L58.83125 37.55ZM62.878124 25.253124L62.878124 23.2375L64.64375 23.2375L64.64375 25.253124L62.878124 25.253124ZM62.878124 37.55L62.878124 27.175L64.64375 27.175L64.64375 37.55L62.878124 37.55ZM68.4875 37.55L66.8625 37.55L66.8625 23.2375L68.6125 23.2375L68.6125 28.346874Q69.7375 26.940624 71.45625 26.940624Q72.40938 26.940624 73.26875 27.33125Q74.12813 27.721874 74.675 28.425Q75.22188 29.1125 75.53438 30.096874Q75.84688 31.08125 75.84688 32.20625Q75.84688 34.878124 74.53438 36.33125Q73.22188 37.784374 71.37813 37.784374Q69.53438 37.784374 68.4875 36.253124L68.4875 37.55ZM68.47188 32.284374Q68.47188 34.14375 68.97188 34.9875Q69.81563 36.33125 71.22188 36.33125Q72.37813 36.33125 73.20625 35.33125Q74.05 34.33125 74.05 32.346874Q74.05 30.315624 73.2375 29.3625Q72.44063 28.39375 71.3 28.39375Q70.14375 28.39375 69.3 29.39375Q68.47188 30.39375 68.47188 32.284374ZM77.84688 37.55L77.84688 27.175L79.425 27.175L79.425 28.753124Q80.03438 27.64375 80.55 27.3Q81.06563 26.940624 81.675 26.940624Q82.56563 26.940624 83.4875 27.503124L82.87813 29.14375Q82.2375 28.753124 81.59688 28.753124Q81.01875 28.753124 80.55 29.1125Q80.09688 29.45625 79.89375 30.065624Q79.6125 31.003124 79.6125 32.1125L79.6125 37.55L77.84688 37.55ZM84.87813 25.253124L84.87813 23.2375L86.64375 23.2375L86.64375 25.253124L84.87813 25.253124ZM84.87813 37.55L84.87813 27.175L86.64375 27.175L86.64375 37.55L84.87813 37.55ZM95.65938 37.55L95.65938 36.01875Q94.45625 37.784374 92.37813 37.784374Q91.45625 37.784374 90.65938 37.440624Q89.8625 37.08125 89.47188 36.55Q89.09688 36.01875 88.94063 35.2375Q88.83125 34.721874 88.83125 33.596874L88.83125 27.175L90.58125 27.175L90.58125 32.925Q90.58125 34.3 90.69063 34.784374Q90.8625 35.471874 91.39375 35.878124Q91.94063 36.26875 92.72188 36.26875Q93.51875 36.26875 94.20625 35.8625Q94.90938 35.45625 95.19063 34.76875Q95.4875 34.065624 95.4875 32.7375L95.4875 27.175L97.2375 27.175L97.2375 37.55L95.65938 37.55ZM99.8625 37.55L99.8625 27.175L101.44063 27.175L101.44063 28.628124Q101.925 27.878124 102.7375 27.409374Q103.55 26.940624 104.58125 26.940624Q105.7375 26.940624 106.47188 27.425Q107.20625 27.89375 107.51875 28.753124Q108.75313 26.940624 110.72188 26.940624Q112.26875 26.940624 113.09688 27.8Q113.925 28.659374 113.925 30.425L113.925 37.55L112.175 37.55L112.175 31.01875Q112.175 29.95625 112.00313 29.503124Q111.83125 29.034374 111.37813 28.753124Q110.94063 28.471874 110.33125 28.471874Q109.2375 28.471874 108.50313 29.20625Q107.78438 29.925 107.78438 31.51875L107.78438 37.55L106.03438 37.55L106.03438 30.815624Q106.03438 29.64375 105.59688 29.065624Q105.175 28.471874 104.19063 28.471874Q103.45625 28.471874 102.81563 28.8625Q102.19063 29.253124 101.90938 30.003124Q101.62813 30.753124 101.62813 32.175L101.62813 37.55L99.8625 37.55ZM133.31563 32.534374L135.20625 33.003124Q134.6125 35.346874 133.06563 36.58125Q131.51875 37.8 129.26875 37.8Q126.95625 37.8 125.50313 36.8625Q124.06563 35.909374 123.3 34.128124Q122.55 32.33125 122.55 30.284374Q122.55 28.05 123.39375 26.39375Q124.25313 24.721874 125.83125 23.8625Q127.40938 22.9875 129.3 22.9875Q131.45625 22.9875 132.90938 24.08125Q134.37813 25.175 134.95625 27.159374L133.09688 27.596874Q132.59688 26.034374 131.64375 25.33125Q130.70625 24.6125 129.26875 24.6125Q127.6125 24.6125 126.50313 25.409374Q125.39375 26.190624 124.94063 27.534374Q124.50313 28.8625 124.50313 30.26875Q124.50313 32.096874 125.03438 33.471874Q125.56563 34.83125 126.69063 35.503124Q127.81563 36.175 129.1125 36.175Q130.70625 36.175 131.81563 35.253124Q132.925 34.33125 133.31563 32.534374ZM136.22188 32.3625Q136.22188 29.4875 137.81563 28.096874Q139.15938 26.940624 141.08125 26.940624Q143.22188 26.940624 144.56563 28.346874Q145.925 29.753124 145.925 32.221874Q145.925 34.221874 145.33125 35.378124Q144.7375 36.51875 143.58125 37.159374Q142.44063 37.784374 141.08125 37.784374Q138.89375 37.784374 137.55 36.39375Q136.22188 34.9875 136.22188 32.3625ZM138.01875 32.3625Q138.01875 34.3625 138.87813 35.346874Q139.75313 36.33125 141.08125 36.33125Q142.39375 36.33125 143.25313 35.346874Q144.12813 34.346874 144.12813 32.3Q144.12813 30.378124 143.25313 29.39375Q142.37813 28.39375 141.08125 28.39375Q139.75313 28.39375 138.87813 29.39375Q138.01875 30.378124 138.01875 32.3625ZM147.8625 37.55L147.8625 27.175L149.45625 27.175L149.45625 28.659374Q150.59688 26.940624 152.75313 26.940624Q153.69063 26.940624 154.47188 27.284374Q155.26875 27.6125 155.65938 28.159374Q156.05 28.70625 156.20625 29.45625Q156.3 29.95625 156.3 31.175L156.3 37.55L154.53438 37.55L154.53438 31.2375Q154.53438 30.159374 154.33125 29.628124Q154.12813 29.096874 153.59688 28.784374Q153.08125 28.471874 152.37813 28.471874Q151.25313 28.471874 150.44063 29.190624Q149.62813 29.89375 149.62813 31.878124L149.62813 37.55L147.8625 37.55ZM165.64375 33.753124L167.3625 33.971874Q167.08125 35.76875 165.90938 36.784374Q164.75313 37.784374 163.05 37.784374Q160.925 37.784374 159.62813 36.39375Q158.33125 35.003124 158.33125 32.409374Q158.33125 30.721874 158.87813 29.471874Q159.44063 28.20625 160.58125 27.58125Q161.72188 26.940624 163.06563 26.940624Q164.75313 26.940624 165.81563 27.8Q166.89375 28.659374 167.20625 30.221874L165.4875 30.4875Q165.25313 29.440624 164.62813 28.925Q164.00313 28.39375 163.12813 28.39375Q161.8 28.39375 160.97188 29.346874Q160.14375 30.3 160.14375 32.346874Q160.14375 34.440624 160.94063 35.39375Q161.7375 36.33125 163.03438 36.33125Q164.06563 36.33125 164.75313 35.70625Q165.45625 35.065624 165.64375 33.753124ZM175.97188 34.20625L177.78438 34.440624Q177.3625 36.01875 176.19063 36.909374Q175.03438 37.784374 173.22188 37.784374Q170.95625 37.784374 169.6125 36.39375Q168.28438 34.9875 168.28438 32.45625Q168.28438 29.83125 169.62813 28.39375Q170.97188 26.940624 173.12813 26.940624Q175.20625 26.940624 176.51875 28.3625Q177.84688 29.76875 177.84688 32.346874Q177.84688 32.503124 177.83125 32.815624L170.09688 32.815624Q170.19063 34.51875 171.06563 35.425Q171.94063 36.33125 173.2375 36.33125Q174.20625 36.33125 174.87813 35.83125Q175.56563 35.315624 175.97188 34.20625ZM170.19063 31.3625L175.9875 31.3625Q175.87813 30.065624 175.33125 29.409374Q174.4875 28.39375 173.14375 28.39375Q171.94063 28.39375 171.1125 29.20625Q170.28438 30.003124 170.19063 31.3625ZM179.8625 37.55L179.8625 27.175L181.45625 27.175L181.45625 28.659374Q182.59688 26.940624 184.75313 26.940624Q185.69063 26.940624 186.47188 27.284374Q187.26875 27.6125 187.65938 28.159374Q188.05 28.70625 188.20625 29.45625Q188.3 29.95625 188.3 31.175L188.3 37.55L186.53438 37.55L186.53438 31.2375Q186.53438 30.159374 186.33125 29.628124Q186.12813 29.096874 185.59688 28.784374Q185.08125 28.471874 184.37813 28.471874Q183.25313 28.471874 182.44063 29.190624Q181.62813 29.89375 181.62813 31.878124L181.62813 37.55L179.8625 37.55ZM194.70625 35.971874L194.95625 37.534374Q194.22188 37.690624 193.62813 37.690624Q192.675 37.690624 192.14375 37.39375Q191.62813 37.08125 191.40938 36.596874Q191.19063 36.096874 191.19063 34.51875L191.19063 28.55L189.90938 28.55L189.90938 27.175L191.19063 27.175L191.19063 24.6125L192.94063 23.55L192.94063 27.175L194.70625 27.175L194.70625 28.55L192.94063 28.55L192.94063 34.6125Q192.94063 35.3625 193.03438 35.58125Q193.12813 35.784374 193.33125 35.925Q193.55 36.05 193.94063 36.05Q194.22188 36.05 194.70625 35.971874ZM196.84688 37.55L196.84688 27.175L198.425 27.175L198.425 28.753124Q199.03438 27.64375 199.55 27.3Q200.06563 26.940624 200.675 26.940624Q201.56563 26.940624 202.4875 27.503124L201.87813 29.14375Q201.2375 28.753124 200.59688 28.753124Q200.01875 28.753124 199.55 29.1125Q199.09688 29.45625 198.89375 30.065624Q198.6125 31.003124 198.6125 32.1125L198.6125 37.55L196.84688 37.55ZM210.64375 36.26875Q209.65938 37.096874 208.75313 37.440624Q207.84688 37.784374 206.81563 37.784374Q205.1125 37.784374 204.19063 36.95625Q203.26875 36.1125 203.26875 34.815624Q203.26875 34.05 203.6125 33.425Q203.97188 32.8 204.53438 32.425Q205.09688 32.034374 205.8 31.83125Q206.31563 31.70625 207.3625 31.565624Q209.4875 31.315624 210.4875 30.971874Q210.50313 30.6125 210.50313 30.503124Q210.50313 29.440624 210.00313 28.9875Q209.33125 28.39375 208.00313 28.39375Q206.75313 28.39375 206.15938 28.83125Q205.58125 29.26875 205.3 30.378124L203.58125 30.14375Q203.81563 29.034374 204.34688 28.3625Q204.87813 27.675 205.89375 27.315624Q206.90938 26.940624 208.25313 26.940624Q209.58125 26.940624 210.40938 27.253124Q211.2375 27.565624 211.62813 28.05Q212.01875 28.51875 212.175 29.2375Q212.26875 29.690624 212.26875 30.8625L212.26875 33.20625Q212.26875 35.659374 212.37813 36.315624Q212.4875 36.95625 212.83125 37.55L210.9875 37.55Q210.72188 37.003124 210.64375 36.26875ZM210.4875 32.346874Q209.53438 32.7375 207.6125 33.003124Q206.53438 33.159374 206.08125 33.3625Q205.64375 33.55 205.39375 33.925Q205.14375 34.3 205.14375 34.76875Q205.14375 35.471874 205.675 35.940624Q206.20625 36.409374 207.2375 36.409374Q208.25313 36.409374 209.03438 35.971874Q209.83125 35.51875 210.20625 34.753124Q210.4875 34.14375 210.4875 32.9875L210.4875 32.346874ZM218.70625 35.971874L218.95625 37.534374Q218.22188 37.690624 217.62813 37.690624Q216.675 37.690624 216.14375 37.39375Q215.62813 37.08125 215.40938 36.596874Q215.19063 36.096874 215.19063 34.51875L215.19063 28.55L213.90938 28.55L213.90938 27.175L215.19063 27.175L215.19063 24.6125L216.94063 23.55L216.94063 27.175L218.70625 27.175L218.70625 28.55L216.94063 28.55L216.94063 34.6125Q216.94063 35.3625 217.03438 35.58125Q217.12813 35.784374 217.33125 35.925Q217.55 36.05 217.94063 36.05Q218.22188 36.05 218.70625 35.971874ZM220.87813 25.253124L220.87813 23.2375L222.64375 23.2375L222.64375 25.253124L220.87813 25.253124ZM220.87813 37.55L220.87813 27.175L222.64375 27.175L222.64375 37.55L220.87813 37.55ZM224.22188 32.3625Q224.22188 29.4875 225.81563 28.096874Q227.15938 26.940624 229.08125 26.940624Q231.22188 26.940624 232.56563 28.346874Q233.925 29.753124 233.925 32.221874Q233.925 34.221874 233.33125 35.378124Q232.7375 36.51875 231.58125 37.159374Q230.44063 37.784374 229.08125 37.784374Q226.89375 37.784374 225.55 36.39375Q224.22188 34.9875 224.22188 32.3625ZM226.01875 32.3625Q226.01875 34.3625 226.87813 35.346874Q227.75313 36.33125 229.08125 36.33125Q230.39375 36.33125 231.25313 35.346874Q232.12813 34.346874 232.12813 32.3Q232.12813 30.378124 231.25313 29.39375Q230.37813 28.39375 229.08125 28.39375Q227.75313 28.39375 226.87813 29.39375Q226.01875 30.378124 226.01875 32.3625ZM235.8625 37.55L235.8625 27.175L237.45625 27.175L237.45625 28.659374Q238.59688 26.940624 240.75313 26.940624Q241.69063 26.940624 242.47188 27.284374Q243.26875 27.6125 243.65938 28.159374Q244.05 28.70625 244.20625 29.45625Q244.3 29.95625 244.3 31.175L244.3 37.55L242.53438 37.55L242.53438 31.2375Q242.53438 30.159374 242.33125 29.628124Q242.12813 29.096874 241.59688 28.784374Q241.08125 28.471874 240.37813 28.471874Q239.25313 28.471874 238.44063 29.190624Q237.62813 29.89375 237.62813 31.878124L237.62813 37.55L235.8625 37.55ZM246.15938 34.45625L247.90938 34.175Q248.05 35.221874 248.72188 35.784374Q249.39375 36.33125 250.59688 36.33125Q251.8 36.33125 252.37813 35.846874Q252.97188 35.346874 252.97188 34.690624Q252.97188 34.096874 252.45625 33.753124Q252.09688 33.51875 250.65938 33.159374Q248.72188 32.659374 247.97188 32.315624Q247.2375 31.95625 246.84688 31.33125Q246.45625 30.690624 246.45625 29.925Q246.45625 29.2375 246.76875 28.64375Q247.09688 28.05 247.64375 27.659374Q248.05 27.3625 248.75313 27.159374Q249.47188 26.940624 250.28438 26.940624Q251.50313 26.940624 252.425 27.3Q253.34688 27.64375 253.78438 28.253124Q254.22188 28.846874 254.39375 29.846874L252.675 30.08125Q252.55 29.284374 251.9875 28.846874Q251.425 28.39375 250.40938 28.39375Q249.19063 28.39375 248.675 28.8Q248.15938 29.190624 248.15938 29.721874Q248.15938 30.065624 248.37813 30.346874Q248.58125 30.628124 249.05 30.815624Q249.31563 30.909374 250.59688 31.253124Q252.47188 31.753124 253.20625 32.08125Q253.94063 32.39375 254.3625 33.003124Q254.78438 33.596874 254.78438 34.503124Q254.78438 35.378124 254.26875 36.159374Q253.75313 36.940624 252.78438 37.3625Q251.81563 37.784374 250.59688 37.784374Q248.58125 37.784374 247.51875 36.940624Q246.45625 36.096874 246.15938 34.45625ZM269.64374 36.26875Q268.65936 37.096874 267.7531 37.440624Q266.84686 37.784374 265.8156 37.784374Q264.1125 37.784374 263.1906 36.95625Q262.26874 36.1125 262.26874 34.815624Q262.26874 34.05 262.6125 33.425Q262.97186 32.8 263.53436 32.425Q264.09686 32.034374 264.8 31.83125Q265.3156 31.70625 266.3625 31.565624Q268.4875 31.315624 269.4875 30.971874Q269.5031 30.6125 269.5031 30.503124Q269.5031 29.440624 269.0031 28.9875Q268.33124 28.39375 267.0031 28.39375Q265.7531 28.39375 265.15936 28.83125Q264.58124 29.26875 264.3 30.378124L262.58124 30.14375Q262.8156 29.034374 263.34686 28.3625Q263.8781 27.675 264.89374 27.315624Q265.90936 26.940624 267.2531 26.940624Q268.58124 26.940624 269.40936 27.253124Q270.2375 27.565624 270.6281 28.05Q271.01874 28.51875 271.175 29.2375Q271.26874 29.690624 271.26874 30.8625L271.26874 33.20625Q271.26874 35.659374 271.3781 36.315624Q271.4875 36.95625 271.83124 37.55L269.9875 37.55Q269.72186 37.003124 269.64374 36.26875ZM269.4875 32.346874Q268.53436 32.7375 266.6125 33.003124Q265.53436 33.159374 265.08124 33.3625Q264.64374 33.55 264.39374 33.925Q264.14374 34.3 264.14374 34.76875Q264.14374 35.471874 264.675 35.940624Q265.20624 36.409374 266.2375 36.409374Q267.2531 36.409374 268.03436 35.971874Q268.83124 35.51875 269.20624 34.753124Q269.4875 34.14375 269.4875 32.9875L269.4875 32.346874ZM277.70624 35.971874L277.95624 37.534374Q277.22186 37.690624 276.6281 37.690624Q275.675 37.690624 275.14374 37.39375Q274.6281 37.08125 274.40936 36.596874Q274.1906 36.096874 274.1906 34.51875L274.1906 28.55L272.90936 28.55L272.90936 27.175L274.1906 27.175L274.1906 24.6125L275.9406 23.55L275.9406 27.175L277.70624 27.175L277.70624 28.55L275.9406 28.55L275.9406 34.6125Q275.9406 35.3625 276.03436 35.58125Q276.1281 35.784374 276.33124 35.925Q276.55 36.05 276.9406 36.05Q277.22186 36.05 277.70624 35.971874ZM286.09686 37.55L286.09686 23.2375L291.01874 23.2375Q292.6906 23.2375 293.58124 23.440624Q294.8 23.721874 295.675 24.45625Q296.8 25.425 297.3625 26.909374Q297.925 28.39375 297.925 30.315624Q297.925 31.940624 297.55 33.20625Q297.175 34.45625 296.5656 35.284374Q295.97186 36.1125 295.26874 36.596874Q294.5656 37.065624 293.5656 37.315624Q292.5656 37.55 291.2531 37.55L286.09686 37.55ZM287.9875 35.8625L291.05 35.8625Q292.45624 35.8625 293.2531 35.596874Q294.0656 35.33125 294.55 34.846874Q295.22186 34.175 295.59686 33.05Q295.97186 31.909374 295.97186 30.284374Q295.97186 28.034374 295.2375 26.83125Q294.5031 25.628124 293.4406 25.221874Q292.6906 24.925 291.0031 24.925L287.9875 24.925L287.9875 35.8625ZM299.8781 25.253124L299.8781 23.2375L301.64374 23.2375L301.64374 25.253124L299.8781 25.253124ZM299.8781 37.55L299.8781 27.175L301.64374 27.175L301.64374 37.55L299.8781 37.55ZM304.28436 37.55L304.28436 28.55L302.7375 28.55L302.7375 27.175L304.28436 27.175L304.28436 26.08125Q304.28436 25.034374 304.47186 24.51875Q304.72186 23.83125 305.3625 23.409374Q306.0031 22.9875 307.15936 22.9875Q307.90936 22.9875 308.8 23.159374L308.53436 24.690624Q307.9875 24.596874 307.5031 24.596874Q306.70624 24.596874 306.3625 24.940624Q306.03436 25.284374 306.03436 26.221874L306.03436 27.175L308.0656 27.175L308.0656 28.55L306.03436 28.55L306.03436 37.55L304.28436 37.55ZM310.28436 37.55L310.28436 28.55L308.7375 28.55L308.7375 27.175L310.28436 27.175L310.28436 26.08125Q310.28436 25.034374 310.47186 24.51875Q310.72186 23.83125 311.3625 23.409374Q312.0031 22.9875 313.15936 22.9875Q313.90936 22.9875 314.8 23.159374L314.53436 24.690624Q313.9875 24.596874 313.5031 24.596874Q312.70624 24.596874 312.3625 24.940624Q312.03436 25.284374 312.03436 26.221874L312.03436 27.175L314.0656 27.175L314.0656 28.55L312.03436 28.55L312.03436 37.55L310.28436 37.55ZM322.97186 34.20625L324.78436 34.440624Q324.3625 36.01875 323.1906 36.909374Q322.03436 37.784374 320.22186 37.784374Q317.95624 37.784374 316.6125 36.39375Q315.28436 34.9875 315.28436 32.45625Q315.28436 29.83125 316.6281 28.39375Q317.97186 26.940624 320.1281 26.940624Q322.20624 26.940624 323.51874 28.3625Q324.84686 29.76875 324.84686 32.346874Q324.84686 32.503124 324.83124 32.815624L317.09686 32.815624Q317.1906 34.51875 318.0656 35.425Q318.9406 36.33125 320.2375 36.33125Q321.20624 36.33125 321.8781 35.83125Q322.5656 35.315624 322.97186 34.20625ZM317.1906 31.3625L322.9875 31.3625Q322.8781 30.065624 322.33124 29.409374Q321.4875 28.39375 320.14374 28.39375Q318.9406 28.39375 318.1125 29.20625Q317.28436 30.003124 317.1906 31.3625ZM326.84686 37.55L326.84686 27.175L328.425 27.175L328.425 28.753124Q329.03436 27.64375 329.55 27.3Q330.0656 26.940624 330.675 26.940624Q331.5656 26.940624 332.4875 27.503124L331.8781 29.14375Q331.2375 28.753124 330.59686 28.753124Q330.01874 28.753124 329.55 29.1125Q329.09686 29.45625 328.89374 30.065624Q328.6125 31.003124 328.6125 32.1125L328.6125 37.55L326.84686 37.55ZM340.97186 34.20625L342.78436 34.440624Q342.3625 36.01875 341.1906 36.909374Q340.03436 37.784374 338.22186 37.784374Q335.95624 37.784374 334.6125 36.39375Q333.28436 34.9875 333.28436 32.45625Q333.28436 29.83125 334.6281 28.39375Q335.97186 26.940624 338.1281 26.940624Q340.20624 26.940624 341.51874 28.3625Q342.84686 29.76875 342.84686 32.346874Q342.84686 32.503124 342.83124 32.815624L335.09686 32.815624Q335.1906 34.51875 336.0656 35.425Q336.9406 36.33125 338.2375 36.33125Q339.20624 36.33125 339.8781 35.83125Q340.5656 35.315624 340.97186 34.20625ZM335.1906 31.3625L340.9875 31.3625Q340.8781 30.065624 340.33124 29.409374Q339.4875 28.39375 338.14374 28.39375Q336.9406 28.39375 336.1125 29.20625Q335.28436 30.003124 335.1906 31.3625ZM344.8625 37.55L344.8625 27.175L346.45624 27.175L346.45624 28.659374Q347.59686 26.940624 349.7531 26.940624Q350.6906 26.940624 351.47186 27.284374Q352.26874 27.6125 352.65936 28.159374Q353.05 28.70625 353.20624 29.45625Q353.3 29.95625 353.3 31.175L353.3 37.55L351.53436 37.55L351.53436 31.2375Q351.53436 30.159374 351.33124 29.628124Q351.1281 29.096874 350.59686 28.784374Q350.08124 28.471874 349.3781 28.471874Q348.2531 28.471874 347.4406 29.190624Q346.6281 29.89375 346.6281 31.878124L346.6281 37.55L344.8625 37.55ZM359.70624 35.971874L359.95624 37.534374Q359.22186 37.690624 358.6281 37.690624Q357.675 37.690624 357.14374 37.39375Q356.6281 37.08125 356.40936 36.596874Q356.1906 36.096874 356.1906 34.51875L356.1906 28.55L354.90936 28.55L354.90936 27.175L356.1906 27.175L356.1906 24.6125L357.9406 23.55L357.9406 27.175L359.70624 27.175L359.70624 28.55L357.9406 28.55L357.9406 34.6125Q357.9406 35.3625 358.03436 35.58125Q358.1281 35.784374 358.33124 35.925Q358.55 36.05 358.9406 36.05Q359.22186 36.05 359.70624 35.971874ZM368.09686 37.55L368.09686 23.2375L373.4875 23.2375Q374.925 23.2375 375.675 23.3625Q376.72186 23.55 377.4406 24.05Q378.15936 24.534374 378.58124 25.425Q379.01874 26.315624 379.01874 27.378124Q379.01874 29.20625 377.84686 30.471874Q376.6906 31.721874 373.65936 31.721874L369.9875 31.721874L369.9875 37.55L368.09686 37.55ZM369.9875 30.034374L373.6906 30.034374Q375.51874 30.034374 376.28436 29.3625Q377.0656 28.675 377.0656 27.425Q377.0656 26.534374 376.6125 25.89375Q376.15936 25.253124 375.425 25.05Q374.9406 24.925 373.64374 24.925L369.9875 24.925L369.9875 30.034374ZM380.84686 37.55L380.84686 27.175L382.425 27.175L382.425 28.753124Q383.03436 27.64375 383.55 27.3Q384.0656 26.940624 384.675 26.940624Q385.5656 26.940624 386.4875 27.503124L385.8781 29.14375Q385.2375 28.753124 384.59686 28.753124Q384.01874 28.753124 383.55 29.1125Q383.09686 29.45625 382.89374 30.065624Q382.6125 31.003124 382.6125 32.1125L382.6125 37.55L380.84686 37.55ZM394.97186 34.20625L396.78436 34.440624Q396.3625 36.01875 395.1906 36.909374Q394.03436 37.784374 392.22186 37.784374Q389.95624 37.784374 388.6125 36.39375Q387.28436 34.9875 387.28436 32.45625Q387.28436 29.83125 388.6281 28.39375Q389.97186 26.940624 392.1281 26.940624Q394.20624 26.940624 395.51874 28.3625Q396.84686 29.76875 396.84686 32.346874Q396.84686 32.503124 396.83124 32.815624L389.09686 32.815624Q389.1906 34.51875 390.0656 35.425Q390.9406 36.33125 392.2375 36.33125Q393.20624 36.33125 393.8781 35.83125Q394.5656 35.315624 394.97186 34.20625ZM389.1906 31.3625L394.9875 31.3625Q394.8781 30.065624 394.33124 29.409374Q393.4875 28.39375 392.14374 28.39375Q390.9406 28.39375 390.1125 29.20625Q389.28436 30.003124 389.1906 31.3625ZM398.15936 34.45625L399.90936 34.175Q400.05 35.221874 400.72186 35.784374Q401.39374 36.33125 402.59686 36.33125Q403.8 36.33125 404.3781 35.846874Q404.97186 35.346874 404.97186 34.690624Q404.97186 34.096874 404.45624 33.753124Q404.09686 33.51875 402.65936 33.159374Q400.72186 32.659374 399.97186 32.315624Q399.2375 31.95625 398.84686 31.33125Q398.45624 30.690624 398.45624 29.925Q398.45624 29.2375 398.76874 28.64375Q399.09686 28.05 399.64374 27.659374Q400.05 27.3625 400.7531 27.159374Q401.47186 26.940624 402.28436 26.940624Q403.5031 26.940624 404.425 27.3Q405.34686 27.64375 405.78436 28.253124Q406.22186 28.846874 406.39374 29.846874L404.675 30.08125Q404.55 29.284374 403.9875 28.846874Q403.425 28.39375 402.40936 28.39375Q401.1906 28.39375 400.675 28.8Q400.15936 29.190624 400.15936 29.721874Q400.15936 30.065624 400.3781 30.346874Q400.58124 30.628124 401.05 30.815624Q401.3156 30.909374 402.59686 31.253124Q404.47186 31.753124 405.20624 32.08125Q405.9406 32.39375 406.3625 33.003124Q406.78436 33.596874 406.78436 34.503124Q406.78436 35.378124 406.26874 36.159374Q405.7531 36.940624 404.78436 37.3625Q403.8156 37.784374 402.59686 37.784374Q400.58124 37.784374 399.51874 36.940624Q398.45624 36.096874 398.15936 34.45625ZM408.15936 34.45625L409.90936 34.175Q410.05 35.221874 410.72186 35.784374Q411.39374 36.33125 412.59686 36.33125Q413.8 36.33125 414.3781 35.846874Q414.97186 35.346874 414.97186 34.690624Q414.97186 34.096874 414.45624 33.753124Q414.09686 33.51875 412.65936 33.159374Q410.72186 32.659374 409.97186 32.315624Q409.2375 31.95625 408.84686 31.33125Q408.45624 30.690624 408.45624 29.925Q408.45624 29.2375 408.76874 28.64375Q409.09686 28.05 409.64374 27.659374Q410.05 27.3625 410.7531 27.159374Q411.47186 26.940624 412.28436 26.940624Q413.5031 26.940624 414.425 27.3Q415.34686 27.64375 415.78436 28.253124Q416.22186 28.846874 416.39374 29.846874L414.675 30.08125Q414.55 29.284374 413.9875 28.846874Q413.425 28.39375 412.40936 28.39375Q411.1906 28.39375 410.675 28.8Q410.15936 29.190624 410.15936 29.721874Q410.15936 30.065624 410.3781 30.346874Q410.58124 30.628124 411.05 30.815624Q411.3156 30.909374 412.59686 31.253124Q414.47186 31.753124 415.20624 32.08125Q415.9406 32.39375 416.3625 33.003124Q416.78436 33.596874 416.78436 34.503124Q416.78436 35.378124 416.26874 36.159374Q415.7531 36.940624 414.78436 37.3625Q413.8156 37.784374 412.59686 37.784374Q410.58124 37.784374 409.51874 36.940624Q408.45624 36.096874 408.15936 34.45625ZM425.65936 37.55L425.65936 36.01875Q424.45624 37.784374 422.3781 37.784374Q421.45624 37.784374 420.65936 37.440624Q419.8625 37.08125 419.47186 36.55Q419.09686 36.01875 418.9406 35.2375Q418.83124 34.721874 418.83124 33.596874L418.83124 27.175L420.58124 27.175L420.58124 32.925Q420.58124 34.3 420.6906 34.784374Q420.8625 35.471874 421.39374 35.878124Q421.9406 36.26875 422.72186 36.26875Q423.51874 36.26875 424.20624 35.8625Q424.90936 35.45625 425.1906 34.76875Q425.4875 34.065624 425.4875 32.7375L425.4875 27.175L427.2375 27.175L427.2375 37.55L425.65936 37.55ZM429.84686 37.55L429.84686 27.175L431.425 27.175L431.425 28.753124Q432.03436 27.64375 432.55 27.3Q433.0656 26.940624 433.675 26.940624Q434.5656 26.940624 435.4875 27.503124L434.8781 29.14375Q434.2375 28.753124 433.59686 28.753124Q433.01874 28.753124 432.55 29.1125Q432.09686 29.45625 431.89374 30.065624Q431.6125 31.003124 431.6125 32.1125L431.6125 37.55L429.84686 37.55ZM443.97186 34.20625L445.78436 34.440624Q445.3625 36.01875 444.1906 36.909374Q443.03436 37.784374 441.22186 37.784374Q438.95624 37.784374 437.6125 36.39375Q436.28436 34.9875 436.28436 32.45625Q436.28436 29.83125 437.6281 28.39375Q438.97186 26.940624 441.1281 26.940624Q443.20624 26.940624 444.51874 28.3625Q445.84686 29.76875 445.84686 32.346874Q445.84686 32.503124 445.83124 32.815624L438.09686 32.815624Q438.1906 34.51875 439.0656 35.425Q439.9406 36.33125 441.2375 36.33125Q442.20624 36.33125 442.8781 35.83125Q443.5656 35.315624 443.97186 34.20625ZM438.1906 31.3625L443.9875 31.3625Q443.8781 30.065624 443.33124 29.409374Q442.4875 28.39375 441.14374 28.39375Q439.9406 28.39375 439.1125 29.20625Q438.28436 30.003124 438.1906 31.3625ZM447.15936 34.45625L448.90936 34.175Q449.05 35.221874 449.72186 35.784374Q450.39374 36.33125 451.59686 36.33125Q452.8 36.33125 453.3781 35.846874Q453.97186 35.346874 453.97186 34.690624Q453.97186 34.096874 453.45624 33.753124Q453.09686 33.51875 451.65936 33.159374Q449.72186 32.659374 448.97186 32.315624Q448.2375 31.95625 447.84686 31.33125Q447.45624 30.690624 447.45624 29.925Q447.45624 29.2375 447.76874 28.64375Q448.09686 28.05 448.64374 27.659374Q449.05 27.3625 449.7531 27.159374Q450.47186 26.940624 451.28436 26.940624Q452.5031 26.940624 453.425 27.3Q454.34686 27.64375 454.78436 28.253124Q455.22186 28.846874 455.39374 29.846874L453.675 30.08125Q453.55 29.284374 452.9875 28.846874Q452.425 28.39375 451.40936 28.39375Q450.1906 28.39375 449.675 28.8Q449.15936 29.190624 449.15936 29.721874Q449.15936 30.065624 449.3781 30.346874Q449.58124 30.628124 450.05 30.815624Q450.3156 30.909374 451.59686 31.253124Q453.47186 31.753124 454.20624 32.08125Q454.9406 32.39375 455.3625 33.003124Q455.78436 33.596874 455.78436 34.503124Q455.78436 35.378124 455.26874 36.159374Q454.7531 36.940624 453.78436 37.3625Q452.8156 37.784374 451.59686 37.784374Q449.58124 37.784374 448.51874 36.940624Q447.45624 36.096874 447.15936 34.45625Z"/></svg>