<svg xmlns="http://www.w3.org/2000/svg" xmlns:xlink="http://www.w3.org/1999/xlink" width="800" height="800" version="1.1"><g transform="scale(2,2)"><g id="background-7ebc42de"><rect width="400" height="400" x="0" y="0" fill="#fff" stroke="none" class="dcg-svg-background"/></g><g id="graphpaper-7ebc42de"><g id="grid-7ebc42de"><g><path fill="none" stroke="#000" stroke-miterlimit="10" stroke-opacity=".2" d="M 3.5 0 L 3.5 400" class="dcg-svg-minor-gridline" paint-order="fill stroke markers"/><path fill="none" stroke="#000" stroke-miterlimit="10" stroke-opacity=".2" d="M 28.5 0 L 28.5 400" class="dcg-svg-minor-gridline" paint-order="fill stroke markers"/><path fill="none" stroke="#000" stroke-miterlimit="10" stroke-opacity=".2" d="M 52.5 0 L 52.5 400" class="dcg-svg-minor-gridline" paint-order="fill stroke markers"/><path fill="none" stroke="#000" stroke-miterlimit="10" stroke-opacity=".2" d="M 77.5 0 L 77.5 400" class="dcg-svg-minor-gridline" paint-order="fill stroke markers"/><path fill="none" stroke="#000" stroke-miterlimit="10" stroke-opacity=".2" d="M 101.5 0 L 101.5 400" class="dcg-svg-minor-gridline" paint-order="fill stroke markers"/><path fill="none" stroke="#000" stroke-miterlimit="10" stroke-opacity=".2" d="M 126.5 0 L 126.5 400" class="dcg-svg-minor-gridline" paint-order="fill stroke markers"/><path fill="none" stroke="#000" stroke-miterlimit="10" stroke-opacity=".2" d="M 151.5 0 L 151.5 400" class="dcg-svg-minor-gridline" paint-order="fill stroke markers"/><path fill="none" stroke="#000" stroke-miterlimit="10" stroke-opacity=".2" d="M 175.5 0 L 175.5 400" class="dcg-svg-minor-gridline" paint-order="fill stroke markers"/><path fill="none" stroke="#000" stroke-miterlimit="10" stroke-opacity=".2" d="M 225.5 0 L 225.5 400" class="dcg-svg-minor-gridline" paint-order="fill stroke markers"/><path fill="none" stroke="#000" stroke-miterlimit="10" stroke-opacity=".2" d="M 249.5 0 L 249.5 400" class="dcg-svg-minor-gridline" paint-order="fill stroke markers"/><path fill="none" stroke="#000" stroke-miterlimit="10" stroke-opacity=".2" d="M 274.5 0 L 274.5 400" class="dcg-svg-minor-gridline" paint-order="fill stroke markers"/><path fill="none" stroke="#000" stroke-miterlimit="10" stroke-opacity=".2" d="M 298.5 0 L 298.5 400" class="dcg-svg-minor-gridline" paint-order="fill stroke markers"/><path fill="none" stroke="#000" stroke-miterlimit="10" stroke-opacity=".2" d="M 323.5 0 L 323.5 400" class="dcg-svg-minor-gridline" paint-order="fill stroke markers"/><path fill="none" stroke="#000" stroke-miterlimit="10" stroke-opacity=".2" d="M 348.5 0 L 348.5 400" class="dcg-svg-minor-gridline" paint-order="fill stroke markers"/><path fill="none" stroke="#000" stroke-miterlimit="10" stroke-opacity=".2" d="M 372.5 0 L 372.5 400" class="dcg-svg-minor-gridline" paint-order="fill stroke markers"/><path fill="none" stroke="#000" stroke-miterlimit="10" stroke-opacity=".2" d="M 397.5 0 L 397.5 400" class="dcg-svg-minor-gridline" paint-order="fill stroke markers"/><path fill="none" stroke="#000" stroke-miterlimit="10" stroke-opacity=".2" d="M 0 393.5 L 400 393.5" class="dcg-svg-minor-gridline" paint-order="fill stroke markers"/><path fill="none" stroke="#000" stroke-miterlimit="10" stroke-opacity=".2" d="M 0 344.5 L 400 344.5" class="dcg-svg-minor-gridline" paint-order="fill stroke markers"/><path fill="none" stroke="#000" stroke-miterlimit="10" stroke-opacity=".2" d="M 0 319.5 L 400 319.5" class="dcg-svg-minor-gridline" paint-order="fill stroke markers"/><path fill="none" stroke="#000" stroke-miterlimit="10" stroke-opacity=".2" d="M 0 295.5 L 400 295.5" class="dcg-svg-minor-gridline" paint-order="fill stroke markers"/><path fill="none" stroke="#000" stroke-miterlimit="10" stroke-opacity=".2" d="M 0 270.5 L 400 270.5" class="dcg-svg-minor-gridline" paint-order="fill stroke markers"/><path fill="none" stroke="#000" stroke-miterlimit="10" stroke-opacity=".2" d="M 0 245.5 L 400 245.5" class="dcg-svg-minor-gridline" paint-order="fill stroke markers"/><path fill="none" stroke="#000" stroke-miterlimit="10" stroke-opacity=".2" d="M 0 221.5 L 400 221.5" class="dcg-svg-minor-gridline" paint-order="fill stroke markers"/><path fill="none" stroke="#000" stroke-miterlimit="10" stroke-opacity=".2" d="M 0 196.5 L 400 196.5" class="dcg-svg-minor-gridline" paint-order="fill stroke markers"/><path fill="none" stroke="#000" stroke-miterlimit="10" stroke-opacity=".2" d="M 0 172.5 L 400 172.5" class="dcg-svg-minor-gridline" paint-order="fill stroke markers"/><path fill="none" stroke="#000" stroke-miterlimit="10" stroke-opacity=".2" d="M 0 147.5 L 400 147.5" class="dcg-svg-minor-gridline" paint-order="fill stroke markers"/><path fill="none" stroke="#000" stroke-miterlimit="10" stroke-opacity=".2" d="M 0 122.5 L 400 122.5" class="dcg-svg-minor-gridline" paint-order="fill stroke markers"/><path fill="none" stroke="#000" stroke-miterlimit="10" stroke-opacity=".2" d="M 0 98.5 L 400 98.5" class="dcg-svg-minor-gridline" paint-order="fill stroke markers"/><path fill="none" stroke="#000" stroke-miterlimit="10" stroke-opacity=".2" d="M 0 73.5 L 400 73.5" class="dcg-svg-minor-gridline" paint-order="fill stroke markers"/><path fill="none" stroke="#000" stroke-miterlimit="10" stroke-opacity=".2" d="M 0 48.5 L 400 48.5" class="dcg-svg-minor-gridline" paint-order="fill stroke markers"/><path fill="none" stroke="#000" stroke-miterlimit="10" stroke-opacity=".2" d="M 0 24.5 L 400 24.5" class="dcg-svg-minor-gridline" paint-order="fill stroke markers"/><path fill="none" stroke="#000" stroke-miterlimit="10" stroke-opacity=".2" d="M 0 -0.5 L 400 -0.5" class="dcg-svg-minor-gridline" paint-order="fill stroke markers"/><path fill="none" stroke="#000" stroke-miterlimit="10" stroke-opacity=".25" d="M 77.5 0 L 77.5 400" class="dcg-svg-major-gridline" paint-order="fill stroke markers"/><path fill="none" stroke="#000" stroke-miterlimit="10" stroke-opacity=".25" d="M 323.5 0 L 323.5 400" class="dcg-svg-major-gridline" paint-order="fill stroke markers"/><path fill="none" stroke="#000" stroke-miterlimit="10" stroke-opacity=".25" d="M 0 245.5 L 400 245.5" class="dcg-svg-major-gridline" paint-order="fill stroke markers"/><path fill="none" stroke="#000" stroke-miterlimit="10" stroke-opacity=".25" d="M 0 122.5 L 400 122.5" class="dcg-svg-major-gridline" paint-order="fill stroke markers"/><path fill="none" stroke="#000" stroke-miterlimit="10" stroke-opacity=".25" d="M 0 -0.5 L 400 -0.5" class="dcg-svg-major-gridline" paint-order="fill stroke markers"/></g></g><g id="axis-7ebc42de"><g id="yaxis-7ebc42de"><title>Y axis</title><path fill="none" stroke="#000" stroke-miterlimit="10" stroke-opacity=".9" stroke-width="1.5" d="M 201 0 L 201 400" class="dcg-svg-axis-line" paint-order="fill stroke markers"/></g><g id="xaxis-7ebc42de"><title>X axis</title><path fill="none" stroke="#000" stroke-miterlimit="10" stroke-opacity=".9" stroke-width="1.5" d="M 0 370 L 400 370" class="dcg-svg-axis-line" paint-order="fill stroke markers"/></g><g><g class="dcg-svg-axis-value"><text x="192.089" y="385.333" fill="none" stroke="#fff" stroke-miterlimit="2" stroke-width="3" font-family="Arial" font-size="14" font-style="normal" font-weight="normal" text-anchor="middle" text-decoration="normal">0</text><text x="192.089" y="385.333" fill="#000" stroke="none" font-family="Arial" font-size="14" font-style="normal" font-weight="normal" text-anchor="middle" text-decoration="normal">0</text></g><g class="dcg-svg-axis-value"><text x="75.507" y="385.333" fill="none" stroke="#fff" stroke-miterlimit="2" stroke-width="3" font-family="Arial" font-size="14" font-style="normal" font-weight="normal" text-anchor="middle" text-decoration="normal">-10</text><text x="75.507" y="385.333" fill="#000" stroke="none" font-family="Arial" font-size="14" font-style="normal" font-weight="normal" text-anchor="middle" text-decoration="normal">-10</text></g><g class="dcg-svg-axis-value"><text x="324.12" y="385.333" fill="none" stroke="#fff" stroke-miterlimit="2" stroke-width="3" font-family="Arial" font-size="14" font-style="normal" font-weight="normal" text-anchor="middle" text-decoration="normal">10</text><text x="324.12" y="385.333" fill="#000" stroke="none" font-family="Arial" font-size="14" font-style="normal" font-weight="normal" text-anchor="middle" text-decoration="normal">10</text></g><g class="dcg-svg-axis-value"><text x="188.197" y="250.193" fill="none" stroke="#fff" stroke-miterlimit="2" stroke-width="3" font-family="Arial" font-size="14" font-style="normal" font-weight="normal" text-anchor="middle" text-decoration="normal">10</text><text x="188.197" y="250.193" fill="#000" stroke="none" font-family="Arial" font-size="14" font-style="normal" font-weight="normal" text-anchor="middle" text-decoration="normal">10</text></g><g class="dcg-svg-axis-value"><text x="188.197" y="127.053" fill="none" stroke="#fff" stroke-miterlimit="2" stroke-width="3" font-family="Arial" font-size="14" font-style="normal" font-weight="normal" text-anchor="middle" text-decoration="normal">20</text><text x="188.197" y="127.053" fill="#000" stroke="none" font-family="Arial" font-size="14" font-style="normal" font-weight="normal" text-anchor="middle" text-decoration="normal">20</text></g><g class="dcg-svg-axis-value dcg-svg-offcenter-axis-value"><text x="188.197" y="13.808" fill="none" stroke="#fff" stroke-miterlimit="2" stroke-width="3" font-family="Arial" font-size="14" font-style="normal" font-weight="normal" text-anchor="middle" text-decoration="normal">30</text><text x="188.197" y="13.808" fill="#000" stroke="none" font-family="Arial" font-size="14" font-style="normal" font-weight="normal" text-anchor="middle" text-decoration="normal">30</text></g></g></g></g><g id="expressions-7ebc42de"><g id="sketch-7ebc42de"><title>Expression 1</title><path fill="#c74440" fill-opacity=".4" stroke="none" paint-order="stroke fill markers"/><g><path fill="none" stroke="#c74440" stroke-linecap="round" stroke-linejoin="round" stroke-miterlimit="10" stroke-opacity=".9" stroke-width="2.5" d="M 120.27843314592786 -5.5 L 120.27843314592786 -5.5 L 121.5703125 8.862710375905692 L 125.18359375 46.88490115699386 L 128.69921875 81.8441720533927 L 132.1171875 113.90780743004632 L 135.4375 143.23844486398417 L 138.66015625 169.99407514431994 L 141.78515625 194.32804227225276 L 144.8125 216.38904346106668 L 147.7421875 236.32112913612985 L 150.57421875 254.26370293489626 L 153.30859375 270.351521706904 L 155.9453125 284.7146955137768 L 158.484375 297.4786876292228 L 160.92578125 308.76431453903484 L 163.26953125 318.6877459410911 L 165.515625 327.36050474535443 L 167.6640625 334.88946707387254 L 169.71484375 341.37686226077795 L 171.66796875 346.92027285228835 L 173.62109375 351.84411172178284 L 175.4765625 355.9478803402854 L 177.234375 359.3198676781833 L 178.89453125 362.0437159179487 L 180.5546875 364.3199235885576 L 182.1171875 366.0533193537766 L 183.6796875 367.3901892169055 L 185.2421875 368.3305331779443 L 186.609375 368.82805898979484 L 187.87890625 369.01821015062166 L 189.1484375 368.9465922588967 L 190.41796875 368.6132053146201 L 191.78515625 367.9614255821312 L 193.25 366.92619803061837 L 194.8125 365.4378208413549 L 196.375 363.55291775000126 L 197.9375 361.27148875655746 L 199.59765625 358.41299578095976 L 201.2578125 355.1068622362056 L 203.015625 351.1183375165549 L 204.87109375 346.36377943953545 L 206.82421875 340.75489903476 L 208.875 334.19876054392626 L 211.0234375 326.5977814208166 L 213.171875 318.2471205140678 L 215.41796875 308.71531319619953 L 217.76171875 297.8954833451643 L 220.203125 285.676108050999 L 222.7421875 271.9410176158258 L 225.37890625 256.5693955538518 L 228.11328125 239.43577859136818 L 230.9453125 220.41005666675227 L 233.875 199.35747293046518 L 236.90234375 176.13862374505356 L 240.02734375 150.6094586851486 L 243.25 122.6212805374667 L 246.5703125 92.02074530080881 L 249.98828125 58.6498621860606 L 253.50390625 22.345993616193255 L 256.0573285739537 -5.5" class="dcg-svg-curve" paint-order="fill stroke markers"/></g></g><g id="sketch-7ebc42de"><title>y=ax^2+bx+c</title><path fill="none" stroke="#c74440" stroke-linecap="round" stroke-linejoin="round" stroke-miterlimit="10" stroke-opacity=".9" stroke-width="7.5" d="M 225.00828198408928 258.09908865663834 L 225.00828198408928 258.2990886566384 L 225.20828198408927 258.2990886566384 L 225.20828198408927 258.09908865663834" class="dcg-svg-point" paint-order="fill stroke markers"/></g></g><g id="labels-7ebc42de"><g><g class="dcg-svg-label"><g><g><text x="0" y="14.489" fill="none" stroke="#FFF" stroke-linecap="round" stroke-linejoin="round" stroke-miterlimit="2" stroke-opacity=".9" stroke-width="3" font-family="arial, sans-serif" font-size="15.4" font-style="normal" font-weight="400" text-anchor="start" text-decoration="normal" transform="rotate(0,0,0) translate(225.60828198408927,258.69908865663837) translate(12.491724119426351,-9.499091708396179)">y=ax^2+bx+c</text></g></g><g><g><text x="0" y="14.489" fill="#C74440" fill-opacity=".9" stroke="none" font-family="arial, sans-serif" font-size="15.4" font-style="normal" font-weight="400" text-anchor="start" text-decoration="normal" transform="rotate(0,0,0) translate(225.60828198408927,258.69908865663837) translate(12.491724119426351,-9.499091708396179)">y=ax^2+bx+c</text></g></g></g></g></g></g></svg>