<?xml version="1.0" encoding="UTF-8" standalone="no"?>
<!-- Created with Inkscape (http://www.inkscape.org/) -->
<svg xmlns:dc="http://purl.org/dc/elements/1.1/" xmlns:cc="http://creativecommons.org/ns#" xmlns:rdf="http://www.w3.org/1999/02/22-rdf-syntax-ns#" xmlns:svg="http://www.w3.org/2000/svg" xmlns="http://www.w3.org/2000/svg" xmlns:xlink="http://www.w3.org/1999/xlink" xmlns:sodipodi="http://sodipodi.sourceforge.net/DTD/sodipodi-0.dtd" xmlns:inkscape="http://www.inkscape.org/namespaces/inkscape" inkscape:version="0.48.2 r9819" version="1.1" id="svg2" height="2200.6357" width="2054.7151" sodipodi:docname="Reliability_and_validity.svg">
  <sodipodi:namedview id="base" pagecolor="#ffffff" bordercolor="#666666" borderopacity="1.0" inkscape:pageopacity="0.0" inkscape:pageshadow="2" inkscape:zoom="0.25339801" inkscape:cx="712.90409" inkscape:cy="373.77166" inkscape:document-units="px" inkscape:current-layer="layer1" showgrid="false" inkscape:window-width="1280" inkscape:window-height="744" inkscape:window-x="-4" inkscape:window-y="-4" inkscape:window-maximized="1" fit-margin-top="0" fit-margin-left="0" fit-margin-right="0" fit-margin-bottom="0"/>
  <defs id="defs4"/>
  <metadata id="metadata7">
    <rdf:RDF>
      <cc:Work rdf:about="">
        <dc:format>image/svg+xml</dc:format>
        <dc:type rdf:resource="http://purl.org/dc/dcmitype/StillImage"/>
        <dc:title/>
      </cc:Work>
    </rdf:RDF>
  </metadata>
  <g id="layer1" inkscape:groupmode="layer" inkscape:label="Layer 1" transform="translate(77.974261,-76.1875)">
    <g id="g3030" transform="translate(-0.00551085,1174.7334)">
      <path transform="matrix(1.51735,0,0,1.51736,-267.42,-119.027)" d="m 668.57141,425.21933 c 0,136.49323 -110.64962,247.14285 -247.14285,247.14285 -136.49323,0 -247.14285,-110.64962 -247.14285,-247.14285 0,-136.49323 110.64962,-247.14285 247.14285,-247.14285 136.49323,0 247.14285,110.64962 247.14285,247.14285 z" sodipodi:ry="247.14285" sodipodi:rx="247.14285" sodipodi:cy="425.21933" sodipodi:cx="421.42856" id="path3032" style="fill:none;stroke:#d40000;stroke-width:32.95209885;stroke-linecap:butt;stroke-linejoin:miter;stroke-miterlimit:4;stroke-opacity:1;stroke-dasharray:none;stroke-dashoffset:0" sodipodi:type="arc"/>
      <path transform="matrix(0.708089,0,0,0.708106,73.6431,225.081)" d="m 668.57141,425.21933 c 0,136.49323 -110.64962,247.14285 -247.14285,247.14285 -136.49323,0 -247.14285,-110.64962 -247.14285,-247.14285 0,-136.49323 110.64962,-247.14285 247.14285,-247.14285 136.49323,0 247.14285,110.64962 247.14285,247.14285 z" sodipodi:ry="247.14285" sodipodi:rx="247.14285" sodipodi:cy="425.21933" sodipodi:cx="421.42856" id="path3034" style="fill:none;stroke:#d40000;stroke-width:70.61180115;stroke-linecap:butt;stroke-linejoin:miter;stroke-miterlimit:4;stroke-opacity:1;stroke-dasharray:none;stroke-dashoffset:0" sodipodi:type="arc"/>
      <path sodipodi:type="arc" style="fill:none;stroke:#d40000;stroke-width:44.93610001;stroke-linecap:butt;stroke-linejoin:miter;stroke-miterlimit:4;stroke-opacity:1;stroke-dasharray:none;stroke-dashoffset:0" id="path3036" sodipodi:cx="421.42856" sodipodi:cy="425.21933" sodipodi:rx="247.14285" sodipodi:ry="247.14285" d="m 668.57141,425.21933 c 0,136.49323 -110.64962,247.14285 -247.14285,247.14285 -136.49323,0 -247.14285,-110.64962 -247.14285,-247.14285 0,-136.49323 110.64962,-247.14285 247.14285,-247.14285 136.49323,0 247.14285,110.64962 247.14285,247.14285 z" transform="matrix(1.1127,0,0,1.11268,-96.8672,53.0466)"/>
      <path style="fill:none;stroke:#241c1c;stroke-width:5;stroke-linecap:butt;stroke-linejoin:miter;stroke-miterlimit:4;stroke-opacity:1;stroke-dasharray:none" d="m 372.05257,76.176698 0,899.998802" id="path3038" inkscape:connector-curvature="0"/>
      <path inkscape:connector-curvature="0" id="path3040" d="m 822.04217,526.16622 -899.999993,0" style="fill:none;stroke:#241c1c;stroke-width:5;stroke-linecap:butt;stroke-linejoin:miter;stroke-miterlimit:4;stroke-opacity:1;stroke-dasharray:none"/>
      <path transform="matrix(0.404624,0,0,0.404657,201.51655,354.11412)" d="m 668.57141,425.21933 c 0,136.49323 -110.64962,247.14285 -247.14285,247.14285 -136.49323,0 -247.14285,-110.64962 -247.14285,-247.14285 0,-136.49323 110.64962,-247.14285 247.14285,-247.14285 136.49323,0 247.14285,110.64962 247.14285,247.14285 z" sodipodi:ry="247.14285" sodipodi:rx="247.14285" sodipodi:cy="425.21933" sodipodi:cx="421.42856" id="path3042" style="fill:#d40000;fill-opacity:1;stroke:none" sodipodi:type="arc"/>
    </g>
    <g id="g3044" transform="translate(1154.7095,1174.7334)">
      <path sodipodi:type="arc" style="fill:none;stroke:#d40000;stroke-width:32.95209885;stroke-linecap:butt;stroke-linejoin:miter;stroke-miterlimit:4;stroke-opacity:1;stroke-dasharray:none;stroke-dashoffset:0" id="path3046" sodipodi:cx="421.42856" sodipodi:cy="425.21933" sodipodi:rx="247.14285" sodipodi:ry="247.14285" d="m 668.57141,425.21933 c 0,136.49323 -110.64962,247.14285 -247.14285,247.14285 -136.49323,0 -247.14285,-110.64962 -247.14285,-247.14285 0,-136.49323 110.64962,-247.14285 247.14285,-247.14285 136.49323,0 247.14285,110.64962 247.14285,247.14285 z" transform="matrix(1.51735,0,0,1.51736,-267.42,-119.027)"/>
      <path sodipodi:type="arc" style="fill:none;stroke:#d40000;stroke-width:70.61180115;stroke-linecap:butt;stroke-linejoin:miter;stroke-miterlimit:4;stroke-opacity:1;stroke-dasharray:none;stroke-dashoffset:0" id="path3048" sodipodi:cx="421.42856" sodipodi:cy="425.21933" sodipodi:rx="247.14285" sodipodi:ry="247.14285" d="m 668.57141,425.21933 c 0,136.49323 -110.64962,247.14285 -247.14285,247.14285 -136.49323,0 -247.14285,-110.64962 -247.14285,-247.14285 0,-136.49323 110.64962,-247.14285 247.14285,-247.14285 136.49323,0 247.14285,110.64962 247.14285,247.14285 z" transform="matrix(0.708089,0,0,0.708106,73.6431,225.081)"/>
      <path transform="matrix(1.1127,0,0,1.11268,-96.8672,53.0466)" d="m 668.57141,425.21933 c 0,136.49323 -110.64962,247.14285 -247.14285,247.14285 -136.49323,0 -247.14285,-110.64962 -247.14285,-247.14285 0,-136.49323 110.64962,-247.14285 247.14285,-247.14285 136.49323,0 247.14285,110.64962 247.14285,247.14285 z" sodipodi:ry="247.14285" sodipodi:rx="247.14285" sodipodi:cy="425.21933" sodipodi:cx="421.42856" id="path3050" style="fill:none;stroke:#d40000;stroke-width:44.93610001;stroke-linecap:butt;stroke-linejoin:miter;stroke-miterlimit:4;stroke-opacity:1;stroke-dasharray:none;stroke-dashoffset:0" sodipodi:type="arc"/>
      <path inkscape:connector-curvature="0" id="path3052" d="m 372.05257,76.176698 0,899.998802" style="fill:none;stroke:#241c1c;stroke-width:5;stroke-linecap:butt;stroke-linejoin:miter;stroke-miterlimit:4;stroke-opacity:1;stroke-dasharray:none"/>
      <path style="fill:none;stroke:#241c1c;stroke-width:5;stroke-linecap:butt;stroke-linejoin:miter;stroke-miterlimit:4;stroke-opacity:1;stroke-dasharray:none" d="m 822.04217,526.16622 -899.999993,0" id="path3054" inkscape:connector-curvature="0"/>
      <path sodipodi:type="arc" style="fill:#d40000;fill-opacity:1;stroke:none" id="path3056" sodipodi:cx="421.42856" sodipodi:cy="425.21933" sodipodi:rx="247.14285" sodipodi:ry="247.14285" d="m 668.57141,425.21933 c 0,136.49323 -110.64962,247.14285 -247.14285,247.14285 -136.49323,0 -247.14285,-110.64962 -247.14285,-247.14285 0,-136.49323 110.64962,-247.14285 247.14285,-247.14285 136.49323,0 247.14285,110.64962 247.14285,247.14285 z" transform="matrix(0.404624,0,0,0.404657,201.51655,354.11412)"/>
    </g>
    <path sodipodi:type="arc" style="fill:#000000;fill-opacity:1;fill-rule:nonzero;stroke:none" id="path3155" sodipodi:cx="-609.71277" sodipodi:cy="983.56458" sodipodi:rx="21.704985" sodipodi:ry="21.704985" d="m -588.00778,983.56458 c 0,11.98733 -9.71766,21.70502 -21.70499,21.70502 -11.98733,0 -21.70498,-9.71769 -21.70498,-21.70502 0,-11.98734 9.71765,-21.70499 21.70498,-21.70499 11.98733,0 21.70499,9.71765 21.70499,21.70499 z" transform="translate(-77.974261,76.1875)"/>
    <use id="use3245" xlink:href="#path3155" transform="matrix(0.6148757,0,0,0.6148757,2020.52,1131.1624)" x="0" y="0" width="2054.7151" height="2074.7334"/>
    <use id="use3247" xlink:href="#path3155" transform="matrix(0.59047918,0,0,0.59047918,2019.8685,1038.364)" x="0" y="0" width="2054.7151" height="2074.7334"/>
    <use id="use3249" xlink:href="#path3155" transform="matrix(1.0666753,0,0,1.0666753,2166.092,556.63374)" x="0" y="0" width="2054.7151" height="2074.7334"/>
    <use id="use3251" xlink:href="#path3155" transform="matrix(0.66195713,0,0,0.66195713,1917.9223,946.09926)" x="0" y="0" width="2054.7151" height="2074.7334"/>
    <use id="use3253" xlink:href="#path3155" transform="matrix(1.0777396,0,0,1.0777396,2228.9713,465.82275)" x="0" y="0" width="2054.7151" height="2074.7334"/>
    <use id="use3255" xlink:href="#path3155" transform="matrix(1.2212055,0,0,1.2212055,2324.0966,429.94075)" x="0" y="0" width="2054.7151" height="2074.7334"/>
    <use id="use3257" xlink:href="#path3155" transform="matrix(0.73466981,0,0,0.73466981,2042.6105,942.75884)" x="0" y="0" width="2054.7151" height="2074.7334"/>
    <use id="use3259" xlink:href="#path3155" transform="matrix(0.49678641,0,0,0.49678641,1845.2393,1268.4189)" x="0" y="0" width="2054.7151" height="2074.7334"/>
    <use id="use3261" xlink:href="#path3155" transform="matrix(0.78817056,0,0,0.78817056,2039.4999,835.35937)" x="0" y="0" width="2054.7151" height="2074.7334"/>
    <use id="use3263" xlink:href="#path3155" transform="matrix(0.51177086,0,0,0.51177086,1897.3092,1260.1249)" x="0" y="0" width="2054.7151" height="2074.7334"/>
    <use id="use3269" xlink:href="#path3155" transform="matrix(1.2027046,0,0,1.2027046,2416.9095,335.89525)" x="0" y="0" width="2054.7151" height="2074.7334"/>
    <use id="use3271" xlink:href="#path3155" transform="matrix(1.4636616,0,0,1.4636616,2619.3646,171.67449)" x="0" y="0" width="2054.7151" height="2074.7334"/>
    <use id="use3273" xlink:href="#path3155" transform="matrix(0.82851934,0,0,0.82851934,2121.6942,887.70832)" x="0" y="0" width="2054.7151" height="2074.7334"/>
    <use id="use3275" xlink:href="#path3155" transform="matrix(1.2154642,0,0,1.2154642,2389.0366,376.24549)" x="0" y="0" width="2054.7151" height="2074.7334"/>
    <use id="use3277" xlink:href="#path3155" transform="matrix(0.82817726,0,0,0.82817726,2022.2535,893.29673)" x="0" y="0" width="2054.7151" height="2074.7334"/>
    <use id="use3305" xlink:href="#path3155" transform="matrix(1.3047164,0,0,1.3047164,1491.8428,67.164693)" x="0" y="0" width="2054.7151" height="2074.7334"/>
    <use id="use3307" xlink:href="#path3155" transform="matrix(0.52482559,0,0,0.52482559,864.38913,895.22297)" x="0" y="0" width="2054.7151" height="2074.7334"/>
    <use id="use3309" xlink:href="#path3155" transform="matrix(0.53501207,0,0,0.53501207,1049.0593,901.58278)" x="0" y="0" width="2054.7151" height="2074.7334"/>
    <use id="use3311" xlink:href="#path3155" transform="matrix(1.1080792,0,0,1.1080792,1357.3518,350.55742)" x="0" y="0" width="2054.7151" height="2074.7334"/>
    <use id="use3315" xlink:href="#path3155" transform="matrix(0.91154232,0,0,0.91154232,1261.911,578.359)" x="0" y="0" width="2054.7151" height="2074.7334"/>
    <use id="use3319" xlink:href="#path3155" transform="matrix(0.62689203,0,0,0.62689203,1066.0622,758.73543)" x="0" y="0" width="2054.7151" height="2074.7334"/>
    <use id="use3323" xlink:href="#path3155" transform="matrix(0.9979628,0,0,0.9979628,1289.7342,339.58319)" x="0" y="0" width="2054.7151" height="2074.7334"/>
    <use id="use3327" xlink:href="#path3155" transform="matrix(0.64407141,0,0,0.64407141,995.24658,850.8296)" x="0" y="0" width="2054.7151" height="2074.7334"/>
    <use id="use3331" xlink:href="#path3155" transform="matrix(0.50252381,0,0,0.50252381,954.29358,957.57105)" x="0" y="0" width="2054.7151" height="2074.7334"/>
    <use id="use3337" xlink:href="#path3155" transform="matrix(1.2158158,0,0,1.2158158,1369.1096,199.06714)" x="0" y="0" width="2054.7151" height="2074.7334"/>
    <use id="use3345" xlink:href="#path3155" transform="matrix(0.67757901,0,0,0.67757901,1046.1424,770.39736)" x="0" y="0" width="2054.7151" height="2074.7334"/>
    <use id="use3351" xlink:href="#path3155" transform="matrix(0.65396957,0,0,0.65396957,1107.8195,757.71688)" x="0" y="0" width="2054.7151" height="2074.7334"/>
    <use id="use3355" xlink:href="#path3155" transform="matrix(0.62276481,0,0,0.62276481,996.52668,718.60143)" x="0" y="0" width="2054.7151" height="2074.7334"/>
    <use id="use3359" xlink:href="#path3155" transform="matrix(1.1861061,0,0,1.1861061,1463.7124,241.01081)" x="0" y="0" width="2054.7151" height="2074.7334"/>
    <use id="use3365" xlink:href="#path3155" transform="matrix(1.1271428,0,0,1.1271428,1323.2603,228.02117)" x="0" y="0" width="2054.7151" height="2074.7334"/>
    <g id="g2994" transform="matrix(-1,0,0,1,1898.7937,1.9999998e-6)">
      <path sodipodi:type="arc" style="fill:none;stroke:#d40000;stroke-width:32.95209885;stroke-linecap:butt;stroke-linejoin:miter;stroke-miterlimit:4;stroke-opacity:1;stroke-dasharray:none;stroke-dashoffset:0" id="path809" sodipodi:cx="421.42856" sodipodi:cy="425.21933" sodipodi:rx="247.14285" sodipodi:ry="247.14285" d="m 668.57141,425.21933 c 0,136.49323 -110.64962,247.14285 -247.14285,247.14285 -136.49323,0 -247.14285,-110.64962 -247.14285,-247.14285 0,-136.49323 110.64962,-247.14285 247.14285,-247.14285 136.49323,0 247.14285,110.64962 247.14285,247.14285 z" transform="matrix(1.51735,0,0,1.51736,-267.42,-119.027)"/>
      <path sodipodi:type="arc" style="fill:none;stroke:#d40000;stroke-width:70.61180115;stroke-linecap:butt;stroke-linejoin:miter;stroke-miterlimit:4;stroke-opacity:1;stroke-dasharray:none;stroke-dashoffset:0" id="path10" sodipodi:cx="421.42856" sodipodi:cy="425.21933" sodipodi:rx="247.14285" sodipodi:ry="247.14285" d="m 668.57141,425.21933 c 0,136.49323 -110.64962,247.14285 -247.14285,247.14285 -136.49323,0 -247.14285,-110.64962 -247.14285,-247.14285 0,-136.49323 110.64962,-247.14285 247.14285,-247.14285 136.49323,0 247.14285,110.64962 247.14285,247.14285 z" transform="matrix(0.708089,0,0,0.708106,73.6431,225.081)"/>
      <path transform="matrix(1.1127,0,0,1.11268,-96.8672,53.0466)" d="m 668.57141,425.21933 c 0,136.49323 -110.64962,247.14285 -247.14285,247.14285 -136.49323,0 -247.14285,-110.64962 -247.14285,-247.14285 0,-136.49323 110.64962,-247.14285 247.14285,-247.14285 136.49323,0 247.14285,110.64962 247.14285,247.14285 z" sodipodi:ry="247.14285" sodipodi:rx="247.14285" sodipodi:cy="425.21933" sodipodi:cx="421.42856" id="path783" style="fill:none;stroke:#d40000;stroke-width:44.93610001;stroke-linecap:butt;stroke-linejoin:miter;stroke-miterlimit:4;stroke-opacity:1;stroke-dasharray:none;stroke-dashoffset:0" sodipodi:type="arc"/>
      <path inkscape:connector-curvature="0" id="path794" d="m 372.05257,76.176698 0,899.998802" style="fill:none;stroke:#241c1c;stroke-width:5;stroke-linecap:butt;stroke-linejoin:miter;stroke-miterlimit:4;stroke-opacity:1;stroke-dasharray:none"/>
      <path style="fill:none;stroke:#241c1c;stroke-width:5;stroke-linecap:butt;stroke-linejoin:miter;stroke-miterlimit:4;stroke-opacity:1;stroke-dasharray:none" d="m 822.04217,526.16622 -899.999993,0" id="path796" inkscape:connector-curvature="0"/>
      <path sodipodi:type="arc" style="fill:#d40000;fill-opacity:1;stroke:none" id="path811" sodipodi:cx="421.42856" sodipodi:cy="425.21933" sodipodi:rx="247.14285" sodipodi:ry="247.14285" d="m 668.57141,425.21933 c 0,136.49323 -110.64962,247.14285 -247.14285,247.14285 -136.49323,0 -247.14285,-110.64962 -247.14285,-247.14285 0,-136.49323 110.64962,-247.14285 247.14285,-247.14285 136.49323,0 247.14285,110.64962 247.14285,247.14285 z" transform="matrix(0.404624,0,0,0.404657,201.51655,354.11412)"/>
    </g>
    <g id="g3002" transform="matrix(-1,0,0,1,1898.7937,1.9999998e-6)">
      <path transform="matrix(1.51735,0,0,1.51736,-267.42,-119.027)" d="m 668.57141,425.21933 c 0,136.49323 -110.64962,247.14285 -247.14285,247.14285 -136.49323,0 -247.14285,-110.64962 -247.14285,-247.14285 0,-136.49323 110.64962,-247.14285 247.14285,-247.14285 136.49323,0 247.14285,110.64962 247.14285,247.14285 z" sodipodi:ry="247.14285" sodipodi:rx="247.14285" sodipodi:cy="425.21933" sodipodi:cx="421.42856" id="path3004" style="fill:none;stroke:#d40000;stroke-width:32.95209885;stroke-linecap:butt;stroke-linejoin:miter;stroke-miterlimit:4;stroke-opacity:1;stroke-dasharray:none;stroke-dashoffset:0" sodipodi:type="arc"/>
      <path transform="matrix(0.708089,0,0,0.708106,73.6431,225.081)" d="m 668.57141,425.21933 c 0,136.49323 -110.64962,247.14285 -247.14285,247.14285 -136.49323,0 -247.14285,-110.64962 -247.14285,-247.14285 0,-136.49323 110.64962,-247.14285 247.14285,-247.14285 136.49323,0 247.14285,110.64962 247.14285,247.14285 z" sodipodi:ry="247.14285" sodipodi:rx="247.14285" sodipodi:cy="425.21933" sodipodi:cx="421.42856" id="path3006" style="fill:none;stroke:#d40000;stroke-width:70.61180115;stroke-linecap:butt;stroke-linejoin:miter;stroke-miterlimit:4;stroke-opacity:1;stroke-dasharray:none;stroke-dashoffset:0" sodipodi:type="arc"/>
      <path sodipodi:type="arc" style="fill:none;stroke:#d40000;stroke-width:44.93610001;stroke-linecap:butt;stroke-linejoin:miter;stroke-miterlimit:4;stroke-opacity:1;stroke-dasharray:none;stroke-dashoffset:0" id="path3008" sodipodi:cx="421.42856" sodipodi:cy="425.21933" sodipodi:rx="247.14285" sodipodi:ry="247.14285" d="m 668.57141,425.21933 c 0,136.49323 -110.64962,247.14285 -247.14285,247.14285 -136.49323,0 -247.14285,-110.64962 -247.14285,-247.14285 0,-136.49323 110.64962,-247.14285 247.14285,-247.14285 136.49323,0 247.14285,110.64962 247.14285,247.14285 z" transform="matrix(1.1127,0,0,1.11268,-96.8672,53.0466)"/>
      <path style="fill:none;stroke:#241c1c;stroke-width:5;stroke-linecap:butt;stroke-linejoin:miter;stroke-miterlimit:4;stroke-opacity:1;stroke-dasharray:none" d="m 372.05257,76.176698 0,899.998802" id="path3010" inkscape:connector-curvature="0"/>
      <path inkscape:connector-curvature="0" id="path3012" d="m 822.04217,526.16622 -899.999993,0" style="fill:none;stroke:#241c1c;stroke-width:5;stroke-linecap:butt;stroke-linejoin:miter;stroke-miterlimit:4;stroke-opacity:1;stroke-dasharray:none"/>
      <path transform="matrix(0.404624,0,0,0.404657,201.51655,354.11412)" d="m 668.57141,425.21933 c 0,136.49323 -110.64962,247.14285 -247.14285,247.14285 -136.49323,0 -247.14285,-110.64962 -247.14285,-247.14285 0,-136.49323 110.64962,-247.14285 247.14285,-247.14285 136.49323,0 247.14285,110.64962 247.14285,247.14285 z" sodipodi:ry="247.14285" sodipodi:rx="247.14285" sodipodi:cy="425.21933" sodipodi:cx="421.42856" id="path3014" style="fill:#d40000;fill-opacity:1;stroke:none" sodipodi:type="arc"/>
    </g>
    <g id="g3016" transform="matrix(-1,0,0,1,744.0788,1.9999998e-6)">
      <path sodipodi:type="arc" style="fill:none;stroke:#d40000;stroke-width:32.95209885;stroke-linecap:butt;stroke-linejoin:miter;stroke-miterlimit:4;stroke-opacity:1;stroke-dasharray:none;stroke-dashoffset:0" id="path3018" sodipodi:cx="421.42856" sodipodi:cy="425.21933" sodipodi:rx="247.14285" sodipodi:ry="247.14285" d="m 668.57141,425.21933 c 0,136.49323 -110.64962,247.14285 -247.14285,247.14285 -136.49323,0 -247.14285,-110.64962 -247.14285,-247.14285 0,-136.49323 110.64962,-247.14285 247.14285,-247.14285 136.49323,0 247.14285,110.64962 247.14285,247.14285 z" transform="matrix(1.51735,0,0,1.51736,-267.42,-119.027)"/>
      <path sodipodi:type="arc" style="fill:none;stroke:#d40000;stroke-width:70.61180115;stroke-linecap:butt;stroke-linejoin:miter;stroke-miterlimit:4;stroke-opacity:1;stroke-dasharray:none;stroke-dashoffset:0" id="path3020" sodipodi:cx="421.42856" sodipodi:cy="425.21933" sodipodi:rx="247.14285" sodipodi:ry="247.14285" d="m 668.57141,425.21933 c 0,136.49323 -110.64962,247.14285 -247.14285,247.14285 -136.49323,0 -247.14285,-110.64962 -247.14285,-247.14285 0,-136.49323 110.64962,-247.14285 247.14285,-247.14285 136.49323,0 247.14285,110.64962 247.14285,247.14285 z" transform="matrix(0.708089,0,0,0.708106,73.6431,225.081)"/>
      <path transform="matrix(1.1127,0,0,1.11268,-96.8672,53.0466)" d="m 668.57141,425.21933 c 0,136.49323 -110.64962,247.14285 -247.14285,247.14285 -136.49323,0 -247.14285,-110.64962 -247.14285,-247.14285 0,-136.49323 110.64962,-247.14285 247.14285,-247.14285 136.49323,0 247.14285,110.64962 247.14285,247.14285 z" sodipodi:ry="247.14285" sodipodi:rx="247.14285" sodipodi:cy="425.21933" sodipodi:cx="421.42856" id="path3022" style="fill:none;stroke:#d40000;stroke-width:44.93610001;stroke-linecap:butt;stroke-linejoin:miter;stroke-miterlimit:4;stroke-opacity:1;stroke-dasharray:none;stroke-dashoffset:0" sodipodi:type="arc"/>
      <path inkscape:connector-curvature="0" id="path3024" d="m 372.05257,76.176698 0,899.998802" style="fill:none;stroke:#241c1c;stroke-width:5;stroke-linecap:butt;stroke-linejoin:miter;stroke-miterlimit:4;stroke-opacity:1;stroke-dasharray:none"/>
      <path style="fill:none;stroke:#241c1c;stroke-width:5;stroke-linecap:butt;stroke-linejoin:miter;stroke-miterlimit:4;stroke-opacity:1;stroke-dasharray:none" d="m 822.04217,526.16622 -899.999993,0" id="path3026" inkscape:connector-curvature="0"/>
      <path sodipodi:type="arc" style="fill:#d40000;fill-opacity:1;stroke:none" id="path3028" sodipodi:cx="421.42856" sodipodi:cy="425.21933" sodipodi:rx="247.14285" sodipodi:ry="247.14285" d="m 668.57141,425.21933 c 0,136.49323 -110.64962,247.14285 -247.14285,247.14285 -136.49323,0 -247.14285,-110.64962 -247.14285,-247.14285 0,-136.49323 110.64962,-247.14285 247.14285,-247.14285 136.49323,0 247.14285,110.64962 247.14285,247.14285 z" transform="matrix(0.404624,0,0,0.404657,201.51655,354.11412)"/>
    </g>
    <use id="use3157" xlink:href="#path3155" transform="matrix(-1.4946576,0,0,1.4946576,690.6133,-1141.3531)" x="0" y="0" width="2054.7151" height="2074.7334"/>
    <use id="use3159" xlink:href="#path3155" transform="matrix(-0.93128271,0,0,0.93128271,1078.6069,-651.47323)" x="0" y="0" width="2054.7151" height="2074.7334"/>
    <use id="use3161" xlink:href="#path3155" transform="matrix(-0.89821877,0,0,0.89821877,1041.4706,-660.37717)" x="0" y="0" width="2054.7151" height="2074.7334"/>
    <use id="use3163" xlink:href="#path3155" transform="matrix(-1.0650941,0,0,1.0650941,1036.7141,-754.32002)" x="0" y="0" width="2054.7151" height="2074.7334"/>
    <use id="use3165" xlink:href="#path3155" transform="matrix(-0.85794602,0,0,0.85794602,1007.2099,-604.88202)" x="0" y="0" width="2054.7151" height="2074.7334"/>
    <use id="use3167" xlink:href="#path3155" transform="matrix(-1.1939322,0,0,1.1939322,692.9609,-956.16642)" x="0" y="0" width="2054.7151" height="2074.7334"/>
    <use id="use3169" xlink:href="#path3155" transform="matrix(-0.6416326,0,0,0.6416326,936.33248,-277.38928)" x="0" y="0" width="2054.7151" height="2074.7334"/>
    <use id="use3171" xlink:href="#path3155" transform="matrix(-1.2941431,0,0,1.2941431,271.379,-666.1892)" x="0" y="0" width="2054.7151" height="2074.7334"/>
    <use id="use3173" xlink:href="#path3155" transform="matrix(-1.0592606,0,0,1.0592606,507.0707,-483.93846)" x="0" y="0" width="2054.7151" height="2074.7334"/>
    <use id="use3175" xlink:href="#path3155" transform="matrix(-1.2589121,0,0,1.2589121,339.2092,-469.96908)" x="0" y="0" width="2054.7151" height="2074.7334"/>
    <use id="use3177" xlink:href="#path3155" transform="matrix(-1.2323761,0,0,1.2323761,296.576,-773.92179)" x="0" y="0" width="2054.7151" height="2074.7334"/>
    <use id="use3179" xlink:href="#path3155" transform="matrix(-0.84055072,0,0,0.84055072,718.2824,-18.460894)" x="0" y="0" width="2054.7151" height="2074.7334"/>
    <use id="use3181" xlink:href="#path3155" transform="matrix(-1.0097017,0,0,1.0097017,806.1325,-267.01323)" x="0" y="0" width="2054.7151" height="2074.7334"/>
    <use id="use3183" xlink:href="#path3155" transform="matrix(-0.62290088,0,0,0.62290088,920.16825,114.17837)" x="0" y="0" width="2054.7151" height="2074.7334"/>
    <use id="use3185" xlink:href="#path3155" transform="matrix(-0.57406712,0,0,0.57406712,1162.6262,114.40692)" x="0" y="0" width="2054.7151" height="2074.7334"/>
    <use id="use3187" xlink:href="#path3155" transform="matrix(-0.62700046,0,0,0.62700046,980.27761,137.43842)" x="0" y="0" width="2054.7151" height="2074.7334"/>
    <use id="use3189" xlink:href="#path3155" transform="matrix(-0.62706357,0,0,0.62706357,1113.6705,178.68979)" x="0" y="0" width="2054.7151" height="2074.7334"/>
    <use id="use3191" xlink:href="#path3155" transform="matrix(-0.58489412,0,0,0.58489412,1207.6063,172.54251)" x="0" y="0" width="2054.7151" height="2074.7334"/>
    <use id="use3193" xlink:href="#path3155" transform="matrix(-0.56270499,0,0,0.56270499,967.01137,71.407363)" x="0" y="0" width="2054.7151" height="2074.7334"/>
    <use id="use3195" xlink:href="#path3155" transform="matrix(-1.3366982,0,0,1.3366982,745.9333,-738.90832)" x="0" y="0" width="2054.7151" height="2074.7334"/>
    <use id="use3197" xlink:href="#path3155" transform="matrix(-0.57211397,0,0,0.57211397,1101.6359,90.040685)" x="0" y="0" width="2054.7151" height="2074.7334"/>
    <use id="use3199" xlink:href="#path3155" transform="matrix(-0.81955486,0,0,0.81955486,1012.9677,-328.29094)" x="0" y="0" width="2054.7151" height="2074.7334"/>
    <use id="use3201" xlink:href="#path3155" transform="matrix(-0.6140915,0,0,0.6140915,1274.4383,-87.621295)" x="0" y="0" width="2054.7151" height="2074.7334"/>
    <use id="use3203" xlink:href="#path3155" transform="matrix(-1.0138003,0,0,1.0138003,-508.2285,-620.04558)" x="0" y="0" width="2054.7151" height="2074.7334"/>
    <use id="use3205" xlink:href="#path3155" transform="matrix(-0.49271539,0,0,0.49271539,-81.952,-128.11671)" x="0" y="0" width="2054.7151" height="2074.7334"/>
    <use id="use3207" xlink:href="#path3155" transform="matrix(-0.60833087,0,0,0.60833087,-354.6001,-323.38576)" x="0" y="0" width="2054.7151" height="2074.7334"/>
    <use id="use3209" xlink:href="#path3155" transform="matrix(-1.4843695,0,0,1.4843695,-712.74595,-1449.3323)" x="0" y="0" width="2054.7151" height="2074.7334"/>
    <use id="use3211" xlink:href="#path3155" transform="matrix(-0.9765178,0,0,0.9765178,-397.5967,-778.15658)" x="0" y="0" width="2054.7151" height="2074.7334"/>
    <use id="use3213" xlink:href="#path3155" transform="matrix(-0.61387153,0,0,0.61387153,-144.0879,-488.07048)" x="0" y="0" width="2054.7151" height="2074.7334"/>
    <use id="use3215" xlink:href="#path3155" transform="matrix(-1.0868233,0,0,1.0868233,-660.169,-637.04712)" x="0" y="0" width="2054.7151" height="2074.7334"/>
    <use id="use3217" xlink:href="#path3155" transform="matrix(-0.67532278,0,0,0.67532278,-225.0304,-374.52051)" x="0" y="0" width="2054.7151" height="2074.7334"/>
    <use id="use3219" xlink:href="#path3155" transform="matrix(-0.82402943,0,0,0.82402943,-375.0791,-608.83028)" x="0" y="0" width="2054.7151" height="2074.7334"/>
    <use id="use3221" xlink:href="#path3155" transform="matrix(-0.79246168,0,0,0.79246168,-349.0826,-452.24345)" x="0" y="0" width="2054.7151" height="2074.7334"/>
    <use id="use3223" xlink:href="#path3155" transform="matrix(-1.187402,0,0,1.187402,-774.0646,-821.10965)" x="0" y="0" width="2054.7151" height="2074.7334"/>
    <use id="use3225" xlink:href="#path3155" transform="matrix(-0.48191266,0,0,0.48191266,-211.6709,-90.305298)" x="0" y="0" width="2054.7151" height="2074.7334"/>
    <use id="use3227" xlink:href="#path3155" transform="matrix(-0.7952235,0,0,0.7952235,-462.9327,-443.64332)" x="0" y="0" width="2054.7151" height="2074.7334"/>
    <use id="use3229" xlink:href="#path3155" transform="matrix(-0.77804481,0,0,0.77804481,-377.5707,-480.65246)" x="0" y="0" width="2054.7151" height="2074.7334"/>
    <use id="use3231" xlink:href="#path3155" transform="matrix(-1.2543113,0,0,1.2543113,-683.4954,-1151.9743)" x="0" y="0" width="2054.7151" height="2074.7334"/>
    <use id="use3233" xlink:href="#path3155" transform="matrix(-0.51428508,0,0,0.51428508,-271.9005,-267.14956)" x="0" y="0" width="2054.7151" height="2074.7334"/>
    <use id="use3235" xlink:href="#path3155" transform="matrix(-0.58211579,0,0,0.58211579,-261.3811,-394.64336)" x="0" y="0" width="2054.7151" height="2074.7334"/>
    <use id="use3237" xlink:href="#path3155" transform="matrix(-1.0514568,0,0,1.0514568,-683.7402,-915.06406)" x="0" y="0" width="2054.7151" height="2074.7334"/>
    <use id="use3239" xlink:href="#path3155" transform="matrix(-0.8307161,0,0,0.8307161,-360.0132,-666.51851)" x="0" y="0" width="2054.7151" height="2074.7334"/>
    <use id="use3241" xlink:href="#path3155" transform="matrix(-0.74857015,0,0,0.74857015,-201.5039,-590.51723)" x="0" y="0" width="2054.7151" height="2074.7334"/>
    <use id="use3243" xlink:href="#path3155" transform="matrix(-1.1327424,0,0,1.1327424,-459.0189,-874.44364)" x="0" y="0" width="2054.7151" height="2074.7334"/>
    <use id="use3279" xlink:href="#path3155" transform="matrix(-0.72197921,0,0,0.72197921,800.6905,-347.1422)" x="0" y="0" width="2054.7151" height="2074.7334"/>
    <use id="use3281" xlink:href="#path3155" transform="matrix(-0.62341549,0,0,0.62341549,981.81505,-528.73293)" x="0" y="0" width="2054.7151" height="2074.7334"/>
    <use id="use3283" xlink:href="#path3155" transform="matrix(-0.79795216,0,0,0.79795216,747.2982,-606.27858)" x="0" y="0" width="2054.7151" height="2074.7334"/>
    <use id="use3285" xlink:href="#path3155" transform="matrix(-0.96022838,0,0,0.96022838,681.4808,-702.6111)" x="0" y="0" width="2054.7151" height="2074.7334"/>
    <use id="use3287" xlink:href="#path3155" transform="matrix(-0.94635299,0,0,0.94635299,536.4855,-615.39132)" x="0" y="0" width="2054.7151" height="2074.7334"/>
    <use id="use3289" xlink:href="#path3155" transform="matrix(-1.3223335,0,0,1.3223335,443.6849,-897.14882)" x="0" y="0" width="2054.7151" height="2074.7334"/>
    <use id="use3291" xlink:href="#path3155" transform="matrix(-0.96148724,0,0,0.96148724,520.3613,-771.4433)" x="0" y="0" width="2054.7151" height="2074.7334"/>
    <use id="use3293" xlink:href="#path3155" transform="matrix(-0.87961351,0,0,0.87961351,1260.8124,-113.51983)" x="0" y="0" width="2054.7151" height="2074.7334"/>
    <use id="use3295" xlink:href="#path3155" transform="matrix(-0.76843755,0,0,0.76843755,1122.8631,-597.30708)" x="0" y="0" width="2054.7151" height="2074.7334"/>
    <use id="use3297" xlink:href="#path3155" transform="matrix(-1.5058314,0,0,1.5058314,814.5458,-946.91446)" x="0" y="0" width="2054.7151" height="2074.7334"/>
    <use id="use3299" xlink:href="#path3155" transform="matrix(-1.3091489,0,0,1.3091489,959.94022,-955.5774)" x="0" y="0" width="2054.7151" height="2074.7334"/>
    <use id="use3301" xlink:href="#path3155" transform="matrix(-1.2978344,0,0,1.2978344,898.258,-1137.6475)" x="0" y="0" width="2054.7151" height="2074.7334"/>
    <use id="use3367" xlink:href="#path3155" transform="matrix(-0.84513917,0,0,0.84513917,-4.4847,-566.68711)" x="0" y="0" width="2054.7151" height="2074.7334"/>
    <use id="use3369" xlink:href="#path3155" transform="matrix(-1.1142653,0,0,1.1142653,-144.43045,-713.36172)" x="0" y="0" width="2054.7151" height="2074.7334"/>
    <use id="use3371" xlink:href="#path3155" transform="matrix(-0.86883237,0,0,0.86883237,-95.983891,-540.38115)" x="0" y="0" width="2054.7151" height="2074.7334"/>
    <use id="use3373" xlink:href="#path3155" transform="matrix(-1.3808882,0,0,1.3808882,-522.6884,-1301.3677)" x="0" y="0" width="2054.7151" height="2074.7334"/>
    <use id="use3375" xlink:href="#path3155" transform="matrix(-0.54676979,0,0,0.54676979,-37.7565,-283.96136)" x="0" y="0" width="2054.7151" height="2074.7334"/>
    <use id="use3377" xlink:href="#path3155" transform="matrix(-0.58879469,0,0,0.58879469,100.6095,-299.16363)" x="0" y="0" width="2054.7151" height="2074.7334"/>
    <use id="use3379" xlink:href="#path3155" transform="matrix(-0.51774542,0,0,0.51774542,175.1957,-283.14672)" x="0" y="0" width="2054.7151" height="2074.7334"/>
    <use id="use3381" xlink:href="#path3155" transform="matrix(-0.66197435,0,0,0.66197435,116.1594,-503.32113)" x="0" y="0" width="2054.7151" height="2074.7334"/>
    <use id="use3383" xlink:href="#path3155" transform="matrix(-1.50975,0,0,1.50975,-502.70331,-1462.0321)" x="0" y="0" width="2054.7151" height="2074.7334"/>
    <use id="use3385" xlink:href="#path3155" transform="matrix(-0.51321781,0,0,0.51321781,260.3399,-259.26579)" x="0" y="0" width="2054.7151" height="2074.7334"/>
    <use id="use3387" xlink:href="#path3155" transform="matrix(-0.90281051,0,0,0.90281051,55.275661,-789.63877)" x="0" y="0" width="2054.7151" height="2074.7334"/>
    <use id="use3391" xlink:href="#path3155" transform="matrix(-0.55923517,0,0,0.55923517,71.640051,-379.33095)" x="0" y="0" width="2054.7151" height="2074.7334"/>
    <use id="use3393" xlink:href="#path3155" transform="matrix(-0.8597969,0,0,0.8597969,-3.8127,-583.96851)" x="0" y="0" width="2054.7151" height="2074.7334"/>
    <use id="use3395" xlink:href="#path3155" transform="matrix(-0.88416893,0,0,0.88416893,-98.4827,-704.17971)" x="0" y="0" width="2054.7151" height="2074.7334"/>
    <use id="use3397" xlink:href="#path3155" transform="matrix(-1.2012217,0,0,1.2012217,-378.99453,-998.63916)" x="0" y="0" width="2054.7151" height="2074.7334"/>
    <use id="use3399" xlink:href="#path3155" transform="matrix(-1.1614768,0,0,1.1614768,-286.2467,-913.60753)" x="0" y="0" width="2054.7151" height="2074.7334"/>
    <use id="use3401" xlink:href="#path3155" transform="matrix(-0.87411947,0,0,0.87411947,11.140422,-680.29915)" x="0" y="0" width="2054.7151" height="2074.7334"/>
    <use id="use3403" xlink:href="#path3155" transform="matrix(-1.3183562,0,0,1.3183562,-241.8139,-1052.05)" x="0" y="0" width="2054.7151" height="2074.7334"/>
    <use id="use3405" xlink:href="#path3155" transform="matrix(-1.1887248,0,0,1.1887248,-111.16435,-1023.3053)" x="0" y="0" width="2054.7151" height="2074.7334"/>
    <use id="use3407" xlink:href="#path3155" transform="matrix(-0.83976412,0,0,0.83976412,-191.1979,-611.25455)" x="0" y="0" width="2054.7151" height="2074.7334"/>
    <text xml:space="preserve" style="font-size:70px;font-style:normal;font-weight:normal;line-height:125%;letter-spacing:0px;word-spacing:0px;fill:#000000;fill-opacity:1;stroke:none;font-family:Sans" x="1212.4858" y="2271.7134" id="text3409" sodipodi:linespacing="125%"><tspan sodipodi:role="line" id="tspan3411" x="1212.4858" y="2271.7134">Both Reliable &amp; Valid</tspan></text>
    <text sodipodi:linespacing="125%" id="text3413" y="2266.9111" x="68.041176" style="font-size:70px;font-style:normal;font-weight:normal;line-height:125%;letter-spacing:0px;word-spacing:0px;fill:#000000;fill-opacity:1;stroke:none;font-family:Sans" xml:space="preserve"><tspan y="2266.9111" x="68.041176" id="tspan3415" sodipodi:role="line">Reliable, Not Valid</tspan></text>
    <text sodipodi:linespacing="125%" id="text3417" y="1060.1805" x="12.79208" style="font-size:70px;font-style:normal;font-weight:normal;line-height:125%;letter-spacing:0px;word-spacing:0px;fill:#000000;fill-opacity:1;stroke:none;font-family:Sans" xml:space="preserve"><tspan y="1060.1805" x="12.79208" id="tspan3419" sodipodi:role="line">Unreliable &amp; Unvalid</tspan></text>
    <text xml:space="preserve" style="font-size:70px;font-style:normal;font-weight:normal;line-height:125%;letter-spacing:0px;word-spacing:0px;fill:#000000;fill-opacity:1;stroke:none;font-family:Sans" x="1220.3785" y="1060.1805" id="text3421" sodipodi:linespacing="125%"><tspan sodipodi:role="line" id="tspan3423" x="1220.3785" y="1060.1805">Unreliable, But Valid</tspan></text>
  </g>
</svg>