<?xml version="1.0" encoding="UTF-8" standalone="no"?>
<!-- Created with Inkscape (http://www.inkscape.org/) -->
<svg xmlns:svg="http://www.w3.org/2000/svg" xmlns="http://www.w3.org/2000/svg" xmlns:xlink="http://www.w3.org/1999/xlink" version="1.1" width="540" height="210" id="svg3607">
  <defs id="defs3609">
    <linearGradient id="linearGradient4643">
      <stop id="stop4645" style="stop-color:#e74200;stop-opacity:1" offset="0"/>
      <stop id="stop4651" style="stop-color:#921e00;stop-opacity:1" offset="1"/>
    </linearGradient>
    <linearGradient id="linearGradient4549">
      <stop id="stop4551" style="stop-color:#ff8200;stop-opacity:1" offset="0"/>
      <stop id="stop4557" style="stop-color:#ffe0c1;stop-opacity:1" offset="0.7365247"/>
      <stop id="stop4553" style="stop-color:#ffcd99;stop-opacity:1" offset="1"/>
    </linearGradient>
    <linearGradient x1="277.29193" y1="435.30209" x2="306.38684" y2="435.30209" id="linearGradient4555" xlink:href="#linearGradient4549" gradientUnits="userSpaceOnUse" gradientTransform="translate(4.04061,-3.0304575)"/>
    <linearGradient id="linearGradient4549-7">
      <stop id="stop4551-9" style="stop-color:#ff8200;stop-opacity:1" offset="0"/>
      <stop id="stop4557-3" style="stop-color:#ffe0c1;stop-opacity:1" offset="0.7365247"/>
      <stop id="stop4553-1" style="stop-color:#ffcd99;stop-opacity:1" offset="1"/>
    </linearGradient>
    <linearGradient x1="277.29193" y1="435.30209" x2="306.38684" y2="435.30209" id="linearGradient4577" xlink:href="#linearGradient4549-7" gradientUnits="userSpaceOnUse" gradientTransform="matrix(0.24999992,0,0,0.41466687,222.80177,225.23294)"/>
    <linearGradient id="linearGradient4549-7-6">
      <stop id="stop4551-9-5" style="stop-color:#ff8200;stop-opacity:1" offset="0"/>
      <stop id="stop4557-3-0" style="stop-color:#ffe0c1;stop-opacity:1" offset="0.7365247"/>
      <stop id="stop4553-1-2" style="stop-color:#ffcd99;stop-opacity:1" offset="1"/>
    </linearGradient>
    <linearGradient x1="277.29193" y1="435.30209" x2="306.38684" y2="435.30209" id="linearGradient4618" xlink:href="#linearGradient4549-7-6" gradientUnits="userSpaceOnUse" gradientTransform="matrix(0,-0.16874998,1.2556628,0,-238.62238,444.35298)"/>
    <radialGradient cx="245.3678" cy="386.14529" r="22.449457" fx="245.3678" fy="386.14529" id="radialGradient4649" xlink:href="#linearGradient4643" gradientUnits="userSpaceOnUse" gradientTransform="matrix(0.80436645,0.219177,-0.19452073,0.71387943,127.84485,59.540587)"/>
  </defs>
  <g transform="translate(-149.42719,-347.86219)" id="layer2" style="display:inline">
    <path d="m 336.18346,388.61745 0,-18.57143 114.28571,0 0,90.71428 m -114.28571,-0.71428 0,-57.85715" id="path3633" style="color:#000000;fill:none;stroke:#000000;stroke-width:1;stroke-linecap:butt;stroke-linejoin:miter;stroke-miterlimit:4;stroke-opacity:1;stroke-dasharray:none;stroke-dashoffset:0;marker:none;visibility:visible;display:inline;overflow:visible;enable-background:accumulate"/>
    <path d="m 399.0406,461.47459 75.71429,0 m -155.71429,0 72.85714,0" id="path3635" style="color:#000000;fill:none;stroke:#000000;stroke-width:2;stroke-linecap:butt;stroke-linejoin:miter;stroke-miterlimit:4;stroke-opacity:1;stroke-dasharray:none;stroke-dashoffset:0;marker:none;visibility:visible;display:inline;overflow:visible;enable-background:accumulate"/>
    <path d="m 319.0406,490.90317 72.85714,0 7.14286,0 75.71429,0" id="path3635-1" style="color:#000000;fill:none;stroke:#000000;stroke-width:2;stroke-linecap:butt;stroke-linejoin:miter;stroke-miterlimit:4;stroke-opacity:1;stroke-dasharray:none;stroke-dashoffset:0;marker:none;visibility:visible;display:inline;overflow:visible;enable-background:accumulate"/>
    <path d="m 327.97733,462.82223 0,17.83936 -4.75816,0 5.23547,8.86002 5.22054,-8.86002 -4.74324,0 0,-17.83936 -0.95461,0 z" id="path3659" style="font-size:medium;font-style:normal;font-variant:normal;font-weight:normal;font-stretch:normal;text-indent:0;text-align:start;text-decoration:none;line-height:normal;letter-spacing:normal;word-spacing:normal;text-transform:none;direction:ltr;block-progression:tb;writing-mode:lr-tb;text-anchor:start;color:#000000;fill:#819fff;fill-opacity:1;stroke:none;stroke-width:2;marker:none;visibility:visible;display:inline;overflow:visible;enable-background:accumulate;font-family:Bitstream Vera Sans;-inkscape-font-specification:Bitstream Vera Sans"/>
    <path d="m 355.17733,462.82223 0,17.83936 -4.75816,0 5.23547,8.86002 5.22054,-8.86002 -4.74324,0 0,-17.83936 -0.95461,0 z" id="path3659-7" style="font-size:medium;font-style:normal;font-variant:normal;font-weight:normal;font-stretch:normal;text-indent:0;text-align:start;text-decoration:none;line-height:normal;letter-spacing:normal;word-spacing:normal;text-transform:none;direction:ltr;block-progression:tb;writing-mode:lr-tb;text-anchor:start;color:#000000;fill:#819fff;fill-opacity:1;stroke:none;stroke-width:2;marker:none;visibility:visible;display:inline;overflow:visible;enable-background:accumulate;font-family:Bitstream Vera Sans;-inkscape-font-specification:Bitstream Vera Sans"/>
    <path d="m 382.37733,462.82223 0,17.83936 -4.75816,0 5.23547,8.86002 5.22054,-8.86002 -4.74324,0 0,-17.83936 -0.95461,0 z" id="path3659-7-4" style="font-size:medium;font-style:normal;font-variant:normal;font-weight:normal;font-stretch:normal;text-indent:0;text-align:start;text-decoration:none;line-height:normal;letter-spacing:normal;word-spacing:normal;text-transform:none;direction:ltr;block-progression:tb;writing-mode:lr-tb;text-anchor:start;color:#000000;fill:#819fff;fill-opacity:1;stroke:none;stroke-width:2;marker:none;visibility:visible;display:inline;overflow:visible;enable-background:accumulate;font-family:Bitstream Vera Sans;-inkscape-font-specification:Bitstream Vera Sans"/>
    <path d="m 409.57733,462.82223 0,17.83936 -4.75816,0 5.23547,8.86002 5.22054,-8.86002 -4.74324,0 0,-17.83936 -0.95461,0 z" id="path3659-7-4-0" style="font-size:medium;font-style:normal;font-variant:normal;font-weight:normal;font-stretch:normal;text-indent:0;text-align:start;text-decoration:none;line-height:normal;letter-spacing:normal;word-spacing:normal;text-transform:none;direction:ltr;block-progression:tb;writing-mode:lr-tb;text-anchor:start;color:#000000;fill:#819fff;fill-opacity:1;stroke:none;stroke-width:2;marker:none;visibility:visible;display:inline;overflow:visible;enable-background:accumulate;font-family:Bitstream Vera Sans;-inkscape-font-specification:Bitstream Vera Sans"/>
    <path d="m 436.77733,462.82223 0,17.83936 -4.75816,0 5.23547,8.86002 5.22054,-8.86002 -4.74324,0 0,-17.83936 -0.95461,0 z" id="path3659-7-4-4" style="font-size:medium;font-style:normal;font-variant:normal;font-weight:normal;font-stretch:normal;text-indent:0;text-align:start;text-decoration:none;line-height:normal;letter-spacing:normal;word-spacing:normal;text-transform:none;direction:ltr;block-progression:tb;writing-mode:lr-tb;text-anchor:start;color:#000000;fill:#819fff;fill-opacity:1;stroke:none;stroke-width:2;marker:none;visibility:visible;display:inline;overflow:visible;enable-background:accumulate;font-family:Bitstream Vera Sans;-inkscape-font-specification:Bitstream Vera Sans"/>
    <path d="m 463.97733,462.82223 0,17.83936 -4.75816,0 5.23547,8.86002 5.22054,-8.86002 -4.74324,0 0,-17.83936 -0.95461,0 z" id="path3659-7-4-4-8" style="font-size:medium;font-style:normal;font-variant:normal;font-weight:normal;font-stretch:normal;text-indent:0;text-align:start;text-decoration:none;line-height:normal;letter-spacing:normal;word-spacing:normal;text-transform:none;direction:ltr;block-progression:tb;writing-mode:lr-tb;text-anchor:start;color:#000000;fill:#819fff;fill-opacity:1;stroke:none;stroke-width:2;marker:none;visibility:visible;display:inline;overflow:visible;enable-background:accumulate;font-family:Bitstream Vera Sans;-inkscape-font-specification:Bitstream Vera Sans"/>
    <g transform="matrix(0.49109363,0,0,1.0585795,270.53391,-103.25908)" id="g3804">
      <path d="m 416.78571,541.60316 6.51785,-6.78571 6.51785,6.78571" id="path3778" style="color:#000000;fill:none;stroke:#000000;stroke-width:1.386935;stroke-linecap:butt;stroke-linejoin:miter;stroke-miterlimit:4;stroke-opacity:1;stroke-dasharray:none;stroke-dashoffset:0;marker:none;visibility:visible;display:inline;overflow:visible;enable-background:accumulate"/>
      <path d="m 423.30356,535.21932 0,23.92858 0,0" id="path3780" style="color:#000000;fill:none;stroke:#000000;stroke-width:1.386935;stroke-linecap:butt;stroke-linejoin:miter;stroke-miterlimit:4;stroke-opacity:1;stroke-dasharray:none;stroke-dashoffset:0;marker:none;visibility:visible;display:inline;overflow:visible;enable-background:accumulate"/>
      <path d="m 416.78571,552.89793 6.51785,6.78571 6.51785,-6.78571" id="path3778-8" style="color:#000000;fill:none;stroke:#000000;stroke-width:1.386935;stroke-linecap:butt;stroke-linejoin:miter;stroke-miterlimit:4;stroke-opacity:1;stroke-dasharray:none;stroke-dashoffset:0;marker:none;visibility:visible;display:inline;overflow:visible;enable-background:accumulate"/>
    </g>
    <path d="m 507.28772,528.26519 -50.72381,-45.04746 2.9817,-3.35742 -10.10119,-1.96875 3.15808,9.78676 2.97178,-3.34626 50.72382,45.04746 0.98962,-1.11433 z" id="path3659-7-4-4-2" style="font-size:medium;font-style:normal;font-variant:normal;font-weight:normal;font-stretch:normal;text-indent:0;text-align:start;text-decoration:none;line-height:normal;letter-spacing:normal;word-spacing:normal;text-transform:none;direction:ltr;block-progression:tb;writing-mode:lr-tb;text-anchor:start;color:#000000;fill:#0039f0;fill-opacity:1;stroke:none;stroke-width:2;marker:none;visibility:visible;display:inline;overflow:visible;enable-background:accumulate;font-family:Bitstream Vera Sans;-inkscape-font-specification:Bitstream Vera Sans"/>
    <path d="m 321.2285,490.71737 0,-9.09137 c 0,0 -2.02031,1.01015 -4.54569,-1.01015 -2.52538,-2.02031 -5.94191,-10.76296 -16.66751,-6.56599 -11.61676,4.54568 -15.15229,18.18274 -11.61676,23.23351 3.53554,5.05076 11.61676,12.12183 11.61676,21.71828 0,8.71065 -5.55584,14.14213 -5.55584,14.14213 l 0,8.08122" id="path3833" style="color:#000000;fill:none;stroke:#000000;stroke-width:1;stroke-linecap:butt;stroke-linejoin:miter;stroke-miterlimit:4;stroke-opacity:1;stroke-dasharray:none;stroke-dashoffset:0;marker:none;visibility:visible;display:inline;overflow:visible;enable-background:accumulate"/>
    <path d="m 272.61203,541.47459 43.57143,0" id="path3835" style="color:#000000;fill:none;stroke:#000000;stroke-width:1;stroke-linecap:butt;stroke-linejoin:miter;stroke-miterlimit:4;stroke-opacity:1;stroke-dasharray:none;stroke-dashoffset:0;marker:none;visibility:visible;display:inline;overflow:visible;enable-background:accumulate"/>
    <path d="m 286.18346,547.90316 15.71428,0" id="path3837" style="color:#000000;fill:none;stroke:#000000;stroke-width:1;stroke-linecap:butt;stroke-linejoin:miter;stroke-miterlimit:4;stroke-opacity:1;stroke-dasharray:none;stroke-dashoffset:0;marker:none;visibility:visible;display:inline;overflow:visible;enable-background:accumulate"/>
    <path d="m 290.82631,554.33173 6.42858,0" id="path3839" style="color:#000000;fill:none;stroke:#000000;stroke-width:1;stroke-linecap:butt;stroke-linejoin:miter;stroke-miterlimit:4;stroke-opacity:1;stroke-dasharray:none;stroke-dashoffset:0;marker:none;visibility:visible;display:inline;overflow:visible;enable-background:accumulate"/>
    <path d="m 325.26911,458.39249 c -6.06092,-5.05076 -8.08122,-11.11167 -20.20305,-5.05076 -12.12183,6.06092 -16.16244,7.07107 -26.26397,8.08122 -10.10152,1.01015 -15.15229,-5.05076 -23.23351,3.03046 -8.08122,8.08122 -13.13198,12.12183 -18.18274,12.12183 -5.05076,0 -8.08122,1.01015 -21.21321,1.01015 -13.13198,0 -15.15228,0 -15.15228,0" id="path3841" style="color:#000000;fill:none;stroke:#ff0101;stroke-width:1;stroke-linecap:butt;stroke-linejoin:miter;stroke-miterlimit:4;stroke-opacity:1;stroke-dasharray:none;stroke-dashoffset:0;marker:none;visibility:visible;display:inline;overflow:visible;enable-background:accumulate"/>
    <path d="m 378.68345,385.3521 c 0,1.35251 -1.11929,2.44894 -2.5,2.44894 -1.38071,0 -2.5,-1.09643 -2.5,-2.44894 0,-1.35252 1.11929,-2.44895 2.5,-2.44895 1.38071,0 2.5,1.09643 2.5,2.44895 z" id="path3843" style="fill:#ff8200;fill-opacity:1;fill-rule:evenodd;stroke:none"/>
    <path d="m 416.89774,385.91724 c 0,1.35252 -1.11929,2.44895 -2.5,2.44895 -1.38071,0 -2.5,-1.09643 -2.5,-2.44895 0,-1.35251 1.11929,-2.44894 2.5,-2.44894 1.38071,0 2.5,1.09643 2.5,2.44894 z" id="path3843-4" style="fill:#ffcb9c;fill-opacity:1;fill-rule:evenodd;stroke:none"/>
    <path d="m 432.25489,402.87147 c 0,1.35251 -1.11929,2.44894 -2.5,2.44894 -1.38071,0 -2.5,-1.09643 -2.5,-2.44894 0,-1.35252 1.11929,-2.44895 2.5,-2.44895 1.38071,0 2.5,1.09643 2.5,2.44895 z" id="path3843-5" style="fill:#ff9e00;fill-opacity:1;fill-rule:evenodd;stroke:none"/>
    <path d="m 405.82631,402.11795 c 0,1.35252 -1.11929,2.44895 -2.5,2.44895 -1.38071,0 -2.5,-1.09643 -2.5,-2.44895 0,-1.35251 1.11929,-2.44894 2.5,-2.44894 1.38071,0 2.5,1.09643 2.5,2.44894 z" id="path3843-7" style="fill:#ff8200;fill-opacity:1;fill-rule:evenodd;stroke:none"/>
    <path d="m 386.18346,399.85739 c 0,1.35251 -1.11929,2.44894 -2.5,2.44894 -1.38071,0 -2.5,-1.09643 -2.5,-2.44894 0,-1.35252 1.11929,-2.44895 2.5,-2.44895 1.38071,0 2.5,1.09643 2.5,2.44895 z" id="path3843-52" style="fill:#ff8200;fill-opacity:1;fill-rule:evenodd;stroke:none"/>
    <path d="m 366.18346,398.7271 c 0,1.35252 -1.11929,2.44895 -2.5,2.44895 -1.38071,0 -2.5,-1.09643 -2.5,-2.44895 0,-1.35251 1.11929,-2.44894 2.5,-2.44894 1.38071,0 2.5,1.09643 2.5,2.44894 z" id="path3843-6" style="fill:#ff9e00;fill-opacity:1;fill-rule:evenodd;stroke:none"/>
    <path d="m 347.96917,394.58274 c 0,1.35251 -1.11929,2.44894 -2.5,2.44894 -1.38071,0 -2.5,-1.09643 -2.5,-2.44894 0,-1.35252 1.11929,-2.44895 2.5,-2.44895 1.38071,0 2.5,1.09643 2.5,2.44895 z" id="path3843-2" style="fill:#ff9e00;fill-opacity:1;fill-rule:evenodd;stroke:none"/>
    <path d="m 374.0406,417.9419 c 0,1.35251 -1.11929,2.44894 -2.5,2.44894 -1.38071,0 -2.5,-1.09643 -2.5,-2.44894 0,-1.35252 1.11929,-2.44895 2.5,-2.44895 1.38071,0 2.5,1.09643 2.5,2.44895 z" id="path3843-22" style="fill:#ff9e00;fill-opacity:1;fill-rule:evenodd;stroke:none"/>
    <path d="m 393.68346,421.33274 c 0,1.35251 -1.11929,2.44894 -2.5,2.44894 -1.38071,0 -2.5,-1.09643 -2.5,-2.44894 0,-1.35252 1.11929,-2.44895 2.5,-2.44895 1.38071,0 2.5,1.09643 2.5,2.44895 z" id="path3843-8" style="fill:#ff9e00;fill-opacity:1;fill-rule:evenodd;stroke:none"/>
    <path d="m 413.68346,419.07217 c 0,1.35251 -1.11929,2.44894 -2.5,2.44894 -1.38071,0 -2.5,-1.09643 -2.5,-2.44894 0,-1.35251 1.11929,-2.44895 2.5,-2.44895 1.38071,0 2.5,1.09644 2.5,2.44895 z" id="path3843-61" style="fill:#ff9e00;fill-opacity:1;fill-rule:evenodd;stroke:none"/>
    <path d="m 432.61203,417.9419 c 0,1.35251 -1.11929,2.44894 -2.5,2.44894 -1.38071,0 -2.5,-1.09643 -2.5,-2.44894 0,-1.35252 1.11929,-2.44895 2.5,-2.44895 1.38071,0 2.5,1.09643 2.5,2.44895 z" id="path3843-9" style="fill:#ffcb9c;fill-opacity:1;fill-rule:evenodd;stroke:none"/>
    <path d="m 421.18346,433.38907 c 0,1.35252 -1.11929,2.44895 -2.5,2.44895 -1.38071,0 -2.5,-1.09643 -2.5,-2.44895 0,-1.35251 1.11929,-2.44894 2.5,-2.44894 1.38071,0 2.5,1.09643 2.5,2.44894 z" id="path3843-79" style="fill:#ff8200;fill-opacity:1;fill-rule:evenodd;stroke:none"/>
    <path d="m 401.89774,440.54753 c 0,1.35251 -1.11929,2.44894 -2.5,2.44894 -1.38071,0 -2.5,-1.09643 -2.5,-2.44894 0,-1.35252 1.11929,-2.44895 2.5,-2.44895 1.38071,0 2.5,1.09643 2.5,2.44895 z" id="path3843-3" style="fill:#ff9e00;fill-opacity:1;fill-rule:evenodd;stroke:none"/>
    <path d="m 376.89774,440.17076 c 0,1.35252 -1.11929,2.44895 -2.5,2.44895 -1.38071,0 -2.5,-1.09643 -2.5,-2.44895 0,-1.35251 1.11929,-2.44894 2.5,-2.44894 1.38071,0 2.5,1.09643 2.5,2.44894 z" id="path3843-33" style="fill:#ff9e00;fill-opacity:1;fill-rule:evenodd;stroke:none"/>
    <path d="m 394.39774,468.97459 c 0,1.28209 -1.11929,2.32143 -2.5,2.32143 -1.38071,0 -2.5,-1.03934 -2.5,-2.32143 0,-1.28209 1.11929,-2.32143 2.5,-2.32143 1.38071,0 2.5,1.03934 2.5,2.32143 z" id="path3843-1" style="fill:#ff8200;fill-opacity:1;fill-rule:evenodd;stroke:none"/>
    <path d="m 433.32631,447.32922 c 0,1.35251 -1.11929,2.44894 -2.5,2.44894 -1.38071,0 -2.5,-1.09643 -2.5,-2.44894 0,-1.35252 1.11929,-2.44895 2.5,-2.44895 1.38071,0 2.5,1.09643 2.5,2.44895 z" id="path3843-87" style="fill:#ffcb9c;fill-opacity:1;fill-rule:evenodd;stroke:none"/>
    <path d="m 275.5191,413.50384 c 0,0 0,29.73636 0,33.2719 0,5.6821 40.4061,5.68771 40.4061,0 0,-4.79823 0,-33.2719 0,-33.2719" id="path4016" style="color:#000000;fill:url(#linearGradient4555);fill-opacity:1;fill-rule:nonzero;stroke:#8d8d8d;stroke-width:1;stroke-opacity:1;marker:none;visibility:visible;display:inline;overflow:visible;enable-background:accumulate"/>
    <path d="m 315.96296,413.31445 c 0,2.1196 -9.04801,3.83789 -20.20924,3.83789 -11.16124,0 -20.20924,-1.71829 -20.20924,-3.83789 0,-2.11963 9.048,-3.83792 20.20924,-3.83792 11.16123,0 20.20924,1.71829 20.20924,3.83792 z" id="path3843-2-4" style="color:#000000;fill:#ffb364;fill-opacity:1;fill-rule:nonzero;stroke:#8d8d8d;stroke-width:1;stroke-linecap:butt;stroke-linejoin:miter;stroke-miterlimit:4;stroke-opacity:1;stroke-dasharray:none;stroke-dashoffset:0;marker:none;visibility:visible;display:inline;overflow:visible;enable-background:accumulate"/>
    <path d="m 284.40424,398.54098 c 0,0 37.33885,-2e-5 41.7783,-2e-5 2.29854,0 3.52202,-2.26046 8.886,-2.27283 1.27497,-0.003 1.22435,-2.25355 0,-2.27282 -5.41495,-0.0852 -6.37136,-2.27283 -8.886,-2.27283 -6.02498,0 -41.7783,-4e-5 -41.7783,-4e-5" id="path4016-9-8" style="color:#000000;fill:url(#linearGradient4618);fill-opacity:1;fill-rule:nonzero;stroke:#8d8d8d;stroke-width:0.99999988;stroke-opacity:1;marker:none;visibility:visible;display:inline;overflow:visible;enable-background:accumulate"/>
    <path d="m 300.77291,398.96606 c -1.51523,-0.39223 -3.78838,-2.2316 -4.9241,-2.27302 -1.13571,-0.0414 -3.91474,2.24844 -5.17743,2.27302 0,0 0,11.32054 0,12.78661 0,2.35617 10.10153,2.3585 10.10153,0 0,-1.98967 0,-12.78661 0,-12.78661 z" id="path4016-9" style="color:#000000;fill:url(#linearGradient4577);fill-opacity:1;fill-rule:nonzero;stroke:#8d8d8d;stroke-width:0.99999988;stroke-opacity:1;marker:none;visibility:visible;display:inline;overflow:visible;enable-background:accumulate"/>
    <path d="m 284.0406,389.86745 c 0,-2.14286 0.35714,-3.21429 -2.67857,-3.21429 -3.03572,0 -5.35934,0.10084 -7.67858,0 -4.10714,-0.17857 -4.5,-9.28577 -17.53571,-9.10719 -8.74918,0.11985 -15.85714,8.39287 -15.85714,16.42858 0,8.03572 6.5813,16.85671 15.85714,16.42859 11.60715,-0.53571 13.07144,-7.32141 17.53572,-7.32141 4.46429,0 5,0 7.67857,0 1.02545,0 2.4172,-1.17773 2.67857,-2.64145 0.33506,-3.50522 0,-7.04897 0,-10.57283 z" id="path4641" style="color:#000000;fill:url(#radialGradient4649);fill-opacity:1;fill-rule:nonzero;stroke:#8d8d8d;stroke-width:1;stroke-linecap:butt;stroke-linejoin:miter;stroke-miterlimit:4;stroke-opacity:1;stroke-dasharray:none;stroke-dashoffset:0;marker:none;visibility:visible;display:inline;overflow:visible;enable-background:accumulate"/>
    <g transform="translate(4.04061,-3.0304575)" id="g4750">
      <path d="m 506.78572,470.2193 13.57142,2e-5 c 1.42858,-4.10714 0.53572,-7.32142 5.17858,-7.14285 2.32656,0.0895 98.39285,0.35714 98.39285,0.35714 5.89286,0 7.32143,34.28571 1.42857,34.28571 -5.89285,0 -97.14285,0.35715 -101.07142,0.17858 -3.92858,-0.17858 -4.46429,-8.21429 -4.46429,-8.21429 -8.03571,-0.17857 -10.89286,0.17855 -12.85714,-2e-5 -1.60715,-3.57142 0.71428,-4.88094 -1.07143,-6.48809 -1.78572,-1.60714 -2.85715,-0.83331 -2.85715,-3.51188 0,-2.67857 2.85715,-1.01193 2.85715,-2.97622 0,-4.10714 0.89286,-6.66667 0.89286,-6.4881 z" id="path4653" style="color:#000000;fill:none;stroke:#000000;stroke-width:2;stroke-linecap:butt;stroke-linejoin:miter;stroke-miterlimit:4;stroke-opacity:1;stroke-dasharray:none;stroke-dashoffset:0;marker:none;visibility:visible;display:inline;overflow:visible;enable-background:accumulate"/>
      <path d="m 520.53572,470.3979 c -1.96429,6.42856 -0.71429,20 -0.71429,20" id="path4655" style="color:#000000;fill:none;stroke:#000000;stroke-width:1;stroke-linecap:butt;stroke-linejoin:miter;stroke-miterlimit:4;stroke-opacity:1;stroke-dasharray:none;stroke-dashoffset:0;marker:none;visibility:visible;display:inline;overflow:visible;enable-background:accumulate"/>
      <path d="m 622.57486,464.14791 c -5.89295,22.76146 1.83438,33.57142 1.83438,33.57142" id="path4655-6" style="color:#000000;fill:none;stroke:#000000;stroke-width:1;stroke-linecap:butt;stroke-linejoin:miter;stroke-miterlimit:4;stroke-opacity:1;stroke-dasharray:none;stroke-dashoffset:0;marker:none;visibility:visible;display:inline;overflow:visible;enable-background:accumulate"/>
      <path d="m 627.15308,481.18407 c 0,6.19918 -1.11929,11.22463 -2.5,11.22463 -1.38071,0 -2.5,-5.02545 -2.5,-11.22463 0,-6.19921 1.11929,-11.22466 2.5,-11.22466 1.38071,0 2.5,5.02545 2.5,11.22466 z" id="path3843-5-0" style="fill:#92d3ff;fill-opacity:1;fill-rule:evenodd;stroke:none"/>
    </g>
    <g transform="translate(4.04061,-3.0304575)" id="g4739">
      <path d="m 680.21147,478.46927 c 0,0 -16.28871,-5.93465 -22.09709,-7.70242 -5.80837,-1.76776 -7.07106,-6.69226 -7.07106,-6.69226" id="path4701" style="color:#000000;fill:none;stroke:#000000;stroke-width:1;stroke-linecap:butt;stroke-linejoin:miter;stroke-miterlimit:4;stroke-opacity:1;stroke-dasharray:none;stroke-dashoffset:0;marker:none;visibility:visible;display:inline;overflow:visible;enable-background:accumulate"/>
      <path d="m 661.90246,472.02954 c -4.04061,-2.39911 -5.05077,-5.3033 -5.05077,-5.3033" id="path4703" style="color:#000000;fill:none;stroke:#000000;stroke-width:1;stroke-linecap:butt;stroke-linejoin:miter;stroke-miterlimit:4;stroke-opacity:1;stroke-dasharray:none;stroke-dashoffset:0;marker:none;visibility:visible;display:inline;overflow:visible;enable-background:accumulate"/>
      <path d="m 668.21591,474.17612 c -2.77792,-1.6415 -4.41942,-4.79822 -4.41942,-4.79822" id="path4705" style="color:#000000;fill:none;stroke:#000000;stroke-width:1;stroke-linecap:butt;stroke-linejoin:miter;stroke-miterlimit:4;stroke-opacity:1;stroke-dasharray:none;stroke-dashoffset:0;marker:none;visibility:visible;display:inline;overflow:visible;enable-background:accumulate"/>
      <path d="m 674.7819,476.82777 c -2.65165,-1.89404 -5.68211,-6.06092 -5.68211,-6.06092" id="path4707" style="color:#000000;fill:none;stroke:#000000;stroke-width:1;stroke-linecap:butt;stroke-linejoin:miter;stroke-miterlimit:4;stroke-opacity:1;stroke-dasharray:none;stroke-dashoffset:0;marker:none;visibility:visible;display:inline;overflow:visible;enable-background:accumulate"/>
      <path d="m 679.83266,478.72181 c 0,0 -14.89975,11.86929 -19.06663,15.40482 -4.16687,3.53554 -4.67195,8.20749 -4.67195,8.20749" id="path4709" style="color:#000000;fill:none;stroke:#000000;stroke-width:1;stroke-linecap:butt;stroke-linejoin:miter;stroke-miterlimit:4;stroke-opacity:1;stroke-dasharray:none;stroke-dashoffset:0;marker:none;visibility:visible;display:inline;overflow:visible;enable-background:accumulate"/>
      <path d="m 663.92276,490.84364 c -2.65165,5.55584 -1.6415,6.31345 -1.6415,6.31345" id="path4711" style="color:#000000;fill:none;stroke:#000000;stroke-width:1;stroke-linecap:butt;stroke-linejoin:miter;stroke-miterlimit:4;stroke-opacity:1;stroke-dasharray:none;stroke-dashoffset:0;marker:none;visibility:visible;display:inline;overflow:visible;enable-background:accumulate"/>
      <path d="m 667.71083,488.44452 c -1.89403,4.29315 -1.26269,3.91435 -1.26269,3.91435" id="path4713" style="color:#000000;fill:none;stroke:#000000;stroke-width:1;stroke-linecap:butt;stroke-linejoin:miter;stroke-miterlimit:4;stroke-opacity:1;stroke-dasharray:none;stroke-dashoffset:0;marker:none;visibility:visible;display:inline;overflow:visible;enable-background:accumulate"/>
      <path d="m 659.37708,471.3982 c -2.65166,3.40927 -3.94699,7.57765 -4.04062,10.48033 -0.25254,7.82869 5.93465,11.74303 5.93465,11.74303" id="path4715" style="color:#000000;fill:none;stroke:#000000;stroke-width:1;stroke-linecap:butt;stroke-linejoin:miter;stroke-miterlimit:4;stroke-opacity:1;stroke-dasharray:none;stroke-dashoffset:0;marker:none;visibility:visible;display:inline;overflow:visible;enable-background:accumulate"/>
      <path d="m 660.61439,482.38361 c 0,4.10709 -1.11929,7.43656 -2.5,7.43656 -1.38071,0 -2.5,-3.32947 -2.5,-7.43656 0,-4.10711 1.11929,-7.43658 2.5,-7.43658 1.38071,0 2.5,3.32947 2.5,7.43658 z" id="path3843-5-0-2" style="fill:#000000;fill-opacity:1;fill-rule:evenodd;stroke:none"/>
    </g>
  </g>
  <g transform="translate(-149.42719,-347.86219)" id="layer3" style="display:inline">
    <text x="462.6499" y="541.18445" id="text4756" xml:space="preserve" style="font-size:16px;font-style:normal;font-variant:normal;font-weight:normal;font-stretch:normal;text-align:start;line-height:100%;writing-mode:lr-tb;text-anchor:start;fill:#000000;fill-opacity:1;stroke:none;font-family:DejaVu Sans;-inkscape-font-specification:Bitstream Vera Sans"><tspan x="462.6499" y="541.18445" id="tspan4758">uniform electric field</tspan></text>
    <text x="527.80463" y="450.81631" id="text4760" xml:space="preserve" style="font-size:16px;font-style:normal;font-variant:normal;font-weight:normal;font-stretch:normal;text-align:start;line-height:100%;writing-mode:lr-tb;text-anchor:start;fill:#000000;fill-opacity:1;stroke:none;font-family:DejaVu Sans;-inkscape-font-specification:DejaVu Sans"><tspan x="527.80463" y="450.81631" id="tspan4762">microscope</tspan></text>
    <text x="366.68539" y="359.90259" id="text4764" xml:space="preserve" style="font-size:16px;font-style:normal;font-variant:normal;font-weight:normal;font-stretch:normal;text-align:start;line-height:100%;writing-mode:lr-tb;text-anchor:start;fill:#000000;fill-opacity:1;stroke:none;font-family:DejaVu Sans;-inkscape-font-specification:DejaVu Sans"><tspan x="366.68539" y="359.90259" id="tspan4766">cover</tspan></text>
    <text x="338.90622" y="437.17923" id="text4768" xml:space="preserve" style="font-size:16px;font-style:normal;font-variant:normal;font-weight:normal;font-stretch:normal;text-align:start;line-height:100%;writing-mode:lr-tb;text-anchor:start;fill:#000000;fill-opacity:1;stroke:none;font-family:DejaVu Sans;-inkscape-font-specification:DejaVu Sans"><tspan x="338.90622" y="437.17923" id="tspan4770">oil</tspan><tspan x="338.90622" y="453.17923" id="tspan4772">spray</tspan></text>
    <text x="153.03809" y="439.70462" id="text4774" xml:space="preserve" style="font-size:16px;font-style:normal;font-variant:normal;font-weight:normal;font-stretch:normal;text-align:start;line-height:100%;writing-mode:lr-tb;text-anchor:start;fill:#000000;fill-opacity:1;stroke:none;font-family:DejaVu Sans;-inkscape-font-specification:DejaVu Sans"><tspan x="153.03809" y="439.70462" id="tspan4776">several</tspan><tspan x="153.03809" y="455.70462" id="tspan4778">thousand</tspan><tspan x="153.03809" y="471.70462" id="tspan4780">volts</tspan></text>
    <text x="483.86319" y="481.60565" id="text4782" xml:space="preserve" style="font-size:16px;font-style:normal;font-variant:normal;font-weight:normal;font-stretch:normal;text-align:start;line-height:100%;writing-mode:lr-tb;text-anchor:start;fill:#000000;fill-opacity:1;stroke:none;font-family:DejaVu Sans;-inkscape-font-specification:DejaVu Sans"><tspan x="483.86319" y="481.60565" id="tspan4784">d</tspan></text>
  </g>
</svg>