<?xml version="1.0" encoding="UTF-8"?>
<svg width="375px" height="364px" viewBox="0 0 375 364" version="1.1" xmlns="http://www.w3.org/2000/svg" xmlns:xlink="http://www.w3.org/1999/xlink">
    <title>Goal wheel</title>
    <g id="NEW" stroke="none" stroke-width="1" fill="none" fill-rule="evenodd">
        <g id="Goal-wheel" transform="translate(0.380385, 0.482619)">
            <g id="Group-6" stroke="#0057E7" stroke-width="3">
                <path d="M186.795054,198.02979 L254.336062,338.516746 C229.715692,348.781022 207.203865,353.929116 186.795013,353.929116 C166.040883,353.929116 147.99187,350.64523 132.654268,344.050007 C131.829535,343.695369 131.006358,343.328455 130.185996,342.951428 C130.315747,343.805253 130.445748,344.699798 130.576078,345.63504 C131.509759,352.335087 131.888657,357.021441 131.682174,359.693609 C131.663846,359.9308 131.658485,360.15723 131.650796,360.361072 L131.646,360.454 L131.552152,360.337762 C128.774835,356.821153 125.69566,348.082723 121.902571,334.033343 L121.726996,333.381139 L186.795054,198.02979 Z" id="Triangle" fill="#7EACF3"/>
                <path d="M257.702946,162.251969 L325.243954,302.738926 C300.623583,313.003201 278.111757,318.151296 257.702905,318.151296 C236.948775,318.151296 218.899762,314.86741 203.56216,308.272187 C202.737427,307.917548 201.91425,307.550634 201.093888,307.173607 C201.223639,308.027432 201.35364,308.921977 201.48397,309.85722 C202.417651,316.557267 202.796549,321.24362 202.590066,323.915788 C202.571738,324.152979 202.566376,324.37941 202.558688,324.583251 L202.554,324.676 L202.460043,324.559941 C199.682727,321.043332 196.603551,312.304902 192.810462,298.255522 L192.634888,297.603318 L257.702946,162.251969 Z" id="Triangle-Copy-2" fill="#AADCCD" transform="translate(259.160723, 242.770031) rotate(-52.000000) translate(-259.160723, -242.770031) "/>
                <path d="M274.804766,85.3798985 L342.345774,225.866855 C317.725404,236.131131 295.213577,241.279225 274.804725,241.279225 C254.050595,241.279225 236.001583,237.995339 220.66398,231.400116 C219.839247,231.045478 219.01607,230.678563 218.195708,230.301537 C218.325459,231.155362 218.45546,232.049907 218.58579,232.985149 C219.519471,239.685196 219.898369,244.37155 219.691886,247.043717 C219.673558,247.280909 219.668197,247.507339 219.660509,247.711181 L219.656,247.805 L219.561864,247.68787 C216.784547,244.171261 213.705372,235.432832 209.912283,221.383452 L209.736709,220.731248 L274.804766,85.3798985 Z" id="Triangle-Copy-3" fill="#FFDDC9" transform="translate(276.262544, 165.897961) rotate(-103.000000) translate(-276.262544, -165.897961) "/>
                <path d="M223.932593,25.4619675 L291.473602,165.948924 C266.853231,176.2132 244.341404,181.361294 223.932552,181.361294 C203.178423,181.361294 185.12941,178.077408 169.791807,171.482185 C168.967074,171.127547 168.143897,170.760632 167.323535,170.383606 C167.453287,171.237431 167.583288,172.131976 167.713618,173.067218 C168.647299,179.767265 169.026197,184.453619 168.819713,187.125786 C168.801385,187.362977 168.796024,187.589408 168.788336,187.79325 L168.784,187.886 L168.689691,187.769939 C165.912374,184.25333 162.833199,175.514901 159.04011,161.465521 L158.864536,160.813317 L223.932593,25.4619675 Z" id="Triangle-Copy-4" fill="#BEE0E9" transform="translate(225.390371, 105.980030) rotate(-154.000000) translate(-225.390371, -105.980030) "/>
                <path d="M144.797399,27.1436487 L212.338408,167.630605 C187.718037,177.894881 165.20621,183.042975 144.797358,183.042975 C124.043229,183.042975 105.994216,179.759089 90.6566135,173.163866 C89.8318804,172.809228 89.0087034,172.442314 88.1883415,172.065287 C88.3180928,172.919112 88.4480937,173.813657 88.5784238,174.748899 C89.5121049,181.448946 89.8910029,186.1353 89.6845196,188.807468 C89.6661914,189.044659 89.66083,189.271089 89.653142,189.474931 L89.649,189.568 L89.5544971,189.451621 C86.7771804,185.935012 83.6980052,177.196582 79.9049161,163.147202 L79.729342,162.494998 L144.797399,27.1436487 Z" id="Triangle-Copy-5" fill="#FFE5E5" transform="translate(146.255177, 107.661711) rotate(-206.000000) translate(-146.255177, -107.661711) "/>
                <path d="M96.6607987,88.4406231 L164.201807,228.92758 C139.581437,239.191855 117.06961,244.33995 96.6607578,244.33995 C75.9066281,244.33995 57.8576153,241.056064 42.5200129,234.460841 C41.6952797,234.106203 40.8721027,233.739288 40.0517408,233.362261 C40.1814921,234.216086 40.311493,235.110632 40.4418231,236.045874 C41.3755042,242.745921 41.7544022,247.432275 41.5479189,250.104442 C41.5295907,250.341633 41.5242294,250.568064 41.5165413,250.771905 L41.512,250.866 L41.4178965,250.748595 C38.6405797,247.231986 35.5614045,238.493557 31.7683154,224.444177 L31.5927413,223.791972 L96.6607987,88.4406231 Z" id="Triangle-Copy-6" fill="#C29EC3" transform="translate(98.118576, 168.958685) rotate(-257.000000) translate(-98.118576, -168.958685) "/>
                <path d="M115.736212,164.324151 L183.277221,304.811108 C158.65685,315.075383 136.145023,320.223478 115.736171,320.223478 C94.9820417,320.223478 76.9330289,316.939592 61.5954264,310.344369 C60.7706933,309.989731 59.9475163,309.622816 59.1271543,309.245789 C59.2569057,310.099614 59.3869066,310.99416 59.5172367,311.929402 C60.4509178,318.629449 60.8298158,323.315803 60.6233325,325.98797 C60.6050043,326.225161 60.5996429,326.451592 60.5919549,326.655433 L60.587,326.748 L60.49331,326.632123 C57.7159933,323.115514 54.6368181,314.377085 50.8437289,300.327705 L50.6681549,299.6755 L115.736212,164.324151 Z" id="Triangle-Copy-7" fill="#FFD280" transform="translate(117.193990, 244.842213) rotate(-308.000000) translate(-117.193990, -244.842213) "/>
            </g>
            <text id="Environmental" font-family="Inter-Bold, Inter" font-size="13" font-weight="bold" fill="#2C3F58">
                <tspan x="201.208748" y="89.5173811">Environmental</tspan>
            </text>
            <text id="Spiritual" font-family="Inter-Bold, Inter" font-size="13" font-weight="bold" fill="#2C3F58">
                <tspan x="105.452534" y="89.5173811">Spiritual</tspan>
            </text>
            <text id="Social/Cultural" font-family="Inter-Bold, Inter" font-size="13" font-weight="bold" fill="#2C3F58">
                <tspan x="37.851504" y="171.517381">Social/Cultural</tspan>
            </text>
            <text id="Intellectual" font-family="Inter-Bold, Inter" font-size="13" font-weight="bold" fill="#2C3F58">
                <tspan x="256.535808" y="171.517381">Intellectual</tspan>
            </text>
            <text id="Occupational" font-family="Inter-Bold, Inter" font-size="13" font-weight="bold" fill="#2C3F58">
                <tspan x="50.6196148" y="260.517381">Occupational</tspan>
            </text>
            <text id="Emotional" font-family="Inter-Bold, Inter" font-size="13" font-weight="bold" fill="#2C3F58">
                <tspan x="247.358251" y="260.517381">Emotional</tspan>
            </text>
            <text id="Physical" font-family="Inter-Bold, Inter" font-size="13" font-weight="bold" fill="#2C3F58">
                <tspan x="160.394828" y="307.517381">Physical</tspan>
            </text>
        </g>
    </g>
</svg>